<svg width="24" height="24" viewBox="0 0 24 24" fill="none" xmlns="http://www.w3.org/2000/svg">
<path d="M19.4367 6.79151L19.9067 5.63912C19.9067 5.63912 19.3154 5.00227 18.5876 4.27445C17.8597 3.54663 16.3283 3.97119 16.3283 3.97119L14.5845 2H8.44352L6.69977 3.98635C6.69977 3.98635 5.16831 3.56179 4.44049 4.28961C3.71266 5.01744 3.1213 5.65428 3.1213 5.65428L3.59136 6.80667L3 8.50493C3 8.50493 4.75891 15.1463 4.95603 15.9651C5.36543 17.5572 5.63836 18.1789 6.79075 18.9977C7.94314 19.8165 10.0205 21.2115 10.3692 21.4238C10.7028 21.6361 11.1425 22 11.5216 22C11.9007 22 12.3252 21.6361 12.674 21.4238C13.0076 21.2115 15.1001 19.8014 16.2525 18.9977C17.4049 18.1941 17.6778 17.5724 18.0872 15.9651C18.2995 15.1463 20.0432 8.50493 20.0432 8.50493L19.4367 6.79151Z" fill="url(#paint0_linear_37148_74752)"/>
<path d="M15.8431 5.24494C15.8431 5.24494 18.0872 7.95912 18.0872 8.55048C18.0872 9.14184 17.7991 9.2783 17.511 9.58156C17.2229 9.88482 15.9796 11.204 15.8279 11.3708C15.6611 11.5376 15.3427 11.7954 15.5247 12.2654C15.7218 12.7203 16.0099 13.3117 15.6915 13.9182C15.373 14.5095 14.8272 14.9189 14.4784 14.8431C14.1297 14.7825 13.2957 14.3427 12.9924 14.1456C12.6892 13.9485 11.7339 13.16 11.7339 12.8568C11.7339 12.5535 12.7347 12.0076 12.9166 11.8863C13.0986 11.765 13.9326 11.2798 13.9477 11.0979C13.9629 10.9159 13.9629 10.8553 13.7051 10.3852C13.4625 9.91515 13.0076 9.29347 13.0834 8.88407C13.1592 8.47466 13.8719 8.26238 14.3874 8.06526C14.903 7.86814 15.8886 7.50423 16.0099 7.44358C16.1312 7.38293 16.1009 7.33744 15.7218 7.29195C15.3427 7.26162 14.2965 7.10999 13.8112 7.24646C13.326 7.38293 12.5224 7.58005 12.4466 7.68619C12.3859 7.79233 12.3253 7.79233 12.3859 8.1714C12.4466 8.53532 12.8105 10.3246 12.8408 10.643C12.8711 10.9614 12.947 11.1737 12.5982 11.2495C12.2646 11.3253 11.6884 11.4618 11.4913 11.4618C11.2942 11.4618 10.718 11.3253 10.3844 11.2495C10.0508 11.1737 10.1115 10.9614 10.1418 10.643C10.1721 10.3246 10.5209 8.55048 10.5967 8.1714C10.6573 7.80749 10.6119 7.79233 10.536 7.68619C10.4754 7.58005 9.65659 7.38293 9.17137 7.24646C8.68615 7.10999 7.63991 7.24646 7.26083 7.29195C6.88176 7.32228 6.85143 7.38293 6.97273 7.44358C7.09404 7.50423 8.07963 7.86814 8.59518 8.06526C9.11072 8.26238 9.82338 8.47466 9.89919 8.88407C9.97501 9.29347 9.53528 9.91515 9.27751 10.3852C9.0349 10.8553 9.01974 10.9007 9.0349 11.0979C9.05007 11.2798 9.88403 11.765 10.066 11.8863C10.2479 12.0076 11.2487 12.5535 11.2487 12.8568C11.2487 13.16 10.2934 13.9485 9.99017 14.1456C9.68691 14.3427 8.86811 14.7673 8.5042 14.8431C8.15545 14.9038 7.60958 14.5095 7.29116 13.9182C6.97273 13.3268 7.26083 12.7355 7.45795 12.2654C7.65507 11.8105 7.32148 11.5528 7.15469 11.3708C7.03339 11.1888 5.80518 9.86966 5.51709 9.58156C5.22899 9.2783 4.95605 9.12667 4.95605 8.55048C4.95605 7.97428 7.20018 5.24494 7.20018 5.24494C7.20018 5.24494 9.09555 5.60886 9.35333 5.60886C9.6111 5.60886 10.157 5.39657 10.6725 5.22978C11.188 5.06299 11.5216 5.06299 11.5216 5.06299C11.5216 5.06299 11.8552 5.06299 12.3708 5.22978C12.8863 5.39657 13.4322 5.60886 13.6899 5.60886C13.9477 5.60886 15.8431 5.24494 15.8431 5.24494Z" fill="white"/>
<path d="M14.1598 15.6316C14.2963 15.7226 14.2205 15.8894 14.084 15.9652C13.9627 16.0562 12.2493 17.3753 12.0977 17.527C11.9309 17.6786 11.6883 17.906 11.5215 17.906C11.3547 17.906 11.1121 17.6634 10.9453 17.527C10.7785 17.3753 9.08023 16.0562 8.95892 15.9652C8.83762 15.8742 8.74664 15.7074 8.88311 15.6316C9.01957 15.5406 9.4593 15.3283 10.0507 15.0099C10.6572 14.6915 11.4002 14.4337 11.5215 14.4337C11.6428 14.4337 12.3858 14.6915 12.9923 15.0099C13.5836 15.3283 14.0082 15.5558 14.1598 15.6316Z" fill="white"/>
<path d="M16.3282 3.98635L14.5845 2H8.44346L6.69972 3.98635C6.69972 3.98635 5.16825 3.56179 4.44043 4.28961C4.44043 4.28961 6.48744 4.10766 7.18493 5.24488C7.18493 5.24488 9.08031 5.60879 9.33808 5.60879C9.59585 5.60879 10.1417 5.39651 10.6573 5.22972C11.1728 5.06293 11.5064 5.06293 11.5064 5.06293C11.5064 5.06293 11.84 5.06293 12.3555 5.22972C12.8711 5.39651 13.4169 5.60879 13.6747 5.60879C13.9325 5.60879 15.8278 5.24488 15.8278 5.24488C16.5253 4.10766 18.5723 4.28961 18.5723 4.28961C17.8597 3.56179 16.3282 3.98635 16.3282 3.98635Z" fill="url(#paint1_linear_37148_74752)"/>
<defs>
<linearGradient id="paint0_linear_37148_74752" x1="2.99986" y1="11.9961" x2="20.0298" y2="11.9961" gradientUnits="userSpaceOnUse">
<stop stop-color="#FF5500"/>
<stop offset="0.4099" stop-color="#FF5500"/>
<stop offset="0.582" stop-color="#FF2000"/>
<stop offset="1" stop-color="#FF2000"/>
</linearGradient>
<linearGradient id="paint1_linear_37148_74752" x1="4.75018" y1="3.80106" x2="18.5825" y2="3.80106" gradientUnits="userSpaceOnUse">
<stop stop-color="#FF452A"/>
<stop offset="1" stop-color="#FF2000"/>
</linearGradient>
</defs>
</svg>
