<svg width="24" height="24" viewBox="0 0 24 24" fill="none" xmlns="http://www.w3.org/2000/svg">
<path d="M12.0001 3.4751C16.7083 3.4751 20.5251 7.29187 20.5251 12.0001C20.5251 16.7083 16.7083 20.5251 12.0001 20.5251C7.29187 20.5251 3.4751 16.7083 3.4751 12.0001C3.4751 7.29187 7.29187 3.4751 12.0001 3.4751Z" fill="#DE5833"/>
<path d="M12 22C17.5228 22 22 17.5228 22 12C22 6.47717 17.5228 2 12 2C6.47717 2 2 6.47717 2 12C2 17.5228 6.47717 22 12 22ZM12 21.1667C6.93738 21.1667 2.83333 17.0626 2.83333 12C2.83333 6.93738 6.93738 2.83333 12 2.83333C17.0626 2.83333 21.1667 6.93738 21.1667 12C21.1667 17.0626 17.0626 21.1667 12 21.1667Z" fill="#DE5833"/>
<path d="M7.84749 6.24425C7.84585 6.10089 7.94997 6.02062 8.08831 5.96436C8.02499 5.97471 7.96433 5.99056 7.90972 6.01505C7.76549 6.08041 7.65768 6.3279 7.6587 6.44505C8.35887 6.37427 9.39426 6.42324 10.1514 6.64923C10.2073 6.64138 10.2631 6.63353 10.3199 6.62702C9.56469 6.29173 8.66686 6.16225 7.84749 6.24425Z" fill="#D5D7D8"/>
<path d="M7.99079 5.38258C8.00656 5.37975 8.02257 5.37779 8.03842 5.37512C7.88737 5.39388 7.80772 5.44786 7.69434 5.46646C7.81745 5.47737 8.28395 5.69512 8.5771 5.81486C8.61822 5.79924 8.65526 5.7819 8.68547 5.76142C8.53348 5.73898 8.15581 5.39764 7.99079 5.38258Z" fill="#D5D7D8"/>
<path d="M8.71903 7.078C8.67705 7.09417 8.63718 7.11104 8.60266 7.12916C7.46134 7.73047 6.95718 9.13497 7.25763 10.818C7.53188 12.3495 8.65594 17.5823 9.17061 20.0436C9.32088 20.0964 9.47295 20.1454 9.6269 20.1899C9.16857 17.974 7.91755 12.1673 7.62565 10.5365C7.32974 8.87744 7.61764 7.687 8.71903 7.078Z" fill="#D5D7D8"/>
<path d="M13.3375 19.1513C13.3186 19.1639 13.2962 19.1756 13.2723 19.1871C13.2545 19.2558 13.2275 19.3079 13.188 19.3341C12.9523 19.4905 12.2865 19.5693 11.9349 19.4905C11.8744 19.4771 11.8286 19.4549 11.7928 19.4244C11.1926 19.7576 10.3295 20.2013 10.1542 20.1013C9.88031 19.9443 9.84061 17.8688 9.88031 17.3595C9.90927 16.975 11.2599 17.5978 11.9169 17.9245C12.0621 17.7888 12.418 17.698 12.7329 17.6672C12.257 16.5089 11.906 15.184 12.1212 14.2445C11.8238 14.0373 11.4297 13.5567 11.5117 13.055C11.575 12.6732 12.5617 11.9508 13.2603 11.9072C13.9604 11.863 14.1786 11.873 14.762 11.7333C14.7912 11.7263 14.8233 11.7186 14.8568 11.7105C15.2159 10.4482 14.3547 8.25214 13.3941 7.29113C13.081 6.97797 12.5995 6.78086 12.0569 6.67681C11.8483 6.39048 11.5117 6.1167 11.0353 5.86317C10.1506 5.39346 9.05718 5.20223 8.03858 5.37517C8.02273 5.37784 8.00672 5.3798 7.99095 5.38263C8.15597 5.39769 8.53364 5.73903 8.68563 5.76147C8.65542 5.78195 8.61838 5.7993 8.57727 5.81491C8.43461 5.86921 8.24072 5.90217 8.08825 5.96431C7.94991 6.02058 7.84579 6.10085 7.84743 6.24421C8.6668 6.16221 9.56463 6.29168 10.3198 6.62698C10.2631 6.63349 10.2072 6.64134 10.1513 6.64919C9.61579 6.72452 9.12356 6.86325 8.76794 7.05086C8.75123 7.05957 8.73538 7.06899 8.71898 7.07801C7.6176 7.68701 7.3297 8.87745 7.6256 10.5365C7.91751 12.1673 9.17669 18.0639 9.63502 20.2798C10.3886 20.4979 11.0931 20.6722 11.9169 20.6722C12.6162 20.6722 13.4573 20.5172 14.1077 20.3583C13.8793 19.9179 13.5854 19.4308 13.4043 19.0815C13.3802 19.1103 13.3611 19.1355 13.3375 19.1513ZM13.7983 10.7896C13.4998 10.7896 13.2563 10.5469 13.2563 10.2466C13.2563 9.94784 13.4998 9.70498 13.7983 9.70498C14.0985 9.70498 14.341 9.94784 14.341 10.2466C14.341 10.5469 14.0985 10.7896 13.7983 10.7896ZM14.1248 8.74884C14.1248 8.74884 13.7829 8.55353 13.5176 8.55683C12.9724 8.56397 12.824 8.80487 12.824 8.80487C12.824 8.80487 12.9155 8.23064 13.6127 8.34583C13.9906 8.40868 14.1248 8.74884 14.1248 8.74884ZM8.37662 9.45482C8.37662 9.45482 8.1311 8.90766 8.78544 8.63953C9.4405 8.37133 9.75947 8.79216 9.75947 8.79216C9.75947 8.79216 9.2838 8.57699 8.8213 8.86764C8.3596 9.15797 8.37662 9.45482 8.37662 9.45482ZM8.94866 10.621C8.94866 10.2721 9.23075 9.98982 9.58009 9.98982C9.92849 9.98982 10.211 10.2721 10.211 10.621C10.211 10.97 9.92849 11.252 9.58009 11.252C9.23075 11.2521 8.94866 10.97 8.94866 10.621Z" fill="white"/>
<path d="M10.2108 10.6211C10.2108 10.2722 9.92832 9.98987 9.57992 9.98987C9.23058 9.98987 8.94849 10.2722 8.94849 10.6211C8.94849 10.97 9.23058 11.2522 9.57992 11.252C9.92832 11.252 10.2108 10.97 10.2108 10.6211ZM9.85942 10.5747C9.76981 10.5749 9.69613 10.5012 9.69613 10.4107C9.69613 10.3199 9.76958 10.2469 9.85942 10.2469C9.94998 10.2469 10.0234 10.3199 10.0234 10.4107C10.0234 10.5012 9.94998 10.5747 9.85942 10.5747Z" fill="#2D4F8E"/>
<path d="M9.85958 10.2468C9.76974 10.2468 9.69629 10.3199 9.69629 10.4107C9.69629 10.5012 9.76997 10.5749 9.85958 10.5747C9.95013 10.5747 10.0236 10.5012 10.0236 10.4107C10.0236 10.3199 9.95013 10.2468 9.85958 10.2468Z" fill="white"/>
<path d="M13.7983 9.70496C13.4998 9.70496 13.2563 9.94782 13.2563 10.2466C13.2563 10.5468 13.4998 10.7896 13.7983 10.7896C14.0985 10.7896 14.341 10.5468 14.341 10.2466C14.341 9.94782 14.0985 9.70496 13.7983 9.70496ZM14.039 10.2067C13.9625 10.2067 13.8993 10.1445 13.8993 10.0663C13.8993 9.98917 13.9625 9.92584 14.039 9.92584C14.1188 9.92584 14.18 9.98917 14.18 10.0663C14.18 10.1445 14.1188 10.2067 14.039 10.2067Z" fill="#2D4F8E"/>
<path d="M14.0388 9.9259C13.9623 9.9259 13.8992 9.98923 13.8992 10.0664C13.8992 10.1445 13.9623 10.2067 14.0388 10.2067C14.1186 10.2067 14.1799 10.1445 14.1799 10.0664C14.1799 9.98923 14.1186 9.9259 14.0388 9.9259Z" fill="white"/>
<path d="M9.75952 8.79218C9.75952 8.79218 9.44054 8.37136 8.78549 8.63956C8.13114 8.90769 8.37667 9.45485 8.37667 9.45485C8.37667 9.45485 8.35964 9.158 8.82135 8.86767C9.28384 8.57702 9.75952 8.79218 9.75952 8.79218Z" fill="url(#paint0_linear_37148_74751)"/>
<path d="M13.6124 8.34584C12.9152 8.23065 12.8237 8.80488 12.8237 8.80488C12.8237 8.80488 12.9722 8.56398 13.5174 8.55684C13.7827 8.55354 14.1246 8.74885 14.1246 8.74885C14.1246 8.74885 13.9904 8.40869 13.6124 8.34584Z" fill="url(#paint1_linear_37148_74751)"/>
<path d="M13.26 11.9072C12.5614 11.9508 11.5747 12.6732 11.5115 13.055C11.4294 13.5567 11.8236 14.0373 12.121 14.2445C12.1217 14.2451 12.1226 14.2458 12.1234 14.2463C12.4207 14.4532 14.4004 15.121 15.3826 15.1025C16.3659 15.0833 17.9807 14.4812 17.8034 13.9987C17.6268 13.516 16.023 14.4245 14.3502 14.2695C13.1114 14.1544 12.8927 13.5993 13.167 13.194C13.512 12.6845 14.1405 13.2907 15.1771 12.9805C16.2152 12.6711 17.667 12.1175 18.2057 11.816C19.4512 11.1216 17.6845 10.8337 17.2672 11.0263C16.8717 11.209 15.4949 11.5565 14.8566 11.7105C14.823 11.7186 14.7909 11.7263 14.7617 11.7333C14.1784 11.873 13.9602 11.863 13.26 11.9072Z" fill="#FDD209"/>
<path d="M11.6995 18.2373C11.6995 18.165 11.7576 18.101 11.8499 18.0465C11.8525 18.0026 11.8763 17.9618 11.9163 17.9244C11.2593 17.5978 9.90873 16.9749 9.87978 17.3594C9.84007 17.8688 9.87978 19.9443 10.1536 20.1013C10.3289 20.2013 11.1921 19.7576 11.7923 19.4243C11.6191 19.2767 11.6995 18.9185 11.6995 18.2373Z" fill="#65BC46"/>
<path d="M13.3951 19.0781C13.3979 19.0792 13.401 19.0804 13.4038 19.0815C13.9416 19.289 15.0123 19.6797 15.2448 19.5944C15.5582 19.4746 15.4798 16.9694 15.1279 16.8896C14.8461 16.8271 13.767 17.5874 13.3425 17.8971C13.4176 18.2142 13.5085 18.8422 13.3951 19.0781Z" fill="#65BC46"/>
<path d="M12.0836 19.3077C11.7309 19.2295 11.8488 18.8766 11.8488 18.0544C11.8488 18.0518 11.8495 18.0492 11.8497 18.0465C11.7574 18.101 11.6993 18.165 11.6993 18.2373C11.6993 18.9184 11.6189 19.2767 11.7921 19.4243C11.8279 19.4549 11.8737 19.4771 11.9342 19.4905C12.2858 19.5693 12.9516 19.4905 13.1873 19.3341C13.2267 19.3079 13.2538 19.2558 13.2715 19.187C12.9957 19.3192 12.4065 19.3811 12.0836 19.3077Z" fill="#43A244"/>
<path d="M11.9164 17.9243C11.8764 17.9618 11.8525 18.0026 11.8499 18.0464C11.8498 18.0491 11.849 18.0517 11.849 18.0544C11.849 18.8766 11.7311 19.2294 12.0838 19.3076C12.4067 19.381 12.9959 19.3191 13.2718 19.187C13.2957 19.1755 13.3182 19.1638 13.337 19.1512C13.3606 19.1354 13.3797 19.1102 13.3951 19.0781C13.5085 18.8422 13.4177 18.2141 13.3426 17.897C13.326 17.8273 13.3103 17.7724 13.2977 17.7402C13.2653 17.66 13.0157 17.6393 12.7325 17.667C12.4175 17.6979 12.0616 17.7887 11.9164 17.9243Z" fill="#65BC46"/>
<defs>
<linearGradient id="paint0_linear_37148_74751" x1="9.34547" y1="9.45485" x2="8.33154" y2="9.45485" gradientUnits="userSpaceOnUse">
<stop stop-color="#394A9F"/>
<stop offset="1" stop-color="#6176B9"/>
</linearGradient>
<linearGradient id="paint1_linear_37148_74751" x1="13.7474" y1="8.80488" x2="12.8237" y2="8.80488" gradientUnits="userSpaceOnUse">
<stop stop-color="#394A9F"/>
<stop offset="1" stop-color="#6176B9"/>
</linearGradient>
</defs>
</svg>
