<svg style="margin:0 5px" width="24" height="24" viewBox="0 0 24 24" fill="none" xmlns="http://www.w3.org/2000/svg">
<path d="M20.0665 16.8843C19.7997 17.0237 19.5245 17.1466 19.2425 17.2522C18.3448 17.5877 17.394 17.7587 16.4356 17.7568C12.7358 17.7568 9.5129 15.2141 9.5129 11.9512C9.51764 11.5136 9.63919 11.0851 9.86501 10.7101C10.0908 10.3351 10.4127 10.0271 10.7975 9.81787C7.45112 9.95848 6.59106 13.4425 6.59106 15.4836C6.59106 21.2549 11.9148 21.8399 13.0618 21.8399C13.6803 21.8399 14.613 21.6603 15.1728 21.4837L15.2753 21.4494C17.4295 20.7053 19.266 19.2507 20.4825 17.3248C20.5198 17.2662 20.5364 17.1968 20.5298 17.1276C20.5232 17.0585 20.4937 16.9935 20.4459 16.943C20.3982 16.8925 20.335 16.8592 20.2663 16.8486C20.1976 16.838 20.1273 16.8505 20.0665 16.8843Z" fill="url(#paint0_linear_37148_74748)"/>
<path opacity="0.35" d="M20.0665 16.8843C19.7997 17.0237 19.5245 17.1466 19.2425 17.2522C18.3448 17.5877 17.394 17.7587 16.4356 17.7568C12.7358 17.7568 9.5129 15.2141 9.5129 11.9512C9.51764 11.5136 9.63919 11.0851 9.86501 10.7101C10.0908 10.3351 10.4127 10.0271 10.7975 9.81787C7.45112 9.95848 6.59106 13.4425 6.59106 15.4836C6.59106 21.2549 11.9148 21.8399 13.0618 21.8399C13.6803 21.8399 14.613 21.6603 15.1728 21.4837L15.2753 21.4494C17.4295 20.7053 19.266 19.2507 20.4825 17.3248C20.5198 17.2662 20.5364 17.1968 20.5298 17.1276C20.5232 17.0585 20.4937 16.9935 20.4459 16.943C20.3982 16.8925 20.335 16.8592 20.2663 16.8486C20.1976 16.838 20.1273 16.8505 20.0665 16.8843Z" fill="url(#paint1_radial_37148_74748)"/>
<path d="M10.2668 20.8588C9.56941 20.4263 8.96504 19.8597 8.48882 19.1918C7.94604 18.4488 7.57253 17.5962 7.39449 16.6937C7.21645 15.7912 7.23819 14.8608 7.45819 13.9676C7.67818 13.0744 8.09111 12.2401 8.668 11.5233C9.24489 10.8064 9.97178 10.2243 10.7977 9.81785C11.0416 9.70302 11.4584 9.49523 12.0127 9.50539C12.4032 9.50823 12.7878 9.60139 13.1363 9.77758C13.4848 9.95376 13.7877 10.2082 14.0213 10.5209C14.3371 10.9421 14.5111 11.4524 14.5186 11.9785C14.5186 11.9621 16.431 5.7605 8.26365 5.7605C4.83125 5.7605 2.00871 9.01482 2.00871 11.87C1.99517 13.3803 2.31862 14.8747 2.95555 16.2445C3.99647 18.4634 5.81676 20.2232 8.07075 21.1896C10.3247 22.156 12.8555 22.2618 15.1824 21.4868C14.3676 21.7435 13.5069 21.8205 12.6595 21.7126C11.812 21.6048 10.9981 21.3145 10.2738 20.8619L10.2668 20.8588Z" fill="url(#paint2_linear_37148_74748)"/>
<path opacity="0.41" d="M10.2668 20.8588C9.56941 20.4263 8.96504 19.8597 8.48882 19.1918C7.94604 18.4488 7.57253 17.5962 7.39449 16.6937C7.21645 15.7912 7.23819 14.8608 7.45819 13.9676C7.67818 13.0744 8.09111 12.2401 8.668 11.5233C9.24489 10.8064 9.97178 10.2243 10.7977 9.81785C11.0416 9.70302 11.4584 9.49523 12.0127 9.50539C12.4032 9.50823 12.7878 9.60139 13.1363 9.77758C13.4848 9.95376 13.7877 10.2082 14.0213 10.5209C14.3371 10.9421 14.5111 11.4524 14.5186 11.9785C14.5186 11.9621 16.431 5.7605 8.26365 5.7605C4.83125 5.7605 2.00871 9.01482 2.00871 11.87C1.99517 13.3803 2.31862 14.8747 2.95555 16.2445C3.99647 18.4634 5.81676 20.2232 8.07075 21.1896C10.3247 22.156 12.8555 22.2618 15.1824 21.4868C14.3676 21.7435 13.5069 21.8205 12.6595 21.7126C11.812 21.6048 10.9981 21.3145 10.2738 20.8619L10.2668 20.8588Z" fill="url(#paint3_radial_37148_74748)"/>
<path d="M13.9102 13.6284C13.8469 13.7104 13.6522 13.8237 13.6522 14.0705C13.6522 14.2744 13.7851 14.4705 14.0212 14.6353C15.1455 15.4164 17.2652 15.3133 17.2706 15.3133C18.1037 15.3113 18.9211 15.0861 19.6374 14.6611C20.36 14.2395 20.9597 13.6365 21.377 12.9119C21.7944 12.1873 22.0149 11.3663 22.0166 10.5303C22.0369 8.7797 21.3911 7.61577 21.1299 7.1002C19.4732 3.86229 15.8969 2 12.0079 2C9.37784 1.99974 6.85339 3.03387 4.98054 4.87871C3.10769 6.72356 2.03699 9.23084 2 11.8583C2.03753 9.00389 4.87727 6.69869 8.25494 6.69869C8.52859 6.69869 10.0892 6.72525 11.5388 7.48532C12.8163 8.15555 13.4856 8.96484 13.9508 9.76709C14.434 10.6006 14.52 11.6536 14.52 12.0731C14.52 12.4926 14.3058 13.1144 13.9102 13.6284Z" fill="url(#paint4_radial_37148_74748)"/>
<path d="M13.9102 13.6284C13.8469 13.7104 13.6522 13.8237 13.6522 14.0705C13.6522 14.2744 13.7851 14.4705 14.0212 14.6353C15.1455 15.4164 17.2652 15.3133 17.2706 15.3133C18.1037 15.3113 18.9211 15.0861 19.6374 14.6611C20.36 14.2395 20.9597 13.6365 21.377 12.9119C21.7944 12.1873 22.0149 11.3663 22.0166 10.5303C22.0369 8.7797 21.3911 7.61577 21.1299 7.1002C19.4732 3.86229 15.8969 2 12.0079 2C9.37784 1.99974 6.85339 3.03387 4.98054 4.87871C3.10769 6.72356 2.03699 9.23084 2 11.8583C2.03753 9.00389 4.87727 6.69869 8.25494 6.69869C8.52859 6.69869 10.0892 6.72525 11.5388 7.48532C12.8163 8.15555 13.4856 8.96484 13.9508 9.76709C14.434 10.6006 14.52 11.6536 14.52 12.0731C14.52 12.4926 14.3058 13.1144 13.9102 13.6284Z" fill="url(#paint5_radial_37148_74748)"/>
<defs>
<linearGradient id="paint0_linear_37148_74748" x1="6.59106" y1="15.8305" x2="20.5349" y2="15.8305" gradientUnits="userSpaceOnUse">
<stop stop-color="#0C59A4"/>
<stop offset="1" stop-color="#114A8B"/>
</linearGradient>
<radialGradient id="paint1_radial_37148_74748" cx="0" cy="0" r="1" gradientUnits="userSpaceOnUse" gradientTransform="translate(14.2925 15.9403) scale(7.45745 7.07818)">
<stop offset="0.72" stop-opacity="0"/>
<stop offset="0.95" stop-opacity="0.53"/>
<stop offset="1"/>
</radialGradient>
<linearGradient id="paint2_linear_37148_74748" x1="13.9423" y1="9.78739" x2="5.24166" y2="19.273" gradientUnits="userSpaceOnUse">
<stop stop-color="#1B9DE2"/>
<stop offset="0.16" stop-color="#1595DF"/>
<stop offset="0.67" stop-color="#0680D7"/>
<stop offset="1" stop-color="#0078D4"/>
</linearGradient>
<radialGradient id="paint3_radial_37148_74748" cx="0" cy="0" r="1" gradientUnits="userSpaceOnUse" gradientTransform="translate(7.51966 17.5457) rotate(-81.3767) scale(11.2041 9.05961)">
<stop offset="0.76" stop-opacity="0"/>
<stop offset="0.95" stop-opacity="0.5"/>
<stop offset="1"/>
</radialGradient>
<radialGradient id="paint4_radial_37148_74748" cx="0" cy="0" r="1" gradientUnits="userSpaceOnUse" gradientTransform="translate(4.0221 5.70089) rotate(92.2927) scale(15.8257 33.7359)">
<stop stop-color="#35C1F1"/>
<stop offset="0.11" stop-color="#34C1ED"/>
<stop offset="0.23" stop-color="#2FC2DF"/>
<stop offset="0.31" stop-color="#2BC3D2"/>
<stop offset="0.67" stop-color="#36C752"/>
</radialGradient>
<radialGradient id="paint5_radial_37148_74748" cx="0" cy="0" r="1" gradientUnits="userSpaceOnUse" gradientTransform="translate(20.7705 8.04667) rotate(73.7259) scale(7.60437 6.18858)">
<stop stop-color="#66EB6E"/>
<stop offset="1" stop-color="#66EB6E" stop-opacity="0"/>
</radialGradient>
</defs>
</svg>
