<svg style="margin:0 5px" width="24" height="24" viewBox="0 0 24 24" fill="none" xmlns="http://www.w3.org/2000/svg">
<path d="M20.6617 8.70949C20.2405 7.69607 19.3862 6.60187 18.7171 6.25598C19.1943 7.18014 19.5255 8.17265 19.6988 9.19819L19.7005 9.21445C18.6046 6.48207 16.7461 5.38037 15.2282 2.98138C15.1514 2.86008 15.0746 2.73853 14.9998 2.61023C14.9571 2.53695 14.9228 2.47092 14.8931 2.41015C14.8301 2.28824 14.7816 2.1594 14.7485 2.02624C14.7485 2.02009 14.7463 2.01415 14.7423 2.00954C14.7382 2.00492 14.7326 2.00197 14.7265 2.00123C14.7205 1.99959 14.7142 1.99959 14.7082 2.00123C14.707 2.00123 14.705 2.00348 14.7035 2.00398C14.702 2.00448 14.6987 2.00673 14.6965 2.00773L14.7002 2.00123C12.2655 3.42682 11.4394 6.0659 11.3633 7.38594C10.391 7.45278 9.46141 7.81108 8.69575 8.41412C8.61587 8.34645 8.53238 8.28317 8.44565 8.22454C8.22478 7.45146 8.21537 6.63328 8.41839 5.85531C7.52426 6.28847 6.72976 6.9025 6.08518 7.65856H6.08068C5.69652 7.17161 5.72353 5.56595 5.74554 5.23056C5.63189 5.27623 5.52341 5.33383 5.42191 5.40238C5.08278 5.64442 4.76574 5.91601 4.47452 6.21396C4.14266 6.55043 3.83956 6.9141 3.56839 7.30116V7.30266V7.30091C2.9452 8.18441 2.50318 9.18261 2.26786 10.2379L2.25485 10.3019C2.2366 10.3872 2.17082 10.8144 2.15957 10.9071C2.15957 10.9144 2.15807 10.9212 2.15731 10.9284C2.07246 11.3694 2.01989 11.816 2 12.2647L2 12.3147C2.00213 14.7418 2.91463 17.0798 4.55718 18.8666C6.19973 20.6534 8.4528 21.759 10.8711 21.965C13.2894 22.171 15.697 21.4623 17.6181 19.979C19.5391 18.4956 20.8339 16.3457 21.2464 13.9539C21.2627 13.8288 21.2759 13.705 21.2904 13.5787C21.4901 11.9286 21.2739 10.2548 20.6617 8.70949ZM9.48958 16.2971C9.53485 16.3189 9.57737 16.3424 9.62389 16.3631L9.63064 16.3674C9.58362 16.3449 9.5366 16.3215 9.48958 16.2971ZM19.7013 9.2167V9.20744L19.703 9.2177L19.7013 9.2167Z" fill="url(#paint0_linear_37148_74749)"/>
<path d="M20.6617 8.70949C20.2405 7.69607 19.3862 6.60187 18.7171 6.25598C19.1943 7.18014 19.5255 8.17265 19.6988 9.19819V9.20745L19.7005 9.2177C20.4477 11.3557 20.3396 13.6997 19.3989 15.7599C18.2879 18.1436 15.5988 20.5869 11.3896 20.4681C6.84149 20.3393 2.83609 16.9644 2.08729 12.5441C1.95098 11.847 2.08729 11.4936 2.15581 10.9272C2.06233 11.3672 2.01017 11.815 2 12.2647L2 12.3147C2.00213 14.7418 2.91463 17.0798 4.55718 18.8666C6.19973 20.6534 8.4528 21.759 10.8711 21.965C13.2894 22.171 15.697 21.4623 17.6181 19.979C19.5391 18.4956 20.8339 16.3457 21.2464 13.9539C21.2627 13.8288 21.2759 13.705 21.2904 13.5787C21.4901 11.9286 21.2739 10.2548 20.6617 8.70949Z" fill="url(#paint1_radial_37148_74749)"/>
<path d="M20.6617 8.70949C20.2405 7.69607 19.3862 6.60187 18.7171 6.25598C19.1943 7.18014 19.5255 8.17265 19.6988 9.19819V9.20745L19.7005 9.2177C20.4477 11.3557 20.3396 13.6997 19.3989 15.7599C18.2879 18.1436 15.5988 20.5869 11.3896 20.4681C6.84149 20.3393 2.83609 16.9644 2.08729 12.5441C1.95098 11.847 2.08729 11.4936 2.15581 10.9272C2.06233 11.3672 2.01017 11.815 2 12.2647L2 12.3147C2.00213 14.7418 2.91463 17.0798 4.55718 18.8666C6.19973 20.6534 8.4528 21.759 10.8711 21.965C13.2894 22.171 15.697 21.4623 17.6181 19.979C19.5391 18.4956 20.8339 16.3457 21.2464 13.9539C21.2627 13.8288 21.2759 13.705 21.2904 13.5787C21.4901 11.9286 21.2739 10.2548 20.6617 8.70949Z" fill="url(#paint2_radial_37148_74749)"/>
<path d="M15.9512 9.84895C15.9722 9.8637 15.9917 9.87846 16.0114 9.89322C15.768 9.46146 15.4649 9.06617 15.1111 8.71898C12.0983 5.70574 14.3215 2.18555 14.6964 2.00672L14.7002 2.00122C12.2654 3.42681 11.4393 6.06589 11.3633 7.38594C11.4763 7.37818 11.5884 7.36868 11.7039 7.36868C12.5678 7.37026 13.4159 7.60059 14.1619 8.03624C14.9079 8.47189 15.5253 9.09732 15.9512 9.84895Z" fill="url(#paint3_radial_37148_74749)"/>
<path d="M11.7104 10.4507C11.6944 10.6918 10.8425 11.5234 10.5446 11.5234C7.78825 11.5234 7.34082 13.1908 7.34082 13.1908C7.46287 14.5949 8.44127 15.7514 9.62401 16.3631C9.67803 16.3911 9.7328 16.4164 9.78758 16.4411C9.88245 16.4832 9.97732 16.522 10.0722 16.5577C10.4781 16.7013 10.9032 16.7834 11.3335 16.801C16.1647 17.0276 17.1006 11.0237 13.6142 9.28144C14.4366 9.17442 15.2695 9.37666 15.9514 9.84892C15.5255 9.0973 14.9081 8.47186 14.1621 8.03621C13.4161 7.60056 12.568 7.37024 11.7041 7.36865C11.5891 7.36865 11.4765 7.37816 11.3635 7.38591C10.3912 7.45275 9.46153 7.81105 8.69588 8.41408C8.84369 8.53913 9.01051 8.7062 9.3619 9.0526C10.0197 9.70061 11.7066 10.3719 11.7104 10.4507Z" fill="url(#paint4_radial_37148_74749)"/>
<path d="M11.7104 10.4507C11.6944 10.6918 10.8425 11.5234 10.5446 11.5234C7.78825 11.5234 7.34082 13.1908 7.34082 13.1908C7.46287 14.5949 8.44127 15.7514 9.62401 16.3631C9.67803 16.3911 9.7328 16.4164 9.78758 16.4411C9.88245 16.4832 9.97732 16.522 10.0722 16.5577C10.4781 16.7013 10.9032 16.7834 11.3335 16.801C16.1647 17.0276 17.1006 11.0237 13.6142 9.28144C14.4366 9.17442 15.2695 9.37666 15.9514 9.84892C15.5255 9.0973 14.9081 8.47186 14.1621 8.03621C13.4161 7.60056 12.568 7.37024 11.7041 7.36865C11.5891 7.36865 11.4765 7.37816 11.3635 7.38591C10.3912 7.45275 9.46153 7.81105 8.69588 8.41408C8.84369 8.53913 9.01051 8.7062 9.3619 9.0526C10.0197 9.70061 11.7066 10.3719 11.7104 10.4507Z" fill="url(#paint5_radial_37148_74749)"/>
<path d="M8.24388 8.09177C8.32242 8.14179 8.38719 8.1853 8.44397 8.22457C8.2231 7.45149 8.21369 6.63331 8.41671 5.85535C7.52257 6.28851 6.72808 6.90254 6.0835 7.65859C6.13077 7.65734 7.53684 7.63208 8.24388 8.09177Z" fill="url(#paint6_radial_37148_74749)"/>
<path d="M2.08853 12.544C2.83659 16.9644 6.84273 20.3392 11.3909 20.468C15.6001 20.5871 18.2892 18.1436 19.4001 15.7599C20.3408 13.6997 20.4489 11.3557 19.7018 9.21767V9.20842C19.7018 9.20116 19.7003 9.19691 19.7018 9.19916L19.7035 9.21542C20.0474 11.4606 18.9054 13.6357 17.1202 15.1066L17.1147 15.1191C13.6363 17.952 10.3074 16.8283 9.63363 16.3696C9.58661 16.3471 9.53959 16.3237 9.49257 16.2993C7.46449 15.3299 6.62664 13.4822 6.80622 11.8975C6.3248 11.9046 5.85165 11.772 5.44409 11.5156C5.03654 11.2593 4.71208 10.8902 4.51002 10.4532C5.0424 10.127 5.64942 9.94265 6.27325 9.91761C6.89708 9.89256 7.51694 10.0277 8.07374 10.3101C9.22167 10.8313 10.5279 10.8826 11.7132 10.4532C11.7095 10.3744 10.0225 9.70287 9.36477 9.0551C9.01338 8.70871 8.84656 8.54189 8.69875 8.41659C8.61886 8.34893 8.53537 8.28564 8.44864 8.22701C8.39112 8.18775 8.32634 8.14523 8.24856 8.09421C7.54152 7.63452 6.13544 7.65978 6.08892 7.66103H6.08442C5.70026 7.17408 5.72727 5.56842 5.74928 5.23303C5.63564 5.27871 5.52715 5.3363 5.42565 5.40485C5.08652 5.64689 4.76949 5.91848 4.47826 6.21644C4.14521 6.55196 3.84086 6.91479 3.56839 7.30113V7.30263V7.30088C2.94519 8.18439 2.50317 9.18258 2.26785 10.2378C2.2631 10.2576 1.91871 11.7632 2.08853 12.544Z" fill="url(#paint7_radial_37148_74749)"/>
<path d="M15.1118 8.71899C15.4657 9.06656 15.7688 9.46228 16.0122 9.89448C16.0654 9.93474 16.1152 9.97476 16.1575 10.0135C18.3551 12.0394 17.2037 14.903 17.1179 15.1069C18.9031 13.636 20.0441 11.4609 19.7012 9.2157C18.6047 6.48207 16.7462 5.38037 15.2284 2.98138C15.1516 2.86008 15.0748 2.73853 15 2.61023C14.9572 2.53695 14.923 2.47092 14.8932 2.41015C14.8303 2.28824 14.7817 2.1594 14.7487 2.02624C14.7487 2.02009 14.7465 2.01415 14.7424 2.00954C14.7384 2.00492 14.7327 2.00197 14.7266 2.00123C14.7207 1.99959 14.7144 1.99959 14.7084 2.00123C14.7071 2.00123 14.7051 2.00348 14.7036 2.00398C14.7021 2.00448 14.6989 2.00673 14.6966 2.00773C14.3217 2.18555 12.0986 5.70575 15.1118 8.71899Z" fill="url(#paint8_radial_37148_74749)"/>
<path d="M16.1557 10.0123C16.1135 9.97356 16.0637 9.93354 16.0104 9.89327C15.9907 9.87852 15.9712 9.86376 15.9502 9.84901C15.2683 9.37674 14.4354 9.1745 13.6129 9.28152C17.0994 11.0247 16.164 17.0277 11.3323 16.8011C10.902 16.7834 10.4769 16.7014 10.071 16.5578C9.97611 16.5222 9.88124 16.4834 9.78637 16.4412C9.7316 16.4162 9.67682 16.3912 9.6228 16.3632L9.62956 16.3674C10.3033 16.8274 13.6312 17.9511 17.1106 15.1169L17.1161 15.1044C17.2029 14.9018 18.3544 12.0374 16.1557 10.0123Z" fill="url(#paint9_radial_37148_74749)"/>
<path d="M7.34075 13.1909C7.34075 13.1909 7.78818 11.5234 10.5446 11.5234C10.8424 11.5234 11.695 10.6918 11.7103 10.4507C10.525 10.8802 9.21873 10.8288 8.0708 10.3077C7.51399 10.0253 6.89414 9.89013 6.27031 9.91517C5.64648 9.94022 5.03945 10.1246 4.50708 10.4507C4.70914 10.8878 5.0336 11.2568 5.44115 11.5132C5.8487 11.7695 6.32185 11.9022 6.80327 11.8951C6.6237 13.48 7.46154 15.3278 9.48963 16.2969C9.5349 16.3187 9.57742 16.3422 9.62393 16.3629C8.4402 15.7514 7.4628 14.595 7.34075 13.1909Z" fill="url(#paint10_radial_37148_74749)"/>
<path d="M20.6617 8.70949C20.2405 7.69607 19.3862 6.60187 18.7171 6.25598C19.1943 7.18014 19.5255 8.17265 19.6988 9.19819L19.7005 9.21445C18.6046 6.48207 16.7461 5.38037 15.2282 2.98138C15.1514 2.86008 15.0746 2.73853 14.9998 2.61023C14.9571 2.53695 14.9228 2.47092 14.8931 2.41015C14.8301 2.28824 14.7816 2.1594 14.7485 2.02624C14.7485 2.02009 14.7463 2.01415 14.7423 2.00954C14.7382 2.00492 14.7326 2.00197 14.7265 2.00123C14.7205 1.99959 14.7142 1.99959 14.7082 2.00123C14.707 2.00123 14.705 2.00348 14.7035 2.00398C14.702 2.00448 14.6987 2.00673 14.6965 2.00773L14.7002 2.00123C12.2655 3.42682 11.4394 6.0659 11.3633 7.38594C11.4764 7.37819 11.5884 7.36869 11.704 7.36869C12.5679 7.37027 13.416 7.6006 14.162 8.03625C14.908 8.4719 15.5253 9.09733 15.9512 9.84896C15.2694 9.37669 14.4365 9.17446 13.614 9.28147C17.1005 11.0247 16.1651 17.0277 11.3333 16.8011C10.9031 16.7834 10.478 16.7014 10.0721 16.5577C9.9772 16.5222 9.88232 16.4834 9.78745 16.4412C9.73268 16.4162 9.67791 16.3912 9.62389 16.3631L9.63064 16.3674C9.58362 16.3449 9.5366 16.3215 9.48958 16.2971C9.53485 16.3189 9.57737 16.3424 9.62389 16.3631C8.44015 15.7514 7.46275 14.5949 7.3407 13.1908C7.3407 13.1908 7.78813 11.5234 10.5445 11.5234C10.8424 11.5234 11.695 10.6918 11.7102 10.4507C11.7065 10.3719 10.0195 9.7004 9.36178 9.05263C9.01038 8.70624 8.84356 8.53942 8.69575 8.41412C8.61587 8.34645 8.53238 8.28317 8.44565 8.22454C8.22478 7.45146 8.21537 6.63328 8.41839 5.85531C7.52426 6.28847 6.72976 6.9025 6.08518 7.65856H6.08068C5.69652 7.17161 5.72353 5.56595 5.74554 5.23056C5.63189 5.27623 5.52341 5.33383 5.42191 5.40238C5.08278 5.64442 4.76574 5.91601 4.47452 6.21396C4.14266 6.55043 3.83956 6.9141 3.56839 7.30116V7.30266V7.30091C2.9452 8.18441 2.50318 9.18261 2.26786 10.2379L2.25485 10.3019C2.2366 10.3872 2.15481 10.8204 2.14306 10.9134C2.14306 10.9204 2.14306 10.9061 2.14306 10.9134C2.06826 11.3605 2.02048 11.8118 2 12.2647L2 12.3147C2.00213 14.7418 2.91463 17.0798 4.55718 18.8666C6.19973 20.6534 8.4528 21.759 10.8711 21.965C13.2894 22.171 15.697 21.4623 17.6181 19.979C19.5391 18.4956 20.8339 16.3457 21.2464 13.9539C21.2627 13.8288 21.2759 13.705 21.2904 13.5787C21.4901 11.9286 21.2739 10.2548 20.6617 8.70949ZM19.7 9.20744L19.7018 9.2177L19.7 9.20744Z" fill="url(#paint11_linear_37148_74749)"/>
<defs>
<linearGradient id="paint0_linear_37148_74749" x1="19.3786" y1="5.0985" x2="3.28728" y2="20.6236" gradientUnits="userSpaceOnUse">
<stop offset="0.048" stop-color="#FFF44F"/>
<stop offset="0.111" stop-color="#FFE847"/>
<stop offset="0.225" stop-color="#FFC830"/>
<stop offset="0.368" stop-color="#FF980E"/>
<stop offset="0.401" stop-color="#FF8B16"/>
<stop offset="0.462" stop-color="#FF672A"/>
<stop offset="0.534" stop-color="#FF3647"/>
<stop offset="0.705" stop-color="#E31587"/>
</linearGradient>
<radialGradient id="paint1_radial_37148_74749" cx="0" cy="0" r="1" gradientUnits="userSpaceOnUse" gradientTransform="translate(18.6351 4.21959) scale(20.2076)">
<stop offset="0.129" stop-color="#FFBD4F"/>
<stop offset="0.186" stop-color="#FFAC31"/>
<stop offset="0.247" stop-color="#FF9D17"/>
<stop offset="0.283" stop-color="#FF980E"/>
<stop offset="0.403" stop-color="#FF563B"/>
<stop offset="0.467" stop-color="#FF3750"/>
<stop offset="0.71" stop-color="#F5156C"/>
<stop offset="0.782" stop-color="#EB0878"/>
<stop offset="0.86" stop-color="#E50080"/>
</radialGradient>
<radialGradient id="paint2_radial_37148_74749" cx="0" cy="0" r="1" gradientUnits="userSpaceOnUse" gradientTransform="translate(11.2511 12.481) scale(20.2076)">
<stop offset="0.3" stop-color="#960E18"/>
<stop offset="0.351" stop-color="#B11927" stop-opacity="0.74"/>
<stop offset="0.435" stop-color="#DB293D" stop-opacity="0.343"/>
<stop offset="0.497" stop-color="#F5334B" stop-opacity="0.094"/>
<stop offset="0.53" stop-color="#FF3750" stop-opacity="0"/>
</radialGradient>
<radialGradient id="paint3_radial_37148_74749" cx="0" cy="0" r="1" gradientUnits="userSpaceOnUse" gradientTransform="translate(13.6872 -0.366278) scale(14.6395)">
<stop offset="0.132" stop-color="#FFF44F"/>
<stop offset="0.252" stop-color="#FFDC3E"/>
<stop offset="0.506" stop-color="#FF9D12"/>
<stop offset="0.526" stop-color="#FF980E"/>
</radialGradient>
<radialGradient id="paint4_radial_37148_74749" cx="0" cy="0" r="1" gradientUnits="userSpaceOnUse" gradientTransform="translate(9.01603 17.7593) scale(9.62171)">
<stop offset="0.353" stop-color="#3A8EE6"/>
<stop offset="0.472" stop-color="#5C79F0"/>
<stop offset="0.669" stop-color="#9059FF"/>
<stop offset="1" stop-color="#C139E6"/>
</radialGradient>
<radialGradient id="paint5_radial_37148_74749" cx="0" cy="0" r="1" gradientUnits="userSpaceOnUse" gradientTransform="translate(12.3554 10.8249) rotate(-13.5916) scale(5.10137 5.97243)">
<stop offset="0.206" stop-color="#9059FF" stop-opacity="0"/>
<stop offset="0.278" stop-color="#8C4FF3" stop-opacity="0.064"/>
<stop offset="0.747" stop-color="#7716A8" stop-opacity="0.45"/>
<stop offset="0.975" stop-color="#6E008B" stop-opacity="0.6"/>
</radialGradient>
<radialGradient id="paint6_radial_37148_74749" cx="0" cy="0" r="1" gradientUnits="userSpaceOnUse" gradientTransform="translate(10.996 3.39286) scale(6.92185)">
<stop stop-color="#FFE226"/>
<stop offset="0.121" stop-color="#FFDB27"/>
<stop offset="0.295" stop-color="#FFC82A"/>
<stop offset="0.502" stop-color="#FFA930"/>
<stop offset="0.732" stop-color="#FF7E37"/>
<stop offset="0.792" stop-color="#FF7139"/>
</radialGradient>
<radialGradient id="paint7_radial_37148_74749" cx="0" cy="0" r="1" gradientUnits="userSpaceOnUse" gradientTransform="translate(16.4367 -0.997655) scale(29.5324)">
<stop offset="0.113" stop-color="#FFF44F"/>
<stop offset="0.456" stop-color="#FF980E"/>
<stop offset="0.622" stop-color="#FF5634"/>
<stop offset="0.716" stop-color="#FF3647"/>
<stop offset="0.904" stop-color="#E31587"/>
</radialGradient>
<radialGradient id="paint8_radial_37148_74749" cx="0" cy="0" r="1" gradientUnits="userSpaceOnUse" gradientTransform="translate(13.9478 0.644528) rotate(83.976) scale(21.645 14.2054)">
<stop stop-color="#FFF44F"/>
<stop offset="0.06" stop-color="#FFE847"/>
<stop offset="0.168" stop-color="#FFC830"/>
<stop offset="0.304" stop-color="#FF980E"/>
<stop offset="0.356" stop-color="#FF8B16"/>
<stop offset="0.455" stop-color="#FF672A"/>
<stop offset="0.57" stop-color="#FF3647"/>
<stop offset="0.737" stop-color="#E31587"/>
</radialGradient>
<radialGradient id="paint9_radial_37148_74749" cx="0" cy="0" r="1" gradientUnits="userSpaceOnUse" gradientTransform="translate(10.8329 5.95668) scale(18.4376)">
<stop offset="0.137" stop-color="#FFF44F"/>
<stop offset="0.48" stop-color="#FF980E"/>
<stop offset="0.592" stop-color="#FF5634"/>
<stop offset="0.655" stop-color="#FF3647"/>
<stop offset="0.904" stop-color="#E31587"/>
</radialGradient>
<radialGradient id="paint10_radial_37148_74749" cx="0" cy="0" r="1" gradientUnits="userSpaceOnUse" gradientTransform="translate(15.7 7.03574) scale(20.1798)">
<stop offset="0.094" stop-color="#FFF44F"/>
<stop offset="0.231" stop-color="#FFE141"/>
<stop offset="0.509" stop-color="#FFAF1E"/>
<stop offset="0.626" stop-color="#FF980E"/>
</radialGradient>
<linearGradient id="paint11_linear_37148_74749" x1="19.1853" y1="5.01547" x2="5.49318" y2="18.7074" gradientUnits="userSpaceOnUse">
<stop offset="0.167" stop-color="#FFF44F" stop-opacity="0.8"/>
<stop offset="0.266" stop-color="#FFF44F" stop-opacity="0.634"/>
<stop offset="0.489" stop-color="#FFF44F" stop-opacity="0.217"/>
<stop offset="0.6" stop-color="#FFF44F" stop-opacity="0"/>
</linearGradient>
</defs>
</svg>
