<svg style="margin:0 5px" width="24" height="24" viewBox="0 0 24 24" fill="none" xmlns="http://www.w3.org/2000/svg">
<path d="M11.9387 2.00177C11.9387 2.00177 17.812 1.7382 20.9259 7.6418H11.4389C11.4389 7.6418 9.64853 7.5841 8.11913 9.75611C7.6798 10.6678 7.20756 11.6069 7.73751 13.4576C6.9741 12.1642 3.68457 6.43641 3.68457 6.43641C3.68457 6.43641 6.00482 2.23516 11.9386 2.00177H11.9387Z" fill="#EF3F36"/>
<path d="M20.6211 16.9888C20.6211 16.9888 17.9108 22.2086 11.2439 21.9505C12.0677 20.5254 15.9887 13.7349 15.9887 13.7349C15.9887 13.7349 16.9361 12.2137 15.8185 9.8028C15.25 8.96531 14.6707 8.08938 12.8035 7.62252C14.3056 7.60887 20.9094 7.62252 20.9094 7.62252C20.9094 7.62252 23.3834 11.7332 20.6211 16.9888Z" fill="#FCD900"/>
<path d="M3.29762 17.0299C3.29762 17.0299 0.13161 12.0736 3.69024 6.4281C4.51128 7.85324 8.43235 14.6438 8.43235 14.6438C8.43235 14.6438 9.27811 16.2254 11.9224 16.4614C12.9302 16.3874 13.979 16.3242 15.3191 14.943C14.5803 16.2501 11.266 21.9615 11.266 21.9615C11.266 21.9615 6.46628 22.0494 3.29754 17.0299H3.29762Z" fill="#61BC5B"/>
<path d="M11.2415 22L12.5759 16.4314C12.5759 16.4314 14.0422 16.3159 15.2724 14.9678C14.509 16.3106 11.2415 22 11.2415 22Z" fill="#5AB055"/>
<path d="M7.46826 12.0626C7.46826 9.60786 9.45905 7.61707 11.9138 7.61707C14.3686 7.61707 16.3594 9.60786 16.3594 12.0626C16.3594 14.5175 14.3686 16.5082 11.9138 16.5082C9.45905 16.5055 7.46826 14.5175 7.46826 12.0626Z" fill="white"/>
<path d="M8.21265 12.0626C8.21265 10.0197 9.86844 8.36121 11.9141 8.36121C13.957 8.36121 15.6155 10.017 15.6155 12.0626C15.6155 14.1056 13.9598 15.7641 11.9141 15.7641C9.87117 15.7641 8.21265 14.1056 8.21265 12.0626Z" fill="url(#paint0_linear_37148_74757)"/>
<path d="M20.9071 7.62538L15.4125 9.23719C15.4125 9.23719 14.5833 8.02073 12.8013 7.62538C14.3472 7.61711 20.9071 7.62538 20.9071 7.62538Z" fill="#EACA05"/>
<path d="M7.63044 13.2544C6.85877 11.9171 3.68457 6.4364 3.68457 6.4364L7.75396 10.4618C7.75396 10.4618 7.33654 11.3213 7.49312 12.5514L7.63036 13.2544H7.63044Z" fill="#DF3A32"/>
<defs>
<linearGradient id="paint0_linear_37148_74757" x1="11.9139" y1="8.41347" x2="11.9139" y2="15.5413" gradientUnits="userSpaceOnUse">
<stop stop-color="#86BBE5"/>
<stop offset="1" stop-color="#1072BA"/>
</linearGradient>
</defs>
</svg>
