<svg width="24" height="24" viewBox="0 0 24 24" fill="none" xmlns="http://www.w3.org/2000/svg">
<path opacity="0.6" d="M2 2H22V22H2V2Z" fill="black"/>
<path d="M2 2H22V22H2V2Z" fill="white"/>
<path d="M2.44727 18.6666C6.26841 16.7154 6.34971 16.7154 11.0652 15.9024C12.4473 15.0894 18.7887 17.5284 21.6343 18.3414V21.5935H2.28467L2.40662 18.6666H2.44727Z" fill="#A6D3FC"/>
<path d="M2 2H22V22H2V2ZM21.5935 18.3415C21.4309 18.3415 20.7805 18.5041 20.2927 18.8293C20.2927 19.1545 20.2927 19.3171 20.1301 19.561C19.4797 17.2846 17.2846 16.7154 15.6585 17.8537L15.9024 17.122C12.6504 14.6829 9.39837 16.1463 7.69106 18.2602C7.69106 18.2602 7.60976 17.8537 8.09756 17.122C7.04065 16.6341 5.17073 17.3659 4.68293 18.0163L5.33333 18.5854C4.35772 18.1789 3.13821 18.5041 2.4065 18.748V21.5935H21.5935V18.4228V18.3415ZM8.82927 10.6992H15.252V15.9024L15.7398 16.2276H18.4228V10.2927C18.4228 8.09756 16.2276 7.44715 15.1707 7.44715H5.65854V16.2276H8.82927V10.6992ZM13.626 15.4146V12.3252H10.4553V15.4146C11.2683 15.1707 12.5691 15.0894 13.626 15.3333V15.4146Z" fill="#0080F5"/>
</svg>
