<svg style="margin:0 5px" width="24" height="24" viewBox="0 0 24 24" fill="none" xmlns="http://www.w3.org/2000/svg">
<rect x="2" y="2" width="20" height="20" rx="10" fill="#0F6FFF"/>
<path d="M15.5626 13.1883C15.2096 13.1907 14.8615 13.2712 14.5434 13.424C14.2252 13.5769 13.9449 13.7984 13.7225 14.0725L10.6757 12.6686C10.8189 12.2299 10.8189 11.7571 10.6757 11.3184L13.7225 9.91448C14.0819 10.3482 14.583 10.641 15.1373 10.7412C15.6916 10.8414 16.2634 10.7426 16.752 10.4623C17.2405 10.1819 17.6143 9.73793 17.8074 9.20878C18.0004 8.67962 18.0004 8.09928 17.8072 7.57016C17.6141 7.04104 17.2402 6.59717 16.7516 6.31688C16.263 6.03658 15.6911 5.93789 15.1369 6.03821C14.5826 6.13854 14.0816 6.43143 13.7222 6.8652C13.3629 7.29897 13.1683 7.84573 13.1729 8.40899C13.1747 8.55131 13.1887 8.69322 13.2147 8.83315L10.0603 10.2849C9.72404 9.95605 9.29818 9.73377 8.83612 9.6459C8.37405 9.55802 7.89633 9.60846 7.4628 9.79089C7.02928 9.97332 6.65923 10.2796 6.39901 10.6714C6.1388 11.0633 6 11.5231 6 11.9935C6 12.4638 6.1388 12.9237 6.39901 13.3155C6.65923 13.7073 7.02928 14.0137 7.4628 14.1961C7.89633 14.3785 8.37405 14.429 8.83612 14.3411C9.29818 14.2532 9.72404 14.0309 10.0603 13.7021L13.2147 15.1538C13.1887 15.2938 13.1747 15.4357 13.1729 15.578C13.1729 16.0506 13.313 16.5126 13.5756 16.9056C13.8382 17.2986 14.2114 17.6049 14.6481 17.7858C15.0847 17.9666 15.5652 18.0139 16.0288 17.9217C16.4923 17.8295 16.9181 17.6019 17.2523 17.2677C17.5865 16.9335 17.8141 16.5077 17.9063 16.0442C17.9985 15.5806 17.9512 15.1002 17.7703 14.6635C17.5894 14.2268 17.2832 13.8536 16.8902 13.5911C16.4972 13.3285 16.0352 13.1883 15.5626 13.1883ZM15.5626 7.21415C15.7989 7.21415 16.0299 7.28423 16.2264 7.41552C16.4229 7.54681 16.576 7.73342 16.6664 7.95175C16.7569 8.17007 16.7805 8.41031 16.7344 8.64209C16.6883 8.87386 16.5745 9.08676 16.4074 9.25386C16.2403 9.42096 16.0274 9.53476 15.7957 9.58086C15.5639 9.62697 15.3236 9.6033 15.1053 9.51287C14.887 9.42244 14.7004 9.26929 14.5691 9.0728C14.4378 8.87631 14.3677 8.6453 14.3677 8.40899C14.3677 8.0921 14.4936 7.78819 14.7177 7.56411C14.9418 7.34004 15.2457 7.21415 15.5626 7.21415ZM8.39355 13.1883C8.15723 13.1883 7.92622 13.1182 7.72974 12.987C7.53325 12.8557 7.3801 12.6691 7.28967 12.4507C7.19923 12.2324 7.17557 11.9922 7.22167 11.7604C7.26778 11.5286 7.38157 11.3157 7.54867 11.1486C7.71577 10.9815 7.92867 10.8677 8.16045 10.8216C8.39222 10.7755 8.63246 10.7992 8.85079 10.8896C9.06912 10.98 9.25573 11.1332 9.38702 11.3297C9.51831 11.5262 9.58838 11.7572 9.58838 11.9935C9.58838 12.3104 9.4625 12.6143 9.23842 12.8384C9.01435 13.0624 8.71044 13.1883 8.39355 13.1883ZM15.5626 16.7728C15.3262 16.7728 15.0952 16.7027 14.8987 16.5715C14.7022 16.4402 14.5491 16.2536 14.4587 16.0352C14.3682 15.8169 14.3446 15.5767 14.3907 15.3449C14.4368 15.1131 14.5506 14.9002 14.7177 14.7331C14.8848 14.566 15.0977 14.4522 15.3294 14.4061C15.5612 14.36 15.8015 14.3837 16.0198 14.4741C16.2381 14.5645 16.4247 14.7177 16.556 14.9142C16.6873 15.1107 16.7574 15.3417 16.7574 15.578C16.7574 15.8949 16.6315 16.1988 16.4074 16.4229C16.1834 16.6469 15.8794 16.7728 15.5626 16.7728Z" fill="white"/>
</svg>
