<svg width="24" height="24" viewBox="0 0 24 24" fill="none" xmlns="http://www.w3.org/2000/svg">
<path d="M12.1773 15.4927C12.1512 15.4927 12.1303 15.4927 12.1042 15.4927C11.3683 15.4719 10.5698 15.143 9.96957 14.6159C9.26498 13.9948 8.87354 13.1545 8.87354 12.2464C8.87354 10.4562 10.3297 9 12.1199 9C13.1377 9 14.1084 9.48539 14.7191 10.3048C14.8548 10.4875 14.8496 10.738 14.7086 10.9155L12.788 13.3476C12.6053 13.5773 12.266 13.6034 12.0468 13.3998C11.8589 13.2171 11.8485 12.9196 12.0103 12.7109L13.4404 10.905C13.5761 10.7328 13.5395 10.4927 13.3569 10.3727C12.9445 10.096 12.4435 9.96556 11.9163 10.0125C10.7629 10.1117 9.87563 11.0981 9.88085 12.2568C9.88607 13.6556 11.217 14.4645 12.1356 14.4906C12.6157 14.5063 13.1637 14.308 13.5343 13.9844C13.6805 13.8591 14.0093 13.3998 14.4999 12.7109C14.6095 12.5543 14.6669 12.4708 14.7347 12.3768C14.8026 12.2777 14.8809 12.1681 15.0322 11.9541C15.4811 11.3226 15.7055 11.0042 15.9404 10.7171C16.5354 9.98122 16.859 9.57412 17.4122 9.30272C17.6105 9.20355 18.1429 8.97912 18.7744 9.00522C20.1262 9.05219 21.9999 10.2056 21.9999 12.2516C21.9999 14.0418 20.5437 15.498 18.7535 15.498C18.2629 15.498 17.8089 15.357 17.788 15.3518C16.9529 15.0908 16.4101 14.5533 16.1022 14.1409C15.9508 13.9374 15.9613 13.6556 16.1387 13.4729C16.3631 13.2485 16.718 13.285 16.9007 13.5251C17.1199 13.8174 17.5009 14.2088 18.0907 14.3915C18.0959 14.3915 18.43 14.4906 18.7588 14.4906C19.9957 14.4906 20.9978 13.4833 20.9978 12.2516C20.9978 10.858 19.6617 10.0438 18.7379 10.0073C18.3099 9.99166 17.9237 10.1691 17.8506 10.2056C17.4957 10.3779 17.2556 10.6806 16.718 11.3487C16.5041 11.6148 16.2849 11.928 15.8464 12.5386C15.7003 12.7474 15.622 12.857 15.5542 12.951C15.4863 13.0449 15.4289 13.1336 15.3089 13.2954C14.6982 14.1514 14.4164 14.5376 14.1815 14.7412C13.6491 15.2109 12.8871 15.4927 12.1773 15.4927Z" fill="white"/>
<path d="M7.1827 9.65219C6.6399 9.24509 5.96662 9.005 5.24115 9.005C4.37475 9.005 3.58143 9.34947 3.00209 9.90793V9.50605C3.00209 9.22943 2.77767 9.005 2.50105 9.005C2.22443 9.005 2 9.22943 2 9.50605V13.2587V13.3004V15.0071C2 15.2837 2.22443 15.5082 2.50105 15.5082C2.77767 15.5082 3.00209 15.2837 3.00209 15.0071V13.2952V13.2535V12.2461C3.00209 11.0092 4.00941 10.0071 5.24115 10.0071C6.4781 10.0071 7.4802 11.0144 7.4802 12.2461V15.0019C7.4802 15.2785 7.70462 15.503 7.98124 15.503C8.25786 15.503 8.48229 15.2785 8.48229 15.0019V13.243V12.0113V11.9695C8.48229 11.9695 8.49795 10.6334 7.1827 9.65219Z" fill="white"/>
</svg>
