<svg style="margin:0 5px" width="24" height="24" viewBox="0 0 24 24" fill="none" xmlns="http://www.w3.org/2000/svg">
<path d="M8.708 17.636C7.602 16.33 6.886 14.402 6.838 12.236C6.838 12.23 6.838 11.77 6.838 11.764C6.886 9.598 7.602 7.67 8.708 6.364C10.144 4.502 12.276 3.32 14.656 3.32C16.12 3.32 17.492 3.768 18.664 4.546C16.904 2.97 14.584 2.01 12.038 2C12.026 2 12.012 2 12 2C6.478 2 2 6.478 2 12C2 17.364 6.222 21.74 11.524 21.988C11.682 21.996 11.84 22 12 22C14.56 22 16.896 21.038 18.664 19.456C17.492 20.232 16.122 20.68 14.656 20.68C12.276 20.68 10.144 19.498 8.708 17.636Z" fill="url(#paint0_linear_37148_74755)"/>
<path d="M8.70801 6.36395C9.62601 5.27995 10.81 4.62795 12.106 4.62795C15.018 4.62795 17.376 7.92795 17.376 11.9999C17.376 16.0719 15.016 19.3719 12.106 19.3719C10.812 19.3719 9.62601 18.7179 8.70801 17.6359C10.144 19.4979 12.276 20.6799 14.656 20.6799C16.12 20.6799 17.492 20.2319 18.664 19.4559C20.712 17.6239 22 14.9619 22 11.9999C22 9.03795 20.712 6.37595 18.664 4.54595C17.492 3.76795 16.122 3.31995 14.656 3.31995C12.276 3.31995 10.144 4.50195 8.70801 6.36395Z" fill="url(#paint1_linear_37148_74755)"/>
<defs>
<linearGradient id="paint0_linear_37148_74755" x1="10.3325" y1="2.32608" x2="10.3325" y2="21.7089" gradientUnits="userSpaceOnUse">
<stop offset="0.3" stop-color="#FF1B2D"/>
<stop offset="0.4381" stop-color="#FA1A2C"/>
<stop offset="0.5939" stop-color="#ED1528"/>
<stop offset="0.7581" stop-color="#D60E21"/>
<stop offset="0.9272" stop-color="#B70519"/>
<stop offset="1" stop-color="#A70014"/>
</linearGradient>
<linearGradient id="paint1_linear_37148_74755" x1="15.3542" y1="3.46846" x2="15.3542" y2="20.6116" gradientUnits="userSpaceOnUse">
<stop stop-color="#9C0000"/>
<stop offset="0.7" stop-color="#FF4B4B"/>
</linearGradient>
</defs>
</svg>
