<svg width="24" height="24" viewBox="0 0 24 24" fill="none" xmlns="http://www.w3.org/2000/svg">
<path d="M18.0573 18.7246C16.9916 19.424 15.7733 19.7946 14.5308 19.7946C12.4969 19.7946 10.5685 18.805 9.23998 17.0796C9.23524 17.0736 9.23074 17.0682 9.226 17.0623C8.20704 15.8594 7.59849 14.0923 7.55654 12.2248L7.5563 11.7866C7.59848 9.90815 8.20701 8.14118 9.23974 6.92119C10.5684 5.19578 12.4971 4.20617 14.5309 4.20617C15.7736 4.20617 16.9921 4.5768 18.0584 5.27657C19.961 6.99203 21.0523 9.44024 21.0523 12.0005C21.0523 14.561 19.9608 17.0094 18.0577 18.7248L18.0573 18.7246ZM11.5687 21.0419C6.73492 20.8152 2.94814 16.8437 2.94814 12.0004C2.94814 7.00911 7.00883 2.94812 12.0091 2.94812C12.0112 2.94812 12.0318 2.94835 12.0342 2.94835C12.8259 2.9512 13.6065 3.0576 14.3582 3.26021C12.0923 3.31424 9.9617 4.43063 8.50281 6.32571C7.34616 7.69093 6.65586 9.67368 6.60893 11.7757V12.2352C6.65585 14.322 7.34331 16.301 8.49568 17.6666C9.96774 19.5733 12.0961 20.6863 14.3587 20.7404C13.4592 20.983 12.5046 21.0864 11.5683 21.0418L11.5687 21.0419ZM18.665 4.54583C16.8408 2.91355 14.4872 2.00974 12.0272 2.00047C12.0241 2.00024 12.003 2 12.0002 2C6.48615 2 2 6.48621 2 12.0002C2 17.3507 6.18339 21.7383 11.5246 21.9886C11.6822 21.996 11.8408 22 12.0002 22C14.4619 22 16.8281 21.0969 18.662 19.4565L18.6642 19.4551C20.7841 17.5589 22 14.8417 22 12C22 9.1587 20.7843 6.44143 18.6649 4.54559" fill="#FA1E4E"/>
<path d="M14 5.69226C15.7472 6.83707 16.9502 9.23077 16.9502 12C16.9502 14.7691 15.7472 17.1631 14 18.3076C16.2302 18.1191 18 15.3675 18 12C18 8.63237 16.2301 5.88088 14 5.69226Z" fill="#FA1E4E"/>
</svg>
