<svg style="margin:0 5px" width="24" height="24" viewBox="0 0 24 24" fill="none" xmlns="http://www.w3.org/2000/svg">
<path d="M22 12C22 14.6522 20.9464 17.1957 19.0711 19.0711C17.1957 20.9464 14.6521 22 12 22C9.34782 22 6.80428 20.9464 4.92892 19.0711C3.05356 17.1957 2 14.6522 2 12C2 9.34784 3.05356 6.80431 4.92892 4.92894C6.80428 3.05358 9.34782 2.00001 12 2C14.6521 2 17.1957 3.05356 19.0711 4.92893C20.9464 6.80429 22 9.34783 22 12Z" fill="url(#paint0_linear_37148_74744)" stroke="#CDCDCD" stroke-width="0.753985" stroke-linecap="round" stroke-linejoin="round"/>
<path d="M21.2165 12C21.2165 14.4443 20.2455 16.7886 18.5171 18.517C16.7887 20.2454 14.4444 21.2164 12.0001 21.2164C9.55575 21.2164 7.21151 20.2454 5.48311 18.517C3.7547 16.7886 2.78369 14.4443 2.78369 12C2.78369 9.55565 3.7547 7.21142 5.48311 5.48301C7.21151 3.75459 9.55575 2.78358 12.0001 2.78357C14.4444 2.78357 16.7887 3.75458 18.5171 5.483C20.2455 7.21141 21.2165 9.55564 21.2165 12Z" fill="url(#paint1_radial_37148_74744)"/>
<path d="M11.9999 3.26428C11.9822 3.26424 11.9647 3.26769 11.9484 3.27443C11.932 3.28117 11.9172 3.29106 11.9047 3.30355C11.8922 3.31604 11.8823 3.33087 11.8756 3.3472C11.8689 3.36352 11.8654 3.38102 11.8655 3.39868V4.94858C11.8654 4.96624 11.8689 4.98374 11.8756 5.00006C11.8823 5.01639 11.8922 5.03122 11.9047 5.04371C11.9172 5.0562 11.932 5.0661 11.9484 5.07283C11.9647 5.07957 11.9822 5.08302 11.9999 5.08298C12.0175 5.08301 12.035 5.07956 12.0513 5.07282C12.0676 5.06607 12.0825 5.05617 12.0949 5.04369C12.1074 5.0312 12.1173 5.01637 12.124 5.00005C12.1308 4.98373 12.1342 4.96624 12.1342 4.94858V3.39865C12.1342 3.38099 12.1308 3.3635 12.124 3.34718C12.1173 3.33086 12.1074 3.31604 12.0949 3.30355C12.0824 3.29107 12.0676 3.28117 12.0513 3.27443C12.035 3.26769 12.0175 3.26424 11.9998 3.26428H11.9999ZM11.1208 3.31983C11.1117 3.31886 11.1025 3.3189 11.0935 3.31996C11.0759 3.32175 11.0589 3.32699 11.0433 3.33539C11.0278 3.34378 11.0141 3.35516 11.0029 3.36888C10.9918 3.38259 10.9835 3.39836 10.9785 3.4153C10.9735 3.43223 10.9719 3.44998 10.9737 3.46754L11.0415 4.11596C11.0433 4.13353 11.0485 4.15057 11.0569 4.1661C11.0653 4.18163 11.0767 4.19535 11.0904 4.20648C11.1041 4.2176 11.1199 4.22591 11.1368 4.23092C11.1538 4.23593 11.1715 4.23754 11.1891 4.23567C11.2066 4.23388 11.2237 4.22864 11.2392 4.22024C11.2547 4.21184 11.2685 4.20046 11.2796 4.18674C11.2907 4.17303 11.299 4.15725 11.304 4.14031C11.309 4.12338 11.3107 4.10562 11.3088 4.08806L11.2411 3.43967C11.238 3.40887 11.2243 3.38011 11.2023 3.35826C11.1804 3.33642 11.1516 3.32284 11.1208 3.31983H11.1208ZM12.8851 3.32047C12.8542 3.32346 12.8254 3.33703 12.8035 3.35886C12.7815 3.38069 12.7678 3.40945 12.7646 3.44024L12.6965 4.0886C12.6946 4.10616 12.6962 4.12392 12.7012 4.14086C12.7062 4.1578 12.7145 4.17358 12.7256 4.18731C12.7367 4.20103 12.7504 4.21243 12.766 4.22084C12.7815 4.22924 12.7985 4.2345 12.8161 4.23631C12.8337 4.2382 12.8514 4.23659 12.8683 4.2316C12.8853 4.2266 12.901 4.21831 12.9148 4.2072C12.9285 4.19608 12.9399 4.18237 12.9483 4.16685C12.9567 4.15132 12.9619 4.13429 12.9637 4.11673L13.0319 3.4683C13.0338 3.45075 13.0322 3.43299 13.0272 3.41606C13.0222 3.39912 13.0139 3.38334 13.0028 3.36962C12.9917 3.3559 12.9779 3.34452 12.9624 3.33611C12.9469 3.32771 12.9298 3.32246 12.9123 3.32066C12.9032 3.31973 12.8941 3.31968 12.885 3.3205L12.8851 3.32047ZM10.2178 3.45078C10.1978 3.45083 10.1781 3.45534 10.1601 3.46397C10.1421 3.47261 10.1263 3.48516 10.1137 3.5007C10.1012 3.51624 10.0923 3.53438 10.0877 3.5538C10.0831 3.57322 10.0828 3.59343 10.087 3.61295L10.408 5.12927C10.4116 5.14655 10.4186 5.16295 10.4286 5.17752C10.4385 5.19209 10.4513 5.20455 10.4661 5.21417C10.4809 5.2238 10.4974 5.23041 10.5148 5.23362C10.5322 5.23684 10.55 5.23659 10.5673 5.23289C10.5845 5.22927 10.6009 5.22228 10.6155 5.21231C10.6301 5.20234 10.6425 5.1896 10.6522 5.1748C10.6618 5.16001 10.6684 5.14346 10.6716 5.1261C10.6748 5.10874 10.6746 5.09092 10.6709 5.07366L10.3499 3.55731C10.3436 3.52701 10.327 3.49984 10.3029 3.4804C10.2788 3.46097 10.2487 3.45047 10.2178 3.45068V3.45078ZM13.788 3.45205C13.757 3.45179 13.727 3.46226 13.7029 3.48167C13.6787 3.50109 13.6621 3.52825 13.6558 3.55855L13.3337 5.07465C13.33 5.09191 13.3297 5.10974 13.3329 5.1271C13.3361 5.14447 13.3427 5.16103 13.3523 5.17584C13.3619 5.19064 13.3744 5.2034 13.389 5.21339C13.4035 5.22337 13.4199 5.23038 13.4372 5.23401C13.4545 5.23771 13.4723 5.23798 13.4896 5.23478C13.507 5.23158 13.5236 5.22498 13.5384 5.21536C13.5532 5.20575 13.5659 5.1933 13.5759 5.17874C13.5859 5.16418 13.5929 5.14779 13.5966 5.13051L13.9187 3.61438C13.9229 3.59487 13.9226 3.57466 13.918 3.55524C13.9134 3.53582 13.9045 3.51767 13.892 3.50213C13.8795 3.48658 13.8636 3.47403 13.8456 3.46538C13.8277 3.45673 13.808 3.45221 13.788 3.45215V3.45205ZM9.35597 3.69378C9.33805 3.69215 9.31998 3.69426 9.30292 3.69997C9.28611 3.70539 9.27055 3.71407 9.25711 3.72552C9.24367 3.73697 9.23263 3.75096 9.22461 3.76669C9.21659 3.78242 9.21176 3.79958 9.21039 3.81718C9.20902 3.83478 9.21114 3.85248 9.21663 3.86926L9.41806 4.48934C9.42348 4.50614 9.43217 4.52171 9.44363 4.53516C9.45508 4.5486 9.46908 4.55964 9.48481 4.56766C9.50055 4.57568 9.51771 4.58051 9.53532 4.58188C9.55293 4.58324 9.57063 4.58112 9.58742 4.57562C9.60422 4.5702 9.61979 4.56152 9.63323 4.55006C9.64667 4.5386 9.65772 4.52461 9.66573 4.50887C9.67375 4.49313 9.67858 4.47597 9.67994 4.45836C9.6813 4.44076 9.67917 4.42305 9.67367 4.40627L9.47221 3.78623C9.4641 3.76108 9.44874 3.73888 9.42806 3.72243C9.40738 3.70598 9.3823 3.69602 9.35597 3.69378ZM14.6449 3.6941C14.6186 3.69634 14.5935 3.70631 14.5728 3.72276C14.5521 3.73921 14.5368 3.7614 14.5287 3.78655L14.3271 4.40656C14.3216 4.42334 14.3195 4.44104 14.3208 4.45864C14.3222 4.47624 14.327 4.49341 14.335 4.50914C14.3431 4.52487 14.3541 4.53887 14.3675 4.55032C14.381 4.56177 14.3965 4.57046 14.4133 4.57588C14.4301 4.58137 14.4478 4.5835 14.4654 4.58214C14.483 4.58078 14.5002 4.57595 14.5159 4.56794C14.5316 4.55993 14.5456 4.54889 14.5571 4.53545C14.5686 4.52202 14.5772 4.50646 14.5827 4.48965L14.7843 3.86958C14.7898 3.8528 14.7919 3.8351 14.7905 3.8175C14.7892 3.7999 14.7843 3.78274 14.7763 3.76701C14.7683 3.75128 14.7573 3.73728 14.7438 3.72583C14.7304 3.71437 14.7148 3.70568 14.698 3.70026C14.6809 3.69468 14.6629 3.69259 14.6449 3.6941ZM8.50375 4.00567C8.48577 4.00602 8.46804 4.01 8.45162 4.01735C8.43548 4.02449 8.4209 4.03475 8.40873 4.04753C8.39656 4.06032 8.38703 4.07538 8.3807 4.09186C8.37436 4.10833 8.37134 4.1259 8.37181 4.14354C8.37228 4.16119 8.37623 4.17857 8.38343 4.19468L9.01296 5.61102C9.02009 5.62717 9.03035 5.64175 9.04313 5.65392C9.05592 5.66609 9.07098 5.67562 9.08746 5.68196C9.10394 5.68829 9.1215 5.69131 9.13915 5.69084C9.1568 5.69037 9.17418 5.68642 9.19029 5.67921C9.20644 5.67208 9.22102 5.66182 9.2332 5.64904C9.24538 5.63626 9.25491 5.6212 9.26125 5.60472C9.2676 5.58824 9.27062 5.57068 9.27016 5.55303C9.26969 5.53538 9.26574 5.51799 9.25854 5.50188L8.62899 4.08557C8.61832 4.06139 8.60073 4.04089 8.57845 4.02667C8.55617 4.01245 8.53018 4.00513 8.50375 4.00563V4.00567ZM15.5067 4.01039C15.4803 4.00988 15.4543 4.01718 15.4321 4.03136C15.4098 4.04555 15.3921 4.06599 15.3814 4.09014L14.75 5.50561C14.7428 5.52172 14.7388 5.5391 14.7383 5.55674C14.7378 5.57439 14.7408 5.59196 14.7471 5.60845C14.7534 5.62493 14.7629 5.64001 14.7751 5.65281C14.7873 5.66561 14.8018 5.67588 14.818 5.68304C14.8341 5.69026 14.8515 5.69423 14.8691 5.69472C14.8868 5.69521 14.9043 5.69221 14.9208 5.6859C14.9373 5.67958 14.9524 5.67007 14.9652 5.65791C14.978 5.64575 14.9882 5.63118 14.9954 5.61504L15.6268 4.19963C15.6341 4.18352 15.638 4.16614 15.6385 4.14849C15.639 4.13084 15.636 4.11326 15.6297 4.09677C15.6234 4.08028 15.6139 4.06521 15.6017 4.0524C15.5896 4.0396 15.575 4.02933 15.5588 4.02217C15.5424 4.01482 15.5247 4.01082 15.5067 4.01039ZM7.71273 4.42418C7.686 4.42226 7.65931 4.42847 7.63617 4.44199C7.62086 4.45079 7.60744 4.46252 7.59668 4.47652C7.58592 4.49052 7.57803 4.5065 7.57346 4.52356C7.56889 4.54061 7.56774 4.5584 7.57006 4.57591C7.57239 4.59341 7.57815 4.61028 7.58701 4.62555L7.91298 5.19018C7.92178 5.20549 7.93351 5.21891 7.94751 5.22967C7.9615 5.24043 7.97749 5.24832 7.99455 5.25289C8.0116 5.25746 8.02939 5.25861 8.04689 5.25629C8.0644 5.25396 8.08127 5.2482 8.09654 5.23934C8.11185 5.23054 8.12527 5.21881 8.13603 5.20481C8.14679 5.19081 8.15468 5.17483 8.15925 5.15777C8.16382 5.14072 8.16497 5.12293 8.16265 5.10542C8.16032 5.08792 8.15456 5.07105 8.1457 5.05578L7.81976 4.49119C7.8088 4.47209 7.7933 4.45599 7.77464 4.4443C7.75598 4.43261 7.73472 4.4257 7.71276 4.42418H7.71273ZM16.2869 4.42418C16.265 4.42567 16.2437 4.43257 16.225 4.44425C16.2064 4.45594 16.1909 4.47205 16.18 4.49115L15.8539 5.05578C15.8451 5.07105 15.8393 5.08793 15.837 5.10543C15.8347 5.12294 15.8358 5.14073 15.8404 5.15779C15.845 5.17484 15.8529 5.19083 15.8637 5.20482C15.8744 5.21882 15.8879 5.23055 15.9032 5.23934C15.9184 5.2482 15.9353 5.25396 15.9528 5.25629C15.9703 5.25861 15.9881 5.25746 16.0052 5.25289C16.0222 5.24832 16.0382 5.24043 16.0522 5.22967C16.0662 5.21891 16.0779 5.20549 16.0867 5.19018L16.4127 4.62552C16.4216 4.61025 16.4273 4.59338 16.4296 4.57588C16.432 4.55837 16.4308 4.54058 16.4262 4.52353C16.4217 4.50647 16.4138 4.49049 16.403 4.47649C16.3923 4.46249 16.3788 4.45076 16.3635 4.44196C16.3403 4.42852 16.3137 4.42232 16.2869 4.42418ZM6.94459 4.90325C6.91782 4.90422 6.89194 4.91314 6.87027 4.92889C6.85596 4.93922 6.84382 4.95229 6.83457 4.96733C6.82532 4.98237 6.81913 4.99908 6.81636 5.01652C6.81358 5.03396 6.81428 5.05178 6.81841 5.06894C6.82254 5.08611 6.83002 5.10229 6.84042 5.11656L7.75052 6.37114C7.76087 6.38546 7.77393 6.39759 7.78898 6.40684C7.80402 6.41609 7.82074 6.42228 7.83818 6.42505C7.85562 6.42782 7.87343 6.42712 7.8906 6.423C7.90777 6.41887 7.92396 6.41139 7.93823 6.40099C7.95254 6.39065 7.96467 6.37759 7.97392 6.36256C7.98317 6.34752 7.98936 6.3308 7.99213 6.31337C7.9949 6.29593 7.99421 6.27812 7.99008 6.26096C7.98595 6.2438 7.97848 6.22762 7.96808 6.21335L7.05795 4.95877C7.04507 4.94092 7.02799 4.92653 7.00822 4.91685C6.98846 4.90717 6.96661 4.90251 6.94462 4.90328L6.94459 4.90325ZM17.0647 4.91008C17.0427 4.90928 17.0208 4.9139 17.0011 4.92355C16.9813 4.9332 16.9642 4.94758 16.9513 4.96541L16.0395 6.21877C16.0291 6.23303 16.0216 6.2492 16.0174 6.26637C16.0133 6.28353 16.0125 6.30134 16.0153 6.31878C16.018 6.33622 16.0242 6.35295 16.0335 6.368C16.0427 6.38305 16.0548 6.39613 16.0691 6.40648C16.0834 6.4169 16.0995 6.4244 16.1167 6.42855C16.1338 6.43271 16.1517 6.43343 16.1691 6.43068C16.1865 6.42794 16.2033 6.42177 16.2183 6.41255C16.2334 6.40332 16.2465 6.39122 16.2568 6.37692L17.1686 5.12359C17.179 5.10933 17.1865 5.09315 17.1906 5.07599C17.1948 5.05883 17.1955 5.04102 17.1927 5.02358C17.19 5.00614 17.1838 4.98941 17.1746 4.97436C17.1654 4.95931 17.1532 4.94623 17.1389 4.93588C17.1173 4.92005 17.0914 4.91107 17.0647 4.91008ZM6.25802 5.47905C6.24038 5.4781 6.22273 5.48065 6.20609 5.48657C6.18944 5.49249 6.17414 5.50165 6.16107 5.51353C6.14792 5.52531 6.13723 5.53958 6.12961 5.5555C6.12199 5.57143 6.1176 5.5887 6.11667 5.60633C6.11574 5.62396 6.11831 5.6416 6.12422 5.65824C6.13013 5.67488 6.13927 5.69018 6.15111 5.70328L6.58734 6.18787C6.59912 6.20102 6.61339 6.21171 6.62931 6.21933C6.64524 6.22695 6.66252 6.23134 6.68015 6.23227C6.69778 6.23319 6.71542 6.23062 6.73206 6.2247C6.74869 6.21879 6.764 6.20965 6.77709 6.1978C6.79024 6.18601 6.80092 6.17175 6.80854 6.15582C6.81616 6.13989 6.82056 6.12261 6.82149 6.10498C6.82241 6.08734 6.81985 6.0697 6.81394 6.05306C6.80803 6.03642 6.79889 6.02112 6.78705 6.00802L6.35088 5.52346C6.3391 5.5103 6.32483 5.49961 6.3089 5.49198C6.29297 5.48436 6.27569 5.47997 6.25805 5.47905H6.25802ZM17.7426 5.48001C17.707 5.48192 17.6736 5.49791 17.6498 5.52445L17.2136 6.00891C17.2017 6.022 17.1925 6.03731 17.1866 6.05395C17.1807 6.07059 17.1781 6.08824 17.1791 6.10588C17.18 6.12351 17.1844 6.1408 17.192 6.15673C17.1996 6.17266 17.2103 6.18694 17.2234 6.19873C17.2365 6.21057 17.2519 6.21971 17.2685 6.22562C17.2851 6.23154 17.3028 6.2341 17.3204 6.23318C17.338 6.23225 17.3553 6.22785 17.3713 6.22023C17.3872 6.21261 17.4014 6.20192 17.4132 6.18877L17.8495 5.7043C17.8613 5.6912 17.8705 5.67589 17.8764 5.65925C17.8823 5.6426 17.8849 5.62496 17.8839 5.60732C17.883 5.58969 17.8786 5.57241 17.871 5.55648C17.8634 5.54055 17.8527 5.52628 17.8395 5.51448C17.8265 5.50264 17.8112 5.49349 17.7945 5.48757C17.7779 5.48166 17.7603 5.47909 17.7426 5.48001H17.7426ZM5.59998 6.11113C5.58235 6.11208 5.56508 6.11649 5.54916 6.12412C5.53324 6.13174 5.51897 6.14243 5.50718 6.15557C5.49534 6.16866 5.4862 6.18397 5.48028 6.20061C5.47437 6.21725 5.47181 6.23489 5.47273 6.25253C5.47366 6.27016 5.47806 6.28744 5.48568 6.30337C5.4933 6.3193 5.50399 6.33356 5.51714 6.34535L6.66909 7.38231C6.68219 7.39415 6.69749 7.40329 6.71413 7.4092C6.73077 7.41511 6.74841 7.41767 6.76604 7.41675C6.78367 7.41582 6.80094 7.41142 6.81687 7.4038C6.83279 7.39619 6.84706 7.3855 6.85884 7.37235C6.87069 7.35926 6.87983 7.34396 6.88575 7.32732C6.89166 7.31068 6.89423 7.29304 6.89331 7.27541C6.89239 7.25778 6.88799 7.2405 6.88037 7.22458C6.87275 7.20865 6.86206 7.19438 6.84891 7.1826L5.69693 6.14564C5.68384 6.13378 5.66853 6.12463 5.65188 6.11872C5.63524 6.1128 5.61759 6.11023 5.59995 6.11116L5.59998 6.11113ZM18.4038 6.11569C18.3862 6.11473 18.3685 6.11727 18.3519 6.12317C18.3352 6.12907 18.3199 6.13822 18.3068 6.15008L17.1542 7.18624C17.141 7.19801 17.1303 7.21227 17.1227 7.22818C17.1151 7.2441 17.1107 7.26137 17.1097 7.27901C17.1088 7.29664 17.1113 7.31428 17.1172 7.33092C17.1231 7.34757 17.1322 7.36288 17.1441 7.37599C17.1558 7.38915 17.1701 7.39985 17.186 7.40748C17.202 7.41511 17.2192 7.41952 17.2369 7.42046C17.2545 7.42139 17.2722 7.41884 17.2888 7.41294C17.3054 7.40704 17.3208 7.39791 17.3339 7.38608L18.4866 6.34991C18.4997 6.33814 18.5104 6.32388 18.518 6.30796C18.5257 6.29204 18.5301 6.27477 18.531 6.25713C18.532 6.2395 18.5294 6.22186 18.5235 6.20522C18.5176 6.18858 18.5085 6.17327 18.4966 6.16016C18.4849 6.147 18.4706 6.1363 18.4547 6.12867C18.4388 6.12104 18.4215 6.11663 18.4038 6.11569ZM5.05276 6.81481C5.03076 6.81402 5.00891 6.81866 4.98913 6.82832C4.96936 6.83799 4.95228 6.85238 4.9394 6.87023C4.92898 6.88449 4.92149 6.90067 4.91734 6.91784C4.9132 6.93501 4.91249 6.95283 4.91526 6.97027C4.91802 6.98771 4.92421 7.00444 4.93345 7.01948C4.9427 7.03453 4.95483 7.0476 4.96915 7.05794L5.49658 7.44111C5.51084 7.45153 5.52701 7.45903 5.54418 7.46318C5.56134 7.46732 5.57915 7.46804 5.59659 7.46528C5.61403 7.46252 5.63076 7.45634 5.6458 7.4471C5.66085 7.43786 5.67392 7.42573 5.68426 7.41143C5.69467 7.39716 5.70216 7.38099 5.70631 7.36382C5.71045 7.34666 5.71116 7.32884 5.7084 7.3114C5.70564 7.29396 5.69947 7.27724 5.69023 7.26219C5.68099 7.24715 5.66888 7.23407 5.65457 7.22372L5.1271 6.84051C5.10544 6.82471 5.07955 6.81576 5.05276 6.81481ZM18.9505 6.8197C18.9238 6.82065 18.8979 6.82957 18.8762 6.84533L18.3485 7.22819C18.3342 7.23853 18.3221 7.25159 18.3128 7.26663C18.3036 7.28167 18.2974 7.29839 18.2946 7.31583C18.2918 7.33327 18.2925 7.35109 18.2966 7.36826C18.3008 7.38543 18.3082 7.40162 18.3186 7.41589C18.329 7.43021 18.342 7.44234 18.3571 7.45159C18.3721 7.46085 18.3888 7.46704 18.4063 7.46981C18.4237 7.47258 18.4415 7.47188 18.4587 7.46775C18.4759 7.46362 18.492 7.45614 18.5063 7.44574L19.034 7.06286C19.0483 7.05252 19.0605 7.03945 19.0697 7.02441C19.079 7.00938 19.0851 6.99266 19.0879 6.97523C19.0907 6.95779 19.09 6.93998 19.0859 6.92282C19.0817 6.90566 19.0743 6.88948 19.0639 6.87521C19.051 6.85736 19.0339 6.84296 19.0141 6.83328C18.9944 6.82359 18.9725 6.81893 18.9505 6.8197ZM4.54141 7.56536C4.51945 7.56686 4.4982 7.57375 4.47954 7.58544C4.46088 7.59712 4.4454 7.61323 4.43447 7.63233C4.4256 7.6476 4.41984 7.66448 4.41752 7.68198C4.41519 7.69948 4.41635 7.71727 4.42091 7.73433C4.42548 7.75138 4.43337 7.76737 4.44414 7.78136C4.4549 7.79536 4.46832 7.8071 4.48363 7.81589L5.8259 8.59086C5.84117 8.59972 5.85805 8.60548 5.87555 8.60781C5.89305 8.61013 5.91084 8.60898 5.9279 8.60441C5.94495 8.59984 5.96094 8.59195 5.97493 8.58119C5.98893 8.57043 6.00067 8.55701 6.00946 8.5417C6.01833 8.52643 6.02409 8.50956 6.02641 8.49205C6.02874 8.47455 6.02758 8.45676 6.02302 8.43971C6.01845 8.42265 6.01056 8.40666 5.99979 8.39267C5.98903 8.37867 5.97561 8.36694 5.9603 8.35814L4.61802 7.58317C4.59484 7.56972 4.56815 7.56352 4.54141 7.56536ZM19.4583 7.56536C19.4315 7.56344 19.4048 7.56965 19.3817 7.58317L18.0394 8.35814C18.0241 8.36694 18.0107 8.37867 17.9999 8.39267C17.9892 8.40666 17.9813 8.42265 17.9767 8.43971C17.9722 8.45676 17.971 8.47455 17.9733 8.49205C17.9757 8.50956 17.9814 8.52643 17.9903 8.5417C17.9991 8.55701 18.0108 8.57043 18.0248 8.58119C18.0388 8.59195 18.0548 8.59984 18.0718 8.60441C18.0889 8.60898 18.1067 8.61013 18.1242 8.60781C18.1417 8.60548 18.1586 8.59972 18.1738 8.59086L19.5161 7.81592C19.5315 7.80713 19.5449 7.79539 19.5556 7.7814C19.5664 7.7674 19.5743 7.75141 19.5789 7.73436C19.5834 7.7173 19.5846 7.69951 19.5823 7.68201C19.5799 7.66451 19.5742 7.64764 19.5653 7.63237C19.5543 7.61327 19.5388 7.59718 19.5202 7.5855C19.5015 7.57382 19.4803 7.56691 19.4583 7.56539V7.56536ZM4.15472 8.36539C4.1283 8.36481 4.1023 8.37207 4.08 8.38626C4.0577 8.40044 4.0401 8.42092 4.02942 8.4451C4.0222 8.46121 4.01822 8.47859 4.01772 8.49624C4.01723 8.51389 4.02022 8.53146 4.02654 8.54795C4.03285 8.56444 4.04236 8.57952 4.05452 8.59232C4.06668 8.60512 4.08125 8.6154 4.09739 8.62256L4.69285 8.88816C4.70896 8.89539 4.72634 8.89937 4.74399 8.89986C4.76164 8.90036 4.77921 8.89736 4.7957 8.89105C4.81219 8.88473 4.82727 8.87522 4.84008 8.86306C4.85288 8.8509 4.86316 8.83634 4.87031 8.8202C4.87754 8.80408 4.88152 8.7867 4.88201 8.76905C4.8825 8.7514 4.8795 8.73383 4.87319 8.71734C4.86687 8.70085 4.85736 8.68577 4.84519 8.67297C4.83303 8.66016 4.81846 8.64989 4.80232 8.64273L4.20689 8.37713C4.19046 8.36976 4.17272 8.36578 4.15472 8.36542V8.36539ZM19.8475 8.37094C19.8295 8.37131 19.8118 8.37529 19.7953 8.38266L19.1998 8.64781C19.1836 8.65495 19.169 8.66521 19.1568 8.678C19.1447 8.6908 19.1351 8.70587 19.1288 8.72235C19.1225 8.73883 19.1195 8.7564 19.1199 8.77406C19.1204 8.79171 19.1244 8.80909 19.1316 8.82521C19.1388 8.84136 19.149 8.85594 19.1618 8.86811C19.1746 8.88028 19.1897 8.8898 19.2062 8.89613C19.2227 8.90246 19.2403 8.90547 19.2579 8.90499C19.2756 8.90451 19.293 8.90055 19.3091 8.89333L19.9046 8.62815C19.9208 8.621 19.9354 8.61073 19.9475 8.59794C19.9597 8.58514 19.9692 8.57008 19.9755 8.55359C19.9819 8.53711 19.9849 8.51954 19.9844 8.50189C19.9839 8.48424 19.98 8.46686 19.9727 8.45075C19.9621 8.42659 19.9445 8.40612 19.9222 8.39192C19.8999 8.37772 19.8739 8.37042 19.8475 8.37094ZM3.81014 9.20158C3.78382 9.2038 3.75874 9.21374 3.73806 9.23017C3.71737 9.24659 3.702 9.26877 3.69388 9.2939C3.68837 9.31068 3.68623 9.32837 3.68758 9.34598C3.68893 9.36358 3.69374 9.38074 3.70174 9.39648C3.70974 9.41222 3.72077 9.42622 3.7342 9.43769C3.74762 9.44915 3.76318 9.45785 3.77998 9.46329L5.25365 9.94348C5.27043 9.94899 5.28813 9.95113 5.30573 9.94978C5.32334 9.94843 5.34051 9.94362 5.35625 9.93562C5.37199 9.92761 5.386 9.91658 5.39747 9.90315C5.40893 9.88972 5.41763 9.87415 5.42306 9.85735C5.42857 9.84057 5.43071 9.82288 5.42936 9.80527C5.42801 9.78767 5.42319 9.7705 5.41519 9.75476C5.40719 9.73903 5.39615 9.72502 5.38272 9.71356C5.3693 9.7021 5.35373 9.6934 5.33694 9.68796L3.86326 9.20774C3.84615 9.20214 3.82809 9.20004 3.81014 9.20155V9.20158ZM20.1915 9.20733C20.1736 9.2057 20.1555 9.20781 20.1384 9.21352L18.6644 9.69266C18.6476 9.69808 18.632 9.70677 18.6186 9.71823C18.6052 9.72968 18.5941 9.74368 18.5861 9.75942C18.5781 9.77515 18.5733 9.79232 18.5719 9.80992C18.5705 9.82753 18.5727 9.84523 18.5782 9.86201C18.5836 9.87881 18.5923 9.89437 18.6038 9.90781C18.6152 9.92124 18.6292 9.93228 18.6449 9.94029C18.6607 9.9483 18.6778 9.95312 18.6954 9.95448C18.7131 9.95583 18.7308 9.9537 18.7475 9.9482L20.2215 9.4691C20.2383 9.46368 20.2539 9.45499 20.2673 9.44353C20.2807 9.43208 20.2918 9.41808 20.2998 9.40235C20.3078 9.38661 20.3127 9.36945 20.314 9.35184C20.3154 9.33423 20.3133 9.31653 20.3078 9.29975C20.2997 9.27459 20.2843 9.2524 20.2636 9.23595C20.2429 9.2195 20.2178 9.20953 20.1915 9.2073V9.20733ZM3.59546 10.0793C3.5645 10.079 3.53441 10.0895 3.51029 10.1089C3.48617 10.1283 3.46953 10.1555 3.46317 10.1858C3.45946 10.2031 3.4592 10.2209 3.4624 10.2383C3.46561 10.2556 3.47221 10.2722 3.48183 10.287C3.49144 10.3018 3.50389 10.3146 3.51846 10.3245C3.53302 10.3345 3.54942 10.3415 3.5667 10.3452L4.20443 10.4807C4.22169 10.4844 4.23952 10.4847 4.25688 10.4815C4.27425 10.4783 4.29081 10.4717 4.30562 10.4621C4.32042 10.4524 4.33319 10.44 4.34317 10.4254C4.35315 10.4109 4.36016 10.3945 4.36379 10.3772C4.3675 10.3599 4.36776 10.3421 4.36456 10.3247C4.36136 10.3074 4.35476 10.2908 4.34515 10.276C4.33553 10.2612 4.32308 10.2484 4.30852 10.2385C4.29396 10.2285 4.27757 10.2215 4.26029 10.2178L3.6226 10.0823C3.61367 10.0804 3.60458 10.0794 3.59546 10.0794V10.0793ZM20.4045 10.0806C20.3954 10.0808 20.3864 10.0817 20.3774 10.0834L19.7397 10.2189C19.7224 10.2225 19.706 10.2295 19.6915 10.2395C19.6769 10.2495 19.6644 10.2623 19.6548 10.2771C19.6452 10.2919 19.6386 10.3084 19.6354 10.3258C19.6322 10.3431 19.6325 10.3609 19.6362 10.3782C19.6398 10.3955 19.6468 10.4119 19.6568 10.4265C19.6668 10.441 19.6795 10.4535 19.6943 10.4631C19.7091 10.4727 19.7257 10.4793 19.7431 10.4825C19.7604 10.4857 19.7783 10.4855 19.7955 10.4818L20.4332 10.3463C20.4505 10.3427 20.4669 10.3357 20.4815 10.3257C20.496 10.3157 20.5085 10.3029 20.5181 10.2881C20.5277 10.2733 20.5343 10.2568 20.5375 10.2394C20.5407 10.222 20.5405 10.2042 20.5368 10.187C20.5304 10.1567 20.5138 10.1295 20.4897 10.1101C20.4655 10.0907 20.4355 10.0802 20.4045 10.0804V10.0806ZM3.43294 10.9622C3.40214 10.9651 3.37332 10.9787 3.35136 11.0005C3.32941 11.0223 3.31567 11.051 3.31249 11.0818C3.31059 11.0994 3.31218 11.1171 3.31716 11.1341C3.32214 11.151 3.33042 11.1668 3.34152 11.1805C3.35263 11.1943 3.36633 11.2057 3.38186 11.2141C3.39738 11.2225 3.41441 11.2278 3.43198 11.2296L4.9733 11.3925C4.99086 11.3944 5.00862 11.3928 5.02557 11.3879C5.04251 11.3829 5.05831 11.3746 5.07204 11.3635C5.08578 11.3524 5.09718 11.3387 5.1056 11.3231C5.11402 11.3076 5.11929 11.2906 5.1211 11.273C5.123 11.2555 5.12141 11.2377 5.11642 11.2207C5.11143 11.2038 5.10315 11.188 5.09204 11.1743C5.08093 11.1606 5.06722 11.1491 5.05169 11.1407C5.03616 11.1323 5.01912 11.1271 5.00155 11.1252L3.4602 10.9623C3.45114 10.9613 3.44201 10.9613 3.43294 10.9622ZM20.5681 10.9738C20.5591 10.9728 20.5499 10.9728 20.5408 10.9739L18.9993 11.1348C18.9817 11.1365 18.9647 11.1418 18.9492 11.1502C18.9336 11.1586 18.9199 11.17 18.9088 11.1837C18.8977 11.1974 18.8894 11.2132 18.8844 11.2301C18.8793 11.247 18.8777 11.2648 18.8796 11.2823C18.8814 11.2999 18.8866 11.3169 18.895 11.3325C18.9034 11.348 18.9148 11.3617 18.9285 11.3729C18.9422 11.384 18.958 11.3923 18.975 11.3973C18.9919 11.4023 19.0096 11.4039 19.0272 11.402L20.5687 11.2412C20.5863 11.2394 20.6033 11.2341 20.6189 11.2257C20.6344 11.2173 20.6481 11.2059 20.6592 11.1922C20.6704 11.1785 20.6787 11.1627 20.6837 11.1458C20.6887 11.1289 20.6903 11.1111 20.6884 11.0936C20.6853 11.0628 20.6716 11.034 20.6497 11.0122C20.6278 10.9903 20.5989 10.9768 20.5681 10.9737V10.9738ZM3.40686 11.8659C3.3892 11.8659 3.3717 11.8693 3.35538 11.8761C3.33905 11.8828 3.32422 11.8927 3.31173 11.9052C3.29924 11.9177 3.28934 11.9325 3.28261 11.9488C3.27587 11.9652 3.27242 11.9827 3.27246 12.0003C3.27243 12.018 3.27588 12.0355 3.28262 12.0518C3.28937 12.0681 3.29927 12.0829 3.31175 12.0954C3.32424 12.1079 3.33907 12.1178 3.35539 12.1245C3.37171 12.1313 3.3892 12.1347 3.40686 12.1347H4.05883C4.07648 12.1347 4.09397 12.1312 4.11029 12.1245C4.12662 12.1178 4.14144 12.1079 4.15393 12.0954C4.16642 12.0829 4.17632 12.0681 4.18306 12.0518C4.1898 12.0354 4.19326 12.0179 4.19322 12.0003C4.19326 11.9826 4.18981 11.9651 4.18307 11.9488C4.17633 11.9325 4.16643 11.9177 4.15394 11.9052C4.14146 11.8927 4.12662 11.8828 4.1103 11.876C4.09398 11.8693 4.07649 11.8659 4.05883 11.8659L3.40686 11.8659ZM19.9408 11.8659C19.9232 11.8659 19.9057 11.8693 19.8894 11.8761C19.873 11.8828 19.8582 11.8927 19.8457 11.9052C19.8332 11.9177 19.8233 11.9325 19.8166 11.9488C19.8099 11.9652 19.8064 11.9827 19.8065 12.0003C19.8064 12.018 19.8099 12.0355 19.8166 12.0518C19.8234 12.0681 19.8333 12.0829 19.8457 12.0954C19.8582 12.1079 19.8731 12.1178 19.8894 12.1245C19.9057 12.1313 19.9232 12.1347 19.9408 12.1347H20.5928C20.6105 12.1347 20.628 12.1312 20.6443 12.1245C20.6606 12.1178 20.6754 12.1079 20.6879 12.0954C20.7004 12.0829 20.7103 12.0681 20.717 12.0518C20.7238 12.0354 20.7272 12.0179 20.7272 12.0003C20.7272 11.9826 20.7238 11.9651 20.717 11.9488C20.7103 11.9325 20.7004 11.9177 20.6879 11.9052C20.6754 11.8927 20.6606 11.8828 20.6443 11.876C20.6279 11.8693 20.6104 11.8659 20.5928 11.8659L19.9408 11.8659ZM4.99973 12.5984C4.99067 12.5974 4.98152 12.5975 4.97247 12.5985L3.4309 12.7594C3.41333 12.7612 3.39629 12.7664 3.38076 12.7748C3.36523 12.7832 3.3515 12.7946 3.34038 12.8083C3.32926 12.822 3.32095 12.8378 3.31594 12.8547C3.31093 12.8717 3.30931 12.8894 3.31118 12.907C3.31298 12.9245 3.31822 12.9416 3.32662 12.9571C3.33501 12.9726 3.34639 12.9864 3.3601 12.9975C3.37382 13.0086 3.38959 13.0169 3.40652 13.0219C3.42345 13.0269 3.44121 13.0286 3.45877 13.0267L5.00034 12.8658C5.0179 12.864 5.03494 12.8588 5.05047 12.8504C5.06601 12.842 5.07973 12.8306 5.09085 12.8169C5.10198 12.8032 5.11028 12.7874 5.11529 12.7705C5.1203 12.7535 5.12192 12.7358 5.12005 12.7182C5.1169 12.6874 5.1032 12.6587 5.08126 12.6368C5.05932 12.615 5.03051 12.6014 4.9997 12.5984H4.99973ZM18.9991 12.6079C18.9682 12.6109 18.9394 12.6244 18.9175 12.6462C18.8955 12.668 18.8818 12.6968 18.8786 12.7276C18.8767 12.7451 18.8783 12.7629 18.8833 12.7798C18.8883 12.7967 18.8965 12.8125 18.9076 12.8263C18.9187 12.84 18.9324 12.8514 18.948 12.8598C18.9635 12.8682 18.9805 12.8735 18.9981 12.8753L20.5394 13.0383C20.557 13.0402 20.5747 13.0386 20.5917 13.0336C20.6086 13.0286 20.6244 13.0203 20.6381 13.0092C20.6519 12.9981 20.6633 12.9844 20.6717 12.9689C20.6801 12.9534 20.6854 12.9363 20.6872 12.9188C20.6891 12.9012 20.6875 12.8834 20.6825 12.8665C20.6775 12.8496 20.6692 12.8338 20.6581 12.82C20.647 12.8063 20.6333 12.7949 20.6178 12.7865C20.6023 12.7781 20.5852 12.7728 20.5677 12.771L19.0264 12.608C19.0173 12.6071 19.0081 12.6071 18.9991 12.6079ZM4.23134 13.5157C4.22222 13.5158 4.21313 13.5167 4.2042 13.5186L3.56647 13.6541C3.54919 13.6577 3.5328 13.6647 3.51824 13.6747C3.50367 13.6847 3.49122 13.6974 3.4816 13.7122C3.47198 13.727 3.46538 13.7436 3.46218 13.761C3.45898 13.7783 3.45924 13.7962 3.46295 13.8134C3.46658 13.8307 3.47358 13.8471 3.48357 13.8617C3.49355 13.8762 3.50631 13.8887 3.52112 13.8983C3.53593 13.9079 3.55249 13.9145 3.56985 13.9177C3.58722 13.9209 3.60504 13.9207 3.62231 13.917L4.26007 13.7815C4.27735 13.7779 4.29374 13.7709 4.3083 13.7609C4.32286 13.7509 4.33531 13.7382 4.34492 13.7234C4.35454 13.7086 4.36114 13.692 4.36433 13.6746C4.36753 13.6573 4.36727 13.6394 4.36356 13.6222C4.35721 13.5919 4.34057 13.5647 4.31647 13.5453C4.29237 13.5259 4.26229 13.5154 4.23134 13.5156V13.5157ZM19.7681 13.517C19.7372 13.5167 19.7071 13.5272 19.683 13.5466C19.6589 13.566 19.6423 13.5932 19.6359 13.6235C19.6322 13.6407 19.6319 13.6585 19.6351 13.6759C19.6383 13.6933 19.6449 13.7098 19.6545 13.7246C19.6641 13.7395 19.6766 13.7522 19.6911 13.7622C19.7057 13.7722 19.7221 13.7792 19.7394 13.7828L20.3771 13.9184C20.3944 13.9221 20.4122 13.9223 20.4296 13.9192C20.4469 13.916 20.4635 13.9094 20.4783 13.8998C20.4931 13.8902 20.5059 13.8777 20.5159 13.8632C20.5259 13.8486 20.5329 13.8322 20.5365 13.8149C20.5402 13.7977 20.5405 13.7798 20.5373 13.7625C20.5341 13.7451 20.5275 13.7285 20.5179 13.7137C20.5082 13.6989 20.4958 13.6861 20.4812 13.6761C20.4667 13.6661 20.4503 13.6591 20.433 13.6555L19.7953 13.52C19.7864 13.5181 19.7773 13.5171 19.7681 13.5171V13.517ZM5.30524 14.0462C5.28731 14.0446 5.26925 14.0467 5.25218 14.0524L3.77816 14.5316C3.76136 14.537 3.74579 14.5457 3.73236 14.5571C3.71892 14.5686 3.70788 14.5826 3.69987 14.5983C3.69186 14.6141 3.68704 14.6312 3.68567 14.6488C3.68431 14.6664 3.68644 14.6841 3.69193 14.7009C3.69735 14.7177 3.70604 14.7333 3.71749 14.7467C3.72895 14.7601 3.74294 14.7712 3.75867 14.7792C3.77441 14.7872 3.79157 14.792 3.80917 14.7934C3.82677 14.7948 3.84447 14.7926 3.86125 14.7872L5.33521 14.308C5.35202 14.3026 5.36758 14.2939 5.38102 14.2824C5.39446 14.271 5.40551 14.257 5.41352 14.2412C5.42154 14.2255 5.42637 14.2084 5.42774 14.1908C5.42911 14.1731 5.42699 14.1554 5.4215 14.1387C5.41338 14.1135 5.39802 14.0913 5.37733 14.0749C5.35665 14.0584 5.33157 14.0485 5.30524 14.0462V14.0462ZM18.6929 14.051C18.6666 14.0532 18.6415 14.0632 18.6208 14.0796C18.6001 14.096 18.5848 14.1182 18.5766 14.1433C18.5711 14.1601 18.569 14.1778 18.5703 14.1954C18.5717 14.213 18.5765 14.2302 18.5845 14.2459C18.5925 14.2616 18.6036 14.2757 18.617 14.2871C18.6304 14.2986 18.646 14.3073 18.6628 14.3127L20.1364 14.7929C20.1532 14.7984 20.1709 14.8006 20.1885 14.7992C20.2061 14.7979 20.2233 14.793 20.239 14.785C20.2548 14.777 20.2688 14.766 20.2802 14.7526C20.2917 14.7391 20.3004 14.7236 20.3058 14.7068C20.3113 14.69 20.3135 14.6723 20.3121 14.6547C20.3108 14.6371 20.306 14.6199 20.298 14.6042C20.2899 14.5884 20.2789 14.5744 20.2655 14.563C20.2521 14.5515 20.2365 14.5428 20.2197 14.5374L18.746 14.0572C18.7289 14.0516 18.7109 14.0495 18.6929 14.051ZM4.74278 15.0957C4.72479 15.096 4.70705 15.1 4.69062 15.1073L4.09496 15.3725C4.07882 15.3797 4.06425 15.3899 4.05209 15.4027C4.03993 15.4155 4.03041 15.4306 4.02409 15.4471C4.01776 15.4636 4.01476 15.4811 4.01524 15.4988C4.01572 15.5164 4.01969 15.5338 4.0269 15.5499C4.03405 15.5661 4.04431 15.5806 4.05711 15.5928C4.0699 15.605 4.08497 15.6145 4.10146 15.6208C4.11794 15.6271 4.13551 15.6302 4.15316 15.6297C4.17081 15.6292 4.18819 15.6252 4.2043 15.618L4.79996 15.3529C4.8161 15.3457 4.83067 15.3354 4.84283 15.3226C4.85499 15.3099 4.86451 15.2948 4.87083 15.2783C4.87716 15.2618 4.88016 15.2442 4.87968 15.2266C4.8792 15.209 4.87523 15.1916 4.86802 15.1755C4.85732 15.1513 4.83973 15.1308 4.81744 15.1166C4.79516 15.1024 4.76917 15.0951 4.74275 15.0957L4.74278 15.0957ZM19.2547 15.1008C19.2283 15.1002 19.2023 15.1075 19.18 15.1216C19.1576 15.1358 19.14 15.1563 19.1294 15.1805C19.1221 15.1966 19.1182 15.214 19.1177 15.2316C19.1172 15.2493 19.1202 15.2668 19.1265 15.2833C19.1328 15.2998 19.1423 15.3149 19.1545 15.3277C19.1666 15.3405 19.1812 15.3508 19.1974 15.3579L19.7927 15.6235C19.8088 15.6308 19.8262 15.6348 19.8439 15.6352C19.8615 15.6357 19.8791 15.6327 19.8956 15.6264C19.9121 15.6201 19.9272 15.6106 19.94 15.5984C19.9528 15.5863 19.9631 15.5717 19.9702 15.5555C19.9774 15.5394 19.9814 15.5221 19.9819 15.5044C19.9824 15.4868 19.9794 15.4692 19.9731 15.4527C19.9668 15.4362 19.9572 15.4211 19.9451 15.4083C19.9329 15.3955 19.9184 15.3853 19.9022 15.3781L19.3069 15.1125C19.2904 15.1051 19.2727 15.1012 19.2547 15.1008ZM5.90246 15.392C5.87571 15.39 5.849 15.3963 5.82584 15.4098L4.4836 16.1847C4.46829 16.1935 4.45487 16.2053 4.4441 16.2193C4.43334 16.2333 4.42545 16.2493 4.42088 16.2663C4.41631 16.2834 4.41516 16.3012 4.41749 16.3187C4.41981 16.3362 4.42557 16.353 4.43443 16.3683C4.44323 16.3836 4.45496 16.397 4.46896 16.4078C4.48295 16.4185 4.49894 16.4264 4.51599 16.431C4.53304 16.4356 4.55082 16.4367 4.56832 16.4344C4.58582 16.4321 4.60269 16.4263 4.61796 16.4175L5.9602 15.6426C5.97551 15.6338 5.98893 15.622 5.99969 15.608C6.01045 15.594 6.01834 15.578 6.02291 15.561C6.02748 15.5439 6.02863 15.5261 6.02631 15.5086C6.02398 15.4911 6.01823 15.4742 6.00937 15.459C5.99841 15.4399 5.98293 15.4238 5.96428 15.4121C5.94562 15.4004 5.92438 15.3935 5.90242 15.392H5.90246ZM18.0972 15.392C18.0752 15.3935 18.054 15.4004 18.0353 15.412C18.0167 15.4237 18.0012 15.4398 17.9902 15.4589C17.9813 15.4742 17.9756 15.4911 17.9733 15.5086C17.9709 15.5261 17.9721 15.5439 17.9767 15.561C17.9812 15.578 17.9891 15.594 17.9999 15.608C18.0106 15.622 18.0241 15.6338 18.0394 15.6426L19.3817 16.4175C19.3969 16.4263 19.4138 16.4321 19.4313 16.4344C19.4488 16.4367 19.4666 16.4356 19.4837 16.431C19.5007 16.4264 19.5167 16.4186 19.5307 16.4078C19.5447 16.397 19.5564 16.3836 19.5652 16.3683C19.5741 16.353 19.5799 16.3362 19.5822 16.3187C19.5845 16.3012 19.5834 16.2834 19.5788 16.2663C19.5742 16.2493 19.5663 16.2333 19.5556 16.2193C19.5448 16.2053 19.5314 16.1935 19.5161 16.1847L18.1738 15.4098C18.1506 15.3963 18.1239 15.3901 18.0972 15.392ZM5.56768 16.5292C5.54088 16.5302 5.51497 16.5391 5.4933 16.5549L4.96561 16.9378C4.95129 16.9481 4.93916 16.9612 4.92991 16.9762C4.92065 16.9913 4.91446 17.008 4.91169 17.0254C4.90892 17.0429 4.90961 17.0607 4.91374 17.0778C4.91787 17.095 4.92536 17.1112 4.93576 17.1255C4.94609 17.1398 4.95916 17.1519 4.97419 17.1611C4.98923 17.1704 5.00594 17.1766 5.02338 17.1794C5.04081 17.1821 5.05862 17.1814 5.07579 17.1773C5.09295 17.1732 5.10913 17.1657 5.1234 17.1553L5.65116 16.7724C5.66547 16.7621 5.6776 16.749 5.68685 16.734C5.6961 16.719 5.7023 16.7022 5.70507 16.6848C5.70785 16.6674 5.70716 16.6496 5.70303 16.6324C5.69891 16.6152 5.69143 16.599 5.68104 16.5848C5.66815 16.5669 5.65106 16.5525 5.63128 16.5428C5.61151 16.5331 5.58965 16.5285 5.56764 16.5292H5.56768ZM18.4287 16.5338C18.4067 16.533 18.3849 16.5376 18.3651 16.5473C18.3453 16.5569 18.3283 16.5713 18.3154 16.5892C18.305 16.6034 18.2975 16.6196 18.2933 16.6368C18.2892 16.654 18.2885 16.6718 18.2913 16.6892C18.294 16.7067 18.3002 16.7234 18.3095 16.7384C18.3187 16.7535 18.3308 16.7665 18.3451 16.7769L18.8726 17.1601C18.8868 17.1705 18.903 17.178 18.9202 17.1822C18.9373 17.1863 18.9552 17.187 18.9726 17.1843C18.99 17.1815 19.0068 17.1753 19.0218 17.1661C19.0368 17.1568 19.0499 17.1447 19.0602 17.1304C19.0707 17.1161 19.0781 17.0999 19.0823 17.0828C19.0864 17.0656 19.0871 17.0478 19.0844 17.0304C19.0816 17.013 19.0754 16.9962 19.0662 16.9812C19.057 16.9662 19.0449 16.9531 19.0306 16.9427L18.5031 16.5595C18.4815 16.5437 18.4556 16.5347 18.4287 16.5337V16.5338ZM6.76279 16.5801C6.74515 16.5792 6.7275 16.5817 6.71085 16.5876C6.6942 16.5935 6.67889 16.6027 6.6658 16.6145L5.51315 17.6507C5.5 17.6625 5.4893 17.6767 5.48167 17.6926C5.47404 17.7086 5.46963 17.7258 5.46869 17.7435C5.46775 17.7611 5.47031 17.7787 5.47621 17.7954C5.4821 17.812 5.49123 17.8273 5.50306 17.8404C5.51484 17.8536 5.5291 17.8643 5.54502 17.8719C5.56094 17.8796 5.57821 17.884 5.59584 17.8849C5.61348 17.8858 5.63112 17.8833 5.64776 17.8774C5.6644 17.8715 5.67971 17.8624 5.69282 17.8505L6.84547 16.8144C6.85862 16.8026 6.86932 16.7883 6.87695 16.7724C6.88458 16.7565 6.88899 16.7392 6.88993 16.7216C6.89087 16.704 6.88831 16.6863 6.88241 16.6697C6.87651 16.653 6.86739 16.6377 6.85556 16.6246C6.84379 16.6115 6.82953 16.6008 6.81361 16.5931C6.79769 16.5855 6.78042 16.5811 6.76279 16.5801ZM17.2336 16.5839C17.198 16.5858 17.1646 16.6017 17.1408 16.6283C17.1289 16.6414 17.1198 16.6567 17.1139 16.6733C17.108 16.6899 17.1054 16.7076 17.1063 16.7252C17.1072 16.7429 17.1116 16.7601 17.1193 16.7761C17.1269 16.792 17.1376 16.8063 17.1507 16.818L18.3027 17.855C18.3158 17.8668 18.3311 17.876 18.3477 17.8819C18.3644 17.8878 18.382 17.8904 18.3996 17.8894C18.4173 17.8885 18.4345 17.8841 18.4505 17.8765C18.4664 17.8689 18.4807 17.8582 18.4925 17.845C18.5043 17.8319 18.5134 17.8166 18.5193 17.8C18.5253 17.7834 18.5278 17.7657 18.5269 17.7481C18.526 17.7305 18.5216 17.7132 18.514 17.6973C18.5063 17.6813 18.4956 17.6671 18.4825 17.6553L17.3305 16.6183C17.3174 16.6065 17.3021 16.5973 17.2855 16.5914C17.2689 16.5855 17.2513 16.5829 17.2336 16.5839H17.2336ZM7.85635 17.5682C7.83435 17.5674 7.81249 17.572 7.79271 17.5817C7.77292 17.5913 7.75582 17.6057 7.74292 17.6235L6.83117 18.8769C6.82074 18.8911 6.81324 18.9073 6.80909 18.9244C6.80493 18.9416 6.80421 18.9594 6.80695 18.9769C6.8097 18.9943 6.81586 19.011 6.82509 19.0261C6.83432 19.0411 6.84643 19.0542 6.86073 19.0646C6.87498 19.075 6.89115 19.0825 6.90831 19.0867C6.92547 19.0908 6.94328 19.0915 6.96072 19.0888C6.97816 19.086 6.99489 19.0799 7.00994 19.0706C7.02499 19.0614 7.03808 19.0493 7.04843 19.035L7.96023 17.7816C7.97065 17.7674 7.97815 17.7512 7.98231 17.7341C7.98646 17.7169 7.98719 17.6991 7.98444 17.6816C7.98169 17.6642 7.97553 17.6475 7.9663 17.6324C7.95707 17.6174 7.94496 17.6043 7.93067 17.5939C7.90903 17.5781 7.88314 17.5691 7.85635 17.5682ZM16.1359 17.5738C16.1091 17.5748 16.0832 17.5837 16.0615 17.5995C16.0472 17.6098 16.0351 17.6229 16.0258 17.6379C16.0166 17.6529 16.0104 17.6696 16.0076 17.6871C16.0048 17.7045 16.0055 17.7223 16.0097 17.7395C16.0138 17.7567 16.0213 17.7728 16.0317 17.7871L16.9417 19.0417C16.9521 19.056 16.9651 19.0681 16.9802 19.0774C16.9952 19.0866 17.0119 19.0928 17.0294 19.0956C17.0468 19.0984 17.0646 19.0977 17.0818 19.0936C17.0989 19.0894 17.1151 19.082 17.1294 19.0716C17.1437 19.0612 17.1559 19.0482 17.1651 19.0331C17.1744 19.0181 17.1806 19.0014 17.1833 18.9839C17.1861 18.9665 17.1854 18.9487 17.1813 18.9315C17.1772 18.9143 17.1697 18.8982 17.1593 18.8839L16.2492 17.6293C16.2363 17.6115 16.2192 17.5971 16.1995 17.5874C16.1797 17.5777 16.1579 17.5731 16.1359 17.5738H16.1359ZM6.67934 17.7674C6.64372 17.7693 6.61032 17.7853 6.58647 17.8118L6.15024 18.2964C6.1384 18.3095 6.12926 18.3248 6.12335 18.3414C6.11744 18.3581 6.11487 18.3757 6.11579 18.3933C6.11671 18.411 6.12111 18.4282 6.12872 18.4442C6.13634 18.4601 6.14703 18.4744 6.16017 18.4862C6.17327 18.498 6.18857 18.5071 6.20521 18.513C6.22185 18.519 6.23949 18.5215 6.25712 18.5206C6.27476 18.5197 6.29203 18.5153 6.30796 18.5076C6.32388 18.5 6.33814 18.4893 6.34992 18.4762L6.78622 17.9917C6.79806 17.9786 6.8072 17.9633 6.81311 17.9466C6.81902 17.93 6.82158 17.9124 6.82066 17.8947C6.81973 17.8771 6.81534 17.8598 6.80772 17.8439C6.8001 17.8279 6.78941 17.8137 6.77626 17.8019C6.76317 17.79 6.74787 17.7809 6.73124 17.775C6.71461 17.7691 6.69697 17.7665 6.67934 17.7674V17.7674ZM17.3196 17.768C17.3019 17.7671 17.2843 17.7696 17.2677 17.7756C17.251 17.7815 17.2358 17.7906 17.2227 17.8025C17.2095 17.8143 17.1988 17.8285 17.1912 17.8445C17.1836 17.8604 17.1792 17.8777 17.1783 17.8953C17.1773 17.9129 17.1799 17.9306 17.1858 17.9472C17.1917 17.9638 17.2009 17.9791 17.2127 17.9922L17.6489 18.4768C17.6606 18.49 17.6749 18.5007 17.6908 18.5083C17.7068 18.5159 17.724 18.5203 17.7417 18.5212C17.7593 18.5222 17.7769 18.5196 17.7936 18.5137C17.8102 18.5078 17.8255 18.4986 17.8386 18.4868C17.8518 18.475 17.8625 18.4607 17.8701 18.4448C17.8777 18.4289 17.8821 18.4116 17.883 18.394C17.884 18.3763 17.8814 18.3587 17.8755 18.342C17.8696 18.3254 17.8604 18.3101 17.8486 18.297L17.4124 17.8124C17.4006 17.7993 17.3863 17.7886 17.3704 17.781C17.3545 17.7733 17.3372 17.7689 17.3195 17.768L17.3196 17.768ZM9.12961 18.3055C9.10319 18.3049 9.07719 18.3122 9.0549 18.3264C9.0326 18.3405 9.01501 18.361 9.00434 18.3852L8.37283 19.8007C8.36561 19.8168 8.36164 19.8341 8.36115 19.8518C8.36066 19.8694 8.36366 19.887 8.36998 19.9035C8.37629 19.92 8.38581 19.9351 8.39796 19.9479C8.41012 19.9607 8.42469 19.9709 8.44083 19.9781C8.45694 19.9853 8.47432 19.9893 8.49197 19.9898C8.50962 19.9903 8.52719 19.9873 8.54368 19.981C8.56017 19.9747 8.57525 19.9651 8.58805 19.953C8.60086 19.9408 8.61113 19.9263 8.61829 19.9101L9.24976 18.4947C9.25699 18.4786 9.26097 18.4612 9.26146 18.4435C9.26195 18.4259 9.25896 18.4083 9.25264 18.3918C9.24632 18.3753 9.23681 18.3603 9.22464 18.3475C9.21248 18.3346 9.19791 18.3244 9.18177 18.3172C9.16534 18.3099 9.1476 18.3059 9.12961 18.3055ZM14.8616 18.3094C14.8436 18.3097 14.8259 18.3137 14.8094 18.321C14.7933 18.3282 14.7787 18.3384 14.7665 18.3512C14.7543 18.364 14.7448 18.3791 14.7385 18.3956C14.7321 18.412 14.7291 18.4296 14.7296 18.4473C14.73 18.4649 14.734 18.4823 14.7412 18.4984L15.3707 19.9147C15.3779 19.9309 15.3881 19.9454 15.4009 19.9576C15.4137 19.9698 15.4288 19.9793 15.4453 19.9856C15.4617 19.992 15.4793 19.995 15.497 19.9945C15.5146 19.9941 15.532 19.9901 15.5481 19.9829C15.5643 19.9758 15.5788 19.9655 15.591 19.9527C15.6032 19.9399 15.6127 19.9249 15.619 19.9084C15.6254 19.8919 15.6284 19.8744 15.6279 19.8567C15.6275 19.8391 15.6235 19.8217 15.6163 19.8056L14.9868 18.3893C14.9761 18.3651 14.9585 18.3446 14.9363 18.3304C14.914 18.3162 14.888 18.3089 14.8616 18.3094ZM8.01995 18.7431C7.99799 18.7446 7.97674 18.7515 7.95808 18.7632C7.93943 18.7749 7.92394 18.791 7.91301 18.8101L7.58704 19.3747C7.57818 19.39 7.57242 19.4069 7.57009 19.4244C7.56777 19.4419 7.56892 19.4597 7.57349 19.4767C7.57806 19.4938 7.58595 19.5098 7.59671 19.5238C7.60748 19.5378 7.6209 19.5495 7.63621 19.5583C7.65148 19.5672 7.66835 19.5729 7.68585 19.5752C7.70335 19.5776 7.72114 19.5764 7.7382 19.5718C7.75525 19.5673 7.77124 19.5594 7.78524 19.5486C7.79923 19.5379 7.81097 19.5244 7.81976 19.5091L8.14576 18.9445C8.15463 18.9292 8.16038 18.9123 8.16271 18.8948C8.16503 18.8773 8.16387 18.8595 8.1593 18.8425C8.15473 18.8254 8.14684 18.8094 8.13607 18.7954C8.12531 18.7814 8.11188 18.7697 8.09657 18.7609C8.07338 18.7475 8.0467 18.7413 8.01995 18.7431ZM15.9798 18.7431C15.953 18.7412 15.9263 18.7474 15.9032 18.761C15.8879 18.7697 15.8745 18.7815 15.8637 18.7955C15.8529 18.8095 15.8451 18.8255 15.8405 18.8425C15.8359 18.8596 15.8348 18.8774 15.8371 18.8949C15.8394 18.9124 15.8452 18.9292 15.854 18.9445L16.18 19.5091C16.1888 19.5244 16.2005 19.5379 16.2145 19.5486C16.2285 19.5594 16.2445 19.5673 16.2616 19.5718C16.2786 19.5764 16.2964 19.5776 16.3139 19.5752C16.3314 19.5729 16.3483 19.5672 16.3636 19.5583C16.3789 19.5495 16.3923 19.5378 16.4031 19.5238C16.4138 19.5098 16.4217 19.4938 16.4263 19.4767C16.4308 19.4597 16.432 19.4419 16.4297 19.4244C16.4274 19.4069 16.4216 19.39 16.4127 19.3747L16.0868 18.8101C16.0758 18.791 16.0603 18.7749 16.0416 18.7633C16.023 18.7516 16.0017 18.7447 15.9798 18.7431ZM10.5354 18.7634C10.5045 18.7631 10.4744 18.7736 10.4503 18.793C10.4262 18.8124 10.4095 18.8396 10.4032 18.8698L10.0811 20.386C10.0774 20.4032 10.0771 20.4211 10.0803 20.4384C10.0835 20.4558 10.0901 20.4724 10.0997 20.4872C10.1094 20.502 10.1218 20.5147 10.1364 20.5247C10.1509 20.5347 10.1673 20.5417 10.1846 20.5453C10.2019 20.549 10.2197 20.5493 10.2371 20.5461C10.2544 20.5429 10.271 20.5363 10.2858 20.5267C10.3006 20.5171 10.3134 20.5046 10.3234 20.4901C10.3334 20.4755 10.3404 20.4591 10.344 20.4418L10.6661 18.9257C10.6703 18.9062 10.6701 18.886 10.6655 18.8666C10.6608 18.8471 10.652 18.829 10.6394 18.8134C10.6269 18.7979 10.6111 18.7853 10.5931 18.7767C10.5751 18.768 10.5554 18.7635 10.5354 18.7635V18.7634ZM13.4596 18.7643C13.4396 18.7644 13.4199 18.7689 13.4019 18.7775C13.384 18.7862 13.3681 18.7987 13.3556 18.8142C13.3431 18.8298 13.3342 18.8479 13.3296 18.8673C13.3249 18.8867 13.3247 18.9069 13.3289 18.9264L13.6498 20.4428C13.6535 20.4601 13.6604 20.4765 13.6704 20.4911C13.6804 20.5056 13.6931 20.5181 13.7079 20.5277C13.7227 20.5374 13.7393 20.544 13.7567 20.5472C13.774 20.5504 13.7919 20.5501 13.8091 20.5464C13.8264 20.5428 13.8428 20.5358 13.8574 20.5259C13.872 20.5159 13.8844 20.5031 13.8941 20.4883C13.9037 20.4735 13.9103 20.457 13.9135 20.4396C13.9167 20.4222 13.9165 20.4044 13.9128 20.3872L13.5917 18.8709C13.5854 18.8406 13.5688 18.8134 13.5447 18.794C13.5206 18.7746 13.4905 18.7641 13.4596 18.7643V18.7643ZM11.9999 18.9172C11.9822 18.9172 11.9647 18.9207 11.9484 18.9274C11.9321 18.9341 11.9172 18.944 11.9047 18.9565C11.8923 18.969 11.8824 18.9838 11.8756 19.0002C11.8689 19.0165 11.8654 19.034 11.8655 19.0516V20.6015C11.8654 20.6192 11.8689 20.6367 11.8756 20.653C11.8824 20.6694 11.8923 20.6842 11.9048 20.6967C11.9172 20.7092 11.9321 20.7191 11.9484 20.7258C11.9647 20.7325 11.9822 20.736 11.9999 20.7359C12.0175 20.736 12.035 20.7325 12.0513 20.7258C12.0677 20.719 12.0825 20.7091 12.095 20.6967C12.1075 20.6842 12.1173 20.6693 12.1241 20.653C12.1308 20.6367 12.1343 20.6192 12.1342 20.6015V19.0517C12.1343 19.034 12.1308 19.0165 12.1241 19.0002C12.1173 18.9839 12.1074 18.969 12.095 18.9566C12.0825 18.9441 12.0676 18.9342 12.0513 18.9274C12.035 18.9207 12.0175 18.9172 11.9999 18.9173V18.9172ZM9.53331 19.4181C9.50697 19.4204 9.48189 19.4303 9.4612 19.4468C9.44051 19.4632 9.42514 19.4854 9.41701 19.5105L9.21548 20.1306C9.20998 20.1474 9.20785 20.1651 9.20921 20.1827C9.21058 20.2003 9.2154 20.2174 9.22342 20.2332C9.23143 20.2489 9.24248 20.2629 9.25592 20.2744C9.26936 20.2858 9.28493 20.2945 9.30174 20.2999C9.31852 20.3054 9.33622 20.3075 9.35382 20.3062C9.37143 20.3048 9.38859 20.3 9.40432 20.292C9.42005 20.2839 9.43404 20.2729 9.4455 20.2595C9.45695 20.246 9.46564 20.2305 9.47106 20.2136L9.67259 19.5936C9.67808 19.5769 9.68021 19.5592 9.67885 19.5416C9.67748 19.524 9.67266 19.5068 9.66465 19.4911C9.65664 19.4753 9.6456 19.4613 9.63216 19.4499C9.61873 19.4384 9.60316 19.4297 9.58636 19.4243C9.56927 19.4187 9.55123 19.4166 9.53331 19.4181ZM14.4654 19.4184C14.4475 19.4168 14.4294 19.4189 14.4123 19.4246C14.3955 19.43 14.3799 19.4387 14.3665 19.4501C14.3531 19.4616 14.342 19.4756 14.334 19.4913C14.326 19.5071 14.3211 19.5242 14.3198 19.5418C14.3184 19.5594 14.3205 19.5771 14.326 19.5939L14.5275 20.214C14.5329 20.2308 14.5416 20.2463 14.553 20.2598C14.5645 20.2732 14.5785 20.2843 14.5942 20.2923C14.61 20.3003 14.6271 20.3051 14.6447 20.3065C14.6623 20.3079 14.68 20.3057 14.6968 20.3002C14.7136 20.2948 14.7292 20.2861 14.7426 20.2747C14.7561 20.2632 14.7671 20.2492 14.7752 20.2335C14.7832 20.2178 14.788 20.2006 14.7894 20.183C14.7908 20.1654 14.7886 20.1477 14.7831 20.1309L14.5816 19.5109C14.5735 19.4857 14.5581 19.4635 14.5375 19.4471C14.5168 19.4307 14.4917 19.4207 14.4654 19.4184H14.4654ZM11.1564 19.7638C11.1256 19.7667 11.0968 19.7803 11.0748 19.8021C11.0529 19.8239 11.0391 19.8527 11.036 19.8835L10.9678 20.5319C10.9659 20.5494 10.9675 20.5672 10.9725 20.5841C10.9775 20.6011 10.9858 20.6168 10.9969 20.6306C11.008 20.6443 11.0217 20.6557 11.0373 20.6641C11.0528 20.6725 11.0698 20.6777 11.0874 20.6795C11.105 20.6814 11.1227 20.6798 11.1396 20.6748C11.1566 20.6698 11.1724 20.6615 11.1861 20.6504C11.1998 20.6393 11.2112 20.6256 11.2196 20.6101C11.228 20.5946 11.2333 20.5775 11.2351 20.5599L11.3033 19.9116C11.3051 19.894 11.3035 19.8763 11.2986 19.8593C11.2936 19.8424 11.2853 19.8266 11.2742 19.8129C11.263 19.7992 11.2493 19.7878 11.2338 19.7794C11.2183 19.7709 11.2012 19.7657 11.1837 19.7639C11.1746 19.7629 11.1655 19.7629 11.1564 19.7638ZM12.8379 19.7644C12.8288 19.7634 12.8197 19.7635 12.8106 19.7645C12.793 19.7663 12.776 19.7716 12.7605 19.78C12.7449 19.7883 12.7312 19.7997 12.7201 19.8134C12.709 19.8272 12.7007 19.8429 12.6957 19.8599C12.6906 19.8768 12.689 19.8945 12.6909 19.9121L12.7586 20.5606C12.7604 20.5782 12.7657 20.5952 12.7741 20.6107C12.7825 20.6262 12.7938 20.64 12.8076 20.6511C12.8213 20.6622 12.837 20.6705 12.854 20.6755C12.8709 20.6805 12.8887 20.6821 12.9062 20.6802C12.9238 20.6784 12.9408 20.6732 12.9564 20.6648C12.9719 20.6564 12.9856 20.645 12.9967 20.6313C13.0079 20.6176 13.0162 20.6018 13.0212 20.5849C13.0262 20.5679 13.0278 20.5502 13.0259 20.5326L12.9583 19.8842C12.9551 19.8534 12.9414 19.8247 12.9195 19.8028C12.8975 19.781 12.8687 19.7674 12.8379 19.7644H12.8379Z" fill="#F4F2F3"/>
<g opacity="0.409" filter="url(#filter0_f_37148_74744)">
<path d="M18.2975 6.62512L10.9459 10.8965L6.29761 18.2141L13.0976 13.1774L18.2975 6.62512Z" fill="black"/>
</g>
<path d="M13.0538 13.1033L10.9465 10.8966L18.4217 5.86804L13.0538 13.1033Z" fill="#FF5150"/>
<path d="M13.0538 13.1034L10.9465 10.8966L5.57861 18.1319L13.0538 13.1034Z" fill="#F1F1F1"/>
<path opacity="0.243" d="M5.57837 18.1319L13.0535 13.1033L18.4215 5.86804L5.57837 18.1319Z" fill="black"/>
<defs>
<filter id="filter0_f_37148_74744" x="0.838596" y="1.16611" width="22.918" height="22.507" filterUnits="userSpaceOnUse" color-interpolation-filters="sRGB">
<feFlood flood-opacity="0" result="BackgroundImageFix"/>
<feBlend mode="normal" in="SourceGraphic" in2="BackgroundImageFix" result="shape"/>
<feGaussianBlur stdDeviation="2.72951" result="effect1_foregroundBlur_37148_74744"/>
</filter>
<linearGradient id="paint0_linear_37148_74744" x1="11.9996" y1="21.9998" x2="11.9996" y2="1.99995" gradientUnits="userSpaceOnUse">
<stop stop-color="#BDBDBD"/>
<stop offset="1" stop-color="white"/>
</linearGradient>
<radialGradient id="paint1_radial_37148_74744" cx="0" cy="0" r="1" gradientUnits="userSpaceOnUse" gradientTransform="translate(12.0416 10.6561) scale(9.99998)">
<stop stop-color="#06C2E7"/>
<stop offset="0.25" stop-color="#0DB8EC"/>
<stop offset="0.5" stop-color="#12AEF1"/>
<stop offset="0.75" stop-color="#1F86F9"/>
<stop offset="1" stop-color="#107DDD"/>
</radialGradient>
</defs>
</svg>
