<svg width="24" height="24" viewBox="0 0 24 24" fill="none" xmlns="http://www.w3.org/2000/svg">
<path d="M12.4849 3.49299L11.9527 5.60672C12.7066 4.11383 13.9039 2.99046 15.2787 2C14.2735 3.16775 13.3571 4.3356 12.7953 5.50335C13.7414 4.17293 15.0127 3.4339 16.4464 2.94608C14.5396 4.64602 13.026 6.47021 11.873 8.30307L10.9565 7.904C11.1189 6.44067 11.6719 4.94172 12.4849 3.49299Z" fill="#ABCD03"/>
<path d="M10.0378 7.51538L11.7821 8.23904C11.7821 8.68259 11.746 10.0354 12.0234 10.4345C14.9244 14.1706 14.4363 21.6599 11.4357 21.852C6.86636 21.852 5.12378 18.7479 5.12378 15.8949C5.12378 13.2933 8.24268 11.5638 10.1053 10.0265C10.5783 9.61265 10.4961 8.69796 10.0378 7.51538Z" fill="#FFFCDB"/>
<path d="M11.7825 8.21301L12.4111 8.53371C12.352 8.9475 12.4406 9.86414 12.8544 10.1005C14.6875 11.2387 16.4169 12.4804 17.0969 13.7221C19.5212 18.0976 15.397 22.1477 11.8345 21.7634C13.771 20.3295 14.3327 17.388 13.6084 14.1802C13.3128 12.9237 12.8544 11.7855 12.0414 10.4995C11.6892 9.86825 11.8121 9.08528 11.7825 8.21301Z" fill="#7D4698"/>
<path d="M11.4798 8.10502L12.7805 8.28242C12.3962 9.55364 13.5345 10.4405 13.904 10.6476C14.7318 11.1058 15.53 11.5788 16.1657 12.1553C16.7578 12.695 17.2307 13.3525 17.554 14.0856C17.8772 14.8187 18.0438 15.6113 18.043 16.4125C18.043 18.0237 17.3039 19.5758 16.0622 20.6105C14.8945 21.5861 13.2833 22 11.7164 22C10.7407 22 9.86858 21.9557 8.9226 21.6452C6.7645 20.9209 5.15321 19.0732 5.02019 16.8558C4.90189 15.1263 5.28623 13.8107 6.63148 12.436C7.32614 11.7117 8.73049 10.884 9.6914 10.2187C10.1645 9.89349 10.667 8.97696 9.70612 7.24758L9.89834 7.09973L11.3224 8.0535L10.1201 7.558C10.2236 7.70585 10.5045 8.37106 10.5637 8.56318C10.6967 9.11009 10.6376 9.64239 10.5193 9.87877C9.91328 10.9727 8.87855 11.2683 8.12469 11.8891C6.79427 12.983 5.34565 13.8551 5.50822 16.8558C5.58215 18.334 6.73517 20.1374 8.46455 20.98C9.44018 21.4531 10.5637 21.6452 11.7019 21.7043C12.7218 21.7487 14.673 21.1426 15.7373 20.2557C16.8755 19.3097 17.5112 17.8758 17.5112 16.4125C17.5112 14.9342 16.9199 13.53 15.8112 12.5395C15.1756 11.9631 14.1261 11.2683 13.4757 10.8987C12.8253 10.5292 12.0123 9.49443 12.2783 8.50408L11.4798 8.10502Z" fill="black"/>
<path d="M11.0806 10.2927C10.9476 10.9728 10.7998 12.1996 10.2085 12.6579C9.95717 12.8352 9.70585 13.0127 9.43981 13.19C8.37553 13.9144 7.31115 14.5942 6.82344 16.3385C6.71997 16.7081 6.80872 17.1072 6.89747 17.4767C7.16352 18.541 7.91737 19.694 8.50866 20.3741C8.50866 20.4036 8.62696 20.4775 8.62696 20.5071C9.11478 21.0836 9.26263 21.2462 11.1103 21.66L11.0659 21.8671C9.95728 21.5715 9.04085 21.3054 8.46428 20.6401C8.46428 20.6254 8.36081 20.5218 8.36081 20.5218C7.73998 19.8122 6.98601 18.6297 6.70525 17.5211C6.60178 17.0775 6.51313 16.7377 6.63132 16.2793C7.13386 14.476 8.22779 13.7664 9.33644 13.0126C9.58776 12.85 9.88335 12.702 10.1198 12.5099C10.578 12.1701 10.8292 11.1352 11.0806 10.2927Z" fill="black"/>
<path d="M11.5533 13.1012C11.5681 13.8699 11.4931 14.2554 11.6852 14.8024C11.8034 15.1276 12.2028 15.5711 12.3211 15.9998C12.4837 16.5764 12.6607 17.212 12.6458 17.5963C12.6458 18.0399 12.6181 18.8672 12.426 19.7542C12.2794 20.4872 11.9418 21.116 11.374 21.4724C10.7925 21.3527 10.1096 21.1483 9.70658 20.8028C8.92317 20.1228 8.22928 18.9858 8.14053 17.9954C8.06671 17.1825 8.81948 15.9835 9.86893 15.3775C10.7558 14.8601 10.9621 14.2705 11.1542 13.3244C10.8882 14.1522 10.6383 14.8462 9.78094 15.2895C8.53926 15.94 7.90219 17.0317 7.96129 18.0665C8.04993 19.3967 8.58267 20.2983 9.63211 21.0226C10.0756 21.333 10.904 21.6611 11.4213 21.7498V21.6822C11.8137 21.6087 12.3218 20.9643 12.5748 20.0924C12.7966 19.309 12.8839 18.3063 12.869 17.6707C12.8542 17.3011 12.6912 16.5009 12.3955 15.7765C12.2329 15.3775 11.9832 14.9785 11.8205 14.6977C11.6433 14.4166 11.642 13.8107 11.5533 13.1012Z" fill="black"/>
<path d="M11.4655 15.9999C11.4802 16.5172 11.688 17.1801 11.7767 17.8601C11.8507 18.3628 11.8186 18.8677 11.8037 19.3112C11.7891 19.8246 11.6181 20.7445 11.3843 21.1918C11.1639 21.0907 11.0777 20.9753 10.9344 20.7893C10.7571 20.538 10.6368 20.2866 10.5185 19.991C10.4297 19.7693 10.3261 19.5155 10.2816 19.2199C10.2225 18.7764 10.2391 18.0826 10.7416 17.3731C11.126 16.8113 11.2141 16.7687 11.3471 16.1183C11.1696 16.6947 11.0372 16.7535 10.6232 17.2412C10.1651 17.7734 10.0889 18.5573 10.0889 19.1928C10.0889 19.459 10.1949 19.7542 10.2985 20.035C10.4167 20.3307 10.5182 20.6251 10.6808 20.8468C10.9252 21.2062 11.238 21.4107 11.391 21.4489C11.3921 21.4491 11.3934 21.4486 11.3944 21.4489C11.3976 21.4496 11.4014 21.4516 11.4046 21.4521V21.4353C11.6914 21.1155 11.864 20.7978 11.922 20.4781C11.996 20.0938 12.013 19.7086 12.0573 19.2503C12.1017 18.8661 12.0696 18.3483 11.9661 17.8162C11.8184 17.151 11.5689 16.4728 11.4655 15.9999Z" fill="black"/>
<path d="M11.5092 9.67188C11.524 10.4405 11.5831 11.8745 11.7901 12.4361C11.8492 12.6282 12.3961 13.4708 12.7803 14.4907C13.0465 15.2003 13.1056 15.8507 13.15 16.0428C13.3274 16.8854 13.1056 18.3045 12.8099 19.6496C12.6621 20.3739 12.1595 21.2756 11.583 21.6304L11.4648 21.8374C11.7901 21.8226 12.5882 21.0391 12.8691 20.0635C13.3422 18.408 13.5343 17.6393 13.3126 15.8063C13.2831 15.6288 13.2092 15.0229 12.9283 14.3724C12.5144 13.382 11.9231 12.436 11.8493 12.2438C11.7162 11.9334 11.5388 10.5883 11.5092 9.67188Z" fill="black"/>
<path d="M11.7868 8.62073C11.7429 9.41052 11.7312 9.70145 11.8789 10.2779C12.0415 10.9136 12.8694 11.83 13.2094 12.8796C13.8597 14.8899 13.6972 17.5211 13.2241 19.5757C13.0468 20.2999 12.2041 21.3496 11.3616 21.6895L11.9824 21.8373C12.3224 21.8225 13.1944 21.0095 13.5345 20.0783C14.0813 18.6148 14.1849 16.8706 13.9631 15.0377C13.9483 14.8603 13.6526 13.2786 13.3718 12.6134C12.9727 11.6231 12.2631 10.7361 12.1892 10.5441C12.0563 10.2188 11.7642 9.54354 11.7868 8.62073Z" fill="black"/>
<path d="M11.3167 8.0647H11.3762V21.7045H11.3167V8.0647Z" fill="black"/>
</svg>
