<svg width="24" height="24" viewBox="0 0 24 24" fill="none" xmlns="http://www.w3.org/2000/svg">
<path d="M12.0203 22C16.4097 22 18.8488 22 20.4469 20.4079C22.0406 18.8159 22.0406 16.3815 22.0406 11.9978C22.0406 7.61411 22.0406 5.17971 20.4469 3.58765C18.8488 2 16.4097 2 12.0203 2C7.63093 2 5.19189 2 3.59374 3.59206C2 5.18412 2 7.61852 2 12.0022C2 16.3859 2 18.8203 3.59374 20.4123C5.19189 22 7.63093 22 12.0203 22Z" fill="#EF3939"/>
<path d="M18.5361 8.30211C17.5763 6.62185 15.9694 5.31203 13.9486 4.76959C9.93782 3.69792 5.81699 6.07058 4.74276 10.0706C4.20124 12.0816 4.53583 14.1235 5.51321 15.7905C5.52642 15.8126 5.53963 15.8391 5.55724 15.8611L9.08812 21.9692C9.67367 21.9868 10.3076 21.9912 10.99 21.9912H11.985C13.9354 21.9912 15.5027 21.9912 16.7839 21.8501C18.382 21.6737 19.5267 21.2812 20.4116 20.3991C21.7016 19.1114 21.9481 17.2679 21.9965 14.2823C19.9361 10.7189 18.5405 8.30652 18.5361 8.30211Z" fill="url(#paint0_linear_37148_74745)"/>
<path d="M17.2944 6.71004C14.3666 3.78171 9.61622 3.78171 6.68408 6.71004C3.75635 9.63838 3.75635 14.3837 6.68408 17.3076C9.61182 20.2359 14.3622 20.2359 17.2944 17.3076C20.2265 14.3793 20.2265 9.63397 17.2944 6.71004ZM16.8453 10.1544C15.6082 12.3021 14.371 14.4498 13.1339 16.602C12.905 17.0033 12.5704 17.2415 12.1125 17.2767C11.6018 17.312 11.1968 17.0959 10.937 16.6549C10.1533 15.3098 9.37848 13.9559 8.60362 12.6064C8.13254 11.7861 7.65706 10.9658 7.18598 10.1411C6.7105 9.31203 7.24762 8.3021 8.19858 8.25359C8.70048 8.22713 9.08791 8.46087 9.34326 8.89747C9.69106 9.49284 10.0345 10.097 10.3823 10.6968C10.6332 11.129 10.8754 11.5656 11.1307 11.989C11.5005 12.6108 12.0465 12.9592 12.7729 13.0033C13.7987 13.0651 14.7541 12.3197 14.8773 11.2304C14.8861 11.1511 14.8905 11.0673 14.8949 11.0276C14.8905 10.6748 14.8245 10.3749 14.6836 10.097C14.3006 9.32967 14.71 8.46969 15.5421 8.28446C16.2201 8.13452 16.9245 8.63287 17.0126 9.32085C17.0566 9.61633 16.995 9.89417 16.8453 10.1544Z" fill="white"/>
<defs>
<linearGradient id="paint0_linear_37148_74745" x1="8.26468" y1="5.51009" x2="17.7868" y2="22.0935" gradientUnits="userSpaceOnUse">
<stop stop-opacity="0.2"/>
<stop offset="0.7908" stop-opacity="0.05"/>
</linearGradient>
</defs>
</svg>
