<svg width="24" height="24" viewBox="0 0 24 24" fill="none" xmlns="http://www.w3.org/2000/svg">
<path d="M11.6871 4.41479C9.50444 4.41479 7.41114 5.28187 5.86774 6.82526C4.32435 8.36866 3.45728 10.462 3.45728 12.6446C3.45728 14.8273 4.32435 16.9206 5.86774 18.464C7.41114 20.0074 9.50444 20.8745 11.6871 20.8745C13.8698 20.8745 15.9631 20.0074 17.5065 18.464C19.0499 16.9206 19.917 14.8273 19.917 12.6446C19.917 10.462 19.0499 8.36866 17.5065 6.82526C15.9631 5.28187 13.8698 4.4148 11.6871 4.41479Z" fill="#354358"/>
<path opacity="0.2" d="M12.6516 2.66886C12.4371 2.67022 12.028 2.70617 11.8187 2.76416C11.1195 2.95791 10.4675 3.86789 10.226 4.52996C10.1897 4.62952 10.143 4.72041 10.1215 4.731C10.1001 4.74164 10.0165 4.7625 9.93617 4.7793C9.10882 4.95249 8.09863 5.33198 7.40614 5.72839C5.84906 6.61973 4.65462 7.88503 3.87742 9.46599C3.43847 10.3589 3.18964 11.1778 3.04582 12.2036C2.98477 12.6391 2.98468 13.9571 3.04582 14.3929C3.32174 16.3555 4.14426 18.0378 5.49622 19.4073C7.03652 20.9675 9.01413 21.8566 11.2508 21.9947C11.5288 22.0119 12.3702 21.9848 12.6973 21.9477C13.6101 21.8444 14.5822 21.5658 15.4179 21.1684C18.1426 19.8724 19.9999 17.2744 20.3422 14.2832C20.3591 14.1357 20.3734 13.7325 20.3735 13.3838C20.4265 12.3875 20.0174 11.3988 19.6072 10.671C19.1833 9.79272 19.1016 9.03155 19.0392 8.0955C19.0478 8.03833 19.0467 7.97911 19.0378 7.96495C17.9149 8.31025 16.9536 9.21758 16.3625 10.0571C15.9628 10.6949 15.701 11.3465 15.6999 11.9203C15.7557 13.3845 17.0091 14.4388 17.0367 15.761C17.0367 17.1647 16.1913 18.5218 15.1868 19.4921C14.9847 19.6873 14.9361 19.7231 14.914 19.701C14.9067 19.6937 14.9382 19.6076 14.9832 19.5091C15.6822 17.9751 15.5351 16.1365 14.461 14.8485C14.3109 14.6685 13.7198 14.0843 13.6359 14.0326C13.6744 14.2353 13.6941 14.4411 13.6947 14.6475C13.6947 16.4932 12.1984 17.9895 10.3526 17.9895C8.50686 17.9895 7.01058 16.4932 7.01058 14.6475C7.01058 12.8017 8.50686 11.3054 10.3526 11.3054C10.5634 11.306 10.7736 11.3266 10.9806 11.3668C10.9914 11.3674 11.0024 11.3674 11.0132 11.3681C11.0443 11.3416 11.0641 11.3174 11.0641 11.3094C11.0641 11.2576 10.2414 10.4339 10.0132 10.2572C9.54923 9.89782 9.02104 9.46457 8.41136 9.30676C8.24812 9.26452 8.16202 9.2307 8.16202 9.20885C8.16202 9.14679 8.74192 8.97415 9.38526 8.84462C10.1671 8.68721 10.6742 8.64871 12.1894 8.63313C12.8251 8.62658 13.4517 8.6102 13.5824 8.59657C15.2157 8.33337 16.5296 7.26366 17.1147 6.06785C17.1311 6.0135 17.1293 6.01302 16.8758 6.01302C16.3391 6.01302 15.7989 5.90153 15.2847 5.6749C14.6189 5.29713 14.0333 4.85952 13.32 4.7062C13.136 4.66665 12.637 4.65968 12.3578 4.62134C12.2924 4.06077 12.5412 3.24776 12.7808 2.88688C12.8404 2.80172 12.8847 2.71934 12.88 2.70542C12.8711 2.67861 12.7803 2.66809 12.6516 2.66886V2.66886Z" fill="black"/>
<path d="M12.6516 2.00065C12.4371 2.00201 12.028 2.03796 11.8187 2.09595C11.1195 2.28969 10.4675 3.19967 10.226 3.86174C10.1897 3.9613 10.143 4.05219 10.1215 4.06279C10.1001 4.07343 10.0165 4.09429 9.93617 4.11109C9.10882 4.28428 8.09863 4.66377 7.40614 5.06018C5.84906 5.95151 4.65462 7.21682 3.87742 8.79778C3.43847 9.69066 3.18964 10.5096 3.04582 11.5354C2.98477 11.9709 2.98468 13.2889 3.04582 13.7247C3.32174 15.6873 4.14426 17.3695 5.49622 18.739C7.03652 20.2993 9.01413 21.1884 11.2508 21.3265C11.5288 21.3437 12.3702 21.3166 12.6973 21.2795C13.6101 21.1762 14.5822 20.8976 15.4179 20.5001C18.1426 19.2042 19.9999 16.6062 20.3422 13.615C20.3591 13.4675 20.3734 13.0643 20.3735 12.7155C20.4265 11.7193 20.0174 10.7306 19.6072 10.0027C19.1833 9.12451 19.1016 8.36334 19.0392 7.42728C19.0478 7.37011 19.0467 7.3109 19.0378 7.29673C17.9149 7.64204 16.9536 8.54937 16.3625 9.38891C15.9628 10.0267 15.701 10.6783 15.6999 11.2521C15.7557 12.7163 17.0091 13.7706 17.0367 15.0928C17.0367 16.4965 16.1913 17.8536 15.1868 18.8239C14.9847 19.0191 14.9361 19.0549 14.914 19.0328C14.9067 19.0254 14.9382 18.9394 14.9832 18.8409C15.6822 17.3069 15.5351 15.4683 14.461 14.1803C14.3109 14.0003 13.7198 13.4161 13.6359 13.3644C13.6744 13.5671 13.6941 13.7729 13.6947 13.9792C13.6947 15.825 12.1984 17.3213 10.3526 17.3213C8.50686 17.3213 7.01058 15.825 7.01058 13.9792C7.01058 12.1335 8.50686 10.6372 10.3526 10.6372C10.5634 10.6378 10.7736 10.6584 10.9806 10.6986C10.9914 10.6992 11.0024 10.6992 11.0132 10.6999C11.0443 10.6733 11.0641 10.6492 11.0641 10.6412C11.0641 10.5894 10.2414 9.76568 10.0132 9.58894C9.54923 9.22961 9.02104 8.79636 8.41136 8.63855C8.24812 8.59631 8.16202 8.56249 8.16202 8.54063C8.16202 8.47857 8.74192 8.30593 9.38526 8.1764C10.1671 8.019 10.6742 7.9805 12.1894 7.96492C12.8251 7.95836 13.4517 7.94199 13.5824 7.92836C15.2157 7.66516 16.5296 6.59545 17.1147 5.39964C17.1311 5.34529 17.1293 5.34481 16.8758 5.34481C16.3391 5.34481 15.7989 5.23332 15.2847 5.00669C14.6189 4.62892 14.0333 4.19131 13.32 4.03798C13.136 3.99844 12.637 3.99147 12.3578 3.95313C12.2924 3.39256 12.5412 2.57954 12.7808 2.21867C12.8404 2.13351 12.8847 2.05113 12.88 2.0372C12.8711 2.0104 12.7803 1.99988 12.6516 2.00065V2.00065Z" fill="#41A6CC"/>
<path opacity="0.2" d="M12.6513 2.00004C12.4368 2.0014 12.0277 2.03735 11.8184 2.09534C11.1192 2.28908 10.4672 3.19959 10.2257 3.86166C10.1894 3.96122 10.1427 4.05211 10.1213 4.06271C10.0998 4.07334 10.0162 4.0942 9.93588 4.11101C9.10853 4.2842 8.09834 4.66369 7.40585 5.0601C5.84878 5.95143 4.65434 7.21673 3.87713 8.7977C3.43818 9.69058 3.18935 10.5095 3.04553 11.5353C3.00569 11.8195 3.00205 12.4181 3.0142 12.9635C3.02069 12.6733 3.02434 12.3549 3.04553 12.2037C3.18935 11.1779 3.43818 10.359 3.87713 9.46611C4.65434 7.88514 5.84878 6.61984 7.40585 5.7285C8.09834 5.33209 9.10853 4.95261 9.93588 4.77942C10.0162 4.76261 10.0998 4.74175 10.1213 4.73111C10.1427 4.72052 10.1894 4.62963 10.2257 4.53007C10.4672 3.868 11.1192 2.95749 11.8184 2.76375C12.0065 2.71165 12.3419 2.68108 12.5664 2.67367C12.6332 2.4944 12.7057 2.33067 12.7805 2.21806C12.8401 2.1329 12.8844 2.05052 12.8798 2.03659C12.8708 2.00979 12.78 1.99927 12.6513 2.00004ZM12.4019 3.95696C12.36 4.18929 12.3342 4.4214 12.3576 4.62145C12.6367 4.65979 13.1357 4.66677 13.3197 4.70631C14.033 4.85963 14.6187 5.29721 15.2845 5.67498C15.7546 5.88218 16.2464 5.98907 16.7375 6.00657C16.8814 5.80959 17.0129 5.60774 17.1147 5.39952C17.1311 5.34518 17.1293 5.34469 16.8758 5.34469C16.3392 5.34469 15.7987 5.23321 15.2845 5.00657C14.6187 4.6288 14.033 4.19122 13.3197 4.0379C13.1436 4.00006 12.6862 3.99119 12.4019 3.95696ZM19.0377 7.29639C17.9148 7.6417 16.9539 8.54954 16.3628 9.38908C15.9631 10.0269 15.7007 10.6782 15.6996 11.252C15.7035 11.3546 15.7252 11.4509 15.7401 11.5497C15.8229 11.0731 16.0466 10.5621 16.3628 10.0575C16.9539 9.21795 17.9148 8.31011 19.0377 7.9648C19.0466 7.97896 19.0476 8.03818 19.039 8.09535C19.1015 9.0314 19.183 9.79283 19.6069 10.6711C19.9567 11.2918 20.3031 12.1022 20.3654 12.9452C20.3671 12.8542 20.3732 12.8046 20.3732 12.7155C20.4262 11.7192 20.0171 10.7305 19.6069 10.0027C19.183 9.12442 19.1015 8.36299 19.039 7.42694C19.0476 7.36977 19.0466 7.31055 19.0377 7.29639ZM9.06382 8.92303C8.57595 9.03691 8.16173 9.15856 8.16173 9.20893C8.16173 9.23078 8.24783 9.2646 8.41108 9.30684C9.02076 9.46465 9.54895 9.8979 10.0129 10.2572C10.0899 10.3169 10.2675 10.4912 10.4254 10.6437C10.6116 10.6483 10.7974 10.663 10.9803 10.6985C10.9911 10.6991 11.0021 10.6991 11.0129 10.6998C11.044 10.6732 11.0638 10.6491 11.0638 10.641C11.0638 10.5893 10.2411 9.76556 10.0129 9.58882C9.72408 9.36513 9.40659 9.11973 9.06382 8.92303ZM13.6356 13.3643C13.6741 13.567 13.6938 13.7728 13.6944 13.9792C13.6944 14.014 13.6902 14.0478 13.6892 14.0823C13.8282 14.1947 14.3209 14.681 14.4607 14.8486C15.0246 15.5248 15.3256 16.353 15.3902 17.2089C15.467 16.1233 15.1708 15.0317 14.4607 14.1802C14.3106 14.0002 13.7196 13.416 13.6356 13.3643ZM7.02726 14.3134C7.01636 14.4232 7.01029 14.5349 7.01029 14.6476C7.01029 16.4933 8.50657 17.9896 10.3523 17.9896C12.1981 17.9896 13.6944 16.4933 13.6944 14.6476C13.6941 14.5573 13.6758 14.4685 13.6683 14.3786C13.4706 16.0358 12.0627 17.3212 10.3523 17.3212C8.6193 17.3212 7.19485 16.0023 7.02726 14.3134ZM17.0051 15.5209C16.8594 16.7436 16.1192 17.9021 15.2414 18.7677C15.1737 19.0198 15.0925 19.2688 14.9829 19.5092C14.9379 19.6077 14.9064 19.6938 14.9137 19.7011C14.9358 19.7233 14.9844 19.6875 15.1865 19.4922C16.191 18.5219 17.0364 17.1648 17.0364 15.7612C17.0347 15.6792 17.0156 15.601 17.0051 15.5209Z" fill="white"/>
</svg>
