<svg width="24" height="24" viewBox="0 0 24 24" fill="none" xmlns="http://www.w3.org/2000/svg">
<path fill-rule="evenodd" clip-rule="evenodd" d="M22 12C22 17.5228 17.5228 22 12 22C6.47719 22 2 17.5228 2 12C2 6.47719 6.47719 2 12 2C17.5228 2 22 6.47719 22 12Z" fill="url(#paint0_linear_37148_74747)"/>
<path fill-rule="evenodd" clip-rule="evenodd" d="M21.5156 12C21.5156 17.2553 17.2553 21.5156 12 21.5156C6.74468 21.5156 2.48438 17.2553 2.48438 12C2.48438 6.74468 6.74468 2.48438 12 2.48438C17.2553 2.48438 21.5156 6.74468 21.5156 12Z" fill="white"/>
<path fill-rule="evenodd" clip-rule="evenodd" d="M18.4377 7.87493L13.0861 13.1093V19.6171C13.0861 19.7343 12.5783 19.8281 12.0002 19.8359C11.4455 19.8281 10.9142 19.7343 10.9142 19.6171V13.1093L5.56267 7.87493C5.47672 7.78898 5.75017 7.38273 6.17205 6.96086C6.59392 6.53898 7.00797 6.26556 7.0861 6.35148L11.9923 11.1406L16.8986 6.35148C16.9845 6.26556 17.3908 6.53898 17.8127 6.96086C18.2345 7.38273 18.5158 7.78898 18.4377 7.87493Z" fill="#EC1C24"/>
<defs>
<linearGradient id="paint0_linear_37148_74747" x1="12" y1="2" x2="12" y2="22" gradientUnits="userSpaceOnUse">
<stop stop-color="#F5F5F6"/>
<stop offset="1" stop-color="#EDEDEE"/>
</linearGradient>
</defs>
</svg>
