<svg width="16" height="16" viewBox="0 0 24 24" fill="none" xmlns="http://www.w3.org/2000/svg">
<path d="M18.1331 9.61357V16.1958C18.1331 16.2905 18.1086 16.3836 18.0621 16.4653C18.0155 16.5471 17.9486 16.6147 17.8682 16.6611L12.151 19.9642C12.0732 20.0091 11.9854 20.0327 11.8962 20.0327C11.8069 20.0327 11.7191 20.0091 11.6414 19.9642L5.92412 16.6611C5.84374 16.6147 5.77683 16.5471 5.73028 16.4653C5.68372 16.3836 5.65918 16.2905 5.65918 16.1958V9.61357C5.65918 9.51884 5.68372 9.42583 5.73028 9.34406C5.77683 9.2623 5.84374 9.19473 5.92412 9.14829L11.6414 5.84523C11.7191 5.80029 11.8069 5.77668 11.8962 5.77668C11.9854 5.77668 12.0732 5.80029 12.151 5.84523L17.8682 9.14829C17.9486 9.19473 18.0155 9.2623 18.0621 9.34406C18.1086 9.42583 18.1331 9.51884 18.1331 9.61357Z" stroke="current" stroke-width="1.377" stroke-linecap="round" stroke-linejoin="round"/>
<path d="M19.823 17.363L11.9754 12.9046L3.96973 17.3638" stroke="current" stroke-width="1.377" stroke-linecap="round" stroke-linejoin="round"/>
<path d="M11.9759 12.9048L11.8975 3.98184" stroke="current" stroke-width="1.377" stroke-linecap="round" stroke-linejoin="round"/>
</svg>
