<svg width="24" height="24" viewBox="0 0 24 24" fill="none" xmlns="http://www.w3.org/2000/svg">
<path d="M8.73433 11.5155C8.15618 10.0734 8.09367 8.47594 8.55738 6.99308C9.02108 5.51022 9.98256 4.23295 11.2793 3.37716C12.576 2.52137 14.1285 2.13955 15.6742 2.29625C17.22 2.45294 18.6642 3.13854 19.7628 4.23715C20.8614 5.33576 21.547 6.78 21.7037 8.32575C21.8604 9.8715 21.4786 11.4239 20.6228 12.7207C19.767 14.0174 18.4897 14.9789 17.0069 15.4426C15.524 15.9063 13.9265 15.8438 12.4844 15.2656L12.4845 15.2655L11.25 16.4999H9V18.7499H6.75V20.9999H3V17.2499L8.7345 11.5154L8.73433 11.5155Z" stroke="#A6A6A6" stroke-width="1.7" stroke-linecap="round" stroke-linejoin="round"/>
<path opacity="0.5" d="M16.875 7.5C17.0821 7.5 17.25 7.33211 17.25 7.125C17.25 6.91789 17.0821 6.75 16.875 6.75C16.6679 6.75 16.5 6.91789 16.5 7.125C16.5 7.33211 16.6679 7.5 16.875 7.5Z" stroke="#A6A6A6" stroke-width="2" stroke-linecap="round" stroke-linejoin="round"/>
<path d="M16.875 8.25C17.4963 8.25 18 7.74632 18 7.125C18 6.50368 17.4963 6 16.875 6C16.2537 6 15.75 6.50368 15.75 7.125C15.75 7.74632 16.2537 8.25 16.875 8.25Z" fill="#A6A6A6"/>
</svg>
