<svg width="16" height="16" viewBox="0 0 16 16" fill="none" xmlns="http://www.w3.org/2000/svg">
<path d="M10 6H10.0067M11.0367 2.56199L13.438 4.96333C13.6161 5.14143 13.7574 5.35288 13.8538 5.58561C13.9503 5.81833 13.9999 6.06776 13.9999 6.31966C13.9999 6.57156 13.9503 6.82099 13.8538 7.05371C13.7574 7.28644 13.6161 7.49789 13.438 7.67599L11.676 9.43799C11.4979 9.61613 11.2864 9.75743 11.0537 9.85384C10.821 9.95024 10.5716 9.99986 10.3197 9.99986C10.0678 9.99986 9.81833 9.95024 9.58561 9.85384C9.35289 9.75743 9.14144 9.61613 8.96333 9.43799L8.76267 9.23733L4.39067 13.6093C4.16915 13.8308 3.87672 13.9672 3.56467 13.9947L3.448 14H2.66667C2.50338 14 2.34578 13.94 2.22375 13.8315C2.10173 13.723 2.02377 13.5735 2.00467 13.4113L2 13.3333V12.552C2.00008 12.239 2.11029 11.9359 2.31133 11.696L2.39067 11.6093L2.66667 11.3333H4V9.99999H5.33333V8.66666L6.76267 7.23733L6.562 7.03666C6.38387 6.85855 6.24256 6.6471 6.14615 6.41438C6.04975 6.18166 6.00013 5.93223 6.00013 5.68033C6.00013 5.42843 6.04975 5.17899 6.14615 4.94627C6.24256 4.71355 6.38387 4.5021 6.562 4.32399L8.324 2.56199C8.50211 2.38386 8.71356 2.24256 8.94628 2.14615C9.179 2.04974 9.42843 2.00012 9.68033 2.00012C9.93223 2.00012 10.1817 2.04974 10.4144 2.14615C10.6471 2.24256 10.8586 2.38386 11.0367 2.56199Z" stroke="#646464" stroke-width="1.5" stroke-linecap="round" stroke-linejoin="round"/>
</svg>