<svg width="24" height="24" viewBox="0 0 24 24" fill="none" xmlns="http://www.w3.org/2000/svg">
<path d="M4.05287 16.9084L6.63941 16.8676L6.66512 10.3931L4.045 10.4302C3.8495 10.4315 3.66243 10.51 3.52457 10.6486C3.38672 10.7872 3.30927 10.9747 3.30911 11.1702L3.2916 16.1518C3.29072 16.2518 3.30984 16.351 3.34785 16.4435C3.38585 16.536 3.44197 16.6199 3.5129 16.6904C3.58383 16.7609 3.66814 16.8165 3.76087 16.854C3.8536 16.8914 3.95288 16.9099 4.05287 16.9084V16.9084Z" stroke="CURRENT" stroke-width="1.7" stroke-linecap="round" stroke-linejoin="round"/>
<path d="M6.66505 10.3931L10.0533 8.63853C10.1397 8.59344 10.234 8.56582 10.3311 8.55726C10.4281 8.54869 10.5258 8.55934 10.6187 8.58859L15.5677 10.1538C15.6698 10.1877 15.7634 10.2429 15.8426 10.3157C15.9217 10.3885 15.9845 10.4773 16.0267 10.5762C16.0689 10.6751 16.0897 10.7819 16.0875 10.8894C16.0854 10.9969 16.0605 11.1028 16.0144 11.1999L15.7416 11.774C15.4584 12.3577 15.2501 12.375 15.2501 12.375C14.674 12.6733 14.0152 12.8555 13.3751 12.75L11.1251 12.375L13.7502 13.875L18.625 13.875L20.8751 13.125L22.7501 13.5L19.3751 16.5L13.375 18L10.3311 17.25L6.48421 16.5678" stroke="CURRENT" stroke-width="1.7" stroke-linecap="round" stroke-linejoin="round"/>
<path d="M19 7.125C19.8284 7.125 20.5 6.45343 20.5 5.625C20.5 4.79657 19.8284 4.125 19 4.125C18.1716 4.125 17.5 4.79657 17.5 5.625C17.5 6.45343 18.1716 7.125 19 7.125Z" stroke="CURRENT" stroke-width="1.7" stroke-linecap="round" stroke-linejoin="round"/>
<path d="M19 4.125V3" stroke="CURRENT" stroke-width="1.7" stroke-linecap="round" stroke-linejoin="round"/>
<path d="M17.7008 4.875L16.7266 4.3125" stroke="CURRENT" stroke-width="1.7" stroke-linecap="round" stroke-linejoin="round"/>
<path d="M17.7008 6.375L16.7266 6.9375" stroke="CURRENT" stroke-width="1.7" stroke-linecap="round" stroke-linejoin="round"/>
<path d="M19 7.125V8.25" stroke="CURRENT" stroke-width="1.7" stroke-linecap="round" stroke-linejoin="round"/>
<path d="M20.2988 6.375L21.2731 6.9375" stroke="CURRENT" stroke-width="1.7" stroke-linecap="round" stroke-linejoin="round"/>
<path d="M20.2988 4.875L21.2731 4.3125" stroke="CURRENT" stroke-width="1.7" stroke-linecap="round" stroke-linejoin="round"/>
</svg>
