<svg width="24" height="24" viewBox="0 0 24 24" fill="none" xmlns="http://www.w3.org/2000/svg">
<path d="M17.2734 11V9.875C17.2734 9.37772 17.0759 8.90081 16.7242 8.54917C16.3726 8.19754 15.8957 8 15.3984 8C14.9011 8 14.4242 8.19754 14.0726 8.54917C13.7209 8.90081 13.5234 9.37772 13.5234 9.875V3.875C13.5234 3.37772 13.3259 2.90081 12.9742 2.54917C12.6226 2.19754 12.1457 2 11.6484 2C11.1511 2 10.6742 2.19754 10.3226 2.54917C9.97094 2.90081 9.7734 3.37772 9.7734 3.875V15.2469L7.72027 11.6844C7.47163 11.253 7.0618 10.938 6.58095 10.8088C6.10009 10.6796 5.5876 10.7467 5.15621 10.9953C4.72482 11.244 4.40987 11.6538 4.28064 12.1346C4.15142 12.6155 4.21851 13.128 4.46715 13.5594C7.5234 20 9.37965 22.25 13.5234 22.25C14.5083 22.25 15.4836 22.056 16.3935 21.6791C17.3035 21.3022 18.1303 20.7497 18.8267 20.0533C19.5231 19.3569 20.0756 18.5301 20.4525 17.6201C20.8294 16.7102 21.0234 15.7349 21.0234 14.75V11C21.0234 10.5027 20.8259 10.0258 20.4742 9.67417C20.1226 9.32254 19.6457 9.125 19.1484 9.125C18.6511 9.125 18.1742 9.32254 17.8226 9.67417C17.4709 10.0258 17.2734 10.5027 17.2734 11V11Z" stroke="CURRENT" stroke-width="1.7" stroke-linecap="round" stroke-linejoin="round"/>
<path d="M5.27344 7.25C6.10186 7.25 6.77344 6.57843 6.77344 5.75C6.77344 4.92157 6.10186 4.25 5.27344 4.25C4.44501 4.25 3.77344 4.92157 3.77344 5.75C3.77344 6.57843 4.44501 7.25 5.27344 7.25Z" stroke="CURRENT" stroke-width="1.7" stroke-linecap="round" stroke-linejoin="round"/>
<path d="M5.27344 4.25V3.125" stroke="CURRENT" stroke-width="1.7" stroke-linecap="round" stroke-linejoin="round"/>
<path d="M3.97428 5L3 4.4375" stroke="CURRENT" stroke-width="1.7" stroke-linecap="round" stroke-linejoin="round"/>
<path d="M3.97428 6.5L3 7.0625" stroke="CURRENT" stroke-width="1.7" stroke-linecap="round" stroke-linejoin="round"/>
<path d="M5.27344 7.25V8.375" stroke="CURRENT" stroke-width="1.7" stroke-linecap="round" stroke-linejoin="round"/>
<path d="M6.57227 6.5L7.54654 7.0625" stroke="CURRENT" stroke-width="1.7" stroke-linecap="round" stroke-linejoin="round"/>
<path d="M6.57227 5L7.54654 4.4375" stroke="CURRENT" stroke-width="1.7" stroke-linecap="round" stroke-linejoin="round"/>
</svg>
