<svg width="24" height="24" viewBox="0 0 24 24" fill="none" xmlns="http://www.w3.org/2000/svg">
<path d="M12.75 8.88889C12.75 8.47468 12.4142 8.13889 12 8.13889C11.5858 8.13889 11.25 8.47468 11.25 8.88889H12.75ZM11.25 15.1111C11.25 15.5253 11.5858 15.8611 12 15.8611C12.4142 15.8611 12.75 15.5253 12.75 15.1111H11.25ZM8.88889 11.25C8.47468 11.25 8.13889 11.5858 8.13889 12C8.13889 12.4142 8.47468 12.75 8.88889 12.75V11.25ZM15.1111 12.75C15.5253 12.75 15.8611 12.4142 15.8611 12C15.8611 11.5858 15.5253 11.25 15.1111 11.25V12.75ZM11.25 8.88889V15.1111H12.75V8.88889H11.25ZM8.88889 12.75H15.1111V11.25H8.88889V12.75ZM18.25 12C18.25 15.4518 15.4518 18.25 12 18.25V19.75C16.2802 19.75 19.75 16.2802 19.75 12H18.25ZM12 18.25C8.54822 18.25 5.75 15.4518 5.75 12H4.25C4.25 16.2802 7.71979 19.75 12 19.75V18.25ZM5.75 12C5.75 8.54822 8.54822 5.75 12 5.75V4.25C7.71979 4.25 4.25 7.71979 4.25 12H5.75ZM12 5.75C15.4518 5.75 18.25 8.54822 18.25 12H19.75C19.75 7.71979 16.2802 4.25 12 4.25V5.75Z" fill="current"/>
</svg>
