<svg width="24" height="24" viewBox="0 0 24 24" fill="none" xmlns="http://www.w3.org/2000/svg">
<path d="M6.625 20.5C8.07475 20.5 9.25 19.3247 9.25 17.875C9.25 16.4253 8.07475 15.25 6.625 15.25C5.17525 15.25 4 16.4253 4 17.875C4 19.3247 5.17525 20.5 6.625 20.5Z"  stroke-width="1.7" stroke-linecap="round" stroke-linejoin="round"/>
<path d="M6.625 9.25C8.07475 9.25 9.25 8.07475 9.25 6.625C9.25 5.17525 8.07475 4 6.625 4C5.17525 4 4 5.17525 4 6.625C4 8.07475 5.17525 9.25 6.625 9.25Z"  stroke-width="1.7" stroke-linecap="round" stroke-linejoin="round"/>
<path d="M17.875 16C19.3247 16 20.5 14.8247 20.5 13.375C20.5 11.9253 19.3247 10.75 17.875 10.75C16.4253 10.75 15.25 11.9253 15.25 13.375C15.25 14.8247 16.4253 16 17.875 16Z"  stroke-width="1.7" stroke-linecap="round" stroke-linejoin="round"/>
<path d="M15.2502 13.75H12.4827C11.823 13.75 11.1714 13.605 10.574 13.3252C9.97659 13.0453 9.44801 12.6376 9.02569 12.1308L6.625 9.25V15.25"  stroke-width="1.7" stroke-linecap="round" stroke-linejoin="round"/>
<path d="M14.25 5.25L14.25 9.25"  stroke-width="1.7" stroke-linecap="round" stroke-linejoin="round"/>
<path d="M16.25 7.25L12.25 7.25"  stroke-width="1.7" stroke-linecap="round" stroke-linejoin="round"/>
</svg>
