<svg width="24" height="24" viewBox="0 0 24 24" fill="none" xmlns="http://www.w3.org/2000/svg">
<path d="M21 19.5H3V4.5" stroke="#101010" stroke-width="2" stroke-linecap="round" stroke-linejoin="round"/>
<path d="M16 14L20 10V19.5H3V8L7.5 11.5L12 10L16 14Z" stroke="#101010" stroke-width="2" stroke-linecap="round" stroke-linejoin="round"/>
<rect x="5" y="12" width="1" height="1" rx="0.5" fill="#101010"/>
<rect x="5" y="14" width="1" height="1" rx="0.5" fill="#101010"/>
<rect x="5" y="16" width="1" height="1" rx="0.5" fill="#101010"/>
<rect x="5" y="18" width="1" height="1" rx="0.5" fill="#101010"/>
<rect x="7" y="12" width="1" height="1" rx="0.5" fill="#101010"/>
<rect x="7" y="14" width="1" height="1" rx="0.5" fill="#101010"/>
<rect x="7" y="16" width="1" height="1" rx="0.5" fill="#101010"/>
<rect x="7" y="18" width="1" height="1" rx="0.5" fill="#101010"/>
<rect x="9" y="12" width="1" height="1" rx="0.5" fill="#101010"/>
<rect x="9" y="14" width="1" height="1" rx="0.5" fill="#101010"/>
<rect x="9" y="16" width="1" height="1" rx="0.5" fill="#101010"/>
<rect x="9" y="18" width="1" height="1" rx="0.5" fill="#101010"/>
<rect x="11" y="12" width="1" height="1" rx="0.5" fill="#101010"/>
<rect x="11" y="14" width="1" height="1" rx="0.5" fill="#101010"/>
<rect x="11" y="16" width="1" height="1" rx="0.5" fill="#101010"/>
<rect x="11" y="18" width="1" height="1" rx="0.5" fill="#101010"/>
<rect x="13" y="12" width="1" height="1" rx="0.5" fill="#101010"/>
<rect x="13" y="14" width="1" height="1" rx="0.5" fill="#101010"/>
<rect x="13" y="16" width="1" height="1" rx="0.5" fill="#101010"/>
<rect x="13" y="18" width="1" height="1" rx="0.5" fill="#101010"/>
<rect x="15" y="14" width="1" height="1" rx="0.5" fill="#101010"/>
<rect x="15" y="16" width="1" height="1" rx="0.5" fill="#101010"/>
<rect x="15" y="18" width="1" height="1" rx="0.5" fill="#101010"/>
<rect x="17" y="14" width="1" height="1" rx="0.5" fill="#101010"/>
<rect x="17" y="16" width="1" height="1" rx="0.5" fill="#101010"/>
<rect x="17" y="18" width="1" height="1" rx="0.5" fill="#101010"/>
</svg>
