<svg width="24" height="24" viewBox="0 0 24 24" fill="none" xmlns="http://www.w3.org/2000/svg">
<path d="M16.5156 9.3484H21.0156V4.8484" stroke="#A6A6A6" stroke-width="1.7" stroke-linecap="round" stroke-linejoin="round"/>
<path d="M17.8336 17.8336C16.6798 18.9874 15.2098 19.7732 13.6095 20.0915C12.0092 20.4098 10.3504 20.2464 8.84286 19.622C7.33537 18.9976 6.0469 17.9402 5.14038 16.5835C4.23385 15.2268 3.75 13.6317 3.75 12C3.75 10.3683 4.23385 8.77325 5.14038 7.41655C6.0469 6.05984 7.33537 5.00242 8.84286 4.378C10.3504 3.75357 12.0092 3.5902 13.6095 3.90853C15.2098 4.22685 16.6798 5.01259 17.8336 6.16637L21.0156 9.34835" stroke="#A6A6A6" stroke-width="1.7" stroke-linecap="round" stroke-linejoin="round"/>
<path d="M14.876 12.416C15.1728 12.2181 15.1728 11.7819 14.876 11.584L11.7774 9.51823C11.4451 9.29672 11 9.53491 11 9.93426V14.0657C11 14.4651 11.4451 14.7033 11.7774 14.4818L14.876 12.416Z" fill="#A6A6A6"/>
</svg>
