<svg width="25" height="24" viewBox="0 0 25 24" fill="none" xmlns="http://www.w3.org/2000/svg">
<path d="M12.4287 6.75V8.25" stroke="#0F6FFF" stroke-width="1.7" stroke-linecap="round" stroke-linejoin="round"/>
<path d="M12.4287 15.75V17.25" stroke="#0F6FFF" stroke-width="1.7" stroke-linecap="round" stroke-linejoin="round"/>
<path d="M12.4287 21C17.3993 21 21.4287 16.9706 21.4287 12C21.4287 7.02944 17.3993 3 12.4287 3C7.45815 3 3.42871 7.02944 3.42871 12C3.42871 16.9706 7.45815 21 12.4287 21Z" stroke="#0F6FFF" stroke-width="1.7" stroke-linecap="round" stroke-linejoin="round"/>
<path d="M10.1787 15.75H13.5537C14.051 15.75 14.5279 15.5525 14.8795 15.2008C15.2312 14.8492 15.4287 14.3723 15.4287 13.875C15.4287 13.3777 15.2312 12.9008 14.8795 12.5492C14.5279 12.1975 14.051 12 13.5537 12H11.3037C10.8064 12 10.3295 11.8025 9.97789 11.4508C9.62626 11.0992 9.42871 10.6223 9.42871 10.125C9.42871 9.62772 9.62626 9.15081 9.97789 8.79917C10.3295 8.44754 10.8064 8.25 11.3037 8.25H14.6787" stroke="#0F6FFF" stroke-width="1.7" stroke-linecap="round" stroke-linejoin="round"/>
</svg>
