<svg width="32" height="32" viewBox="0 0 32 32" fill="none" xmlns="http://www.w3.org/2000/svg">
<path d="M15 8.99919H10C9.46957 8.99919 8.96086 9.2099 8.58579 9.58497C8.21071 9.96004 8 10.4688 8 10.9992V21.9992C8 22.5296 8.21071 23.0383 8.58579 23.4134C8.96086 23.7885 9.46957 23.9992 10 23.9992H21C21.5304 23.9992 22.0391 23.7885 22.4142 23.4134C22.7893 23.0383 23 22.5296 23 21.9992V16.9992M21.586 7.58519C21.7705 7.39417 21.9912 7.2418 22.2352 7.13698C22.4792 7.03216 22.7416 6.97699 23.0072 6.97468C23.2728 6.97238 23.5361 7.02298 23.7819 7.12354C24.0277 7.2241 24.251 7.37261 24.4388 7.5604C24.6266 7.74818 24.7751 7.97148 24.8756 8.21728C24.9762 8.46307 25.0268 8.72643 25.0245 8.99199C25.0222 9.25755 24.967 9.51999 24.8622 9.76399C24.7574 10.008 24.605 10.2287 24.414 10.4132L15.828 18.9992H13V16.1712L21.586 7.58519Z" stroke="#0F6FFF" stroke-width="2" stroke-linecap="round" stroke-linejoin="round"/>
</svg>
