<svg width="24" height="24" viewBox="0 0 24 24" fill="none" xmlns="http://www.w3.org/2000/svg">
<path d="M3.19421 13.1952C2.35557 11.7815 2.06187 10.1102 2.36826 8.49524C2.67466 6.88027 3.56007 5.4327 4.85823 4.42434C6.15639 3.41599 7.77801 2.91622 9.41858 3.01889C11.0591 3.12155 12.6058 3.81958 13.7681 4.9819C14.9305 6.14423 15.6285 7.69089 15.7312 9.33146C15.8338 10.972 15.3341 12.5936 14.3257 13.8918C13.3174 15.19 11.8698 16.0754 10.2549 16.3818C8.63989 16.6882 6.96862 16.3945 5.55486 15.5559L5.55488 15.5558L3.22356 16.2219C3.1271 16.2495 3.02504 16.2507 2.92793 16.2256C2.83082 16.2004 2.74221 16.1497 2.67128 16.0788C2.60035 16.0079 2.54967 15.9192 2.52451 15.8221C2.49935 15.725 2.50061 15.623 2.52817 15.5265L3.19426 13.1952L3.19421 13.1952Z" stroke="#A6A6A6" stroke-width="1.7" stroke-linecap="round" stroke-linejoin="round"/>
<path d="M8.62891 16.4899C8.96073 17.4319 9.49734 18.2886 10.2001 18.9983C10.9028 19.708 11.7542 20.253 12.6929 20.594C13.6316 20.9351 14.6342 21.0637 15.6286 20.9706C16.623 20.8776 17.5844 20.5652 18.4435 20.0558L18.4435 20.0558L20.7748 20.7219C20.8713 20.7494 20.9734 20.7507 21.0705 20.7255C21.1676 20.7004 21.2562 20.6497 21.3271 20.5788C21.398 20.5078 21.4487 20.4192 21.4739 20.3221C21.499 20.225 21.4978 20.1229 21.4702 20.0265L20.8041 17.6952L20.8042 17.6952C21.396 16.6971 21.7206 15.5633 21.7467 14.4032C21.7727 13.2431 21.4994 12.0959 20.953 11.0722C20.4065 10.0485 19.6055 9.18294 18.6272 8.55897C17.6488 7.935 16.5262 7.57371 15.3675 7.50995" stroke="#A6A6A6" stroke-width="1.7" stroke-linecap="round" stroke-linejoin="round"/>
</svg>
