<svg width="24" height="24" viewBox="0 0 24 24" fill="none" xmlns="http://www.w3.org/2000/svg">
<path d="M10.25 19.75L10.25 4.75C10.25 4.33579 9.91421 4 9.5 4H5.75C5.33579 4 5 4.33579 5 4.75L5 19.75C5 20.1642 5.33579 20.5 5.75 20.5H9.5C9.91421 20.5 10.25 20.1642 10.25 19.75Z" stroke="#242424" stroke-width="1.7" stroke-linecap="round" stroke-linejoin="round"/>
<path d="M18.75 19.5V4.5C18.75 4.08579 18.4142 3.75 18 3.75L14.25 3.75C13.8358 3.75 13.5 4.08579 13.5 4.5V19.5C13.5 19.9142 13.8358 20.25 14.25 20.25H18C18.4142 20.25 18.75 19.9142 18.75 19.5Z" stroke="#242424" stroke-width="1.7" stroke-linecap="round" stroke-linejoin="round"/>
</svg>
