<svg width="16" height="16" viewBox="0 0 16 16" fill="none" xmlns="http://www.w3.org/2000/svg">
<path d="M7 0.57735C7.6188 0.220085 8.3812 0.220085 9 0.57735L13.9282 3.42265C14.547 3.77992 14.9282 4.44017 14.9282 5.1547V10.8453C14.9282 11.5598 14.547 12.2201 13.9282 12.5774L9 15.4226C8.3812 15.7799 7.6188 15.7799 7 15.4226L2.0718 12.5774C1.45299 12.2201 1.0718 11.5598 1.0718 10.8453V5.1547C1.0718 4.44017 1.45299 3.77992 2.0718 3.42265L7 0.57735Z" fill="#FF9500"/>
<path d="M6.85958 11H5.26565C5.1952 11 5.12763 10.972 5.07781 10.9222C5.02799 10.8724 5 10.8048 5 10.7343V9.25046C5 9.21557 5.00687 9.18103 5.02022 9.1488C5.03357 9.11657 5.05314 9.08728 5.07781 9.06261L9.06262 5.07781C9.11244 5.02799 9.18 5 9.25046 5C9.32092 5 9.38849 5.02799 9.43831 5.07781L10.9222 6.56169C10.972 6.61151 11 6.67908 11 6.74954C11 6.81999 10.972 6.88756 10.9222 6.93738L6.85958 11Z" stroke="white" stroke-linecap="round" stroke-linejoin="round"/>
</svg>
