<svg width="16" height="16" viewBox="0 0 16 16" fill="none" xmlns="http://www.w3.org/2000/svg">
<path d="M7.33366 3.33409H4.00033C3.6467 3.33409 3.30756 3.47457 3.05752 3.72462C2.80747 3.97467 2.66699 4.3138 2.66699 4.66743V12.0008C2.66699 12.3544 2.80747 12.6935 3.05752 12.9436C3.30756 13.1936 3.6467 13.3341 4.00033 13.3341H11.3337C11.6873 13.3341 12.0264 13.1936 12.2765 12.9436C12.5265 12.6935 12.667 12.3544 12.667 12.0008V8.66743M11.7243 2.39143C11.8473 2.26408 11.9944 2.1625 12.1571 2.09262C12.3198 2.02275 12.4948 1.98596 12.6718 1.98443C12.8488 1.98289 13.0244 2.01662 13.1883 2.08366C13.3521 2.1507 13.501 2.24971 13.6262 2.3749C13.7514 2.50009 13.8504 2.64896 13.9174 2.81282C13.9845 2.97668 14.0182 3.15226 14.0167 3.32929C14.0151 3.50633 13.9783 3.68129 13.9085 3.84397C13.8386 4.00664 13.737 4.15376 13.6097 4.27676L7.88566 10.0008H6.00033V8.11543L11.7243 2.39143Z" stroke="#0F6FFF" stroke-width="1.7" stroke-linecap="round" stroke-linejoin="round"/>
</svg>