<svg width="20" height="20" viewBox="0 0 20 20" fill="none" xmlns="http://www.w3.org/2000/svg">
<path d="M8.25049 0C8.05158 1.98876e-05 7.86083 0.079044 7.72018 0.219692C7.57953 0.36034 7.50051 0.551094 7.50049 0.75V1.04785C7.50049 1.53158 7.21336 1.96088 6.76611 2.14551C6.74948 2.15247 6.72644 2.16281 6.72803 2.16211L6.73975 2.15625C6.28809 2.34436 5.78172 2.24577 5.43799 1.90234L5.22705 1.69238C5.08639 1.55178 4.89566 1.4728 4.69678 1.4728C4.4979 1.4728 4.30716 1.55178 4.1665 1.69238L1.69189 4.16699C1.5513 4.30765 1.47231 4.49839 1.47231 4.69727C1.47231 4.89614 1.5513 5.08688 1.69189 5.22754L1.90186 5.43848C2.24479 5.78141 2.34365 6.28942 2.15576 6.74023C2.15457 6.74308 2.15077 6.75346 2.15186 6.75098C2.14952 6.75616 2.14724 6.76137 2.14502 6.7666C1.96141 7.21255 1.53207 7.5 1.04834 7.5H0.750488C0.551582 7.50002 0.360828 7.57904 0.22018 7.71969C0.0795323 7.86034 0.000508169 8.05109 0.000488281 8.25V11.75C0.000508169 11.9489 0.0795323 12.1397 0.22018 12.2803C0.360828 12.421 0.551582 12.5 0.750488 12.5H1.04834C1.53207 12.5 1.96136 12.7871 2.146 13.2344C2.15295 13.251 2.16329 13.274 2.1626 13.2725L2.15674 13.2607C2.34485 13.7124 2.24592 14.2194 1.90283 14.5625L1.69287 14.7725C1.55227 14.9131 1.47329 15.1039 1.47329 15.3027C1.47329 15.5016 1.55227 15.6923 1.69287 15.833L4.16748 18.3086C4.30814 18.4492 4.49888 18.5282 4.69775 18.5282C4.89663 18.5282 5.08737 18.4492 5.22803 18.3086L5.43896 18.0977C5.78166 17.755 6.28917 17.6564 6.73975 17.8438H6.74072C6.74387 17.8451 6.75403 17.8497 6.75146 17.8486C6.75633 17.8506 6.76121 17.8526 6.76611 17.8545C7.21336 18.0391 7.50146 18.4684 7.50146 18.9521V19.25C7.50148 19.4489 7.58051 19.6397 7.72116 19.7803C7.8618 19.921 8.05256 20 8.25146 20H11.7515C11.9504 20 12.1411 19.921 12.2818 19.7803C12.4224 19.6397 12.5014 19.4489 12.5015 19.25V18.9521C12.5015 18.4684 12.7886 18.0391 13.2358 17.8545C13.2438 17.8513 13.2583 17.8451 13.2612 17.8438C13.7129 17.6556 14.2199 17.7546 14.563 18.0977L14.7739 18.3076C14.9146 18.4482 15.1053 18.5272 15.3042 18.5272C15.5031 18.5272 15.6938 18.4482 15.8345 18.3076L18.3091 15.833C18.4497 15.6923 18.5287 15.5016 18.5287 15.3027C18.5287 15.1039 18.4497 14.9131 18.3091 14.7725L18.0991 14.5615C17.7562 14.2186 17.6573 13.7106 17.8452 13.2598C17.8464 13.2569 17.8502 13.2465 17.8491 13.249C17.8515 13.2442 17.8537 13.2393 17.856 13.2344C18.0406 12.7871 18.4699 12.499 18.9536 12.499C18.9536 12.499 19.136 12.5174 19.2505 12.499C19.4655 12.4644 19.5952 12.4038 19.7495 12.2501C19.9043 12.0959 20.0003 11.9685 20.0005 11.75V11.749V8.25C20.0005 8.05109 19.9214 7.86034 19.7808 7.71969C19.6401 7.57904 19.4494 7.50002 19.2505 7.5H18.9526C18.4689 7.5 18.0396 7.21287 17.855 6.76562C17.848 6.74899 17.8377 6.72595 17.8384 6.72754L17.8442 6.73926C17.6561 6.2876 17.7551 5.78059 18.0981 5.4375L18.3081 5.22754C18.4487 5.08688 18.5277 4.89614 18.5277 4.69727C18.5277 4.49839 18.4487 4.30765 18.3081 4.16699L15.8335 1.69141C15.6928 1.55081 15.5021 1.47182 15.3032 1.47182C15.1043 1.47182 14.9136 1.55081 14.7729 1.69141L14.562 1.90234C14.2191 2.24528 13.7118 2.34432 13.2603 2.15625C13.2564 2.15462 13.2458 2.15016 13.2485 2.15137C13.2437 2.14936 13.2388 2.14741 13.2339 2.14551C12.7881 1.96153 12.5005 1.53158 12.5005 1.04785V0.75C12.5005 0.551094 12.4214 0.36034 12.2808 0.219692C12.1401 0.079044 11.9494 1.98876e-05 11.7505 0H8.25049ZM8.86279 1.5H11.1382C11.301 2.38549 11.8097 3.17842 12.6597 3.53027C12.6628 3.53157 12.673 3.53626 12.6704 3.53516C12.6746 3.53715 12.6789 3.5391 12.6831 3.54102C13.6866 3.95895 14.5322 4.05329 15.3032 3.28223L16.8149 4.79492C16.303 5.53909 16.1057 6.46326 16.4595 7.31445C16.461 7.31935 16.4627 7.32423 16.4644 7.3291C16.4656 7.33204 16.4669 7.33497 16.4683 7.33789C16.8199 8.18975 17.614 8.69926 18.5005 8.8623V11.1367C17.6144 11.3 16.8208 11.8105 16.4692 12.6621C16.4685 12.6638 16.4644 12.673 16.4653 12.6709C16.4637 12.6748 16.462 12.6787 16.4604 12.6826C16.1055 13.5343 16.3042 14.4592 16.8169 15.2041L15.2056 16.8154C14.4608 16.303 13.5368 16.1042 12.6851 16.459C12.6808 16.4606 12.6766 16.4622 12.6724 16.4639C12.6694 16.4652 12.6665 16.4664 12.6636 16.4678C11.8117 16.8194 11.3022 17.6136 11.1392 18.5H8.86377C8.70089 17.6144 8.19081 16.8219 7.34033 16.4697C7.33718 16.4684 7.32702 16.4637 7.32959 16.4648C7.3257 16.4629 7.32179 16.4609 7.31787 16.459C6.46597 16.1039 5.54038 16.3024 4.79541 16.8154L3.28369 15.3027C4.05412 14.5323 3.95833 13.6885 3.5415 12.6855C3.53993 12.6806 3.5383 12.6758 3.53662 12.6709C3.53534 12.668 3.53404 12.665 3.53271 12.6621C3.18105 11.8102 2.38697 11.3007 1.50049 11.1377V8.8623C2.387 8.69929 3.18089 8.19002 3.53174 7.33789C3.53244 7.33619 3.53654 7.32701 3.53564 7.3291C3.5373 7.32521 3.53893 7.3213 3.54053 7.31738C3.89549 6.46572 3.69676 5.54079 3.18408 4.7959L4.79443 3.18555C5.53893 3.69794 6.46337 3.89494 7.31494 3.54102C7.31984 3.53944 7.32472 3.53781 7.32959 3.53613C7.33253 3.53485 7.33546 3.53355 7.33838 3.53223C8.19025 3.18057 8.69975 2.38648 8.86279 1.5ZM10.0005 4C6.69566 4 4.00049 6.69518 4.00049 10C4.00049 13.3048 6.69566 16 10.0005 16C13.3053 16 16.0005 13.3048 16.0005 10C16.0005 6.69518 13.3053 4 10.0005 4ZM9.25049 5.56641V7.6543C8.80759 7.78647 8.40538 7.98615 8.12744 8.29883C7.69832 8.78159 7.50049 9.39583 7.50049 10C7.50049 10.1829 7.55508 10.3621 7.59229 10.543L5.7876 11.5771C5.60478 11.0862 5.50049 10.5564 5.50049 10C5.50049 7.7621 7.11701 5.92187 9.25049 5.56641ZM10.7505 5.56641C12.884 5.92187 14.5005 7.7621 14.5005 10C14.5005 10.5569 14.3955 11.0868 14.2124 11.5781L12.4077 10.5469C12.4455 10.3647 12.5005 10.1843 12.5005 10C12.5005 9.39583 12.3027 8.78159 11.8735 8.29883C11.5956 7.98615 11.1934 7.78647 10.7505 7.6543V5.56641ZM10.0005 9C10.3963 9 10.5982 9.12143 10.7524 9.29492C10.9067 9.46841 11.0005 9.72917 11.0005 10C11.0005 10.2708 10.9067 10.5316 10.7524 10.7051C10.5982 10.8786 10.3963 11 10.0005 11C9.60465 11 9.40275 10.8786 9.24854 10.7051C9.09432 10.5316 9.00049 10.2708 9.00049 10C9.00049 9.72917 9.09432 9.46841 9.24854 9.29492C9.40275 9.12143 9.60465 9 10.0005 9ZM8.33154 11.8477C8.75828 12.2306 9.32695 12.5 10.0005 12.5C10.6718 12.5 11.2381 12.2313 11.6645 11.8506L13.4644 12.8789C12.6404 13.8705 11.3972 14.5 10.0005 14.5C8.60326 14.5 7.35959 13.8701 6.53564 12.8779L8.33154 11.8477Z" fill="current"/>
</svg>
