<svg width="24" height="24" viewBox="0 0 24 24" fill="none" xmlns="http://www.w3.org/2000/svg">
<path d="M4.5 3.75L19.5 20.25" stroke="#A6A6A6" stroke-width="1.7" stroke-linecap="round" stroke-linejoin="round"/>
<path d="M14.5223 14.7748C13.7864 15.4437 12.8149 15.7929 11.8215 15.7455C10.8281 15.6982 9.89422 15.2582 9.22524 14.5223C8.55626 13.7864 8.20698 12.815 8.25424 11.8216C8.3015 10.8282 8.74142 9.89425 9.47724 9.2252" stroke="#A6A6A6" stroke-width="1.7" stroke-linecap="round" stroke-linejoin="round"/>
<path d="M6.93698 6.43064C3.11486 8.36616 1.5 12 1.5 12C1.5 12 4.5 18.7493 12 18.7493C13.7572 18.7633 15.4926 18.3585 17.0623 17.5685" stroke="#A6A6A6" stroke-width="1.7" stroke-linecap="round" stroke-linejoin="round"/>
<path d="M19.5586 15.8531C21.6025 14.0224 22.5015 12 22.5015 12C22.5015 12 19.5015 5.24926 12.0015 5.24926C11.3519 5.2482 10.7033 5.30101 10.0625 5.40715" stroke="#A6A6A6" stroke-width="1.7" stroke-linecap="round" stroke-linejoin="round"/>
<path d="M12.707 8.31638C13.5041 8.46943 14.23 8.87678 14.7759 9.47732C15.3219 10.0779 15.6584 10.8392 15.735 11.6472" stroke="#A6A6A6" stroke-width="1.7" stroke-linecap="round" stroke-linejoin="round"/>
</svg>
