<svg width="16" height="16" viewBox="0 0 16 16" fill="none" xmlns="http://www.w3.org/2000/svg">
<path d="M9.33331 2V4.66667C9.33331 4.84348 9.40355 5.01305 9.52858 5.13807C9.6536 5.2631 9.82317 5.33333 9.99998 5.33333H12.6666M9.33331 2H4.66665C4.31302 2 3.97389 2.14048 3.72384 2.39052C3.47379 2.64057 3.33331 2.97971 3.33331 3.33333V8.66667M9.33331 2L12.6666 5.33333M12.6666 5.33333V12.6667C12.6666 13.0203 12.5262 13.3594 12.2761 13.6095C12.0261 13.8595 11.6869 14 11.3333 14H7.66665M1.33331 12.6667H5.99998M5.99998 12.6667L3.99998 10.6667M5.99998 12.6667L3.99998 14.6667" stroke="current" stroke-width="1.5" stroke-linecap="round" stroke-linejoin="round"/>
</svg>
