<svg width="24" height="24" viewBox="0 0 24 24" fill="none" xmlns="http://www.w3.org/2000/svg">
<path d="M13.7861 2.49324C13.7473 2.49219 13.7084 2.49414 13.6699 2.4991H5.25C3.74011 2.4991 2.5 3.73922 2.5 5.2491V18.7501C2.5 20.26 3.74011 21.5001 5.25 21.5001H18.75C20.2599 21.5001 21.5 20.26 21.5 18.7501V5.2491C21.5 3.73922 20.2599 2.4991 18.75 2.4991H13.8506C13.8292 2.49622 13.8077 2.49427 13.7861 2.49324ZM5.25 3.9991H11.7549L9.61133 5.87508C9.21343 5.65693 8.76742 5.50008 8.25 5.50008C7.39583 5.50008 6.66024 5.8474 6.18945 6.37703C5.71867 6.90667 5.5 7.58341 5.5 8.25008C5.5 8.91675 5.71867 9.59349 6.18945 10.1231C6.66024 10.6528 7.39583 11.0001 8.25 11.0001C9.10417 11.0001 9.83976 10.6528 10.3105 10.1231C10.7813 9.59349 11 8.91675 11 8.25008C11 7.80194 10.8601 7.36668 10.6523 6.95711L14.0332 3.9991H18.75C19.4491 3.9991 20 4.54999 20 5.2491V18.7501C20 18.809 19.99 18.8654 19.9824 18.922L18.1348 17.0743C18.3537 16.6564 18.5 16.2099 18.5 15.7501C18.5 15.0834 18.2813 14.4067 17.8105 13.877C17.3398 13.3474 16.6042 13.0001 15.75 13.0001C14.8958 13.0001 14.1602 13.3474 13.6895 13.877C13.2187 14.4067 13 15.0834 13 15.7501C13 16.4167 13.2187 17.0935 13.6895 17.6231C14.1602 18.1528 14.8958 18.5001 15.75 18.5001C16.2543 18.5001 16.6925 18.3527 17.084 18.1446L18.9219 19.9825C18.8653 19.9901 18.8089 20.0001 18.75 20.0001H5.25C4.55089 20.0001 4 19.4492 4 18.7501V5.2491C4 4.54999 4.55089 3.9991 5.25 3.9991ZM16.25 5.00008C15.3958 5.00008 14.6602 5.3474 14.1895 5.87703C13.7187 6.40667 13.5 7.08341 13.5 7.75008C13.5 8.21455 13.6133 8.68152 13.8369 9.10262L9.10742 13.8321C8.71577 13.6238 8.25453 13.5001 7.75 13.5001C6.89583 13.5001 6.16024 13.8474 5.68945 14.377C5.21867 14.9067 5 15.5834 5 16.2501C5 16.9167 5.21867 17.5935 5.68945 18.1231C6.16024 18.6528 6.89583 19.0001 7.75 19.0001C8.60417 19.0001 9.33976 18.6528 9.81055 18.1231C10.2813 17.5935 10.5 16.9167 10.5 16.2501C10.5 15.7856 10.3867 15.3186 10.1631 14.8975L14.8926 10.168C15.2842 10.3764 15.7455 10.5001 16.25 10.5001C17.1042 10.5001 17.8398 10.1528 18.3105 9.62313C18.7813 9.09349 19 8.41675 19 7.75008C19 7.08341 18.7813 6.40667 18.3105 5.87703C17.8398 5.3474 17.1042 5.00008 16.25 5.00008ZM16.25 6.50008C16.7292 6.50008 16.9936 6.65276 17.1895 6.87313C17.3853 7.09349 17.5 7.41675 17.5 7.75008C17.5 8.08341 17.3853 8.40667 17.1895 8.62703C16.9936 8.8474 16.7292 9.00008 16.25 9.00008C15.7708 9.00008 15.5064 8.8474 15.3105 8.62703C15.1147 8.40667 15 8.08341 15 7.75008C15 7.41675 15.1147 7.09349 15.3105 6.87313C15.5064 6.65276 15.7708 6.50008 16.25 6.50008ZM8.25 7.00008C8.72917 7.00008 8.99357 7.15276 9.18945 7.37313C9.38533 7.59349 9.5 7.91675 9.5 8.25008C9.5 8.58341 9.38533 8.90667 9.18945 9.12703C8.99357 9.3474 8.72917 9.50008 8.25 9.50008C7.77083 9.50008 7.50643 9.3474 7.31055 9.12703C7.11467 8.90667 7 8.58341 7 8.25008C7 7.91675 7.11467 7.59349 7.31055 7.37313C7.50643 7.15276 7.77083 7.00008 8.25 7.00008ZM15.75 14.5001C16.2292 14.5001 16.4936 14.6528 16.6895 14.8731C16.8853 15.0935 17 15.4167 17 15.7501C17 16.0834 16.8853 16.4067 16.6895 16.627C16.4936 16.8474 16.2292 17.0001 15.75 17.0001C15.2708 17.0001 15.0064 16.8474 14.8105 16.627C14.6147 16.4067 14.5 16.0834 14.5 15.7501C14.5 15.4167 14.6147 15.0935 14.8105 14.8731C15.0064 14.6528 15.2708 14.5001 15.75 14.5001ZM7.75 15.0001C8.22917 15.0001 8.49357 15.1528 8.68945 15.3731C8.88533 15.5935 9 15.9167 9 16.2501C9 16.5834 8.88533 16.9067 8.68945 17.127C8.49357 17.3474 8.22917 17.5001 7.75 17.5001C7.27083 17.5001 7.00643 17.3474 6.81055 17.127C6.61467 16.9067 6.5 16.5834 6.5 16.2501C6.5 15.9167 6.61467 15.5935 6.81055 15.3731C7.00643 15.1528 7.27083 15.0001 7.75 15.0001Z" fill="#A6A6A6"/>
</svg>
