<svg width="24" height="24" viewBox="0 0 24 24" fill="none" xmlns="http://www.w3.org/2000/svg">
<path d="M12 3.75C10.5503 3.75 9.375 4.92525 9.375 6.375C9.375 7.82475 10.5503 9 12 9C13.4497 9 14.625 7.82475 14.625 6.375C14.625 4.92525 13.4497 3.75 12 3.75Z" stroke="#A6A6A6" stroke-width="1.7" stroke-linecap="round" stroke-linejoin="round"/>
<path d="M6.375 15.0002C4.92525 15.0002 3.75 16.1754 3.75 17.6252C3.75 19.0749 4.92525 20.2502 6.375 20.2502C7.82475 20.2502 9 19.0749 9 17.6252C9 16.1754 7.82475 15.0002 6.375 15.0002Z" stroke="#A6A6A6" stroke-width="1.7" stroke-linecap="round" stroke-linejoin="round"/>
<path d="M17.625 15.0002C16.1753 15.0002 15 16.1754 15 17.6252C15 19.0749 16.1753 20.2502 17.625 20.2502C19.0747 20.2502 20.25 19.0749 20.25 17.6252C20.25 16.1754 19.0747 15.0002 17.625 15.0002Z" stroke="#A6A6A6" stroke-width="1.7" stroke-linecap="round" stroke-linejoin="round"/>
<path d="M17.625 15.0002L17.625 14.25C17.625 13.9545 17.5668 13.6619 17.4537 13.3889C17.3406 13.116 17.1749 12.8679 16.966 12.659C16.757 12.4501 16.509 12.2843 16.236 12.1713C15.963 12.0582 15.6704 12 15.375 12L8.62495 12.0001C8.02822 12.0001 7.45594 12.2372 7.03399 12.6592C6.61205 13.0811 6.375 13.6534 6.375 14.2501L6.375 15.0002" stroke="#A6A6A6" stroke-width="1.7" stroke-linecap="round" stroke-linejoin="round"/>
<path d="M11.9997 12L12 9" stroke="#A6A6A6" stroke-width="1.7" stroke-linecap="round" stroke-linejoin="round"/>
</svg>
