<svg width="25" height="24" viewBox="0 0 25 24" fill="none" xmlns="http://www.w3.org/2000/svg">
<path d="M7.03564 9.375H3.28564C2.87143 9.375 2.53564 9.71079 2.53564 10.125V13.875C2.53564 14.2892 2.87143 14.625 3.28564 14.625H7.03564C7.44986 14.625 7.78564 14.2892 7.78564 13.875V10.125C7.78564 9.71079 7.44986 9.375 7.03564 9.375Z" stroke="#0F6FFF" stroke-width="1.7" stroke-linecap="round" stroke-linejoin="round"/>
<path d="M20.5356 3.75H16.0356C15.6214 3.75 15.2856 4.08579 15.2856 4.5V9C15.2856 9.41421 15.6214 9.75 16.0356 9.75H20.5356C20.9499 9.75 21.2856 9.41421 21.2856 9V4.5C21.2856 4.08579 20.9499 3.75 20.5356 3.75Z" stroke="#0F6FFF" stroke-width="1.7" stroke-linecap="round" stroke-linejoin="round"/>
<path d="M20.5356 14.25H16.0356C15.6214 14.25 15.2856 14.5858 15.2856 15V19.5C15.2856 19.9142 15.6214 20.25 16.0356 20.25H20.5356C20.9499 20.25 21.2856 19.9142 21.2856 19.5V15C21.2856 14.5858 20.9499 14.25 20.5356 14.25Z" stroke="#0F6FFF" stroke-width="1.7" stroke-linecap="round" stroke-linejoin="round"/>
<path d="M7.78564 12H11.5356" stroke="#0F6FFF" stroke-width="1.7" stroke-linecap="round" stroke-linejoin="round"/>
<path d="M15.2856 17.25H13.7856C13.1889 17.25 12.6166 17.0129 12.1947 16.591C11.7727 16.169 11.5356 15.5967 11.5356 15V9C11.5356 8.40326 11.7727 7.83097 12.1947 7.40901C12.6166 6.98705 13.1889 6.75 13.7856 6.75H15.2856" stroke="#0F6FFF" stroke-width="1.7" stroke-linecap="round" stroke-linejoin="round"/>
</svg>
