<svg width="21" height="19" viewBox="0 0 21 19" fill="none" xmlns="http://www.w3.org/2000/svg">
<path d="M16.75 1H9.25C9.04289 1 8.875 1.16789 8.875 1.375V8.875C8.875 9.08211 9.04289 9.25 9.25 9.25H16.75C16.9571 9.25 17.125 9.08211 17.125 8.875V1.375C17.125 1.16789 16.9571 1 16.75 1Z" stroke="#0F6FFF" stroke-width="1.7" stroke-linecap="round" stroke-linejoin="round"/>
<path d="M4.125 16.25C4.74632 16.25 5.25 15.7463 5.25 15.125C5.25 14.5037 4.74632 14 4.125 14C3.50368 14 3 14.5037 3 15.125C3 15.7463 3.50368 16.25 4.125 16.25Z" fill="#0F6FFF"/>
<path d="M8.125 16.25C8.74632 16.25 9.25 15.7463 9.25 15.125C9.25 14.5037 8.74632 14 8.125 14C7.50368 14 7 14.5037 7 15.125C7 15.7463 7.50368 16.25 8.125 16.25Z" fill="#0F6FFF"/>
<path d="M12.125 16.25C12.7463 16.25 13.25 15.7463 13.25 15.125C13.25 14.5037 12.7463 14 12.125 14C11.5037 14 11 14.5037 11 15.125C11 15.7463 11.5037 16.25 12.125 16.25Z" fill="#0F6FFF"/>
<path d="M16.125 16.25C16.7463 16.25 17.25 15.7463 17.25 15.125C17.25 14.5037 16.7463 14 16.125 14C15.5037 14 15 14.5037 15 15.125C15 15.7463 15.5037 16.25 16.125 16.25Z" fill="#0F6FFF"/>
<path d="M0 12H17C18.6569 12 20 13.3431 20 15V15C20 16.6569 18.6569 18 17 18H0" stroke="#0F6FFF" stroke-width="1.7" stroke-dasharray="2 1"/>
<line x1="11.5" y1="3.5" x2="14.5" y2="3.5" stroke="#0F6FFF" stroke-linecap="round"/>
</svg>
