<svg width="16" height="16" viewBox="0 0 16 16" fill="none" xmlns="http://www.w3.org/2000/svg">
<path d="M9.33333 5.33317V3.99984C9.33333 3.64622 9.19286 3.30708 8.94281 3.05703C8.69276 2.80698 8.35362 2.6665 8 2.6665H3.33333C2.97971 2.6665 2.64057 2.80698 2.39052 3.05703C2.14048 3.30708 2 3.64622 2 3.99984V11.9998C2 12.3535 2.14048 12.6926 2.39052 12.9426C2.64057 13.1927 2.97971 13.3332 3.33333 13.3332H8C8.35362 13.3332 8.69276 13.1927 8.94281 12.9426C9.19286 12.6926 9.33333 12.3535 9.33333 11.9998V10.6665M4.66667 7.99984H14M14 7.99984L12 5.99984M14 7.99984L12 9.99984" stroke="#CE2C31" stroke-width="1.5" stroke-linecap="round" stroke-linejoin="round"/>
</svg>
