<svg width="24" height="24" viewBox="0 0 24 24" fill="none" xmlns="http://www.w3.org/2000/svg">
<path d="M5.26855 9.75002C5.26731 8.86053 5.44213 7.97958 5.78294 7.15797C6.12375 6.33636 6.62381 5.59033 7.25429 4.96288C7.88476 4.33543 8.6332 3.83897 9.45644 3.50211C10.2797 3.16526 11.1615 2.99468 12.0509 3.00021C15.7625 3.0278 18.7312 6.11283 18.7312 9.83475V10.5C18.7312 13.8577 19.4337 15.8062 20.0524 16.8711C20.1191 16.9849 20.1546 17.1142 20.1553 17.2461C20.156 17.378 20.1219 17.5077 20.0565 17.6222C19.991 17.7367 19.8966 17.8319 19.7826 17.8982C19.6686 17.9646 19.5392 17.9997 19.4073 18H4.59173C4.45985 17.9997 4.33038 17.9646 4.2164 17.8982C4.10242 17.8319 4.00795 17.7366 3.94252 17.6221C3.8771 17.5076 3.84303 17.3779 3.84376 17.246C3.84449 17.1141 3.87999 16.9847 3.94667 16.8709C4.56573 15.806 5.26855 13.8576 5.26855 10.5L5.26855 9.75002Z" stroke="#A6A6A6" stroke-width="1.7" stroke-linecap="round" stroke-linejoin="round"/>
<path d="M9 18V18.75C9 19.5456 9.31607 20.3087 9.87868 20.8713C10.4413 21.4339 11.2044 21.75 12 21.75C12.7956 21.75 13.5587 21.4339 14.1213 20.8713C14.6839 20.3087 15 19.5456 15 18.75V18" stroke="#A6A6A6" stroke-width="1.7" stroke-linecap="round" stroke-linejoin="round"/>
<circle cx="16.125" cy="4.875" r="3.375" fill="#0084FF" stroke="#A6A6A6" stroke-width="1.7"/>
</svg>
