<svg width="24" height="24" viewBox="0 0 24 24" fill="none" xmlns="http://www.w3.org/2000/svg">
<path d="M16.1301 6.16001C16.1311 6.02671 16.0966 5.89554 16.0301 5.78001C15.9645 5.66589 15.8717 5.56971 15.7601 5.50001C15.6468 5.43681 15.5197 5.40247 15.3901 5.40001C15.2534 5.39768 15.1187 5.43223 15.0001 5.50001C14.8877 5.57216 14.7922 5.66766 14.7201 5.78001L12.0001 10.5C11.7355 10.4998 11.476 10.5725 11.2501 10.71C11.0228 10.839 10.8332 11.0252 10.7001 11.25C10.57 11.4787 10.5012 11.737 10.5001 12C10.4988 12.2634 10.5679 12.5223 10.7001 12.75L10.1101 13.75C10.0621 13.8375 10.0283 13.932 10.0101 14.03C9.99013 14.129 9.99013 14.231 10.0101 14.33C10.0328 14.4286 10.0772 14.5208 10.1401 14.6C10.2015 14.6759 10.276 14.7403 10.3601 14.79C10.4468 14.8395 10.5416 14.8734 10.6401 14.89C10.7391 14.9097 10.841 14.9097 10.9401 14.89C11.0361 14.8648 11.1257 14.8197 11.2032 14.7577C11.2807 14.6957 11.3444 14.6181 11.3901 14.53L11.9801 13.53C12.2437 13.5338 12.5033 13.4646 12.7301 13.33C12.9664 13.1984 13.1628 13.0053 13.2983 12.7711C13.4339 12.537 13.5036 12.2705 13.5001 12C13.5013 11.7367 13.4323 11.4778 13.3001 11.25L16.0001 6.53001C16.0778 6.42159 16.1229 6.29321 16.1301 6.16001ZM16.1301 6.16001C16.1311 6.02671 16.0966 5.89554 16.0301 5.78001C15.9645 5.66589 15.8717 5.56971 15.7601 5.50001C15.6468 5.43681 15.5197 5.40247 15.3901 5.40001C15.2534 5.39768 15.1187 5.43223 15.0001 5.50001C14.8877 5.57216 14.7922 5.66766 14.7201 5.78001L12.0001 10.5C11.7355 10.4998 11.476 10.5725 11.2501 10.71C11.0228 10.839 10.8332 11.0252 10.7001 11.25C10.57 11.4787 10.5012 11.737 10.5001 12C10.4988 12.2634 10.5679 12.5223 10.7001 12.75L10.1101 13.75C10.0621 13.8375 10.0283 13.932 10.0101 14.03C9.99013 14.129 9.99013 14.231 10.0101 14.33C10.0328 14.4286 10.0772 14.5208 10.1401 14.6C10.2015 14.6759 10.276 14.7403 10.3601 14.79C10.4468 14.8395 10.5416 14.8734 10.6401 14.89C10.7391 14.9097 10.841 14.9097 10.9401 14.89C11.0361 14.8648 11.1257 14.8197 11.2032 14.7577C11.2807 14.6957 11.3444 14.6181 11.3901 14.53L11.9801 13.53C12.2437 13.5338 12.5033 13.4646 12.7301 13.33C12.9664 13.1984 13.1628 13.0053 13.2983 12.7711C13.4339 12.537 13.5036 12.2705 13.5001 12C13.5013 11.7367 13.4323 11.4778 13.3001 11.25L16.0001 6.53001C16.0778 6.42159 16.1229 6.29321 16.1301 6.16001ZM16.1301 6.16001C16.1311 6.02671 16.0966 5.89554 16.0301 5.78001C15.9645 5.66589 15.8717 5.56971 15.7601 5.50001C15.6468 5.43681 15.5197 5.40247 15.3901 5.40001C15.2534 5.39768 15.1187 5.43223 15.0001 5.50001C14.8877 5.57216 14.7922 5.66766 14.7201 5.78001L12.0001 10.5C11.7355 10.4998 11.476 10.5725 11.2501 10.71C11.0228 10.839 10.8332 11.0252 10.7001 11.25C10.57 11.4787 10.5012 11.737 10.5001 12C10.4988 12.2634 10.5679 12.5223 10.7001 12.75L10.1101 13.75C10.0621 13.8375 10.0283 13.932 10.0101 14.03C9.99013 14.129 9.99013 14.231 10.0101 14.33C10.0328 14.4286 10.0772 14.5208 10.1401 14.6C10.2015 14.6759 10.276 14.7403 10.3601 14.79C10.4468 14.8395 10.5416 14.8734 10.6401 14.89C10.7391 14.9097 10.841 14.9097 10.9401 14.89C11.0361 14.8648 11.1257 14.8197 11.2032 14.7577C11.2807 14.6957 11.3444 14.6181 11.3901 14.53L11.9801 13.53C12.2437 13.5338 12.5033 13.4646 12.7301 13.33C12.9664 13.1984 13.1628 13.0053 13.2983 12.7711C13.4339 12.537 13.5036 12.2705 13.5001 12C13.5013 11.7367 13.4323 11.4778 13.3001 11.25L16.0001 6.53001C16.0778 6.42159 16.1229 6.29321 16.1301 6.16001ZM16.1301 6.16001C16.1311 6.02671 16.0966 5.89554 16.0301 5.78001C15.9645 5.66589 15.8717 5.56971 15.7601 5.50001C15.6468 5.43681 15.5197 5.40247 15.3901 5.40001C15.2534 5.39768 15.1187 5.43223 15.0001 5.50001C14.8877 5.57216 14.7922 5.66766 14.7201 5.78001L12.0001 10.5C11.7355 10.4998 11.476 10.5725 11.2501 10.71C11.0228 10.839 10.8332 11.0252 10.7001 11.25C10.57 11.4787 10.5012 11.737 10.5001 12C10.4988 12.2634 10.5679 12.5223 10.7001 12.75L10.1101 13.75C10.0621 13.8375 10.0283 13.932 10.0101 14.03C9.99013 14.129 9.99013 14.231 10.0101 14.33C10.0328 14.4286 10.0772 14.5208 10.1401 14.6C10.2015 14.6759 10.276 14.7403 10.3601 14.79C10.4468 14.8395 10.5416 14.8734 10.6401 14.89C10.7391 14.9097 10.841 14.9097 10.9401 14.89C11.0361 14.8648 11.1257 14.8197 11.2032 14.7577C11.2807 14.6957 11.3444 14.6181 11.3901 14.53L11.9801 13.53C12.2437 13.5338 12.5033 13.4646 12.7301 13.33C12.9664 13.1984 13.1628 13.0053 13.2983 12.7711C13.4339 12.537 13.5036 12.2705 13.5001 12C13.5013 11.7367 13.4323 11.4778 13.3001 11.25L16.0001 6.53001C16.0778 6.42159 16.1229 6.29321 16.1301 6.16001ZM16.1301 6.16001C16.1311 6.02671 16.0966 5.89554 16.0301 5.78001C15.9645 5.66589 15.8717 5.56971 15.7601 5.50001C15.6468 5.43681 15.5197 5.40247 15.3901 5.40001C15.2534 5.39768 15.1187 5.43223 15.0001 5.50001C14.8877 5.57216 14.7922 5.66766 14.7201 5.78001L12.0001 10.5C11.7355 10.4998 11.476 10.5725 11.2501 10.71C11.0228 10.839 10.8332 11.0252 10.7001 11.25C10.57 11.4787 10.5012 11.737 10.5001 12C10.4988 12.2634 10.5679 12.5223 10.7001 12.75L10.1101 13.75C10.0621 13.8375 10.0283 13.932 10.0101 14.03C9.99013 14.129 9.99013 14.231 10.0101 14.33C10.0328 14.4286 10.0772 14.5208 10.1401 14.6C10.2015 14.6759 10.276 14.7403 10.3601 14.79C10.4468 14.8395 10.5416 14.8734 10.6401 14.89C10.7391 14.9097 10.841 14.9097 10.9401 14.89C11.0361 14.8648 11.1257 14.8197 11.2032 14.7577C11.2807 14.6957 11.3444 14.6181 11.3901 14.53L11.9801 13.53C12.2437 13.5338 12.5033 13.4646 12.7301 13.33C12.9664 13.1984 13.1628 13.0053 13.2983 12.7711C13.4339 12.537 13.5036 12.2705 13.5001 12C13.5013 11.7367 13.4323 11.4778 13.3001 11.25L16.0001 6.53001C16.0778 6.42159 16.1229 6.29321 16.1301 6.16001ZM16.1301 6.16001C16.1311 6.02671 16.0966 5.89554 16.0301 5.78001C15.9645 5.66589 15.8717 5.56971 15.7601 5.50001C15.6468 5.43681 15.5197 5.40247 15.3901 5.40001C15.2534 5.39768 15.1187 5.43223 15.0001 5.50001C14.8877 5.57216 14.7922 5.66766 14.7201 5.78001L12.0001 10.5C11.7355 10.4998 11.476 10.5725 11.2501 10.71C11.0228 10.839 10.8332 11.0252 10.7001 11.25C10.57 11.4787 10.5012 11.737 10.5001 12C10.4988 12.2634 10.5679 12.5223 10.7001 12.75L10.1101 13.75C10.0621 13.8375 10.0283 13.932 10.0101 14.03C9.99013 14.129 9.99013 14.231 10.0101 14.33C10.0328 14.4286 10.0772 14.5208 10.1401 14.6C10.2015 14.6759 10.276 14.7403 10.3601 14.79C10.4468 14.8395 10.5416 14.8734 10.6401 14.89C10.7391 14.9097 10.841 14.9097 10.9401 14.89C11.0361 14.8648 11.1257 14.8197 11.2032 14.7577C11.2807 14.6957 11.3444 14.6181 11.3901 14.53L11.9801 13.53C12.2437 13.5338 12.5033 13.4646 12.7301 13.33C12.9664 13.1984 13.1628 13.0053 13.2983 12.7711C13.4339 12.537 13.5036 12.2705 13.5001 12C13.5013 11.7367 13.4323 11.4778 13.3001 11.25L16.0001 6.53001C16.0778 6.42159 16.1229 6.29321 16.1301 6.16001ZM16.1301 6.16001C16.1311 6.02671 16.0966 5.89554 16.0301 5.78001C15.9645 5.66589 15.8717 5.56971 15.7601 5.50001C15.6468 5.43681 15.5197 5.40247 15.3901 5.40001C15.2534 5.39768 15.1187 5.43223 15.0001 5.50001C14.8877 5.57216 14.7922 5.66766 14.7201 5.78001L12.0001 10.5C11.7355 10.4998 11.476 10.5725 11.2501 10.71C11.0228 10.839 10.8332 11.0252 10.7001 11.25C10.57 11.4787 10.5012 11.737 10.5001 12C10.4988 12.2634 10.5679 12.5223 10.7001 12.75L10.1101 13.75C10.0621 13.8375 10.0283 13.932 10.0101 14.03C9.99013 14.129 9.99013 14.231 10.0101 14.33C10.0328 14.4286 10.0772 14.5208 10.1401 14.6C10.2015 14.6759 10.276 14.7403 10.3601 14.79C10.4468 14.8395 10.5416 14.8734 10.6401 14.89C10.7391 14.9097 10.841 14.9097 10.9401 14.89C11.0361 14.8648 11.1257 14.8197 11.2032 14.7577C11.2807 14.6957 11.3444 14.6181 11.3901 14.53L11.9801 13.53C12.2437 13.5338 12.5033 13.4646 12.7301 13.33C12.9664 13.1984 13.1628 13.0053 13.2983 12.7711C13.4339 12.537 13.5036 12.2705 13.5001 12C13.5013 11.7367 13.4323 11.4778 13.3001 11.25L16.0001 6.53001C16.0778 6.42159 16.1229 6.29321 16.1301 6.16001ZM16.1301 6.16001C16.1311 6.02671 16.0966 5.89554 16.0301 5.78001C15.9645 5.66589 15.8717 5.56971 15.7601 5.50001C15.6468 5.43681 15.5197 5.40247 15.3901 5.40001C15.2534 5.39768 15.1187 5.43223 15.0001 5.50001C14.8877 5.57216 14.7922 5.66766 14.7201 5.78001L12.0001 10.5C11.7355 10.4998 11.476 10.5725 11.2501 10.71C11.0228 10.839 10.8332 11.0252 10.7001 11.25C10.57 11.4787 10.5012 11.737 10.5001 12C10.4988 12.2634 10.5679 12.5223 10.7001 12.75L10.1101 13.75C10.0621 13.8375 10.0283 13.932 10.0101 14.03C9.99013 14.129 9.99013 14.231 10.0101 14.33C10.0328 14.4286 10.0772 14.5208 10.1401 14.6C10.2015 14.6759 10.276 14.7403 10.3601 14.79C10.4468 14.8395 10.5416 14.8734 10.6401 14.89C10.7391 14.9097 10.841 14.9097 10.9401 14.89C11.0361 14.8648 11.1257 14.8197 11.2032 14.7577C11.2807 14.6957 11.3444 14.6181 11.3901 14.53L11.9801 13.53C12.2437 13.5338 12.5033 13.4646 12.7301 13.33C12.9664 13.1984 13.1628 13.0053 13.2983 12.7711C13.4339 12.537 13.5036 12.2705 13.5001 12C13.5013 11.7367 13.4323 11.4778 13.3001 11.25L16.0001 6.53001C16.0778 6.42159 16.1229 6.29321 16.1301 6.16001ZM16.1301 6.16001C16.1311 6.02671 16.0966 5.89554 16.0301 5.78001C15.9645 5.66589 15.8717 5.56971 15.7601 5.50001C15.6468 5.43681 15.5197 5.40247 15.3901 5.40001C15.2534 5.39768 15.1187 5.43223 15.0001 5.50001C14.8877 5.57216 14.7922 5.66766 14.7201 5.78001L12.0001 10.5C11.7355 10.4998 11.476 10.5725 11.2501 10.71C11.0228 10.839 10.8332 11.0252 10.7001 11.25C10.57 11.4787 10.5012 11.737 10.5001 12C10.4988 12.2634 10.5679 12.5223 10.7001 12.75L10.1101 13.75C10.0621 13.8375 10.0283 13.932 10.0101 14.03C9.99013 14.129 9.99013 14.231 10.0101 14.33C10.0328 14.4286 10.0772 14.5208 10.1401 14.6C10.2015 14.6759 10.276 14.7403 10.3601 14.79C10.4468 14.8395 10.5416 14.8734 10.6401 14.89C10.7391 14.9097 10.841 14.9097 10.9401 14.89C11.0361 14.8648 11.1257 14.8197 11.2032 14.7577C11.2807 14.6957 11.3444 14.6181 11.3901 14.53L11.9801 13.53C12.2437 13.5338 12.5033 13.4646 12.7301 13.33C12.9664 13.1984 13.1628 13.0053 13.2983 12.7711C13.4339 12.537 13.5036 12.2705 13.5001 12C13.5013 11.7367 13.4323 11.4778 13.3001 11.25L16.0001 6.53001C16.0778 6.42159 16.1229 6.29321 16.1301 6.16001ZM16.1301 6.16001C16.1311 6.02671 16.0966 5.89554 16.0301 5.78001C15.9645 5.66589 15.8717 5.56971 15.7601 5.50001C15.6468 5.43681 15.5197 5.40247 15.3901 5.40001C15.2534 5.39768 15.1187 5.43223 15.0001 5.50001C14.8877 5.57216 14.7922 5.66766 14.7201 5.78001L12.0001 10.5C11.7355 10.4998 11.476 10.5725 11.2501 10.71C11.0228 10.839 10.8332 11.0252 10.7001 11.25C10.57 11.4787 10.5012 11.737 10.5001 12C10.4988 12.2634 10.5679 12.5223 10.7001 12.75L10.1101 13.75C10.0621 13.8375 10.0283 13.932 10.0101 14.03C9.99013 14.129 9.99013 14.231 10.0101 14.33C10.0328 14.4286 10.0772 14.5208 10.1401 14.6C10.2015 14.6759 10.276 14.7403 10.3601 14.79C10.4468 14.8395 10.5416 14.8734 10.6401 14.89C10.7391 14.9097 10.841 14.9097 10.9401 14.89C11.0361 14.8648 11.1257 14.8197 11.2032 14.7577C11.2807 14.6957 11.3444 14.6181 11.3901 14.53L11.9801 13.53C12.2437 13.5338 12.5033 13.4646 12.7301 13.33C12.9664 13.1984 13.1628 13.0053 13.2983 12.7711C13.4339 12.537 13.5036 12.2705 13.5001 12C13.5013 11.7367 13.4323 11.4778 13.3001 11.25L16.0001 6.53001C16.0778 6.42159 16.1229 6.29321 16.1301 6.16001ZM15.7601 5.50001C15.6468 5.43681 15.5197 5.40247 15.3901 5.40001C15.2534 5.39768 15.1187 5.43223 15.0001 5.50001C14.8877 5.57216 14.7922 5.66766 14.7201 5.78001L12.0001 10.5C11.7355 10.4998 11.476 10.5725 11.2501 10.71C11.0228 10.839 10.8332 11.0252 10.7001 11.25C10.57 11.4787 10.5012 11.737 10.5001 12C10.4988 12.2634 10.5679 12.5223 10.7001 12.75L10.1101 13.75C10.0621 13.8375 10.0283 13.932 10.0101 14.03C9.99013 14.129 9.99013 14.231 10.0101 14.33C10.0328 14.4286 10.0772 14.5208 10.1401 14.6C10.2015 14.6759 10.276 14.7403 10.3601 14.79C10.4468 14.8395 10.5416 14.8734 10.6401 14.89C10.7391 14.9097 10.841 14.9097 10.9401 14.89C11.0361 14.8648 11.1257 14.8197 11.2032 14.7577C11.2807 14.6957 11.3444 14.6181 11.3901 14.53L11.9801 13.53C12.2437 13.5338 12.5033 13.4646 12.7301 13.33C12.9664 13.1984 13.1628 13.0053 13.2983 12.7711C13.4339 12.537 13.5036 12.2705 13.5001 12C13.5013 11.7367 13.4323 11.4778 13.3001 11.25L16.0001 6.53001C16.0707 6.41943 16.1088 6.29122 16.1101 6.16001C16.1111 6.02671 16.0766 5.89554 16.0101 5.78001C15.9501 5.66817 15.8644 5.5722 15.7601 5.50001ZM16.1301 6.16001C16.1311 6.02671 16.0966 5.89554 16.0301 5.78001C15.9645 5.66589 15.8717 5.56971 15.7601 5.50001C15.6468 5.43681 15.5197 5.40247 15.3901 5.40001C15.2534 5.39768 15.1187 5.43223 15.0001 5.50001C14.8877 5.57216 14.7922 5.66766 14.7201 5.78001L12.0001 10.5C11.7355 10.4998 11.476 10.5725 11.2501 10.71C11.0228 10.839 10.8332 11.0252 10.7001 11.25C10.57 11.4787 10.5012 11.737 10.5001 12C10.4988 12.2634 10.5679 12.5223 10.7001 12.75L10.1101 13.75C10.0621 13.8375 10.0283 13.932 10.0101 14.03C9.99013 14.129 9.99013 14.231 10.0101 14.33C10.0328 14.4286 10.0772 14.5208 10.1401 14.6C10.2015 14.6759 10.276 14.7403 10.3601 14.79C10.4468 14.8395 10.5416 14.8734 10.6401 14.89C10.7391 14.9097 10.841 14.9097 10.9401 14.89C11.0361 14.8648 11.1257 14.8197 11.2032 14.7577C11.2807 14.6957 11.3444 14.6181 11.3901 14.53L11.9801 13.53C12.2437 13.5338 12.5033 13.4646 12.7301 13.33C12.9664 13.1984 13.1628 13.0053 13.2983 12.7711C13.4339 12.537 13.5036 12.2705 13.5001 12C13.5013 11.7367 13.4323 11.4778 13.3001 11.25L16.0001 6.53001C16.0778 6.42159 16.1229 6.29321 16.1301 6.16001ZM16.1301 6.16001C16.1311 6.02671 16.0966 5.89554 16.0301 5.78001C15.9645 5.66589 15.8717 5.56971 15.7601 5.50001C15.6468 5.43681 15.5197 5.40247 15.3901 5.40001C15.2534 5.39768 15.1187 5.43223 15.0001 5.50001C14.8877 5.57216 14.7922 5.66766 14.7201 5.78001L12.0001 10.5C11.7355 10.4998 11.476 10.5725 11.2501 10.71C11.0228 10.839 10.8332 11.0252 10.7001 11.25C10.57 11.4787 10.5012 11.737 10.5001 12C10.4988 12.2634 10.5679 12.5223 10.7001 12.75L10.1101 13.75C10.0621 13.8375 10.0283 13.932 10.0101 14.03C9.99013 14.129 9.99013 14.231 10.0101 14.33C10.0328 14.4286 10.0772 14.5208 10.1401 14.6C10.2015 14.6759 10.276 14.7403 10.3601 14.79C10.4468 14.8395 10.5416 14.8734 10.6401 14.89C10.7391 14.9097 10.841 14.9097 10.9401 14.89C11.0361 14.8648 11.1257 14.8197 11.2032 14.7577C11.2807 14.6957 11.3444 14.6181 11.3901 14.53L11.9801 13.53C12.2437 13.5338 12.5033 13.4646 12.7301 13.33C12.9664 13.1984 13.1628 13.0053 13.2983 12.7711C13.4339 12.537 13.5036 12.2705 13.5001 12C13.5013 11.7367 13.4323 11.4778 13.3001 11.25L16.0001 6.53001C16.0778 6.42159 16.1229 6.29321 16.1301 6.16001ZM16.1301 6.16001C16.1311 6.02671 16.0966 5.89554 16.0301 5.78001C15.9645 5.66589 15.8717 5.56971 15.7601 5.50001C15.6468 5.43681 15.5197 5.40247 15.3901 5.40001C15.2534 5.39768 15.1187 5.43223 15.0001 5.50001C14.8877 5.57216 14.7922 5.66766 14.7201 5.78001L12.0001 10.5C11.7355 10.4998 11.476 10.5725 11.2501 10.71C11.0228 10.839 10.8332 11.0252 10.7001 11.25C10.57 11.4787 10.5012 11.737 10.5001 12C10.4988 12.2634 10.5679 12.5223 10.7001 12.75L10.1101 13.75C10.0621 13.8375 10.0283 13.932 10.0101 14.03C9.99013 14.129 9.99013 14.231 10.0101 14.33C10.0328 14.4286 10.0772 14.5208 10.1401 14.6C10.2015 14.6759 10.276 14.7403 10.3601 14.79C10.4468 14.8395 10.5416 14.8734 10.6401 14.89C10.7391 14.9097 10.841 14.9097 10.9401 14.89C11.0361 14.8648 11.1257 14.8197 11.2032 14.7577C11.2807 14.6957 11.3444 14.6181 11.3901 14.53L11.9801 13.53C12.2437 13.5338 12.5033 13.4646 12.7301 13.33C12.9664 13.1984 13.1628 13.0053 13.2983 12.7711C13.4339 12.537 13.5036 12.2705 13.5001 12C13.5013 11.7367 13.4323 11.4778 13.3001 11.25L16.0001 6.53001C16.0778 6.42159 16.1229 6.29321 16.1301 6.16001ZM16.1301 6.16001C16.1311 6.02671 16.0966 5.89554 16.0301 5.78001C15.9645 5.66589 15.8717 5.56971 15.7601 5.50001C15.6468 5.43681 15.5197 5.40247 15.3901 5.40001C15.2534 5.39768 15.1187 5.43223 15.0001 5.50001C14.8877 5.57216 14.7922 5.66766 14.7201 5.78001L12.0001 10.5C11.7355 10.4998 11.476 10.5725 11.2501 10.71C11.0228 10.839 10.8332 11.0252 10.7001 11.25C10.57 11.4787 10.5012 11.737 10.5001 12C10.4988 12.2634 10.5679 12.5223 10.7001 12.75L10.1101 13.75C10.0621 13.8375 10.0283 13.932 10.0101 14.03C9.99013 14.129 9.99013 14.231 10.0101 14.33C10.0328 14.4286 10.0772 14.5208 10.1401 14.6C10.2015 14.6759 10.276 14.7403 10.3601 14.79C10.4468 14.8395 10.5416 14.8734 10.6401 14.89C10.7391 14.9097 10.841 14.9097 10.9401 14.89C11.0361 14.8648 11.1257 14.8197 11.2032 14.7577C11.2807 14.6957 11.3444 14.6181 11.3901 14.53L11.9801 13.53C12.2437 13.5338 12.5033 13.4646 12.7301 13.33C12.9664 13.1984 13.1628 13.0053 13.2983 12.7711C13.4339 12.537 13.5036 12.2705 13.5001 12C13.5013 11.7367 13.4323 11.4778 13.3001 11.25L16.0001 6.53001C16.0778 6.42159 16.1229 6.29321 16.1301 6.16001ZM16.1301 6.16001C16.1311 6.02671 16.0966 5.89554 16.0301 5.78001C15.9645 5.66589 15.8717 5.56971 15.7601 5.50001C15.6468 5.43681 15.5197 5.40247 15.3901 5.40001C15.2534 5.39768 15.1187 5.43223 15.0001 5.50001C14.8877 5.57216 14.7922 5.66766 14.7201 5.78001L12.0001 10.5C11.7355 10.4998 11.476 10.5725 11.2501 10.71C11.0228 10.839 10.8332 11.0252 10.7001 11.25C10.57 11.4787 10.5012 11.737 10.5001 12C10.4988 12.2634 10.5679 12.5223 10.7001 12.75L10.1101 13.75C10.0621 13.8375 10.0283 13.932 10.0101 14.03C9.99013 14.129 9.99013 14.231 10.0101 14.33C10.0328 14.4286 10.0772 14.5208 10.1401 14.6C10.2015 14.6759 10.276 14.7403 10.3601 14.79C10.4468 14.8395 10.5416 14.8734 10.6401 14.89C10.7391 14.9097 10.841 14.9097 10.9401 14.89C11.0361 14.8648 11.1257 14.8197 11.2032 14.7577C11.2807 14.6957 11.3444 14.6181 11.3901 14.53L11.9801 13.53C12.2437 13.5338 12.5033 13.4646 12.7301 13.33C12.9664 13.1984 13.1628 13.0053 13.2983 12.7711C13.4339 12.537 13.5036 12.2705 13.5001 12C13.5013 11.7367 13.4323 11.4778 13.3001 11.25L16.0001 6.53001C16.0778 6.42159 16.1229 6.29321 16.1301 6.16001ZM16.1301 6.16001C16.1311 6.02671 16.0966 5.89554 16.0301 5.78001C15.9645 5.66589 15.8717 5.56971 15.7601 5.50001C15.6468 5.43681 15.5197 5.40247 15.3901 5.40001C15.2534 5.39768 15.1187 5.43223 15.0001 5.50001C14.8877 5.57216 14.7922 5.66766 14.7201 5.78001L12.0001 10.5C11.7355 10.4998 11.476 10.5725 11.2501 10.71C11.0228 10.839 10.8332 11.0252 10.7001 11.25C10.57 11.4787 10.5012 11.737 10.5001 12C10.4988 12.2634 10.5679 12.5223 10.7001 12.75L10.1101 13.75C10.0621 13.8375 10.0283 13.932 10.0101 14.03C9.99013 14.129 9.99013 14.231 10.0101 14.33C10.0328 14.4286 10.0772 14.5208 10.1401 14.6C10.2015 14.6759 10.276 14.7403 10.3601 14.79C10.4468 14.8395 10.5416 14.8734 10.6401 14.89C10.7391 14.9097 10.841 14.9097 10.9401 14.89C11.0361 14.8648 11.1257 14.8197 11.2032 14.7577C11.2807 14.6957 11.3444 14.6181 11.3901 14.53L11.9801 13.53C12.2437 13.5338 12.5033 13.4646 12.7301 13.33C12.9664 13.1984 13.1628 13.0053 13.2983 12.7711C13.4339 12.537 13.5036 12.2705 13.5001 12C13.5013 11.7367 13.4323 11.4778 13.3001 11.25L16.0001 6.53001C16.0778 6.42159 16.1229 6.29321 16.1301 6.16001ZM16.1301 6.16001C16.1311 6.02671 16.0966 5.89554 16.0301 5.78001C15.9645 5.66589 15.8717 5.56971 15.7601 5.50001C15.6468 5.43681 15.5197 5.40247 15.3901 5.40001C15.2534 5.39768 15.1187 5.43223 15.0001 5.50001C14.8877 5.57216 14.7922 5.66766 14.7201 5.78001L12.0001 10.5C11.7355 10.4998 11.476 10.5725 11.2501 10.71C11.0228 10.839 10.8332 11.0252 10.7001 11.25C10.57 11.4787 10.5012 11.737 10.5001 12C10.4988 12.2634 10.5679 12.5223 10.7001 12.75L10.1101 13.75C10.0621 13.8375 10.0283 13.932 10.0101 14.03C9.99013 14.129 9.99013 14.231 10.0101 14.33C10.0328 14.4286 10.0772 14.5208 10.1401 14.6C10.2015 14.6759 10.276 14.7403 10.3601 14.79C10.4468 14.8395 10.5416 14.8734 10.6401 14.89C10.7391 14.9097 10.841 14.9097 10.9401 14.89C11.0361 14.8648 11.1257 14.8197 11.2032 14.7577C11.2807 14.6957 11.3444 14.6181 11.3901 14.53L11.9801 13.53C12.2437 13.5338 12.5033 13.4646 12.7301 13.33C12.9664 13.1984 13.1628 13.0053 13.2983 12.7711C13.4339 12.537 13.5036 12.2705 13.5001 12C13.5013 11.7367 13.4323 11.4778 13.3001 11.25L16.0001 6.53001C16.0778 6.42159 16.1229 6.29321 16.1301 6.16001ZM16.1301 6.16001C16.1311 6.02671 16.0966 5.89554 16.0301 5.78001C15.9645 5.66589 15.8717 5.56971 15.7601 5.50001C15.6468 5.43681 15.5197 5.40247 15.3901 5.40001C15.2534 5.39768 15.1187 5.43223 15.0001 5.50001C14.8877 5.57216 14.7922 5.66766 14.7201 5.78001L12.0001 10.5C11.7355 10.4998 11.476 10.5725 11.2501 10.71C11.0228 10.839 10.8332 11.0252 10.7001 11.25C10.57 11.4787 10.5012 11.737 10.5001 12C10.4988 12.2634 10.5679 12.5223 10.7001 12.75L10.1101 13.75C10.0621 13.8375 10.0283 13.932 10.0101 14.03C9.99013 14.129 9.99013 14.231 10.0101 14.33C10.0328 14.4286 10.0772 14.5208 10.1401 14.6C10.2015 14.6759 10.276 14.7403 10.3601 14.79C10.4468 14.8395 10.5416 14.8734 10.6401 14.89C10.7391 14.9097 10.841 14.9097 10.9401 14.89C11.0361 14.8648 11.1257 14.8197 11.2032 14.7577C11.2807 14.6957 11.3444 14.6181 11.3901 14.53L11.9801 13.53C12.2437 13.5338 12.5033 13.4646 12.7301 13.33C12.9664 13.1984 13.1628 13.0053 13.2983 12.7711C13.4339 12.537 13.5036 12.2705 13.5001 12C13.5013 11.7367 13.4323 11.4778 13.3001 11.25L16.0001 6.53001C16.0778 6.42159 16.1229 6.29321 16.1301 6.16001Z" fill="#161616"/>
<path d="M13.4119 20.8886C11.5345 21.1868 9.61084 20.8829 7.91679 20.0204C6.22273 19.158 4.84526 17.7813 3.98186 16.0877C3.11847 14.3941 2.81349 12.4707 3.11066 10.5931C3.40782 8.7155 4.29187 6.98022 5.63605 5.63604C6.98023 4.29186 8.71551 3.40782 10.5931 3.11065C12.4707 2.81349 14.3942 3.11847 16.0877 3.98187C17.7813 4.84527 19.158 6.22275 20.0204 7.9168C20.8829 9.61086 21.1868 11.5345 20.8885 13.4119" stroke="current" stroke-width="1.7" stroke-linecap="round" stroke-linejoin="round"/>
<path d="M13.875 14.5625L20.125 21.4375" stroke="current" stroke-linecap="round" stroke-linejoin="round"/>
<path d="M16.1848 15.2449C16.4548 15.2067 16.7271 15.1875 16.9997 15.1876C18.5049 15.1843 19.9503 15.7766 21.0204 16.8351" stroke="current" stroke-linecap="round" stroke-linejoin="round"/>
<path d="M12.979 16.8351C13.5096 16.3102 14.1382 15.8946 14.8291 15.612" stroke="current" stroke-linecap="round" stroke-linejoin="round"/>
<path d="M17.9421 17.1781C18.6038 17.3435 19.2092 17.6828 19.6955 18.161" stroke="current" stroke-linecap="round" stroke-linejoin="round"/>
<path d="M14.304 18.161C14.8306 17.6432 15.4959 17.2891 16.2194 17.1412" stroke="current" stroke-linecap="round" stroke-linejoin="round"/>
<path d="M15.6296 19.4868C15.9819 19.1505 16.4455 18.9555 16.9322 18.9388C17.419 18.9221 17.8948 19.0849 18.2693 19.3963" stroke="current" stroke-linecap="round" stroke-linejoin="round"/>
<path d="M17 21.2812C17.2589 21.2812 17.4688 21.0714 17.4688 20.8125C17.4688 20.5536 17.2589 20.3438 17 20.3438C16.7411 20.3438 16.5312 20.5536 16.5312 20.8125C16.5312 21.0714 16.7411 21.2812 17 21.2812Z" fill="#161616"/>
</svg>
