<svg width="24" height="24" viewBox="0 0 24 24" fill="none" xmlns="http://www.w3.org/2000/svg">
<path d="M12.75 6L18 11.25" stroke="#A6A6A6" stroke-width="1.7" stroke-linecap="round" stroke-linejoin="round"/>
<path d="M9 20.25H4.5C4.30109 20.25 4.11032 20.171 3.96967 20.0304C3.82902 19.8897 3.75 19.699 3.75 19.5V15.3107C3.75 15.2122 3.7694 15.1147 3.80709 15.0237C3.84478 14.9327 3.90003 14.85 3.96967 14.7804L15.2197 3.53037C15.3603 3.38972 15.5511 3.3107 15.75 3.3107C15.9489 3.3107 16.1397 3.38972 16.2803 3.53037L20.4697 7.71971C20.6103 7.86036 20.6893 8.05113 20.6893 8.25004C20.6893 8.44895 20.6103 8.63972 20.4697 8.78037L9 20.25Z" stroke="#A6A6A6" stroke-width="1.7" stroke-linecap="round" stroke-linejoin="round"/>
</svg>
