<svg width="20" height="21" viewBox="0 0 20 21" fill="none" xmlns="http://www.w3.org/2000/svg">
<path d="M8.51533 19.9792H9.75027H16.2503H17.7503C18.7031 19.9792 19.4794 19.2029 19.4794 18.25V4.25C19.4794 4.16035 19.4273 4.07891 19.3459 4.04144L19.3452 4.0411C19.266 4.00449 19.1703 4.01689 19.1009 4.07611L8.51533 19.9792ZM8.51533 19.9792C8.59138 19.8307 8.65746 19.6775 8.71334 19.5208H9.00027H9.52111V19V15.25C9.52111 14.3039 10.3042 13.5208 11.2503 13.5208H14.7503C15.6964 13.5208 16.4794 14.3039 16.4794 15.25V19V19.5208H17.0003H17.7503C18.4514 19.5208 19.0211 18.9511 19.0211 18.25V5.88086V4.74847L18.1613 5.48541L12.3996 10.4239L12.3988 10.4246C12.332 10.4821 12.2376 10.4958 12.1551 10.4578L12.1539 10.4572C12.073 10.4201 12.0211 10.3394 12.0211 10.25V5.94824V4.76846L11.1493 5.56339L8.39372 8.07611L8.36179 7.4851L12.0952 4.08124C12.0953 4.08122 12.0953 4.08119 12.0953 4.08117C12.1462 4.03483 12.2133 4.01454 12.2785 4.02268C12.2978 4.02509 12.3193 4.03067 12.3428 4.04098C12.4264 4.07808 12.4794 4.16031 12.4794 4.25V8.61914V9.75153L13.3392 9.01459L19.1007 4.0763L8.51533 19.9792ZM1.44418 2.65702L1.44418 2.657C1.49334 1.74693 2.26 1.02083 3.17117 1.02083H4.32938C5.23631 1.02083 5.99964 1.73991 6.05566 2.64385L6.05637 2.65702L6.89425 18.1568C6.94672 19.1366 6.14829 19.9792 5.16727 19.9792H2.33426C1.35281 19.9792 0.553987 19.1365 0.606286 18.157C0.606291 18.1569 0.606296 18.1568 0.606301 18.1568L1.44418 2.65702ZM5.59847 2.68185L5.59846 2.68154C5.56119 1.99967 5.01259 1.47917 4.32938 1.47917H3.17117C2.4889 1.47917 1.93894 1.99841 1.90207 2.68089L1.90131 2.69512L1.90131 2.69607L1.06419 18.1809L1.06343 18.1949V18.198C1.03341 18.9286 1.60041 19.5208 2.33426 19.5208H5.16727C5.90654 19.5208 6.47589 18.919 6.43638 18.1811L6.43636 18.1809L5.59847 2.68185ZM15.5003 19.5208H16.0211V19V15.25C16.0211 14.5391 15.4612 13.9792 14.7503 13.9792H11.2503C10.5394 13.9792 9.97944 14.5391 9.97944 15.25V19V19.5208H10.5003H15.5003Z" stroke="current" stroke-width="1.04167"/>
</svg>
