<svg width="24" height="24" viewBox="0 0 24 24" fill="none" xmlns="http://www.w3.org/2000/svg">
<path d="M14.2081 4.65183L13.2806 4.1301L11.4255 3.08663C11.3245 3.02984 11.2106 3 11.0948 3C10.9789 3 10.865 3.02984 10.7641 3.08663L3.34385 7.26051C3.23953 7.31919 3.1527 7.40457 3.09227 7.50789C3.03185 7.61121 3 7.72875 3 7.84844V16.166C3 16.2857 3.03185 16.4033 3.09227 16.5066C3.1527 16.6099 3.23953 16.6953 3.34385 16.754L10.7641 20.9278C10.865 20.9846 10.9789 21.0145 11.0948 21.0145C11.2106 21.0145 11.3245 20.9846 11.4255 20.9278L18.8457 16.754C18.95 16.6953 19.0369 16.6099 19.0973 16.5066C19.1577 16.4033 19.1896 16.2857 19.1896 16.166V12.0072V9.92784" stroke="current" stroke-width="1.7" stroke-linecap="round" stroke-linejoin="round"/>
<path d="M15.2283 14.074V9.68933L7.04736 5.17725" stroke="current" stroke-width="1.7" stroke-linecap="round" stroke-linejoin="round"/>
<path d="M3.09344 7.50598L11.1748 12.0073L15.1357 9.75705L16.1259 9.19449L16.621 8.91322" stroke="current" stroke-width="1.7" stroke-linecap="round" stroke-linejoin="round"/>
<path d="M11.1747 12.0073L11.0956 21.0145" stroke="current" stroke-width="1.7" stroke-linecap="round" stroke-linejoin="round"/>
<path d="M18.7335 6.125C19.5619 6.125 20.2335 5.45343 20.2335 4.625C20.2335 3.79657 19.5619 3.125 18.7335 3.125C17.905 3.125 17.2335 3.79657 17.2335 4.625C17.2335 5.45343 17.905 6.125 18.7335 6.125Z" stroke="current" stroke-width="1.7" stroke-linecap="round" stroke-linejoin="round"/>
<path d="M18.7335 3.125V2" stroke="current" stroke-width="1.7" stroke-linecap="round" stroke-linejoin="round"/>
<path d="M17.4344 3.875L16.4601 3.3125" stroke="current" stroke-width="1.7" stroke-linecap="round" stroke-linejoin="round"/>
<path d="M17.4344 5.375L16.4601 5.9375" stroke="current" stroke-width="1.7" stroke-linecap="round" stroke-linejoin="round"/>
<path d="M18.7335 6.125V7.25" stroke="current" stroke-width="1.7" stroke-linecap="round" stroke-linejoin="round"/>
<path d="M20.0325 5.375L21.0068 5.9375" stroke="current" stroke-width="1.7" stroke-linecap="round" stroke-linejoin="round"/>
<path d="M20.0325 3.875L21.0068 3.3125" stroke="current" stroke-width="1.7" stroke-linecap="round" stroke-linejoin="round"/>
</svg>
