<svg width="24" height="24" viewBox="0 0 24 24" fill="none" xmlns="http://www.w3.org/2000/svg">
<path d="M9.35 15.15L5 19.5" stroke="current" stroke-width="1.7" stroke-linecap="round" stroke-linejoin="round"/>
<path d="M14.249 5.16566L9.84545 9.57343C9.84545 9.57343 7.8858 8.59265 5.79118 10.284C5.72932 10.3339 5.67864 10.3962 5.64241 10.4669C5.60619 10.5376 5.58524 10.6152 5.58092 10.6946C5.5766 10.7739 5.58901 10.8533 5.61734 10.9276C5.64568 11.0018 5.6893 11.0693 5.74538 11.1255L13.3665 18.754C13.4236 18.8113 13.4923 18.8556 13.5679 18.884C13.6436 18.9124 13.7245 18.9242 13.8051 18.9187C13.8857 18.9131 13.9642 18.8902 14.0353 18.8517C14.1063 18.8131 14.1683 18.7598 14.2169 18.6952C14.8098 17.9065 15.7409 16.2852 14.9311 14.6639L19.3346 10.2562C19.4405 10.1501 19.5001 10.0062 19.5001 9.85623C19.5001 9.70622 19.4405 9.56236 19.3346 9.45628L15.0481 5.16566C14.9421 5.05959 14.7984 5 14.6485 5C14.4987 5 14.3549 5.05959 14.249 5.16566V5.16566Z" fill="current" stroke="current" stroke-width="1.7" stroke-linecap="round" stroke-linejoin="round"/>
</svg>
