<svg width="25" height="24" viewBox="0 0 25 24" fill="none" xmlns="http://www.w3.org/2000/svg">
<path d="M10.822 2C10.6231 2.00002 10.4324 2.07904 10.2917 2.21969C10.1511 2.36034 10.072 2.55109 10.072 2.75V3.04785C10.072 3.53158 9.78489 3.96088 9.33765 4.14551C9.32101 4.15247 9.29797 4.16281 9.29956 4.16211L9.31128 4.15625C8.85962 4.34436 8.35325 4.24577 8.00952 3.90234L7.79858 3.69238C7.65793 3.55178 7.46719 3.4728 7.26831 3.4728C7.06943 3.4728 6.87869 3.55178 6.73804 3.69238L4.26343 6.16699C4.12283 6.30765 4.04385 6.49839 4.04385 6.69727C4.04385 6.89614 4.12283 7.08688 4.26343 7.22754L4.47339 7.43848C4.81632 7.78141 4.91518 8.28942 4.72729 8.74023C4.7261 8.74308 4.7223 8.75346 4.72339 8.75098C4.72105 8.75616 4.71877 8.76137 4.71655 8.7666C4.53294 9.21255 4.1036 9.5 3.61987 9.5H3.32202C3.12312 9.50002 2.93236 9.57904 2.79171 9.71969C2.65107 9.86034 2.57204 10.0511 2.57202 10.25V13.75C2.57204 13.9489 2.65107 14.1397 2.79171 14.2803C2.93236 14.421 3.12312 14.5 3.32202 14.5H3.61987C4.1036 14.5 4.5329 14.7871 4.71753 15.2344C4.72449 15.251 4.73483 15.274 4.73413 15.2725L4.72827 15.2607C4.91638 15.7124 4.81746 16.2194 4.47437 16.5625L4.2644 16.7725C4.1238 16.9131 4.04482 17.1039 4.04482 17.3027C4.04482 17.5016 4.1238 17.6923 4.2644 17.833L6.73901 20.3086C6.87967 20.4492 7.07041 20.5282 7.26929 20.5282C7.46817 20.5282 7.6589 20.4492 7.79956 20.3086L8.0105 20.0977C8.35319 19.755 8.86071 19.6564 9.31128 19.8438H9.31226C9.31541 19.8451 9.32556 19.8497 9.323 19.8486C9.32786 19.8506 9.33274 19.8526 9.33765 19.8545C9.78489 20.0391 10.073 20.4684 10.073 20.9521V21.25C10.073 21.4489 10.152 21.6397 10.2927 21.7803C10.4333 21.921 10.6241 22 10.823 22H14.323C14.5219 22 14.7127 21.921 14.8533 21.7803C14.994 21.6397 15.073 21.4489 15.073 21.25V20.9521C15.073 20.4684 15.3601 20.0391 15.8074 19.8545C15.8153 19.8513 15.8299 19.8451 15.8328 19.8438C16.2844 19.6556 16.7914 19.7546 17.1345 20.0977L17.3455 20.3076C17.4861 20.4482 17.6769 20.5272 17.8757 20.5272C18.0746 20.5272 18.2653 20.4482 18.406 20.3076L20.8806 17.833C21.0212 17.6923 21.1002 17.5016 21.1002 17.3027C21.1002 17.1039 21.0212 16.9131 20.8806 16.7725L20.6707 16.5615C20.3277 16.2186 20.2289 15.7106 20.4167 15.2598C20.4179 15.2569 20.4218 15.2465 20.4207 15.249C20.423 15.2442 20.4253 15.2393 20.4275 15.2344C20.6121 14.7871 21.0414 14.499 21.5251 14.499C21.5251 14.499 21.7076 14.5174 21.822 14.499C22.037 14.4644 22.1668 14.4038 22.321 14.2501C22.4758 14.0959 22.5718 13.9685 22.572 13.75V13.749V10.25C22.572 10.0511 22.493 9.86034 22.3523 9.71969C22.2117 9.57904 22.0209 9.50002 21.822 9.5H21.5242C21.0404 9.5 20.6111 9.21287 20.4265 8.76562C20.4196 8.74899 20.4092 8.72595 20.4099 8.72754L20.4158 8.73926C20.2277 8.2876 20.3266 7.78059 20.6697 7.4375L20.8796 7.22754C21.0202 7.08688 21.0992 6.89614 21.0992 6.69727C21.0992 6.49839 21.0202 6.30765 20.8796 6.16699L18.405 3.69141C18.2644 3.55081 18.0736 3.47182 17.8748 3.47182C17.6759 3.47182 17.4851 3.55081 17.3445 3.69141L17.1335 3.90234C16.7906 4.24528 16.2833 4.34432 15.8318 4.15625C15.8279 4.15462 15.8173 4.15016 15.8201 4.15137C15.8152 4.14936 15.8103 4.14741 15.8054 4.14551C15.3596 3.96153 15.072 3.53158 15.072 3.04785V2.75C15.072 2.55109 14.993 2.36034 14.8523 2.21969C14.7117 2.07904 14.5209 2.00002 14.322 2H10.822ZM11.4343 3.5H13.7097C13.8725 4.38549 14.3812 5.17842 15.2312 5.53027C15.2343 5.53157 15.2445 5.53626 15.2419 5.53516C15.2462 5.53715 15.2504 5.5391 15.2546 5.54102C16.2581 5.95895 17.1037 6.05329 17.8748 5.28223L19.3865 6.79492C18.8745 7.53909 18.6772 8.46326 19.031 9.31445C19.0326 9.31935 19.0342 9.32423 19.0359 9.3291C19.0372 9.33204 19.0385 9.33497 19.0398 9.33789C19.3915 10.1898 20.1855 10.6993 21.072 10.8623V13.1367C20.1859 13.3 19.3923 13.8105 19.0408 14.6621C19.0401 14.6638 19.036 14.673 19.0369 14.6709C19.0352 14.6748 19.0336 14.6787 19.032 14.6826C18.677 15.5343 18.8757 16.4592 19.3884 17.2041L17.7771 18.8154C17.0324 18.303 16.1083 18.1042 15.2566 18.459C15.2523 18.4606 15.2481 18.4622 15.2439 18.4639C15.241 18.4652 15.238 18.4664 15.2351 18.4678C14.3833 18.8194 13.8738 19.6136 13.7107 20.5H11.4353C11.2724 19.6144 10.7623 18.8219 9.91187 18.4697C9.90872 18.4684 9.89856 18.4637 9.90112 18.4648C9.89723 18.4629 9.89333 18.4609 9.8894 18.459C9.0375 18.1039 8.11191 18.3024 7.36694 18.8154L5.85522 17.3027C6.62566 16.5323 6.52987 15.6885 6.11304 14.6855C6.11146 14.6806 6.10983 14.6758 6.10815 14.6709C6.10687 14.668 6.10557 14.665 6.10425 14.6621C5.75259 13.8102 4.9585 13.3007 4.07202 13.1377V10.8623C4.95854 10.6993 5.75243 10.19 6.10327 9.33789C6.10397 9.33619 6.10808 9.32701 6.10718 9.3291C6.10884 9.32521 6.11047 9.3213 6.11206 9.31738C6.46702 8.46572 6.2683 7.54079 5.75562 6.7959L7.36597 5.18555C8.11046 5.69794 9.0349 5.89494 9.88647 5.54102C9.89137 5.53944 9.89626 5.53781 9.90112 5.53613C9.90406 5.53485 9.90699 5.53355 9.90991 5.53223C10.7618 5.18057 11.2713 4.38648 11.4343 3.5ZM12.572 6C9.26719 6 6.57202 8.69518 6.57202 12C6.57202 15.3048 9.26719 18 12.572 18C15.8768 18 18.572 15.3048 18.572 12C18.572 8.69518 15.8768 6 12.572 6ZM11.822 7.56641V9.6543C11.3791 9.78647 10.9769 9.98615 10.699 10.2988C10.2699 10.7816 10.072 11.3958 10.072 12C10.072 12.1829 10.1266 12.3621 10.1638 12.543L8.35913 13.5771C8.17632 13.0862 8.07202 12.5564 8.07202 12C8.07202 9.7621 9.68854 7.92187 11.822 7.56641ZM13.322 7.56641C15.4555 7.92187 17.072 9.7621 17.072 12C17.072 12.5569 16.967 13.0868 16.7839 13.5781L14.9792 12.5469C15.017 12.3647 15.072 12.1843 15.072 12C15.072 11.3958 14.8742 10.7816 14.4451 10.2988C14.1671 9.98615 13.7649 9.78647 13.322 9.6543V7.56641ZM12.572 11C12.9679 11 13.1698 11.1214 13.324 11.2949C13.4782 11.4684 13.572 11.7292 13.572 12C13.572 12.2708 13.4782 12.5316 13.324 12.7051C13.1698 12.8786 12.9679 13 12.572 13C12.1762 13 11.9743 12.8786 11.8201 12.7051C11.6659 12.5316 11.572 12.2708 11.572 12C11.572 11.7292 11.6659 11.4684 11.8201 11.2949C11.9743 11.1214 12.1762 11 12.572 11ZM10.9031 13.8477C11.3298 14.2306 11.8985 14.5 12.572 14.5C13.2434 14.5 13.8096 14.2313 14.2361 13.8506L16.0359 14.8789C15.2119 15.8705 13.9687 16.5 12.572 16.5C11.1748 16.5 9.93113 15.8701 9.10718 14.8779L10.9031 13.8477Z" fill="#0F6FFF"/>
</svg>
