<svg width="24" height="24" viewBox="0 0 24 24" fill="none" xmlns="http://www.w3.org/2000/svg">
<path d="M12 16.5C14.4853 16.5 16.5 14.4853 16.5 12C16.5 9.51472 14.4853 7.5 12 7.5C9.51472 7.5 7.5 9.51472 7.5 12C7.5 14.4853 9.51472 16.5 12 16.5Z" stroke="current" stroke-width="1.7" stroke-linecap="round" stroke-linejoin="round"/>
<path d="M17.2171 6.10189C17.4573 6.31454 17.6844 6.54159 17.897 6.78177L20.4585 7.14754C20.8739 7.87086 21.1942 8.64479 21.4114 9.45012L19.8594 11.5194C19.8594 11.5194 19.8789 12.1605 19.8594 12.4807L21.412 14.5506C21.1943 15.3558 20.8735 16.1295 20.4576 16.8525L17.897 17.2183C17.897 17.2183 17.4574 17.6855 17.2173 17.8981L16.8515 20.4596C16.1282 20.875 15.3543 21.1952 14.5489 21.4124L12.4798 19.8605C12.1596 19.88 11.8385 19.88 11.5183 19.8605L9.44846 21.4131C8.64327 21.1954 7.86956 20.8746 7.14652 20.4587L6.78082 17.8983C6.54064 17.6856 6.31359 17.4586 6.10093 17.2184L3.53946 16.8526C3.12407 16.1293 2.80381 15.3554 2.58661 14.55L4.13859 12.4808C4.13859 12.4808 4.11907 11.8396 4.13853 11.5194L2.58594 9.44955C2.80368 8.64436 3.12447 7.87065 3.54034 7.14761L6.10079 6.78192C6.31345 6.54173 6.5405 6.31468 6.78068 6.10202L7.14645 3.54055C7.86977 3.12516 8.64369 2.8049 9.44903 2.5877L11.5181 4.13963C11.8383 4.12016 12.1594 4.12016 12.4796 4.13962L14.5495 2.58703C15.3547 2.80477 16.1284 3.12556 16.8514 3.54143L17.2171 6.10189Z" stroke="current" stroke-width="1.7" stroke-linecap="round" stroke-linejoin="round"/>
</svg>
