<svg width="25" height="24" viewBox="0 0 25 24" fill="none" xmlns="http://www.w3.org/2000/svg">
<path d="M10.3933 2C10.1944 2.00002 10.0036 2.07904 9.863 2.21969C9.72235 2.36034 9.64333 2.55109 9.64331 2.75V3.04785C9.64331 3.53158 9.35618 3.96088 8.90894 4.14551C8.8923 4.15247 8.86926 4.16281 8.87085 4.16211L8.88257 4.15625C8.43091 4.34436 7.92454 4.24577 7.58081 3.90234L7.36987 3.69238C7.22922 3.55178 7.03848 3.4728 6.8396 3.4728C6.64072 3.4728 6.44998 3.55178 6.30933 3.69238L3.83472 6.16699C3.69412 6.30765 3.61513 6.49839 3.61513 6.69727C3.61513 6.89614 3.69412 7.08688 3.83472 7.22754L4.04468 7.43848C4.38761 7.78141 4.48647 8.28942 4.29858 8.74023C4.29739 8.74308 4.29359 8.75346 4.29468 8.75098C4.29234 8.75616 4.29006 8.76137 4.28784 8.7666C4.10423 9.21255 3.67489 9.5 3.19116 9.5H2.89331C2.6944 9.50002 2.50365 9.57904 2.363 9.71969C2.22235 9.86034 2.14333 10.0511 2.14331 10.25V13.75C2.14333 13.9489 2.22235 14.1397 2.363 14.2803C2.50365 14.421 2.6944 14.5 2.89331 14.5H3.19116C3.67489 14.5 4.10419 14.7871 4.28882 15.2344C4.29578 15.251 4.30612 15.274 4.30542 15.2725L4.29956 15.2607C4.48767 15.7124 4.38875 16.2194 4.04565 16.5625L3.83569 16.7725C3.69509 16.9131 3.61611 17.1039 3.61611 17.3027C3.61611 17.5016 3.69509 17.6923 3.83569 17.833L6.3103 20.3086C6.45096 20.4492 6.6417 20.5282 6.84058 20.5282C7.03945 20.5282 7.23019 20.4492 7.37085 20.3086L7.58179 20.0977C7.92448 19.755 8.43199 19.6564 8.88257 19.8438H8.88354C8.88669 19.8451 8.89685 19.8497 8.89429 19.8486C8.89915 19.8506 8.90403 19.8526 8.90894 19.8545C9.35618 20.0391 9.64429 20.4684 9.64429 20.9521V21.25C9.64431 21.4489 9.72333 21.6397 9.86398 21.7803C10.0046 21.921 10.1954 22 10.3943 22H13.8943C14.0932 22 14.2839 21.921 14.4246 21.7803C14.5652 21.6397 14.6443 21.4489 14.6443 21.25V20.9521C14.6443 20.4684 14.9314 20.0391 15.3787 19.8545C15.3866 19.8513 15.4012 19.8451 15.4041 19.8438C15.8557 19.6556 16.3627 19.7546 16.7058 20.0977L16.9167 20.3076C17.0574 20.4482 17.2481 20.5272 17.447 20.5272C17.6459 20.5272 17.8366 20.4482 17.9773 20.3076L20.4519 17.833C20.5925 17.6923 20.6715 17.5016 20.6715 17.3027C20.6715 17.1039 20.5925 16.9131 20.4519 16.7725L20.2419 16.5615C19.899 16.2186 19.8001 15.7106 19.988 15.2598C19.9892 15.2569 19.993 15.2465 19.9919 15.249C19.9943 15.2442 19.9966 15.2393 19.9988 15.2344C20.1834 14.7871 20.6127 14.499 21.0964 14.499C21.0964 14.499 21.2788 14.5174 21.3933 14.499C21.6083 14.4644 21.7381 14.4038 21.8923 14.2501C22.0471 14.0959 22.1431 13.9685 22.1433 13.75V13.749V10.25C22.1433 10.0511 22.0643 9.86034 21.9236 9.71969C21.783 9.57904 21.5922 9.50002 21.3933 9.5H21.0955C20.6117 9.5 20.1824 9.21287 19.9978 8.76562C19.9908 8.74899 19.9805 8.72595 19.9812 8.72754L19.9871 8.73926C19.7989 8.2876 19.8979 7.78059 20.241 7.4375L20.4509 7.22754C20.5915 7.08688 20.6705 6.89614 20.6705 6.69727C20.6705 6.49839 20.5915 6.30765 20.4509 6.16699L17.9763 3.69141C17.8357 3.55081 17.6449 3.47182 17.446 3.47182C17.2472 3.47182 17.0564 3.55081 16.9158 3.69141L16.7048 3.90234C16.3619 4.24528 15.8546 4.34432 15.4031 4.15625C15.3992 4.15462 15.3886 4.15016 15.3914 4.15137C15.3865 4.14936 15.3816 4.14741 15.3767 4.14551C14.9309 3.96153 14.6433 3.53158 14.6433 3.04785V2.75C14.6433 2.55109 14.5643 2.36034 14.4236 2.21969C14.283 2.07904 14.0922 2.00002 13.8933 2H10.3933ZM11.0056 3.5H13.281C13.4438 4.38549 13.9525 5.17842 14.8025 5.53027C14.8056 5.53157 14.8158 5.53626 14.8132 5.53516C14.8174 5.53715 14.8217 5.5391 14.8259 5.54102C15.8294 5.95895 16.675 6.05329 17.446 5.28223L18.9578 6.79492C18.4458 7.53909 18.2485 8.46326 18.6023 9.31445C18.6039 9.31935 18.6055 9.32423 18.6072 9.3291C18.6085 9.33204 18.6098 9.33497 18.6111 9.33789C18.9627 10.1898 19.7568 10.6993 20.6433 10.8623V13.1367C19.7572 13.3 18.9636 13.8105 18.6121 14.6621C18.6114 14.6638 18.6073 14.673 18.6082 14.6709C18.6065 14.6748 18.6049 14.6787 18.6033 14.6826C18.2483 15.5343 18.447 16.4592 18.9597 17.2041L17.3484 18.8154C16.6037 18.303 15.6796 18.1042 14.8279 18.459C14.8236 18.4606 14.8194 18.4622 14.8152 18.4639C14.8122 18.4652 14.8093 18.4664 14.8064 18.4678C13.9546 18.8194 13.4451 19.6136 13.282 20.5H11.0066C10.8437 19.6144 10.3336 18.8219 9.48315 18.4697C9.48 18.4684 9.46985 18.4637 9.47241 18.4648C9.46852 18.4629 9.46462 18.4609 9.46069 18.459C8.60879 18.1039 7.6832 18.3024 6.93823 18.8154L5.42651 17.3027C6.19694 16.5323 6.10116 15.6885 5.68433 14.6855C5.68275 14.6806 5.68112 14.6758 5.67944 14.6709C5.67816 14.668 5.67686 14.665 5.67554 14.6621C5.32387 13.8102 4.52979 13.3007 3.64331 13.1377V10.8623C4.52983 10.6993 5.32372 10.19 5.67456 9.33789C5.67526 9.33619 5.67937 9.32701 5.67847 9.3291C5.68013 9.32521 5.68175 9.3213 5.68335 9.31738C6.03831 8.46572 5.83958 7.54079 5.3269 6.7959L6.93726 5.18555C7.68175 5.69794 8.60619 5.89494 9.45776 5.54102C9.46266 5.53944 9.46755 5.53781 9.47241 5.53613C9.47535 5.53485 9.47828 5.53355 9.4812 5.53223C10.3331 5.18057 10.8426 4.38648 11.0056 3.5ZM12.1433 6C8.83848 6 6.14331 8.69518 6.14331 12C6.14331 15.3048 8.83848 18 12.1433 18C15.4481 18 18.1433 15.3048 18.1433 12C18.1433 8.69518 15.4481 6 12.1433 6ZM11.3933 7.56641V9.6543C10.9504 9.78647 10.5482 9.98615 10.2703 10.2988C9.84114 10.7816 9.64331 11.3958 9.64331 12C9.64331 12.1829 9.69791 12.3621 9.73511 12.543L7.93042 13.5771C7.74761 13.0862 7.64331 12.5564 7.64331 12C7.64331 9.7621 9.25983 7.92187 11.3933 7.56641ZM12.8933 7.56641C15.0268 7.92187 16.6433 9.7621 16.6433 12C16.6433 12.5569 16.5383 13.0868 16.3552 13.5781L14.5505 12.5469C14.5883 12.3647 14.6433 12.1843 14.6433 12C14.6433 11.3958 14.4455 10.7816 14.0164 10.2988C13.7384 9.98615 13.3362 9.78647 12.8933 9.6543V7.56641ZM12.1433 11C12.5391 11 12.7411 11.1214 12.8953 11.2949C13.0495 11.4684 13.1433 11.7292 13.1433 12C13.1433 12.2708 13.0495 12.5316 12.8953 12.7051C12.7411 12.8786 12.5391 13 12.1433 13C11.7475 13 11.5456 12.8786 11.3914 12.7051C11.2371 12.5316 11.1433 12.2708 11.1433 12C11.1433 11.7292 11.2371 11.4684 11.3914 11.2949C11.5456 11.1214 11.7475 11 12.1433 11ZM10.4744 13.8477C10.9011 14.2306 11.4698 14.5 12.1433 14.5C12.8146 14.5 13.3809 14.2313 13.8074 13.8506L15.6072 14.8789C14.7832 15.8705 13.54 16.5 12.1433 16.5C10.7461 16.5 9.50241 15.8701 8.67847 14.8779L10.4744 13.8477Z" fill="current"/>
</svg>
