<svg width="16" height="16" viewBox="0 0 24 24" fill="none" xmlns="http://www.w3.org/2000/svg">
<path d="M7.22746 16.7725C6.59998 16.1461 6.10218 15.4021 5.76252 14.5831C5.42287 13.7641 5.24805 12.8862 5.24805 11.9995C5.24805 11.1129 5.42287 10.235 5.76252 9.41596C6.10218 8.59696 6.59998 7.85297 7.22746 7.22656"  stroke-width="1.7" stroke-linecap="round" stroke-linejoin="round"/>
<path d="M16.7734 7.22656C17.4009 7.85297 17.8987 8.59696 18.2384 9.41596C18.578 10.235 18.7529 11.1129 18.7529 11.9995C18.7529 12.8862 18.578 13.7641 18.2384 14.5831C17.8987 15.4021 17.4009 16.1461 16.7734 16.7725"  stroke-width="1.7" stroke-linecap="round" stroke-linejoin="round"/>
<path d="M4.57519 19.4244C3.59911 18.45 2.82474 17.2927 2.29639 16.0187C1.76805 14.7447 1.49609 13.379 1.49609 11.9998C1.49609 10.6206 1.76805 9.25493 2.29639 7.98093C2.82474 6.70693 3.59911 5.54961 4.57519 4.5752"  stroke-width="1.7" stroke-linecap="round" stroke-linejoin="round"/>
<path d="M19.4248 4.5752C20.4009 5.54961 21.1753 6.70693 21.7036 7.98093C22.2319 9.25493 22.5039 10.6206 22.5039 11.9998C22.5039 13.379 22.2319 14.7447 21.7036 16.0187C21.1753 17.2927 20.4009 18.45 19.4248 19.4244"  stroke-width="1.7" stroke-linecap="round" stroke-linejoin="round"/>
<path d="M12 2L12 9"  stroke-width="1.7" stroke-linecap="round"/>
<path d="M12 15L12 22"  stroke-width="1.7" stroke-linecap="round"/>
<path d="M12.125 13.25C12.7463 13.25 13.25 12.7463 13.25 12.125C13.25 11.5037 12.7463 11 12.125 11C11.5037 11 11 11.5037 11 12.125C11 12.7463 11.5037 13.25 12.125 13.25Z" fill="#101010"/>
</svg>
