<svg width="16" height="16" viewBox="0 0 16 16" fill="none" xmlns="http://www.w3.org/2000/svg">
<path d="M7 0.57735C7.6188 0.220085 8.3812 0.220085 9 0.57735L13.9282 3.42265C14.547 3.77992 14.9282 4.44017 14.9282 5.1547V10.8453C14.9282 11.5598 14.547 12.2201 13.9282 12.5774L9 15.4226C8.3812 15.7799 7.6188 15.7799 7 15.4226L2.0718 12.5774C1.45299 12.2201 1.0718 11.5598 1.0718 10.8453V5.1547C1.0718 4.44017 1.45299 3.77992 2.0718 3.42265L7 0.57735Z" fill="#0F6FFF"/>
<path d="M6.71429 12L7.28571 9.14286L5 8.28571L9 4L8.42857 6.85714L10.7143 7.71429L6.71429 12Z" stroke="white" stroke-linecap="round" stroke-linejoin="round"/>
</svg>
