<svg width="16" height="16" viewBox="0 0 16 16" fill="none" xmlns="http://www.w3.org/2000/svg">
<path d="M8 14C11.3137 14 14 11.3137 14 8C14 4.68629 11.3137 2 8 2C4.68629 2 2 4.68629 2 8C2 11.3137 4.68629 14 8 14Z" stroke="#585757" stroke-width="1.3" stroke-miterlimit="10"/>
<path d="M8 10C9.38071 10 10.5 8.88071 10.5 7.5C10.5 6.11929 9.38071 5 8 5C6.61929 5 5.5 6.11929 5.5 7.5C5.5 8.88071 6.61929 10 8 10Z" stroke="#585757" stroke-width="1.3" stroke-miterlimit="10"/>
<path d="M3.9873 12.4609C4.36394 11.7204 4.93813 11.0986 5.64632 10.6642C6.35452 10.2299 7.16908 10 7.99985 10C8.83063 10 9.64519 10.2299 10.3534 10.6642C11.0616 11.0985 11.6358 11.7204 12.0124 12.4609" stroke="#585757" stroke-width="1.3" stroke-linecap="round" stroke-linejoin="round"/>
</svg>
