<svg width="25" height="24" viewBox="0 0 25 24" fill="none" xmlns="http://www.w3.org/2000/svg">
<path d="M12.8569 15C14.928 15 16.6069 13.3211 16.6069 11.25C16.6069 9.17893 14.928 7.5 12.8569 7.5C10.7859 7.5 9.10693 9.17893 9.10693 11.25C9.10693 13.3211 10.7859 15 12.8569 15Z" stroke="#0F6FFF" stroke-width="1.7" stroke-miterlimit="10"/>
<path d="M6.83789 18.6913C7.40284 17.5806 8.26413 16.6478 9.32642 15.9963C10.3887 15.3448 11.6106 15 12.8567 15C14.1029 15 15.3247 15.3448 16.387 15.9963C17.4493 16.6478 18.3106 17.5806 18.8756 18.6913" stroke="#0F6FFF" stroke-width="1.7" stroke-linecap="round" stroke-linejoin="round"/>
<path d="M19.6069 6.75C20.4354 6.75 21.1069 6.07843 21.1069 5.25C21.1069 4.42157 20.4354 3.75 19.6069 3.75C18.7785 3.75 18.1069 4.42157 18.1069 5.25C18.1069 6.07843 18.7785 6.75 19.6069 6.75Z" stroke="#0F6FFF" stroke-width="1.7" stroke-linecap="round" stroke-linejoin="round"/>
<path d="M19.6069 3.75V2.625" stroke="#0F6FFF" stroke-width="1.7" stroke-linecap="round" stroke-linejoin="round"/>
<path d="M18.3078 4.5L17.3335 3.9375" stroke="#0F6FFF" stroke-width="1.7" stroke-linecap="round" stroke-linejoin="round"/>
<path d="M18.3078 6L17.3335 6.5625" stroke="#0F6FFF" stroke-width="1.7" stroke-linecap="round" stroke-linejoin="round"/>
<path d="M19.6069 6.75V7.875" stroke="#0F6FFF" stroke-width="1.7" stroke-linecap="round" stroke-linejoin="round"/>
<path d="M20.9062 6L21.8805 6.5625" stroke="#0F6FFF" stroke-width="1.7" stroke-linecap="round" stroke-linejoin="round"/>
<path d="M20.9062 4.5L21.8805 3.9375" stroke="#0F6FFF" stroke-width="1.7" stroke-linecap="round" stroke-linejoin="round"/>
<path d="M21.793 10.9219C21.8357 11.2797 21.857 11.6397 21.8569 12C21.8569 13.78 21.3291 15.5201 20.3402 17.0001C19.3512 18.4802 17.9456 19.6337 16.3011 20.3149C14.6566 20.9961 12.847 21.1743 11.1011 20.8271C9.3553 20.4798 7.75165 19.6226 6.49298 18.364C5.2343 17.1053 4.37714 15.5016 4.02987 13.7558C3.6826 12.01 3.86083 10.2004 4.54202 8.55585C5.22321 6.91131 6.37676 5.50571 7.85681 4.51677C9.33685 3.52784 11.0769 3 12.8569 3C13.1385 3 13.4169 3.01275 13.6921 3.03824" stroke="#0F6FFF" stroke-width="1.7" stroke-linecap="round" stroke-linejoin="round"/>
</svg>
