<svg width="43" height="14" viewBox="0 0 43 14" fill="none" xmlns="http://www.w3.org/2000/svg">
<path d="M35.5447 0.00980148C34.1772 -0.0393904 33.0261 0.44269 32.5932 0.659134C31.3929 1.24944 30.7042 2.10537 29.4449 3.65984C28.953 4.26982 28.4807 4.92899 27.5461 6.24733C27.2313 6.68021 27.0739 6.91634 26.9361 7.1131L26.9263 7.12294C26.7886 7.31971 26.6705 7.48696 26.4344 7.81163C25.4505 9.17916 24.7422 10.1728 24.4667 10.409C23.7387 11.0386 22.6663 11.4321 21.7316 11.4026C19.9214 11.3534 17.2945 9.75962 17.2847 7.01472C17.2748 4.74206 19.0359 2.8039 21.2889 2.60713C22.3121 2.51858 23.2861 2.76455 24.1224 3.31549C24.2503 3.3942 24.329 3.5221 24.3486 3.65984C24.3683 3.79757 24.329 3.94515 24.2404 4.06321L21.2692 7.81163C20.8462 8.3429 20.8954 9.12013 21.3676 9.5727C21.6332 9.81866 21.9874 9.94655 22.3514 9.92688C22.7155 9.89736 23.05 9.72027 23.2664 9.4448L27.2706 4.39771C27.6347 3.93531 27.6445 3.29582 27.2903 2.82358C25.972 1.06251 23.8862 0.0196405 21.6923 0.0196405C17.8356 0.0196405 14.707 3.15808 14.707 7.00488C14.707 8.96272 15.5433 10.773 17.0682 12.111C18.3571 13.2424 20.0788 13.9508 21.6529 13.9901C21.7021 13.9901 21.7611 13.9901 21.8103 13.9901C23.3254 13.9901 24.9881 13.3703 26.1491 12.3668C26.6606 11.9241 27.2411 11.1075 28.5299 9.3169C28.7661 8.98239 28.894 8.79546 29.0317 8.60853L29.0415 8.58886C29.1793 8.39209 29.3367 8.16581 29.6417 7.74276C30.5468 6.47361 30.9994 5.83412 31.4519 5.27333C32.5342 3.92547 33.0359 3.30566 33.7148 2.97115C33.8623 2.90228 34.6101 2.55794 35.4463 2.58745C37.2664 2.65632 39.9031 4.25998 39.9031 6.99504C39.9031 9.42512 37.9256 11.4026 35.4955 11.4026C34.856 11.4026 34.187 11.2059 34.187 11.2059C33.0261 10.8418 32.2685 10.0745 31.8356 9.49399C31.6094 9.189 31.265 9.00207 30.8911 8.97256C30.5173 8.94304 30.1533 9.08078 29.8778 9.35625C29.4351 9.79898 29.3859 10.5369 29.7794 11.0583C30.4386 11.9339 31.5995 13.0948 33.4098 13.6655C33.4491 13.6753 34.433 13.9803 35.4857 13.9803C39.3423 13.9803 42.4709 10.8418 42.4709 6.99504C42.4807 2.59729 38.447 0.118024 35.5447 0.00980148Z" fill="white"/>
<path d="M11.1665 1.40689C10.9895 1.27899 10.7632 1.11174 10.4779 0.954323C10.2122 0.796909 9.75966 0.560788 9.1792 0.364021C8.28391 0.0688698 7.487 0.00983897 6.9754 0.00983897C5.35207 0.00983897 3.80745 0.560788 2.56781 1.58398V1.28883C2.56781 0.580464 1.98735 0 1.27899 0C0.570625 0 0 0.580464 0 1.28883V12.7112C0 13.4195 0.580464 14 1.28883 14C1.99719 14 2.57765 13.4195 2.57765 12.7112V6.99508C2.57765 4.565 4.55516 2.58749 6.98524 2.58749C9.41532 2.58749 11.3928 4.565 11.3928 6.99508V12.7112C11.3928 13.4195 11.9733 14 12.6817 14C13.39 14 13.9705 13.4195 13.9705 12.7112V6.41462C13.9705 6.3064 13.9705 3.49262 11.1665 1.40689Z" fill="white"/>
</svg>
