<svg width="24" height="20" viewBox="0 0 24 20" fill="none" xmlns="http://www.w3.org/2000/svg">
<path d="M12 7V11M12 15H12.01M10.24 1.957L1.81799 16.017C1.64446 16.3177 1.55267 16.6586 1.55173 17.0058C1.5508 17.3529 1.64075 17.6943 1.81265 17.996C1.98455 18.2976 2.23241 18.549 2.53159 18.7251C2.83076 18.9013 3.17083 18.996 3.51799 19H20.363C20.7101 18.996 21.0502 18.9013 21.3494 18.7251C21.6486 18.549 21.8964 18.2976 22.0683 17.996C22.2402 17.6943 22.3302 17.3529 22.3292 17.0058C22.3283 16.6586 22.2365 16.3177 22.063 16.017L13.64 1.957C13.4626 1.66499 13.213 1.42359 12.9153 1.25606C12.6175 1.08853 12.2816 1.00053 11.94 1.00053C11.5983 1.00053 11.2624 1.08853 10.9647 1.25606C10.6669 1.42359 10.4173 1.66499 10.24 1.957Z" stroke="#CE2C31" stroke-width="1.5" stroke-linecap="round" stroke-linejoin="round"/>
</svg>
