<svg width="16" height="16" viewBox="0 0 16 16" fill="none" xmlns="http://www.w3.org/2000/svg">
<path d="M8 1.8999C6.71442 1.8999 5.45772 2.28112 4.3888 2.99535C3.31988 3.70958 2.48676 4.72474 1.99479 5.91246C1.50282 7.10018 1.37409 8.40711 1.6249 9.66799C1.8757 10.9289 2.49477 12.0871 3.40381 12.9961C4.31285 13.9051 5.47104 14.5242 6.73192 14.775C7.99279 15.0258 9.29973 14.8971 10.4874 14.4051C11.6752 13.9131 12.6903 13.08 13.4046 12.0111C14.1188 10.9422 14.5 9.68548 14.5 8.3999C14.498 6.67661 13.8126 5.02446 12.594 3.80591C11.3754 2.58735 9.7233 1.90189 8 1.8999ZM11.0957 7.26172L7.42871 10.7617C7.33548 10.8504 7.21171 10.8999 7.08301 10.8999C6.95432 10.8999 6.83054 10.8504 6.73731 10.7617L4.9043 9.01172C4.80854 8.91999 4.7531 8.79399 4.75016 8.66142C4.74723 8.52884 4.79704 8.40052 4.88865 8.30464C4.98026 8.20876 5.10618 8.15316 5.23875 8.15006C5.37132 8.14695 5.49971 8.1966 5.59571 8.28809L7.08301 9.7085L10.4043 6.53809C10.5003 6.4466 10.6287 6.39695 10.7613 6.40006C10.8938 6.40316 11.0198 6.45876 11.1114 6.55464C11.203 6.65052 11.2528 6.77884 11.2498 6.91142C11.2469 7.04399 11.1915 7.16999 11.0957 7.26172Z" fill="#CE2C31"/>
</svg>
