<svg version="1.1" id="Layer_1" xmlns="http://www.w3.org/2000/svg" xmlns:xlink="http://www.w3.org/1999/xlink" x="0px" y="0px" viewBox="0 0 100 100" xml:space="preserve"><desc>Copyright Opto 22</desc> 
<g>
<g id="shape">
	<path fill="#C1272D" d="M72.8,52.73L47.516,39.286l-3.349-1.781c0.186-0.944,0.422-1.751,0.653-2.386
		c-0.415,0.694-0.998,1.411-1.761,1.797L22.232,25.842l-7.795,4.145v5.573l-5.641-3L1,36.706v11.646l25.284,13.444l6.148,3.269
		c-0.035,0.097-0.063,0.188-0.1,0.286c-0.038,0.101-0.076,0.202-0.115,0.304c-0.209,0.544-0.437,1.104-0.69,1.682
		c-0.038,0.086-0.079,0.175-0.117,0.261c-0.273,0.614-0.565,1.242-0.891,1.895c-0.209,0.419-0.395,0.826-0.563,1.225
		c-0.06,0.142-0.106,0.277-0.16,0.417c-0.099,0.252-0.199,0.504-0.281,0.748c-0.054,0.16-0.095,0.313-0.143,0.47
		c-0.065,0.214-0.132,0.43-0.185,0.638c-0.041,0.161-0.07,0.315-0.104,0.472c-0.042,0.195-0.085,0.39-0.116,0.58
		c-0.026,0.155-0.043,0.306-0.062,0.458c-0.023,0.182-0.045,0.363-0.058,0.539c-0.011,0.148-0.015,0.292-0.02,0.437
		c-0.005,0.171-0.009,0.341-0.006,0.507c0.003,0.139,0.01,0.276,0.019,0.412c0.01,0.163,0.024,0.324,0.042,0.481
		c0.015,0.13,0.033,0.257,0.054,0.383c0.025,0.155,0.055,0.308,0.088,0.458c0.026,0.12,0.054,0.238,0.085,0.354
		c0.04,0.149,0.084,0.295,0.132,0.439c0.035,0.108,0.071,0.216,0.11,0.322c0.054,0.146,0.114,0.287,0.176,0.427
		c0.042,0.096,0.083,0.192,0.128,0.285c0.07,0.144,0.145,0.283,0.222,0.421c0.045,0.082,0.089,0.165,0.136,0.244
		c0.088,0.147,0.183,0.289,0.278,0.429c0.043,0.063,0.084,0.129,0.129,0.191c0.115,0.161,0.237,0.314,0.361,0.466
		c0.029,0.036,0.057,0.074,0.087,0.109c0.48,0.569,1.013,1.069,1.567,1.508c-0.011,0.03-0.015,0.058-0.025,0.088
		c-0.057,0.172-0.088,0.335-0.095,0.491c-0.002,0.037-0.008,0.076-0.007,0.112c0.002,0.073,0.014,0.143,0.026,0.213
		c0.007,0.039,0.013,0.077,0.023,0.115c0.018,0.068,0.042,0.134,0.069,0.199c0.015,0.034,0.031,0.068,0.048,0.102
		c0.034,0.065,0.07,0.129,0.113,0.19c0.019,0.027,0.041,0.052,0.061,0.078c0.237,0.304,0.586,0.567,1.016,0.795
		c0.026,0.014,0.051,0.028,0.078,0.042c0.098,0.05,0.2,0.097,0.305,0.143c0.033,0.015,0.067,0.029,0.101,0.044
		c0.107,0.045,0.217,0.089,0.33,0.131c0.03,0.011,0.061,0.021,0.091,0.032c0.538,0.192,1.134,0.35,1.754,0.479
		c0.019,0.004,0.038,0.008,0.057,0.012c0.141,0.029,0.282,0.056,0.424,0.082c0.036,0.007,0.072,0.013,0.108,0.02
		c0.139,0.025,0.278,0.048,0.418,0.07c0.032,0.005,0.065,0.01,0.097,0.015c0.147,0.023,0.293,0.045,0.439,0.065
		c0.002,0,0.003,0,0.005,0.001c0.49,0.067,0.972,0.121,1.431,0.163c0.011,0.001,0.022,0.002,0.033,0.003
		c0.13,0.012,0.256,0.022,0.381,0.032c0.039,0.003,0.078,0.006,0.117,0.009c0.115,0.009,0.226,0.017,0.336,0.025
		c0.043,0.003,0.084,0.006,0.126,0.008c0.105,0.007,0.207,0.013,0.306,0.019c0.04,0.002,0.078,0.004,0.117,0.006
		c0.314,0.017,0.594,0.029,0.832,0.037c0.036,0.001,0.075,0.003,0.109,0.004c0.063,0.002,0.117,0.003,0.172,0.005
		c0.036,0.001,0.071,0.002,0.104,0.003c0.05,0.001,0.094,0.002,0.136,0.003c0.029,0,0.053,0.001,0.078,0.001
		c0.035,0.001,0.066,0.001,0.093,0.001c0.024,0,0.04,0,0.058,0.001c0.021,0,0.038,0,0.051,0c0.022,0,0.034,0,0.034,0
		s0.033-0.021,0.083-0.054c0.002-0.001,0.001-0.001,0.003-0.002c0.378-0.249,2.037-1.41,3.666-3.538l2.18,2.515
		c0,0,0.539-4.315,5.933-6.472c0.861-0.345,1.293-0.953,1.429-1.776l21.173,11.258l7.795-4.145v-5.573l5.641,3l7.795-4.145V66.174
		L72.8,52.73z"></path>
</g>
<g id="hlight">
	<polygon fill="#ED1C24" points="91.209,70.453 98.019,66.832 73.54,53.816 66.729,57.437 	"></polygon>
	<path fill="#ED1C24" d="M39.65,42.405l6.215-3.305L22.451,26.651l-6.811,3.621l23.602,12.549
		C39.333,42.649,39.471,42.501,39.65,42.405z"></path>
	<path fill="#ED1C24" d="M65.195,55.988l6.215-3.305l-23.415-12.45l-6.811,3.621l23.602,12.549
		C64.878,56.231,65.016,56.084,65.195,55.988z"></path>
	<polygon fill="#ED1C24" points="55.26,63.105 53.154,64.224 77.634,77.24 79.74,76.12 65.664,68.636 	"></polygon>
	<path fill="#ED1C24" d="M14.575,36.47l-5.7-3.03l-6.81,3.621l23.601,12.549c0.092-0.173,0.229-0.32,0.409-0.416l1.511-0.803
		l-13.011-6.918V36.47z"></path>
	<path fill="#ED1C24" d="M29.716,49.522l-2.106,1.12l23.602,12.549c0.092-0.173,0.229-0.321,0.409-0.416l1.511-0.803L40.12,55.054
		L29.716,49.522z"></path>
</g>
<g id="dark">
	<path fill="#010101" d="M84.509,79.789v4.429l-6.875,3.655L54.219,75.424l-1.13-0.664V64.259l1.107-0.588l-2.13-1.132l-0.446,0.237
		c-0.327,0.174-0.531,0.513-0.531,0.883v10.101L28.674,61.842l-1.13-0.664V50.677l1.107-0.588l-2.13-1.132l-0.446,0.237
		c-0.327,0.174-0.531,0.513-0.531,0.883v10.101L2,47.658V37.095l6.875-3.655l4.7,2.499v-2.265l-4.23-2.249
		c-0.293-0.156-0.646-0.156-0.938,0l-7.875,4.188C0.204,35.785,0,36.124,0,36.494v11.765c0,0.37,0.204,0.709,0.53,0.883
		l25.544,13.583c0.001,0,0.001,0,0.002,0.001L51.62,76.307l25.544,13.582c0.146,0.078,0.308,0.117,0.469,0.117
		s0.323-0.039,0.469-0.117l7.875-4.188c0.327-0.174,0.531-0.513,0.531-0.883v-3.966L84.509,79.789z"></path>
	<path d="M99.553,65.383L74.009,51.801l0,0L48.465,38.218c-0.001,0-0.001,0-0.002-0.001L22.92,24.636
		c-0.293-0.156-0.646-0.156-0.938,0l-7.875,4.188c-0.327,0.174-0.531,0.513-0.531,0.883v11.766c0,0.37,0.204,0.709,0.531,0.883
		L39.65,55.937l25.543,13.581c0,0,0.001,0.001,0.001,0.001l25.544,13.583c0.147,0.078,0.308,0.117,0.47,0.117
		c0.161,0,0.323-0.039,0.469-0.117l7.875-4.188c0.327-0.174,0.531-0.513,0.531-0.883V66.266
		C100.084,65.896,99.88,65.557,99.553,65.383z M15.575,30.307l6.875-3.655l23.415,12.449l-6.215,3.305
		c-0.327,0.174-0.531,0.513-0.531,0.883V53.39L15.575,40.871V30.307z M41.12,43.889l6.875-3.655l23.415,12.45l-6.215,3.305
		c-0.327,0.174-0.531,0.513-0.531,0.883v10.101L41.12,54.453V43.889z M98.084,77.431l-6.875,3.655L66.664,68.035V57.472l6.875-3.655
		l24.544,13.05V77.431z"></path>
	<path d="M49.493,88.277l-2.869-3.302c-1.686,1.929-3.214,2.885-3.288,2.93l-0.241,0.149h-0.284c-1.471,0-8.9-0.136-10.731-2.793
		c-0.358-0.521-0.505-1.103-0.436-1.712c-2.935-2.567-5.371-7.066-1.715-14.379c5.562-11.123,2.967-16.368,2.39-17.307l1.684-1.079
		c0.577,0.863,2.192,3.347,3.924,6.589c-0.22-2.333-0.725-4.692-1.513-7.056l1.823-0.802c1.063,1.912,1.98,2.963,2.722,3.524
		c-0.033-3.657-0.231-6.2-0.234-6.229l1.874-0.56c0.042,0.075,0.915,1.682,2.388,5.326c1.037-1.702,1.872-4.282,2.284-7.167
		l0.515-3.607l1.398,3.365c0.061,0.146,1.322,3.223,2.03,8.003c0.103-0.104,0.162-0.16,0.169-0.167l2.607-2.499l-0.95,3.483
		c-1.633,5.987,0.613,12.176,2.417,17.148c1.718,4.734,3.201,8.822-0.286,10.218c-4.79,1.916-5.352,5.585-5.374,5.74L49.493,88.277z
		"></path>
	<path d="M32.339,51.896l-0.16-0.237l1.605-1.19c0,0,0.094,0.114,0.238,0.35L32.339,51.896z"></path>
	<path d="M46.129,35.404l-1.798-0.855c0.45-1.236,0.882-1.938,0.9-1.967l1.806,0.817C47.026,33.439,46.733,34.396,46.129,35.404z"></path>
	<path d="M45.196,49.923l-8.173-15.529l1.674-1.08c1.725,2.219,2.918,2.685,3.616,2.685c0.934,0,1.657-0.882,2.1-1.621l1.798,0.855
		c-0.865,2.382-1.913,7.347,0.792,13.84L45.196,49.923z"></path>
</g>
<g id="linear">
	
		<linearGradient class="linear" id="SVGID_1_" gradientUnits="userSpaceOnUse" x1="0" y1="42" x2="0" y2="71">
		<stop offset="0" style="stop-color:#FCEE21"></stop>
		<stop offset="1" style="stop-color:#ED1C24"></stop>
		
	</linearGradient>
	<path class="linear" fill="url(#SVGID_1_)" d="M36.272,71.798c0,0,5.449-8.718,1.09-21.796c5.449,9.808,9.808,2.18,10.898-5.449
		c0,0,5.449,13.078,0,27.245"></path>
	
		<linearGradient class="linear" id="SVGID_2_" gradientUnits="userSpaceOnUse" x1="0" y1="52" x2="0" y2="85">
		<stop offset="0" style="stop-color:#FCEE21"></stop>
		<stop offset="1" style="stop-color:#ED1C24"></stop>
		
	</linearGradient>
	<path class="linear" fill="url(#SVGID_2_)" d="M41.721,77.792c-2.18-13.078,10.353-25.065,10.353-25.065c-3.269,11.988,8.173,24.52,2.724,26.7
		c-5.449,2.18-5.994,6.539-5.994,6.539"></path>
	
		<linearGradient class="linear" id="SVGID_3_" gradientUnits="userSpaceOnUse" x1="0" y1="51" x2="0" y2="85">
		<stop offset="0" style="stop-color:#FCEE21"></stop>
		<stop offset="1" style="stop-color:#ED1C24"></stop>
		
	</linearGradient>
	<path class="linear" fill="url(#SVGID_3_)" d="M38.452,85.965c0,0-14.167-3.269-7.629-16.347s2.18-18.527,2.18-18.527s11.988,17.437,8.718,26.155"></path>
	
		<linearGradient class="linear" id="SVGID_4_" gradientUnits="userSpaceOnUse" x1="0" y1="46" x2="0" y2="85">
		<stop offset="0" style="stop-color:#FCEE21"></stop>
		<stop offset="1" style="stop-color:#ED1C24"></stop>
		
	</linearGradient>
	<path class="linear" fill="url(#SVGID_4_)" d="M42.811,87.055c0,0,10.626-6.539,6.266-20.706s-7.356-19.616-7.356-19.616s2.18,27.245-6.539,33.784
		C26.464,87.055,42.811,87.055,42.811,87.055z"></path>
	
		<linearGradient class="linear" id="SVGID_5_" gradientUnits="userSpaceOnUse" x1="0" y1="32" x2="0" y2="50">
		<stop offset="0" style="stop-color:#FCEE21"></stop>
		<stop offset="1" style="stop-color:#ED1C24"></stop>
		
	</linearGradient>
	<path class="linear" fill="url(#SVGID_5_)" d="M37.907,33.927c5.721,7.356,8.173-0.817,8.173-0.817s-4.087,6.539,0,16.347"></path>
</g>
<g id="shadow">
	<path fill="#ED1C24" d="M58.084,69.5c0,0,1,2.5,0,5s1.5,3.5,2,0S58.084,69.5,58.084,69.5z"></path>
	<path fill="#ED1C24" d="M31.501,79.417c0,0-2.5-4.5,0.5-8.5C28.001,73.417,28.733,78.585,31.501,79.417z"></path>
</g>
<g id="light">
	<path fill="#FCEE21" d="M54.584,58c0,0-1-2.5,0.5-6C56.084,57,54.584,58,54.584,58z"></path>
	<path fill="#FCEE21" d="M38.084,48c0,0-1.167-1.5-1.333-4.5C36.251,48.167,38.084,48,38.084,48z"></path>
	<path fill="#FCEE21" d="M34.667,49c0,0-0.583-2-0.75-3.667c-0.333,1.333-0.667,3-1.833,2.333c1.333,0.833,2.5,1.5,3,2.667
		L34.667,49z"></path>
</g>
</g>
</svg>