<svg width="71" height="70" viewBox="0 0 71 70" fill="none" xmlns="http://www.w3.org/2000/svg">
<g clip-path="url(#clip0_3601_9866)">
<path d="M22.7389 0.515625L21.8716 2.01923V4.35233L26.6456 11.3495V26.2637L22.5975 30.169V31.6558L0.640625 42.72C0.640625 47.6788 0.800925 51.6989 0.999025 51.6989L23.5894 44.9782C23.5593 44.9782 23.5299 44.9054 23.5019 44.7829C23.8064 45.0692 24.2306 45.2148 24.6646 45.1462L56.5405 40.1391C61.9452 39.2949 65.9289 34.6399 65.9289 29.1694V10.8287L70.1247 3.31143V0.515625H22.7389Z" fill="#E6E6E6"/>
<path d="M26.2329 10.7494L23.5547 6.8252V29.2434L26.2329 26.6604V10.7494Z" fill="#187AA0"/>
<path d="M65.9915 10.7138V44.5182H28.6591L24.6621 45.1461C24.2547 45.2098 23.8543 45.088 23.5547 44.8367V67.4089L24.3093 67.9332H26.2322V46.7813H65.9908V67.3501L66.7048 67.9325H68.6683V46.7813V44.5182V6.97582V5.91602L65.9915 10.7138Z" fill="#187AA0"/>
<path d="M67.608 4.53809H25.8943L25.1719 5.12049V68.8401L25.8943 69.3644H27.8494V47.6763H67.608V68.7967L68.322 69.3658H70.2855V47.6763V45.3558V6.85929V4.53809H67.608ZM67.608 45.3558H27.8494V6.85929H67.608V45.3558Z" fill="#187AA0"/>
<path d="M65.9922 10.7132V44.5176L66.7062 44.8088V9.43359L65.9922 10.7132Z" fill="#115670"/>
<path d="M66.7062 67.9331V46.7812H65.9922V67.35" fill="#115670"/>
<path d="M24.31 7.9312L23.5547 6.8252V29.2434L24.31 28.5154V7.9312Z" fill="#115670"/>
<path d="M23.5547 44.8369V67.4091L24.3093 67.9334V45.1512C24.03 45.1239 23.7668 45.0147 23.5547 44.8369Z" fill="#115670"/>
<path d="M25.8943 4.53809L25.1719 5.12119V68.8408L25.8943 69.3651V4.53809Z" fill="#115670"/>
<path d="M68.3234 45.5301V6.45117L67.6094 6.85927V45.1808" fill="#115670"/>
<path d="M68.3234 69.3215V47.6768H67.6094V68.7965" fill="#115670"/>
<path d="M68.3242 6.45117H27.8516V6.85927H67.6102L68.3242 6.45117Z" fill="#115670"/>
<path d="M22.7345 3.3125L21.8672 4.3534L25.1712 9.196V7.1492L22.7345 3.3125Z" fill="#1A1A1A"/>
<path d="M65.9245 10.8291H27.5078V11.2533H65.9245V10.8291Z" fill="#1A1A1A"/>
<path d="M69.8892 3.7367H23.0809L22.7344 3.3125H70.1202L69.8892 3.7367Z" fill="#1A1A1A"/>
<path d="M27.8326 11.2109H27.5078V44.8732H27.8326V11.2109Z" fill="#1A1A1A"/>
<path d="M22.5938 30.1694L23.461 30.574L25.1718 28.8261V27.6816L22.5938 30.1694Z" fill="white"/>
<path d="M23.0116 31.2188L0.523438 42.5503C0.523438 47.5091 0.683738 51.5292 0.881838 51.5292L0.995938 51.7001C0.797838 51.7001 0.637537 47.6799 0.637537 42.7211L23.125 31.3895L23.0116 31.2188Z" fill="#F2F2F2"/>
<path d="M24.0965 31.9005L1.4725 42.8338C1.4725 47.7926 1.3122 51.8127 1.1141 51.8127L1 51.6986C1.1981 51.6986 1.3584 47.6785 1.3584 42.7197L23.9831 31.7871L24.0965 31.9005Z" fill="#F2F2F2"/>
</g>
<defs>
<clipPath id="clip0_3601_9866">
<rect width="70" height="70" fill="white" transform="translate(0.296875)"/>
</clipPath>
</defs>
</svg>
