<svg width="71" height="70" viewBox="0 0 71 70" fill="none" xmlns="http://www.w3.org/2000/svg">
<g clip-path="url(#clip0_3601_9894)">
<path d="M0.515625 0.513672V3.30947L4.71142 10.8268V29.1675C4.71142 34.638 8.69512 39.293 14.0998 40.1372L45.9757 45.1443C46.4097 45.2129 46.8339 45.0673 47.1384 44.781C47.1104 44.9035 47.081 44.9763 47.0509 44.9763L69.6413 51.697C69.8394 51.697 69.9997 47.6769 69.9997 42.7181L48.0428 31.6539V30.1671L43.9947 26.2618V11.3476L48.7687 4.35037V2.01727L47.9014 0.513672H0.515625Z" fill="#E6E6E6"/>
<path d="M44.4062 26.6594L47.0845 29.2424V6.82422L44.4062 10.7484V26.6594Z" fill="#187AA0"/>
<path d="M1.96875 5.91504V6.97484V44.5172V46.7803V67.9315H3.93225L4.64625 67.3491V46.7803H44.4049V67.9322H46.3277L47.0823 67.4079V44.8357C46.7827 45.087 46.3824 45.2088 45.975 45.1451L41.978 44.5172H4.64555V10.7128L1.96875 5.91504Z" fill="#187AA0"/>
<path d="M0.351562 4.53711V6.85831V45.3548V47.6753V69.3648H2.31506L3.02906 68.7957V47.6753H42.7877V69.3634H44.7428L45.4652 68.8391V5.11951L44.7428 4.53711H3.02906H0.351562ZM3.02906 6.85831H42.7877V45.3548H3.02906V6.85831Z" fill="#187AA0"/>
<path d="M3.92969 9.43262V44.8078L4.64369 44.5166V10.7122L3.92969 9.43262Z" fill="#115670"/>
<path d="M4.64369 67.3491V46.7803H3.92969V67.9322" fill="#115670"/>
<path d="M46.3281 28.5144L47.0834 29.2424V6.82422L46.3281 7.93022V28.5144Z" fill="#115670"/>
<path d="M46.3281 45.1502V67.9324L47.0827 67.4081V44.8359C46.8706 45.0137 46.6074 45.1229 46.3281 45.1502Z" fill="#115670"/>
<path d="M44.7422 69.3641L45.4646 68.8398V5.12021L44.7422 4.53711V69.3641Z" fill="#115670"/>
<path d="M3.0265 45.1798V6.8583L2.3125 6.4502V45.5291" fill="#115670"/>
<path d="M3.0265 68.7955V47.6758H2.3125V69.3205" fill="#115670"/>
<path d="M3.0265 6.8583H42.7851V6.4502H2.3125L3.0265 6.8583Z" fill="#115670"/>
<path d="M45.4688 7.14725V9.19405L48.7728 4.35145L47.9055 3.31055L45.4688 7.14725Z" fill="#1A1A1A"/>
<path d="M43.1276 10.8271H4.71094V11.2513H43.1276V10.8271Z" fill="#1A1A1A"/>
<path d="M0.515625 3.31055H47.9014L47.5549 3.73475H0.746625L0.515625 3.31055Z" fill="#1A1A1A"/>
<path d="M43.1295 11.209H42.8047V44.8713H43.1295V11.209Z" fill="#1A1A1A"/>
<path d="M45.4688 27.6816V28.8261L47.1796 30.574L48.0469 30.1694L45.4688 27.6816Z" fill="white"/>
<path d="M47.5156 31.3895L70.0031 42.7211C70.0031 47.6799 69.8428 51.7001 69.6447 51.7001L69.7588 51.5292C69.9569 51.5292 70.1172 47.5091 70.1172 42.5503L47.629 31.2188L47.5156 31.3895Z" fill="#F2F2F2"/>
<path d="M46.6603 31.7871L69.285 42.7197C69.285 47.6785 69.4453 51.6986 69.6434 51.6986L69.5293 51.8127C69.3312 51.8127 69.1709 47.7926 69.1709 42.8338L46.5469 31.9005L46.6603 31.7871Z" fill="#F2F2F2"/>
</g>
<defs>
<clipPath id="clip0_3601_9894">
<rect width="70" height="70" fill="white" transform="translate(0.335938)"/>
</clipPath>
</defs>
</svg>
