<svg width="71" height="71" viewBox="0 0 71 71" fill="none" xmlns="http://www.w3.org/2000/svg">
<g clip-path="url(#clip0_3601_9922)">
<path d="M1.91217 46.1323L7.78447 40.4672V18.8309L0.859375 8.68093V5.29643L2.11797 3.11523H70.8594V7.17033L64.7729 18.0763V44.6819C64.7729 52.6171 58.993 59.37 51.153 60.595L4.91167 67.8589C3.98137 68.0052 3.07417 67.4872 2.72767 66.6115L1.91287 64.5542V46.1323H1.91217Z" fill="#E6E6E6"/>
<path d="M2.11797 7.17188L9.04307 18.0772L7.78447 18.8318L0.859375 8.68177L2.11797 7.17188Z" fill="#1A1A1A"/>
<path d="M3.17188 47.1401L9.04418 41.139V40.7197L3.17188 46.7208V47.1401Z" fill="#1A1A1A"/>
<path d="M2.591 66.1664C2.88288 66.1664 3.1195 62.0621 3.1195 56.9992C3.1195 51.9363 2.88288 47.832 2.591 47.832C2.29912 47.832 2.0625 51.9363 2.0625 56.9992C2.0625 62.0621 2.29912 66.1664 2.591 66.1664Z" fill="#1A1A1A"/>
<path d="M64.7774 18.0762H9.04688V18.6922H64.7774V18.0762Z" fill="#1A1A1A"/>
<path d="M70.5233 7.78717H2.62049L2.11719 7.17188H70.8586L70.5233 7.78717Z" fill="#1A1A1A"/>
<path d="M9.51798 18.6299H9.04688V67.4633H9.51798V18.6299Z" fill="#1A1A1A"/>
<path d="M9.04496 40.7191L3.17266 46.7202L1.91406 46.1329L7.78636 40.4678L9.04496 40.7191Z" fill="white"/>
</g>
<defs>
<clipPath id="clip0_3601_9922">
<rect width="70" height="70" fill="white" transform="translate(0.859375 0.5)"/>
</clipPath>
</defs>
</svg>
