<svg width="71" height="71" viewBox="0 0 71 71" fill="none" xmlns="http://www.w3.org/2000/svg">
<path d="M69.4003 28.6599L67.8064 20.3726L46.6335 20.0996L38.4673 21.0068C38.4386 20.9767 38.4085 20.948 38.3798 20.9186C38.2986 20.8346 38.216 20.752 38.1327 20.6694C38.0046 20.5413 37.8758 20.4139 37.7435 20.2886C37.6595 20.2095 37.5741 20.1325 37.4887 20.0548C37.3522 19.9302 37.215 19.8063 37.0743 19.6859C36.9889 19.6124 36.9007 19.541 36.8139 19.4689C36.6683 19.3485 36.5234 19.2281 36.3743 19.1112C36.2882 19.0433 36.1993 18.9782 36.1111 18.9117C35.9564 18.7948 35.8017 18.6779 35.6435 18.5652C35.5581 18.5043 35.4699 18.4462 35.3838 18.3867C35.2179 18.2726 35.0527 18.1585 34.8833 18.0493C34.8021 17.9968 34.7181 17.9471 34.6362 17.896C34.457 17.784 34.2785 17.672 34.0951 17.5649C34.0223 17.5222 33.9467 17.4823 33.8732 17.441C33.6772 17.3297 33.4812 17.2184 33.2803 17.1127C33.2257 17.084 33.1697 17.0581 33.1151 17.0301C32.8918 16.9153 32.6678 16.8012 32.4396 16.6941C32.4368 16.6927 32.434 16.6913 32.4305 16.6899C31.3203 16.1677 30.1485 15.733 28.927 15.3956C28.92 15.3935 28.913 15.3914 28.9053 15.3893C28.6519 15.3193 28.395 15.257 28.1381 15.1954C28.0772 15.1807 28.0177 15.1646 27.9575 15.1506C27.7237 15.0974 27.4878 15.0505 27.2505 15.0043C27.163 14.9875 27.0769 14.9679 26.9894 14.9518C26.7647 14.9105 26.5372 14.8755 26.3097 14.8412C26.2082 14.8258 26.1081 14.8083 26.0059 14.7936C25.7868 14.7628 25.5663 14.739 25.3451 14.7145C25.2317 14.7019 25.1183 14.6872 25.0042 14.6767C24.7893 14.6564 24.5723 14.6417 24.3553 14.627C24.2335 14.6186 24.1117 14.6088 23.9892 14.6025C23.7764 14.5913 23.5615 14.5864 23.3466 14.5808C23.2521 14.5787 23.1583 14.5724 23.0631 14.571V14.0859H22.3022V14.5731C22.2091 14.5752 22.1181 14.5815 22.025 14.5843C21.8493 14.5899 21.6736 14.5962 21.4986 14.606C21.3341 14.6151 21.1703 14.6263 21.0065 14.6389C20.8322 14.6522 20.6586 14.6655 20.4864 14.6823C20.324 14.6984 20.1637 14.7166 20.0027 14.7362C19.8305 14.7565 19.659 14.7775 19.4882 14.8013C19.3293 14.8237 19.1725 14.8496 19.015 14.8748C18.8449 14.9028 18.6748 14.9301 18.5061 14.9616C18.3507 14.9903 18.1967 15.0232 18.042 15.0554C17.8747 15.0904 17.7074 15.124 17.5422 15.1625C17.3896 15.1975 17.2384 15.2367 17.0872 15.2752C16.9227 15.3172 16.7575 15.3578 16.5951 15.4026C16.4474 15.4439 16.3018 15.4887 16.1555 15.5328C15.9924 15.5818 15.8286 15.6294 15.6676 15.6819C15.5262 15.7281 15.3869 15.7785 15.2469 15.8268C15.0845 15.8835 14.9214 15.9381 14.7611 15.9976C14.6274 16.048 14.4958 16.1019 14.3635 16.1544C14.2004 16.2188 14.0366 16.2818 13.8763 16.3497C13.7538 16.4015 13.6348 16.4582 13.5144 16.5121C13.3478 16.5863 13.1798 16.6591 13.0153 16.7375C12.9215 16.7823 12.8312 16.8306 12.7381 16.8768C12.092 17.1967 11.4683 17.546 10.8684 17.9233C10.7823 17.9772 10.6941 18.029 10.6094 18.0843C10.4526 18.1865 10.3007 18.2929 10.1474 18.3986C10.0501 18.4658 9.94999 18.5309 9.85409 18.6002C9.70779 18.7052 9.56569 18.8144 9.42289 18.9229C9.32419 18.9971 9.22409 19.0699 9.12749 19.1462C8.98889 19.2554 8.85449 19.3688 8.71939 19.4808C8.62349 19.5606 8.52619 19.639 8.43169 19.7202C8.30009 19.8336 8.17339 19.9512 8.04529 20.0674C7.95219 20.1521 7.85769 20.2361 7.76669 20.3229C7.64209 20.4412 7.52169 20.5623 7.40059 20.6834C7.31169 20.7723 7.22209 20.8605 7.13529 20.9515C7.01769 21.0747 6.90359 21.2 6.78949 21.326C6.70479 21.4191 6.62009 21.5115 6.53749 21.606C6.42619 21.7341 6.31839 21.8643 6.21059 21.9945C6.13149 22.0904 6.05239 22.1856 5.97539 22.2829C5.87039 22.4166 5.76819 22.5517 5.66669 22.6875C5.59319 22.7862 5.52039 22.8842 5.44899 22.9843C5.35029 23.1222 5.25509 23.2622 5.16129 23.4029C5.09339 23.5044 5.02619 23.6052 4.96039 23.7081C4.86869 23.8509 4.78049 23.9958 4.69299 24.1407C4.63139 24.2443 4.56979 24.3479 4.51029 24.4522C4.42629 24.5999 4.34439 24.749 4.26459 24.8988C4.20859 25.0045 4.15399 25.1102 4.10009 25.2173C4.02309 25.3692 3.94889 25.5225 3.87679 25.6765C3.82639 25.7843 3.77809 25.8921 3.73049 26.0006C3.66119 26.1574 3.59469 26.3149 3.53029 26.4738C3.48689 26.5823 3.44489 26.6915 3.40359 26.8014C3.34269 26.9631 3.28319 27.1248 3.22719 27.2886C3.19149 27.3992 3.15719 27.5091 3.12219 27.6197C3.06969 27.7863 3.01789 27.9529 2.97029 28.1209C2.93949 28.2308 2.91149 28.3414 2.88279 28.4527C2.83869 28.6235 2.79529 28.795 2.75679 28.9679C2.73229 29.0778 2.71129 29.1884 2.68889 29.299C2.65389 29.4754 2.61889 29.6511 2.58949 29.8296C2.57129 29.9388 2.55729 30.0487 2.54189 30.1586C2.51599 30.3399 2.49009 30.5212 2.47049 30.7039C2.45859 30.8117 2.45159 30.9202 2.44249 31.028C2.42639 31.2156 2.40959 31.4025 2.39979 31.5915C2.39909 31.609 2.39699 31.6265 2.39559 31.644H1.61719V32.5547L5.60579 45.6944H5.96979C8.24269 52.0483 14.7289 56.6445 22.3981 56.7208L22.41 57.1338H22.9567L22.9693 56.7138C30.425 56.5675 36.7348 52.1512 39.0896 46.0171L41.4353 39.8599C41.5123 40.4717 41.5648 41.0912 41.5648 41.7226C41.5648 42.6809 41.4696 43.6189 41.2932 44.531C41.268 44.6255 41.24 44.7186 41.2127 44.8124C41.128 45.1064 41.0349 45.3969 40.9327 45.6839C40.8879 45.8099 40.841 45.9359 40.7927 46.0605C40.687 46.3342 40.5715 46.6044 40.4497 46.8711C40.393 46.9957 40.3377 47.121 40.2775 47.2442C40.1452 47.5151 40.001 47.7804 39.8533 48.0436C39.7931 48.1507 39.7371 48.2606 39.6741 48.3663C39.4592 48.7275 39.2317 49.0824 38.9881 49.4261L38.7452 50.4572L42.1122 52.2492C42.9816 50.9997 43.697 49.6522 44.2423 48.2319C44.3501 48.2361 44.4579 48.2389 44.5671 48.2389C48.1714 48.2389 51.1464 45.7777 51.6091 42.5885C51.6658 42.417 51.7134 42.242 51.7547 42.0649C51.7687 42.0047 51.7799 41.9438 51.7918 41.8836C51.8198 41.7457 51.8429 41.6071 51.8611 41.4664C51.8688 41.4062 51.8772 41.346 51.8835 41.2858C51.9031 41.0898 51.9164 40.8917 51.9164 40.6908C51.9164 38.9485 51.166 37.37 49.9522 36.2003L53.0028 30.3567L56.3159 30.3833L56.136 30.7242L56.0646 30.9111C55.702 32.1151 56.8899 33.5368 58.7176 34.087C60.2366 34.5441 61.7199 34.255 62.3849 33.4528L62.5711 33.2134L64.5668 30.4498L68.4903 30.4813L69.4003 28.6599ZM44.81 34.1731C44.7022 34.1731 44.5951 34.1752 44.4887 34.1801C44.2752 33.6243 44.0267 33.0853 43.7621 32.554H43.8874V31.6433H43.2805C43.2357 31.5649 43.1874 31.4886 43.1419 31.4102C43.1335 31.2772 43.1188 31.1463 43.1076 31.0147C43.0985 30.9104 43.0915 30.8054 43.0803 30.7018C43.06 30.5142 43.0334 30.3287 43.0068 30.1432C42.9942 30.0571 42.9851 29.9696 42.9718 29.8835L45.9062 30.2993L47.8137 30.3147L46.0238 34.2753C45.6283 34.2123 45.2244 34.1731 44.81 34.1731Z" fill="#E6E6E6"/>
<path d="M40.8446 29.5829L29.5781 27.9876L29.1574 31.398C29.1154 31.6969 28.6779 31.8824 28.1795 31.8124C27.6811 31.7424 27.3115 31.4435 27.3535 31.1446L27.7742 27.7328L25.3256 27.3863V22.4688L34.637 21.4342C31.3959 19.1165 27.2702 17.7256 22.7755 17.7256C12.3539 17.7256 3.90625 25.1883 3.90625 34.3947C3.90625 35.4741 4.02385 36.5283 4.24575 37.5503C6.79025 44.4432 14.1242 49.4244 22.7762 49.4244C31.4282 49.4244 38.7621 44.4432 41.3066 37.5503C41.5285 36.5283 41.6461 35.4734 41.6461 34.3947C41.6461 32.721 41.364 31.1068 40.8446 29.5829Z" fill="#DEC99C"/>
<path d="M26.2815 36.5239C26.2815 36.5239 30.2883 34.3385 29.1046 31.6064C30.2883 32.2441 30.835 35.2492 23.9141 37.3436" fill="#665C48"/>
<path d="M27.6857 31.7418C27.6857 31.7418 27.4862 31.3428 27.048 31.4688C25.6214 31.8783 22.4035 31.2868 22.5855 28.5547C22.4945 32.6525 26.5923 32.1975 27.048 31.9238C27.503 31.6508 28.0497 32.2423 28.0497 32.2423L27.6857 31.7418Z" fill="#665C48"/>
<path d="M28.0234 31.8483C28.0234 31.8483 28.3573 32.0912 28.4483 32.2431C28.6611 32.0303 28.8123 31.8791 28.9033 31.7881C28.4182 32.0303 28.0234 31.8483 28.0234 31.8483Z" fill="#665C48"/>
<path d="M22.4135 37.5593C19.3223 37.5593 16.1485 36.1992 15.6249 34.4464L15.6172 34.2217C16.1905 36.1383 20.5291 37.7777 23.7624 37.3017L23.2626 37.4753C22.8762 37.532 22.8237 37.5593 22.4135 37.5593Z" fill="#665C48"/>
<path d="M30.3828 39.2815L30.4577 39.138C32.599 37.6519 33.6259 35.1046 33.2066 32.943L33.3781 32.7344C33.8114 34.9625 32.5794 37.7576 30.3828 39.2815Z" fill="#665C48"/>
<path d="M37.8369 34.1077C37.7466 32.1701 35.5451 29.7642 34.2578 29.1426L34.5084 29.1594C35.8349 29.7999 37.7431 31.9223 37.8362 33.9243L37.8369 34.1077Z" fill="#665C48"/>
<path d="M29.4219 30.7559C29.4219 30.7559 30.2416 30.9379 30.8793 32.2133C30.0596 31.2116 29.6046 31.3936 29.6046 31.3936L29.4219 30.7559Z" fill="#665C48"/>
<path d="M28.3243 32.7603C28.3243 32.7603 28.0513 33.58 27.1406 33.762C28.689 33.307 28.78 32.4873 28.78 32.4873L28.3243 32.7603Z" fill="#665C48"/>
<path d="M27.6174 28.9565L27.6867 28.3965C26.4932 29.1434 26.3672 30.4678 26.3672 30.4678C26.5611 30.4839 26.7193 30.57 26.8446 30.6736C26.6535 30.2844 26.6304 29.6663 27.6174 28.9565Z" fill="#665C48"/>
<path d="M27.186 31.1048C27.186 31.1048 27.0705 30.8598 26.8438 30.6729C26.976 30.9445 27.186 31.1048 27.186 31.1048Z" fill="#665C48"/>
<path d="M33.7109 28.8584C34.203 29.0495 34.5159 29.1923 34.5159 29.1923C34.5159 29.1923 34.2044 29.0425 33.7109 28.8584Z" fill="#665C48"/>
<path d="M29.5749 27.9893L29.5469 28.2182C31.0988 28.0194 32.7599 28.5024 33.7161 28.8594C33.3381 28.7131 32.853 28.5381 32.3203 28.3778L29.5749 27.9893Z" fill="#665C48"/>
<path d="M29.3093 30.1035L29.2812 30.3324L29.6446 30.3758C32.4222 30.8308 33.2873 32.9259 33.2873 32.9259C32.4963 30.2631 29.7741 30.1105 29.3093 30.1035Z" fill="#665C48"/>
<path d="M25.3196 25.6328C23.9847 25.9387 22.6855 26.8214 22.4559 28.0835L22.4531 28.115C22.661 26.9733 24.0533 26.1228 25.3196 25.8148V25.6328Z" fill="#665C48"/>
<path d="M21.0969 17.8252C18.88 18.0583 14.855 18.7002 12.405 21.0333C9.95498 23.3664 7.97187 25.2333 7.27187 25.5252C6.57187 25.8171 6.04688 26.6921 6.04688 26.6921C6.04688 26.6921 6.68877 25.8171 7.50567 25.7002C8.32257 25.5833 11.5307 22.1421 13.5138 20.3921C15.4969 18.6421 21.0969 17.8252 21.0969 17.8252Z" fill="#665C48"/>
<path d="M33.2273 20.6834C33.2273 20.6834 29.3808 18.5463 26.1104 18.4665C22.8729 18.3874 20.6245 18.8697 19.1293 19.4787C18.4153 19.7699 17.8728 20.0898 17.4766 20.3915C17.4766 20.3915 18.4685 20.3915 18.8766 19.8665C19.2854 19.3422 22.4354 18.6422 24.3604 18.7003C26.2854 18.7584 29.2604 18.7003 33.2273 20.6834Z" fill="#665C48"/>
<path d="M7.67956 31.8828C7.67956 31.8828 6.51266 32.5828 7.56266 33.8659C7.56266 33.4578 7.56266 33.4578 7.56266 33.4578C7.56266 33.4578 6.92076 33.2828 7.03766 32.8159C7.15456 32.3497 7.50456 32.3497 7.50456 32.3497L7.67956 31.8828Z" fill="#665C48"/>
<path d="M8.96304 38.7669C7.25784 36.9063 10.013 39.875 11.2961 40.8088C12.5792 41.7419 12.3461 42.1507 13.338 42.6169C14.3299 43.0838 16.7799 43.1419 18.1211 43.0838C18.1211 43.0838 14.5042 43.0257 13.3961 42.3838C12.288 41.7419 11.238 41.2169 11.0042 40.9257C10.7711 40.6331 9.60494 39.4669 8.96304 38.7669Z" fill="#665C48"/>
<path d="M24.5366 46.2328C26.4952 45.6567 27.9785 45.4747 28.7366 45.1247C29.4947 44.7747 30.6616 44.0747 31.1285 43.2578C31.1285 43.2578 30.5216 44.8818 27.6285 45.7659C25.5285 46.4078 23.5447 46.5247 24.5366 46.2328Z" fill="#665C48"/>
<path d="M21.7422 22.4932C18.4172 23.0182 13.9841 25.0601 12.9922 29.9601C12.9922 29.9601 14.5672 25.527 16.3753 24.302C18.1834 23.077 21.7422 22.4932 21.7422 22.4932Z" fill="#665C48"/>
<path d="M44.807 47.2089C44.6985 47.2089 44.59 47.2061 44.4822 47.2019C43.9369 48.6229 43.2208 49.9697 42.3521 51.2192L38.9851 49.4272L38.7422 50.4597L42.1092 52.2517C42.9786 51.0022 43.694 49.6547 44.2393 48.2344C44.3471 48.2386 44.4549 48.2414 44.5641 48.2414C48.1684 48.2414 51.1434 45.7802 51.6061 42.591C51.6628 42.4195 51.7104 42.2445 51.7517 42.0674C51.0629 45.0053 48.2167 47.2089 44.807 47.2089Z" fill="#231F20"/>
<path d="M44.8639 41.7659C43.8496 41.3088 43.2315 40.4233 43.3281 39.6582C43.3148 39.682 43.2959 39.7016 43.2847 39.7268C42.913 40.5521 43.5591 41.6483 44.7281 42.1754C45.8971 42.7025 47.1466 42.4617 47.519 41.6364C47.568 41.5272 47.5974 41.4124 47.6121 41.2955C47.1984 42.0606 45.9972 42.2769 44.8639 41.7659Z" fill="#231F20"/>
<path d="M46.1344 46.1414L45.6535 45.8873L45.6626 45.5898L45.5772 45.6297L45.5625 46.1155L46.0434 46.3689L46.539 46.1372L46.5446 45.9496L46.1344 46.1414Z" fill="#231F20"/>
<path d="M41.8219 49.1167L41.341 48.8626L41.3501 48.5645L41.2647 48.6044L41.25 49.0902L41.7309 49.3443L42.2265 49.1126L42.2321 48.925L41.8219 49.1167Z" fill="#231F20"/>
<path d="M50.8063 40.3123L50.3254 40.0582L50.3345 39.7607L50.2491 39.8006L50.2344 40.2864L50.7153 40.5398L51.2109 40.3081L51.2165 40.1205L50.8063 40.3123Z" fill="#231F20"/>
<path d="M58.1315 30.4004L57.1172 32.0433C57.1935 32.1224 57.2733 32.2001 57.3594 32.275L58.5151 30.4032L58.1315 30.4004Z" fill="#231F20"/>
<path d="M56.8876 30.3906L56.4844 31.0689C56.5208 31.1683 56.5635 31.267 56.616 31.365L57.1935 30.3927L56.8876 30.3906Z" fill="#231F20"/>
<path d="M59.4138 30.4111L57.9844 32.726C58.109 32.8016 58.2399 32.8723 58.375 32.9388L59.9332 30.4153L59.4138 30.4111Z" fill="#231F20"/>
<path d="M60.9379 30.4219L59.1172 33.2338C59.1431 33.2422 59.1683 33.252 59.1942 33.2597C59.3181 33.2968 59.442 33.3283 59.5659 33.3556L61.4629 30.4254L60.9379 30.4219Z" fill="#231F20"/>
<path d="M63.659 30.4453L61.6094 33.3146L61.7774 33.3426C61.8278 33.3286 61.8782 33.3146 61.9265 33.2985L63.9628 30.4474L63.659 30.4453Z" fill="#231F20"/>
<path d="M62.4737 30.4346L60.3828 33.4761C60.5312 33.4852 60.6768 33.4866 60.8196 33.4824L62.9126 30.4381L62.4737 30.4346Z" fill="#231F20"/>
<path d="M51.7969 41.8859C51.8249 41.748 51.848 41.6095 51.8662 41.4688C51.848 41.6095 51.8242 41.7487 51.7969 41.8859Z" fill="#231F20"/>
<path d="M39.8516 48.0445C40 47.7813 40.1435 47.516 40.2758 47.2451C40.1435 47.5167 40 47.782 39.8516 48.0445Z" fill="#231F20"/>
<path d="M40.4531 46.8721C40.5749 46.6054 40.6897 46.3359 40.7961 46.0615C40.6897 46.3359 40.5742 46.6054 40.4531 46.8721Z" fill="#231F20"/>
<path d="M41.439 39.8622C41.516 40.474 41.5685 41.0935 41.5685 41.7249C41.5685 42.6832 41.4733 43.6212 41.2969 44.5333C41.6273 43.302 41.8114 42.0182 41.8114 40.6931C41.8114 40.1639 41.7736 39.6438 41.719 39.1279L41.439 39.8622Z" fill="#231F20"/>
<path d="M2.37599 32.3959C2.37599 32.1446 2.38579 31.8947 2.39769 31.6455H1.61719V32.5562L5.60579 45.6959H5.96979L3.34199 37.8321C2.71479 36.1185 2.37599 34.2922 2.37599 32.3959Z" fill="#231F20"/>
<path d="M39.2109 45.6971H39.6484L42.0578 38.2246L39.2109 45.6971Z" fill="#231F20"/>
<path d="M43.8901 32.5557H43.1733L43.1691 32.5697C43.1544 33.8976 42.9703 35.1891 42.6406 36.433L43.8901 32.5557Z" fill="#231F20"/>
<path d="M22.4086 57.1363H22.9546L23.1373 50.9434H22.2266L22.4086 57.1363Z" fill="#231F20"/>
<path d="M52.6528 30.3564L46.8281 41.5144C47.1354 41.3835 47.3797 41.1679 47.512 40.8746L53.0014 30.3592L52.6528 30.3564Z" fill="#808080"/>
<path d="M47.8159 30.3164L43.8021 39.2008C43.7216 39.3793 43.6943 39.5704 43.7055 39.7643L47.9741 30.3178L47.8159 30.3164Z" fill="#808080"/>
<path d="M42.1119 37.7346L39.0886 45.6691C36.6939 51.9075 30.2105 56.3798 22.5889 56.3798C14.8357 56.3798 8.2613 51.7528 5.9695 45.3464L3.341 37.4819C2.7292 35.8103 2.3974 34.0295 2.3813 32.1836C2.3806 32.2543 2.375 32.3243 2.375 32.3957C2.375 34.2913 2.7138 36.1183 3.341 37.8319L5.9688 45.6957C8.2613 52.1028 14.8357 56.7291 22.5882 56.7291C30.2098 56.7291 36.6932 52.2575 39.0879 46.0184L42.1112 38.0839C42.7993 36.2975 43.1724 34.3844 43.1724 32.395C43.1724 32.3222 43.1668 32.2508 43.1661 32.1787C43.15 34.1205 42.7839 35.9888 42.1119 37.7346Z" fill="#231F20"/>
<path d="M29.4027 27.9648L28.9141 31.693C29.0415 31.6181 29.1367 31.5222 29.1542 31.399L29.5749 27.9886L29.4027 27.9648Z" fill="#808080"/>
<path d="M67.8104 20.3751L67.6683 20.373L69.2286 28.4874L68.3179 30.3081L45.7338 30.1261L25.3281 27.2372V27.387L45.9088 30.3011L68.4929 30.4831L69.4036 28.6624L67.8104 20.3751Z" fill="#231F20"/>
<path d="M64.4391 30.4502L62.5687 33.0395L62.3825 33.2789C61.7175 34.0811 60.2342 34.3702 58.7152 33.9131C57.1577 33.4441 56.0748 32.343 56.0097 31.2818C55.9558 32.3941 57.0716 33.5932 58.7152 34.0881C60.2342 34.5452 61.7175 34.2561 62.3825 33.4539L62.5687 33.2145L64.5644 30.4509L64.4391 30.4502Z" fill="#666666"/>
<path d="M48.6605 30.3232L43.9453 40.5012C44.1672 40.8638 44.5284 41.19 44.9904 41.407L50.3755 30.3372L48.6605 30.3232Z" fill="white"/>
<path d="M42.9711 29.8858L42.0632 29.757C42.1927 30.5585 42.2634 31.3768 42.2634 32.2098C42.2634 41.7172 33.5386 49.4249 22.7754 49.4249C12.0122 49.4249 3.28669 41.7172 3.28669 32.2098C3.28669 22.7024 12.0115 14.9947 22.7747 14.9947C28.7429 14.9947 34.0811 17.367 37.656 21.0994L38.4631 21.0098C34.779 17.1381 29.2574 14.6496 23.0645 14.574V14.0889H22.3036V14.5761C11.5411 14.7889 2.83869 22.2852 2.39559 31.6456H1.61719V32.5563H2.37949C2.39839 34.3945 2.73229 36.1669 3.34199 37.8322C5.91939 44.8735 13.3709 50.0073 22.228 50.2117V50.9432H23.1387V50.2145C31.9692 50.0787 39.4326 45.0436 42.1122 38.0849C42.7814 36.3468 43.1496 34.4883 43.1692 32.5563H43.886V31.6456H43.1531C43.1258 31.0506 43.0642 30.464 42.9711 29.8858Z" fill="white"/>
<path d="M28.3074 31.0531C28.0743 31.0202 27.8818 30.9614 27.8125 30.9082C27.8811 31.0321 28.0575 31.1364 28.2759 31.1672C28.4796 31.1959 28.6651 31.1518 28.7708 31.0643C28.6714 31.0825 28.5006 31.0797 28.3074 31.0531Z" fill="white"/>
<path d="M28.2996 31.2533C28.0665 31.2204 27.874 31.1616 27.8047 31.1084C27.8733 31.2323 28.0497 31.3366 28.2681 31.3674C28.4718 31.3961 28.6573 31.352 28.763 31.2645C28.6629 31.2827 28.4921 31.2799 28.2996 31.2533Z" fill="white"/>
<path d="M28.2787 31.163C28.103 31.1399 27.958 31.0993 27.9062 31.0615C27.958 31.1483 28.0904 31.2211 28.2549 31.2428C28.4082 31.2631 28.5474 31.2323 28.6272 31.1707C28.5523 31.1833 28.4236 31.1819 28.2787 31.163Z" fill="white"/>
<path d="M28.284 31.389C28.0509 31.3561 27.8584 31.2973 27.7891 31.2441C27.8577 31.368 28.0341 31.4723 28.2525 31.5031C28.4562 31.5318 28.6417 31.4877 28.7474 31.4002C28.6473 31.4184 28.4765 31.4163 28.284 31.389Z" fill="white"/>
<path d="M28.2683 31.5892C28.0352 31.5563 27.8427 31.4975 27.7734 31.4443C27.842 31.5682 28.0184 31.6725 28.2368 31.7033C28.4405 31.732 28.626 31.6879 28.7317 31.6004C28.6316 31.6186 28.4608 31.6165 28.2683 31.5892Z" fill="white"/>
<path d="M28.2474 31.498C28.0717 31.4749 27.9268 31.4343 27.875 31.3965C27.9268 31.4833 28.0591 31.5561 28.2236 31.5778C28.3769 31.5981 28.5162 31.5673 28.596 31.5057C28.5211 31.519 28.393 31.5169 28.2474 31.498Z" fill="white"/>
<path d="M28.3933 30.4545C28.1602 30.4216 27.9677 30.3628 27.8984 30.3096C27.967 30.4335 28.1434 30.5378 28.3618 30.5686C28.5655 30.5973 28.751 30.5532 28.8567 30.4657C28.7566 30.4839 28.5858 30.4818 28.3933 30.4545Z" fill="white"/>
<path d="M28.3699 30.6527C28.1368 30.6198 27.9443 30.561 27.875 30.5078C27.9436 30.6317 28.12 30.736 28.3384 30.7668C28.5421 30.7955 28.7276 30.7514 28.8333 30.6639C28.7332 30.6821 28.5624 30.68 28.3699 30.6527Z" fill="white"/>
<path d="M28.349 30.5634C28.1733 30.5403 28.0284 30.4997 27.9766 30.4619C28.0284 30.5487 28.1607 30.6215 28.3252 30.6432C28.4785 30.6635 28.6178 30.6327 28.6976 30.5711C28.6227 30.5844 28.4946 30.5823 28.349 30.5634Z" fill="white"/>
<path d="M28.3621 30.7894C28.129 30.7565 27.9365 30.6977 27.8672 30.6445C27.9358 30.7684 28.1122 30.8727 28.3306 30.9035C28.5343 30.9322 28.7198 30.8881 28.8255 30.8006C28.7254 30.8188 28.5546 30.816 28.3621 30.7894Z" fill="white"/>
<path d="M28.3465 30.9896C28.1134 30.9567 27.9209 30.8979 27.8516 30.8447C27.9202 30.9686 28.0966 31.0729 28.315 31.1037C28.5187 31.1324 28.7042 31.0883 28.8099 31.0008C28.7098 31.019 28.539 31.0162 28.3465 30.9896Z" fill="white"/>
<path d="M28.3255 30.8994C28.1498 30.8763 28.0049 30.8357 27.9531 30.7979C28.0049 30.8847 28.1372 30.9575 28.3017 30.9792C28.455 30.9995 28.5943 30.9687 28.6741 30.9071C28.5985 30.9197 28.4704 30.9183 28.3255 30.8994Z" fill="white"/>
<path d="M28.4793 29.8021C28.2462 29.7692 28.0537 29.7104 27.9844 29.6572C28.053 29.7811 28.2294 29.8854 28.4478 29.9162C28.6515 29.9449 28.837 29.9008 28.9427 29.8133C28.8433 29.8315 28.6718 29.8287 28.4793 29.8021Z" fill="white"/>
<path d="M28.4637 30.0023C28.2306 29.9694 28.038 29.9106 27.9688 29.8574C28.0373 29.9813 28.2138 30.0856 28.4322 30.1164C28.6359 30.1451 28.8213 30.101 28.927 30.0135C28.8276 30.0317 28.6569 30.0289 28.4637 30.0023Z" fill="white"/>
<path d="M28.4427 29.9101C28.267 29.887 28.1221 29.8464 28.0703 29.8086C28.1221 29.8954 28.2544 29.9682 28.4189 29.9899C28.5722 30.0102 28.7115 29.9794 28.7913 29.9178C28.7164 29.9304 28.5876 29.929 28.4427 29.9101Z" fill="white"/>
<path d="M28.448 30.1361C28.2149 30.1032 28.0224 30.0444 27.9531 29.9912C28.0217 30.1151 28.1981 30.2194 28.4165 30.2502C28.6202 30.2789 28.8057 30.2348 28.9114 30.1473C28.812 30.1655 28.6412 30.1634 28.448 30.1361Z" fill="white"/>
<path d="M28.4324 30.3363C28.1993 30.3034 28.0068 30.2446 27.9375 30.1914C28.0061 30.3153 28.1825 30.4196 28.4009 30.4504C28.6046 30.4791 28.7901 30.435 28.8958 30.3475C28.7964 30.3657 28.6256 30.3636 28.4324 30.3363Z" fill="white"/>
<path d="M28.4115 30.247C28.2358 30.2239 28.0909 30.1833 28.0391 30.1455C28.0909 30.2323 28.2232 30.3051 28.3877 30.3268C28.541 30.3471 28.6803 30.3163 28.7601 30.2547C28.6852 30.268 28.5564 30.2659 28.4115 30.247Z" fill="white"/>
<path d="M28.5574 29.2015C28.3243 29.1686 28.1318 29.1098 28.0625 29.0566C28.1311 29.1805 28.3075 29.2848 28.5259 29.3156C28.7296 29.3443 28.9151 29.3002 29.0208 29.2127C28.9214 29.2309 28.7506 29.2288 28.5574 29.2015Z" fill="white"/>
<path d="M28.534 29.4017C28.3009 29.3688 28.1084 29.31 28.0391 29.2568C28.1077 29.3807 28.2841 29.485 28.5025 29.5158C28.7062 29.5445 28.8917 29.5004 28.9974 29.4129C28.898 29.4311 28.7272 29.429 28.534 29.4017Z" fill="white"/>
<path d="M28.5208 29.3124C28.3451 29.2893 28.2002 29.2487 28.1484 29.2109C28.2002 29.2977 28.3325 29.3705 28.497 29.3922C28.6503 29.4125 28.7896 29.3817 28.8694 29.3201C28.7945 29.3334 28.6657 29.3313 28.5208 29.3124Z" fill="white"/>
<path d="M28.5262 29.5375C28.2931 29.5046 28.1005 29.4458 28.0312 29.3926C28.0998 29.5165 28.2762 29.6208 28.4946 29.6516C28.6983 29.6803 28.8838 29.6362 28.9895 29.5487C28.8901 29.5676 28.7194 29.5648 28.5262 29.5375Z" fill="white"/>
<path d="M28.5105 29.7357C28.2774 29.7028 28.0849 29.644 28.0156 29.5908C28.0842 29.7147 28.2606 29.819 28.479 29.8498C28.6827 29.8785 28.8682 29.8344 28.9739 29.7469C28.8738 29.7658 28.703 29.763 28.5105 29.7357Z" fill="white"/>
<path d="M28.4896 29.6464C28.3139 29.6233 28.169 29.5827 28.1172 29.5449C28.169 29.6317 28.3013 29.7045 28.4658 29.7262C28.6191 29.7465 28.7584 29.7157 28.8382 29.6541C28.7633 29.6667 28.6345 29.6653 28.4896 29.6464Z" fill="white"/>
<path d="M28.6512 28.514C28.4181 28.4811 28.2255 28.4223 28.1562 28.3691C28.2248 28.493 28.4013 28.5973 28.6197 28.6281C28.8234 28.6568 29.0088 28.6127 29.1145 28.5252C29.0144 28.5441 28.8437 28.5413 28.6512 28.514Z" fill="white"/>
<path d="M28.6355 28.7142C28.4024 28.6813 28.2099 28.6225 28.1406 28.5693C28.2092 28.6932 28.3856 28.7975 28.604 28.8283C28.8077 28.857 28.9932 28.8129 29.0989 28.7254C28.9988 28.7443 28.828 28.7415 28.6355 28.7142Z" fill="white"/>
<path d="M28.6146 28.6249C28.4389 28.6018 28.294 28.5612 28.2422 28.5234C28.294 28.6102 28.4263 28.683 28.5908 28.7047C28.7441 28.725 28.8834 28.6942 28.9632 28.6326C28.8883 28.6452 28.7595 28.6438 28.6146 28.6249Z" fill="white"/>
<path d="M28.6199 28.851C28.3868 28.8181 28.1943 28.7593 28.125 28.7061C28.1936 28.83 28.37 28.9343 28.5884 28.9651C28.7921 28.9938 28.9776 28.9497 29.0833 28.8622C28.9832 28.8804 28.8124 28.8776 28.6199 28.851Z" fill="white"/>
<path d="M28.6043 29.0511C28.3712 29.0182 28.1787 28.9595 28.1094 28.9062C28.178 29.0302 28.3544 29.1344 28.5728 29.1652C28.7765 29.1939 28.962 29.1498 29.0677 29.0623C28.9683 29.0805 28.7975 29.0784 28.6043 29.0511Z" fill="white"/>
<path d="M28.5911 28.9619C28.4154 28.9388 28.2705 28.8982 28.2188 28.8604C28.2705 28.9472 28.4028 29.02 28.5673 29.0417C28.7206 29.062 28.8599 29.0312 28.9397 28.9696C28.8648 28.9822 28.736 28.9808 28.5911 28.9619Z" fill="white"/>
<path d="M28.7293 27.9164C28.4962 27.8835 28.3037 27.8247 28.2344 27.7715C28.303 27.8954 28.4794 27.9997 28.6978 28.0305C28.9015 28.0592 29.087 28.0151 29.1927 27.9276C29.0933 27.9458 28.9225 27.943 28.7293 27.9164Z" fill="white"/>
<path d="M28.7058 28.1166C28.4727 28.0837 28.2802 28.0249 28.2109 27.9717C28.2795 28.0956 28.4559 28.1999 28.6743 28.2307C28.878 28.2594 29.0635 28.2153 29.1692 28.1278C29.0698 28.146 28.899 28.1439 28.7058 28.1166Z" fill="white"/>
<path d="M28.6927 28.0273C28.517 28.0042 28.3721 27.9636 28.3203 27.9258C28.3721 28.0126 28.5044 28.0854 28.6689 28.1071C28.8222 28.1274 28.9615 28.0966 29.0413 28.035C28.9664 28.0476 28.8376 28.0462 28.6927 28.0273Z" fill="white"/>
<path d="M28.698 28.2523C28.4649 28.2194 28.2724 28.1606 28.2031 28.1074C28.2717 28.2313 28.4481 28.3356 28.6665 28.3664C28.8702 28.3951 29.0557 28.351 29.1614 28.2635C29.062 28.2817 28.8912 28.2796 28.698 28.2523Z" fill="white"/>
<path d="M28.6824 28.4506C28.4493 28.4177 28.2568 28.3589 28.1875 28.3057C28.2561 28.4296 28.4325 28.5339 28.6509 28.5647C28.8546 28.5934 29.0401 28.5493 29.1458 28.4618C29.0464 28.48 28.8756 28.4779 28.6824 28.4506Z" fill="white"/>
<path d="M28.6615 28.3613C28.4858 28.3382 28.3409 28.2976 28.2891 28.2598C28.3409 28.3466 28.4732 28.4194 28.6377 28.4411C28.791 28.4614 28.9303 28.4306 29.0101 28.369C28.9352 28.3823 28.8064 28.3802 28.6615 28.3613Z" fill="white"/>
<path d="M69.1418 28.6611L69.2286 28.4875L69.195 28.3111L46.4555 28.2215L25.3281 25.3984V25.7484L46.4555 28.5715L69.1418 28.6611Z" fill="white"/>
</svg>
