<svg width="71" height="71" viewBox="0 0 71 71" fill="none" xmlns="http://www.w3.org/2000/svg">
<g clip-path="url(#clip0_3601_9624)">
<path d="M69.7803 38.2621H69.1398C68.8829 38.2621 68.6547 38.6247 68.4972 39.1882H63.4929C63.7834 38.4532 63.9871 37.4025 64.0536 36.2041H65.3318C65.504 36.7578 65.7595 37.1169 66.0493 37.1169H66.7472C67.2652 37.1169 67.6852 35.9899 67.6852 34.599C67.6852 33.2081 67.2652 32.0811 66.7472 32.0811H66.0486C65.7588 32.0811 65.5033 32.4409 65.3311 32.9939H63.8835C63.6154 31.4658 63.0953 30.4298 62.4975 30.4298C62.4205 30.4298 62.3442 30.448 62.27 30.4816C62.2462 30.4172 62.221 30.3612 62.1965 30.3003C62.172 30.2401 62.1489 30.1778 62.1237 30.1204C62.0579 29.9706 61.9907 29.8299 61.9193 29.7053C61.8192 29.5093 61.689 29.3322 61.5329 29.181C61.5028 29.1509 61.472 29.1229 61.4405 29.097C61.0919 28.7981 60.6397 28.6161 60.1441 28.6161C60.0013 28.6161 59.8613 28.6315 59.7269 28.6602C59.6562 28.6756 59.5911 28.7036 59.5232 28.7267C59.4623 28.747 59.3986 28.7603 59.3412 28.7862C59.2586 28.8226 59.1837 28.8723 59.1081 28.9192C59.071 28.9423 59.0297 28.9591 58.9947 28.9843C58.9198 29.0375 58.854 29.1019 58.7875 29.1649C58.7581 29.1922 58.7245 29.2146 58.6965 29.244H58.6972C58.6951 29.2461 58.693 29.2475 58.6909 29.2496H57.9545C57.944 29.2489 57.9335 29.244 57.923 29.244C57.9125 29.244 57.9027 29.2489 57.8922 29.2496H57.8544C57.8166 29.2496 57.7795 29.2608 57.7417 29.2671C57.6962 29.2559 57.65 29.244 57.6038 29.244H57.237H56.8156H56.4768C56.4432 29.244 56.4103 29.2552 56.3774 29.2615C56.348 29.2552 56.3186 29.244 56.2885 29.244C55.9812 29.244 55.6956 29.5835 55.452 30.161H53.1273L51.5712 31.9999L51.4536 31.8158H44.4487C44.4487 31.8158 43.9783 31.8683 43.9783 32.2862H42.9766C42.894 32.2211 42.789 32.1777 42.6721 32.1763L38.2936 32.128C38.2796 32.1105 38.2614 32.0937 38.2446 32.0769C38.2194 31.9782 38.1928 31.9096 38.1648 31.9096H38.0248C37.8694 31.8158 37.679 31.7297 37.4445 31.6569V31.1648C38.0381 30.9793 38.4119 30.7196 38.4119 30.4312V29.804C38.4119 29.5149 38.0388 29.2559 37.4445 29.0704V28.628L41.5003 24.6835H43.6129V23.9779L42.3256 21.124H16.3584L13.032 23.9779V24.6835L32.2211 29.5786C32.17 29.6514 32.1385 29.7263 32.1385 29.804V30.4312C32.1385 30.7203 32.5116 30.9793 33.1059 31.1648V31.6576C32.8721 31.7304 32.6817 31.8165 32.5256 31.9103H31.9726C31.8809 30.6069 31.7381 29.7669 31.5778 29.7669H31.2124L31.1452 29.3224H19.5805L19.3614 29.496L19.318 29.7669H18.996C19.1507 29.433 19.3222 29.244 19.5021 29.244H12.367C11.3317 29.244 10.4861 31.75 10.414 34.9224L10.3587 34.9847C9.89883 34.2504 7.92062 33.6974 5.55042 33.6974C2.83862 33.6974 0.640625 34.4205 0.640625 35.3116C0.640625 36.1999 2.25972 36.9426 4.43112 37.1365L4.24352 38.1319C3.46302 38.2824 2.93382 38.5575 2.93382 38.876V39.268C2.93382 39.4451 3.09692 39.6089 3.37482 39.7461V41.1678C2.96112 41.4037 2.60903 41.7285 2.36473 42.1338C1.92513 42.6735 1.67523 43.3756 1.73053 44.1533C1.85093 45.8424 3.31742 47.2116 5.00652 47.2116C6.06352 47.2116 6.95743 46.6747 7.44813 45.8592C7.68753 45.5659 7.86462 45.2243 7.97032 44.8463C8.40012 44.6097 8.76482 44.2772 9.01612 43.86C9.27442 43.5436 9.45922 43.1698 9.56002 42.7568H10.6212L7.46492 47.3292V47.3684V50.0347H64.7445V49.9948H64.8621V47.3285L62.9805 44.588V42.7554H68.4972C68.6547 43.3189 68.8829 43.6815 69.1398 43.6815H69.7803C70.2556 43.6815 70.6406 42.4684 70.6406 40.9711C70.6406 39.4738 70.2556 38.2621 69.7803 38.2621ZM6.32112 36.5716V35.922C6.32392 35.9213 6.32602 35.9199 6.32812 35.9192L7.62453 36.4071C7.23183 36.4862 6.78942 36.5415 6.32112 36.5716ZM4.64742 35.901C4.68732 35.9171 4.73143 35.9318 4.77903 35.9458V36.5716C4.26383 36.538 3.78152 36.475 3.35872 36.3826L4.64742 35.901ZM8.82782 36.7053L7.43902 38.2663C7.35502 38.2383 7.25913 38.2152 7.16393 38.1914L6.96512 37.1078C7.66582 37.0266 8.29792 36.8873 8.82782 36.7053ZM10.8207 39.1112C10.827 39.1364 10.8326 39.163 10.8389 39.1882H10.7619L10.8207 39.1112ZM54.8199 32.9953H53.8476L54.5014 32.177H54.9312C54.8892 32.4381 54.8514 32.7097 54.8199 32.9953ZM33.1052 28.6273V28.9213L24.1452 24.6828H28.9892L33.1052 28.6273ZM23.0868 24.6828L32.6516 29.2076L14.9143 24.6828H23.0868ZM9.52572 35.292C9.52572 35.6735 9.02802 36.0172 8.23492 36.2559L6.63192 35.6567V35.292C6.63192 35.2528 6.60813 35.2164 6.57453 35.1807L8.56042 34.4387C9.16172 34.6676 9.52572 34.9658 9.52572 35.292ZM5.55042 33.9851C6.48422 33.9851 7.34242 34.0915 8.02142 34.2686L6.11252 34.9819C5.93892 34.9455 5.73313 34.9238 5.51192 34.9238C5.26693 34.9238 5.04292 34.9504 4.85812 34.9938L2.98492 34.2938C3.67722 34.1013 4.57182 33.9851 5.55042 33.9851ZM2.46762 34.4667L4.42622 35.2038C4.40452 35.2325 4.38982 35.2619 4.38982 35.292V35.6252L2.77633 36.2279C2.03503 35.9906 1.57372 35.6588 1.57372 35.292C1.57442 34.9791 1.90972 34.6921 2.46762 34.4667Z" fill="#808080"/>
<path d="M44.9348 34.9408H38.1637L37.9047 32.9941H36.2422V36.2029H44.8844C44.9145 35.8095 44.9348 35.3923 44.9348 34.9408Z" fill="url(#paint0_linear_3601_9624)"/>
<path d="M66.055 32.9941H63.8906C64.0138 33.6962 64.0845 34.5019 64.0845 35.3594C64.0845 35.6478 64.0747 35.9285 64.06 36.2036H66.0557C66.3861 36.2036 66.6535 35.4854 66.6535 34.5992C66.6535 33.713 66.3854 32.9941 66.055 32.9941Z" fill="url(#paint1_linear_3601_9624)"/>
<path d="M18.532 39.1876C18.3591 38.1397 18.2548 36.8097 18.2548 35.36C18.2548 31.9825 18.8162 29.2441 19.5092 29.2441H12.3741C11.2912 29.2441 10.4141 31.9825 10.4141 35.36C10.4141 36.8097 10.5765 38.1397 10.8467 39.1876H18.532Z" fill="url(#paint2_linear_3601_9624)"/>
<path d="M31.6167 38.8098C31.4662 38.8098 31.3438 37.2649 31.3438 35.3595C31.3438 33.4541 31.4662 31.9092 31.6167 31.9092H38.1666C38.3171 31.9092 38.4396 33.4541 38.4396 35.3595C38.4396 37.2649 38.3171 38.8098 38.1666 38.8098H31.6167Z" fill="url(#paint3_linear_3601_9624)"/>
<path d="M69.1542 39.1875H8.84919C8.71339 39.1875 8.59019 39.3415 8.49219 39.5879C9.14459 40.1472 9.59189 40.9445 9.65559 41.8391C9.67869 42.1604 9.63669 42.4642 9.56529 42.7554H69.1535C69.4692 42.7554 69.7254 41.9567 69.7254 40.9718C69.7254 39.9869 69.4699 39.1875 69.1542 39.1875Z" fill="url(#paint4_linear_3601_9624)"/>
<path d="M33.1094 33.4883V39.2122C33.1094 39.6014 34.081 39.9171 35.2787 39.9171C36.4771 39.9171 37.448 39.6014 37.448 39.2122V33.4883H33.1094Z" fill="url(#paint5_linear_3601_9624)"/>
<path d="M5.5709 39.7406C4.6539 39.7406 3.8475 39.5866 3.375 39.3535V41.1672C3.7936 40.9285 4.2752 40.7808 4.8072 40.7808C5.8082 40.7808 6.7238 41.2687 7.3349 42.0128C7.603 41.8931 7.7668 41.7468 7.7668 41.5872V39.3535C7.2943 39.5866 6.4879 39.7406 5.5709 39.7406Z" fill="url(#paint6_linear_3601_9624)"/>
<path d="M5.5744 39.7412C4.1184 39.7412 2.9375 39.3534 2.9375 38.876V39.268C2.9375 39.7461 4.1177 40.1332 5.5744 40.1332C7.0304 40.1332 8.2113 39.7461 8.2113 39.268V38.876C8.2106 39.3541 7.0304 39.7412 5.5744 39.7412Z" fill="url(#paint7_linear_3601_9624)"/>
<path d="M35.2787 30.8227C34.4352 30.8227 33.6729 30.7135 33.1094 30.5371V32.3907C33.1094 32.7799 34.081 33.0956 35.2787 33.0956C36.4764 33.0956 37.448 32.7799 37.448 32.3907V30.5371C36.8838 30.7128 36.1222 30.8227 35.2787 30.8227Z" fill="url(#paint8_linear_3601_9624)"/>
<path d="M35.2773 30.8229C33.5448 30.8229 32.1406 30.3665 32.1406 29.8037V30.4309C32.1406 30.9937 33.5448 31.4501 35.2773 31.4501C37.0098 31.4501 38.414 30.9937 38.414 30.4309V29.8037C38.4133 30.3665 37.0091 30.8229 35.2773 30.8229Z" fill="url(#paint9_linear_3601_9624)"/>
<path d="M45.3594 37.5443H45.3699C45.3706 37.4694 45.3741 37.3973 45.3741 37.321C45.3741 37.2538 45.3713 37.1908 45.3706 37.125C45.3685 37.2685 45.3636 37.4057 45.3594 37.5443Z" fill="url(#paint10_linear_3601_9624)"/>
<path d="M56.2909 33.1758H53.703L52.9946 34.0627H52.9141L53.2466 34.5751V34.9671V37.5424H56.2909C56.6052 37.5424 56.86 36.5652 56.86 35.3591C56.86 34.153 56.6052 33.1758 56.2909 33.1758Z" fill="url(#paint11_linear_3601_9624)"/>
<path d="M44.8682 36.4848C44.9109 36.0186 44.9375 35.4985 44.9375 34.9406H38.1664L37.9788 33.5273C37.9011 33.5707 37.815 33.6113 37.7191 33.6498C37.5861 34.0481 37.5 34.6613 37.5 35.3585C37.5 36.5646 37.7548 37.5418 38.0691 37.5418H43.8098L43.716 37.3339L43.7076 36.7886L43.8084 36.4841H44.8682V36.4848Z" fill="url(#paint12_linear_3601_9624)"/>
<path d="M35.2773 33.4088C33.5448 33.4088 32.1406 32.9524 32.1406 32.3896V33.0168C32.1406 33.5796 33.5448 34.036 35.2773 34.036C37.0098 34.036 38.414 33.5796 38.414 33.0168V32.3896C38.4133 32.9524 37.0091 33.4088 35.2773 33.4088Z" fill="url(#paint13_linear_3601_9624)"/>
<path d="M44.8884 36.0391H41.1875V37.2942H44.7708L44.8884 36.0391Z" fill="url(#paint14_linear_3601_9624)"/>
<path d="M38.1656 38.8097H41.3023C41.4752 38.8097 41.6159 37.2648 41.6159 35.3594H38.125L38.1656 38.8097Z" fill="url(#paint15_linear_3601_9624)"/>
<path d="M66.7533 32.082H66.0547C66.5727 32.082 66.9927 33.209 66.9927 34.5999C66.9927 35.9908 66.5727 37.1178 66.0547 37.1178H66.7526C67.2706 37.1178 67.6906 35.9908 67.6906 34.5999C67.6906 33.209 67.2713 32.082 66.7533 32.082Z" fill="url(#paint16_linear_3601_9624)"/>
<path d="M69.7818 38.2617H69.1406C69.6159 38.2617 70.0009 39.4748 70.0009 40.9721C70.0009 42.4694 69.6159 43.6825 69.1406 43.6825H69.7818C70.2564 43.6825 70.6421 42.4694 70.6421 40.9721C70.6421 39.4748 70.2571 38.2617 69.7818 38.2617Z" fill="url(#paint17_linear_3601_9624)"/>
<path d="M38.5271 38.6846H37.4512V39.2124C37.4512 39.6016 36.4796 39.9173 35.2819 39.9173C34.0842 39.9173 33.1126 39.6016 33.1126 39.2124V38.6846H32.0885C32.0521 38.6846 32.0234 39.7087 32.0234 40.9715C32.0234 42.2343 32.0528 43.2584 32.0885 43.2584H38.5271C38.5635 43.2584 38.5922 42.2343 38.5922 40.9715C38.5922 39.7087 38.5628 38.6846 38.5271 38.6846Z" fill="url(#paint18_linear_3601_9624)"/>
<path d="M19.3125 29.8424L19.3678 29.4959L19.5869 29.3223H31.1516L31.23 29.8424" fill="#E6E6E6"/>
<path d="M18.9688 30.6141L19.0241 30.3068L19.1647 30.0156H31.0431L30.9647 30.6141" fill="#E6E6E6"/>
<path d="M18.7734 31.5277L18.891 30.9131H30.8617L30.8225 31.5277" fill="#E6E6E6"/>
<path d="M18.6328 32.5218L18.7112 31.9072H30.7603L30.7211 32.5218" fill="#E6E6E6"/>
<path d="M18.5781 33.3575L18.6173 32.9004H30.7056L30.6664 33.3575" fill="#E6E6E6"/>
<path d="M18.5391 34.1687V33.79H30.6274V34.1687" fill="#E6E6E6"/>
<path d="M30.6275 34.9273V34.5479H18.5V34.9273" fill="#E6E6E6"/>
<path d="M30.6275 35.293H18.5V35.6717H30.6275V35.293Z" fill="#E6E6E6"/>
<path d="M18.5391 36.1152L18.5783 36.5723H30.6274V36.1152" fill="#E6E6E6"/>
<path d="M18.6172 36.9785L18.6564 37.4356H30.6271V36.9785" fill="#E6E6E6"/>
<path d="M18.6953 37.8018L18.7345 38.2596H30.666V37.8018" fill="#E6E6E6"/>
<path d="M42.332 21.123H16.3655L13.0391 23.9769V24.6825H43.6193V23.9769L42.332 21.123ZM28.0289 23.5303L28.5777 22.1583H41.9862L42.4804 23.5303H28.0289Z" fill="#E6E6E6"/>
<path d="M45.2717 39.1878H53.2524V34.9682V34.5762H45.2031V34.9682C45.3074 35.5842 45.3718 36.4109 45.3718 37.3202C45.3718 38.009 45.3347 38.6495 45.2717 39.1878Z" fill="#E6E6E6"/>
<path d="M41.9843 22.1582L40.7188 23.5302H42.4785L41.9843 22.1582Z" fill="#E6E6E6"/>
<path d="M57.4567 31.7051H54.3193L53.1328 30.1602H56.2415L57.4567 31.7051Z" fill="#E6E6E6"/>
<path d="M62.5814 39.1877H63.4956C63.8526 38.284 64.0808 36.9057 64.0808 35.3601C64.0808 32.6378 63.3738 30.4307 62.5009 30.4307C62.4239 30.4307 62.3476 30.4489 62.2734 30.4825C62.7088 31.6704 62.9839 33.4141 62.9839 35.3608C62.9846 36.7937 62.8341 38.1153 62.5814 39.1877Z" fill="#B3B3B3"/>
<path d="M52.9153 34.0638H52.384L51.3487 32.2676L51.5755 31.9995L51.4558 31.8154H44.4509C44.4509 31.8154 43.9805 31.8679 43.9805 32.2858H38.3805C38.3917 32.3208 38.4127 32.3544 38.4127 32.3901V33.0173C38.4127 33.2042 38.2468 33.3771 37.9766 33.5276L38.1642 34.9409H44.9353C44.9353 34.7085 45.1978 34.5748 45.1978 34.5748H53.2478L52.9153 34.0638Z" fill="#E6E6E6"/>
<path d="M7.1683 38.1904L7.2334 38.546L6.567 39.33L6.0399 39.2887L4.5839 39.1746L4.0582 39.1333L4.2472 38.1309C3.4667 38.2814 2.9375 38.5565 2.9375 38.875C2.9375 39.3531 4.1177 39.7402 5.5744 39.7402C7.0304 39.7402 8.2113 39.3524 8.2113 38.875C8.2099 38.5957 7.7976 38.3486 7.1683 38.1904Z" fill="#E6E6E6"/>
<path d="M7.92943 39.6514C7.87973 39.6843 7.82652 39.7158 7.76562 39.7466V41.4035C7.89792 41.6296 7.98823 41.8823 8.00713 42.1539C8.02743 42.4346 7.96933 42.6943 7.86223 42.9253C7.97423 43.2158 8.05892 43.5189 8.08202 43.8395C8.10722 44.1937 8.05893 44.529 7.97073 44.8454C8.90313 44.3323 9.49883 43.3257 9.41553 42.1532C9.34063 41.1165 8.75753 40.2044 7.92943 39.6514Z" fill="#E6E6E6"/>
<path d="M7.85027 44.152C7.97067 45.8411 6.69877 47.2103 5.00967 47.2103C3.32057 47.2103 1.85407 45.8411 1.73437 44.152C1.61467 42.4629 2.88587 41.0938 4.57497 41.0938C6.26407 41.0938 7.73057 42.4636 7.85027 44.152Z" fill="#E6E6E6"/>
<path d="M57.9118 37.4618L57.8047 37.0439H58.0791L58.1862 37.4618H57.9118Z" fill="#E6E6E6"/>
<path d="M58.1462 33.7766L58.0391 33.3594H58.3135L58.4206 33.7766H58.1462Z" fill="#E6E6E6"/>
<path d="M55.5327 38.6476L55.4375 38.2773H55.6804L55.7756 38.6476H55.5327Z" fill="#E6E6E6"/>
<path d="M66.0527 32.082C65.7629 32.082 65.5074 32.4418 65.3359 32.9948H66.0527C66.3831 32.9948 66.6505 33.713 66.6505 34.5992C66.6505 35.4854 66.3831 36.2036 66.0527 36.2036H65.3359C65.5081 36.7573 65.7636 37.1164 66.0527 37.1164C66.5707 37.1164 66.9907 35.9894 66.9907 34.5985C66.9907 33.2076 66.5707 32.082 66.0527 32.082Z" fill="#E6E6E6"/>
<path d="M69.1426 38.2617C68.8857 38.2617 68.6575 38.6243 68.5 39.1878H69.1517C69.4674 39.1878 69.7236 39.9865 69.7236 40.9714C69.7236 41.9563 69.4674 42.755 69.1517 42.755H68.5C68.6575 43.3185 68.8857 43.6811 69.1426 43.6811C69.6179 43.6811 70.0029 42.468 70.0029 40.9707C70.0029 39.4734 69.6172 38.2617 69.1426 38.2617Z" fill="#E6E6E6"/>
<path d="M37.4459 29.0693V30.1949H33.1073V29.8029L32.2232 29.5775C32.1721 29.6503 32.1406 29.7252 32.1406 29.8029C32.1406 30.3657 33.5448 30.8221 35.2773 30.8221C37.0098 30.8221 38.414 30.3657 38.414 29.8029C38.4126 29.5145 38.0395 29.2548 37.4459 29.0693Z" fill="#E6E6E6"/>
<path d="M37.4466 31.6572V32.3908C37.4466 32.78 36.475 33.0957 35.2773 33.0957C34.0796 33.0957 33.108 32.78 33.108 32.3908V31.6572C32.5144 31.8427 32.1406 32.1024 32.1406 32.3908C32.1406 32.9536 33.5448 33.41 35.2773 33.41C37.0098 33.41 38.414 32.9536 38.414 32.3908C38.4133 32.1017 38.0402 31.8427 37.4466 31.6572Z" fill="#CCCCCC"/>
<path d="M57.8864 33.815C57.8864 33.6848 57.9256 33.5798 57.9746 33.5798C57.9795 33.5798 57.9845 33.5819 57.9887 33.5833C57.9733 33.549 57.9536 33.5273 57.9319 33.5273C57.8829 33.5273 57.8438 33.6323 57.8438 33.7625C57.8438 33.8794 57.8759 33.976 57.9179 33.9942C57.899 33.9508 57.8864 33.8871 57.8864 33.815Z" fill="#E6E6E6"/>
<path d="M57.6521 37.5016C57.6521 37.3714 57.6913 37.2664 57.7403 37.2664C57.7452 37.2664 57.7501 37.2685 57.7543 37.2699C57.7389 37.2356 57.7193 37.2139 57.6976 37.2139C57.6486 37.2139 57.6094 37.3189 57.6094 37.4491C57.6094 37.566 57.6416 37.6626 57.6836 37.6808C57.6647 37.6374 57.6521 37.5737 57.6521 37.5016Z" fill="#E6E6E6"/>
<path d="M55.3034 38.6806C55.3034 38.5651 55.3384 38.472 55.3818 38.472C55.386 38.472 55.3902 38.4734 55.3944 38.4755C55.3811 38.4447 55.3636 38.4258 55.344 38.4258C55.3006 38.4258 55.2656 38.5189 55.2656 38.6344C55.2656 38.738 55.2943 38.8234 55.3314 38.8395C55.3139 38.8017 55.3034 38.745 55.3034 38.6806Z" fill="#E6E6E6"/>
<path d="M15.7761 45.329H10.7578V42.7803H16.0113V44.8845L15.7761 45.329Z" fill="#E6E6E6"/>
<path d="M38.6691 45.3291H37.3363L37.2188 44.9238L37.2971 43.4076L37.3363 43.0156H38.6691V45.3291Z" fill="#E6E6E6"/>
<path d="M32.0781 45.3291H33.4109L33.5285 44.9238L33.4501 43.4076L33.4109 43.0156H32.0781V45.3291Z" fill="#E6E6E6"/>
<path d="M62.9828 45.3292H61.6493L61.4141 44.9631V42.7672L61.6493 42.4277H62.9828V45.3292Z" fill="#E6E6E6"/>
<path d="M35.8745 33.5155C36.5387 33.5155 37.0771 32.9771 37.0771 32.313C37.0771 31.6488 36.5387 31.1104 35.8745 31.1104C35.2103 31.1104 34.6719 31.6488 34.6719 32.313C34.6719 32.9771 35.2103 33.5155 35.8745 33.5155Z" fill="#E6E6E6"/>
<path d="M36.0099 32.1025L42.6746 32.176C42.9336 32.1788 43.145 32.3692 43.145 32.5995C43.145 32.8298 42.9336 33.0244 42.6746 33.0321L35.6172 33.2526" fill="#E6E6E6"/>
<path d="M8.21044 38.8669L10.442 36.3581C10.428 36.0886 10.4189 35.8142 10.4168 35.5342L7.83594 38.4357C8.06554 38.5631 8.20554 38.7087 8.21044 38.8669Z" fill="#E6E6E6"/>
<path d="M4.78125 35.3491C4.78125 35.2091 5.12635 35.0957 5.55265 35.0957C5.97825 35.0957 6.32405 35.2091 6.32405 35.3491V36.7841C6.32405 36.9241 5.97895 37.0375 5.55265 37.0375C5.12705 37.0375 4.78125 36.9241 4.78125 36.7841V35.3491Z" fill="#4D4D4D"/>
<path d="M64.7484 47.3662H7.46875V50.0325H64.7484V47.3662Z" fill="#4D4D4D"/>
<path d="M8.48904 42.617L8.27344 42.2439L8.48904 41.8701H8.92024L9.13584 42.2439L8.92024 42.617H8.48904Z" fill="#4D4D4D"/>
<path d="M3.2781 42.4855L3.0625 42.1124L3.2781 41.7393H3.7086L3.9242 42.1124L3.7086 42.4855H3.2781Z" fill="#4D4D4D"/>
<path d="M5.62185 42.4855L5.40625 42.1124L5.62185 41.7393H6.05235L6.26795 42.1124L6.05235 42.4855H5.62185Z" fill="#4D4D4D"/>
<path d="M3.35623 46.4139L3.14062 46.0401L3.35623 45.667H3.78673L4.00233 46.0401L3.78673 46.4139H3.35623Z" fill="#4D4D4D"/>
<path d="M5.73904 46.5711L5.52344 46.1973L5.73904 45.8242H6.17024L6.38514 46.1973L6.17024 46.5711H5.73904Z" fill="#4D4D4D"/>
<path d="M6.92654 44.6153L6.71094 44.2422L6.92654 43.8691H7.35704L7.57264 44.2422L7.35704 44.6153H6.92654Z" fill="#4D4D4D"/>
<path d="M2.26248 44.4982L2.04688 44.1251L2.26248 43.752H2.69298L2.90858 44.1251L2.69298 44.4982H2.26248Z" fill="#4D4D4D"/>
<path d="M6.04194 39.2884L4.58594 39.1743L4.78194 37.6553L5.92434 37.7302L6.04194 39.2884Z" fill="#4D4D4D"/>
<path d="M5.55042 33.6953C2.83862 33.6953 0.640625 34.4184 0.640625 35.3095C0.640625 36.3455 2.83862 37.1848 5.55042 37.1848C8.26222 37.1848 10.4602 36.3448 10.4602 35.3095C10.4602 34.4184 8.26152 33.6953 5.55042 33.6953ZM8.02073 34.2665L5.46852 35.2206L2.98492 34.2917C3.67722 34.0992 4.57252 33.983 5.55042 33.983C6.48422 33.983 7.34243 34.0894 8.02073 34.2665ZM1.57442 35.2899C1.57442 34.977 1.90972 34.6893 2.46762 34.4646L4.97012 35.4061L2.77633 36.2258C2.03573 35.9885 1.57442 35.6574 1.57442 35.2899ZM3.35872 36.3805L5.46642 35.593L7.62522 36.405C7.02112 36.5268 6.31062 36.5968 5.55042 36.5968C4.74052 36.5968 3.98732 36.517 3.35872 36.3805ZM8.23492 36.2538L5.96622 35.4061L8.56042 34.4366C9.16172 34.6655 9.52643 34.9637 9.52643 35.2899C9.52573 35.6714 9.02802 36.0151 8.23492 36.2538Z" fill="#4D4D4D"/>
<path d="M4.39062 35.2901C4.39062 35.0864 4.89252 34.9219 5.51132 34.9219C6.13012 34.9219 6.63202 35.0871 6.63202 35.2901V35.6667C6.63202 35.8704 6.13012 36.0349 5.51132 36.0349C4.89252 36.0349 4.39062 35.8697 4.39062 35.6667V35.2901Z" fill="#4D4D4D"/>
<path d="M5.55042 33.6953C2.83862 33.6953 0.640625 34.4184 0.640625 35.3095C0.640625 36.3455 2.83862 37.1848 5.55042 37.1848C8.26222 37.1848 10.4602 36.3448 10.4602 35.3095C10.4602 34.4184 8.26152 33.6953 5.55042 33.6953ZM8.02073 34.2665L5.46852 35.2206L2.98492 34.2917C3.67722 34.0992 4.57252 33.983 5.55042 33.983C6.48422 33.983 7.34243 34.0894 8.02073 34.2665ZM1.57442 35.2899C1.57442 34.977 1.90972 34.6893 2.46762 34.4646L4.97012 35.4061L2.77633 36.2258C2.03573 35.9885 1.57442 35.6574 1.57442 35.2899ZM3.35872 36.3805L5.46642 35.593L7.62522 36.405C7.02112 36.5268 6.31062 36.5968 5.55042 36.5968C4.74052 36.5968 3.98732 36.517 3.35872 36.3805ZM8.23492 36.2538L5.96622 35.4061L8.56042 34.4366C9.16172 34.6655 9.52643 34.9637 9.52643 35.2899C9.52573 35.6714 9.02802 36.0151 8.23492 36.2538Z" fill="black"/>
<path d="M4.39062 35.2901C4.39062 35.0864 4.89252 34.9219 5.51132 34.9219C6.13012 34.9219 6.63202 35.0871 6.63202 35.2901V35.6667C6.63202 35.8704 6.13012 36.0349 5.51132 36.0349C4.89252 36.0349 4.39062 35.8697 4.39062 35.6667V35.2901Z" fill="black"/>
<path d="M7.89022 39.8965H7.76562V40.6434H7.89022L8.10582 40.2703L7.89022 39.8965Z" fill="#4D4D4D"/>
<path d="M8.48904 42.617L8.27344 42.2439L8.48904 41.8701H8.92024L9.13584 42.2439L8.92024 42.617H8.48904Z" fill="#4D4D4D"/>
<path d="M3.2781 42.4855L3.0625 42.1124L3.2781 41.7393H3.7086L3.9242 42.1124L3.7086 42.4855H3.2781Z" fill="#4D4D4D"/>
<path d="M5.62185 42.4855L5.40625 42.1124L5.62185 41.7393H6.05235L6.26795 42.1124L6.05235 42.4855H5.62185Z" fill="#4D4D4D"/>
<path d="M3.35623 46.4139L3.14062 46.0401L3.35623 45.667H3.78673L4.00233 46.0401L3.78673 46.4139H3.35623Z" fill="#4D4D4D"/>
<path d="M5.73904 46.5711L5.52344 46.1973L5.73904 45.8242H6.17024L6.38514 46.1973L6.17024 46.5711H5.73904Z" fill="#4D4D4D"/>
<path d="M6.92654 44.6153L6.71094 44.2422L6.92654 43.8691H7.35704L7.57264 44.2422L7.35704 44.6153H6.92654Z" fill="#4D4D4D"/>
<path d="M2.26248 44.4982L2.04688 44.1251L2.26248 43.752H2.69298L2.90858 44.1251L2.69298 44.4982H2.26248Z" fill="#4D4D4D"/>
<path d="M47.057 32.9401L46.3591 33.0374L45.9062 32.7959V33.1095L46.3591 33.351L47.057 33.2537" fill="#4D4D4D"/>
<path d="M46.2133 32.8111C46.2707 32.7705 46.396 32.7425 46.5423 32.7425C46.6886 32.7425 46.8139 32.7705 46.8713 32.8111C46.8923 32.7964 46.9049 32.7796 46.9049 32.7621C46.9049 32.697 46.7425 32.6445 46.5423 32.6445C46.3421 32.6445 46.1797 32.697 46.1797 32.7621C46.179 32.7796 46.1916 32.7964 46.2133 32.8111Z" fill="#4D4D4D"/>
<path d="M50.9789 32.9401L50.281 33.0374L49.8281 32.7959V33.1095L50.281 33.351L50.9789 33.2537" fill="#4D4D4D"/>
<path d="M50.1352 32.8111C50.1926 32.7705 50.3179 32.7425 50.4642 32.7425C50.6105 32.7425 50.7358 32.7705 50.7932 32.8111C50.8142 32.7964 50.8268 32.7796 50.8268 32.7621C50.8268 32.697 50.6644 32.6445 50.4642 32.6445C50.264 32.6445 50.1016 32.697 50.1016 32.7621C50.1016 32.7796 50.1142 32.7964 50.1352 32.8111Z" fill="#4D4D4D"/>
<path d="M6.4375 44.1516C6.5026 45.063 5.8159 45.8022 4.9045 45.8022C3.9931 45.8022 3.2014 45.063 3.137 44.1516C3.0726 43.2402 3.7586 42.501 4.67 42.501C5.5814 42.501 6.3731 43.2402 6.4375 44.1516Z" fill="#4D4D4D"/>
<path d="M59.0244 35.36C59.0244 36.8097 58.8767 38.1397 58.631 39.1876H59.0482C59.303 38.1397 59.4556 36.8097 59.4556 35.36C59.4556 31.9818 58.6289 29.2441 57.609 29.2441H57.2422C58.2264 29.2434 59.0244 31.9818 59.0244 35.36Z" fill="black"/>
<path d="M56.2958 32.1553C56.055 32.1553 55.8401 32.5515 55.6875 33.1766H56.2958C56.6101 33.1766 56.8649 34.1538 56.8649 35.3599C56.8649 36.566 56.6101 37.5432 56.2958 37.5432H55.6875C55.8401 38.1683 56.055 38.5645 56.2958 38.5645C56.7571 38.5645 57.1309 37.1302 57.1309 35.3599C57.1309 33.5896 56.7571 32.1553 56.2958 32.1553Z" fill="black"/>
<path d="M16.0165 42.7803V44.8845L15.7812 45.329V42.8979L16.0165 42.7803Z" fill="black"/>
<path d="M61.4141 42.7663V44.9622L61.6493 45.3283V42.4268L61.4141 42.7663Z" fill="black"/>
<path d="M38.5638 42.8193C38.561 42.8935 38.5575 42.9579 38.5547 43.0153H38.6744V43.6033H55.6151V42.8193H38.5638Z" fill="black"/>
<path d="M32.0821 43.2442C32.0695 43.2106 32.0583 43.0601 32.0492 42.8193H17.8203V43.6033H32.0821V43.2442Z" fill="black"/>
<path d="M33.4375 43.2578L33.4522 43.4069L33.4627 43.6029H37.2903L37.3001 43.4069L37.3148 43.2578H33.4375Z" fill="black"/>
<path d="M34.8516 32.9316C35.0616 33.2809 35.4452 33.5154 35.8827 33.5154C36.1662 33.5154 36.4266 33.4174 36.6324 33.2536L35.7224 33.2683L34.8516 32.9316Z" fill="#333333"/>
<path d="M35.6172 33.2537L42.6746 33.0332C42.9329 33.0248 43.145 32.8302 43.145 32.6006C43.145 32.6006 43.0372 32.9009 42.5997 32.9009C42.1622 32.9009 35.6172 33.2537 35.6172 33.2537Z" fill="#333333"/>
<path d="M5.55015 36.7971C2.88175 36.7971 0.71875 36.1314 0.71875 35.3096C0.71875 36.2301 2.88175 36.9763 5.55015 36.9763C8.21855 36.9763 10.3815 36.2301 10.3815 35.3096C10.3815 36.1314 8.21855 36.7971 5.55015 36.7971Z" fill="#E6E6E6"/>
<path d="M36.2044 32.2593L42.8698 32.3328L42.6731 32.176L35.8516 32.1025L36.2044 32.2593Z" fill="white"/>
</g>
<defs>
<linearGradient id="paint0_linear_3601_9624" x1="40.5889" y1="32.994" x2="40.5889" y2="36.2032" gradientUnits="userSpaceOnUse">
<stop stop-color="white"/>
<stop offset="1"/>
</linearGradient>
<linearGradient id="paint1_linear_3601_9624" x1="65.2719" y1="32.994" x2="65.2719" y2="36.2032" gradientUnits="userSpaceOnUse">
<stop stop-color="white"/>
<stop offset="1"/>
</linearGradient>
<linearGradient id="paint2_linear_3601_9624" x1="14.9616" y1="29.2437" x2="14.9616" y2="39.1876" gradientUnits="userSpaceOnUse">
<stop stop-color="white"/>
<stop offset="1"/>
</linearGradient>
<linearGradient id="paint3_linear_3601_9624" x1="34.8919" y1="31.9098" x2="34.8919" y2="38.81" gradientUnits="userSpaceOnUse">
<stop stop-color="white"/>
<stop offset="1"/>
</linearGradient>
<linearGradient id="paint4_linear_3601_9624" x1="39.1093" y1="39.1874" x2="39.1093" y2="42.7551" gradientUnits="userSpaceOnUse">
<stop stop-color="white"/>
<stop offset="1"/>
</linearGradient>
<linearGradient id="paint5_linear_3601_9624" x1="33.1097" y1="36.703" x2="37.4485" y2="36.703" gradientUnits="userSpaceOnUse">
<stop stop-color="white"/>
<stop offset="1"/>
</linearGradient>
<linearGradient id="paint6_linear_3601_9624" x1="3.37514" y1="40.6831" x2="7.76638" y2="40.6831" gradientUnits="userSpaceOnUse">
<stop stop-color="white"/>
<stop offset="1"/>
</linearGradient>
<linearGradient id="paint7_linear_3601_9624" x1="2.93757" y1="39.5047" x2="8.21088" y2="39.5047" gradientUnits="userSpaceOnUse">
<stop stop-color="white"/>
<stop offset="1"/>
</linearGradient>
<linearGradient id="paint8_linear_3601_9624" x1="33.109" y1="31.8163" x2="37.4478" y2="31.8163" gradientUnits="userSpaceOnUse">
<stop stop-color="white"/>
<stop offset="1"/>
</linearGradient>
<linearGradient id="paint9_linear_3601_9624" x1="32.1406" y1="30.6266" x2="38.4135" y2="30.6266" gradientUnits="userSpaceOnUse">
<stop stop-color="white"/>
<stop offset="1"/>
</linearGradient>
<linearGradient id="paint10_linear_3601_9624" x1="45.3664" y1="37.125" x2="45.3664" y2="37.5442" gradientUnits="userSpaceOnUse">
<stop stop-color="white"/>
<stop offset="1"/>
</linearGradient>
<linearGradient id="paint11_linear_3601_9624" x1="54.8869" y1="33.1761" x2="54.8869" y2="37.5429" gradientUnits="userSpaceOnUse">
<stop stop-color="white"/>
<stop offset="1"/>
</linearGradient>
<linearGradient id="paint12_linear_3601_9624" x1="41.219" y1="33.5274" x2="41.219" y2="37.5424" gradientUnits="userSpaceOnUse">
<stop stop-color="white"/>
<stop offset="1"/>
</linearGradient>
<linearGradient id="paint13_linear_3601_9624" x1="32.1406" y1="33.2129" x2="38.4135" y2="33.2129" gradientUnits="userSpaceOnUse">
<stop stop-color="white"/>
<stop offset="1"/>
</linearGradient>
<linearGradient id="paint14_linear_3601_9624" x1="43.0381" y1="36.0393" x2="43.0381" y2="37.294" gradientUnits="userSpaceOnUse">
<stop stop-color="white"/>
<stop offset="1"/>
</linearGradient>
<linearGradient id="paint15_linear_3601_9624" x1="39.8707" y1="35.3598" x2="39.8707" y2="38.8099" gradientUnits="userSpaceOnUse">
<stop stop-color="white"/>
<stop offset="1"/>
</linearGradient>
<linearGradient id="paint16_linear_3601_9624" x1="66.873" y1="32.0817" x2="66.873" y2="37.1169" gradientUnits="userSpaceOnUse">
<stop stop-color="#B3B3B3"/>
<stop offset="1"/>
</linearGradient>
<linearGradient id="paint17_linear_3601_9624" x1="69.8917" y1="38.2616" x2="69.8917" y2="43.6817" gradientUnits="userSpaceOnUse">
<stop stop-color="#B3B3B3"/>
<stop offset="1"/>
</linearGradient>
<linearGradient id="paint18_linear_3601_9624" x1="35.3078" y1="38.6847" x2="35.3078" y2="43.2585" gradientUnits="userSpaceOnUse">
<stop stop-color="white"/>
<stop offset="1"/>
</linearGradient>
<clipPath id="clip0_3601_9624">
<rect width="70" height="70" fill="white" transform="translate(0.640625 0.699219)"/>
</clipPath>
</defs>
</svg>
