<svg width="71" height="71" viewBox="0 0 71 71" fill="none" xmlns="http://www.w3.org/2000/svg">
<g clip-path="url(#clip0_3601_9604)">
<path d="M62.8104 43.2674V42.3784V40.9287V32.612V31.1623H44.5166H43.0669H29.2363L28.8926 30.8186L29.6311 30.0808L28.768 29.2177L28.0295 29.9562L25.7636 27.6903L26.5014 26.9518L25.6383 26.0887L24.8998 26.8265L22.6339 24.5606L23.3724 23.8221L22.5093 22.959L21.7715 23.6968L19.5056 21.4309L20.2434 20.6931L19.3803 19.83L18.6418 20.5685L16.3759 18.3026L17.1137 17.5641L16.2506 16.701L15.5121 17.4388L13.2462 15.1729L13.9847 14.4344L13.1202 13.5699L12.3824 14.3084L10.1165 12.0425L10.8543 11.3047L9.9912 10.4416L9.2527 11.1801L7.8499 9.77734L6.9868 10.6404L27.5101 31.1623H22.762L6.8993 15.2996V11.857H4.6103V13.0155L3.75 13.8758L4.6103 14.7361V15.6048L4.3065 15.9086L4.6103 16.2124V59.3933V60.8431H6.8993H17.1242H69.7845V59.3933V51.8403V50.3906V50.2625L62.8104 43.2674ZM17.1242 59.3941H6.8993V32.612H17.1242V59.3941ZM17.1242 31.1623H6.8993V17.0258L8.174 18.3005L7.4362 19.0383L8.2993 19.9014L9.0371 19.1636L11.303 21.4295L10.5645 22.168L11.4276 23.0311L12.1654 22.2933L14.4313 24.5592L13.6935 25.297L14.5566 26.1601L15.2951 25.4216L17.561 27.6875L16.8232 28.4253L17.6863 29.2884L18.4241 28.5506L20.69 30.8165L20.3463 31.1602H18.5725H17.1242V31.1623Z" fill="#187AA0"/>
<path d="M28.8902 30.8184L29.628 30.0806L28.7649 29.2175L28.0271 29.9553L25.7605 27.6894L26.499 26.9509L25.6359 26.0878L24.8974 26.8256L22.6315 24.5597L23.3693 23.8219L22.5062 22.9588L21.7684 23.6966L19.5018 21.4307L20.2403 20.6922L19.3772 19.8291L18.6387 20.5669L16.3728 18.301L17.1106 17.5632L16.2475 16.6994L15.5097 17.4379L13.2431 15.172L13.9816 14.4335L13.1178 13.5704L12.38 14.3082L10.1141 12.0423L10.8519 11.3045L9.98878 10.4407L9.25028 11.1792L7.84748 9.77637L6.98438 10.6395L27.5077 31.1628H29.2339L28.8902 30.8184Z" fill="#CCBC99"/>
<path d="M22.7611 31.1625L6.89844 15.2998V17.026L8.17314 18.3007L7.43464 19.0392L8.29844 19.9023L9.03624 19.1638L11.3021 21.4304L10.5643 22.1682L11.4274 23.0313L12.1659 22.2935L14.4318 24.5594L13.694 25.2979L14.5571 26.161L15.2949 25.4225L17.5608 27.6891L16.823 28.4269L17.6861 29.29L18.4246 28.5522L20.6905 30.8181L20.3468 31.1625H22.7611Z" fill="#CCBC99"/>
<path d="M5.79513 15.9809C8.08959 15.9809 9.94963 14.1208 9.94963 11.8264C9.94963 9.53191 8.08959 7.67188 5.79513 7.67188C3.50066 7.67188 1.64062 9.53191 1.64062 11.8264C1.64062 14.1208 3.50066 15.9809 5.79513 15.9809Z" fill="#666666"/>
<path d="M18.5703 40.927H19.068V33.1081H43.0633V32.6104H18.5703V40.927Z" fill="black"/>
<path d="M18.5703 50.3891H19.068V42.8754H43.0633V42.377H18.5703V50.3891Z" fill="black"/>
<path d="M61.3597 42.377H44.5156V50.3891H45.014V42.8754H61.3597V42.377Z" fill="black"/>
<path d="M19.068 52.3366H43.0633V51.8389H18.5703V59.3926H19.068V52.3366Z" fill="black"/>
<path d="M68.3331 51.8389H44.5156V59.3926H45.014V52.3366H68.3331V51.8389Z" fill="black"/>
<path d="M61.3597 32.6104H44.5156V40.927H45.014V33.1081H61.3597V32.6104Z" fill="black"/>
<path d="M17.1207 32.6104H5.25781V33.1088H17.1207V32.6104Z" fill="black"/>
<path d="M5.79552 13.2297C6.57143 13.2297 7.20042 12.6007 7.20042 11.8248C7.20042 11.0489 6.57143 10.4199 5.79552 10.4199C5.01962 10.4199 4.39062 11.0489 4.39062 11.8248C4.39062 12.6007 5.01962 13.2297 5.79552 13.2297Z" fill="black"/>
</g>
<defs>
<clipPath id="clip0_3601_9604">
<rect width="70" height="70" fill="white" transform="translate(0.703125 0.199219)"/>
</clipPath>
</defs>
</svg>
