<svg width="16" height="16" viewBox="0 0 24 24" fill="none" xmlns="http://www.w3.org/2000/svg">
<path d="M13.255 20.9009C11.5862 21.166 9.87631 20.8959 8.37048 20.1293C6.86465 19.3626 5.64023 18.1389 4.87277 16.6335C4.10531 15.1281 3.83422 13.4184 4.09836 11.7494C4.36251 10.0804 5.14833 8.53797 6.34316 7.34315C7.53798 6.14832 9.08046 5.3625 10.7494 5.09836C12.4184 4.83422 14.1281 5.10531 15.6335 5.87278C17.1389 6.64024 18.3627 7.86466 19.1293 9.37049C19.8959 10.8763 20.166 12.5862 19.9009 14.255" stroke="#161616" stroke-width="1.7" stroke-linecap="round" stroke-linejoin="round"/>
<path d="M10 2H14.5" stroke="#161616" stroke-width="1.7" stroke-linecap="round" stroke-linejoin="round"/>
<path d="M16 20.3328C16 20.8953 16.4375 21.3328 17 21.3328H18.0625C18.5 21.3328 18.9375 20.9578 18.9375 20.4578C18.9375 19.8953 18.6875 19.7078 18.375 19.5828L16.625 18.9578C16.1875 18.8953 16 18.7078 16 18.2078C16 17.7078 16.375 17.3328 16.875 17.3328H18C18.5625 17.3328 19 17.7703 19 18.3328" stroke="#161616" stroke-width="1.3" stroke-linecap="round" stroke-linejoin="round"/>
<path d="M7 10H10.2739L8.36457 12.7288C8.67864 12.7288 8.98786 12.8063 9.26484 12.9543C9.54182 13.1024 9.77802 13.3164 9.9525 13.5776C10.127 13.8387 10.2344 14.1389 10.2652 14.4514C10.2959 14.764 10.2492 15.0793 10.129 15.3694C10.0088 15.6596 9.8189 15.9156 9.57613 16.1149C9.33335 16.3141 9.04518 16.4504 8.73715 16.5117C8.42912 16.573 8.11073 16.5573 7.81019 16.4662C7.50964 16.375 7.23622 16.2111 7.01414 15.989" stroke="#161616" stroke-width="1.7" stroke-linecap="round" stroke-linejoin="round"/>
<path d="M14.1826 16.5479C15.388 16.5479 16.3652 15.0821 16.3652 13.2739C16.3652 11.4658 15.388 10 14.1826 10C12.9772 10 12 11.4658 12 13.2739C12 15.0821 12.9772 16.5479 14.1826 16.5479Z" stroke="#161616" stroke-width="1.7" stroke-linecap="round" stroke-linejoin="round"/>
</svg>
