<svg width="16" height="16" viewBox="0 0 24 24" fill="none" xmlns="http://www.w3.org/2000/svg">
<path d="M13.255 20.9009C11.5862 21.166 9.87631 20.8959 8.37048 20.1293C6.86465 19.3626 5.64023 18.1389 4.87277 16.6335C4.10531 15.1281 3.83422 13.4184 4.09836 11.7494C4.36251 10.0804 5.14833 8.53797 6.34316 7.34315C7.53798 6.14832 9.08046 5.3625 10.7494 5.09836C12.4184 4.83422 14.1281 5.10531 15.6335 5.87278C17.1389 6.64024 18.3627 7.86466 19.1293 9.37049C19.8959 10.8763 20.166 12.5862 19.9009 14.255" stroke="#161616" stroke-width="1.7" stroke-linecap="round" stroke-linejoin="round"/>
<path d="M10 2H14.5" stroke="#161616" stroke-width="1.7" stroke-linecap="round" stroke-linejoin="round"/>
<path d="M8 10H11.2739L9.36457 12.7288C9.67864 12.7288 9.98786 12.8063 10.2648 12.9543C10.5418 13.1024 10.778 13.3164 10.9525 13.5776C11.127 13.8387 11.2344 14.1389 11.2652 14.4514C11.2959 14.764 11.2492 15.0793 11.129 15.3694C11.0088 15.6596 10.8189 15.9156 10.5761 16.1149C10.3333 16.3141 10.0452 16.4504 9.73715 16.5117C9.42912 16.573 9.11073 16.5573 8.81019 16.4662C8.50964 16.375 8.23622 16.2111 8.01414 15.989" stroke="#161616" stroke-width="1.7" stroke-linecap="round" stroke-linejoin="round"/>
<path d="M15.1826 16.5479C16.388 16.5479 17.3652 15.0821 17.3652 13.2739C17.3652 11.4658 16.388 10 15.1826 10C13.9772 10 13 11.4658 13 13.2739C13 15.0821 13.9772 16.5479 15.1826 16.5479Z" stroke="#161616" stroke-width="1.7" stroke-linecap="round" stroke-linejoin="round"/>
<path d="M16.4065 21.187V19.0623C16.4065 18.5312 16.4065 18.7967 16.4065 18L18 19.5935L19.5935 18C19.5935 18.7967 19.5935 18.478 19.5935 19.0623V21.187" stroke="#161616" stroke-width="1.3" stroke-miterlimit="10" stroke-linecap="round" stroke-linejoin="round"/>
</svg>
