<svg width="16" height="16" viewBox="0 0 24 24" fill="none" xmlns="http://www.w3.org/2000/svg">
<path d="M13.255 20.9009C11.5862 21.166 9.87631 20.8959 8.37048 20.1293C6.86465 19.3626 5.64023 18.1389 4.87277 16.6335C4.10531 15.1281 3.83422 13.4184 4.09836 11.7494C4.36251 10.0804 5.14833 8.53797 6.34316 7.34315C7.53798 6.14832 9.08046 5.3625 10.7494 5.09836C12.4184 4.83422 14.1281 5.10531 15.6335 5.87278C17.1389 6.64024 18.3627 7.86466 19.1293 9.37049C19.8959 10.8763 20.166 12.5862 19.9009 14.255" stroke="#161616" stroke-width="1.7" stroke-linecap="round" stroke-linejoin="round"/>
<path d="M10 2H14.5" stroke="#161616" stroke-width="1.7" stroke-linecap="round" stroke-linejoin="round"/>
<path d="M16 20.3328C16 20.8953 16.4375 21.3328 17 21.3328H18.0625C18.5 21.3328 18.9375 20.9578 18.9375 20.4578C18.9375 19.8953 18.6875 19.7078 18.375 19.5828L16.625 18.9578C16.1875 18.8953 16 18.7078 16 18.2078C16 17.7078 16.375 17.3328 16.875 17.3328H18C18.5625 17.3328 19 17.7703 19 18.3328" stroke="#161616" stroke-width="1.3" stroke-linecap="round" stroke-linejoin="round"/>
<path d="M13.2739 10H10.5344L10 13.2877C10.2671 13.0206 10.6074 12.8388 10.9778 12.7651C11.3483 12.6914 11.7323 12.7292 12.0812 12.8737C12.4302 13.0183 12.7285 13.2631 12.9383 13.5771C13.1481 13.8912 13.2601 14.2604 13.2601 14.6381C13.2601 15.0158 13.1481 15.3851 12.9383 15.6991C12.7285 16.0132 12.4302 16.258 12.0812 16.4025C11.7323 16.547 11.3483 16.5849 10.9778 16.5112C10.6074 16.4375 10.2671 16.2556 10 15.9885" stroke="#161616" stroke-width="1.7" stroke-linecap="round" stroke-linejoin="round"/>
</svg>
