<svg width="16" height="16" viewBox="0 0 24 24" fill="none" xmlns="http://www.w3.org/2000/svg">
<path d="M13.255 20.9009C11.5862 21.166 9.87631 20.8959 8.37048 20.1293C6.86465 19.3626 5.64023 18.1389 4.87277 16.6335C4.10531 15.1281 3.83422 13.4184 4.09836 11.7494C4.36251 10.0804 5.14833 8.53797 6.34316 7.34315C7.53798 6.14832 9.08046 5.3625 10.7494 5.09836C12.4184 4.83422 14.1281 5.10531 15.6335 5.87278C17.1389 6.64024 18.3627 7.86466 19.1293 9.37049C19.8959 10.8763 20.166 12.5862 19.9009 14.255" stroke="#161616" stroke-width="1.7" stroke-linecap="round" stroke-linejoin="round"/>
<path d="M10 2H14.5" stroke="#161616" stroke-width="1.7" stroke-linecap="round" stroke-linejoin="round"/>
<path d="M16 20.3328C16 20.8953 16.4375 21.3328 17 21.3328H18.0625C18.5 21.3328 18.9375 20.9578 18.9375 20.4578C18.9375 19.8953 18.6875 19.7078 18.375 19.5828L16.625 18.9578C16.1875 18.8953 16 18.7078 16 18.2078C16 17.7078 16.375 17.3328 16.875 17.3328H18C18.5625 17.3328 19 17.7703 19 18.3328" stroke="#161616" stroke-width="1.3" stroke-linecap="round" stroke-linejoin="round"/>
<path d="M11 11.0908L12.637 10V16.275" stroke="#161616" stroke-width="1.7" stroke-linecap="round" stroke-linejoin="round"/>
</svg>
