<svg width="16" height="16" viewBox="0 0 16 16" fill="none" xmlns="http://www.w3.org/2000/svg">
<path d="M4.81803 11.1821C4.3997 10.7645 4.06783 10.2685 3.8414 9.72248C3.61496 9.17648 3.49841 8.59119 3.49841 8.0001C3.49841 7.40901 3.61496 6.82372 3.8414 6.27772C4.06783 5.73172 4.3997 5.23572 4.81803 4.81812" stroke="current" stroke-width="1.3" stroke-linecap="round" stroke-linejoin="round"/>
<path d="M11.182 4.81812C11.6003 5.23572 11.9322 5.73172 12.1586 6.27772C12.3851 6.82372 12.5016 7.40901 12.5016 8.0001C12.5016 8.59119 12.3851 9.17648 12.1586 9.72248C11.9322 10.2685 11.6003 10.7645 11.182 11.1821" stroke="current" stroke-width="1.3" stroke-linecap="round" stroke-linejoin="round"/>
<path d="M3.05029 12.9498C2.39957 12.3002 1.88332 11.5286 1.53109 10.6793C1.17886 9.82997 0.997559 8.91952 0.997559 8.00004C0.997559 7.08057 1.17886 6.17012 1.53109 5.32078C1.88332 4.47145 2.39957 3.6999 3.05029 3.05029" stroke="current" stroke-width="1.3" stroke-linecap="round" stroke-linejoin="round"/>
<path d="M12.9497 3.05029C13.6004 3.6999 14.1167 4.47145 14.4689 5.32078C14.8211 6.17012 15.0024 7.08057 15.0024 8.00004C15.0024 8.91951 14.8211 9.82997 14.4689 10.6793C14.1167 11.5286 13.6004 12.3002 12.9497 12.9498" stroke="current" stroke-width="1.3" stroke-linecap="round" stroke-linejoin="round"/>
<path d="M8 1.33325L8 5.99992" stroke="current" stroke-width="1.3" stroke-linecap="round"/>
<path d="M8 10L8 14.6667" stroke="current" stroke-width="1.3" stroke-linecap="round"/>
<path d="M8.08337 8.83325C8.49759 8.83325 8.83337 8.49747 8.83337 8.08325C8.83337 7.66904 8.49759 7.33325 8.08337 7.33325C7.66916 7.33325 7.33337 7.66904 7.33337 8.08325C7.33337 8.49747 7.66916 8.83325 8.08337 8.83325Z" />
</svg>
