<svg width="150" height="150" viewBox="0 0 150 150" fill="none" xmlns="http://www.w3.org/2000/svg">
<g opacity="0.15">
<path d="M74.9995 125C102.614 125 125 102.614 125 74.9998C125 47.3856 102.614 24.9998 74.9995 24.9998C47.3853 24.9998 24.9995 47.3856 24.9995 74.9998C24.9995 102.614 47.3853 125 74.9995 125Z" stroke="#E45860" stroke-width="10" stroke-miterlimit="10"/>
<path d="M13.7473 43.7498C8.95446 53.1257 6.25098 63.747 6.25098 74.9998C6.25098 86.2526 8.95446 96.874 13.7473 106.25" stroke="#E45860" stroke-width="10" stroke-miterlimit="10" stroke-linecap="round"/>
<path d="M136.253 43.7498C141.046 53.1257 143.749 63.747 143.749 74.9998C143.749 86.2526 141.046 96.874 136.253 106.25" stroke="#E45860" stroke-width="10" stroke-miterlimit="10" stroke-linecap="round"/>
<path d="M75.002 46.8752V79.6877" stroke="#E45860" stroke-width="10" stroke-linecap="round" stroke-linejoin="round"/>
<path d="M75.0015 107.812C78.8847 107.812 82.0327 104.664 82.0327 100.781C82.0327 96.898 78.8847 93.75 75.0015 93.75C71.1182 93.75 67.9702 96.898 67.9702 100.781C67.9702 104.664 71.1182 107.812 75.0015 107.812Z" fill="#E45860"/>
</g>
</svg>
