<svg width="16" height="16" viewBox="0 0 16 16" fill="none" xmlns="http://www.w3.org/2000/svg">
<path d="M14 8C14 6.81337 13.6481 5.65339 12.9889 4.66672C12.3297 3.68005 11.3927 2.91102 10.2964 2.45685C9.20013 2.00269 7.9938 1.88379 6.82995 2.11519C5.6661 2.3466 4.597 2.91791 3.75783 3.75689C2.91867 4.59587 2.34712 5.66485 2.11545 6.82864C1.88379 7.99244 2.00242 9.1988 2.45634 10.2952C2.91026 11.3916 3.67909 12.3287 4.66561 12.9882C5.65213 13.6476 6.81204 13.9997 7.99867 14M12.6673 14C12.3137 14 11.9746 13.8595 11.7245 13.6095C11.4745 13.3594 11.334 13.0203 11.334 12.6667C11.334 12.313 11.4745 11.9739 11.7245 11.7239C11.9746 11.4738 12.3137 11.3333 12.6673 11.3333M12.6673 14C13.0209 14 13.3601 13.8595 13.6101 13.6095C13.8602 13.3594 14.0007 13.0203 14.0007 12.6667C14.0007 12.313 13.8602 11.9739 13.6101 11.7239C13.3601 11.4738 13.0209 11.3333 12.6673 11.3333M12.6673 14V15M12.6673 11.3333V10.3333M14.688 11.5L13.822 12M11.5133 13.3333L10.6466 13.8333M10.6466 11.5L11.5133 12M13.822 13.3333L14.6886 13.8333M8 4.66667V8L9.33333 9.33333" stroke="#0090FF" stroke-width="1.7" stroke-linecap="round" stroke-linejoin="round"/>
</svg>
