<svg style="margin:0 5px" width="24" height="24" viewBox="0 0 24 24" fill="none" xmlns="http://www.w3.org/2000/svg">
<path d="M5.87569 10.8932C7.11831 10.8932 8.12565 9.88589 8.12565 8.64327C8.12565 7.40065 7.11831 6.39331 5.87569 6.39331C4.63307 6.39331 3.62573 7.40065 3.62573 8.64327C3.62573 9.88589 4.63307 10.8932 5.87569 10.8932Z" stroke="current" stroke-width="1.3" stroke-linecap="round" stroke-linejoin="round"/>
<path d="M14.1257 17.6432C15.3683 17.6432 16.3756 16.6359 16.3756 15.3933C16.3756 14.1507 15.3683 13.1433 14.1257 13.1433C12.8831 13.1433 11.8757 14.1507 11.8757 15.3933C11.8757 16.6359 12.8831 17.6432 14.1257 17.6432Z" stroke="current" stroke-width="1.3" stroke-linecap="round" stroke-linejoin="round"/>
<path d="M9.12903 6.42377C9.23994 6.58661 9.33846 6.75756 9.42375 6.93516L10.64 7.61031C10.7881 8.29068 10.7886 8.9949 10.6415 9.67547L9.42456 10.351C9.33899 10.5285 9.24021 10.6993 9.12904 10.8619L9.15245 12.2528C8.6373 12.7212 8.02769 13.0738 7.36471 13.2866L6.17125 12.5705C5.97477 12.5852 5.77747 12.585 5.58101 12.5701L4.38821 13.2858C3.72493 13.0739 3.1148 12.7222 2.59898 12.2545L2.6224 10.8629C2.51149 10.7 2.41298 10.5291 2.32769 10.3515L1.11148 9.67633C0.963344 8.99597 0.962836 8.29174 1.10999 7.61117L2.32687 6.93565C2.41244 6.75817 2.51123 6.58738 2.6224 6.42471L2.59899 5.03387C3.11413 4.5654 3.72375 4.21285 4.38672 4L5.58018 4.71609C5.77667 4.70146 5.97397 4.70162 6.17043 4.71656L7.36322 4.00086C8.02651 4.21275 8.63664 4.56442 9.15246 5.03215L9.12903 6.42377Z" stroke="current" stroke-width="1.3" stroke-linecap="round" stroke-linejoin="round"/>
<path d="M17.379 13.1738C17.4899 13.3366 17.5885 13.5076 17.6737 13.6852L18.89 14.3603C19.0381 15.0407 19.0386 15.7449 18.8914 16.4255L17.6746 17.101C17.589 17.2785 17.4902 17.4493 17.379 17.6119L17.4024 19.0028C16.8873 19.4712 16.2777 19.8238 15.6147 20.0366L14.4213 19.3205C14.2248 19.3352 14.0275 19.335 13.831 19.3201L12.6382 20.0358C11.9749 19.8239 11.3648 19.4722 10.849 19.0045L10.8724 17.6129C10.7615 17.45 10.663 17.2791 10.5777 17.1015L9.36148 16.4263C9.21334 15.746 9.21284 15.0417 9.35999 14.3612L10.5769 13.6856C10.6624 13.5082 10.7612 13.3374 10.8724 13.1747L10.849 11.7839C11.3641 11.3154 11.9738 10.9629 12.6367 10.75L13.8302 11.4661C14.0267 11.4515 14.224 11.4516 14.4204 11.4666L15.6132 10.7509C16.2765 10.9628 16.8866 11.3144 17.4025 11.7822L17.379 13.1738Z" stroke="current" stroke-width="1.3" stroke-linecap="round" stroke-linejoin="round"/>
<path d="M14 7.92857H15.4286L17.2143 4L20.0714 11.5L21.8571 7.92857H23.2857" stroke="current" stroke-width="1.3" stroke-linecap="round" stroke-linejoin="round"/>
</svg>
