<svg width="22" height="22" viewBox="0 0 22 22" fill="none" xmlns="http://www.w3.org/2000/svg">
<path d="M11 2.0625C9.23233 2.0625 7.50436 2.58668 6.0346 3.56874C4.56483 4.55081 3.41929 5.94665 2.74283 7.57977C2.06637 9.21288 1.88938 11.0099 2.23424 12.7436C2.57909 14.4773 3.43031 16.0698 4.68024 17.3198C5.93017 18.5697 7.52268 19.4209 9.25638 19.7658C10.9901 20.1106 12.7871 19.9336 14.4202 19.2572C16.0534 18.5807 17.4492 17.4352 18.4313 15.9654C19.4133 14.4956 19.9375 12.7677 19.9375 11C19.9348 8.63047 18.9923 6.35877 17.3167 4.68326C15.6412 3.00774 13.3695 2.06524 11 2.0625ZM15.2566 9.435L10.2145 14.2475C10.0863 14.3695 9.9161 14.4375 9.73914 14.4375C9.56218 14.4375 9.392 14.3695 9.2638 14.2475L6.74341 11.8412C6.61174 11.7151 6.53551 11.5419 6.53147 11.3596C6.52744 11.1773 6.59592 11.0008 6.72189 10.869C6.84785 10.7372 7.02099 10.6607 7.20328 10.6565C7.38557 10.6522 7.5621 10.7205 7.6941 10.8463L9.73914 12.7993L14.3059 8.44C14.4379 8.31421 14.6144 8.24594 14.7967 8.25021C14.979 8.25448 15.1522 8.33093 15.2781 8.46276C15.4041 8.5946 15.4726 8.77104 15.4685 8.95333C15.4645 9.13563 15.3883 9.30887 15.2566 9.435Z" fill="#0F6FFF"/>
</svg>
