<svg width="16" height="16" viewBox="0 0 16 16" fill="none" xmlns="http://www.w3.org/2000/svg">
<path d="M8.33341 11.3333H2.66675C3.03004 11.1276 3.33995 10.8395 3.57154 10.4921C3.80312 10.1447 3.94991 9.7478 4.00008 9.33333V7.33333C4.03979 6.48738 4.30895 5.66818 4.77871 4.96353C5.24848 4.25888 5.90114 3.69535 6.66675 3.33333C6.66675 2.97971 6.80722 2.64057 7.05727 2.39052C7.30732 2.14048 7.64646 2 8.00008 2C8.3537 2 8.69284 2.14048 8.94289 2.39052C9.19294 2.64057 9.33341 2.97971 9.33341 3.33333C10.099 3.69535 10.7517 4.25888 11.2214 4.96353C11.6912 5.66818 11.9604 6.48738 12.0001 7.33333V8.66667M6.00008 11.3333V12C6.00008 12.5304 6.21079 13.0391 6.58587 13.4142C6.96094 13.7893 7.46965 14 8.00008 14M10.6667 14.6667L14.0001 11.3333M14.0001 11.3333V14.3333M14.0001 11.3333H11.0001" stroke="#646464" stroke-width="1.5" stroke-linecap="round" stroke-linejoin="round"/>
</svg>
