<svg width="288" height="288" viewBox="0 0 288 288" fill="none" xmlns="http://www.w3.org/2000/svg">
<g opacity="0.15">
<path d="M144.502 192C130.994 192 120 203.96 120 218.667C120 233.373 130.994 245.333 144.502 245.333C156.005 245.333 161.66 238.18 163.112 235.993C164.862 233.366 163.939 229.95 161.049 228.363C158.17 226.776 154.402 227.616 152.656 230.238C152.035 231.171 149.606 234.231 144.502 234.231C137.843 234.231 132.222 227.106 132.222 218.675C132.222 210.244 137.843 203.12 144.502 203.12C149.601 203.12 152.035 206.171 152.656 207.104C154.411 209.726 158.175 210.566 161.049 208.979C163.939 207.388 164.857 203.971 163.112 201.349C161.65 199.153 155.996 192 144.502 192ZM194.556 192C180.402 192 168.889 203.96 168.889 218.667C168.889 233.373 180.402 245.333 194.556 245.333C208.709 245.333 220.222 233.373 220.222 218.667C220.222 203.96 208.709 192 194.556 192ZM194.556 203.111C201.972 203.111 208 210.089 208 218.667C208 227.244 201.972 234.222 194.556 234.222C187.139 234.222 181.111 227.244 181.111 218.667C181.111 210.089 187.139 203.111 194.556 203.111ZM237.333 216.444C229.296 216.444 224.687 220.734 223.23 223.267C222.008 225.392 222.904 227.945 225.197 229.127C227.485 230.296 230.431 229.552 231.814 227.512C231.961 227.29 233.398 225.333 237.333 225.333C240.027 225.333 242.222 227.329 242.222 229.778C242.222 231.933 237.611 234.274 233.905 236.158C228.64 238.829 222.667 241.853 222.667 247.556C222.667 250.009 224.857 252 227.556 252H247.111C249.81 252 252 250.009 252 247.556C252 245.102 249.81 243.111 247.111 243.111H240.246C245.839 240.222 252 236.511 252 229.778C252 222.427 245.42 216.444 237.333 216.444Z" fill="#85CA86"/>
<path d="M108.009 233.982H81.0091C72.0747 233.974 63.2444 232.065 55.1043 228.382C46.9641 224.7 39.7002 219.328 33.7948 212.624C27.8894 205.92 23.4775 198.036 20.852 189.496C18.2265 180.956 17.4474 171.956 18.5664 163.092C19.6855 154.228 22.677 145.703 27.3425 138.084C32.0081 130.464 38.2409 123.924 45.6272 118.898C53.0135 113.872 61.3845 110.474 70.1844 108.93C78.9844 107.386 88.0121 107.732 96.6682 109.944" stroke="#85CA86" stroke-width="20.4" stroke-linecap="round" stroke-linejoin="round"/>
<path d="M90 143.982C90.0014 129.722 93.3913 115.667 99.8904 102.974C106.389 90.2806 115.812 79.3135 127.381 70.9762C138.949 62.6389 152.334 57.1699 166.431 55.02C180.528 52.87 194.934 54.1006 208.463 58.6104M265.906 117.155C270.158 130.766 271.115 145.193 268.698 159.247C266.28 173.301 260.558 186.579 252.003 197.988" stroke="#85CA86" stroke-width="20.4" stroke-linecap="round" stroke-linejoin="round"/>
<path d="M266.143 60L210.623 115.519L188.416 93.3117L144 137.727" stroke="#85CA86" stroke-width="20.4" stroke-linecap="round" stroke-linejoin="round"/>
<path d="M266.143 87.7597V60H238.383" stroke="#85CA86" stroke-width="20.4" stroke-linecap="round" stroke-linejoin="round"/>
</g>
</svg>
