<svg width="16" height="16" viewBox="0 0 24 24" fill="none" xmlns="http://www.w3.org/2000/svg">
<g clip-path="url(#clip0_33577_60849)">
<path d="M14.9674 17.3739L2.01372 22.0012C1.97703 22.0143 1.95605 22.0112 1.94288 22.0076C1.92519 22.0026 1.90291 21.9905 1.88291 21.9684C1.8629 21.9463 1.85298 21.923 1.84983 21.9049C1.84749 21.8914 1.84644 21.8702 1.86308 21.835L7.8425 9.17357C7.87994 9.09428 7.98651 9.07961 8.04399 9.14582L15.0183 17.18C15.0743 17.2445 15.0479 17.3452 14.9674 17.3739Z" stroke="black" stroke-width="1.7" stroke-linecap="round" stroke-linejoin="round"/>
<path d="M10.9795 3.3675C11.0437 3.1364 11.1699 2.92729 11.3446 2.76289C11.5192 2.59849 11.7355 2.48508 11.9701 2.43497C12.2046 2.38487 12.4484 2.39998 12.675 2.47867C12.9016 2.55737 13.1022 2.69663 13.2552 2.88134C13.4082 3.06605 13.5077 3.28915 13.5428 3.52641C13.5779 3.76366 13.5474 4.00601 13.4545 4.22713L11.4203 9.06702" stroke="black" stroke-width="1.7" stroke-linecap="round" stroke-linejoin="round"/>
<path d="M21.3942 15.7933C21.6341 15.7907 21.8686 15.7225 22.0724 15.596C22.2761 15.4695 22.4414 15.2896 22.5501 15.0758C22.6588 14.862 22.7069 14.6225 22.6891 14.3833C22.6713 14.1441 22.5883 13.9144 22.4491 13.7191C22.3099 13.5237 22.1199 13.3703 21.8997 13.2753C21.6794 13.1804 21.4374 13.1476 21.1998 13.1805L15.9996 13.902" stroke="black" stroke-width="1.7" stroke-linecap="round" stroke-linejoin="round"/>
<path d="M19.8445 4.38392C20.0008 4.25203 20.1901 4.16546 20.392 4.13361C20.594 4.10176 20.8008 4.12585 20.99 4.20326C21.1792 4.28067 21.3436 4.40844 21.4653 4.5727C21.587 4.73695 21.6614 4.93142 21.6804 5.13497C21.6994 5.33853 21.6622 5.54339 21.573 5.72731C21.4837 5.91124 21.3458 6.06719 21.1741 6.17824L14.2854 10.6339" stroke="black" stroke-width="1.7" stroke-linecap="round" stroke-linejoin="round"/>
<path d="M16.9206 4V5.74415" stroke="black" stroke-linecap="round" stroke-linejoin="round"/>
<path d="M17.7929 4.87207H16.0488" stroke="black" stroke-linecap="round" stroke-linejoin="round"/>
<path d="M19.5821 10V11.1628" stroke="black" stroke-width="0.8" stroke-linecap="round" stroke-linejoin="round"/>
<path d="M20.1628 10.5815H19.0001" stroke="black" stroke-width="0.8" stroke-linecap="round" stroke-linejoin="round"/>
</g>
<defs>
<clipPath id="clip0_33577_60849">
<rect width="16" height="16" fill="white"/>
</clipPath>
</defs>
</svg>
