<svg width="288" height="288" viewBox="0 0 288 288" fill="none" xmlns="http://www.w3.org/2000/svg">
<g opacity="0.15">
<path d="M108.131 112.043H197.87" stroke="#FFC965" stroke-width="20.4" stroke-linecap="round" stroke-linejoin="round"/>
<path d="M108.131 84H197.87" stroke="#FFC965" stroke-width="20.4" stroke-linecap="round" stroke-linejoin="round"/>
<path d="M133.37 84C143.039 84 152.312 87.8409 159.149 94.6779C165.986 101.515 169.827 110.788 169.827 120.457C169.827 130.125 165.986 139.398 159.149 146.235C152.312 153.072 143.039 156.913 133.37 156.913H108.131L169.827 213" stroke="#FFC965" stroke-width="20.4" stroke-linecap="round" stroke-linejoin="round"/>
<path d="M144 252C203.647 252 252 203.647 252 144C252 84.3532 203.647 36 144 36C84.3532 36 36 84.3532 36 144C36 203.647 84.3532 252 144 252Z" stroke="#FFC965" stroke-width="20.4" stroke-linecap="round" stroke-linejoin="round"/>
</g>
</svg>
