<svg width="28" height="28" viewBox="0 0 28 28" fill="none" xmlns="http://www.w3.org/2000/svg">
<path d="M11.4691 5.5625H6.40662C5.94063 5.5625 5.56287 5.94026 5.56287 6.40625V11.4688C5.56287 11.9347 5.94063 12.3125 6.40662 12.3125H11.4691C11.9351 12.3125 12.3129 11.9347 12.3129 11.4688V6.40625C12.3129 5.94026 11.9351 5.5625 11.4691 5.5625Z" stroke="#161616" stroke-width="2.5" stroke-linecap="round" stroke-linejoin="round"/>
<path d="M11.4691 15.6875H6.40662C5.94063 15.6875 5.56287 16.0653 5.56287 16.5312V21.5938C5.56287 22.0597 5.94063 22.4375 6.40662 22.4375H11.4691C11.9351 22.4375 12.3129 22.0597 12.3129 21.5938V16.5312C12.3129 16.0653 11.9351 15.6875 11.4691 15.6875Z" stroke="#161616" stroke-width="2.5" stroke-linecap="round" stroke-linejoin="round"/>
<path d="M21.5941 5.5625H16.5316C16.0656 5.5625 15.6879 5.94026 15.6879 6.40625V11.4688C15.6879 11.9347 16.0656 12.3125 16.5316 12.3125H21.5941C22.0601 12.3125 22.4379 11.9347 22.4379 11.4688V6.40625C22.4379 5.94026 22.0601 5.5625 21.5941 5.5625Z" stroke="#161616" stroke-width="2.5" stroke-linecap="round" stroke-linejoin="round"/>
<path d="M15.6875 17.375L22.4375 17.375" stroke="#161616" stroke-width="2.5" stroke-linecap="round" stroke-linejoin="round"/>
<path d="M15.6875 20.75L22.4375 20.75" stroke="#161616" stroke-width="2.5" stroke-linecap="round" stroke-linejoin="round"/>
</svg>
