<svg width="24" height="24" viewBox="0 0 24 24" fill="none" xmlns="http://www.w3.org/2000/svg">
<path d="M20.15 12C20.15 12.4694 20.5306 12.85 21 12.85C21.4694 12.85 21.85 12.4694 21.85 12H20.15ZM12 21.85C12.4694 21.85 12.85 21.4694 12.85 21C12.85 20.5306 12.4694 20.15 12 20.15V21.85ZM12 20.15C7.49888 20.15 3.85 16.5011 3.85 12H2.15C2.15 17.44 6.55999 21.85 12 21.85V20.15ZM3.85 12C3.85 7.49888 7.49888 3.85 12 3.85V2.15C6.55999 2.15 2.15 6.55999 2.15 12H3.85ZM12 3.85C16.5011 3.85 20.15 7.49888 20.15 12H21.85C21.85 6.55999 17.44 2.15 12 2.15V3.85Z" fill="#242424"/>
<path d="M12 6.75V12H17.25" stroke="#242424" stroke-width="1.7" stroke-linecap="round" stroke-linejoin="round"/>
<path d="M17.5145 21H15.7878C15.7115 21 15.6383 20.9697 15.5843 20.9157C15.5303 20.8617 15.5 20.7885 15.5 20.7122V19.1047C15.5 19.0669 15.5074 19.0294 15.5219 18.9945C15.5364 18.9596 15.5576 18.9279 15.5843 18.9012L19.9012 14.5843C19.9551 14.5303 20.0283 14.5 20.1047 14.5C20.181 14.5 20.2542 14.5303 20.3082 14.5843L21.9157 16.1918C21.9697 16.2458 22 16.319 22 16.3953C22 16.4717 21.9697 16.5449 21.9157 16.5988L17.5145 21Z" stroke="#242424" stroke-width="1.7" stroke-linecap="round" stroke-linejoin="round"/>
</svg>
