<svg width="16" height="16" viewBox="0 0 16 16" fill="none" xmlns="http://www.w3.org/2000/svg">
<path d="M7.33341 3.33312H4.00008C3.64646 3.33312 3.30732 3.47359 3.05727 3.72364C2.80722 3.97369 2.66675 4.31283 2.66675 4.66645V11.9998C2.66675 12.3534 2.80722 12.6925 3.05727 12.9426C3.30732 13.1926 3.64646 13.3331 4.00008 13.3331H11.3334C11.687 13.3331 12.0262 13.1926 12.2762 12.9426C12.5263 12.6925 12.6667 12.3534 12.6667 11.9998V8.66645M11.7241 2.39045C11.8471 2.2631 11.9942 2.16153 12.1569 2.09165C12.3195 2.02177 12.4945 1.98499 12.6715 1.98345C12.8486 1.98191 13.0242 2.01565 13.188 2.08269C13.3519 2.14973 13.5008 2.24873 13.6259 2.37392C13.7511 2.49911 13.8501 2.64798 13.9172 2.81184C13.9842 2.97571 14.018 3.15128 14.0164 3.32832C14.0149 3.50536 13.9781 3.68032 13.9082 3.84299C13.8383 4.00566 13.7368 4.15279 13.6094 4.27578L7.88541 9.99978H6.00008V8.11445L11.7241 2.39045Z" stroke="#0F6FFF" stroke-width="1.7" stroke-linecap="round" stroke-linejoin="round"/>
</svg>
