<svg width="150" height="150" viewBox="0 0 150 150" fill="none" xmlns="http://www.w3.org/2000/svg">
<g opacity="0.15">
<path d="M111.757 18.75C108.71 18.75 105.782 19.3359 103.087 20.5078H102.968L45.0788 45.8199C43.321 46.6402 42.5007 48.6324 43.321 50.5074C43.9069 51.7964 45.1946 52.6176 46.6009 52.6176C47.0696 52.6176 47.5397 52.4995 48.0085 52.2652L90.6629 33.6319C89.7254 36.0928 89.2576 38.7891 89.2576 41.6016C89.2576 54.2578 99.4538 64.4531 111.876 64.4531C124.298 64.4531 134.375 54.2578 134.375 41.6016C134.375 28.9453 124.179 18.75 111.757 18.75ZM111.757 25.7812C120.311 25.7812 127.343 32.9297 127.343 41.6016C127.343 50.2734 120.311 57.4219 111.757 57.4219C103.202 57.4219 96.1721 50.2734 96.1721 41.6016C96.1721 32.9297 103.202 25.7812 111.757 25.7812ZM111.64 36.7973C110.366 36.7975 109.144 37.3037 108.243 38.2046C107.342 39.1055 106.836 40.3274 106.836 41.6016C106.836 42.8757 107.342 44.0976 108.243 44.9985C109.144 45.8995 110.366 46.4057 111.64 46.4058C112.914 46.4057 114.136 45.8995 115.037 44.9985C115.938 44.0976 116.444 42.8757 116.444 41.6016C116.444 40.3274 115.938 39.1055 115.037 38.2046C114.136 37.3036 112.914 36.7975 111.64 36.7973V36.7973ZM30.4304 54.4922C20.5866 54.4922 12.4998 62.5786 12.4998 72.5395C12.4998 76.9926 14.1395 81.0942 16.8348 84.2583C16.952 84.3755 16.9533 84.4917 17.0705 84.4917L39.5696 108.398C40.2727 109.102 41.2116 109.454 42.1491 109.454C42.9694 109.454 43.9065 109.101 44.6096 108.515C46.0158 107.226 46.1326 105 44.7263 103.594L32.3049 90.4678C41.2111 89.5303 48.2419 81.7973 48.2419 72.5395C48.2419 62.5786 40.2741 54.4922 30.4304 54.4922ZM30.4304 61.5234C36.4069 61.5234 41.2107 66.4458 41.2107 72.5395C41.2107 78.6333 36.4069 83.5556 30.4304 83.5556C27.5007 83.5556 24.8054 82.3824 22.8132 80.3902L22.5774 80.1567C20.7024 78.1645 19.531 75.4692 19.531 72.5395C19.531 66.4458 24.4538 61.5234 30.4304 61.5234ZM125.94 65.0207C124.322 65.1361 122.861 66.3281 122.656 67.9687L119.726 87.3047C113.633 75.2344 101.094 67.0303 86.7971 67.0303C66.4065 67.1475 49.883 83.7886 49.883 104.414C49.883 125.039 66.5232 141.797 86.9138 141.797C104.726 141.797 119.727 128.907 123.125 111.681V111.445C123.242 110.625 123.475 109.688 123.475 108.868L129.571 69.0239C129.922 67.1489 128.516 65.2734 126.641 65.0391C126.406 65.0098 126.172 65.0043 125.94 65.0207ZM30.4304 69.0239C29.498 69.0239 28.6037 69.3943 27.9444 70.0536C27.2851 70.7129 26.9147 71.6071 26.9147 72.5395C26.9147 73.4719 27.2851 74.3661 27.9444 75.0254C28.6037 75.6847 29.498 76.0551 30.4304 76.0551C31.3628 76.0551 32.257 75.6847 32.9163 75.0254C33.5756 74.3661 33.946 73.4719 33.946 72.5395C33.946 71.6071 33.5756 70.7129 32.9163 70.0536C32.257 69.3943 31.3628 69.0239 30.4304 69.0239V69.0239ZM86.7971 74.0616C103.321 74.0616 116.797 87.773 116.797 104.414C116.797 105.585 116.68 106.758 116.563 107.812L116.211 110.39C113.515 124.218 101.328 134.766 86.7971 134.766C70.2736 134.766 56.7975 121.171 56.7975 104.414C56.7975 87.6558 70.2736 74.0616 86.7971 74.0616ZM87.0305 81.6788C85.0384 81.6788 83.5149 83.2022 83.5149 85.1944V91.8755C82.4602 92.1098 81.5227 92.5786 80.5852 93.0473L76.0145 88.3598C74.6082 86.9536 72.3826 86.9536 71.0935 88.3598C69.6873 89.7661 69.6873 91.9917 71.0935 93.2808L75.781 97.9683C75.3123 98.9058 74.8435 99.8433 74.6091 100.898H68.0471C66.0549 100.898 64.5315 102.421 64.5315 104.414C64.5315 106.406 66.0549 107.929 68.0471 107.929H74.6091C74.8435 108.984 75.3123 109.921 75.781 110.859L71.0935 115.546C69.6873 116.953 69.6873 119.181 71.0935 120.47C71.7966 121.173 72.6165 121.523 73.554 121.523C74.4915 121.523 75.3113 121.173 76.0145 120.47L80.5852 115.782C81.5227 116.251 82.4602 116.72 83.5149 116.954V123.633C83.5149 125.625 85.0384 127.148 87.0305 127.148C89.0227 127.148 90.5462 125.625 90.5462 123.633V116.954C91.6009 116.72 92.5384 116.251 93.4759 115.782L98.0466 120.47C98.7497 121.173 99.6868 121.523 100.507 121.523C101.445 121.523 102.264 121.173 102.968 120.47C104.374 119.063 104.374 116.835 102.968 115.546L98.2801 110.859C98.7488 109.921 99.2176 108.984 99.452 107.929H106.016C108.008 107.929 109.532 106.406 109.532 104.414C109.532 102.421 108.008 100.898 106.016 100.898H99.452C99.2176 99.8433 98.7488 98.9058 98.2801 97.9683L102.968 93.2808C104.374 91.8745 104.374 89.6489 102.968 88.3598C101.561 86.9536 99.3357 86.9536 98.0466 88.3598L93.4759 93.0473C92.5384 92.5786 91.6009 92.1098 90.5462 91.8755V85.1944C90.5462 83.2022 89.0227 81.6788 87.0305 81.6788ZM86.7971 98.4375C90.0783 98.4375 92.8899 101.249 92.8899 104.53C92.8899 107.812 90.1955 110.625 86.7971 110.625C83.5158 110.625 80.702 107.812 80.702 104.53C80.702 101.249 83.3986 98.4375 86.7971 98.4375Z" fill="#2E81FF"/>
<path d="M19.3333 44.3896L21.6111 33.0005L12.4998 29.5837L28.4446 12.5L26.1667 23.8892L35.2781 27.3059L19.3333 44.3896Z" fill="#2E81FF"/>
</g>
</svg>
