<svg width="150" height="150" viewBox="0 0 150 150" fill="none" xmlns="http://www.w3.org/2000/svg">
<g opacity="0.15">
<path d="M103.223 58.4274H131.348V30.3024" stroke="#A742C2" stroke-width="10" stroke-linecap="round" stroke-linejoin="round"/>
<path d="M38.541 38.5399C43.329 33.7519 49.0132 29.9538 55.2691 27.3626C61.5249 24.7713 68.2299 23.4376 75.0012 23.4376C81.7725 23.4376 88.4775 24.7713 94.7333 27.3626C100.989 29.9538 106.673 33.7519 111.461 38.5399L131.349 58.4273" stroke="#A742C2" stroke-width="10" stroke-linecap="round" stroke-linejoin="round"/>
<path d="M46.7788 91.5729H18.6538V119.698" stroke="#A742C2" stroke-width="10" stroke-linecap="round" stroke-linejoin="round"/>
<path d="M111.462 111.46C106.674 116.248 100.989 120.046 94.7335 122.638C88.4776 125.229 81.7727 126.563 75.0014 126.563C68.2301 126.563 61.5251 125.229 55.2693 122.638C49.0134 120.046 43.3292 116.248 38.5412 111.46L18.6538 91.5729" stroke="#A742C2" stroke-width="10" stroke-linecap="round" stroke-linejoin="round"/>
<path d="M76.7085 82.0312C81.8862 82.0312 86.0835 77.8339 86.0835 72.6562C86.0835 67.4785 81.8862 63.2812 76.7085 63.2812C71.5308 63.2812 67.3335 67.4785 67.3335 72.6562C67.3335 77.8339 71.5308 82.0312 76.7085 82.0312Z" stroke="#A742C2" stroke-width="10" stroke-linecap="round" stroke-linejoin="round"/>
<path d="M76.7075 63.2812V56.25" stroke="#A742C2" stroke-width="10" stroke-linecap="round" stroke-linejoin="round"/>
<path d="M68.5897 67.9686L62.5005 64.4529" stroke="#A742C2" stroke-width="10" stroke-linecap="round" stroke-linejoin="round"/>
<path d="M68.5897 77.3435L62.5005 80.8592" stroke="#A742C2" stroke-width="10" stroke-linecap="round" stroke-linejoin="round"/>
<path d="M76.7075 82.0312V89.0624" stroke="#A742C2" stroke-width="10" stroke-linecap="round" stroke-linejoin="round"/>
<path d="M84.8281 77.3435L90.9174 80.8592" stroke="#A742C2" stroke-width="10" stroke-linecap="round" stroke-linejoin="round"/>
<path d="M84.8281 67.9686L90.9174 64.4529" stroke="#A742C2" stroke-width="10" stroke-linecap="round" stroke-linejoin="round"/>
</g>
</svg>
