<svg width="24" height="24" viewBox="0 0 24 24" fill="none" xmlns="http://www.w3.org/2000/svg">
<path d="M18.0007 8.25L12.7507 3H3.75C3.55109 3 3.36032 3.07902 3.21967 3.21967C3.07902 3.36032 3 3.55109 3 3.75V20.25C3 20.4489 3.07902 20.6397 3.21967 20.7803C3.36032 20.921 3.55109 21 3.75 21H17.2507C17.3492 21 17.4468 20.9806 17.5377 20.9429C17.6287 20.9052 17.7114 20.85 17.7811 20.7803C17.8507 20.7107 17.906 20.628 17.9436 20.537C17.9813 20.446 18.0007 20.3485 18.0007 20.25V18.5" stroke="current" stroke-width="1.7" stroke-linecap="round" stroke-linejoin="round"/>
<path d="M12.75 3V8.25H18.0007" stroke="current" stroke-width="1.7" stroke-linecap="round" stroke-linejoin="round"/>
<path d="M6 14H12" stroke="current" stroke-width="1.7" stroke-linecap="round" stroke-linejoin="round"/>
<path d="M6 11H14" stroke="current" stroke-width="1.7" stroke-linecap="round" stroke-linejoin="round"/>
<path d="M15.5 18H13.5V16L19.5 10L21.5 12L15.5 18Z" stroke="current" stroke-width="1.7" stroke-linecap="round" stroke-linejoin="round"/>
</svg>
