<svg width="150" height="150" viewBox="0 0 150 150" fill="none" xmlns="http://www.w3.org/2000/svg">
<g opacity="0.15">
<path d="M130.851 68.2618C131.117 70.498 131.251 72.748 131.25 75C131.25 86.1252 127.951 97.0006 121.77 106.251C115.589 115.501 106.804 122.711 96.526 126.968C86.2476 131.226 74.9376 132.34 64.0262 130.169C53.1148 127.999 43.092 122.641 35.2253 114.775C27.3586 106.908 22.0013 96.8853 19.8309 85.9738C17.6604 75.0624 18.7744 63.7524 23.0318 53.4741C27.2892 43.1957 34.4989 34.4107 43.7492 28.2298C52.9995 22.049 63.8748 18.75 75 18.75C76.76 18.75 78.4999 18.8297 80.2198 18.989" stroke="#0F6FFF" stroke-width="10.4167" stroke-linecap="round" stroke-linejoin="round"/>
<path d="M56.2401 34.3553C55.5131 33.9333 54.6861 33.7145 53.8455 33.7219C53.0209 33.7293 52.2128 33.9542 51.5029 34.3737C50.7929 34.7933 50.2062 35.3927 49.8019 36.1115C49.3976 36.8302 49.1901 37.6429 49.2003 38.4675C49.2105 39.2921 49.438 40.0995 49.8599 40.808L66.8948 70.3185C66.0736 71.7435 65.6416 73.3594 65.6423 75.004C65.6431 76.6487 66.0764 78.2642 66.8989 79.6884C67.7214 81.1126 68.9041 82.2954 70.3282 83.118C71.7524 83.9406 73.3679 84.3741 75.0125 84.3749L78.6868 90.7409C78.9874 91.2877 79.3941 91.7689 79.8831 92.1565C80.372 92.544 80.9334 92.83 81.5344 92.9978C82.1353 93.1656 82.7637 93.2117 83.3827 93.1335C84.0017 93.0552 84.5989 92.8542 85.1392 92.5422C85.6795 92.2302 86.1521 91.8135 86.5293 91.3165C86.9065 90.8195 87.1807 90.2522 87.3358 89.6479C87.4909 89.0435 87.5238 88.4143 87.4325 87.7971C87.3413 87.1798 87.1278 86.587 86.8045 86.0534L83.1302 79.6874C83.953 78.2624 84.3861 76.6458 84.3862 75.0003C84.3863 73.3547 83.9532 71.7381 83.1305 70.313C82.3078 68.8879 81.1245 67.7044 79.6995 66.8814C78.2746 66.0585 76.6581 65.6252 75.0125 65.6249L57.9776 36.1205C57.5672 35.387 56.967 34.7773 56.2401 34.3553Z" fill="#0F6FFF"/>
<path d="M118.75 75C118.75 71.84 118.408 68.6969 117.734 65.625M31.25 75C31.25 69.2547 32.3816 63.5656 34.5803 58.2576C36.7789 52.9496 40.0015 48.1266 44.0641 44.0641C48.1266 40.0015 52.9496 36.7789 58.2576 34.5803C63.5656 32.3816 69.2547 31.25 75 31.25C79.5866 31.25 84.1374 31.9712 88.487 33.3807" stroke="#0F6FFF" stroke-width="10.4167" stroke-dasharray="10.42 10.42"/>
<path fill-rule="evenodd" clip-rule="evenodd" d="M93.75 40.6997C93.75 34.9294 96.6829 28.7402 100.277 23.3218L100.277 23.322L109.581 29.5246L117.689 12.4995L117.689 12.4993C124.481 19.2808 132.863 28.5934 132.863 40.6997C132.863 45.8864 130.802 50.8606 127.135 54.5282C123.467 58.1957 118.493 60.2561 113.306 60.2561C108.12 60.2561 103.145 58.1957 99.4779 54.5282C95.8104 50.8606 93.75 45.8864 93.75 40.6997ZM126.894 40.8741C127.162 39.3025 126.106 37.8106 124.535 37.5418C122.963 37.273 121.471 38.3291 121.203 39.9007C120.933 41.476 120.182 42.9281 119.053 44.0567C117.925 45.1853 116.474 45.9347 114.903 46.2021C113.331 46.4696 112.274 47.9607 112.541 49.5325C112.809 51.1043 114.3 52.1616 115.872 51.8941C118.624 51.4258 121.162 50.1136 123.136 48.1394C125.11 46.1652 126.423 43.6265 126.894 40.8741Z" fill="#0F6FFF"/>
</g>
</svg>
