<svg width="12" height="11" viewBox="0 0 12 11" fill="none" xmlns="http://www.w3.org/2000/svg">
<path d="M5.68638 7.21637H6.79604L7.45325 8.06843L7.92221 8.62326L9.04838 10.0698H7.85946L7.09327 9.09882L6.76632 8.63647L5.68638 7.21637ZM9.21021 6.10671C9.21021 6.83547 9.0737 7.45965 8.80069 7.97926C8.52988 8.49666 8.16 8.89296 7.69103 9.16818C7.22427 9.44339 6.69476 9.581 6.1025 9.581C5.51025 9.581 4.97963 9.44339 4.51067 9.16818C4.04391 8.89076 3.67402 8.49335 3.40101 7.97595C3.1302 7.45635 2.9948 6.83327 2.9948 6.10671C2.9948 5.37794 3.1302 4.75486 3.40101 4.23746C3.67402 3.71786 4.04391 3.32045 4.51067 3.04524C4.97963 2.77002 5.51025 2.63242 6.1025 2.63242C6.69476 2.63242 7.22427 2.77002 7.69103 3.04524C8.16 3.32045 8.52988 3.71786 8.80069 4.23746C9.0737 4.75486 9.21021 5.37794 9.21021 6.10671ZM7.97836 6.10671C7.97836 5.59371 7.89799 5.16107 7.73727 4.8088C7.57875 4.45433 7.35858 4.18682 7.07676 4.00628C6.79494 3.82354 6.47019 3.73217 6.1025 3.73217C5.73482 3.73217 5.41007 3.82354 5.12825 4.00628C4.84643 4.18682 4.62516 4.45433 4.46444 4.8088C4.30591 5.16107 4.22665 5.59371 4.22665 6.10671C4.22665 6.6197 4.30591 7.05344 4.46444 7.40791C4.62516 7.76019 4.84643 8.02769 5.12825 8.21044C5.41007 8.39098 5.73482 8.48125 6.1025 8.48125C6.47019 8.48125 6.79494 8.39098 7.07676 8.21044C7.35858 8.02769 7.57875 7.76019 7.73727 7.40791C7.89799 7.05344 7.97836 6.6197 7.97836 6.10671Z" fill="#063946"/>
</svg>
