<svg width="12" height="11" viewBox="0 0 12 11" fill="none" xmlns="http://www.w3.org/2000/svg">
<path d="M4.1496 9.5249V2.61581H6.74051C7.27129 2.61581 7.7166 2.71477 8.07645 2.91269C8.43855 3.1106 8.71181 3.38274 8.89623 3.72909C9.0829 4.0732 9.17624 4.46453 9.17624 4.9031C9.17624 5.34616 9.0829 5.73975 8.89623 6.08385C8.70956 6.42796 8.43405 6.69897 8.0697 6.89688C7.70536 7.09255 7.25667 7.19039 6.72364 7.19039H5.00649V6.16144H6.55497C6.86533 6.16144 7.11948 6.10747 7.31739 5.99951C7.51531 5.89156 7.6615 5.74312 7.75596 5.5542C7.85267 5.36528 7.90102 5.14825 7.90102 4.9031C7.90102 4.65795 7.85267 4.44204 7.75596 4.25537C7.6615 4.0687 7.51419 3.92364 7.31402 3.82018C7.1161 3.71447 6.86084 3.66162 6.54822 3.66162H5.4012V9.5249H4.1496Z" fill="#103300"/>
</svg>
