<svg width="150" height="150" viewBox="0 0 150 150" fill="none" xmlns="http://www.w3.org/2000/svg">
<g opacity="0.15">
<path d="M35.9375 25C23.047 25 12.5 35.547 12.5 48.4375V123.437C12.5001 124.681 12.994 125.873 13.8731 126.752C14.7521 127.631 15.9443 128.125 17.1875 128.125H35.1868C35.69 128.208 36.2033 128.208 36.7065 128.125H40.625V123.767C40.6289 123.657 40.6289 123.547 40.625 123.437V118.75V111.719C40.625 110.374 41.6237 109.375 42.9687 109.375H50V128.125H59.375V109.375H68.75V128.125H78.125V109.375H87.5V128.125H96.875V109.375H103.906C105.251 109.375 106.25 110.374 106.25 111.719V123.437V128.125H110.187C110.69 128.208 111.203 128.208 111.707 128.125H129.687C130.931 128.125 132.123 127.631 133.002 126.752C133.881 125.873 134.375 124.681 134.375 123.437V48.4375C134.375 35.547 123.828 25 110.937 25H35.9375ZM35.9375 34.375H110.937C118.766 34.375 125 40.6092 125 48.4375V118.75H115.625V111.719C115.625 105.301 110.324 100 103.906 100H42.9687C36.5513 100 31.25 105.301 31.25 111.719V118.75H21.875V48.4375C21.875 40.6092 28.1092 34.375 35.9375 34.375ZM35.9375 43.75C34.6943 43.7501 33.5021 44.244 32.6231 45.1231C31.744 46.0021 31.2501 47.1943 31.25 48.4375V67.1875C31.2501 68.4307 31.744 69.6229 32.6231 70.5019C33.5021 71.381 34.6943 71.8749 35.9375 71.875H73.4375C74.6807 71.8749 75.8729 71.381 76.7519 70.5019C77.631 69.6229 78.1249 68.4307 78.125 67.1875V48.4375C78.1249 47.1943 77.631 46.0021 76.7519 45.1231C75.8729 44.244 74.6807 43.7501 73.4375 43.75H35.9375ZM40.625 53.125H68.75V62.5H40.625V53.125ZM101.562 53.125C93.8515 53.125 87.5 59.4765 87.5 67.1875C87.5 74.8985 93.8515 81.25 101.562 81.25C109.273 81.25 115.625 74.8985 115.625 67.1875C115.625 59.4765 109.273 53.125 101.562 53.125ZM101.562 62.5C104.207 62.5 106.25 64.5431 106.25 67.1875C106.25 69.8319 104.207 71.875 101.562 71.875C98.9181 71.875 96.875 69.8319 96.875 67.1875C96.875 64.5431 98.9181 62.5 101.562 62.5ZM73.4375 81.25C72.1943 81.25 71.002 81.7439 70.1229 82.6229C69.2439 83.502 68.75 84.6943 68.75 85.9375C68.75 87.1807 69.2439 88.373 70.1229 89.2521C71.002 90.1311 72.1943 90.625 73.4375 90.625C74.6807 90.625 75.873 90.1311 76.7521 89.2521C77.6311 88.373 78.125 87.1807 78.125 85.9375C78.125 84.6943 77.6311 83.502 76.7521 82.6229C75.873 81.7439 74.6807 81.25 73.4375 81.25Z" fill="#2E81FF"/>
</g>
</svg>
