<svg width="16" height="16" viewBox="0 0 16 16" fill="none" xmlns="http://www.w3.org/2000/svg">
<path d="M2.66675 3.33317C2.66675 3.15636 2.73699 2.98679 2.86201 2.86177C2.98703 2.73674 3.1566 2.6665 3.33341 2.6665H6.00008C6.17689 2.6665 6.34646 2.73674 6.47149 2.86177C6.59651 2.98679 6.66675 3.15636 6.66675 3.33317V5.99984C6.66675 6.17665 6.59651 6.34622 6.47149 6.47124C6.34646 6.59627 6.17689 6.6665 6.00008 6.6665H3.33341C3.1566 6.6665 2.98703 6.59627 2.86201 6.47124C2.73699 6.34622 2.66675 6.17665 2.66675 5.99984V3.33317Z" stroke="current" stroke-width="1.5" stroke-linecap="round" stroke-linejoin="round"/>
<path d="M9.33341 3.33317C9.33341 3.15636 9.40365 2.98679 9.52868 2.86177C9.6537 2.73674 9.82327 2.6665 10.0001 2.6665H12.6667C12.8436 2.6665 13.0131 2.73674 13.1382 2.86177C13.2632 2.98679 13.3334 3.15636 13.3334 3.33317V5.99984C13.3334 6.17665 13.2632 6.34622 13.1382 6.47124C13.0131 6.59627 12.8436 6.6665 12.6667 6.6665H10.0001C9.82327 6.6665 9.6537 6.59627 9.52868 6.47124C9.40365 6.34622 9.33341 6.17665 9.33341 5.99984V3.33317Z" stroke="current" stroke-width="1.5" stroke-linecap="round" stroke-linejoin="round"/>
<path d="M2.66675 9.99984C2.66675 9.82303 2.73699 9.65346 2.86201 9.52843C2.98703 9.40341 3.1566 9.33317 3.33341 9.33317H6.00008C6.17689 9.33317 6.34646 9.40341 6.47149 9.52843C6.59651 9.65346 6.66675 9.82303 6.66675 9.99984V12.6665C6.66675 12.8433 6.59651 13.0129 6.47149 13.1379C6.34646 13.2629 6.17689 13.3332 6.00008 13.3332H3.33341C3.1566 13.3332 2.98703 13.2629 2.86201 13.1379C2.73699 13.0129 2.66675 12.8433 2.66675 12.6665V9.99984Z" stroke="current" stroke-width="1.5" stroke-linecap="round" stroke-linejoin="round"/>
<path d="M9.33341 9.99984C9.33341 9.82303 9.40365 9.65346 9.52868 9.52843C9.6537 9.40341 9.82327 9.33317 10.0001 9.33317H12.6667C12.8436 9.33317 13.0131 9.40341 13.1382 9.52843C13.2632 9.65346 13.3334 9.82303 13.3334 9.99984V12.6665C13.3334 12.8433 13.2632 13.0129 13.1382 13.1379C13.0131 13.2629 12.8436 13.3332 12.6667 13.3332H10.0001C9.82327 13.3332 9.6537 13.2629 9.52868 13.1379C9.40365 13.0129 9.33341 12.8433 9.33341 12.6665V9.99984Z" stroke="current" stroke-width="1.5" stroke-linecap="round" stroke-linejoin="round"/>
</svg>
