<svg width="24" height="24" viewBox="0 0 24 24" fill="none" xmlns="http://www.w3.org/2000/svg">
<path d="M18.75 4H11.25C11.0429 4 10.875 4.16789 10.875 4.375V11.875C10.875 12.0821 11.0429 12.25 11.25 12.25H18.75C18.9571 12.25 19.125 12.0821 19.125 11.875V4.375C19.125 4.16789 18.9571 4 18.75 4Z" stroke-width="1.7" stroke-linecap="round" stroke-linejoin="round"/>
<path d="M6.125 19.25C6.74632 19.25 7.25 18.7463 7.25 18.125C7.25 17.5037 6.74632 17 6.125 17C5.50368 17 5 17.5037 5 18.125C5 18.7463 5.50368 19.25 6.125 19.25Z" />
<path d="M10.125 19.25C10.7463 19.25 11.25 18.7463 11.25 18.125C11.25 17.5037 10.7463 17 10.125 17C9.50368 17 9 17.5037 9 18.125C9 18.7463 9.50368 19.25 10.125 19.25Z" />
<path d="M14.125 19.25C14.7463 19.25 15.25 18.7463 15.25 18.125C15.25 17.5037 14.7463 17 14.125 17C13.5037 17 13 17.5037 13 18.125C13 18.7463 13.5037 19.25 14.125 19.25Z" />
<path d="M18.125 19.25C18.7463 19.25 19.25 18.7463 19.25 18.125C19.25 17.5037 18.7463 17 18.125 17C17.5037 17 17 17.5037 17 18.125C17 18.7463 17.5037 19.25 18.125 19.25Z" />
<path d="M2 15H19C20.6569 15 22 16.3431 22 18V18C22 19.6569 20.6569 21 19 21H2" stroke-width="1.7" stroke-dasharray="2 1"/>
<line x1="13.5" y1="6.5" x2="16.5" y2="6.5" stroke-linecap="round"/>
</svg>
