<svg width="24" height="24" viewBox="0 0 24 24" fill="none" xmlns="http://www.w3.org/2000/svg">
<path d="M15.6923 15.1538C15.6923 9.44231 9.34615 5 9.34615 5C9.34615 5 3 9.44231 3 15.1538C3 16.837 3.66861 18.4511 4.85875 19.6413C6.04888 20.8314 7.66305 21.5 9.34615 21.5C11.0293 21.5 12.6434 20.8314 13.8336 19.6413C15.0237 18.4511 15.6923 16.837 15.6923 15.1538Z" stroke="#161616" stroke-width="1.7" stroke-linecap="round" stroke-linejoin="round"/>
<path d="M9.99023 18.8991C10.7665 18.7672 11.4826 18.3975 12.0397 17.8411C12.5967 17.2847 12.9673 16.569 13.1002 15.793" stroke="#161616" stroke-width="1.7" stroke-linecap="round" stroke-linejoin="round"/>
<path d="M18.3564 15.41C18.7866 15.1802 19.1846 14.8867 19.5358 14.5355C20.4734 13.5979 21.0002 12.3261 21.0002 11C21.0002 6.5 16.0002 3 16.0002 3C16.0002 3 14.5818 3.99293 13.2559 5.60102" stroke="#161616" stroke-width="1.7" stroke-linecap="round" stroke-linejoin="round"/>
<path d="M18.3807 11.3452C18.5201 10.7094 18.4586 10.046 18.2048 9.44664C17.9509 8.84727 17.5172 8.34151 16.9636 7.99919" stroke="#161616" stroke-width="1.40539" stroke-linecap="round" stroke-linejoin="round"/>
</svg>
