<svg width="16" height="16" viewBox="0 0 24 24" fill="none" xmlns="http://www.w3.org/2000/svg">
<path d="M3.75 3C4.99264 3 6 4.00736 6 5.25C6 6.49264 4.99264 7.5 3.75 7.5C2.50736 7.5 1.5 6.49264 1.5 5.25C1.5 4.00736 2.50736 3 3.75 3Z" stroke="current" stroke-width="1.7" stroke-linecap="round" stroke-linejoin="round"/>
<path d="M9 12.75C10.2426 12.75 11.25 13.7574 11.25 15C11.25 16.2426 10.2426 17.25 9 17.25C7.75736 17.25 6.75 16.2426 6.75 15C6.75 13.7574 7.75736 12.75 9 12.75Z" stroke="current" stroke-width="1.7" stroke-linecap="round" stroke-linejoin="round"/>
<path d="M15 6.75C16.2426 6.75 17.25 7.75736 17.25 9C17.25 10.2426 16.2426 11.25 15 11.25C13.7574 11.25 12.75 10.2426 12.75 9C12.75 7.75736 13.7574 6.75 15 6.75Z" stroke="current" stroke-width="1.7" stroke-linecap="round" stroke-linejoin="round"/>
<path d="M20.25 16.5C21.4926 16.5 22.5 17.5074 22.5 18.75C22.5 19.9926 21.4926 21 20.25 21C19.0074 21 18 19.9926 18 18.75C18 17.5074 19.0074 16.5 20.25 16.5Z" stroke="current" stroke-width="1.7" stroke-linecap="round" stroke-linejoin="round"/>
<path d="M7.93274 13.0186L4.81641 7.23108" stroke="current" stroke-width="1.7" stroke-linecap="round" stroke-linejoin="round"/>
<path d="M13.4079 10.5912L10.5898 13.4092" stroke="current" stroke-width="1.7" stroke-linecap="round" stroke-linejoin="round"/>
<path d="M19.1828 16.769L16.0664 10.9814" stroke="current" stroke-width="1.7" stroke-linecap="round" stroke-linejoin="round"/>
</svg>
