<svg width="150" height="150" viewBox="0 0 150 150" fill="none" xmlns="http://www.w3.org/2000/svg">
<g opacity="0.15">
<path d="M74.9985 131.25C106.065 131.25 131.249 106.066 131.249 75C131.249 43.934 106.065 18.75 74.9985 18.75C43.9325 18.75 18.7485 43.934 18.7485 75C18.7485 106.066 43.9325 131.25 74.9985 131.25Z" stroke="#FAB7CB" stroke-width="10" stroke-miterlimit="10"/>
<path d="M19.1509 68.2618C18.8843 70.498 18.751 72.748 18.7514 75C18.7514 86.1252 22.0504 97.0006 28.2313 106.251C34.4121 115.501 43.1972 122.711 53.4755 126.968C63.7538 131.226 75.0638 132.34 85.9753 130.169C96.8867 127.999 106.909 122.641 114.776 114.775C122.643 106.908 128 96.8853 130.171 85.9738C132.341 75.0624 131.227 63.7524 126.97 53.4741C122.712 43.1957 115.503 34.4107 106.252 28.2298C97.002 22.049 86.1266 18.75 75.0014 18.75C73.2415 18.75 71.5015 18.8297 69.7817 18.989" stroke="#EE0E51" stroke-width="10" stroke-linecap="round" stroke-linejoin="round"/>
<path d="M75.001 112.5C95.7117 112.5 112.501 95.7107 112.501 75C112.501 54.2893 95.7117 37.5 75.001 37.5C54.2903 37.5 37.501 54.2893 37.501 75C37.501 95.7107 54.2903 112.5 75.001 112.5Z" stroke="#CFF8B3" stroke-width="10" stroke-miterlimit="10"/>
<path d="M43.8189 95.8339C47.9395 102.001 53.7962 106.807 60.6484 109.645C67.5006 112.484 75.0406 113.226 82.3149 111.779C89.5892 110.332 96.271 106.761 101.516 101.516C106.76 96.272 110.332 89.5902 111.778 82.3159C113.225 75.0416 112.483 67.5016 109.644 60.6494C106.806 53.7971 102 47.9404 95.8329 43.8199C89.6661 39.6993 82.4158 37.5 74.999 37.5C73.8257 37.5 72.6657 37.5531 71.5192 37.6593" stroke="#5DE700" stroke-width="10" stroke-linecap="round" stroke-linejoin="round"/>
<path d="M74.9995 93.75C85.3548 93.75 93.7495 85.3553 93.7495 75C93.7495 64.6447 85.3548 56.25 74.9995 56.25C64.6442 56.25 56.2495 64.6447 56.2495 75C56.2495 85.3553 64.6442 93.75 74.9995 93.75Z" stroke="#B3F0F5" stroke-width="10" stroke-miterlimit="10"/>
<path d="M67.8252 92.3227C71.2513 93.7419 75.0213 94.1132 78.6584 93.3897C82.2956 92.6662 85.6365 90.8805 88.2587 88.2582C90.881 85.636 92.6667 82.2951 93.3902 78.6579C94.1137 75.0208 93.7424 71.2508 92.3232 67.8247C90.9041 64.3986 88.5008 61.4702 85.4174 59.4099C82.334 57.3497 78.7089 56.25 75.0005 56.25C74.4138 56.25 73.8339 56.2766 73.2606 56.3297" stroke="#00CDDC" stroke-width="10" stroke-linecap="round" stroke-linejoin="round"/>
</g>
</svg>
