<svg style="margin:0 5px" width="24" height="24" viewBox="0 0 24 24" fill="none" xmlns="http://www.w3.org/2000/svg">
<path d="M12 21C16.9706 21 21 16.9706 21 12C21 7.02944 16.9706 3 12 3C7.02944 3 3 7.02944 3 12C3 16.9706 7.02944 21 12 21Z" stroke="current" stroke-width="1.7" stroke-miterlimit="10"/>
<path d="M3.0639 10.9219C3.02126 11.2797 2.99992 11.6397 3 12C3 13.78 3.52784 15.5201 4.51677 17.0001C5.5057 18.4802 6.91131 19.6337 8.55584 20.3149C10.2004 20.9961 12.01 21.1743 13.7558 20.8271C15.5016 20.4798 17.1053 19.6226 18.364 18.364C19.6226 17.1053 20.4798 15.5016 20.8271 13.7558C21.1743 12.01 20.9961 10.2004 20.3149 8.55585C19.6337 6.91131 18.4802 5.50571 17.0001 4.51677C15.5201 3.52784 13.78 3 12 3C11.7184 3 11.44 3.01275 11.1648 3.03824" stroke="CURRENT" stroke-width="2" stroke-linecap="round" stroke-linejoin="round"/>
<path d="M12 18C15.3137 18 18 15.3137 18 12C18 8.68629 15.3137 6 12 6C8.68629 6 6 8.68629 6 12C6 15.3137 8.68629 18 12 18Z" stroke="current" stroke-width="1.7" stroke-miterlimit="10"/>
<path d="M7.01118 15.3334C7.67047 16.3201 8.60754 17.0891 9.7039 17.5433C10.8003 17.9974 12.0067 18.1162 13.1705 17.8847C14.3344 17.6532 15.4035 17.0818 16.2426 16.2426C17.0818 15.4035 17.6532 14.3344 17.8847 13.1705C18.1162 12.0067 17.9974 10.8003 17.5433 9.7039C17.0891 8.60754 16.3201 7.67047 15.3334 7.01118C14.3467 6.35189 13.1867 6 12 6C11.8123 6 11.6267 6.0085 11.4432 6.02549" stroke="CURRENT" stroke-width="2" stroke-linecap="round" stroke-linejoin="round"/>
<path d="M12 15C13.6569 15 15 13.6569 15 12C15 10.3431 13.6569 9 12 9C10.3431 9 9 10.3431 9 12C9 13.6569 10.3431 15 12 15Z" stroke="current" stroke-width="1.7" stroke-miterlimit="10"/>
<path d="M10.8519 14.7716C11.4001 14.9987 12.0033 15.0581 12.5853 14.9424C13.1672 14.8266 13.7018 14.5409 14.1213 14.1213C14.5409 13.7018 14.8266 13.1672 14.9424 12.5853C15.0581 12.0033 14.9987 11.4001 14.7716 10.8519C14.5446 10.3038 14.1601 9.83524 13.6667 9.50559C13.1734 9.17595 12.5933 9 12 9C11.9061 9 11.8133 9.00425 11.7216 9.01275" stroke="CURRENT" stroke-width="2" stroke-linecap="round" stroke-linejoin="round"/>
</svg>
