<svg width="40" height="40" viewBox="0 0 40 40" fill="none" xmlns="http://www.w3.org/2000/svg">
<path d="M20 21.125C20.6213 21.125 21.125 20.6213 21.125 20C21.125 19.3787 20.6213 18.875 20 18.875C19.3787 18.875 18.875 19.3787 18.875 20C18.875 20.6213 19.3787 21.125 20 21.125Z" fill="#161616"/>
<path d="M20 15.125C20.6213 15.125 21.125 14.6213 21.125 14C21.125 13.3787 20.6213 12.875 20 12.875C19.3787 12.875 18.875 13.3787 18.875 14C18.875 14.6213 19.3787 15.125 20 15.125Z" fill="#161616"/>
<path d="M20 27.125C20.6213 27.125 21.125 26.6213 21.125 26C21.125 25.3787 20.6213 24.875 20 24.875C19.3787 24.875 18.875 25.3787 18.875 26C18.875 26.6213 19.3787 27.125 20 27.125Z" fill="#161616"/>
</svg>
