<svg width="150" height="150" viewBox="0 0 150 150" fill="none" xmlns="http://www.w3.org/2000/svg">
<g opacity="0.15">
<path d="M131.249 103.899V46.1006C131.249 45.2689 131.027 44.4521 130.607 43.7342C130.187 43.0162 129.584 42.4229 128.859 42.0151L77.2966 13.0112C76.595 12.6166 75.8036 12.4092 74.9985 12.4092C74.1935 12.4092 73.4021 12.6166 72.7004 13.0112L21.1379 42.0151C20.413 42.4229 19.8096 43.0162 19.3897 43.7342C18.9698 44.4521 18.7485 45.2689 18.7485 46.1006V103.899C18.7485 104.731 18.9698 105.547 19.3897 106.265C19.8096 106.983 20.413 107.577 21.1379 107.984L72.7004 136.988C73.4021 137.383 74.1935 137.59 74.9985 137.59C75.8036 137.59 76.595 137.383 77.2966 136.988L128.859 107.984C129.584 107.577 130.187 106.983 130.607 106.265C131.027 105.547 131.249 104.731 131.249 103.899Z" stroke="#FF815A" stroke-width="10" stroke-linecap="round" stroke-linejoin="round"/>
<path d="M103.724 89.362V58.8932L46.875 27.5391" stroke="#FF815A" stroke-width="10" stroke-linecap="round" stroke-linejoin="round"/>
<path d="M130.602 43.7269L75.5548 75.0002L19.3979 43.7211" stroke="#FF815A" stroke-width="10" stroke-linecap="round" stroke-linejoin="round"/>
<path d="M75.5564 75L75.0063 137.591" stroke="#FF815A" stroke-width="10" stroke-linecap="round" stroke-linejoin="round"/>
</g>
</svg>
