<svg width="16" height="16" viewBox="0 0 24 24" fill="none" xmlns="http://www.w3.org/2000/svg">
<path d="M16.25 7.5C17.4926 7.5 18.5 6.49264 18.5 5.25C18.5 4.00736 17.4926 3 16.25 3C15.0074 3 14 4.00736 14 5.25C14 6.49264 15.0074 7.5 16.25 7.5Z" stroke="#161616" stroke-width="1.7" stroke-linecap="round" stroke-linejoin="round"/>
<path d="M7.25 9.52027C7.25 9.52027 10.25 6.74987 14.75 10.2703C19.4814 13.9717 22.25 12.5203 22.25 12.5203" stroke="#161616" stroke-width="1.7" stroke-linecap="round" stroke-linejoin="round"/>
<path d="M14.6633 10.2031C14.2562 12.1161 11.5211 19.402 5 18.7499" stroke="#161616" stroke-width="1.7" stroke-linecap="round" stroke-linejoin="round"/>
<path d="M12.373 15.1084C14.0441 15.4655 18.5001 16.8746 18.5001 21.7496" stroke="#161616" stroke-width="1.7" stroke-linecap="round" stroke-linejoin="round"/>
<path d="M9 12H2" stroke="#161616" stroke-width="1.7" stroke-linecap="round" stroke-linejoin="round"/>
<path d="M9 15H3" stroke="#161616" stroke-width="1.7" stroke-linecap="round" stroke-linejoin="round"/>
</svg>
