<svg style="margin:0 5px" style="margin: 0 5px" width="25" height="24" viewBox="0 0 25 24" fill="none" xmlns="http://www.w3.org/2000/svg">
<path d="M2.75 17.25V15.1058C2.75 9.71719 7.0769 5.26871 12.4655 5.25006C13.7488 5.24552 15.0203 5.49436 16.2073 5.98231C17.3942 6.47025 18.4731 7.18771 19.3821 8.09353C20.2911 8.99934 21.0124 10.0757 21.5045 11.2609C21.9967 12.446 22.25 13.7167 22.25 15V17.25C22.25 17.4489 22.171 17.6397 22.0303 17.7803C21.8897 17.921 21.6989 18 21.5 18H3.5C3.30109 18 3.11032 17.921 2.96967 17.7803C2.82902 17.6397 2.75 17.4489 2.75 17.25Z" stroke="current" stroke-width="1.7" stroke-linecap="round" stroke-linejoin="round"/>
<path d="M12.5 5.25V8.25" stroke="current" stroke-width="1.7" stroke-linecap="round" stroke-linejoin="round"/>
<path d="M3.08228 12.4765L5.98005 13.253" stroke="current" stroke-width="1.7" stroke-linecap="round" stroke-linejoin="round"/>
<path d="M21.9178 12.4765L19.02 13.253" stroke="current" stroke-width="1.7" stroke-linecap="round" stroke-linejoin="round"/>
<path d="M10.198 18L16.6091 9.64484" stroke="current" stroke-width="1.7" stroke-linecap="round" stroke-linejoin="round"/>
</svg>
