<svg width="64" height="40" viewBox="0 0 64 40" fill="none" xmlns="http://www.w3.org/2000/svg">
<rect width="64" height="40" rx="4"/>
<path d="M13 11.9999V16.9999H13.582M13.582 16.9999C14.2458 15.3581 15.4357 13.9828 16.965 13.0898C18.4944 12.1967 20.2768 11.8363 22.033 12.0651C23.7891 12.2938 25.4198 13.0987 26.6694 14.3537C27.919 15.6087 28.7168 17.2428 28.938 18.9999M13.582 16.9999H18M29 27.9999V22.9999H28.419M28.419 22.9999C27.7542 24.6408 26.564 26.015 25.0348 26.9072C23.5056 27.7995 21.7237 28.1594 19.9681 27.9308C18.2125 27.7022 16.5822 26.8978 15.3325 25.6437C14.0829 24.3895 13.2844 22.7564 13.062 20.9999M28.419 22.9999H24" stroke="#161616" stroke-width="1.7" stroke-linecap="round" stroke-linejoin="round"/>
<path d="M53.9978 18L48.9978 23L43.9978 18" stroke="#161616" stroke-linecap="round" stroke-linejoin="round"/>
</svg>
