<svg width="16" height="16" viewBox="0 0 16 16" fill="none" xmlns="http://www.w3.org/2000/svg">
<path d="M9.3335 2V4.66667C9.3335 4.84348 9.40373 5.01305 9.52876 5.13807C9.65378 5.2631 9.82335 5.33333 10.0002 5.33333H12.6668M9.3335 2H4.66683C4.31321 2 3.97407 2.14048 3.72402 2.39052C3.47397 2.64057 3.3335 2.97971 3.3335 3.33333V12.6667C3.3335 13.0203 3.47397 13.3594 3.72402 13.6095C3.97407 13.8595 4.31321 14 4.66683 14H11.3335C11.6871 14 12.0263 13.8595 12.2763 13.6095C12.5264 13.3594 12.6668 13.0203 12.6668 12.6667V5.33333M9.3335 2L12.6668 5.33333M8.00016 8.33067V9.33333L8.66683 10M5.3335 9.33333C5.3335 10.0406 5.61445 10.7189 6.11454 11.219C6.61464 11.719 7.29292 12 8.00016 12C8.70741 12 9.38568 11.719 9.88578 11.219C10.3859 10.7189 10.6668 10.0406 10.6668 9.33333C10.6668 8.62609 10.3859 7.94781 9.88578 7.44772C9.38568 6.94762 8.70741 6.66667 8.00016 6.66667C7.29292 6.66667 6.61464 6.94762 6.11454 7.44772C5.61445 7.94781 5.3335 8.62609 5.3335 9.33333Z" stroke="current" stroke-width="1.25" stroke-linecap="round" stroke-linejoin="round"/>
</svg>
