<svg width="150" height="150" viewBox="0 0 150 150" fill="none" xmlns="http://www.w3.org/2000/svg">
<g opacity="0.15">
<path d="M45.1707 104.831C41.2489 100.916 38.1376 96.2663 36.0148 91.1476C33.892 86.0288 32.7993 80.5417 32.7993 75.0003C32.7993 69.4588 33.892 63.9717 36.0148 58.8529C38.1376 53.7342 41.2489 49.0843 45.1707 45.1692" stroke="#59B0F7" stroke-width="10" stroke-linecap="round" stroke-linejoin="round"/>
<path d="M104.83 45.1692C108.752 49.0843 111.863 53.7342 113.986 58.8529C116.109 63.9717 117.201 69.4588 117.201 75.0003C117.201 80.5417 116.109 86.0288 113.986 91.1476C111.863 96.2663 108.752 100.916 104.83 104.831" stroke="#59B0F7" stroke-width="10" stroke-linecap="round" stroke-linejoin="round"/>
<path d="M28.5979 121.404C22.4973 115.314 17.6575 108.081 14.3554 100.118C11.0532 92.1558 9.35352 83.6203 9.35352 75.0002C9.35352 66.3801 11.0532 57.8446 14.3554 49.8821C17.6575 41.9196 22.4973 34.6864 28.5979 28.5963" stroke="#59B0F7" stroke-width="10" stroke-linecap="round" stroke-linejoin="round"/>
<path d="M121.405 28.5963C127.505 34.6864 132.345 41.9197 135.647 49.8821C138.949 57.8446 140.649 66.3801 140.649 75.0002C140.649 83.6203 138.949 92.1557 135.647 100.118C132.345 108.081 127.505 115.314 121.405 121.404" stroke="#59B0F7" stroke-width="10" stroke-linecap="round" stroke-linejoin="round"/>
<path d="M75.002 12.5002L75.002 56.2502" stroke="#59B0F7" stroke-width="10" stroke-linecap="round"/>
<path d="M75.002 93.75L75.002 137.5" stroke="#59B0F7" stroke-width="10" stroke-linecap="round"/>
<path d="M75.7822 82.8127C79.6655 82.8127 82.8135 79.6647 82.8135 75.7814C82.8135 71.8982 79.6655 68.7502 75.7822 68.7502C71.899 68.7502 68.751 71.8982 68.751 75.7814C68.751 79.6647 71.899 82.8127 75.7822 82.8127Z" fill="#59B0F7"/>
</g>
</svg>
