<svg width="150" height="150" viewBox="0 0 150 150" fill="none" xmlns="http://www.w3.org/2000/svg">
<g opacity="0.15">
<path d="M74.9219 4.93152C73.5975 4.95222 72.3355 5.49752 71.4127 6.44774C70.49 7.39796 69.9819 8.67546 70 9.99988V14.9999C69.9907 15.6624 70.1131 16.3203 70.3601 16.9351C70.6072 17.5499 70.974 18.1095 71.4392 18.5814C71.9044 19.0532 72.4588 19.4279 73.0701 19.6837C73.6814 19.9394 74.3374 20.0711 75 20.0711C75.6627 20.0711 76.3187 19.9394 76.93 19.6837C77.5412 19.4279 78.0956 19.0532 78.5608 18.5814C79.0261 18.1095 79.3929 17.5499 79.6399 16.9351C79.887 16.3203 80.0094 15.6624 80 14.9999V9.99988C80.0092 9.33093 79.884 8.66695 79.6319 8.04724C79.3799 7.42754 79.006 6.86473 78.5325 6.39212C78.059 5.91951 77.4954 5.54673 76.8752 5.29584C76.2551 5.04496 75.5908 4.92107 74.9219 4.93152ZM46.6602 16.66C45.6643 16.6602 44.6912 16.9578 43.8655 17.5146C43.0398 18.0714 42.3991 18.862 42.0257 19.7852C41.6522 20.7084 41.5629 21.7221 41.7692 22.6964C41.9755 23.6707 42.468 24.5612 43.1836 25.2538L46.7188 28.7889C47.1795 29.2688 47.7313 29.6519 48.342 29.9158C48.9526 30.1798 49.6098 30.3192 50.275 30.326C50.9402 30.3327 51.6001 30.2067 52.216 29.9553C52.8318 29.7038 53.3914 29.332 53.8618 28.8616C54.3321 28.3912 54.704 27.8317 54.9554 27.2158C55.2068 26.5999 55.3329 25.9401 55.3261 25.2749C55.3193 24.6096 55.1799 23.9525 54.916 23.3418C54.6521 22.7312 54.269 22.1794 53.7891 21.7186L50.2539 18.1835C49.7877 17.7016 49.2292 17.3183 48.6118 17.0566C47.9945 16.7949 47.3307 16.66 46.6602 16.66V16.66ZM103.184 16.6698C101.885 16.7085 100.652 17.2514 99.7461 18.1835L96.211 21.7186C95.7311 22.1794 95.348 22.7312 95.0841 23.3418C94.8201 23.9525 94.6807 24.6096 94.6739 25.2749C94.6672 25.9401 94.7932 26.5999 95.0446 27.2158C95.2961 27.8317 95.6679 28.3912 96.1383 28.8616C96.6087 29.332 97.1682 29.7038 97.7841 29.9553C98.4 30.2067 99.0598 30.3327 99.725 30.326C100.39 30.3192 101.047 30.1798 101.658 29.9158C102.269 29.6519 102.821 29.2688 103.281 28.7889L106.816 25.2538C107.539 24.5515 108.032 23.6473 108.232 22.6597C108.432 21.6721 108.329 20.6471 107.936 19.7192C107.543 18.7913 106.88 18.0036 106.031 17.4595C105.183 16.9154 104.191 16.6401 103.184 16.6698ZM75 29.9999C63.955 29.9999 55 38.9549 55 49.9999C55 51.7399 55.2882 53.3949 55.7032 54.9999H94.2676C94.6926 53.3949 95 51.7399 95 49.9999C95 38.9549 86.045 29.9999 75 29.9999ZM35 44.9999C34.3375 44.9905 33.6797 45.1129 33.0648 45.36C32.45 45.607 31.8904 45.9739 31.4185 46.4391C30.9467 46.9043 30.572 47.4587 30.3163 48.0699C30.0605 48.6812 29.9288 49.3373 29.9288 49.9999C29.9288 50.6625 30.0605 51.3185 30.3163 51.9298C30.572 52.5411 30.9467 53.0955 31.4185 53.5607C31.8904 54.0259 32.45 54.3927 33.0648 54.6398C33.6797 54.8868 34.3375 55.0092 35 54.9999H40C40.6626 55.0092 41.3204 54.8868 41.9352 54.6398C42.5501 54.3927 43.1097 54.0259 43.5815 53.5607C44.0534 53.0955 44.4281 52.5411 44.6838 51.9298C44.9395 51.3185 45.0712 50.6625 45.0712 49.9999C45.0712 49.3373 44.9395 48.6812 44.6838 48.0699C44.4281 47.4587 44.0534 46.9043 43.5815 46.4391C43.1097 45.9739 42.5501 45.607 41.9352 45.36C41.3204 45.1129 40.6626 44.9905 40 44.9999H35ZM110 44.9999C109.337 44.9905 108.68 45.1129 108.065 45.36C107.45 45.607 106.89 45.9739 106.419 46.4391C105.947 46.9043 105.572 47.4587 105.316 48.0699C105.061 48.6812 104.929 49.3373 104.929 49.9999C104.929 50.6625 105.061 51.3185 105.316 51.9298C105.572 52.5411 105.947 53.0955 106.419 53.5607C106.89 54.0259 107.45 54.3927 108.065 54.6398C108.68 54.8868 109.337 55.0092 110 54.9999H115C115.663 55.0092 116.32 54.8868 116.935 54.6398C117.55 54.3927 118.11 54.0259 118.582 53.5607C119.053 53.0955 119.428 52.5411 119.684 51.9298C119.94 51.3185 120.071 50.6625 120.071 49.9999C120.071 49.3373 119.94 48.6812 119.684 48.0699C119.428 47.4587 119.053 46.9043 118.582 46.4391C118.11 45.9739 117.55 45.607 116.935 45.36C116.32 45.1129 115.663 44.9905 115 44.9999H110ZM30 64.9999C28.8293 64.9992 27.6954 65.4094 26.796 66.1589C25.8965 66.9084 25.2886 67.9497 25.0782 69.1014L15.0782 124.101C15.0251 124.398 14.999 124.699 15 125V130C15.0002 131.326 15.527 132.598 16.4646 133.535C17.4023 134.473 18.674 135 20 135H130C131.326 135 132.598 134.473 133.535 133.535C134.473 132.598 135 131.326 135 130V125C135.001 124.699 134.975 124.398 134.922 124.101L124.922 69.1014C124.711 67.9497 124.104 66.9084 123.204 66.1589C122.305 65.4094 121.171 64.9992 120 64.9999H30ZM34.17 74.9999H115.83L124.922 125H25.0782L34.17 74.9999ZM44.4727 84.9999L42.9785 94.9999H57.461L58.4473 84.9999H44.4727ZM66.6211 84.9999L65.6348 94.9999H84.3653L83.3789 84.9999H66.6211ZM91.5528 84.9999L92.5391 94.9999H107.022L105.527 84.9999H91.5528ZM41.4942 105L40 115H55.4981L56.4844 105H41.4942ZM64.6485 105L63.6621 115H86.3379L85.3516 105H64.6485ZM93.5157 105L94.502 115H110L108.506 105H93.5157Z" fill="#2E81FF"/>
</g>
</svg>
