<svg width="40" height="40" viewBox="0 0 40 40" fill="none" xmlns="http://www.w3.org/2000/svg">
<rect x="0.5" y="0.5" width="39" height="39" rx="3.5" stroke="#E0E0E0"/>
<path d="M29 29L23 23M25 18C25 18.9193 24.8189 19.8295 24.4672 20.6788C24.1154 21.5281 23.5998 22.2997 22.9497 22.9497C22.2997 23.5998 21.5281 24.1154 20.6788 24.4672C19.8295 24.8189 18.9193 25 18 25C17.0807 25 16.1705 24.8189 15.3212 24.4672C14.4719 24.1154 13.7003 23.5998 13.0503 22.9497C12.4002 22.2997 11.8846 21.5281 11.5328 20.6788C11.1811 19.8295 11 18.9193 11 18C11 16.1435 11.7375 14.363 13.0503 13.0503C14.363 11.7375 16.1435 11 18 11C19.8565 11 21.637 11.7375 22.9497 13.0503C24.2625 14.363 25 16.1435 25 18Z" stroke="#161616" stroke-width="1.7" stroke-linecap="round" stroke-linejoin="round"/>
</svg>
