<svg width="16" height="16" viewBox="0 0 24 24" fill="none" xmlns="http://www.w3.org/2000/svg">
<path d="M12.5581 3.02514C10.3707 2.88826 8.20853 3.55462 6.47764 4.89909C4.74675 6.24356 3.56621 8.17365 3.15768 10.3269C2.74916 12.4802 3.14076 14.7086 4.25895 16.5936L3.37089 19.702C3.33415 19.8306 3.33246 19.9667 3.36601 20.0961C3.39956 20.2256 3.46713 20.3438 3.5617 20.4384C3.65628 20.5329 3.77443 20.6005 3.90391 20.634C4.03338 20.6676 4.16947 20.6659 4.29808 20.6292L7.40649 19.7411C9.29149 20.8593 11.5199 21.2509 13.6732 20.8424C15.8264 20.4338 17.7565 19.2533 19.101 17.5224C20.4455 15.7915 21.1118 13.6293 20.9749 11.4419" stroke="current" stroke-width="1.7" stroke-linecap="round" stroke-linejoin="round"/>
<circle cx="18" cy="5" r="3" fill="#0F6FFF"/>
</svg>
