<svg width="150" height="150" viewBox="0 0 150 150" fill="none" xmlns="http://www.w3.org/2000/svg">
<g opacity="0.15">
<path d="M130.851 68.2618C131.117 70.498 131.251 72.748 131.25 75C131.25 86.1252 127.951 97.0006 121.77 106.251C115.589 115.501 106.804 122.711 96.526 126.968C86.2476 131.226 74.9376 132.34 64.0262 130.169C53.1148 127.999 43.092 122.641 35.2253 114.775C27.3586 106.908 22.0013 96.8853 19.8309 85.9738C17.6604 75.0624 18.7744 63.7524 23.0318 53.4741C27.2892 43.1957 34.4989 34.4107 43.7492 28.2298C52.9995 22.049 63.8748 18.75 75 18.75C76.76 18.75 78.4999 18.8297 80.2198 18.989" stroke="#2E81FF" stroke-width="10.4167" stroke-linecap="round" stroke-linejoin="round"/>
<path d="M56.2401 34.3554C55.5131 33.9334 54.6861 33.7146 53.8455 33.7219C53.0209 33.7294 52.2128 33.9542 51.5029 34.3738C50.7929 34.7933 50.2062 35.3928 49.8019 36.1115C49.3976 36.8303 49.1901 37.643 49.2003 38.4676C49.2105 39.2922 49.438 40.0995 49.8599 40.8081L66.8948 70.3186C66.0736 71.7435 65.6416 73.3594 65.6423 75.0041C65.6431 76.6487 66.0764 78.2642 66.8989 79.6885C67.7214 81.1127 68.9041 82.2954 70.3282 83.1181C71.7524 83.9407 73.3679 84.3741 75.0125 84.375L78.6868 90.741C78.9874 91.2877 79.3941 91.769 79.8831 92.1565C80.372 92.5441 80.9334 92.8301 81.5344 92.9979C82.1353 93.1656 82.7637 93.2118 83.3827 93.1335C84.0017 93.0553 84.5989 92.8543 85.1392 92.5423C85.6795 92.2303 86.1521 91.8136 86.5293 91.3166C86.9065 90.8196 87.1807 90.2523 87.3358 89.6479C87.4909 89.0436 87.5238 88.4143 87.4325 87.7971C87.3413 87.1799 87.1278 86.5871 86.8045 86.0535L83.1302 79.6875C83.953 78.2624 84.3861 76.6459 84.3862 75.0003C84.3863 73.3548 83.9532 71.7382 83.1305 70.3131C82.3078 68.8879 81.1245 67.7044 79.6995 66.8815C78.2746 66.0586 76.6581 65.6252 75.0125 65.625L57.9776 36.1206C57.5672 35.3871 56.967 34.7774 56.2401 34.3554Z" fill="#2E81FF"/>
<path d="M118.75 75C118.75 71.84 118.408 68.6969 117.734 65.625M31.25 75C31.25 69.2547 32.3816 63.5656 34.5803 58.2576C36.7789 52.9496 40.0015 48.1266 44.0641 44.0641C48.1266 40.0015 52.9496 36.7789 58.2576 34.5803C63.5656 32.3816 69.2547 31.25 75 31.25C79.5866 31.25 84.1374 31.9712 88.487 33.3807" stroke="#2E81FF" stroke-width="10.4167" stroke-dasharray="10.42 10.42"/>
<path fill-rule="evenodd" clip-rule="evenodd" d="M111.071 12.5C111.071 12.5 128.393 24.1587 128.393 39.1484C128.393 43.5656 126.568 47.8019 123.32 50.9254C120.071 54.0489 115.665 55.8036 111.071 55.8036C106.478 55.8036 102.072 54.0489 98.8233 50.9254C95.5749 47.8019 93.75 43.5656 93.75 39.1484C93.75 24.1587 111.071 12.5 111.071 12.5ZM122.268 36.1852C122.537 34.6137 121.481 33.1217 119.909 32.8529C118.338 32.5842 116.846 33.6403 116.577 35.2118C116.307 36.7871 115.556 38.2392 114.428 39.3678C113.299 40.4964 111.849 41.2458 110.277 41.5133C108.706 41.7808 107.648 43.2718 107.916 44.8436C108.183 46.4154 109.674 47.4728 111.246 47.2052C113.998 46.7369 116.536 45.4247 118.51 43.4505C120.484 41.4764 121.797 38.9377 122.268 36.1852Z" fill="#2E81FF"/>
</g>
</svg>
