<svg width="40" height="40" viewBox="0 0 40 40" fill="none" xmlns="http://www.w3.org/2000/svg">
<rect width="40" height="40" rx="4" fill="url(#paint0_linear_2332_13750)"/>
<path d="M28.5815 19.3456L12.7457 10.4776C12.6125 10.403 12.4597 10.3708 12.3077 10.3854C12.1557 10.4 12.0118 10.4606 11.8952 10.5591C11.7785 10.6577 11.6948 10.7895 11.6551 10.9369C11.6154 11.0844 11.6216 11.2404 11.673 11.3842L14.6599 19.7477C14.7182 19.9109 14.7182 20.0891 14.6599 20.2522L11.673 28.6158C11.6216 28.7596 11.6154 28.9156 11.6551 29.063C11.6948 29.2105 11.7785 29.3423 11.8952 29.4408C12.0118 29.5394 12.1557 29.6 12.3077 29.6146C12.4597 29.6292 12.6125 29.597 12.7457 29.5224L28.5815 20.6544C28.6978 20.5892 28.7947 20.4943 28.8621 20.3792C28.9295 20.2642 28.965 20.1333 28.965 20C28.965 19.8667 28.9295 19.7358 28.8621 19.6207C28.7947 19.5057 28.6978 19.4108 28.5815 19.3456V19.3456Z" stroke="white" stroke-width="1.7" stroke-linecap="round" stroke-linejoin="round"/>
<path d="M14.75 20H20.75" stroke="white" stroke-width="1.7" stroke-linecap="round" stroke-linejoin="round"/>
<defs>
<linearGradient id="paint0_linear_2332_13750" x1="0.746924" y1="3.13018" x2="45.9143" y2="14.8596" gradientUnits="userSpaceOnUse">
<stop stop-color="#007FFF"/>
<stop offset="1" stop-color="#0253FC"/>
</linearGradient>
</defs>
</svg>
