<svg width="40" height="30" viewBox="0 0 40 30" fill="none" xmlns="http://www.w3.org/2000/svg">
<path fill-rule="evenodd" clip-rule="evenodd" d="M19.8712 0.00361973C16.0703 0.00361973 12.2781 1.2996 9.18986 3.89091C7.33114 5.4506 5.89457 7.34833 4.89688 9.42643C4.75842 9.41325 4.62368 9.38322 4.48151 9.38322C1.99892 9.38322 0 11.3821 0 13.8646V19.4034C0 21.8859 1.99892 23.8848 4.48151 23.8848C4.62369 23.8848 4.75843 23.854 4.89688 23.8416C5.07551 24.2118 5.26033 24.5794 5.46864 24.9404C6.28294 26.3938 8.45845 25.1494 7.61838 23.7107C4.17876 17.753 5.51086 10.2036 10.7806 5.7817C16.0504 1.35973 23.7049 1.35973 28.9747 5.7817C34.2445 10.2036 35.5766 17.7529 32.1369 23.7107L32.0998 23.7724L32.0751 23.834C32.0751 23.834 30.4045 27.5297 27.1241 27.5297L22.9717 27.4926C22.5823 26.9239 21.959 26.5279 21.2149 26.5279H18.5381C17.3379 26.5279 16.3725 27.4966 16.3725 28.6968C16.3725 29.4371 16.8422 29.9993 17.9172 29.9993L27.1241 30C32.0467 30 34.1758 25.1672 34.2727 24.9436V24.9304C34.4791 24.5725 34.6609 24.205 34.8383 23.838C34.9829 23.8512 35.1238 23.8812 35.2728 23.8812C37.7554 23.8812 39.7543 21.8824 39.7543 19.3998V13.8611C39.7543 11.3786 37.7554 9.37966 35.2728 9.37966C35.1294 9.37966 34.994 9.40337 34.8543 9.42287C33.859 7.34464 32.4267 5.44711 30.5677 3.88731C27.4796 1.296 23.6715 0 19.8704 0L19.8712 0.00361973ZM14.4699 7.87727C13.5051 7.81427 12.6239 8.01828 11.8539 8.82916C9.80044 10.991 8.53188 13.9334 8.53188 17.0669C8.53188 19.6517 9.39569 22.5479 10.8508 22.6536C12.9239 22.8043 16.1954 21.443 19.8776 21.443C23.7798 21.443 27.2232 22.9705 29.2654 22.6089C30.503 22.3901 31.2266 19.4318 31.2266 17.0669C31.2266 13.9334 29.9549 10.991 27.9014 8.82916C25.848 6.66724 23.0111 8.82916 19.8776 8.82916C17.9192 8.82916 16.0777 7.98283 14.4699 7.87727ZM14.01 13.2051C15.1548 13.2056 16.0827 14.1335 16.0831 15.2782C16.0827 16.423 15.1548 17.3508 14.01 17.3513C12.8653 17.3508 11.9374 16.423 11.937 15.2782C11.9374 14.1335 12.8653 13.2056 14.01 13.2051ZM25.7455 13.2051C26.8903 13.2056 27.8181 14.1335 27.8186 15.2782C27.8181 16.423 26.8903 17.3508 25.7455 17.3513C24.6007 17.3508 23.6729 16.423 23.6724 15.2782C23.6729 14.1335 24.6007 13.2056 25.7455 13.2051Z" fill="#0F6FFF"/>
</svg>
