<svg width="16" height="16" viewBox="0 0 16 16" fill="none" xmlns="http://www.w3.org/2000/svg">
<rect x="2" y="2" width="12" height="7" fill="#B4B4B4"/>
<path d="M9 11.3333H2.66667C2.48986 11.3333 2.32029 11.2631 2.19526 11.1381C2.07024 11.013 2 10.8435 2 10.6667V2.66667C2 2.48986 2.07024 2.32029 2.19526 2.19526C2.32029 2.07024 2.48986 2 2.66667 2H13.3333C13.5101 2 13.6797 2.07024 13.8047 2.19526C13.9298 2.32029 14 2.48986 14 2.66667V8.33333V8.66667H10.6667H2M5.33333 14H9M6.66667 11.3333L6.33333 14M12.6667 10.6667L11.3333 12.6667H14L12.6667 14.6667" stroke="#B4B4B4" stroke-linecap="round" stroke-linejoin="round"/>
<path d="M6 7.00016V4.3335M8 7.00016V6.3335M10 7.00016V5.66683" stroke="#111111" stroke-linecap="round" stroke-linejoin="round"/>
</svg>
