<svg width="40" height="40" viewBox="0 0 40 40" fill="none" xmlns="http://www.w3.org/2000/svg">
<path d="M11.6666 16.6666H16.6666V11.6666L10.8333 5.83325C12.6994 4.94204 14.7958 4.65126 16.834 5.00096C18.8721 5.35065 20.7518 6.32362 22.214 7.78587C23.6763 9.24813 24.6493 11.1278 24.9989 13.1659C25.3486 15.2041 25.0579 17.3005 24.1666 19.1666L34.1666 29.1666C34.8297 29.8296 35.2022 30.7289 35.2022 31.6666C35.2022 32.6043 34.8297 33.5035 34.1666 34.1666C33.5036 34.8296 32.6043 35.2021 31.6666 35.2021C30.729 35.2021 29.8297 34.8296 29.1666 34.1666L19.1666 24.1666C17.3006 25.0578 15.2041 25.3486 13.166 24.9989C11.1278 24.6492 9.24819 23.6762 7.78593 22.214C6.32368 20.7517 5.35071 18.8721 5.00102 16.8339C4.65132 14.7958 4.9421 12.6993 5.83331 10.8333L11.6666 16.6666Z" stroke="current" stroke-width="3" stroke-linecap="round" stroke-linejoin="round"/>
</svg>