<svg width="40" height="40" viewBox="0 0 41 40" fill="none" xmlns="http://www.w3.org/2000/svg">
<path d="M15.5 32.4976H11.75C10.5091 32.4963 9.2827 32.2312 8.15212 31.7198C7.02154 31.2083 6.01267 30.4623 5.19247 29.5311C4.37228 28.6 3.75952 27.505 3.39486 26.3189C3.03021 25.1328 2.922 23.8827 3.07742 22.6516C3.23284 21.4205 3.64833 20.2365 4.29632 19.1783C4.94431 18.12 5.80998 17.2117 6.83586 16.5136C7.86174 15.8155 9.02437 15.3436 10.2466 15.1292C11.4688 14.9148 12.7226 14.9628 13.9249 15.27" stroke="#161616" stroke-width="2" stroke-linecap="round" stroke-linejoin="round"/>
<path d="M13 19.9976C13.0002 18.017 13.471 16.0648 14.3737 14.3019C15.2763 12.539 16.5849 11.0158 18.1917 9.85781C19.7985 8.69985 21.6575 7.94027 23.6154 7.64166C25.5733 7.34306 27.5742 7.51398 29.4531 8.14033C31.332 8.76669 33.0352 9.83056 34.4224 11.2443C35.8095 12.658 36.8408 14.3811 37.4314 16.2715C38.0219 18.162 38.1548 20.1658 37.8191 22.1177C37.4834 24.0696 36.6886 25.9138 35.5004 27.4983" stroke="#161616" stroke-width="2" stroke-linecap="round" stroke-linejoin="round"/>
<path d="M18.9467 25.3009L24.25 19.9975L29.5533 25.3009" stroke="#161616" stroke-width="2" stroke-linecap="round" stroke-linejoin="round"/>
<path d="M24.25 32.4976V19.9976" stroke="#161616" stroke-width="2" stroke-linecap="round" stroke-linejoin="round"/>
</svg>
