<svg width="24" height="24" viewBox="0 0 24 24" fill="none" xmlns="http://www.w3.org/2000/svg">
<path d="M7.875 3.75C6.8125 3.75 5.92017 4.17544 5.34521 4.82227C4.77026 5.46909 4.5 6.30208 4.5 7.125C4.5 7.77767 4.67748 8.43256 5.03467 9H4.06641C3.03711 9 2.14033 9.709 1.88379 10.6963C1.68726 11.4525 1.5 12.5282 1.5 13.875C1.5 15.2218 1.68726 16.2975 1.88379 17.0537C2.14033 18.041 3.03711 18.75 4.06641 18.75H5.37158C5.46342 19.0297 5.60702 19.2965 5.81396 19.5293C6.20142 19.9652 6.8125 20.25 7.5 20.25C8.1875 20.25 8.79858 19.9652 9.18604 19.5293C9.39298 19.2965 9.53658 19.0297 9.62842 18.75H14.3716C14.4634 19.0297 14.607 19.2965 14.814 19.5293C15.2014 19.9652 15.8125 20.25 16.5 20.25C17.1875 20.25 17.7986 19.9652 18.186 19.5293C18.393 19.2965 18.5366 19.0297 18.6284 18.75H19.9336C20.9629 18.75 21.8597 18.041 22.1162 17.0537C22.3127 16.2975 22.5 15.2218 22.5 13.875C22.5 12.5282 22.3127 11.4525 22.1162 10.6963C21.8597 9.709 20.9629 9 19.9336 9H18.6284C18.7085 8.756 18.75 8.50236 18.75 8.25C18.75 7.70833 18.5735 7.15659 18.186 6.7207C18.0264 6.54117 17.8091 6.40746 17.584 6.28857L17.5854 6.28418C17.5803 6.28162 17.5745 6.28088 17.5693 6.27832C17.4644 6.22401 17.3554 6.1906 17.2397 6.15234C14.2377 4.70264 10.9211 3.75 7.875 3.75ZM7.875 5.25C8.5625 5.25 8.98267 5.48081 9.28271 5.81836C9.58276 6.15591 9.75 6.63542 9.75 7.125C9.75 7.61458 9.58276 8.09409 9.28271 8.43164C8.98267 8.76919 8.5625 9 7.875 9C7.1875 9 6.76733 8.76919 6.46729 8.43164C6.16724 8.09409 6 7.61458 6 7.125C6 6.63542 6.16724 6.15591 6.46729 5.81836C6.76733 5.48081 7.1875 5.25 7.875 5.25ZM10.9116 5.68359C12.2143 5.93046 13.48 6.30592 14.7803 6.81152C14.4393 7.23406 14.25 7.74052 14.25 8.25C14.25 8.50236 14.2915 8.756 14.3716 9H10.7153C11.0725 8.43256 11.25 7.77767 11.25 7.125C11.25 6.62859 11.116 6.14432 10.9116 5.68359ZM16.5 7.5C16.8125 7.5 16.9514 7.59018 17.064 7.7168C17.1765 7.84341 17.25 8.04167 17.25 8.25C17.25 8.45833 17.1765 8.65659 17.064 8.7832C16.9514 8.90982 16.8125 9 16.5 9C16.1875 9 16.0486 8.90982 15.936 8.7832C15.8235 8.65659 15.75 8.45833 15.75 8.25C15.75 8.04167 15.8235 7.84341 15.936 7.7168C16.0486 7.59018 16.1875 7.5 16.5 7.5ZM4.06641 10.5H7.875H16.5H19.9336C20.2828 10.5 20.5746 10.728 20.6646 11.0742C20.8325 11.7205 21 12.6673 21 13.875C21 15.0827 20.8325 16.0295 20.6646 16.6758C20.5746 17.022 20.2828 17.25 19.9336 17.25H19.5V12H18V16.3374C17.6143 15.9924 17.1 15.75 16.5 15.75C15.8125 15.75 15.2014 16.0348 14.814 16.4707C14.607 16.7035 14.4634 16.9703 14.3716 17.25H9.62842C9.53658 16.9703 9.39298 16.7035 9.18604 16.4707C8.79858 16.0348 8.1875 15.75 7.5 15.75C6.89995 15.75 6.38565 15.9924 6 16.3374V12H4.5V17.25H4.06641C3.7172 17.25 3.42541 17.022 3.33545 16.6758C3.16748 16.0295 3 15.0827 3 13.875C3 12.6673 3.16748 11.7205 3.33545 11.0742C3.42541 10.728 3.7172 10.5 4.06641 10.5ZM7.5 17.25C7.8125 17.25 7.95142 17.3402 8.06396 17.4668C8.17651 17.5934 8.25 17.7917 8.25 18C8.25 18.2083 8.17651 18.4066 8.06396 18.5332C7.95142 18.6598 7.8125 18.75 7.5 18.75C7.1875 18.75 7.04858 18.6598 6.93604 18.5332C6.82349 18.4066 6.75 18.2083 6.75 18C6.75 17.7917 6.82349 17.5934 6.93604 17.4668C7.04858 17.3402 7.1875 17.25 7.5 17.25ZM16.5 17.25C16.8125 17.25 16.9514 17.3402 17.064 17.4668C17.1765 17.5934 17.25 17.7917 17.25 18C17.25 18.2083 17.1765 18.4066 17.064 18.5332C16.9514 18.6598 16.8125 18.75 16.5 18.75C16.1875 18.75 16.0486 18.6598 15.936 18.5332C15.8235 18.4066 15.75 18.2083 15.75 18C15.75 17.7917 15.8235 17.5934 15.936 17.4668C16.0486 17.3402 16.1875 17.25 16.5 17.25Z" fill="#242424"/>
</svg>
