<svg width="25" height="24" viewBox="0 0 25 24" fill="none" xmlns="http://www.w3.org/2000/svg">
<path d="M19.8611 8.23338L6.7857 3.22999" stroke="#FF0D00" stroke-width="1.7" stroke-linecap="round" stroke-linejoin="round"/>
<path d="M16.5927 6.98226L17.1288 5.58133C17.271 5.20978 17.2597 4.79696 17.0976 4.4337C16.9354 4.07044 16.6355 3.78649 16.264 3.64431L12.0612 2.03608C11.6896 1.8939 11.2768 1.90515 10.9135 2.06734C10.5503 2.22953 10.2663 2.52938 10.1241 2.90093L9.58806 4.30187" stroke="#FF0D00" stroke-width="1.7" stroke-linecap="round" stroke-linejoin="round"/>
<path d="M6.41071 8.25V20.25C6.41071 21.3546 7.30614 22.25 8.41071 22.25H16.4107C17.5153 22.25 18.4107 21.3546 18.4107 20.25V8.25" stroke="#FF0D00" stroke-width="1.7"/>
<path d="M3.41056 9.36445C3.41056 8.47214 3.76503 7.61638 4.39599 6.98543C5.02694 6.35447 5.8827 6 6.77501 6C7.66732 6 8.52308 6.35447 9.15404 6.98542C9.785 7.61638 10.1395 8.47214 10.1395 9.36445" stroke="#FF0D00" stroke-width="1.7" stroke-linecap="round" stroke-linejoin="round"/>
<path d="M11.5333 8.13477L10.4159 10.0974L8.45325 8.98008" stroke="#FF0D00" stroke-width="1.5" stroke-linecap="round" stroke-linejoin="round"/>
</svg>
