<svg width="16" height="16" viewBox="0 0 24 24" fill="none" xmlns="http://www.w3.org/2000/svg">
<path d="M11.9889 2.48428C11.7902 2.48739 11.6008 2.56925 11.4624 2.71189C11.3239 2.85453 11.2478 3.04628 11.2506 3.24503V4.53799C10.2176 4.62885 9.24083 4.90844 8.34633 5.33682L7.38051 3.84268C7.31379 3.73628 7.22143 3.64833 7.11189 3.58691C7.00235 3.52548 6.87913 3.49255 6.75356 3.49112C6.61707 3.48954 6.48275 3.52524 6.36505 3.59436C6.24736 3.66348 6.15075 3.7634 6.08565 3.88336C6.02054 4.00333 5.9894 4.13878 5.99559 4.27513C6.00177 4.41148 6.04505 4.54356 6.12074 4.65714L7.05434 6.10147C6.30216 6.64236 5.64308 7.30144 5.10219 8.05362L3.65785 7.12003C3.53217 7.03621 3.3841 6.9923 3.23305 6.99405C3.07097 6.99587 2.91384 7.05016 2.78519 7.14876C2.65654 7.24737 2.5633 7.385 2.51942 7.54104C2.47554 7.69708 2.4834 7.86314 2.5418 8.01434C2.60021 8.16555 2.70602 8.29376 2.8434 8.37979L4.33754 9.34561C3.90916 10.2401 3.62957 11.2169 3.53871 12.2499H2.25063C2.15124 12.2485 2.05257 12.2669 1.96034 12.3039C1.86812 12.341 1.78418 12.396 1.7134 12.4658C1.64262 12.5356 1.58642 12.6187 1.54806 12.7104C1.5097 12.8021 1.48994 12.9005 1.48994 12.9999C1.48994 13.0993 1.5097 13.1977 1.54806 13.2894C1.58642 13.3811 1.64262 13.4642 1.7134 13.534C1.78418 13.6038 1.86812 13.6588 1.96034 13.6959C2.05257 13.733 2.15124 13.7513 2.25063 13.7499H3.53481C3.69332 15.5456 4.41372 17.1821 5.51723 18.4843C6.34223 18.4343 6.89358 18.2252 7.19008 18.0712C5.86507 16.8142 5.03016 15.0488 5.00551 13.0878C5.01279 13.0278 5.01279 12.9671 5.00551 12.9071C5.02197 11.6597 5.36782 10.4929 5.95766 9.48331C5.95825 9.48229 5.95902 9.48139 5.95961 9.48038C5.96059 9.47875 5.96157 9.47713 5.96254 9.47549C6.56521 8.44707 7.42079 7.58705 8.44594 6.9794C9.46519 6.37525 10.6471 6.02078 11.9118 6.00479C11.9721 6.01215 12.0331 6.01215 12.0934 6.00479C13.3408 6.02125 14.5077 6.36711 15.5172 6.95694C15.5198 6.95858 15.5224 6.96021 15.525 6.96182C16.5535 7.56449 17.4135 8.42007 18.0211 9.44522C18.6253 10.4645 18.9798 11.6464 18.9957 12.911C18.9885 12.971 18.9885 13.0317 18.9957 13.0917C18.97 15.0521 18.1343 16.8174 16.8092 18.0741C17.0942 18.2211 17.6475 18.4338 18.484 18.4843C19.5875 17.1821 20.3079 15.5456 20.4664 13.7499H21.7506C21.85 13.7513 21.9487 13.733 22.0409 13.6959C22.1331 13.6588 22.2171 13.6038 22.2879 13.534C22.3586 13.4642 22.4148 13.3811 22.4532 13.2894C22.4916 13.1977 22.5113 13.0993 22.5113 12.9999C22.5113 12.9005 22.4916 12.8021 22.4532 12.7104C22.4148 12.6187 22.3586 12.5356 22.2879 12.4658C22.2171 12.396 22.1331 12.341 22.0409 12.3039C21.9487 12.2669 21.85 12.2485 21.7506 12.2499H20.4625C20.3717 11.2169 20.0921 10.2401 19.6637 9.34561L21.1579 8.37979C21.2969 8.29276 21.4036 8.16254 21.4616 8.00909C21.5195 7.85564 21.5256 7.68741 21.4789 7.53018C21.4321 7.37295 21.3351 7.23538 21.2027 7.13854C21.0703 7.04171 20.9098 6.99095 20.7457 6.99405C20.6023 6.99671 20.4627 7.04043 20.3434 7.12003L18.8991 8.05362C18.3582 7.30144 17.6991 6.64236 16.9469 6.10147L17.8805 4.65714C17.9574 4.54197 18.001 4.40775 18.0063 4.26935C18.0116 4.13096 17.9785 3.9938 17.9107 3.87306C17.8428 3.75232 17.7429 3.65273 17.6219 3.58531C17.5009 3.5179 17.3636 3.4853 17.2252 3.49112C17.1035 3.49622 16.9848 3.53089 16.8795 3.59215C16.7742 3.6534 16.6854 3.73939 16.6207 3.84268L15.6549 5.33682C14.7604 4.90844 13.7837 4.62885 12.7506 4.53799V3.24503C12.7521 3.14464 12.7333 3.04499 12.6956 2.95198C12.6578 2.85897 12.6017 2.77449 12.5307 2.70354C12.4596 2.6326 12.3751 2.57664 12.282 2.53898C12.189 2.50131 12.0893 2.48271 11.9889 2.48428ZM12.236 8.99991C12.2225 8.99991 12.2089 9.00086 12.1959 9.00186C12.1024 9.00936 12.0165 9.04118 11.945 9.09268C11.912 9.11618 11.8816 9.14419 11.8551 9.17569C11.8461 9.18669 11.8373 9.19787 11.8288 9.20987L9.10609 12.9384C9.00559 13.0759 8.98209 13.2545 9.04359 13.413C9.10509 13.5715 9.24281 13.6886 9.40981 13.7226L11.2799 14.1073L11.276 16.4989C11.2755 16.7154 11.4138 16.9075 11.6198 16.9745C11.6708 16.9915 11.724 16.9999 11.776 16.9999C11.9325 16.9999 12.0833 16.9258 12.1793 16.7948L14.9059 13.0614C15.0049 12.9239 15.0284 12.7453 14.9674 12.5868C14.9059 12.4283 14.7682 12.3113 14.6012 12.2773L12.7311 11.8925L12.735 9.53604C12.736 9.52404 12.737 9.51241 12.737 9.49991C12.737 9.22541 12.5173 9.00291 12.2438 8.99991H12.236ZM1.7682 18.4931C1.61267 18.4877 1.45931 18.5308 1.32938 18.6165C1.19945 18.7022 1.09939 18.8261 1.04305 18.9712C0.986719 19.1163 0.976905 19.2753 1.01497 19.4262C1.05304 19.5771 1.1371 19.7124 1.25551 19.8134C1.25551 19.8134 1.64967 20.1494 2.30336 20.4364C2.95705 20.7234 3.91812 20.9999 5.16664 20.9999C6.41516 20.9999 7.37721 20.7234 8.0309 20.4364C8.37584 20.285 8.40309 20.2295 8.58363 20.1073C8.76417 20.2295 8.79143 20.285 9.13637 20.4364C9.79005 20.7234 10.7511 20.9999 11.9996 20.9999C13.2482 20.9999 14.2102 20.7234 14.8639 20.4364C15.2088 20.285 15.2361 20.2295 15.4166 20.1073C15.5972 20.2295 15.6244 20.285 15.9694 20.4364C16.6231 20.7234 17.5841 20.9999 18.8327 20.9999C20.0812 20.9999 21.0432 20.7234 21.6969 20.4364C22.3506 20.1494 22.7448 19.8134 22.7448 19.8134C22.8188 19.7484 22.8792 19.6694 22.9227 19.581C22.9662 19.4926 22.9919 19.3965 22.9982 19.2982C23.0046 19.1999 22.9915 19.1013 22.9597 19.0081C22.928 18.9148 22.8782 18.8288 22.8132 18.7548C22.7481 18.6808 22.6692 18.6203 22.5808 18.5768C22.4924 18.5333 22.3963 18.5077 22.298 18.5013C22.1997 18.495 22.1011 18.5081 22.0079 18.5398C21.9146 18.5716 21.8285 18.6214 21.7545 18.6864C21.7545 18.6864 21.5796 18.8504 21.0944 19.0634C20.6092 19.2764 19.8616 19.4999 18.8327 19.4999C17.8037 19.4999 17.0571 19.2764 16.5719 19.0634C16.0867 18.8504 15.9118 18.6864 15.9118 18.6864C15.7749 18.5661 15.5989 18.4998 15.4166 18.4998C15.2344 18.4998 15.0584 18.5661 14.9215 18.6864C14.9215 18.6864 14.7466 18.8504 14.2614 19.0634C13.7762 19.2764 13.0286 19.4999 11.9996 19.4999C10.9707 19.4999 10.2241 19.2764 9.73891 19.0634C9.25372 18.8504 9.07875 18.6864 9.07875 18.6864C8.94186 18.5661 8.76586 18.4998 8.58363 18.4998C8.4014 18.4998 8.22541 18.5661 8.08852 18.6864C8.08852 18.6864 7.91355 18.8504 7.42836 19.0634C6.94317 19.2764 6.19562 19.4999 5.16664 19.4999C4.13766 19.4999 3.39109 19.2764 2.9059 19.0634C2.42071 18.8504 2.24574 18.6864 2.24574 18.6864C2.11439 18.5676 1.94522 18.4991 1.7682 18.4931Z" fill="#242424"/>
</svg>
