<svg width="24" height="24" viewBox="0 0 24 24" fill="none" xmlns="http://www.w3.org/2000/svg">
<path d="M5.75 4C3.68752 4 2 5.68752 2 7.75V19.75C2.00002 19.9489 2.07904 20.1397 2.21969 20.2803C2.36034 20.421 2.55109 20.5 2.75 20.5H5.62988C5.7104 20.5132 5.79253 20.5132 5.87305 20.5H6.5V19.8027C6.50062 19.7852 6.50062 19.7676 6.5 19.75V19V17.875C6.5 17.6598 6.6598 17.5 6.875 17.5H8V20.5H9.5V17.5H11V20.5H12.5V17.5H14V20.5H15.5V17.5H16.625C16.8402 17.5 17 17.6598 17 17.875V19.75V20.5H17.6299C17.7104 20.5132 17.7925 20.5132 17.873 20.5H20.75C20.9489 20.5 21.1397 20.421 21.2803 20.2803C21.421 20.1397 21.5 19.9489 21.5 19.75V7.75C21.5 5.68752 19.8125 4 17.75 4H5.75ZM5.75 5.5H17.75C19.0025 5.5 20 6.49748 20 7.75V19H18.5V17.875C18.5 16.8482 17.6518 16 16.625 16H6.875C5.8482 16 5 16.8482 5 17.875V19H3.5V7.75C3.5 6.49748 4.49748 5.5 5.75 5.5ZM5.75 7C5.55109 7.00002 5.36034 7.07904 5.21969 7.21969C5.07904 7.36034 5.00002 7.55109 5 7.75V10.75C5.00002 10.9489 5.07904 11.1397 5.21969 11.2803C5.36034 11.421 5.55109 11.5 5.75 11.5H11.75C11.9489 11.5 12.1397 11.421 12.2803 11.2803C12.421 11.1397 12.5 10.9489 12.5 10.75V7.75C12.5 7.55109 12.421 7.36034 12.2803 7.21969C12.1397 7.07904 11.9489 7.00002 11.75 7H5.75ZM6.5 8.5H11V10H6.5V8.5ZM16.25 8.5C15.0162 8.5 14 9.51624 14 10.75C14 11.9838 15.0162 13 16.25 13C17.4838 13 18.5 11.9838 18.5 10.75C18.5 9.51624 17.4838 8.5 16.25 8.5ZM16.25 10C16.6731 10 17 10.3269 17 10.75C17 11.1731 16.6731 11.5 16.25 11.5C15.8269 11.5 15.5 11.1731 15.5 10.75C15.5 10.3269 15.8269 10 16.25 10ZM11.75 13C11.5511 13 11.3603 13.079 11.2197 13.2197C11.079 13.3603 11 13.5511 11 13.75C11 13.9489 11.079 14.1397 11.2197 14.2803C11.3603 14.421 11.5511 14.5 11.75 14.5C11.9489 14.5 12.1397 14.421 12.2803 14.2803C12.421 14.1397 12.5 13.9489 12.5 13.75C12.5 13.5511 12.421 13.3603 12.2803 13.2197C12.1397 13.079 11.9489 13 11.75 13Z" fill="#A6A6A6"/>
</svg>
