<svg width="24" height="24" viewBox="0 0 24 24" fill="none" xmlns="http://www.w3.org/2000/svg">
<path d="M10.7501 3.00001C10.6507 2.99861 10.552 3.01697 10.4598 3.05403C10.3676 3.09109 10.2836 3.14611 10.2129 3.21589C10.1421 3.28568 10.0859 3.36883 10.0475 3.46052C10.0091 3.55222 9.9894 3.65062 9.9894 3.75001C9.9894 3.84941 10.0091 3.94781 10.0475 4.0395C10.0859 4.1312 10.1421 4.21435 10.2129 4.28413C10.2836 4.35392 10.3676 4.40894 10.4598 4.446C10.552 4.48306 10.6507 4.50142 10.7501 4.50001H16.2501C16.3495 4.50142 16.4481 4.48306 16.5404 4.446C16.6326 4.40894 16.7165 4.35392 16.7873 4.28413C16.8581 4.21435 16.9143 4.1312 16.9526 4.0395C16.991 3.94781 17.0108 3.84941 17.0108 3.75001C17.0108 3.65062 16.991 3.55222 16.9526 3.46052C16.9143 3.36883 16.8581 3.28568 16.7873 3.21589C16.7165 3.14611 16.6326 3.09109 16.5404 3.05403C16.4481 3.01697 16.3495 2.99861 16.2501 3.00001H10.7501ZM9.99226 5.50001C8.99815 5.50001 8.04423 5.89497 7.3409 6.59767C7.3409 6.59734 7.3409 6.59799 7.3409 6.59767L5.43953 8.50001H4.25008C4.05117 8.50003 3.86042 8.57906 3.71977 8.7197C3.57912 8.86035 3.5001 9.05111 3.50008 9.25001V16.75C3.5001 16.9489 3.57912 17.1397 3.71977 17.2803C3.86042 17.421 4.05117 17.5 4.25008 17.5H5.39851L7.0743 19.5107C7.59656 20.1375 8.37111 20.5 9.1866 20.5H15.0079C16.002 20.5 16.9559 20.1051 17.6593 19.4023C17.6593 19.4027 17.6593 19.402 17.6593 19.4023L19.6954 17.3662C20.2109 16.8507 20.5011 16.1509 20.5011 15.4219V8.25001C20.5004 6.74031 19.26 5.50001 17.7501 5.50001H9.99226ZM9.99226 7.00001H17.7501C18.4492 7.00001 19.0007 7.55072 19.0011 8.25001V15.4219C19.0011 15.7528 18.8684 16.0712 18.6339 16.3057L16.5987 18.3408C16.176 18.7631 15.6048 19 15.0079 19H9.1866C8.81509 19 8.46437 18.8361 8.22664 18.5508L6.32625 16.2695C6.25583 16.1851 6.16772 16.1172 6.06815 16.0707C5.96858 16.0241 5.86 16 5.75008 16H5.00008V10H5.75008C5.94898 9.99997 6.13972 9.92094 6.28035 9.78028L8.40144 7.65919C8.82412 7.2369 9.39538 7.00001 9.99226 7.00001ZM12.7266 9.00001C12.7131 9.00001 12.6996 9.00096 12.6866 9.00196C12.5931 9.00946 12.5071 9.04129 12.4356 9.09278C12.4026 9.11628 12.3723 9.14429 12.3458 9.17579C12.3368 9.18679 12.3279 9.19797 12.3194 9.20997L9.59676 12.9385C9.49626 13.076 9.47276 13.2546 9.53426 13.4131C9.59576 13.5716 9.73347 13.6887 9.90047 13.7227L11.7716 14.1074L11.7667 16.499C11.7662 16.7155 11.9054 16.9076 12.1114 16.9746C12.1624 16.9916 12.2147 17 12.2667 17C12.4232 17 12.575 16.9259 12.671 16.7949L15.3966 13.0615C15.4961 12.924 15.5196 12.7454 15.4581 12.5869C15.3966 12.4284 15.2589 12.3114 15.0919 12.2774L13.2218 11.8926L13.2257 9.53614C13.2267 9.52414 13.2276 9.51251 13.2276 9.50001C13.2276 9.22551 13.008 9.00301 12.7345 9.00001H12.7266ZM22.2384 9.48927C22.0396 9.49237 21.8502 9.57424 21.7118 9.71688C21.5734 9.85951 21.4972 10.0513 21.5001 10.25V15.25C21.4987 15.3494 21.517 15.4481 21.5541 15.5403C21.5912 15.6325 21.6462 15.7165 21.716 15.7872C21.7857 15.858 21.8689 15.9142 21.9606 15.9526C22.0523 15.9909 22.1507 16.0107 22.2501 16.0107C22.3495 16.0107 22.4479 15.9909 22.5396 15.9526C22.6313 15.9142 22.7144 15.858 22.7842 15.7872C22.854 15.7165 22.909 15.6325 22.9461 15.5403C22.9831 15.4481 23.0015 15.3494 23.0001 15.25V10.25C23.0015 10.1496 22.9828 10.05 22.945 9.95696C22.9072 9.86395 22.8512 9.77947 22.7801 9.70853C22.7091 9.63759 22.6245 9.58162 22.5315 9.54396C22.4384 9.5063 22.3387 9.4877 22.2384 9.48927ZM1.73836 9.98927C1.53962 9.99237 1.35023 10.0742 1.21181 10.2169C1.07338 10.3595 0.997226 10.5513 1.00008 10.75V15.25C0.998672 15.3494 1.01703 15.4481 1.05409 15.5403C1.09115 15.6325 1.14617 15.7165 1.21596 15.7872C1.28574 15.858 1.36889 15.9142 1.46059 15.9526C1.55228 15.9909 1.65068 16.0107 1.75008 16.0107C1.84947 16.0107 1.94787 15.9909 2.03957 15.9526C2.13126 15.9142 2.21441 15.858 2.2842 15.7872C2.35398 15.7165 2.409 15.6325 2.44606 15.5403C2.48312 15.4481 2.50148 15.3494 2.50008 15.25V10.75C2.50152 10.6496 2.48279 10.55 2.44501 10.457C2.40723 10.364 2.35116 10.2795 2.28012 10.2085C2.20909 10.1376 2.12453 10.0816 2.03147 10.044C1.93841 10.0063 1.83874 9.9877 1.73836 9.98927Z" fill="#A6A6A6"/>
</svg>
