<svg width="16" height="16" viewBox="0 0 24 24" fill="none" xmlns="http://www.w3.org/2000/svg">
<g clip-path="url(#clip0_3695_8014)">
<path d="M12 4.00014C8.2555 4.00014 5.16459 6.85364 4.78809 10.5001H4.5C2.0185 10.5001 0 12.5186 0 15.0001C0 17.4816 2.0185 19.5001 4.5 19.5001H16.5918C16.5358 19.3431 16.5 19.1761 16.5 19.0001C16.5 18.6021 16.6142 18.2761 16.7832 18.0001H4.5C2.8455 18.0001 1.5 16.6546 1.5 15.0001C1.5 13.3456 2.8455 12.0001 4.5 12.0001H5.5C5.914 12.0001 6.25 11.6641 6.25 11.2501C6.25 8.07964 8.8295 5.50014 12 5.50014C15.1705 5.50014 17.75 8.07964 17.75 11.2501C17.75 11.6641 18.086 12.0001 18.5 12.0001H19.5C21.1545 12.0001 22.5 13.3456 22.5 15.0001C22.5 15.8936 22.1054 16.6943 21.4834 17.2443C21.4484 17.5748 21.349 17.863 21.207 18.1105C21.391 18.3595 21.5 18.6676 21.5 19.0001C21.5 19.0091 21.4971 19.0175 21.4971 19.0265C22.9776 18.289 24 16.7636 24 15.0001C24 12.5186 21.9815 10.5001 19.5 10.5001H19.2119C18.8354 6.85364 15.7445 4.00014 12 4.00014ZM9.50586 10.5001C8.12436 10.5001 7 11.8456 7 13.5001C7 15.1546 8.12436 16.5001 9.50586 16.5001C10.6824 16.5001 11.2607 15.6954 11.4092 15.4494C11.5882 15.1539 11.4937 14.7695 11.1982 14.591C10.9037 14.4125 10.5183 14.5069 10.3398 14.8019C10.2763 14.9069 10.0279 15.2511 9.50586 15.2511C8.82486 15.2511 8.25 14.4496 8.25 13.5011C8.25 12.5526 8.82486 11.7511 9.50586 11.7511C10.0274 11.7511 10.2763 12.0944 10.3398 12.1994C10.5193 12.4944 10.9042 12.5888 11.1982 12.4103C11.4937 12.2313 11.5877 11.8469 11.4092 11.5519C11.2597 11.3049 10.6814 10.5001 9.50586 10.5001ZM14.625 10.5001C13.1775 10.5001 12 11.8456 12 13.5001C12 15.1546 13.1775 16.5001 14.625 16.5001C16.0725 16.5001 17.25 15.1546 17.25 13.5001C17.25 11.8456 16.0725 10.5001 14.625 10.5001ZM14.625 11.7501C15.3835 11.7501 16 12.5351 16 13.5001C16 14.4651 15.3835 15.2501 14.625 15.2501C13.8665 15.2501 13.25 14.4651 13.25 13.5001C13.25 12.5351 13.8665 11.7501 14.625 11.7501ZM19 15.5001C18.178 15.5001 17.7066 15.9827 17.5576 16.2677C17.4326 16.5067 17.5243 16.7939 17.7588 16.9269C17.9928 17.0584 18.294 16.9748 18.4355 16.7453C18.4505 16.7203 18.5975 16.5001 19 16.5001C19.2755 16.5001 19.5 16.7246 19.5 17.0001C19.5 17.2426 19.0284 17.5059 18.6494 17.7179C18.1109 18.0184 17.5 18.3586 17.5 19.0001C17.5 19.2761 17.724 19.5001 18 19.5001H20C20.276 19.5001 20.5 19.2761 20.5 19.0001C20.5 18.7241 20.276 18.5001 20 18.5001H19.2979C19.8699 18.1751 20.5 17.7576 20.5 17.0001C20.5 16.1731 19.827 15.5001 19 15.5001Z" fill="#242424"/>
<path d="M3.64487 1.52721C3.64031 2.09835 3.4158 2.64576 3.018 3.05561C2.62021 3.46547 2.07975 3.70623 1.509 3.72785" stroke="#242424" stroke-width="1.5" stroke-linecap="round" stroke-linejoin="round"/>
<path d="M6.20381 2C6.20755 3.1277 5.76992 4.21209 4.98452 5.02132C4.19911 5.83054 3.12826 6.30035 2.00096 6.33029" stroke="#242424" stroke-width="1.5" stroke-linecap="round" stroke-linejoin="round"/>
<path d="M0.564112 0.582359C0.252145 0.903786 0.259814 1.41725 0.581241 1.72922C0.902668 2.04119 1.41614 2.03352 1.7281 1.71209C2.04007 1.39066 2.0324 0.877197 1.71097 0.56523C1.38955 0.253263 0.876079 0.260932 0.564112 0.582359Z" fill="#242424"/>
</g>
<defs>
<clipPath id="clip0_3695_8014">
<rect width="16" height="16" fill="white"/>
</clipPath>
</defs>
</svg>
