<svg width="24" height="24" viewBox="0 0 24 24" fill="none" xmlns="http://www.w3.org/2000/svg">
<path d="M12 2.00001C6.48603 2.00001 2 6.48604 2 12C2 17.514 6.48603 22 12 22C17.514 22 22 17.514 22 12C22 6.48604 17.514 2.00001 12 2.00001ZM12 3.50001C16.7033 3.50001 20.5 7.2967 20.5 12C20.5 16.7033 16.7033 20.5 12 20.5C7.29669 20.5 3.5 16.7033 3.5 12C3.5 7.2967 7.29669 3.50001 12 3.50001ZM12 4.50001C11.8011 4.50001 11.6103 4.57903 11.4697 4.71968C11.329 4.86033 11.25 5.0511 11.25 5.25001C11.25 5.44892 11.329 5.63969 11.4697 5.78034C11.6103 5.92099 11.8011 6.00001 12 6.00001C12.1989 6.00001 12.3897 5.92099 12.5303 5.78034C12.671 5.63969 12.75 5.44892 12.75 5.25001C12.75 5.0511 12.671 4.86033 12.5303 4.71968C12.3897 4.57903 12.1989 4.50001 12 4.50001ZM15.3867 5.39552C15.2522 5.39434 15.1199 5.42935 15.0036 5.49687C14.8873 5.56439 14.7913 5.66194 14.7256 5.7793L12 10.5C11.7367 10.5 11.4781 10.5694 11.2501 10.701C11.0221 10.8327 10.8327 11.0221 10.7011 11.2501C10.5695 11.4781 10.5002 11.7368 10.5002 12.0001C10.5002 12.2633 10.5695 12.522 10.7012 12.75L10.1133 13.7686C10.0616 13.8539 10.0274 13.9488 10.0128 14.0475C9.9982 14.1463 10.0035 14.247 10.0283 14.3437C10.0531 14.4404 10.097 14.5311 10.1573 14.6107C10.2177 14.6902 10.2933 14.7569 10.3797 14.8068C10.4662 14.8567 10.5617 14.8889 10.6608 14.9014C10.7598 14.9139 10.8603 14.9065 10.9565 14.8797C11.0526 14.8528 11.1425 14.8071 11.2207 14.7451C11.2989 14.683 11.364 14.606 11.4121 14.5186L12 13.5C12.2631 13.4999 12.5216 13.4305 12.7495 13.2989C12.9773 13.1673 13.1666 12.978 13.2982 12.7502C13.4298 12.5223 13.4991 12.2638 13.4992 12.0007C13.4993 11.7375 13.4302 11.479 13.2988 11.251L16.0244 6.5293C16.0919 6.41593 16.1283 6.28676 16.13 6.15483C16.1316 6.02289 16.0984 5.89286 16.0337 5.77785C15.969 5.66285 15.8751 5.56694 15.7615 5.49982C15.648 5.43269 15.5187 5.39671 15.3867 5.39552ZM8.625 5.4043C8.42609 5.4043 8.23532 5.48332 8.09467 5.62397C7.95402 5.76463 7.875 5.95539 7.875 6.1543C7.875 6.35322 7.95402 6.54398 8.09467 6.68464C8.23532 6.82529 8.42609 6.9043 8.625 6.9043C8.82391 6.9043 9.01468 6.82529 9.15533 6.68464C9.29598 6.54398 9.375 6.35322 9.375 6.1543C9.375 5.95539 9.29598 5.76463 9.15533 5.62397C9.01468 5.48332 8.82391 5.4043 8.625 5.4043ZM6.1543 7.87501C5.95538 7.87501 5.76462 7.95403 5.62397 8.09468C5.48331 8.23533 5.4043 8.4261 5.4043 8.62501C5.4043 8.82392 5.48331 9.01469 5.62397 9.15534C5.76462 9.29599 5.95538 9.37501 6.1543 9.37501C6.35321 9.37501 6.54397 9.29599 6.68463 9.15534C6.82528 9.01469 6.9043 8.82392 6.9043 8.62501C6.9043 8.4261 6.82528 8.23533 6.68463 8.09468C6.54397 7.95403 6.35321 7.87501 6.1543 7.87501ZM17.8457 7.87501C17.6468 7.87501 17.456 7.95403 17.3154 8.09468C17.1747 8.23533 17.0957 8.4261 17.0957 8.62501C17.0957 8.82392 17.1747 9.01469 17.3154 9.15534C17.456 9.29599 17.6468 9.37501 17.8457 9.37501C18.0446 9.37501 18.2354 9.29599 18.376 9.15534C18.5167 9.01469 18.5957 8.82392 18.5957 8.62501C18.5957 8.4261 18.5167 8.23533 18.376 8.09468C18.2354 7.95403 18.0446 7.87501 17.8457 7.87501ZM5.25 11.25C5.05109 11.25 4.86032 11.329 4.71967 11.4697C4.57902 11.6103 4.5 11.8011 4.5 12C4.5 12.1989 4.57902 12.3897 4.71967 12.5303C4.86032 12.671 5.05109 12.75 5.25 12.75C5.44891 12.75 5.63968 12.671 5.78033 12.5303C5.92098 12.3897 6 12.1989 6 12C6 11.8011 5.92098 11.6103 5.78033 11.4697C5.63968 11.329 5.44891 11.25 5.25 11.25ZM18.75 11.25C18.5511 11.25 18.3603 11.329 18.2197 11.4697C18.079 11.6103 18 11.8011 18 12C18 12.1989 18.079 12.3897 18.2197 12.5303C18.3603 12.671 18.5511 12.75 18.75 12.75C18.9489 12.75 19.1397 12.671 19.2803 12.5303C19.421 12.3897 19.5 12.1989 19.5 12C19.5 11.8011 19.421 11.6103 19.2803 11.4697C19.1397 11.329 18.9489 11.25 18.75 11.25ZM6.1543 14.625C5.95538 14.625 5.76462 14.704 5.62397 14.8447C5.48331 14.9853 5.4043 15.1761 5.4043 15.375C5.4043 15.5739 5.48331 15.7647 5.62397 15.9053C5.76462 16.046 5.95538 16.125 6.1543 16.125C6.35321 16.125 6.54397 16.046 6.68463 15.9053C6.82528 15.7647 6.9043 15.5739 6.9043 15.375C6.9043 15.1761 6.82528 14.9853 6.68463 14.8447C6.54397 14.704 6.35321 14.625 6.1543 14.625ZM17.8457 14.625C17.6468 14.625 17.456 14.704 17.3154 14.8447C17.1747 14.9853 17.0957 15.1761 17.0957 15.375C17.0957 15.5739 17.1747 15.7647 17.3154 15.9053C17.456 16.046 17.6468 16.125 17.8457 16.125C18.0446 16.125 18.2354 16.046 18.376 15.9053C18.5167 15.7647 18.5957 15.5739 18.5957 15.375C18.5957 15.1761 18.5167 14.9853 18.376 14.8447C18.2354 14.704 18.0446 14.625 17.8457 14.625ZM8.625 17.0957C8.42609 17.0957 8.23532 17.1747 8.09467 17.3154C7.95402 17.456 7.875 17.6468 7.875 17.8457C7.875 18.0446 7.95402 18.2354 8.09467 18.376C8.23532 18.5167 8.42609 18.5957 8.625 18.5957C8.82391 18.5957 9.01468 18.5167 9.15533 18.376C9.29598 18.2354 9.375 18.0446 9.375 17.8457C9.375 17.6468 9.29598 17.456 9.15533 17.3154C9.01468 17.1747 8.82391 17.0957 8.625 17.0957ZM15.375 17.0957C15.1761 17.0957 14.9853 17.1747 14.8447 17.3154C14.704 17.456 14.625 17.6468 14.625 17.8457C14.625 18.0446 14.704 18.2354 14.8447 18.376C14.9853 18.5167 15.1761 18.5957 15.375 18.5957C15.5739 18.5957 15.7647 18.5167 15.9053 18.376C16.046 18.2354 16.125 18.0446 16.125 17.8457C16.125 17.6468 16.046 17.456 15.9053 17.3154C15.7647 17.1747 15.5739 17.0957 15.375 17.0957Z" />
</svg>
