<svg width="16" height="16" viewBox="0 0 24 24" fill="none"  xmlns="http://www.w3.org/2000/svg">
<path d="M17.8811 3C17.3936 3 16.9251 3.09375 16.4939 3.28125H16.4749L7.21265 7.33118C6.9314 7.46243 6.80015 7.78118 6.9314 8.08118C7.02515 8.28743 7.23118 8.41882 7.45618 8.41882C7.53118 8.41882 7.6064 8.39993 7.6814 8.36243L14.5061 5.3811C14.3561 5.77485 14.2812 6.20625 14.2812 6.65625C14.2812 8.68125 15.9126 10.3125 17.9001 10.3125C19.8876 10.3125 21.5 8.68125 21.5 6.65625C21.5 4.63125 19.8686 3 17.8811 3ZM17.8811 4.125C19.2499 4.125 20.375 5.26875 20.375 6.65625C20.375 8.04375 19.2499 9.1875 17.8811 9.1875C16.5124 9.1875 15.3876 8.04375 15.3876 6.65625C15.3876 5.26875 16.5124 4.125 17.8811 4.125ZM17.8624 5.88757C17.6586 5.88759 17.4631 5.96858 17.3189 6.11274C17.1748 6.25689 17.0938 6.45239 17.0938 6.65625C17.0938 6.86011 17.1748 7.05561 17.3189 7.19977C17.4631 7.34392 17.6586 7.42491 17.8624 7.42493C18.0663 7.42491 18.2618 7.34392 18.4059 7.19977C18.5501 7.05561 18.6311 6.86011 18.6311 6.65625C18.6311 6.45239 18.5501 6.25689 18.4059 6.11273C18.2618 5.96858 18.0663 5.88759 17.8624 5.88757ZM4.8689 8.71875C3.2939 8.71875 2 10.0126 2 11.6063C2 12.3188 2.26235 12.9751 2.6936 13.4813C2.71235 13.5001 2.71257 13.5187 2.73132 13.5187L6.33118 17.3438C6.44368 17.4563 6.5939 17.5126 6.7439 17.5126C6.87515 17.5126 7.02507 17.4562 7.13757 17.3624C7.36257 17.1562 7.38125 16.8001 7.15625 16.5751L5.16882 14.4749C6.59382 14.3249 7.71875 13.0876 7.71875 11.6063C7.71875 10.0126 6.4439 8.71875 4.8689 8.71875ZM4.8689 9.84375C5.82515 9.84375 6.59375 10.6313 6.59375 11.6063C6.59375 12.5813 5.82515 13.3689 4.8689 13.3689C4.40015 13.3689 3.9689 13.1812 3.65015 12.8624L3.61243 12.8251C3.31243 12.5063 3.125 12.0751 3.125 11.6063C3.125 10.6313 3.91265 9.84375 4.8689 9.84375ZM20.1505 10.4033C19.8916 10.4218 19.6578 10.6125 19.625 10.875L19.1562 13.9688C18.1812 12.0375 16.1751 10.7249 13.8876 10.7249C10.6251 10.7436 7.98132 13.4062 7.98132 16.7062C7.98132 20.0062 10.6438 22.6875 13.9062 22.6875C16.7563 22.6875 19.1563 20.6251 19.7001 17.8689V17.8312C19.7188 17.6999 19.7561 17.5501 19.7561 17.4188L20.7313 11.0438C20.7876 10.7438 20.5626 10.4437 20.2626 10.4062C20.2251 10.4016 20.1875 10.4007 20.1505 10.4033ZM4.8689 11.0438C4.71971 11.0438 4.57664 11.1031 4.47115 11.2086C4.36566 11.3141 4.3064 11.4571 4.3064 11.6063C4.3064 11.7555 4.36566 11.8986 4.47115 12.0041C4.57664 12.1096 4.71971 12.1688 4.8689 12.1688C5.01808 12.1688 5.16115 12.1096 5.26664 12.0041C5.37213 11.8986 5.4314 11.7555 5.4314 11.6063C5.4314 11.4571 5.37213 11.3141 5.26664 11.2086C5.16115 11.1031 5.01808 11.0438 4.8689 11.0438ZM13.8876 11.8499C16.5313 11.8499 18.6875 14.0437 18.6875 16.7062C18.6875 16.8937 18.6689 17.0813 18.6501 17.25L18.5938 17.6624C18.1625 19.8749 16.2126 21.5625 13.8876 21.5625C11.2438 21.5625 9.08765 19.3874 9.08765 16.7062C9.08765 14.0249 11.2438 11.8499 13.8876 11.8499ZM13.9249 13.0686C13.6062 13.0686 13.3624 13.3124 13.3624 13.6311V14.7001C13.1937 14.7376 13.0437 14.8126 12.8937 14.8876L12.1624 14.1376C11.9374 13.9126 11.5813 13.9126 11.375 14.1376C11.15 14.3626 11.15 14.7187 11.375 14.9249L12.125 15.6749C12.05 15.8249 11.975 15.9749 11.9375 16.1437H10.8876C10.5688 16.1437 10.3251 16.3874 10.3251 16.7062C10.3251 17.0249 10.5688 17.2687 10.8876 17.2687H11.9375C11.975 17.4374 12.05 17.5874 12.125 17.7374L11.375 18.4874C11.15 18.7124 11.15 19.0689 11.375 19.2751C11.4875 19.3876 11.6187 19.4436 11.7687 19.4436C11.9187 19.4436 12.0499 19.3876 12.1624 19.2751L12.8937 18.5251C13.0437 18.6001 13.1937 18.6751 13.3624 18.7126V19.7812C13.3624 20.1 13.6062 20.3438 13.9249 20.3438C14.2437 20.3438 14.4874 20.1 14.4874 19.7812V18.7126C14.6562 18.6751 14.8062 18.6001 14.9562 18.5251L15.6875 19.2751C15.8 19.3876 15.9499 19.4436 16.0812 19.4436C16.2312 19.4436 16.3624 19.3876 16.4749 19.2751C16.6999 19.0501 16.6999 18.6937 16.4749 18.4874L15.7249 17.7374C15.7999 17.5874 15.8749 17.4374 15.9124 17.2687H16.9626C17.2814 17.2687 17.5251 17.0249 17.5251 16.7062C17.5251 16.3874 17.2814 16.1437 16.9626 16.1437H15.9124C15.8749 15.9749 15.7999 15.8249 15.7249 15.6749L16.4749 14.9249C16.6999 14.6999 16.6999 14.3438 16.4749 14.1376C16.2499 13.9126 15.8938 13.9126 15.6875 14.1376L14.9562 14.8876C14.8062 14.8126 14.6562 14.7376 14.4874 14.7001V13.6311C14.4874 13.3124 14.2437 13.0686 13.9249 13.0686ZM13.8876 15.75C14.4126 15.75 14.8624 16.1999 14.8624 16.7249C14.8624 17.2499 14.4313 17.7001 13.8876 17.7001C13.3626 17.7001 12.9124 17.2499 12.9124 16.7249C12.9124 16.1999 13.3438 15.75 13.8876 15.75Z" stroke="current" />
<path d="M2.45598 6.97487C2.39899 7.25981 2.53805 7.54796 2.79657 7.68063C3.0551 7.81331 3.37028 7.75828 3.56855 7.54585L6.11972 4.81245C6.2678 4.65379 6.32693 4.4317 6.27733 4.22041C6.22774 4.00913 6.07597 3.83653 5.87276 3.76033L4.9325 3.40773L5.18855 2.12748C5.24554 1.84254 5.10648 1.55439 4.84796 1.42171C4.58943 1.28903 4.27426 1.34406 4.07599 1.55649L1.52481 4.28989C1.37673 4.44855 1.31761 4.67065 1.3672 4.88193C1.41679 5.09322 1.56856 5.26581 1.77177 5.34201L2.71203 5.69461L2.45598 6.97487Z"  stroke-width="1.3" stroke-linecap="round" stroke="current" stroke-linejoin="round"/>
</svg>
