<svg width="16" height="16" viewBox="0 0 16 16" fill="none" xmlns="http://www.w3.org/2000/svg">
<path d="M5.70667 2.46C4.97872 2.76132 4.31725 3.20306 3.76 3.76M2.46 5.70667C2.1577 6.43353 2.0014 7.21278 2 8M2.46 10.2933C2.76133 11.0213 3.20306 11.6828 3.76 12.24M5.70667 13.54C6.43353 13.8423 7.21278 13.9986 8 14M10.2933 13.54C11.0213 13.2387 11.6828 12.7969 12.24 12.24M13.54 10.2933C13.8423 9.56647 13.9986 8.78722 14 8M13.54 5.70667C13.2387 4.97872 12.7969 4.31725 12.24 3.76M10.2933 2.46C9.56647 2.1577 8.78722 2.0014 8 2" stroke="#646464" stroke-width="1.2" stroke-linecap="round" stroke-linejoin="round"/>
</svg>
