<svg width="80" height="24" viewBox="0 0 80 24" fill="none" xmlns="http://www.w3.org/2000/svg">
<path d="M0.888916 5.33333C0.888916 2.38782 3.27673 0 6.22225 0H74.5556C77.5011 0 79.8889 2.38781 79.8889 5.33333V18.6667C79.8889 21.6122 77.5011 24 74.5556 24H6.22225C3.27674 24 0.888916 21.6122 0.888916 18.6667V5.33333Z" fill="#CE2C31"/>
<circle cx="12.8889" cy="12" r="4" fill="#FFF7F7"/>
<path d="M22.1769 7.06H23.3809V17H22.1769V7.06ZM25.5773 9.58H26.6553L26.6833 10.91C26.8699 10.4153 27.1639 10.042 27.5653 9.79C27.9666 9.538 28.4333 9.412 28.9653 9.412C29.7773 9.412 30.3979 9.67333 30.8273 10.196C31.2566 10.7187 31.4713 11.3953 31.4713 12.226V17H30.2953V12.562C30.2953 11.862 30.1693 11.3347 29.9173 10.98C29.6653 10.6253 29.2639 10.448 28.7133 10.448C28.1253 10.448 27.6493 10.6347 27.2853 11.008C26.9306 11.372 26.7533 11.89 26.7533 12.562V17H25.5773V9.58ZM35.6193 17.168C34.8447 17.168 34.2333 16.9907 33.7853 16.636C33.3373 16.2813 33.1133 15.7867 33.1133 15.152C33.1133 14.5173 33.3 14.018 33.6733 13.654C34.0467 13.29 34.6393 13.0333 35.4513 12.884L38.0833 12.394C38.0833 11.1527 37.4953 10.532 36.3193 10.532C35.33 10.532 34.7187 10.9753 34.4853 11.862L33.2393 11.764C33.3793 11.0453 33.72 10.476 34.2613 10.056C34.812 9.62667 35.498 9.412 36.3193 9.412C37.262 9.412 37.9853 9.678 38.4893 10.21C39.0027 10.742 39.2593 11.484 39.2593 12.436V15.502C39.2593 15.67 39.2873 15.7913 39.3433 15.866C39.4087 15.9313 39.5113 15.964 39.6513 15.964H39.9453V17C39.8333 17.0187 39.684 17.028 39.4973 17.028C39.0493 17.028 38.7133 16.9347 38.4893 16.748C38.2747 16.5613 38.144 16.2627 38.0973 15.852C37.9107 16.2347 37.584 16.552 37.1173 16.804C36.66 17.0467 36.1607 17.168 35.6193 17.168ZM35.7313 16.132C36.4593 16.132 37.0333 15.9267 37.4533 15.516C37.8733 15.1053 38.0833 14.5827 38.0833 13.948V13.416L35.6753 13.864C35.19 13.948 34.8447 14.088 34.6393 14.284C34.4433 14.4707 34.3453 14.7227 34.3453 15.04C34.3453 15.3853 34.4667 15.656 34.7093 15.852C34.952 16.0387 35.2927 16.132 35.7313 16.132ZM44.363 17.168C43.6816 17.168 43.0843 17.0093 42.571 16.692C42.0576 16.3747 41.661 15.922 41.381 15.334C41.101 14.746 40.961 14.0647 40.961 13.29C40.961 12.5153 41.101 11.834 41.381 11.246C41.661 10.658 42.0576 10.2053 42.571 9.888C43.0843 9.57067 43.6816 9.412 44.363 9.412C45.2216 9.412 45.931 9.636 46.491 10.084C47.051 10.532 47.3916 11.1667 47.513 11.988L46.281 12.072C46.197 11.5867 45.9823 11.2087 45.637 10.938C45.301 10.6673 44.8763 10.532 44.363 10.532C43.6816 10.532 43.1496 10.7747 42.767 11.26C42.3843 11.7453 42.193 12.422 42.193 13.29C42.193 14.158 42.3843 14.8347 42.767 15.32C43.1496 15.8053 43.6816 16.048 44.363 16.048C44.8763 16.048 45.301 15.908 45.637 15.628C45.9823 15.3387 46.197 14.9187 46.281 14.368L47.513 14.452C47.3823 15.2827 47.037 15.9453 46.477 16.44C45.917 16.9253 45.2123 17.168 44.363 17.168ZM51.4398 17C50.7678 17 50.2684 16.846 49.9418 16.538C49.6244 16.23 49.4658 15.7493 49.4658 15.096V10.616H48.3738V9.58H49.4658V7.844H50.6418V9.58H52.6158V10.616H50.6418V15.068C50.6418 15.3947 50.7118 15.628 50.8518 15.768C51.0011 15.8987 51.2344 15.964 51.5518 15.964H52.6158V17H51.4398ZM54.2472 9.58H55.4232V17H54.2472V9.58ZM54.2192 7.046H55.4512V8.418H54.2192V7.046ZM56.8532 9.58H58.1412L60.2972 15.796L62.4532 9.58H63.7412L61.0392 17H59.5552L56.8532 9.58ZM67.7556 17.168C67.0649 17.168 66.4629 17.0093 65.9496 16.692C65.4362 16.3747 65.0396 15.9267 64.7596 15.348C64.4889 14.76 64.3536 14.074 64.3536 13.29C64.3536 12.5153 64.4889 11.834 64.7596 11.246C65.0396 10.658 65.4316 10.2053 65.9356 9.888C66.4396 9.57067 67.0276 9.412 67.6996 9.412C68.3436 9.412 68.9129 9.566 69.4076 9.874C69.9022 10.1727 70.2849 10.616 70.5556 11.204C70.8356 11.792 70.9756 12.492 70.9756 13.304V13.654H65.5856C65.6229 14.438 65.8282 15.0353 66.2016 15.446C66.5842 15.8473 67.1022 16.048 67.7556 16.048C68.2316 16.048 68.6236 15.9407 68.9316 15.726C69.2489 15.502 69.4729 15.194 69.6036 14.802L70.8636 14.9C70.6676 15.5813 70.2896 16.132 69.7296 16.552C69.1789 16.9627 68.5209 17.168 67.7556 17.168ZM69.6876 12.618C69.6316 11.9273 69.4262 11.4093 69.0716 11.064C68.7262 10.7093 68.2689 10.532 67.6996 10.532C67.1209 10.532 66.6449 10.7093 66.2716 11.064C65.9076 11.4187 65.6789 11.9367 65.5856 12.618H69.6876Z" fill="#FFF7F7"/>
</svg>
