<svg width="16" height="16" viewBox="0 0 16 16" fill="none" xmlns="http://www.w3.org/2000/svg">
<path d="M8 1.5C6.71442 1.5 5.45772 1.88122 4.3888 2.59545C3.31988 3.30968 2.48676 4.32484 1.99479 5.51256C1.50282 6.70028 1.37409 8.00721 1.6249 9.26809C1.8757 10.529 2.49477 11.6872 3.40381 12.5962C4.31285 13.5052 5.47104 14.1243 6.73192 14.3751C7.99279 14.6259 9.29973 14.4972 10.4874 14.0052C11.6752 13.5132 12.6903 12.6801 13.4046 11.6112C14.1188 10.5423 14.5 9.28558 14.5 8C14.4981 6.27669 13.8126 4.62452 12.594 3.40596C11.3755 2.1874 9.72331 1.50195 8 1.5ZM7.87504 4.50002C8.02337 4.50002 8.16838 4.54401 8.29171 4.62642C8.41505 4.70883 8.51118 4.82597 8.56795 4.96301C8.62471 5.10006 8.63956 5.25086 8.61063 5.39634C8.58169 5.54183 8.51026 5.67546 8.40537 5.78035C8.30048 5.88524 8.16684 5.95667 8.02135 5.98561C7.87587 6.01455 7.72507 5.9997 7.58802 5.94293C7.45098 5.88617 7.33385 5.79004 7.25143 5.6667C7.16902 5.54336 7.12504 5.39836 7.12504 5.25002C7.12504 5.05111 7.20405 4.86035 7.34471 4.71969C7.48536 4.57904 7.67612 4.50002 7.87504 4.50002ZM8.50001 11.5H8.00001C7.8674 11.5 7.74023 11.4473 7.64646 11.3535C7.55269 11.2598 7.50001 11.1326 7.50001 11V8C7.3674 8 7.24022 7.94732 7.14645 7.85355C7.05268 7.75979 7.00001 7.63261 7.00001 7.5C7.00001 7.36739 7.05268 7.24021 7.14645 7.14645C7.24022 7.05268 7.3674 7 7.50001 7H8.00001C8.13261 7.00001 8.25979 7.05269 8.35355 7.14645C8.44732 7.24022 8.5 7.36739 8.50001 7.5V10.5C8.63261 10.5 8.75979 10.5527 8.85356 10.6464C8.94733 10.7402 9.00001 10.8674 9.00001 11C9.00001 11.1326 8.94733 11.2598 8.85356 11.3536C8.75979 11.4473 8.63261 11.5 8.50001 11.5Z" fill="#A8A8A8"/>
</svg>
