<svg width="24" height="24" viewBox="0 0 24 24" fill="none" xmlns="http://www.w3.org/2000/svg">
<path d="M5.67683 1.99986C5.53143 2.00009 5.38939 2.04363 5.26885 2.12493C5.1483 2.20624 5.05472 2.32161 5.00003 2.45634C4.94534 2.59106 4.93204 2.73902 4.96181 2.88134C4.99158 3.02366 5.06308 3.15388 5.16718 3.25539L11.4849 9.57404C11.5523 9.64425 11.633 9.70031 11.7224 9.73893C11.8117 9.77755 11.9079 9.79795 12.0052 9.79894C12.1026 9.79993 12.1991 9.78149 12.2892 9.7447C12.3793 9.7079 12.4612 9.6535 12.53 9.58467C12.5989 9.51584 12.6533 9.43397 12.6901 9.34386C12.7269 9.25374 12.7453 9.15719 12.7443 9.05985C12.7433 8.96252 12.7229 8.86636 12.6843 8.77701C12.6457 8.68766 12.5896 8.60692 12.5194 8.5395L10.2055 6.22467C10.8609 6.01399 11.5587 5.89697 12.2813 5.89697C16.0466 5.89697 19.1095 8.95995 19.1095 12.7253C19.1095 16.4906 16.0466 19.5535 12.2813 19.5535C8.51594 19.5535 5.45296 16.4906 5.45296 12.7253C5.45296 10.7694 6.27743 9.004 7.59919 7.76027L6.56942 6.73146C6.28419 7.00181 6.02598 7.29773 5.78161 7.60595L4.75089 6.57523C4.37046 6.19479 4.37046 5.57533 4.75089 5.1949C4.79967 5.14613 4.85347 5.10234 4.90712 5.0682L4.13074 4.29278C4.04295 4.20499 3.96088 4.10657 3.89259 4.00414C3.83406 4.04804 3.77489 4.10184 3.71636 4.16037C3.25789 4.61884 3 5.234 3 5.88268C3 6.53625 3.25789 7.15034 3.71636 7.60881L4.96142 8.85386C4.34493 10.0107 3.98976 11.3265 3.98976 12.7253C3.98976 14.1248 4.34112 15.4435 4.95666 16.6014L3.71636 17.8408C3.71636 17.8411 3.71636 17.8414 3.71636 17.8417C2.77009 18.788 2.77009 20.3439 3.71636 21.2902C4.66263 22.2364 6.21853 22.2364 7.1648 21.2902L8.40509 20.0499C9.56297 20.6654 10.8817 21.0168 12.2813 21.0168C13.6808 21.0168 14.9995 20.6654 16.1574 20.0499L17.3968 21.2902C17.3971 21.2902 17.3974 21.2902 17.3977 21.2902C18.344 22.2364 19.8999 22.2364 20.8461 21.2902C21.7924 20.3439 21.7924 18.788 20.8461 17.8417L19.6058 16.6014C20.2214 15.4435 20.5727 14.1248 20.5727 12.7253C20.5727 11.3257 20.2214 10.007 19.6058 8.8491L20.8461 7.60976C20.8461 7.60944 20.8461 7.60912 20.8461 7.60881C21.7924 6.66254 21.7924 5.10664 20.8461 4.16037C20.373 3.68726 19.7476 3.45068 19.1219 3.45068C18.4963 3.45068 17.8708 3.68723 17.3977 4.16037L16.1574 5.40066C14.9995 4.78513 13.6808 4.43377 12.2813 4.43377C11.1456 4.43377 10.0597 4.66869 9.07001 5.09011L6.20171 2.22086C6.13344 2.15081 6.05181 2.09515 5.96165 2.05719C5.8715 2.01923 5.77465 1.99974 5.67683 1.99986ZM19.1219 4.90435C19.37 4.90435 19.618 5.0013 19.8116 5.1949C20.1988 5.5821 20.1988 6.18708 19.8116 6.57428L18.7847 7.60023C18.3801 7.08799 17.9185 6.62541 17.4063 6.22086L18.4322 5.1949C18.6258 5.0013 18.8739 4.90435 19.1219 4.90435ZM9.11097 11.7498C9.01403 11.7484 8.91778 11.7663 8.82781 11.8025C8.73785 11.8386 8.65597 11.8923 8.58693 11.9604C8.51789 12.0284 8.46306 12.1096 8.42564 12.199C8.38822 12.2884 8.36895 12.3844 8.36895 12.4814C8.36895 12.5783 8.38822 12.6743 8.42564 12.7638C8.46306 12.8532 8.51789 12.9343 8.58693 13.0024C8.65597 13.0705 8.73785 13.1242 8.82781 13.1603C8.91778 13.1965 9.01403 13.2144 9.11097 13.213H15.4515C15.5485 13.2144 15.6447 13.1965 15.7347 13.1603C15.8247 13.1242 15.9065 13.0705 15.9756 13.0024C16.0446 12.9343 16.0994 12.8532 16.1369 12.7638C16.1743 12.6743 16.1935 12.5783 16.1935 12.4814C16.1935 12.3844 16.1743 12.2884 16.1369 12.199C16.0994 12.1096 16.0446 12.0284 15.9756 11.9604C15.9065 11.8923 15.8247 11.8386 15.7347 11.8025C15.6447 11.7663 15.5485 11.7484 15.4515 11.7498H9.11097ZM9.11097 14.6762C9.01403 14.6748 8.91778 14.6927 8.82781 14.7289C8.73785 14.765 8.65597 14.8187 8.58693 14.8868C8.51789 14.9549 8.46306 15.036 8.42564 15.1254C8.38822 15.2149 8.36895 15.3108 8.36895 15.4078C8.36895 15.5048 8.38822 15.6007 8.42564 15.6902C8.46306 15.7796 8.51789 15.8607 8.58693 15.9288C8.65597 15.9969 8.73785 16.0506 8.82781 16.0867C8.91778 16.1229 9.01403 16.1408 9.11097 16.1394H12.5251C12.6221 16.1408 12.7183 16.1229 12.8083 16.0867C12.8982 16.0506 12.9801 15.9969 13.0492 15.9288C13.1182 15.8607 13.173 15.7796 13.2105 15.6902C13.2479 15.6007 13.2671 15.5048 13.2671 15.4078C13.2671 15.3108 13.2479 15.2149 13.2105 15.1254C13.173 15.036 13.1182 14.9549 13.0492 14.8868C12.9801 14.8187 12.8982 14.765 12.8083 14.7289C12.7183 14.6927 12.6221 14.6748 12.5251 14.6762H9.11097ZM5.7778 17.8503C6.18239 18.3625 6.64395 18.8251 7.15623 19.2297L6.13027 20.2556C5.74307 20.6428 5.13809 20.6428 4.75089 20.2556C4.3637 19.8684 4.3637 19.2634 4.75089 18.8762L5.7778 17.8503ZM18.7857 17.8503L19.8116 18.8762C20.1988 19.2634 20.1988 19.8684 19.8116 20.2556C19.4244 20.6428 18.8194 20.6428 18.4322 20.2556L17.4063 19.2287C17.9185 18.8241 18.3811 18.3626 18.7857 17.8503Z" fill="#A6A6A6"/>
</svg>
