<svg width="16" height="16" viewBox="0 0 24 24" fill="none" xmlns="http://www.w3.org/2000/svg">
<path d="M10.25 1.99994C10.0511 1.99996 9.86034 2.07898 9.71969 2.21963C9.57904 2.36028 9.50002 2.55103 9.5 2.74994V3.04779C9.5 3.53152 9.21287 3.96082 8.76562 4.14545C8.74899 4.1524 8.72595 4.16274 8.72754 4.16205L8.73926 4.15619C8.2876 4.3443 7.78123 4.24571 7.4375 3.90228L7.22656 3.69232C7.0859 3.55172 6.89517 3.47274 6.69629 3.47274C6.49741 3.47274 6.30667 3.55172 6.16602 3.69232L3.69141 6.16693C3.55081 6.30759 3.47182 6.49833 3.47182 6.6972C3.47182 6.89608 3.55081 7.08682 3.69141 7.22748L3.90137 7.43842C4.2443 7.78135 4.34316 8.28936 4.15527 8.74017C4.15408 8.74302 4.15028 8.7534 4.15137 8.75092C4.14903 8.7561 4.14675 8.76131 4.14453 8.76654C3.96092 9.21249 3.53158 9.49994 3.04785 9.49994H2.75C2.55109 9.49996 2.36034 9.57898 2.21969 9.71963C2.07904 9.86028 2.00002 10.051 2 10.2499V13.7499C2.00002 13.9488 2.07904 14.1396 2.21969 14.2802C2.36034 14.4209 2.55109 14.4999 2.75 14.4999H3.04785C3.53158 14.4999 3.96088 14.7871 4.14551 15.2343C4.15247 15.2509 4.16281 15.274 4.16211 15.2724L4.15625 15.2607C4.34436 15.7123 4.24543 16.2193 3.90234 16.5624L3.69238 16.7724C3.55178 16.9131 3.4728 17.1038 3.4728 17.3027C3.4728 17.5016 3.55178 17.6923 3.69238 17.8329L6.16699 20.3085C6.30765 20.4491 6.49839 20.5281 6.69727 20.5281C6.89614 20.5281 7.08688 20.4491 7.22754 20.3085L7.43848 20.0976C7.78117 19.7549 8.28868 19.6563 8.73926 19.8437H8.74023C8.74338 19.845 8.75354 19.8497 8.75098 19.8486C8.75584 19.8506 8.76072 19.8525 8.76562 19.8544C9.21287 20.0391 9.50098 20.4684 9.50098 20.9521V21.2499C9.501 21.4488 9.58002 21.6396 9.72067 21.7802C9.86132 21.9209 10.0521 21.9999 10.251 21.9999H13.751C13.9499 21.9999 14.1406 21.9209 14.2813 21.7802C14.4219 21.6396 14.501 21.4488 14.501 21.2499V20.9521C14.501 20.4684 14.7881 20.0391 15.2354 19.8544C15.2433 19.8512 15.2579 19.8451 15.2607 19.8437C15.7124 19.6556 16.2194 19.7545 16.5625 20.0976L16.7734 20.3076C16.9141 20.4482 17.1048 20.5271 17.3037 20.5271C17.5026 20.5271 17.6933 20.4482 17.834 20.3076L20.3086 17.8329C20.4492 17.6923 20.5282 17.5016 20.5282 17.3027C20.5282 17.1038 20.4492 16.9131 20.3086 16.7724L20.0986 16.5615C19.7557 16.2185 19.6568 15.7105 19.8447 15.2597C19.8459 15.2569 19.8497 15.2465 19.8486 15.249C19.851 15.2441 19.8532 15.2392 19.8555 15.2343C20.0401 14.7871 20.4694 14.499 20.9531 14.499C20.9531 14.499 21.1355 14.5174 21.25 14.499C21.465 14.4644 21.5948 14.4038 21.749 14.2501C21.9038 14.0958 21.9998 13.9685 22 13.7499V13.749V10.2499C22 10.051 21.921 9.86028 21.7803 9.71963C21.6397 9.57898 21.4489 9.49996 21.25 9.49994H20.9521C20.4684 9.49994 20.0391 9.21281 19.8545 8.76556C19.8475 8.74893 19.8372 8.72589 19.8379 8.72748L19.8438 8.7392C19.6556 8.28754 19.7546 7.78053 20.0977 7.43744L20.3076 7.22748C20.4482 7.08682 20.5272 6.89608 20.5272 6.6972C20.5272 6.49833 20.4482 6.30759 20.3076 6.16693L17.833 3.69135C17.6923 3.55075 17.5016 3.47176 17.3027 3.47176C17.1039 3.47176 16.9131 3.55075 16.7725 3.69135L16.5615 3.90228C16.2186 4.24521 15.7113 4.34425 15.2598 4.15619C15.2559 4.15456 15.2453 4.1501 15.248 4.15131C15.2432 4.1493 15.2383 4.14735 15.2334 4.14545C14.7876 3.96147 14.5 3.53152 14.5 3.04779V2.74994C14.5 2.55103 14.421 2.36028 14.2803 2.21963C14.1397 2.07898 13.9489 1.99996 13.75 1.99994H10.25ZM10.8623 3.49994H13.1377C13.3005 4.38543 13.8092 5.17836 14.6592 5.53021C14.6623 5.53151 14.6725 5.5362 14.6699 5.53509C14.6741 5.53709 14.6784 5.53904 14.6826 5.54095C15.6861 5.95889 16.5317 6.05323 17.3027 5.28217L18.8145 6.79486C18.3025 7.53902 18.1052 8.4632 18.459 9.31439C18.4606 9.31929 18.4622 9.32417 18.4639 9.32904C18.4652 9.33198 18.4665 9.33491 18.4678 9.33783C18.8194 10.1897 19.6135 10.6992 20.5 10.8622V13.1367C19.6139 13.3 18.8203 13.8105 18.4688 14.662C18.468 14.6637 18.4639 14.6729 18.4648 14.6708C18.4632 14.6747 18.4616 14.6786 18.46 14.6826C18.105 15.5342 18.3037 16.4592 18.8164 17.204L17.2051 18.8154C16.4603 18.3029 15.5363 18.1042 14.6846 18.4589C14.6803 18.4605 14.6761 18.4621 14.6719 18.4638C14.6689 18.4651 14.666 18.4664 14.6631 18.4677C13.8112 18.8194 13.3017 19.6135 13.1387 20.4999H10.8633C10.7004 19.6144 10.1903 18.8218 9.33984 18.4697C9.33669 18.4684 9.32654 18.4637 9.3291 18.4648C9.32521 18.4628 9.32131 18.4608 9.31738 18.4589C8.46548 18.1039 7.53989 18.3023 6.79492 18.8154L5.2832 17.3027C6.05363 16.5322 5.95785 15.6884 5.54102 14.6855C5.53944 14.6806 5.53781 14.6757 5.53613 14.6708C5.53485 14.6679 5.53355 14.665 5.53223 14.662C5.18056 13.8102 4.38648 13.3007 3.5 13.1376V10.8622C4.38652 10.6992 5.18041 10.19 5.53125 9.33783C5.53195 9.33613 5.53606 9.32695 5.53516 9.32904C5.53682 9.32515 5.53844 9.32124 5.54004 9.31732C5.895 8.46565 5.69627 7.54073 5.18359 6.79584L6.79395 5.18549C7.53844 5.69788 8.46288 5.89488 9.31445 5.54095C9.31935 5.53938 9.32423 5.53775 9.3291 5.53607C9.33204 5.53479 9.33497 5.53349 9.33789 5.53217C10.1898 5.18051 10.6993 4.38642 10.8623 3.49994ZM12 5.99994C8.69517 5.99994 6 8.69511 6 11.9999C6 15.3048 8.69517 17.9999 12 17.9999C15.3048 17.9999 18 15.3048 18 11.9999C18 8.69511 15.3048 5.99994 12 5.99994ZM11.25 7.56634V9.65424C10.8071 9.78641 10.4049 9.98609 10.127 10.2988C9.69783 10.7815 9.5 11.3958 9.5 11.9999C9.5 12.1829 9.55459 12.362 9.5918 12.5429L7.78711 13.5771C7.60429 13.0861 7.5 12.5564 7.5 11.9999C7.5 9.76204 9.11652 7.92181 11.25 7.56634ZM12.75 7.56634C14.8835 7.92181 16.5 9.76204 16.5 11.9999C16.5 12.5568 16.395 13.0868 16.2119 13.5781L14.4072 12.5468C14.445 12.3647 14.5 12.1842 14.5 11.9999C14.5 11.3958 14.3022 10.7815 13.873 10.2988C13.5951 9.98609 13.1929 9.78641 12.75 9.65424V7.56634ZM12 10.9999C12.3958 10.9999 12.5977 11.1214 12.752 11.2949C12.9062 11.4683 13 11.7291 13 11.9999C13 12.2708 12.9062 12.5315 12.752 12.705C12.5977 12.8785 12.3958 12.9999 12 12.9999C11.6042 12.9999 11.4023 12.8785 11.248 12.705C11.0938 12.5315 11 12.2708 11 11.9999C11 11.7291 11.0938 11.4683 11.248 11.2949C11.4023 11.1214 11.6042 10.9999 12 10.9999ZM10.3311 13.8476C10.7578 14.2305 11.3265 14.4999 12 14.4999C12.6713 14.4999 13.2376 14.2313 13.6641 13.8505L15.4639 14.8788C14.6399 15.8704 13.3967 16.4999 12 16.4999C10.6028 16.4999 9.3591 15.87 8.53516 14.8779L10.3311 13.8476Z" fill="#242424"/>
</svg>
