<svg width="12" height="12" viewBox="0 0 12 12" fill="none" xmlns="http://www.w3.org/2000/svg">
<path d="M7.25 5.6293C7.25 6.14848 7.09605 6.656 6.80761 7.08767C6.51917 7.51935 6.1092 7.85581 5.62954 8.05449C5.14989 8.25317 4.62209 8.30515 4.11289 8.20386C3.60369 8.10258 3.13596 7.85257 2.76885 7.48546C2.40173 7.11834 2.15173 6.65061 2.05044 6.14141C1.94915 5.63221 2.00114 5.10441 2.19982 4.62476C2.3985 4.1451 2.73495 3.73513 3.16663 3.4467C3.59831 3.15826 4.10582 3.0043 4.625 3.0043" stroke="current" stroke-linecap="round" stroke-linejoin="round"/>
<path d="M7.63417 8.24531C8.15335 8.24441 8.66059 8.08956 9.09177 7.80037C9.52294 7.51118 9.85868 7.10062 10.0565 6.62062C10.2544 6.14062 10.3054 5.61273 10.2032 5.10371C10.1011 4.59468 9.85025 4.12739 9.48249 3.76092C9.11474 3.39445 8.64657 3.14526 8.1372 3.04486C7.62782 2.94447 7.10011 2.99738 6.6208 3.19689C6.14149 3.39641 5.73211 3.73358 5.44443 4.16576C5.15675 4.59795 5.00368 5.10573 5.00459 5.62491" stroke="current" stroke-linecap="round" stroke-linejoin="round"/>
</svg>
