<svg width="16" height="16" viewBox="0 0 24 24" fill="none" xmlns="http://www.w3.org/2000/svg">
<mask id="path-1-inside-1_43978_125117" fill="white">
<path d="M5.1702 2.50012C3.98236 2.50012 2.98722 3.44256 2.92313 4.62903L2.08524 20.129C2.01681 21.4069 3.05326 22.5001 4.33328 22.5001H7.16629C8.44606 22.5001 9.48179 21.4069 9.41336 20.129L8.57547 4.62903C8.57547 4.6287 8.57547 4.62838 8.57547 4.62805C8.51066 3.44218 7.51624 2.50012 6.3284 2.50012H5.1702ZM5.1702 4.00012H6.3284C6.73456 4.00012 7.05523 4.30395 7.07742 4.71008L7.91531 20.2091C7.93889 20.6493 7.60652 21.0001 7.16629 21.0001H4.33328C3.89265 21.0001 3.56028 20.6498 3.58328 20.2101V20.2091L4.42117 4.71008C4.42117 4.70976 4.42117 4.70943 4.42117 4.70911C4.44308 4.30357 4.76404 4.00012 5.1702 4.00012ZM14.3421 5.50598C14.1279 5.47924 13.9084 5.54604 13.7434 5.69641L9.82742 9.26672L9.93192 11.2013L13.4993 7.94836V12.2501C13.4993 12.5431 13.6698 12.8088 13.9358 12.9308C14.2023 13.0538 14.5151 13.011 14.7376 12.8195L20.4993 7.88098V20.2501C20.4993 20.6636 20.1628 21.0001 19.7493 21.0001H18.9993V17.2501C18.9993 16.0164 17.983 15.0001 16.7493 15.0001H13.2493C12.0155 15.0001 10.9993 16.0164 10.9993 17.2501V21.0001H10.3245C10.1925 21.5521 9.92117 22.068 9.52567 22.4855C9.52067 22.4905 9.51504 22.4951 9.51004 22.5001H11.7493H18.2493H19.7493C20.9898 22.5001 21.9993 21.4906 21.9993 20.2501V6.25012C21.9993 5.95712 21.8288 5.69098 21.5628 5.56848C21.2968 5.44548 20.9835 5.49029 20.761 5.68079L14.9993 10.6193V6.25012C14.9993 5.95312 14.8235 5.68458 14.552 5.56458C14.4839 5.53458 14.4135 5.5149 14.3421 5.50598ZM13.2493 16.5001H16.7493C17.1725 16.5001 17.4993 16.8269 17.4993 17.2501V21.0001H12.4993V17.2501C12.4993 16.8269 12.826 16.5001 13.2493 16.5001Z"/>
</mask>
<path d="M5.1702 2.50012C3.98236 2.50012 2.98722 3.44256 2.92313 4.62903L2.08524 20.129C2.01681 21.4069 3.05326 22.5001 4.33328 22.5001H7.16629C8.44606 22.5001 9.48179 21.4069 9.41336 20.129L8.57547 4.62903C8.57547 4.6287 8.57547 4.62838 8.57547 4.62805C8.51066 3.44218 7.51624 2.50012 6.3284 2.50012H5.1702ZM5.1702 4.00012H6.3284C6.73456 4.00012 7.05523 4.30395 7.07742 4.71008L7.91531 20.2091C7.93889 20.6493 7.60652 21.0001 7.16629 21.0001H4.33328C3.89265 21.0001 3.56028 20.6498 3.58328 20.2101V20.2091L4.42117 4.71008C4.42117 4.70976 4.42117 4.70943 4.42117 4.70911C4.44308 4.30357 4.76404 4.00012 5.1702 4.00012ZM14.3421 5.50598C14.1279 5.47924 13.9084 5.54604 13.7434 5.69641L9.82742 9.26672L9.93192 11.2013L13.4993 7.94836V12.2501C13.4993 12.5431 13.6698 12.8088 13.9358 12.9308C14.2023 13.0538 14.5151 13.011 14.7376 12.8195L20.4993 7.88098V20.2501C20.4993 20.6636 20.1628 21.0001 19.7493 21.0001H18.9993V17.2501C18.9993 16.0164 17.983 15.0001 16.7493 15.0001H13.2493C12.0155 15.0001 10.9993 16.0164 10.9993 17.2501V21.0001H10.3245C10.1925 21.5521 9.92117 22.068 9.52567 22.4855C9.52067 22.4905 9.51504 22.4951 9.51004 22.5001H11.7493H18.2493H19.7493C20.9898 22.5001 21.9993 21.4906 21.9993 20.2501V6.25012C21.9993 5.95712 21.8288 5.69098 21.5628 5.56848C21.2968 5.44548 20.9835 5.49029 20.761 5.68079L14.9993 10.6193V6.25012C14.9993 5.95312 14.8235 5.68458 14.552 5.56458C14.4839 5.53458 14.4135 5.5149 14.3421 5.50598ZM13.2493 16.5001H16.7493C17.1725 16.5001 17.4993 16.8269 17.4993 17.2501V21.0001H12.4993V17.2501C12.4993 16.8269 12.826 16.5001 13.2493 16.5001Z" fill="black"/>
<path d="M2.92313 4.62903L73.8196 8.46151L73.8198 8.45888L2.92313 4.62903ZM2.08524 20.129L-68.8113 16.2965L-68.8122 16.3145L-68.8132 16.3324L2.08524 20.129ZM9.41336 20.129L80.3118 16.3324L80.3108 16.3145L80.3098 16.2965L9.41336 20.129ZM8.57547 4.62903L-62.4245 4.58281L-62.4258 6.52358L-62.321 8.46151L8.57547 4.62903ZM8.57547 4.62805L79.5755 4.58183L79.5742 2.66639L79.4697 0.753792L8.57547 4.62805ZM7.07742 4.71008L77.9739 0.877358L77.9728 0.856584L77.9716 0.83581L7.07742 4.71008ZM7.91531 20.2091L78.8137 16.4124L78.8128 16.3944L78.8118 16.3764L7.91531 20.2091ZM3.58328 20.2101L74.4863 23.9196L74.5833 22.0661V20.2101H3.58328ZM3.58328 20.2091L-67.3132 16.3764L-67.4167 18.2913V20.2091H3.58328ZM4.42117 4.71008L75.3176 8.54281L75.4199 6.65094L75.4212 4.7563L4.42117 4.71008ZM4.42117 4.70911L-66.4755 0.879282L-66.5801 2.81589L-66.5788 4.75533L4.42117 4.70911ZM14.3421 5.50598L5.54405 75.9588L5.54417 75.9588L14.3421 5.50598ZM13.7434 5.69641L-34.0816 -46.7799L-34.0918 -46.7706L13.7434 5.69641ZM9.82742 9.26672L-38.0078 -43.2003L-62.8849 -20.5193L-61.0692 13.0961L9.82742 9.26672ZM9.93192 11.2013L-60.9647 15.0306L-52.8877 164.569L57.771 63.6648L9.93192 11.2013ZM13.4993 7.94836H84.4993V-152.879L-34.3398 -44.5152L13.4993 7.94836ZM13.9358 12.9308L43.689 -51.5343L43.612 -51.5698L43.535 -51.6052L13.9358 12.9308ZM14.7376 12.8195L-31.4679 -41.0884L-31.523 -41.0411L-31.5781 -40.9938L14.7376 12.8195ZM20.4993 7.88098H91.4993V-146.486L-25.7061 -46.0269L20.4993 7.88098ZM18.9993 21.0001H-52.0007V92.0001H18.9993V21.0001ZM10.9993 21.0001V92.0001H81.9993V21.0001H10.9993ZM10.3245 21.0001V-49.9999H-45.699L-58.7286 4.48742L10.3245 21.0001ZM9.52567 22.4855L59.7302 72.6901L60.4094 72.0109L61.0699 71.3136L9.52567 22.4855ZM9.51004 22.5001L-40.6945 -27.7045L-161.899 93.5001L9.51004 93.5001V22.5001ZM21.5628 5.56848L-8.23644 70.0123L-8.18651 70.0354L-8.13654 70.0584L21.5628 5.56848ZM20.761 5.68079L-25.4153 -48.252L-25.4299 -48.2396L-25.4444 -48.2271L20.761 5.68079ZM14.9993 10.6193H-56.0007V164.986L61.2047 64.5271L14.9993 10.6193ZM14.552 5.56458L43.2546 -59.3751L43.2106 -59.3946L43.1664 -59.414L14.552 5.56458ZM17.4993 21.0001V92.0001H88.4993V21.0001H17.4993ZM12.4993 21.0001H-58.5007V92.0001H12.4993V21.0001ZM5.1702 -68.4999C-33.7323 -68.4999 -65.874 -38.0658 -67.9735 0.799182L73.8198 8.45888C71.8485 44.9509 41.697 73.5001 5.1702 73.5001V-68.4999ZM-67.9734 0.796544L-68.8113 16.2965L72.9817 23.9615L73.8196 8.46151L-67.9734 0.796544ZM-68.8132 16.3324C-71.059 58.2707 -37.6359 93.5001 4.33328 93.5001V-48.4999C43.7425 -48.4999 75.0926 -15.4569 72.9837 23.9257L-68.8132 16.3324ZM4.33328 93.5001H7.16629V-48.4999H4.33328V93.5001ZM7.16629 93.5001C49.1708 93.5001 82.5557 58.2352 80.3118 16.3324L-61.4851 23.9257C-63.5921 -15.4215 -32.2787 -48.4999 7.16629 -48.4999V93.5001ZM80.3098 16.2965L79.472 0.796544L-62.321 8.46151L-61.4831 23.9615L80.3098 16.2965ZM79.5755 4.67525C79.5755 4.64411 79.5755 4.61297 79.5755 4.58183L-62.4245 4.67427C-62.4245 4.64378 -62.4245 4.6133 -62.4245 4.58281L79.5755 4.67525ZM79.4697 0.753792C77.3483 -38.0658 45.2401 -68.4999 6.3284 -68.4999V73.5001C-30.2076 73.5001 -60.3269 44.9502 -62.3187 8.50231L79.4697 0.753792ZM6.3284 -68.4999H5.1702V73.5001H6.3284V-68.4999ZM5.1702 75.0001H6.3284V-66.9999H5.1702V75.0001ZM6.3284 75.0001C-31.0339 75.0001 -61.7848 45.7674 -63.8168 8.58436L77.9716 0.83581C75.8952 -37.1595 44.503 -66.9999 6.3284 -66.9999V75.0001ZM-63.8191 8.54281L-62.9812 24.0418L78.8118 16.3764L77.9739 0.877358L-63.8191 8.54281ZM-62.9831 24.0058C-65.1328 -16.1381 -33.1592 -49.9999 7.16629 -49.9999V92.0001C48.3723 92.0001 81.0106 57.4366 78.8137 16.4124L-62.9831 24.0058ZM7.16629 -49.9999H4.33328V92.0001H7.16629V-49.9999ZM4.33328 -49.9999C44.5573 -49.9999 76.5884 -16.2595 74.4863 23.9196L-67.3197 16.5005C-69.4679 57.559 -36.772 92.0001 4.33328 92.0001V-49.9999ZM74.5833 20.2101V20.2091H-67.4167V20.2101H74.5833ZM74.4798 24.0418L75.3176 8.54281L-66.4753 0.877358L-67.3132 16.3764L74.4798 24.0418ZM75.4212 4.7563C75.4212 4.72516 75.4212 4.69403 75.4212 4.66289L-66.5788 4.75533C-66.5788 4.72484 -66.5788 4.69435 -66.5788 4.66386L75.4212 4.7563ZM75.3178 8.53893C73.3003 45.8864 42.4041 75.0001 5.1702 75.0001V-66.9999C-32.876 -66.9999 -64.4141 -37.2792 -66.4755 0.879282L75.3178 8.53893ZM23.1401 -64.9468C2.62023 -67.5093 -18.363 -61.1053 -34.0816 -46.7799L61.5685 58.1728C46.1799 72.1974 25.6356 78.4678 5.54405 75.9588L23.1401 -64.9468ZM-34.0918 -46.7706L-38.0078 -43.2003L57.6627 61.7337L61.5787 58.1634L-34.0918 -46.7706ZM-61.0692 13.0961L-60.9647 15.0306L80.8286 7.37194L80.7241 5.43737L-61.0692 13.0961ZM57.771 63.6648L61.3384 60.4119L-34.3398 -44.5152L-37.9071 -41.2623L57.771 63.6648ZM-57.5007 7.94836V12.2501H84.4993V7.94836H-57.5007ZM-57.5007 12.2501C-57.5007 40.2949 -41.1603 65.7727 -15.6634 77.4667L43.535 -51.6052C68.4999 -40.1551 84.4993 -15.2087 84.4993 12.2501H-57.5007ZM-15.8173 77.3959C9.53105 89.0951 39.6065 85.0913 61.0532 66.6327L-31.5781 -40.9938C-10.5764 -59.0694 18.8736 -62.9876 43.689 -51.5343L-15.8173 77.3959ZM60.943 66.7273L66.7047 61.7888L-25.7061 -46.0269L-31.4679 -41.0884L60.943 66.7273ZM-50.5007 7.88098V20.2501H91.4993V7.88098H-50.5007ZM-50.5007 20.2501C-50.5007 -18.5486 -19.0494 -49.9999 19.7493 -49.9999V92.0001C59.375 92.0001 91.4993 59.8758 91.4993 20.2501H-50.5007ZM19.7493 -49.9999H18.9993V92.0001H19.7493V-49.9999ZM89.9993 21.0001V17.2501H-52.0007V21.0001H89.9993ZM89.9993 17.2501C89.9993 -23.1958 57.1953 -55.9999 16.7493 -55.9999V86.0001C-21.2292 86.0001 -52.0007 55.2286 -52.0007 17.2501H89.9993ZM16.7493 -55.9999H13.2493V86.0001H16.7493V-55.9999ZM13.2493 -55.9999C-27.1967 -55.9999 -60.0007 -23.1958 -60.0007 17.2501H81.9993C81.9993 55.2286 51.2278 86.0001 13.2493 86.0001V-55.9999ZM-60.0007 17.2501V21.0001H81.9993V17.2501H-60.0007ZM10.9993 -49.9999H10.3245V92.0001H10.9993V-49.9999ZM-58.7286 4.48742C-56.0878 -6.55582 -50.5595 -17.3267 -42.0186 -26.3427L61.0699 71.3136C70.4018 61.4627 76.4728 49.6601 79.3776 37.5128L-58.7286 4.48742ZM-40.6789 -27.7191C-40.4752 -27.9228 -40.2829 -28.1126 -40.1039 -28.2876C-39.9249 -28.4625 -39.7575 -28.6243 -39.6036 -28.7718C-39.4498 -28.9192 -39.3076 -29.0542 -39.1791 -29.1753C-39.0507 -29.2963 -38.9339 -29.4056 -38.8311 -29.5012C-38.7284 -29.5966 -38.6371 -29.681 -38.5602 -29.7518C-38.5216 -29.7873 -38.4859 -29.8201 -38.4538 -29.8495C-38.4216 -29.879 -38.3924 -29.9057 -38.3668 -29.9292C-38.3411 -29.9526 -38.3183 -29.9734 -38.2991 -29.9909C-38.28 -30.0083 -38.2636 -30.0232 -38.251 -30.0347C-38.2385 -30.0461 -38.2283 -30.0553 -38.2223 -30.0608C-38.2192 -30.0636 -38.2167 -30.0659 -38.2152 -30.0672C-38.2139 -30.0684 -38.2128 -30.0694 -38.2131 -30.0692C-38.2131 -30.0692 -38.2132 -30.0691 -38.2133 -30.069C-38.2134 -30.0689 -38.2136 -30.0687 -38.2138 -30.0685C-38.2142 -30.0681 -38.2149 -30.0675 -38.2157 -30.0667C-38.2174 -30.0652 -38.22 -30.0628 -38.2233 -30.0599C-38.2297 -30.0541 -38.2401 -30.0446 -38.253 -30.0329C-38.266 -30.0211 -38.2827 -30.0059 -38.3021 -29.9881C-38.3216 -29.9704 -38.3447 -29.9493 -38.3707 -29.9256C-38.3967 -29.9018 -38.4263 -29.8748 -38.4588 -29.845C-38.4913 -29.8152 -38.5272 -29.7822 -38.5662 -29.7464C-38.6437 -29.675 -38.7357 -29.59 -38.839 -29.4939C-38.9425 -29.3977 -39.06 -29.2879 -39.189 -29.1662C-39.3181 -29.0445 -39.461 -28.9089 -39.6155 -28.7609C-39.77 -28.6128 -39.938 -28.4504 -40.1177 -28.2748C-40.2973 -28.0992 -40.4902 -27.9088 -40.6945 -27.7045L59.7146 72.7047C59.5109 72.9084 59.3186 73.0982 59.1396 73.2732C58.9606 73.4481 58.7932 73.6099 58.6393 73.7574C58.4855 73.9048 58.3433 74.0398 58.2148 74.1609C58.0864 74.2819 57.9696 74.3912 57.8668 74.4867C57.7641 74.5822 57.6728 74.6666 57.5959 74.7374C57.5573 74.7729 57.5217 74.8057 57.4895 74.8351C57.4573 74.8646 57.4281 74.8913 57.4025 74.9148C57.3768 74.9382 57.354 74.959 57.3349 74.9765C57.3157 74.9939 57.2993 75.0088 57.2867 75.0203C57.2742 75.0317 57.264 75.0409 57.258 75.0464C57.2549 75.0492 57.2524 75.0514 57.2509 75.0528C57.2496 75.054 57.2485 75.055 57.2488 75.0548C57.2488 75.0548 57.2489 75.0547 57.249 75.0546C57.2491 75.0545 57.2493 75.0543 57.2495 75.0541C57.2499 75.0537 57.2506 75.0531 57.2514 75.0523C57.2531 75.0508 57.2557 75.0484 57.259 75.0455C57.2654 75.0397 57.2758 75.0302 57.2887 75.0185C57.3017 75.0067 57.3184 74.9915 57.3378 74.9737C57.3574 74.956 57.3805 74.9349 57.4064 74.9112C57.4325 74.8874 57.462 74.8604 57.4945 74.8306C57.527 74.8008 57.5629 74.7678 57.6019 74.732C57.6795 74.6606 57.7714 74.5756 57.8748 74.4795C57.9782 74.3833 58.0957 74.2735 58.2247 74.1518C58.3538 74.0301 58.4967 73.8945 58.6512 73.7465C58.8057 73.5984 58.9737 73.436 59.1534 73.2604C59.333 73.0848 59.5259 72.8944 59.7302 72.6901L-40.6789 -27.7191ZM9.51004 93.5001H11.7493V-48.4999H9.51004V93.5001ZM11.7493 93.5001H18.2493V-48.4999H11.7493V93.5001ZM18.2493 93.5001H19.7493V-48.4999H18.2493V93.5001ZM19.7493 93.5001C60.202 93.5001 92.9993 60.7028 92.9993 20.2501H-49.0007C-49.0007 -17.7216 -18.2224 -48.4999 19.7493 -48.4999V93.5001ZM92.9993 20.2501V6.25012H-49.0007V20.2501H92.9993ZM92.9993 6.25012C92.9993 -21.7637 76.6967 -47.2081 51.2621 -58.9214L-8.13654 70.0584C-33.0392 58.5901 -49.0007 33.6779 -49.0007 6.25012H92.9993ZM51.362 -58.8753C25.6387 -70.77 -4.3161 -66.3168 -25.4153 -48.252L66.9373 59.6136C46.2831 77.2973 16.9549 81.6609 -8.23644 70.0123L51.362 -58.8753ZM-25.4444 -48.2271L-31.2061 -43.2886L61.2047 64.5271L66.9665 59.5886L-25.4444 -48.2271ZM85.9993 10.6193V6.25012H-56.0007V10.6193H85.9993ZM85.9993 6.25012C85.9993 -22.2908 69.1164 -47.9445 43.2546 -59.3751L-14.1506 70.5042C-39.4693 59.3136 -56.0007 34.197 -56.0007 6.25012H85.9993ZM43.1664 -59.414C37.0304 -62.1161 30.2998 -64.0527 23.14 -64.9468L5.54417 75.9588C-1.47291 75.0825 -8.06262 73.1852 -14.0624 70.5431L43.1664 -59.414ZM13.2493 87.5001H16.7493V-54.4999H13.2493V87.5001ZM16.7493 87.5001C-22.0397 87.5001 -53.5007 56.0391 -53.5007 17.2501H88.4993C88.4993 -22.3853 56.3848 -54.4999 16.7493 -54.4999V87.5001ZM-53.5007 17.2501V21.0001H88.4993V17.2501H-53.5007ZM17.4993 -49.9999H12.4993V92.0001H17.4993V-49.9999ZM83.4993 21.0001V17.2501H-58.5007V21.0001H83.4993ZM83.4993 17.2501C83.4993 56.0391 52.0383 87.5001 13.2493 87.5001V-54.4999C-26.3862 -54.4999 -58.5007 -22.3853 -58.5007 17.2501H83.4993Z" fill="#101010" mask="url(#path-1-inside-1_43978_125117)"/>
</svg>
