<svg width="24" height="24" viewBox="0 0 24 24" fill="none" xmlns="http://www.w3.org/2000/svg">
<path d="M5.1702 2.50012C3.98236 2.50012 2.98722 3.44256 2.92313 4.62903L2.08524 20.129C2.01681 21.4069 3.05326 22.5001 4.33328 22.5001H7.16629C8.44606 22.5001 9.48179 21.4069 9.41336 20.129L8.57547 4.62903C8.57547 4.6287 8.57547 4.62838 8.57547 4.62805C8.51066 3.44218 7.51624 2.50012 6.3284 2.50012H5.1702ZM5.1702 4.00012H6.3284C6.73456 4.00012 7.05523 4.30395 7.07742 4.71008L7.91531 20.2091C7.93889 20.6493 7.60652 21.0001 7.16629 21.0001H4.33328C3.89265 21.0001 3.56028 20.6498 3.58328 20.2101V20.2091L4.42117 4.71008C4.42117 4.70976 4.42117 4.70943 4.42117 4.70911C4.44308 4.30357 4.76404 4.00012 5.1702 4.00012ZM14.3421 5.50598C14.1279 5.47924 13.9084 5.54604 13.7434 5.69641L9.82742 9.26672L9.93192 11.2013L13.4993 7.94836V12.2501C13.4993 12.5431 13.6698 12.8088 13.9358 12.9308C14.2023 13.0538 14.5151 13.011 14.7376 12.8195L20.4993 7.88098V20.2501C20.4993 20.6636 20.1628 21.0001 19.7493 21.0001H18.9993V17.2501C18.9993 16.0164 17.983 15.0001 16.7493 15.0001H13.2493C12.0155 15.0001 10.9993 16.0164 10.9993 17.2501V21.0001H10.3245C10.1925 21.5521 9.92117 22.068 9.52567 22.4855C9.52067 22.4905 9.51504 22.4951 9.51004 22.5001H11.7493H18.2493H19.7493C20.9898 22.5001 21.9993 21.4906 21.9993 20.2501V6.25012C21.9993 5.95712 21.8288 5.69098 21.5628 5.56848C21.2968 5.44548 20.9835 5.49029 20.761 5.68079L14.9993 10.6193V6.25012C14.9993 5.95312 14.8235 5.68458 14.552 5.56458C14.4839 5.53458 14.4135 5.5149 14.3421 5.50598ZM13.2493 16.5001H16.7493C17.1725 16.5001 17.4993 16.8269 17.4993 17.2501V21.0001H12.4993V17.2501C12.4993 16.8269 12.826 16.5001 13.2493 16.5001Z" fill="#A6A6A6"/>
</svg>
