<svg width="24" height="24" viewBox="0 0 24 24" fill="none" xmlns="http://www.w3.org/2000/svg">
<path d="M5 3C4.46957 3 3.96086 3.21071 3.58579 3.58579C3.21071 3.96086 3 4.46957 3 5V19C3 19.5304 3.21071 20.0391 3.58579 20.4142C3.96086 20.7893 4.46957 21 5 21H19C19.5304 21 20.0391 20.7893 20.4142 20.4142C20.7893 20.0391 21 19.5304 21 19V5C21 4.46957 20.7893 3.96086 20.4142 3.58579C20.0391 3.21071 19.5304 3 19 3H5ZM5 4.5H11.7324L9.09082 8.99023C9.03108 9.09208 8.99929 9.20789 8.99866 9.32596C8.99804 9.44404 9.02861 9.56018 9.08727 9.66265C9.14594 9.76511 9.23062 9.85027 9.33276 9.90951C9.4349 9.96875 9.55087 9.99996 9.66895 10H12.9961L9.99609 14.5H8.50488C8.42207 14.4999 8.34053 14.5204 8.26759 14.5596C8.19465 14.5988 8.1326 14.6555 8.08699 14.7247C8.04139 14.7938 8.01368 14.8732 8.00633 14.9557C7.99899 15.0381 8.01225 15.1212 8.04492 15.1973L9.14453 17.7031C9.17389 17.7714 9.21809 17.8322 9.2739 17.8812C9.32971 17.9302 9.39575 17.9662 9.4672 17.9865C9.53865 18.0068 9.61373 18.0109 9.68697 17.9985C9.76021 17.9862 9.82978 17.9576 9.89062 17.915L13.7842 15.4092C13.8712 15.3481 13.9365 15.2608 13.9705 15.1601C14.0046 15.0593 14.0056 14.9503 13.9735 14.849C13.9413 14.7476 13.8777 14.6591 13.7919 14.5964C13.7061 14.5336 13.6024 14.4998 13.4961 14.5H11.9961L15.4023 9.38965C15.4597 9.30349 15.4926 9.2034 15.4976 9.10003C15.5025 8.99666 15.4794 8.89387 15.4306 8.8026C15.3818 8.71133 15.3092 8.63499 15.2205 8.58171C15.1318 8.52843 15.0302 8.50019 14.9268 8.5H11.4961L13.7822 4.5H19C19.1326 4.5 19.2598 4.55268 19.3536 4.64645C19.4473 4.74021 19.5 4.86739 19.5 5V19C19.5 19.1326 19.4473 19.2598 19.3536 19.3536C19.2598 19.4473 19.1326 19.5 19 19.5H5C4.86739 19.5 4.74021 19.4473 4.64645 19.3536C4.55268 19.2598 4.5 19.1326 4.5 19V5C4.5 4.86739 4.55268 4.74021 4.64645 4.64645C4.74021 4.55268 4.86739 4.5 5 4.5Z" fill="#A6A6A6"/>
</svg>
