<svg width="16" height="16" viewBox="0 0 24 24" fill="none" xmlns="http://www.w3.org/2000/svg">
<path d="M11.999 2.5C8.41799 2.5 5.49896 5.41903 5.49896 9C5.49896 12.3242 8.02361 15.046 11.249 15.4238V17.5H9.74896C8.87705 17.5 8.14878 18.1595 8.02435 19H3.24896C3.14958 18.9986 3.05091 19.017 2.95868 19.054C2.86645 19.0911 2.78251 19.1461 2.71174 19.2159C2.64096 19.2857 2.58476 19.3688 2.5464 19.4605C2.50804 19.5522 2.48828 19.6506 2.48828 19.75C2.48828 19.8494 2.50804 19.9478 2.5464 20.0395C2.58476 20.1312 2.64096 20.2143 2.71174 20.2841C2.78251 20.3539 2.86645 20.4089 2.95868 20.446C3.05091 20.483 3.14958 20.5014 3.24896 20.5H8.02435C8.14878 21.3405 8.87705 22 9.74896 22H14.249C15.1209 22 15.8491 21.3405 15.9736 20.5H20.749C20.8483 20.5014 20.947 20.483 21.0392 20.446C21.1315 20.4089 21.2154 20.3539 21.2862 20.2841C21.357 20.2143 21.4132 20.1312 21.4515 20.0395C21.4899 19.9478 21.5096 19.8494 21.5096 19.75C21.5096 19.6506 21.4899 19.5522 21.4515 19.4605C21.4132 19.3688 21.357 19.2857 21.2862 19.2159C21.2154 19.1461 21.1315 19.0911 21.0392 19.054C20.947 19.017 20.8483 18.9986 20.749 19H15.9736C15.8491 18.1595 15.1209 17.5 14.249 17.5H12.749V15.4238C15.9743 15.046 18.499 12.3242 18.499 9C18.499 5.41903 15.5799 2.5 11.999 2.5ZM11.999 4C14.7693 4 16.999 6.22969 16.999 9C16.999 11.7703 14.7693 14 11.999 14C9.22865 14 6.99896 11.7703 6.99896 9C6.99896 6.22969 9.22865 4 11.999 4ZM14.2343 5.99316C14.0395 5.99884 13.8546 6.0801 13.7187 6.21973L11.4687 8.46973C11.3967 8.53883 11.3392 8.62161 11.2997 8.71321C11.2601 8.8048 11.2392 8.90338 11.2381 9.00316C11.2371 9.10294 11.256 9.20192 11.2938 9.2943C11.3315 9.38668 11.3872 9.47061 11.4578 9.54116C11.5284 9.61172 11.6123 9.66749 11.7047 9.70521C11.797 9.74293 11.896 9.76183 11.9958 9.76082C12.0956 9.7598 12.1942 9.73889 12.2858 9.6993C12.3774 9.65972 12.4601 9.60225 12.5292 9.53027L14.7792 7.28027C14.8874 7.17489 14.9613 7.03931 14.9912 6.89125C15.021 6.7432 15.0055 6.58958 14.9466 6.4505C14.8877 6.31141 14.7882 6.19335 14.6612 6.11175C14.5341 6.03015 14.3853 5.98882 14.2343 5.99316ZM9.74896 19H11.8759C11.9564 19.0132 12.0386 19.0132 12.1191 19H14.249C14.3965 19 14.499 19.1025 14.499 19.25V19.6269C14.4857 19.7075 14.4857 19.7896 14.499 19.8701V20.25C14.499 20.3975 14.3965 20.5 14.249 20.5H9.74896C9.60144 20.5 9.49896 20.3975 9.49896 20.25V19.873C9.51219 19.7925 9.51219 19.7104 9.49896 19.6299V19.25C9.49896 19.1025 9.60144 19 9.74896 19Z" fill="#242424"/>
</svg>
