<svg width="16" height="16" viewBox="0 0 24 24" fill="none" xmlns="http://www.w3.org/2000/svg">
<path d="M4.25 4.5C3.01625 4.5 2 5.51625 2 6.75V17.25C2 18.4838 3.01625 19.5 4.25 19.5H5.5V19.75C5.5 20.1645 5.836 20.5 6.25 20.5H9.25C9.664 20.5 10 20.1645 10 19.75V19.5H19.75C20.9838 19.5 22 18.4838 22 17.25V6.75C22 5.51625 20.9838 4.5 19.75 4.5H4.25ZM4.25 6H19.75C20.1733 6 20.5 6.32675 20.5 6.75V17.25C20.5 17.6733 20.1733 18 19.75 18H4.25C3.82675 18 3.5 17.6733 3.5 17.25V6.75C3.5 6.32675 3.82675 6 4.25 6ZM5.5 7.5C5.224 7.5 5 7.724 5 8V8.5C5 8.776 5.224 9 5.5 9H6C6.276 9 6.5 8.776 6.5 8.5V8C6.5 7.724 6.276 7.5 6 7.5H5.5ZM8 7.5C7.724 7.5 7.5 7.724 7.5 8V8.5C7.5 8.776 7.724 9 8 9H8.5C8.776 9 9 8.776 9 8.5V8C9 7.724 8.776 7.5 8.5 7.5H8ZM10.5 7.5C10.224 7.5 10 7.724 10 8V8.5C10 8.776 10.224 9 10.5 9H11C11.276 9 11.5 8.776 11.5 8.5V8C11.5 7.724 11.276 7.5 11 7.5H10.5ZM13 7.5C12.724 7.5 12.5 7.724 12.5 8V8.5C12.5 8.776 12.724 9 13 9H13.5C13.776 9 14 8.776 14 8.5V8C14 7.724 13.776 7.5 13.5 7.5H13ZM15.5 7.5C15.224 7.5 15 7.724 15 8V8.5C15 8.776 15.224 9 15.5 9H16C16.276 9 16.5 8.776 16.5 8.5V8C16.5 7.724 16.276 7.5 16 7.5H15.5ZM18 7.5C17.724 7.5 17.5 7.724 17.5 8V8.5C17.5 8.776 17.724 9 18 9H18.5C18.776 9 19 8.776 19 8.5V8C19 7.724 18.776 7.5 18.5 7.5H18ZM10 10C9.8011 10 9.61036 10.0791 9.46973 10.2197L8.21973 11.4697C8.07907 11.6104 8.00004 11.8011 8 12V15.75C8.00002 15.9489 8.07904 16.1397 8.21969 16.2803C8.36034 16.421 8.55109 16.5 8.75 16.5H13.75C13.9489 16.5 14.1397 16.421 14.2803 16.2803C14.421 16.1397 14.5 15.9489 14.5 15.75V10.75C14.5 10.5511 14.421 10.3603 14.2803 10.2197C14.1397 10.079 13.9489 10 13.75 10H10ZM16.25 10C16.1506 9.9986 16.0519 10.017 15.9597 10.054C15.8675 10.0911 15.7836 10.1461 15.7128 10.2159C15.642 10.2857 15.5858 10.3688 15.5474 10.4605C15.5091 10.5522 15.4893 10.6506 15.4893 10.75C15.4893 10.8494 15.5091 10.9478 15.5474 11.0395C15.5858 11.1312 15.642 11.2143 15.7128 11.2841C15.7836 11.3539 15.8675 11.4089 15.9597 11.446C16.0519 11.483 16.1506 11.5014 16.25 11.5H18.25C18.3494 11.5014 18.4481 11.483 18.5403 11.446C18.6325 11.4089 18.7164 11.3539 18.7872 11.2841C18.858 11.2143 18.9142 11.1312 18.9526 11.0395C18.9909 10.9478 19.0107 10.8494 19.0107 10.75C19.0107 10.6506 18.9909 10.5522 18.9526 10.4605C18.9142 10.3688 18.858 10.2857 18.7872 10.2159C18.7164 10.1461 18.6325 10.0911 18.5403 10.054C18.4481 10.017 18.3494 9.9986 18.25 10H16.25ZM5.5 10.5C5.224 10.5 5 10.724 5 11V12C5 12.276 5.224 12.5 5.5 12.5H6.5C6.776 12.5 7 12.276 7 12V11C7 10.724 6.776 10.5 6.5 10.5H5.5ZM10.3105 11.5H13V15H9.5V12.3106L10.3105 11.5ZM16.25 12.5C16.1506 12.4986 16.0519 12.517 15.9597 12.554C15.8675 12.5911 15.7836 12.6461 15.7128 12.7159C15.642 12.7857 15.5858 12.8688 15.5474 12.9605C15.5091 13.0522 15.4893 13.1506 15.4893 13.25C15.4893 13.3494 15.5091 13.4478 15.5474 13.5395C15.5858 13.6312 15.642 13.7143 15.7128 13.7841C15.7836 13.8539 15.8675 13.9089 15.9597 13.946C16.0519 13.983 16.1506 14.0014 16.25 14H18.25C18.3494 14.0014 18.4481 13.983 18.5403 13.946C18.6325 13.9089 18.7164 13.8539 18.7872 13.7841C18.858 13.7143 18.9142 13.6312 18.9526 13.5395C18.9909 13.4478 19.0107 13.3494 19.0107 13.25C19.0107 13.1506 18.9909 13.0522 18.9526 12.9605C18.9142 12.8688 18.858 12.7857 18.7872 12.7159C18.7164 12.6461 18.6325 12.5911 18.5403 12.554C18.4481 12.517 18.3494 12.4986 18.25 12.5H16.25ZM5.5 15C5.224 15 5 15.224 5 15.5V16C5 16.276 5.224 16.5 5.5 16.5H6C6.276 16.5 6.5 16.276 6.5 16V15.5C6.5 15.224 6.276 15 6 15H5.5ZM18 15C17.724 15 17.5 15.224 17.5 15.5V16C17.5 16.276 17.724 16.5 18 16.5H18.5C18.776 16.5 19 16.276 19 16V15.5C19 15.224 18.776 15 18.5 15H18Z" fill="#242424"/>
</svg>
