<svg width="17" height="16" viewBox="0 0 17 16" fill="none" xmlns="http://www.w3.org/2000/svg">
<path d="M14.2223 7.33334C14.0592 6.16015 13.515 5.07311 12.6734 4.23967C11.8317 3.40623 10.7394 2.87262 9.56472 2.72104C8.38999 2.56947 7.19802 2.80833 6.1724 3.40084C5.14679 3.99335 4.34444 4.90663 3.88894 6.00001M3.5556 3.33334V6.00001H6.22227M3.5556 8.66667C3.71864 9.83985 4.26289 10.9269 5.10451 11.7603C5.94613 12.5938 7.03843 13.1274 8.21316 13.279C9.38788 13.4305 10.5799 13.1917 11.6055 12.5992C12.6311 12.0067 13.4334 11.0934 13.8889 10M14.2223 12.6667V10H11.5556" stroke="#646464" stroke-width="1.5" stroke-linecap="round" stroke-linejoin="round"/>
</svg>
