<svg width="16" height="16" viewBox="0 0 16 16" fill="none" xmlns="http://www.w3.org/2000/svg">
<path d="M2.66666 2.66667V6H3.05466M3.05466 6C3.49722 4.90542 4.29044 3.98861 5.31001 3.39324C6.32957 2.79788 7.51786 2.55761 8.68864 2.71009C9.85941 2.86258 10.9465 3.3992 11.7796 4.23585C12.6126 5.07251 13.1446 6.16191 13.292 7.33333M3.05466 6H5.99999M13.3333 13.3333V10H12.946M12.946 10C12.5028 11.0939 11.7093 12.01 10.6899 12.6049C9.67041 13.1997 8.48248 13.4397 7.31206 13.2872C6.14163 13.1348 5.05479 12.5986 4.22168 11.7625C3.38857 10.9264 2.85623 9.83763 2.70799 8.66667M12.946 10H9.99999" stroke="#A2171D" stroke-width="1.3" stroke-linecap="round" stroke-linejoin="round"/>
</svg>
