<svg width="16" height="16" viewBox="0 0 24 24" fill="none" xmlns="http://www.w3.org/2000/svg">
<path d="M17.25 2.99995C17.1019 2.99996 16.9572 3.0438 16.834 3.12593L15 4.34859V4.24995C15.0014 4.15057 14.983 4.0519 14.946 3.95967C14.9089 3.86744 14.8539 3.7835 14.7841 3.71273C14.7143 3.64195 14.6312 3.58575 14.5395 3.54739C14.4478 3.50903 14.3494 3.48927 14.25 3.48927C14.1506 3.48927 14.0522 3.50903 13.9605 3.54739C13.8688 3.58575 13.7857 3.64195 13.7159 3.71273C13.6461 3.7835 13.5911 3.86744 13.554 3.95967C13.517 4.0519 13.4986 4.15057 13.5 4.24995V4.99995H8.2998C8.19776 4.74967 8.06119 4.51044 7.87305 4.29878C7.44393 3.81602 6.77083 3.49995 6 3.49995C5.22917 3.49995 4.55607 3.81602 4.12695 4.29878C3.69783 4.78154 3.5 5.39579 3.5 5.99995C3.5 6.60412 3.69783 7.21836 4.12695 7.70112C4.25519 7.8454 4.40728 7.97245 4.5752 8.08296L8.16113 14.6582C8.44163 14.1932 8.79732 13.7884 9.21582 13.4599L6.48633 8.45405C7.01973 8.35766 7.48081 8.10678 7.81348 7.76069L10.5342 12.749C10.9962 12.5925 11.487 12.5 12 12.5C12.038 12.5 12.0738 12.5068 12.1113 12.5078L8.83398 6.49995H13.5V7.24995C13.4986 7.34934 13.517 7.44801 13.554 7.54024C13.5911 7.63246 13.6461 7.7164 13.7159 7.78718C13.7857 7.85796 13.8688 7.91416 13.9605 7.95252C14.0522 7.99088 14.1506 8.01063 14.25 8.01063C14.3494 8.01063 14.4478 7.99088 14.5395 7.95252C14.6312 7.91416 14.7143 7.85796 14.7841 7.78718C14.8539 7.7164 14.9089 7.63246 14.946 7.54024C14.983 7.44801 15.0014 7.34934 15 7.24995V7.15132L16.834 8.37398C16.9572 8.45611 17.1019 8.49994 17.25 8.49995H20.25C20.3494 8.50136 20.4481 8.483 20.5403 8.44594C20.6325 8.40888 20.7164 8.35386 20.7872 8.28407C20.858 8.21429 20.9142 8.13114 20.9526 8.03944C20.9909 7.94775 21.0107 7.84935 21.0107 7.74995C21.0107 7.65056 20.9909 7.55216 20.9526 7.46046C20.9142 7.36877 20.858 7.28562 20.7872 7.21583C20.7164 7.14605 20.6325 7.09103 20.5403 7.05397C20.4481 7.01691 20.3494 6.99855 20.25 6.99995H17.4775L15.6025 5.74995L17.4775 4.49995H20.25C20.3494 4.50136 20.4481 4.483 20.5403 4.44594C20.6325 4.40888 20.7164 4.35386 20.7872 4.28407C20.858 4.21429 20.9142 4.13114 20.9526 4.03944C20.9909 3.94775 21.0107 3.84935 21.0107 3.74995C21.0107 3.65056 20.9909 3.55216 20.9526 3.46046C20.9142 3.36877 20.858 3.28562 20.7872 3.21583C20.7164 3.14605 20.6325 3.09103 20.5403 3.05397C20.4481 3.01691 20.3494 2.99855 20.25 2.99995H17.25ZM6 4.99995C6.39583 4.99995 6.59774 5.12139 6.75195 5.29487C6.8574 5.4135 6.93144 5.5744 6.96973 5.74995C6.97001 5.81291 6.97821 5.87557 6.99414 5.93648C6.99518 5.95549 6.99891 5.97397 6.99902 5.99312C6.99804 6.00252 6.99867 6.01199 6.99805 6.02144C6.99317 6.28442 6.90203 6.5362 6.75195 6.70503C6.59774 6.87852 6.39583 6.99995 6 6.99995C5.83613 6.99995 5.71129 6.97513 5.60352 6.93843C5.52587 6.87173 5.43663 6.82226 5.34082 6.79195C5.3086 6.76417 5.2762 6.7367 5.24805 6.70503C5.09383 6.53154 5 6.27079 5 5.99995C5 5.72912 5.09383 5.46836 5.24805 5.29487C5.40226 5.12139 5.60417 4.99995 6 4.99995ZM12 13.5C10.4309 13.5 9.1495 14.5681 8.70996 16H5.75C4.24011 16 3 17.2401 3 18.75V19.75C3 20.7074 3.79252 21.5 4.75 21.5H19.25C20.2075 21.5 21 20.7074 21 19.75V18.75C21 17.2401 19.7599 16 18.25 16H15.29C14.8505 14.5681 13.5691 13.5 12 13.5ZM12 15C13.0516 15 13.898 15.7955 13.9902 16.8173C14.0071 17.0038 14.0931 17.1773 14.2313 17.3036C14.3696 17.4299 14.55 17.5 14.7373 17.5H18.25C18.9491 17.5 19.5 18.0508 19.5 18.75V19.75C19.5 19.8975 19.3975 20 19.25 20H4.75C4.60248 20 4.5 19.8975 4.5 19.75V18.75C4.5 18.0508 5.05089 17.5 5.75 17.5H9.2627C9.44996 17.5 9.63045 17.4299 9.76869 17.3036C9.90693 17.1773 9.99292 17.0038 10.0098 16.8173C10.102 15.7955 10.9484 15 12 15ZM12 16C11.7348 16 11.4804 16.1053 11.2929 16.2928C11.1054 16.4804 11 16.7347 11 17C11 17.2652 11.1054 17.5195 11.2929 17.7071C11.4804 17.8946 11.7348 18 12 18C12.2652 18 12.5196 17.8946 12.7071 17.7071C12.8946 17.5195 13 17.2652 13 17C13 16.7347 12.8946 16.4804 12.7071 16.2928C12.5196 16.1053 12.2652 16 12 16Z" fill="#242424"/>
</svg>
