<svg width="24" height="24" viewBox="0 0 24 24" fill="none" xmlns="http://www.w3.org/2000/svg">
<path d="M19.0139 11.4311L7.01443 4.09783C6.91336 4.03606 6.79766 4.00233 6.67923 4.00012C6.5608 3.9979 6.44392 4.02727 6.34061 4.08521C6.23729 4.14315 6.15128 4.22757 6.09142 4.32978C6.03156 4.43198 6 4.5483 6 4.66675V19.3333C6 19.4517 6.03156 19.568 6.09142 19.6702C6.15128 19.7724 6.23729 19.8568 6.34061 19.9148C6.44392 19.9727 6.5608 20.0021 6.67923 19.9999C6.79766 19.9977 6.91336 19.9639 7.01443 19.9022L19.0139 12.5689C19.1114 12.5094 19.1919 12.4258 19.2478 12.3261C19.3036 12.2265 19.333 12.1142 19.333 12C19.333 11.8858 19.3036 11.7735 19.2478 11.6739C19.1919 11.5742 19.1114 11.4906 19.0139 11.4311Z" stroke="#FCFCFC" stroke-width="1.76692" stroke-linecap="round" stroke-linejoin="round"/>
</svg>
