<svg width="24" height="24" viewBox="0 0 24 24" fill="none" xmlns="http://www.w3.org/2000/svg">
<path d="M11.9859 0.789038C11.774 0.79235 11.5721 0.879598 11.4245 1.03163C11.2768 1.18367 11.1955 1.38807 11.1984 1.59998V2.39998C11.1969 2.50599 11.2165 2.61124 11.2561 2.70961C11.2956 2.80798 11.3543 2.89752 11.4287 2.97302C11.5032 3.04851 11.5918 3.10846 11.6897 3.14938C11.7875 3.1903 11.8924 3.21137 11.9984 3.21137C12.1045 3.21137 12.2094 3.1903 12.3072 3.14938C12.405 3.10846 12.4937 3.04851 12.5682 2.97302C12.6426 2.89752 12.7013 2.80798 12.7408 2.70961C12.7804 2.61124 12.7999 2.50599 12.7984 2.39998V1.59998C12.7999 1.49294 12.7799 1.38671 12.7395 1.28755C12.6992 1.1884 12.6394 1.09835 12.5636 1.02273C12.4879 0.947117 12.3977 0.887472 12.2985 0.84733C12.1992 0.807188 12.093 0.787366 11.9859 0.789038ZM7.46407 2.6656C7.30473 2.66563 7.14902 2.71324 7.01691 2.80233C6.8848 2.89142 6.7823 3.01792 6.72254 3.16563C6.66279 3.31335 6.6485 3.47554 6.68151 3.63142C6.71451 3.78731 6.79332 3.92979 6.90782 4.0406L7.47344 4.60623C7.54716 4.683 7.63545 4.7443 7.73316 4.78653C7.83086 4.82876 7.93601 4.85107 8.04244 4.85215C8.14887 4.85323 8.25445 4.83307 8.35299 4.79284C8.45153 4.7526 8.54106 4.69312 8.61632 4.61785C8.69158 4.54259 8.75107 4.45307 8.7913 4.35452C8.83153 4.25598 8.8517 4.1504 8.85062 4.04397C8.84953 3.93754 8.82722 3.83239 8.785 3.73469C8.74277 3.63699 8.68147 3.54869 8.60469 3.47498L8.03907 2.90935C7.96446 2.83224 7.87511 2.77093 7.77633 2.72905C7.67755 2.68718 7.57136 2.6656 7.46407 2.6656ZM16.5078 2.66716C16.3 2.67336 16.1027 2.76022 15.9578 2.90935L15.3922 3.47498C15.3154 3.54869 15.2541 3.63699 15.2119 3.73469C15.1697 3.83239 15.1474 3.93754 15.1463 4.04397C15.1452 4.1504 15.1654 4.25598 15.2056 4.35452C15.2458 4.45307 15.3053 4.54259 15.3806 4.61785C15.4558 4.69312 15.5454 4.7526 15.6439 4.79284C15.7424 4.83307 15.848 4.85323 15.9544 4.85215C16.0609 4.85107 16.166 4.82876 16.2637 4.78653C16.3614 4.7443 16.4497 4.683 16.5234 4.60623L17.0891 4.0406C17.2047 3.92823 17.2836 3.78356 17.3156 3.62554C17.3476 3.46753 17.331 3.30354 17.2682 3.15507C17.2054 3.0066 17.0992 2.88058 16.9635 2.79352C16.8278 2.70645 16.669 2.66241 16.5078 2.66716ZM11.9984 4.79998C10.2312 4.79998 8.79844 6.23278 8.79844 7.99998C8.79844 8.27838 8.84454 8.54318 8.91094 8.79998H15.0813C15.1493 8.54318 15.1984 8.27838 15.1984 7.99998C15.1984 6.23278 13.7656 4.79998 11.9984 4.79998ZM5.59844 7.19998C5.49243 7.19848 5.38718 7.21806 5.28881 7.25759C5.19043 7.29712 5.1009 7.35581 5.0254 7.43025C4.94991 7.50468 4.88996 7.59338 4.84904 7.69119C4.80812 7.78899 4.78705 7.89396 4.78705 7.99998C4.78705 8.106 4.80812 8.21096 4.84904 8.30876C4.88996 8.40657 4.94991 8.49527 5.0254 8.5697C5.1009 8.64414 5.19043 8.70283 5.28881 8.74236C5.38718 8.78189 5.49243 8.80147 5.59844 8.79998H6.39844C6.50445 8.80147 6.6097 8.78189 6.70808 8.74236C6.80645 8.70283 6.89599 8.64414 6.97148 8.5697C7.04698 8.49527 7.10693 8.40657 7.14785 8.30876C7.18877 8.21096 7.20984 8.106 7.20984 7.99998C7.20984 7.89396 7.18877 7.78899 7.14785 7.69119C7.10693 7.59338 7.04698 7.50468 6.97148 7.43025C6.89599 7.35581 6.80645 7.29712 6.70808 7.25759C6.6097 7.21806 6.50445 7.19848 6.39844 7.19998H5.59844ZM17.5984 7.19998C17.4924 7.19848 17.3872 7.21806 17.2888 7.25759C17.1904 7.29712 17.1009 7.35581 17.0254 7.43025C16.9499 7.50468 16.89 7.59338 16.849 7.69119C16.8081 7.78899 16.787 7.89396 16.787 7.99998C16.787 8.106 16.8081 8.21096 16.849 8.30876C16.89 8.40657 16.9499 8.49527 17.0254 8.5697C17.1009 8.64414 17.1904 8.70283 17.2888 8.74236C17.3872 8.78189 17.4924 8.80147 17.5984 8.79998H18.3984C18.5045 8.80147 18.6097 8.78189 18.7081 8.74236C18.8065 8.70283 18.896 8.64414 18.9715 8.5697C19.047 8.49527 19.1069 8.40657 19.1478 8.30876C19.1888 8.21096 19.2098 8.106 19.2098 7.99998C19.2098 7.89396 19.1888 7.78899 19.1478 7.69119C19.1069 7.59338 19.047 7.50468 18.9715 7.43025C18.896 7.35581 18.8065 7.29712 18.7081 7.25759C18.6097 7.21806 18.5045 7.19848 18.3984 7.19998H17.5984ZM4.79844 10.4C4.61112 10.3999 4.4297 10.4655 4.28579 10.5854C4.14188 10.7053 4.04462 10.872 4.01094 11.0562L2.41094 19.8562C2.40245 19.9037 2.39827 19.9518 2.39844 20V20.8C2.39846 21.0121 2.48276 21.2156 2.63278 21.3656C2.78281 21.5157 2.98628 21.6 3.19844 21.6H20.7984C21.0106 21.6 21.2141 21.5157 21.3641 21.3656C21.5141 21.2156 21.5984 21.0121 21.5984 20.8V20C21.5986 19.9518 21.5944 19.9037 21.5859 19.8562L19.9859 11.0562C19.9523 10.872 19.855 10.7053 19.7111 10.5854C19.5672 10.4655 19.3858 10.3999 19.1984 10.4H4.79844ZM5.46563 12H18.5313L19.9859 20H4.01094L5.46563 12ZM7.11407 13.6L6.87501 15.2H9.19219L9.35001 13.6H7.11407ZM10.6578 13.6L10.5 15.2H13.4969L13.3391 13.6H10.6578ZM14.6469 13.6L14.8047 15.2H17.1219L16.8828 13.6H14.6469ZM6.63751 16.8L6.39844 18.4H8.87813L9.03594 16.8H6.63751ZM10.3422 16.8L10.1844 18.4H13.8125L13.6547 16.8H10.3422ZM14.9609 16.8L15.1188 18.4H17.5984L17.3594 16.8H14.9609Z" fill="#A6A6A6"/>
</svg>
