<svg width="70" height="24" viewBox="0 0 70 24" fill="none" xmlns="http://www.w3.org/2000/svg">
<path d="M0.888916 5.33333C0.888916 2.38782 3.27673 0 6.22225 0H64.5556C67.5011 0 69.8889 2.38781 69.8889 5.33333V18.6667C69.8889 21.6122 67.5011 24 64.5556 24H6.22225C3.27673 24 0.888916 21.6122 0.888916 18.6667V5.33333Z" fill="#30A46C"/>
<circle cx="12.8889" cy="12" r="4" fill="#E6F6EB"/>
<path d="M24.7669 7.06H26.3909L29.9749 17H28.6589L27.6649 14.172H23.4929L22.4989 17H21.1829L24.7669 7.06ZM27.2589 12.996L25.5789 8.11L23.8989 12.996H27.2589ZM34.1227 17.168C33.4414 17.168 32.8441 17.0093 32.3307 16.692C31.8174 16.3747 31.4207 15.922 31.1407 15.334C30.8607 14.746 30.7207 14.0647 30.7207 13.29C30.7207 12.5153 30.8607 11.834 31.1407 11.246C31.4207 10.658 31.8174 10.2053 32.3307 9.888C32.8441 9.57067 33.4414 9.412 34.1227 9.412C34.9814 9.412 35.6907 9.636 36.2507 10.084C36.8107 10.532 37.1514 11.1667 37.2727 11.988L36.0407 12.072C35.9567 11.5867 35.7421 11.2087 35.3967 10.938C35.0607 10.6673 34.6361 10.532 34.1227 10.532C33.4414 10.532 32.9094 10.7747 32.5267 11.26C32.1441 11.7453 31.9527 12.422 31.9527 13.29C31.9527 14.158 32.1441 14.8347 32.5267 15.32C32.9094 15.8053 33.4414 16.048 34.1227 16.048C34.6361 16.048 35.0607 15.908 35.3967 15.628C35.7421 15.3387 35.9567 14.9187 36.0407 14.368L37.2727 14.452C37.1421 15.2827 36.7967 15.9453 36.2367 16.44C35.6767 16.9253 34.9721 17.168 34.1227 17.168ZM41.1995 17C40.5275 17 40.0282 16.846 39.7015 16.538C39.3842 16.23 39.2255 15.7493 39.2255 15.096V10.616H38.1335V9.58H39.2255V7.844H40.4015V9.58H42.3755V10.616H40.4015V15.068C40.4015 15.3947 40.4715 15.628 40.6115 15.768C40.7609 15.8987 40.9942 15.964 41.3115 15.964H42.3755V17H41.1995ZM44.007 9.58H45.183V17H44.007V9.58ZM43.979 7.046H45.211V8.418H43.979V7.046ZM46.6129 9.58H47.9009L50.0569 15.796L52.2129 9.58H53.5009L50.7989 17H49.3149L46.6129 9.58ZM57.5153 17.168C56.8247 17.168 56.2227 17.0093 55.7093 16.692C55.196 16.3747 54.7993 15.9267 54.5193 15.348C54.2487 14.76 54.1133 14.074 54.1133 13.29C54.1133 12.5153 54.2487 11.834 54.5193 11.246C54.7993 10.658 55.1913 10.2053 55.6953 9.888C56.1993 9.57067 56.7873 9.412 57.4593 9.412C58.1033 9.412 58.6727 9.566 59.1673 9.874C59.662 10.1727 60.0447 10.616 60.3153 11.204C60.5953 11.792 60.7353 12.492 60.7353 13.304V13.654H55.3453C55.3827 14.438 55.588 15.0353 55.9613 15.446C56.344 15.8473 56.862 16.048 57.5153 16.048C57.9913 16.048 58.3833 15.9407 58.6913 15.726C59.0087 15.502 59.2327 15.194 59.3633 14.802L60.6233 14.9C60.4273 15.5813 60.0493 16.132 59.4893 16.552C58.9387 16.9627 58.2807 17.168 57.5153 17.168ZM59.4473 12.618C59.3913 11.9273 59.186 11.4093 58.8313 11.064C58.486 10.7093 58.0287 10.532 57.4593 10.532C56.8807 10.532 56.4047 10.7093 56.0313 11.064C55.6673 11.4187 55.4387 11.9367 55.3453 12.618H59.4473Z" fill="#E6F6EB"/>
</svg>
