<svg width="25" height="24" viewBox="0 0 25 24" fill="none" xmlns="http://www.w3.org/2000/svg">
<path d="M20.875 9.75C21.9105 9.75 22.75 8.91053 22.75 7.875C22.75 6.83947 21.9105 6 20.875 6C19.8395 6 19 6.83947 19 7.875C19 8.91053 19.8395 9.75 20.875 9.75Z" stroke="#A6A6A6" stroke-width="1.7" stroke-linecap="round" stroke-linejoin="round"/>
<path d="M9.25 13.7836V4.5C9.25 3.70435 9.56607 2.94129 10.1287 2.37868C10.6913 1.81607 11.4544 1.5 12.25 1.5C13.0456 1.5 13.8087 1.81607 14.3713 2.37868C14.9339 2.94129 15.25 3.70435 15.25 4.5V13.7836L15.2507 13.7827C16.0507 14.4075 16.6357 15.2664 16.9241 16.2396C17.2125 17.2128 17.1899 18.2517 16.8595 19.2115C16.5291 20.1713 15.9074 21.004 15.0811 21.5934C14.2548 22.1829 13.265 22.4997 12.25 22.4997C11.235 22.4997 10.2452 22.1829 9.41891 21.5934C8.59258 21.004 7.97086 20.1713 7.64047 19.2115C7.31008 18.2517 7.28752 17.2128 7.57592 16.2396C7.86432 15.2664 8.44931 14.4075 9.24926 13.7827L9.25 13.7836Z" stroke="#A6A6A6" stroke-width="1.7" stroke-linecap="round" stroke-linejoin="round"/>
<path d="M12.25 19.5C13.2855 19.5 14.125 18.6605 14.125 17.625C14.125 16.5895 13.2855 15.75 12.25 15.75C11.2145 15.75 10.375 16.5895 10.375 17.625C10.375 18.6605 11.2145 19.5 12.25 19.5Z" stroke="#A6A6A6" stroke-width="1.7" stroke-linecap="round" stroke-linejoin="round"/>
<path d="M12.25 15.75V8.25" stroke="#A6A6A6" stroke-width="1.7" stroke-linecap="round" stroke-linejoin="round"/>
<path d="M4.25815 2.03334C4.25359 2.60448 4.02908 3.15189 3.63128 3.56175C3.23349 3.9716 2.69303 4.21237 2.12228 4.23398" stroke="#A6A6A6" stroke-width="1.5" stroke-linecap="round" stroke-linejoin="round"/>
<path d="M6.81709 2.50614C6.82083 3.63383 6.3832 4.71823 5.5978 5.52745C4.81239 6.33667 3.74154 6.80649 2.61424 6.83643" stroke="#A6A6A6" stroke-width="1.5" stroke-linecap="round" stroke-linejoin="round"/>
<path d="M1.17739 1.08849C0.865426 1.40992 0.873095 1.92339 1.19452 2.23535C1.51595 2.54732 2.02942 2.53965 2.34138 2.21823C2.65335 1.8968 2.64568 1.38333 2.32425 1.07136C2.00283 0.759397 1.48936 0.767066 1.17739 1.08849Z" fill="#A6A6A6"/>
</svg>
