<svg width="24" height="24" viewBox="0 0 24 24" fill="none" xmlns="http://www.w3.org/2000/svg">
<path d="M22.2383 1.98926C22.0395 1.99236 21.8502 2.07423 21.7117 2.21686C21.5733 2.3595 21.4971 2.55125 21.5 2.75V3H10.75C5.65019 3 1.5 7.15019 1.5 12.25C1.5 17.3498 5.65019 21.5 10.75 21.5C15.8498 21.5 20 17.3498 20 12.25C20 11.5657 19.9003 10.9072 19.7588 10.2637C20.3281 10.3459 20.8985 10.4286 21.5 10.4707V10.75C21.4986 10.8494 21.517 10.9481 21.554 11.0403C21.5911 11.1325 21.6461 11.2164 21.7159 11.2872C21.7857 11.358 21.8688 11.4142 21.9605 11.4526C22.0522 11.4909 22.1506 11.5107 22.25 11.5107C22.3494 11.5107 22.4478 11.4909 22.5395 11.4526C22.6312 11.4142 22.7143 11.358 22.7841 11.2872C22.8539 11.2164 22.9089 11.1325 22.946 11.0403C22.983 10.9481 23.0014 10.8494 23 10.75V10.5V9.75V3.75V3V2.75C23.0014 2.64962 22.9827 2.54997 22.9449 2.45695C22.9071 2.36394 22.8511 2.27946 22.78 2.20852C22.709 2.13757 22.6245 2.08161 22.5314 2.04395C22.4383 2.00629 22.3387 1.98769 22.2383 1.98926ZM10.75 4.5H21.5V8.92285C17.6038 8.70546 14.5187 7 10.75 7C7.85925 7 5.5 9.35925 5.5 12.25C5.5 15.1408 7.85925 17.5 10.75 17.5C13.6408 17.5 16 15.1408 16 12.25C16 11.0952 15.5486 10.0806 14.9121 9.21191C15.929 9.483 16.995 9.74495 18.1211 9.99219C18.341 10.7106 18.5 11.4578 18.5 12.25C18.5 16.5392 15.0392 20 10.75 20C6.46081 20 3 16.5392 3 12.25C3 7.96081 6.46081 4.5 10.75 4.5ZM10.75 8.5C12.8302 8.5 14.5 10.1698 14.5 12.25C14.5 14.3302 12.8302 16 10.75 16C8.66975 16 7 14.3302 7 12.25C7 10.1698 8.66975 8.5 10.75 8.5ZM10.7383 8.98926C10.5395 8.99236 10.3502 9.07423 10.2117 9.21686C10.0733 9.3595 9.99715 9.55125 10 9.75V10.9512L8.95996 10.3506C8.87458 10.2989 8.77973 10.2647 8.68097 10.2501C8.58222 10.2355 8.48154 10.2408 8.38485 10.2656C8.28815 10.2904 8.19738 10.3343 8.11786 10.3946C8.03834 10.455 7.97166 10.5306 7.92174 10.617C7.87182 10.7035 7.83966 10.799 7.82714 10.8981C7.81462 10.9971 7.822 11.0977 7.84885 11.1938C7.87569 11.29 7.92146 11.3798 7.98347 11.458C8.04548 11.5363 8.12248 11.6013 8.20996 11.6494L9.25 12.25L8.20996 12.8506C8.12248 12.8987 8.04548 12.9637 7.98347 13.042C7.92146 13.1202 7.87569 13.21 7.84885 13.3062C7.822 13.4023 7.81462 13.5029 7.82714 13.6019C7.83966 13.701 7.87182 13.7965 7.92174 13.883C7.97166 13.9694 8.03834 14.045 8.11786 14.1054C8.19738 14.1657 8.28815 14.2096 8.38485 14.2344C8.48154 14.2592 8.58222 14.2645 8.68097 14.2499C8.77973 14.2353 8.87458 14.2011 8.95996 14.1494L10 13.5488V14.75C9.99859 14.8494 10.017 14.9481 10.054 15.0403C10.0911 15.1325 10.1461 15.2164 10.2159 15.2872C10.2857 15.358 10.3688 15.4142 10.4605 15.4526C10.5522 15.4909 10.6506 15.5107 10.75 15.5107C10.8494 15.5107 10.9478 15.4909 11.0395 15.4526C11.1312 15.4142 11.2143 15.358 11.2841 15.2872C11.3539 15.2164 11.4089 15.1325 11.446 15.0403C11.483 14.9481 11.5014 14.8494 11.5 14.75V13.5488L12.54 14.1494C12.6254 14.2011 12.7203 14.2353 12.819 14.2499C12.9178 14.2645 13.0185 14.2592 13.1152 14.2344C13.2119 14.2096 13.3026 14.1657 13.3821 14.1054C13.4617 14.045 13.5283 13.9694 13.5783 13.883C13.6282 13.7965 13.6603 13.701 13.6729 13.6019C13.6854 13.5029 13.678 13.4023 13.6512 13.3062C13.6243 13.21 13.5785 13.1202 13.5165 13.042C13.4545 12.9637 13.3775 12.8987 13.29 12.8506L12.25 12.25L13.29 11.6494C13.3775 11.6013 13.4545 11.5363 13.5165 11.458C13.5785 11.3798 13.6243 11.29 13.6512 11.1938C13.678 11.0977 13.6854 10.9971 13.6729 10.8981C13.6603 10.799 13.6282 10.7035 13.5783 10.617C13.5283 10.5306 13.4617 10.455 13.3821 10.3946C13.3026 10.3343 13.2119 10.2904 13.1152 10.2656C13.0185 10.2408 12.9178 10.2355 12.819 10.2501C12.7203 10.2647 12.6254 10.2989 12.54 10.3506L11.5 10.9512V9.75C11.5014 9.64962 11.4827 9.54997 11.4449 9.45695C11.4071 9.36394 11.3511 9.27946 11.28 9.20852C11.209 9.13758 11.1245 9.08161 11.0314 9.04395C10.9383 9.00629 10.8387 8.98769 10.7383 8.98926Z" fill="#A6A6A6"/>
</svg>
