<svg width="24" height="24" viewBox="0 0 24 24" fill="none" xmlns="http://www.w3.org/2000/svg">
<path d="M17.5018 5.5577C17.6001 5.51817 17.7054 5.49858 17.8114 5.50008H19.4114C19.6236 5.5001 19.827 5.58439 19.9771 5.73442C20.1271 5.88444 20.2114 6.08791 20.2114 6.30008V9.37352C20.2257 9.45991 20.2257 9.54806 20.2114 9.63446V12.5735C20.2257 12.6599 20.2257 12.7481 20.2114 12.8345V15.7735C20.2257 15.8599 20.2257 15.9481 20.2114 16.0345V19.1001C20.2114 19.3122 20.1271 19.5157 19.9771 19.6657C19.827 19.8158 19.6236 19.9001 19.4114 19.9001H17.8114C17.7054 19.9016 17.6001 19.882 17.5018 19.8425C17.4034 19.8029 17.3138 19.7442 17.2384 19.6698C17.1629 19.5954 17.1029 19.5067 17.062 19.4089C17.0211 19.3111 17 19.2061 17 19.1001C17 18.9941 17.0211 18.8891 17.062 18.7913C17.1029 18.6935 17.1629 18.6048 17.2384 18.5304C17.3138 18.4559 17.4034 18.3972 17.5018 18.3577C17.6001 18.3182 17.7054 18.2986 17.8114 18.3001H18.6114V16.7001C18.5054 16.7016 18.4001 16.682 18.3018 16.6425C18.2034 16.6029 18.1138 16.5442 18.0384 16.4698C17.9629 16.3954 17.9029 16.3067 17.862 16.2089C17.8211 16.1111 17.8 16.0061 17.8 15.9001C17.8 15.7941 17.8211 15.6891 17.862 15.5913C17.9029 15.4935 17.9629 15.4048 18.0384 15.3304C18.1138 15.2559 18.2034 15.1972 18.3018 15.1577C18.4001 15.1182 18.5054 15.0986 18.6114 15.1001V13.5001H17.8114C17.7054 13.5016 17.6001 13.482 17.5018 13.4425C17.4034 13.4029 17.3138 13.3442 17.2384 13.2698C17.1629 13.1954 17.1029 13.1067 17.062 13.0089C17.0211 12.9111 17 12.8061 17 12.7001C17 12.5941 17.0211 12.4891 17.062 12.3913C17.1029 12.2935 17.1629 12.2048 17.2384 12.1304C17.3138 12.0559 17.4034 11.9972 17.5018 11.9577C17.6001 11.9182 17.7054 11.8986 17.8114 11.9001H18.6114V10.3001C18.5054 10.3016 18.4001 10.282 18.3018 10.2425C18.2034 10.2029 18.1138 10.1442 18.0384 10.0698C17.9629 9.99537 17.9029 9.90667 17.862 9.80887C17.8211 9.71106 17.8 9.6061 17.8 9.50008C17.8 9.39406 17.8211 9.2891 17.862 9.19129C17.9029 9.09349 17.9629 9.00479 18.0384 8.93035C18.1138 8.85592 18.2034 8.79723 18.3018 8.7577C18.4001 8.71817 18.5054 8.69858 18.6114 8.70008V7.10008H17.8114C17.7054 7.10158 17.6001 7.08199 17.5018 7.04246C17.4034 7.00293 17.3138 6.94424 17.2384 6.86981C17.1629 6.79537 17.1029 6.70667 17.062 6.60887C17.0211 6.51106 17 6.4061 17 6.30008C17 6.19406 17.0211 6.0891 17.062 5.99129C17.1029 5.89349 17.1629 5.80479 17.2384 5.73035C17.3138 5.65592 17.4034 5.59723 17.5018 5.5577Z" fill="#A6A6A6"/>
<path d="M10.4867 4C8.48801 8.5 13.4883 13.5 10.4867 20.5" stroke="#A6A6A6" stroke-width="1.7" stroke-linecap="round"/>
<path d="M14.3244 6.5C12.992 9.5 16.3255 12.8333 14.3244 17.5" stroke="#A6A6A6" stroke-width="1.7" stroke-linecap="round"/>
<path d="M7.32444 6.5C5.992 9.5 9.32552 12.8333 7.32444 17.5" stroke="#A6A6A6" stroke-width="1.7" stroke-linecap="round"/>
<path d="M4.17697 9.5C3.45018 11.1364 5.26847 12.9545 4.17697 15.5" stroke="#A6A6A6" stroke-width="1.7" stroke-linecap="round"/>
</svg>
