<svg width="24" height="24" viewBox="0 0 24 24" fill="none" xmlns="http://www.w3.org/2000/svg">
<path d="M6.75 2.5C4.96403 2.5 3.5 3.96403 3.5 5.75V18.25C3.5 20.036 4.96403 21.5 6.75 21.5H17.25C19.036 21.5 20.5 20.036 20.5 18.25V5.75C20.5 3.96403 19.036 2.5 17.25 2.5H6.75ZM6.75 4H17.25C18.225 4 19 4.77497 19 5.75V18.25C19 19.225 18.225 20 17.25 20H6.75C5.77497 20 5 19.225 5 18.25V5.75C5 4.77497 5.77497 4 6.75 4ZM7.25 5.5C7.05109 5.5 6.86032 5.57901 6.71967 5.71967C6.57902 5.86032 6.5 6.05108 6.5 6.25C6.5 6.44891 6.57902 6.63967 6.71967 6.78033C6.86032 6.92098 7.05109 7 7.25 7C7.44891 7 7.63968 6.92098 7.78033 6.78033C7.92098 6.63967 8 6.44891 8 6.25C8 6.05108 7.92098 5.86032 7.78033 5.71967C7.63968 5.57901 7.44891 5.5 7.25 5.5ZM9.75 5.5C9.55109 5.5 9.36032 5.57901 9.21967 5.71967C9.07902 5.86032 9 6.05108 9 6.25C9 6.44891 9.07902 6.63967 9.21967 6.78033C9.36032 6.92098 9.55109 7 9.75 7C9.94891 7 10.1397 6.92098 10.2803 6.78033C10.421 6.63967 10.5 6.44891 10.5 6.25C10.5 6.05108 10.421 5.86032 10.2803 5.71967C10.1397 5.57901 9.94891 5.5 9.75 5.5ZM16.5 5.5C16.2348 5.5 15.9804 5.60535 15.7929 5.79289C15.6054 5.98043 15.5 6.23478 15.5 6.5C15.5 6.76521 15.6054 7.01957 15.7929 7.2071C15.9804 7.39464 16.2348 7.5 16.5 7.5C16.7652 7.5 17.0196 7.39464 17.2071 7.2071C17.3946 7.01957 17.5 6.76521 17.5 6.5C17.5 6.23478 17.3946 5.98043 17.2071 5.79289C17.0196 5.60535 16.7652 5.5 16.5 5.5ZM12 8C9.24759 8 7 10.2476 7 13C7 15.6543 9.08543 17.8401 11.7061 17.9922C11.8044 17.998 11.903 17.9843 11.9961 17.952C12.0892 17.9197 12.175 17.8694 12.2486 17.8039C12.3223 17.7384 12.3823 17.6591 12.4253 17.5704C12.4683 17.4818 12.4934 17.3855 12.4991 17.2871C12.5049 17.1887 12.4912 17.0902 12.4589 16.9971C12.4266 16.904 12.3763 16.8182 12.3108 16.7446C12.2453 16.6709 12.166 16.6109 12.0773 16.5679C11.9886 16.525 11.8923 16.4999 11.7939 16.4941C9.95257 16.3873 8.5 14.8727 8.5 13C8.5 11.0584 10.0584 9.5 12 9.5C13.9416 9.5 15.5 11.0584 15.5 13C15.5 13.6598 15.3146 14.2707 15 14.7949V14.75C15.0014 14.6496 14.9827 14.55 14.9449 14.457C14.9071 14.3639 14.8511 14.2795 14.78 14.2085C14.709 14.1376 14.6245 14.0816 14.5314 14.0439C14.4383 14.0063 14.3387 13.9877 14.2383 13.9893C14.0395 13.9924 13.8502 14.0742 13.7117 14.2169C13.5733 14.3595 13.4971 14.5513 13.5 14.75V16.75C13.5 16.9489 13.579 17.1397 13.7197 17.2803C13.8603 17.421 14.0511 17.5 14.25 17.5H16.25C16.3494 17.5014 16.4481 17.483 16.5403 17.446C16.6325 17.4089 16.7164 17.3539 16.7872 17.2841C16.858 17.2143 16.9142 17.1312 16.9526 17.0395C16.9909 16.9478 17.0107 16.8494 17.0107 16.75C17.0107 16.6506 16.9909 16.5522 16.9526 16.4605C16.9142 16.3688 16.858 16.2857 16.7872 16.2159C16.7164 16.1461 16.6325 16.0911 16.5403 16.054C16.4481 16.017 16.3494 15.9986 16.25 16H15.9902C16.6207 15.1623 17 14.1249 17 13C17 10.2476 14.7524 8 12 8Z" fill="#A6A6A6"/>
</svg>
