<svg width="16" height="16" viewBox="0 0 17 16" fill="none" xmlns="http://www.w3.org/2000/svg">
<path d="M6.20667 2.46C5.47872 2.76132 4.81725 3.20306 4.26 3.76M2.96 5.70667C2.6577 6.43353 2.5014 7.21278 2.5 8M2.96 10.2933C3.26133 11.0213 3.70306 11.6828 4.26 12.24M6.20667 13.54C6.93353 13.8423 7.71278 13.9986 8.5 14M10.7933 13.54C11.5213 13.2387 12.1828 12.7969 12.74 12.24M14.04 10.2933C14.3423 9.56647 14.4986 8.78722 14.5 8M14.04 5.70667C13.7387 4.97872 13.2969 4.31725 12.74 3.76M10.7933 2.46C10.0665 2.1577 9.28722 2.0014 8.5 2" stroke="#8D8D8D" stroke-width="1.5" stroke-linecap="round" stroke-linejoin="round"/>
</svg>
