<svg width="16" height="16" viewBox="0 0 17 16" fill="none" xmlns="http://www.w3.org/2000/svg">
<path d="M11.8333 2.22667C12.8388 2.80724 13.6753 3.64035 14.2599 4.64353C14.8445 5.64672 15.1569 6.78518 15.1663 7.94623C15.1757 9.10727 14.8816 10.2506 14.3133 11.2631C13.745 12.2756 12.9222 13.1221 11.9262 13.7189C10.9302 14.3156 9.79557 14.6419 8.63473 14.6654C7.47388 14.6889 6.32703 14.4088 5.3077 13.8528C4.28837 13.2969 3.43191 12.4843 2.82311 11.4957C2.2143 10.507 1.87427 9.37647 1.83666 8.216L1.83333 8L1.83666 7.784C1.874 6.63266 2.20903 5.51064 2.80909 4.52733C3.40915 3.54402 4.25376 2.73297 5.26059 2.17325C6.26742 1.61354 7.40209 1.32426 8.554 1.33362C9.70591 1.34299 10.8357 1.65066 11.8333 2.22667ZM10.9713 6.19533C10.8565 6.08055 10.7038 6.01159 10.5418 6.00141C10.3798 5.99122 10.2196 6.0405 10.0913 6.14L10.0287 6.19533L7.83333 8.39L6.97133 7.52867L6.90866 7.47333C6.78039 7.3739 6.62024 7.32468 6.45826 7.3349C6.29629 7.34512 6.1436 7.41408 6.02884 7.52884C5.91407 7.6436 5.84512 7.79629 5.8349 7.95827C5.82468 8.12025 5.8739 8.28039 5.97333 8.40867L6.02866 8.47133L7.362 9.80467L7.42466 9.86C7.54158 9.95071 7.68535 9.99994 7.83333 9.99994C7.98131 9.99994 8.12508 9.95071 8.24199 9.86L8.30466 9.80467L10.9713 7.138L11.0267 7.07533C11.1262 6.94706 11.1754 6.7869 11.1653 6.62488C11.1551 6.46286 11.0861 6.31013 10.9713 6.19533Z" fill="#0090FF"/>
</svg>
