<svg version="1.1" id="Layer_1" xmlns="http://www.w3.org/2000/svg" xmlns:xlink="http://www.w3.org/1999/xlink" x="0px" y="0px" viewBox="0 0 100 100" xml:space="preserve"><desc>Copyright Opto 22</desc> 
<g>
	<g>
		<linearGradient id="SVGID_1_" gradientUnits="userSpaceOnUse" x1="49.3411" y1="55.1893" x2="51.021" y2="55.1893">
			<stop offset="0" style="stop-color:#CCCCCC"></stop>
			<stop offset="1" style="stop-color:#262626"></stop>
		</linearGradient>
		<path fill="url(#SVGID_1_)" stroke="#000000" stroke-width="0.1695" stroke-miterlimit="10" d="M51.021,43.054V11.5h-1.68v30.272
			v53.864v2.68c0,0,0.186,0.563,0.879,0.563c0.694,0,0.8-0.563,0.8-0.563V97.05V43.054z"></path>
		<linearGradient id="SVGID_2_" gradientUnits="userSpaceOnUse" x1="51.0721" y1="44.7518" x2="57.5157" y2="44.7518">
			<stop offset="0" style="stop-color:#CCCCCC"></stop>
			<stop offset="1" style="stop-color:#262626"></stop>
		</linearGradient>
		<path fill="url(#SVGID_2_)" stroke="#000000" stroke-width="0.1701" stroke-miterlimit="10" d="M51.072,45.309
			c1.701,0.604,2.782,1.384,4.36,1.178c2.523-0.33,2.525-3.775,1.222-3.487c-0.944,0.209-3.881,0.297-5.583,0.33v-0.275"></path>
		<linearGradient id="SVGID_3_" gradientUnits="userSpaceOnUse" x1="51.0721" y1="70.5187" x2="57.5157" y2="70.5187">
			<stop offset="0" style="stop-color:#CCCCCC"></stop>
			<stop offset="1" style="stop-color:#262626"></stop>
		</linearGradient>
		<path fill="url(#SVGID_3_)" stroke="#000000" stroke-width="0.1701" stroke-miterlimit="10" d="M51.072,71.076
			c1.701,0.604,2.782,1.384,4.36,1.178c2.523-0.33,2.525-3.775,1.222-3.487c-0.944,0.209-3.881,0.297-5.583,0.33"></path>
		<linearGradient id="SVGID_4_" gradientUnits="userSpaceOnUse" x1="51.0721" y1="96.6247" x2="57.5157" y2="96.6247">
			<stop offset="0" style="stop-color:#CCCCCC"></stop>
			<stop offset="1" style="stop-color:#262626"></stop>
		</linearGradient>
		<path fill="url(#SVGID_4_)" stroke="#000000" stroke-width="0.1701" stroke-miterlimit="10" d="M51.072,97.182
			c1.701,0.604,2.782,1.384,4.36,1.178c2.523-0.33,2.525-3.775,1.222-3.487c-0.944,0.209-3.881,0.297-5.583,0.33"></path>
		<linearGradient id="SVGID_5_" gradientUnits="userSpaceOnUse" x1="42.8061" y1="94.0551" x2="49.3711" y2="94.0551">
			<stop offset="0" style="stop-color:#CCCCCC"></stop>
			<stop offset="1" style="stop-color:#262626"></stop>
		</linearGradient>
		<path fill="url(#SVGID_5_)" stroke="#000000" stroke-width="0.1701" stroke-miterlimit="10" d="M49.371,93.627
			c0-0.616-2.693-1.528-4.388-1.307c-2.523,0.33-2.672,3.775-1.369,3.487c1.043-0.231,5.757-0.314,5.757-0.339v0.167"></path>
		<linearGradient id="SVGID_6_" gradientUnits="userSpaceOnUse" x1="42.8061" y1="67.9491" x2="49.3711" y2="67.9491">
			<stop offset="0" style="stop-color:#CCCCCC"></stop>
			<stop offset="1" style="stop-color:#262626"></stop>
		</linearGradient>
		<path fill="url(#SVGID_6_)" stroke="#000000" stroke-width="0.1701" stroke-miterlimit="10" d="M49.371,67.521
			c0-0.616-2.693-1.528-4.388-1.307c-2.523,0.33-2.672,3.775-1.369,3.487c1.043-0.231,5.757-0.314,5.757-0.339"></path>
		<linearGradient id="SVGID_7_" gradientUnits="userSpaceOnUse" x1="42.8061" y1="42.1822" x2="49.3711" y2="42.1822">
			<stop offset="0" style="stop-color:#CCCCCC"></stop>
			<stop offset="1" style="stop-color:#262626"></stop>
		</linearGradient>
		<path fill="url(#SVGID_7_)" stroke="#000000" stroke-width="0.1701" stroke-miterlimit="10" d="M49.371,41.754
			c0-0.616-2.693-1.528-4.388-1.307c-2.523,0.33-2.672,3.775-1.369,3.487c1.043-0.231,5.757-0.314,5.757-0.339"></path>
		
			<line fill="none" stroke="#FFFFFF" stroke-width="0.1695" stroke-miterlimit="10" x1="49.904" y1="69.571" x2="49.904" y2="93.638"></line>
		
			<line fill="none" stroke="#FFFFFF" stroke-width="0.1695" stroke-miterlimit="10" x1="49.904" y1="43.769" x2="49.904" y2="67.573"></line>
		
			<line fill="none" stroke="#FFFFFF" stroke-width="0.1695" stroke-miterlimit="10" x1="49.904" y1="11.5" x2="49.904" y2="41.772"></line>
	</g>
	<g id="motor">
		<polygon fill="#E6E6E6" stroke="#000000" stroke-width="0.1695" stroke-miterlimit="10" points="54.552,11.821 54.552,8.671 
			53.652,8.671 53.652,12.722 57.703,12.89 57.703,11.99 		"></polygon>
		<polygon fill="#E6E6E6" stroke="#000000" stroke-width="0.1695" stroke-miterlimit="10" points="45.607,11.821 45.607,8.671 
			46.507,8.671 46.507,12.722 42.456,12.89 42.456,11.99 		"></polygon>
		<g>
			<g>
				<g>
					<linearGradient id="SVGID_8_" gradientUnits="userSpaceOnUse" x1="46.781" y1="4.9035" x2="53.301" y2="4.9035">
						<stop offset="0" style="stop-color:#534741"></stop>
						<stop offset="0.2674" style="stop-color:#F8E5BA"></stop>
						<stop offset="0.3579" style="stop-color:#CBBA99"></stop>
						<stop offset="0.4589" style="stop-color:#A0917A"></stop>
						<stop offset="0.557" style="stop-color:#7F7161"></stop>
						<stop offset="0.6501" style="stop-color:#675A4F"></stop>
						<stop offset="0.736" style="stop-color:#584C45"></stop>
						<stop offset="0.8078" style="stop-color:#534741"></stop>
					</linearGradient>
					<path fill="url(#SVGID_8_)" d="M53.301,8.808v-7.3c0-0.28-0.229-0.509-0.509-0.509H47.29c-0.28,0-0.509,0.229-0.509,0.509v7.3"></path>
					<path fill="none" stroke="#000000" stroke-width="0.1695" stroke-miterlimit="10" d="M53.301,8.808v-7.3
						c0-0.28-0.229-0.509-0.509-0.509H47.29c-0.28,0-0.509,0.229-0.509,0.509v7.3"></path>
				</g>
				<g>
					<linearGradient id="SVGID_9_" gradientUnits="userSpaceOnUse" x1="46.342" y1="9.951" x2="53.74" y2="9.951">
						<stop offset="0" style="stop-color:#534741"></stop>
						<stop offset="0.2674" style="stop-color:#F8E5BA"></stop>
						<stop offset="0.3579" style="stop-color:#CBBA99"></stop>
						<stop offset="0.4589" style="stop-color:#A0917A"></stop>
						<stop offset="0.557" style="stop-color:#7F7161"></stop>
						<stop offset="0.6501" style="stop-color:#675A4F"></stop>
						<stop offset="0.736" style="stop-color:#584C45"></stop>
						<stop offset="0.8078" style="stop-color:#534741"></stop>
					</linearGradient>
					<path fill="url(#SVGID_9_)" d="M46.342,8.315v2.594c0,0.373,0.305,0.678,0.678,0.678h6.042c0.373,0,0.678-0.305,0.678-0.678
						V8.315"></path>
					<path fill="none" stroke="#000000" stroke-width="0.1695" stroke-miterlimit="10" d="M46.342,8.315v2.594
						c0,0.373,0.305,0.678,0.678,0.678h6.042c0.373,0,0.678-0.305,0.678-0.678V8.315"></path>
				</g>
			</g>
			
				<line fill="none" stroke="#000000" stroke-width="0.339" stroke-miterlimit="10" x1="53.232" y1="3.054" x2="47.051" y2="3.054"></line>
			<g>
				<line fill="none" stroke="#000000" stroke-width="0.339" stroke-miterlimit="10" x1="52.64" y1="3.449" x2="52.64" y2="8.315"></line>
				
					<line fill="none" stroke="#000000" stroke-width="0.339" stroke-miterlimit="10" x1="47.577" y1="3.449" x2="47.577" y2="8.315"></line>
				
					<line fill="none" stroke="#000000" stroke-width="0.339" stroke-miterlimit="10" x1="48.497" y1="3.449" x2="48.497" y2="8.315"></line>
				
					<line fill="none" stroke="#000000" stroke-width="0.339" stroke-miterlimit="10" x1="49.582" y1="3.449" x2="49.582" y2="8.315"></line>
				
					<line fill="none" stroke="#000000" stroke-width="0.339" stroke-miterlimit="10" x1="50.733" y1="3.449" x2="50.733" y2="8.315"></line>
				
					<line fill="none" stroke="#000000" stroke-width="0.339" stroke-miterlimit="10" x1="51.851" y1="3.449" x2="51.851" y2="8.315"></line>
			</g>
		</g>
	</g>
</g>
</svg>