<svg version="1.1" id="Layer_1" xmlns="http://www.w3.org/2000/svg" xmlns:xlink="http://www.w3.org/1999/xlink" x="0px" y="0px" viewBox="0 0 100 100" xml:space="preserve"><desc>Copyright Opto 22</desc> 
<g>
	<path fill="none" stroke="#000000" stroke-width="0.3768" d="M47.74,55.417c-3.969,0.534-7.024,2.119-8.17,4.24
		c-0.315,0.582-0.471,1.183-0.469,1.785c0.001,0.551,0.136,1.103,0.403,1.643c1.634,3.302,7.741,5.239,13.902,4.41
		c3.969-0.534,7.024-2.12,8.171-4.241c0.312-0.577,0.469-1.175,0.469-1.774c0-0.555-0.135-1.11-0.403-1.653
		C60.035,56.58,53.799,54.602,47.74,55.417z"></path>
	<path fill="#B3B3B3" stroke="#000000" stroke-width="0.3768" d="M34.956,72.978c0.001,0.551,0.136,1.103,0.403,1.643
		c1.634,3.302,7.741,5.239,13.902,4.41c3.969-0.534,7.024-2.12,8.171-4.241c0.312-0.577,0.469-1.175,0.469-1.774v-13.42
		c0-0.555-0.135-1.11-0.403-1.653c-1.607-3.248-7.843-5.226-13.902-4.411c-3.969,0.534-7.024,2.119-8.17,4.24
		c-0.315,0.582-0.471,1.183-0.469,1.785V72.978z"></path>
	<g>
		<polygon fill="#B3B3B3" stroke="#000000" stroke-width="0.3768" points="36.037,32.601 38.655,31.21 99.317,63.464 99.317,66.804 
			96.699,68.196 36.037,35.941 		"></polygon>
		<polygon fill="#CCCCCC" points="38.655,31.21 36.037,32.601 96.699,64.856 99.317,63.464 		"></polygon>
		<polygon fill="#B3B3B3" stroke="#000000" stroke-width="0.3768" points="94.317,64.401 92.89,63.642 59.812,81.229 59.812,83.051 
			61.24,83.81 94.317,66.222 		"></polygon>
		<polygon fill="#CCCCCC" points="92.89,63.642 94.317,64.401 61.24,81.989 59.812,81.229 		"></polygon>
		<polygon fill="#B3B3B3" stroke="#000000" stroke-width="0.3768" points="65.677,48.573 64.25,47.815 31.172,65.402 31.172,67.224 
			32.6,67.982 65.677,50.395 		"></polygon>
		<polygon fill="#CCCCCC" points="64.25,47.815 65.677,48.573 32.6,66.161 31.172,65.402 		"></polygon>
		<polygon fill="#B3B3B3" stroke="#000000" stroke-width="0.3768" points="38.961,35.125 37.533,34.366 4.455,51.954 4.455,53.776 
			5.882,54.534 38.961,36.947 		"></polygon>
		<polygon fill="#CCCCCC" points="37.533,34.366 38.961,35.125 5.882,52.713 4.455,51.954 		"></polygon>
		<polygon fill="#B3B3B3" stroke="#000000" stroke-width="0.3768" points="2,50.699 4.618,49.307 65.28,81.562 65.28,84.902 
			62.662,86.294 2,54.039 		"></polygon>
		<polygon fill="#CCCCCC" points="4.618,49.307 2,50.699 62.662,82.953 65.28,81.562 		"></polygon>
	</g>
	<polygon fill="none" stroke="#000000" stroke-width="0.3768" points="29.369,14.6 3.442,50.006 63.088,81.72 89.015,46.314 	"></polygon>
	<polygon points="29.181,14.882 21.134,25.871 40.262,36.041 48.308,25.052 	"></polygon>
	<polygon points="49.439,25.655 41.393,36.643 60.521,46.813 68.567,35.825 	"></polygon>
	<polygon points="52.007,60.562 43.96,71.55 63.087,81.72 71.134,70.732 	"></polygon>
	<polygon points="11.488,39.017 3.442,50.006 22.57,60.176 30.616,49.188 	"></polygon>
	<polygon points="31.747,49.79 23.701,60.778 42.828,70.948 50.875,59.96 	"></polygon>
	<polygon points="61.051,48.597 53.004,59.585 72.132,69.756 80.178,58.767 	"></polygon>
	<polygon points="20.532,27.053 12.486,38.041 31.614,48.211 39.66,37.223 	"></polygon>
	<polygon points="40.791,37.825 32.745,48.813 51.873,58.983 59.919,47.995 	"></polygon>
	<g>
		<polygon points="69.511,36.332 61.464,47.321 80.591,57.491 88.638,46.503 		"></polygon>
		<polygon fill="#0C315B" points="69.511,35.767 61.464,46.755 80.591,56.926 88.638,45.937 		"></polygon>
		<g>
			<line fill="none" stroke="#1B5290" stroke-width="0.0942" x1="69.511" y1="35.767" x2="88.638" y2="45.937"></line>
			<line fill="none" stroke="#1B5290" stroke-width="0.0942" x1="68.84" y1="36.683" x2="87.968" y2="46.853"></line>
			<line fill="none" stroke="#1B5290" stroke-width="0.0942" x1="68.169" y1="37.598" x2="87.297" y2="47.769"></line>
			<line fill="none" stroke="#1B5290" stroke-width="0.0942" x1="67.499" y1="38.514" x2="86.626" y2="48.684"></line>
			<line fill="none" stroke="#1B5290" stroke-width="0.0942" x1="66.828" y1="39.43" x2="85.956" y2="49.6"></line>
			<line fill="none" stroke="#1B5290" stroke-width="0.0942" x1="66.158" y1="40.346" x2="85.285" y2="50.516"></line>
			<line fill="none" stroke="#1B5290" stroke-width="0.0942" x1="65.487" y1="41.261" x2="84.615" y2="51.432"></line>
			<line fill="none" stroke="#1B5290" stroke-width="0.0942" x1="64.817" y1="42.177" x2="83.944" y2="52.347"></line>
			<line fill="none" stroke="#1B5290" stroke-width="0.0942" x1="64.146" y1="43.093" x2="83.274" y2="53.263"></line>
			<line fill="none" stroke="#1B5290" stroke-width="0.0942" x1="63.475" y1="44.008" x2="82.603" y2="54.179"></line>
			<line fill="none" stroke="#1B5290" stroke-width="0.0942" x1="62.805" y1="44.924" x2="81.932" y2="55.094"></line>
			<line fill="none" stroke="#1B5290" stroke-width="0.0942" x1="62.134" y1="45.84" x2="81.262" y2="56.01"></line>
			<line fill="none" stroke="#1B5290" stroke-width="0.0942" x1="61.464" y1="46.755" x2="80.591" y2="56.926"></line>
		</g>
	</g>
	<g>
		<polygon fill="#0C315B" points="60.862,47.937 52.816,58.926 71.943,69.096 79.99,58.108 		"></polygon>
		<g>
			<line fill="none" stroke="#1B5290" stroke-width="0.0942" x1="60.862" y1="47.937" x2="79.99" y2="58.108"></line>
			<line fill="none" stroke="#1B5290" stroke-width="0.0942" x1="60.192" y1="48.853" x2="79.319" y2="59.023"></line>
			<line fill="none" stroke="#1B5290" stroke-width="0.0942" x1="59.521" y1="49.769" x2="78.649" y2="59.939"></line>
			<line fill="none" stroke="#1B5290" stroke-width="0.0942" x1="58.851" y1="50.685" x2="77.978" y2="60.855"></line>
			<line fill="none" stroke="#1B5290" stroke-width="0.0942" x1="58.18" y1="51.6" x2="77.308" y2="61.771"></line>
			<line fill="none" stroke="#1B5290" stroke-width="0.0942" x1="57.51" y1="52.516" x2="76.637" y2="62.686"></line>
			<line fill="none" stroke="#1B5290" stroke-width="0.0942" x1="56.839" y1="53.432" x2="75.967" y2="63.602"></line>
			<line fill="none" stroke="#1B5290" stroke-width="0.0942" x1="56.168" y1="54.347" x2="75.296" y2="64.518"></line>
			<line fill="none" stroke="#1B5290" stroke-width="0.0942" x1="55.498" y1="55.263" x2="74.625" y2="65.433"></line>
			<line fill="none" stroke="#1B5290" stroke-width="0.0942" x1="54.827" y1="56.179" x2="73.955" y2="66.349"></line>
			<line fill="none" stroke="#1B5290" stroke-width="0.0942" x1="54.157" y1="57.094" x2="73.284" y2="67.265"></line>
			<line fill="none" stroke="#1B5290" stroke-width="0.0942" x1="53.486" y1="58.01" x2="72.614" y2="68.18"></line>
			<line fill="none" stroke="#1B5290" stroke-width="0.0942" x1="52.816" y1="58.926" x2="71.943" y2="69.096"></line>
		</g>
	</g>
	<g>
		<polygon fill="#0C315B" points="51.818,59.902 43.772,70.891 62.9,81.061 70.946,70.072 		"></polygon>
		<g>
			<line fill="none" stroke="#1B5290" stroke-width="0.0942" x1="51.818" y1="59.902" x2="70.946" y2="70.072"></line>
			<line fill="none" stroke="#1B5290" stroke-width="0.0942" x1="51.148" y1="60.818" x2="70.275" y2="70.988"></line>
			<line fill="none" stroke="#1B5290" stroke-width="0.0942" x1="50.477" y1="61.734" x2="69.605" y2="71.904"></line>
			<line fill="none" stroke="#1B5290" stroke-width="0.0942" x1="49.807" y1="62.649" x2="68.934" y2="72.82"></line>
			<line fill="none" stroke="#1B5290" stroke-width="0.0942" x1="49.136" y1="63.565" x2="68.264" y2="73.735"></line>
			<line fill="none" stroke="#1B5290" stroke-width="0.0942" x1="48.466" y1="64.481" x2="67.593" y2="74.651"></line>
			<line fill="none" stroke="#1B5290" stroke-width="0.0942" x1="47.795" y1="65.396" x2="66.923" y2="75.567"></line>
			<line fill="none" stroke="#1B5290" stroke-width="0.0942" x1="47.125" y1="66.312" x2="66.252" y2="76.482"></line>
			<line fill="none" stroke="#1B5290" stroke-width="0.0942" x1="46.454" y1="67.228" x2="65.582" y2="77.398"></line>
			<line fill="none" stroke="#1B5290" stroke-width="0.0942" x1="45.784" y1="68.143" x2="64.911" y2="78.314"></line>
			<line fill="none" stroke="#1B5290" stroke-width="0.0942" x1="45.113" y1="69.059" x2="64.241" y2="79.229"></line>
			<line fill="none" stroke="#1B5290" stroke-width="0.0942" x1="44.443" y1="69.975" x2="63.57" y2="80.145"></line>
			<line fill="none" stroke="#1B5290" stroke-width="0.0942" x1="43.772" y1="70.891" x2="62.9" y2="81.061"></line>
		</g>
	</g>
	<g>
		<polygon fill="#0C315B" points="49.251,24.995 41.205,35.983 60.332,46.153 68.379,35.165 		"></polygon>
		<g>
			<line fill="none" stroke="#1B5290" stroke-width="0.0942" x1="49.251" y1="24.995" x2="68.379" y2="35.165"></line>
			<line fill="none" stroke="#1B5290" stroke-width="0.0942" x1="48.58" y1="25.91" x2="67.708" y2="36.081"></line>
			<line fill="none" stroke="#1B5290" stroke-width="0.0942" x1="47.91" y1="26.826" x2="67.038" y2="36.996"></line>
			<line fill="none" stroke="#1B5290" stroke-width="0.0942" x1="47.239" y1="27.742" x2="66.367" y2="37.912"></line>
			<line fill="none" stroke="#1B5290" stroke-width="0.0942" x1="46.569" y1="28.658" x2="65.697" y2="38.828"></line>
			<line fill="none" stroke="#1B5290" stroke-width="0.0942" x1="45.898" y1="29.573" x2="65.026" y2="39.743"></line>
			<line fill="none" stroke="#1B5290" stroke-width="0.0942" x1="45.228" y1="30.489" x2="64.355" y2="40.659"></line>
			<line fill="none" stroke="#1B5290" stroke-width="0.0942" x1="44.557" y1="31.405" x2="63.685" y2="41.575"></line>
			<line fill="none" stroke="#1B5290" stroke-width="0.0942" x1="43.887" y1="32.32" x2="63.014" y2="42.491"></line>
			<line fill="none" stroke="#1B5290" stroke-width="0.0942" x1="43.216" y1="33.236" x2="62.344" y2="43.406"></line>
			<line fill="none" stroke="#1B5290" stroke-width="0.0942" x1="42.546" y1="34.152" x2="61.673" y2="44.322"></line>
			<line fill="none" stroke="#1B5290" stroke-width="0.0942" x1="41.875" y1="35.067" x2="61.003" y2="45.238"></line>
			<line fill="none" stroke="#1B5290" stroke-width="0.0942" x1="41.205" y1="35.983" x2="60.332" y2="46.153"></line>
		</g>
	</g>
	<g>
		<polygon fill="#0C315B" points="40.603,37.165 32.557,48.153 51.684,58.324 59.73,47.335 		"></polygon>
		<g>
			<line fill="none" stroke="#1B5290" stroke-width="0.0942" x1="40.603" y1="37.165" x2="59.73" y2="47.335"></line>
			<line fill="none" stroke="#1B5290" stroke-width="0.0942" x1="39.932" y1="38.081" x2="59.06" y2="48.251"></line>
			<line fill="none" stroke="#1B5290" stroke-width="0.0942" x1="39.262" y1="38.997" x2="58.389" y2="49.167"></line>
			<line fill="none" stroke="#1B5290" stroke-width="0.0942" x1="38.591" y1="39.912" x2="57.719" y2="50.082"></line>
			<line fill="none" stroke="#1B5290" stroke-width="0.0942" x1="37.921" y1="40.828" x2="57.048" y2="50.998"></line>
			<line fill="none" stroke="#1B5290" stroke-width="0.0942" x1="37.25" y1="41.744" x2="56.378" y2="51.914"></line>
			<line fill="none" stroke="#1B5290" stroke-width="0.0942" x1="36.58" y1="42.659" x2="55.707" y2="52.83"></line>
			<line fill="none" stroke="#1B5290" stroke-width="0.0942" x1="35.909" y1="43.575" x2="55.037" y2="53.745"></line>
			<line fill="none" stroke="#1B5290" stroke-width="0.0942" x1="35.239" y1="44.491" x2="54.366" y2="54.661"></line>
			<line fill="none" stroke="#1B5290" stroke-width="0.0942" x1="34.568" y1="45.406" x2="53.696" y2="55.577"></line>
			<line fill="none" stroke="#1B5290" stroke-width="0.0942" x1="33.898" y1="46.322" x2="53.025" y2="56.492"></line>
			<line fill="none" stroke="#1B5290" stroke-width="0.0942" x1="33.227" y1="47.238" x2="52.355" y2="57.408"></line>
			<line fill="none" stroke="#1B5290" stroke-width="0.0942" x1="32.557" y1="48.153" x2="51.684" y2="58.324"></line>
		</g>
	</g>
	<g>
		<polygon fill="#0C315B" points="31.559,49.13 23.512,60.118 42.64,70.288 50.687,59.3 		"></polygon>
		<g>
			<line fill="none" stroke="#1B5290" stroke-width="0.0942" x1="31.559" y1="49.13" x2="50.687" y2="59.3"></line>
			<line fill="none" stroke="#1B5290" stroke-width="0.0942" x1="30.889" y1="50.046" x2="50.016" y2="60.216"></line>
			<line fill="none" stroke="#1B5290" stroke-width="0.0942" x1="30.218" y1="50.961" x2="49.346" y2="61.131"></line>
			<line fill="none" stroke="#1B5290" stroke-width="0.0942" x1="29.548" y1="51.877" x2="48.675" y2="62.047"></line>
			<line fill="none" stroke="#1B5290" stroke-width="0.0942" x1="28.877" y1="52.793" x2="48.005" y2="62.963"></line>
			<line fill="none" stroke="#1B5290" stroke-width="0.0942" x1="28.206" y1="53.708" x2="47.334" y2="63.879"></line>
			<line fill="none" stroke="#1B5290" stroke-width="0.0942" x1="27.536" y1="54.624" x2="46.663" y2="64.794"></line>
			<line fill="none" stroke="#1B5290" stroke-width="0.0942" x1="26.865" y1="55.54" x2="45.993" y2="65.71"></line>
			<line fill="none" stroke="#1B5290" stroke-width="0.0942" x1="26.195" y1="56.455" x2="45.322" y2="66.626"></line>
			<line fill="none" stroke="#1B5290" stroke-width="0.0942" x1="25.524" y1="57.371" x2="44.652" y2="67.541"></line>
			<line fill="none" stroke="#1B5290" stroke-width="0.0942" x1="24.854" y1="58.287" x2="43.981" y2="68.457"></line>
			<line fill="none" stroke="#1B5290" stroke-width="0.0942" x1="24.183" y1="59.202" x2="43.311" y2="69.373"></line>
			<line fill="none" stroke="#1B5290" stroke-width="0.0942" x1="23.512" y1="60.118" x2="42.64" y2="70.288"></line>
		</g>
	</g>
	<g>
		<polygon fill="#0C315B" points="28.992,14.223 20.945,25.211 40.073,35.381 48.12,24.393 		"></polygon>
		<g>
			<line fill="none" stroke="#1B5290" stroke-width="0.0942" x1="28.992" y1="14.223" x2="48.12" y2="24.393"></line>
			<line fill="none" stroke="#1B5290" stroke-width="0.0942" x1="28.322" y1="15.138" x2="47.449" y2="25.309"></line>
			<line fill="none" stroke="#1B5290" stroke-width="0.0942" x1="27.651" y1="16.054" x2="46.779" y2="26.224"></line>
			<line fill="none" stroke="#1B5290" stroke-width="0.0942" x1="26.98" y1="16.97" x2="46.108" y2="27.14"></line>
			<line fill="none" stroke="#1B5290" stroke-width="0.0942" x1="26.31" y1="17.886" x2="45.437" y2="28.056"></line>
			<line fill="none" stroke="#1B5290" stroke-width="0.0942" x1="25.639" y1="18.801" x2="44.767" y2="28.972"></line>
			<line fill="none" stroke="#1B5290" stroke-width="0.0942" x1="24.969" y1="19.717" x2="44.096" y2="29.887"></line>
			<line fill="none" stroke="#1B5290" stroke-width="0.0942" x1="24.298" y1="20.633" x2="43.426" y2="30.803"></line>
			<line fill="none" stroke="#1B5290" stroke-width="0.0942" x1="23.628" y1="21.548" x2="42.755" y2="31.719"></line>
			<line fill="none" stroke="#1B5290" stroke-width="0.0942" x1="22.957" y1="22.464" x2="42.085" y2="32.634"></line>
			<line fill="none" stroke="#1B5290" stroke-width="0.0942" x1="22.286" y1="23.38" x2="41.414" y2="33.55"></line>
			<line fill="none" stroke="#1B5290" stroke-width="0.0942" x1="21.616" y1="24.295" x2="40.743" y2="34.466"></line>
			<line fill="none" stroke="#1B5290" stroke-width="0.0942" x1="20.945" y1="25.211" x2="40.073" y2="35.381"></line>
		</g>
	</g>
	<g>
		<polygon fill="#0C315B" points="20.344,26.393 12.297,37.382 31.425,47.552 39.472,36.563 		"></polygon>
		<g>
			<line fill="none" stroke="#1B5290" stroke-width="0.0942" x1="20.344" y1="26.393" x2="39.472" y2="36.563"></line>
			<line fill="none" stroke="#1B5290" stroke-width="0.0942" x1="19.673" y1="27.309" x2="38.801" y2="37.479"></line>
			<line fill="none" stroke="#1B5290" stroke-width="0.0942" x1="19.003" y1="28.225" x2="38.13" y2="38.395"></line>
			<line fill="none" stroke="#1B5290" stroke-width="0.0942" x1="18.332" y1="29.14" x2="37.46" y2="39.311"></line>
			<line fill="none" stroke="#1B5290" stroke-width="0.0942" x1="17.662" y1="30.056" x2="36.789" y2="40.226"></line>
			<line fill="none" stroke="#1B5290" stroke-width="0.0942" x1="16.991" y1="30.972" x2="36.119" y2="41.142"></line>
			<line fill="none" stroke="#1B5290" stroke-width="0.0942" x1="16.321" y1="31.887" x2="35.448" y2="42.058"></line>
			<line fill="none" stroke="#1B5290" stroke-width="0.0942" x1="15.65" y1="32.803" x2="34.778" y2="42.973"></line>
			<line fill="none" stroke="#1B5290" stroke-width="0.0942" x1="14.979" y1="33.719" x2="34.107" y2="43.889"></line>
			<line fill="none" stroke="#1B5290" stroke-width="0.0942" x1="14.309" y1="34.634" x2="33.436" y2="44.805"></line>
			<line fill="none" stroke="#1B5290" stroke-width="0.0942" x1="13.638" y1="35.55" x2="32.766" y2="45.72"></line>
			<line fill="none" stroke="#1B5290" stroke-width="0.0942" x1="12.968" y1="36.466" x2="32.095" y2="46.636"></line>
			<line fill="none" stroke="#1B5290" stroke-width="0.0942" x1="12.297" y1="37.382" x2="31.425" y2="47.552"></line>
		</g>
	</g>
	<g>
		<polygon fill="#0C315B" points="11.3,38.358 3.253,49.346 22.381,59.516 30.427,48.528 		"></polygon>
		<g>
			<line fill="none" stroke="#1B5290" stroke-width="0.0942" x1="11.3" y1="38.358" x2="30.427" y2="48.528"></line>
			<line fill="none" stroke="#1B5290" stroke-width="0.0942" x1="10.629" y1="39.274" x2="29.757" y2="49.444"></line>
			<line fill="none" stroke="#1B5290" stroke-width="0.0942" x1="9.959" y1="40.189" x2="29.086" y2="50.36"></line>
			<line fill="none" stroke="#1B5290" stroke-width="0.0942" x1="9.288" y1="41.105" x2="28.416" y2="51.275"></line>
			<line fill="none" stroke="#1B5290" stroke-width="0.0942" x1="8.618" y1="42.021" x2="27.745" y2="52.191"></line>
			<line fill="none" stroke="#1B5290" stroke-width="0.0942" x1="7.947" y1="42.936" x2="27.075" y2="53.107"></line>
			<line fill="none" stroke="#1B5290" stroke-width="0.0942" x1="7.277" y1="43.852" x2="26.404" y2="54.022"></line>
			<line fill="none" stroke="#1B5290" stroke-width="0.0942" x1="6.606" y1="44.768" x2="25.734" y2="54.938"></line>
			<line fill="none" stroke="#1B5290" stroke-width="0.0942" x1="5.936" y1="45.683" x2="25.063" y2="55.854"></line>
			<line fill="none" stroke="#1B5290" stroke-width="0.0942" x1="5.265" y1="46.599" x2="24.393" y2="56.769"></line>
			<line fill="none" stroke="#1B5290" stroke-width="0.0942" x1="4.594" y1="47.515" x2="23.722" y2="57.685"></line>
			<line fill="none" stroke="#1B5290" stroke-width="0.0942" x1="3.924" y1="48.431" x2="23.052" y2="58.601"></line>
			<line fill="none" stroke="#1B5290" stroke-width="0.0942" x1="3.253" y1="49.346" x2="22.381" y2="59.516"></line>
		</g>
	</g>
	<linearGradient id="SVGID_1_" gradientUnits="userSpaceOnUse" x1="8.1776" y1="59.1746" x2="83.0528" y2="37.5003">
		<stop offset="0" style="stop-color:#FFFFFF"></stop>
		<stop offset="1" style="stop-color:#0C315B"></stop>
	</linearGradient>
	<polygon opacity="0.3" fill="url(#SVGID_1_)" points="29.369,14.6 3.065,49.629 63.088,81.72 88.638,45.937 	"></polygon>
</g>
</svg>