<svg width="130" height="130" viewBox="0 0 22 18" fill="none" xmlns="http://www.w3.org/2000/svg">
<g opacity="0.15">
<path d="M9.74841 1.39708e-05C9.64902 -0.00139156 9.55035 0.0169693 9.45812 0.0540296C9.3659 0.0910899 9.28196 0.14611 9.21118 0.215894C9.1404 0.285677 9.0842 0.368831 9.04584 0.460524C9.00748 0.552217 8.98772 0.65062 8.98772 0.750014C8.98772 0.849407 9.00748 0.94781 9.04584 1.0395C9.0842 1.1312 9.1404 1.21435 9.21118 1.28413C9.28196 1.35392 9.3659 1.40894 9.45812 1.446C9.55035 1.48306 9.64902 1.50142 9.74841 1.50001H15.2484C15.3478 1.50142 15.4465 1.48306 15.5387 1.446C15.6309 1.40894 15.7149 1.35392 15.7856 1.28413C15.8564 1.21435 15.9126 1.1312 15.951 1.0395C15.9893 0.94781 16.0091 0.849407 16.0091 0.750014C16.0091 0.65062 15.9893 0.552217 15.951 0.460524C15.9126 0.368831 15.8564 0.285677 15.7856 0.215894C15.7149 0.14611 15.6309 0.0910899 15.5387 0.0540296C15.4465 0.0169693 15.3478 -0.00139156 15.2484 1.39708e-05H9.74841ZM8.99059 2.50001C7.99648 2.50001 7.04255 2.89497 6.33923 3.59767C6.33923 3.59734 6.33923 3.59799 6.33923 3.59767L4.43786 5.50001H3.24841C3.0495 5.50003 2.85875 5.57906 2.7181 5.7197C2.57745 5.86035 2.49843 6.05111 2.49841 6.25001V13.75C2.49843 13.9489 2.57745 14.1397 2.7181 14.2803C2.85875 14.421 3.0495 14.5 3.24841 14.5H4.39684L6.07263 16.5107C6.59489 17.1375 7.36944 17.5 8.18493 17.5H14.0062C15.0003 17.5 15.9543 17.1051 16.6576 16.4023C16.6576 16.4027 16.6576 16.402 16.6576 16.4023L18.6937 14.3662C19.2092 13.8507 19.4994 13.1509 19.4994 12.4219V5.25001C19.4987 3.74031 18.2583 2.50001 16.7484 2.50001H8.99059ZM8.99059 4.00001H16.7484C17.4475 4.00001 17.9991 4.55072 17.9994 5.25001V12.4219C17.9994 12.7528 17.8667 13.0712 17.6322 13.3057L15.597 15.3408C15.1744 15.7631 14.6031 16 14.0062 16H8.18493C7.81342 16 7.4627 15.8361 7.22497 15.5508L5.32458 13.2695C5.25416 13.1851 5.16604 13.1172 5.06648 13.0707C4.96691 13.0241 4.85833 13 4.74841 13H3.99841V7.00001H4.74841C4.94731 6.99997 5.13805 6.92094 5.27868 6.78028L7.39977 4.65919C7.82245 4.2369 8.39371 4.00001 8.99059 4.00001ZM11.725 6.00001C11.7115 6.00001 11.6979 6.00096 11.6849 6.00196C11.5914 6.00946 11.5055 6.04128 11.434 6.09278C11.401 6.11628 11.3706 6.14429 11.3441 6.17579C11.3351 6.18679 11.3262 6.19797 11.3177 6.20997L8.59509 9.93849C8.49459 10.076 8.47109 10.2546 8.53259 10.4131C8.59409 10.5716 8.7318 10.6887 8.8988 10.7227L10.7699 11.1074L10.765 13.499C10.7645 13.7155 10.9037 13.9076 11.1097 13.9746C11.1607 13.9916 11.213 14 11.265 14C11.4215 14 11.5733 13.9259 11.6693 13.7949L14.3949 10.0615C14.4944 9.92403 14.5179 9.74542 14.4564 9.58692C14.3949 9.42842 14.2572 9.31135 14.0902 9.27735L12.2201 8.89259L12.224 6.53614C12.225 6.52414 12.2259 6.51251 12.2259 6.50001C12.2259 6.22551 12.0063 6.00301 11.7328 6.00001H11.725ZM21.2367 6.48927C21.0379 6.49237 20.8486 6.57424 20.7101 6.71688C20.5717 6.85951 20.4956 7.05127 20.4984 7.25001V12.25C20.497 12.3494 20.5154 12.4481 20.5524 12.5403C20.5895 12.6325 20.6445 12.7165 20.7143 12.7872C20.7841 12.858 20.8672 12.9142 20.9589 12.9526C21.0506 12.9909 21.149 13.0107 21.2484 13.0107C21.3478 13.0107 21.4462 12.9909 21.5379 12.9526C21.6296 12.9142 21.7127 12.858 21.7825 12.7872C21.8523 12.7165 21.9073 12.6325 21.9444 12.5403C21.9815 12.4481 21.9998 12.3494 21.9984 12.25V7.25001C21.9998 7.14963 21.9811 7.04998 21.9433 6.95696C21.9056 6.86395 21.8495 6.77947 21.7785 6.70853C21.7074 6.63759 21.6229 6.58162 21.5298 6.54396C21.4367 6.5063 21.3371 6.4877 21.2367 6.48927ZM0.736688 6.98927C0.537946 6.99237 0.348562 7.07424 0.210135 7.21687C0.071707 7.35951 -0.00444453 7.55126 -0.00159358 7.75001V12.25C-0.00299911 12.3494 0.0153617 12.4481 0.0524221 12.5403C0.0894824 12.6325 0.144503 12.7165 0.214286 12.7872C0.28407 12.858 0.367224 12.9142 0.458917 12.9526C0.55061 12.9909 0.649013 13.0107 0.748406 13.0107C0.8478 13.0107 0.946203 12.9909 1.0379 12.9526C1.12959 12.9142 1.21274 12.858 1.28253 12.7872C1.35231 12.7165 1.40733 12.6325 1.44439 12.5403C1.48145 12.4481 1.49981 12.3494 1.49841 12.25V7.75001C1.49985 7.64963 1.48112 7.54998 1.44334 7.45697C1.40556 7.36395 1.34949 7.27947 1.27845 7.20853C1.20742 7.13759 1.12286 7.08163 1.0298 7.04396C0.936743 7.0063 0.837069 6.9877 0.736688 6.98927Z" fill="#161616"/>
</g></svg>
