<svg xmlns="http://www.w3.org/2000/svg" width="130" height="130" viewBox="0 0 150 128" fill="none">
<g opacity="0.15">
<path d="M29.083 0.666016C13.2707 0.666016 0.333008 13.6037 0.333008 29.416V121.416C0.33316 122.941 0.939011 124.403 2.01731 125.482C3.09561 126.56 4.55806 127.166 6.08301 127.166H28.1621C28.7794 127.267 29.4091 127.267 30.0264 127.166H34.833V121.82C34.8377 121.686 34.8377 121.551 34.833 121.416V115.666V107.041C34.833 105.391 36.0581 104.166 37.708 104.166H46.333V127.166H57.833V104.166H69.333V127.166H80.833V104.166H92.333V127.166H103.833V104.166H112.458C114.108 104.166 115.333 105.391 115.333 107.041V121.416V127.166H120.162C120.779 127.267 121.409 127.267 122.026 127.166H144.083C145.608 127.166 147.07 126.56 148.149 125.482C149.227 124.403 149.833 122.941 149.833 121.416V29.416C149.833 13.6037 136.895 0.666016 121.083 0.666016H29.083ZM29.083 12.166H121.083C130.686 12.166 138.333 19.8133 138.333 29.416V115.666H126.833V107.041C126.833 99.1689 120.33 92.666 112.458 92.666H37.708C29.8359 92.666 23.333 99.1689 23.333 107.041V115.666H11.833V29.416C11.833 19.8133 19.4803 12.166 29.083 12.166ZM29.083 23.666C27.5581 23.6662 26.0956 24.272 25.0173 25.3503C23.939 26.4286 23.3332 27.8911 23.333 29.416V52.416C23.3332 53.941 23.939 55.4034 25.0173 56.4817C26.0956 57.56 27.5581 58.1659 29.083 58.166H75.083C76.608 58.1659 78.0704 57.56 79.1487 56.4817C80.227 55.4034 80.8329 53.941 80.833 52.416V29.416C80.8329 27.8911 80.227 26.4286 79.1487 25.3503C78.0704 24.272 76.608 23.6662 75.083 23.666H29.083ZM34.833 35.166H69.333V46.666H34.833V35.166ZM109.583 35.166C100.124 35.166 92.333 42.9572 92.333 52.416C92.333 61.8748 100.124 69.666 109.583 69.666C119.042 69.666 126.833 61.8748 126.833 52.416C126.833 42.9572 119.042 35.166 109.583 35.166ZM109.583 46.666C112.827 46.666 115.333 49.1723 115.333 52.416C115.333 55.6598 112.827 58.166 109.583 58.166C106.339 58.166 103.833 55.6598 103.833 52.416C103.833 49.1723 106.339 46.666 109.583 46.666ZM75.083 69.666C73.558 69.666 72.0955 70.2718 71.0171 71.3501C69.9388 72.4285 69.333 73.891 69.333 75.416C69.333 76.941 69.9388 78.4035 71.0171 79.4819C72.0955 80.5602 73.558 81.166 75.083 81.166C76.608 81.166 78.0705 80.5602 79.1489 79.4819C80.2272 78.4035 80.833 76.941 80.833 75.416C80.833 73.891 80.2272 72.4285 79.1489 71.3501C78.0705 70.2718 76.608 69.666 75.083 69.666Z" fill="#76A43D"/>
</g></svg>