<svg xmlns="http://www.w3.org/2000/svg" width="94" height="32" viewBox="0 0 94 32" fill="none">
<path d="M66.2788 21.5391L68.3946 23.9225C70.0244 25.5502 72.1007 26.6569 74.3601 27.1054C76.6196 27.5529 78.9613 27.3215 81.088 26.4386C83.2158 25.5568 85.0343 24.0629 86.3132 22.1479C87.5921 20.2328 88.2754 17.9811 88.2754 15.6778C88.2754 13.3745 87.5932 11.1228 86.3132 9.20774C85.0343 7.29272 83.2158 5.79886 81.088 4.91703C78.9602 4.0352 76.6196 3.80267 74.3601 4.25017C72.1007 4.69767 70.0255 5.80544 68.3946 7.43311L53.7532 23.9225C52.1233 25.5502 50.0471 26.6569 47.7876 27.1054C45.5282 27.5529 43.1865 27.3215 41.0598 26.4386C38.932 25.5568 37.1145 24.0629 35.8346 22.1479C34.5557 20.2328 33.8724 17.9811 33.8724 15.6778C33.8724 13.3745 34.5546 11.1228 35.8346 9.20774C37.1134 7.29272 38.932 5.79886 41.0598 4.91703C43.1876 4.0352 45.5282 3.80267 47.7876 4.25017C50.0471 4.69767 52.1222 5.80544 53.7532 7.43311L55.869 9.81647C53.3397 12.666 50.8105 15.5144 48.2801 18.3639M27.7127 27.328C27.7127 23.2325 27.7127 19.137 27.7127 15.0416C27.7127 8.96196 22.7847 4.034 16.705 4.034C16.138 3.98464 11.7869 3.68522 8.49649 7.09848C5.35961 10.3527 5.64368 14.4328 5.69742 15.0416C5.69742 15.1556 5.69742 27.328 5.69742 27.328C5.69742 27.328 5.69742 4.21607 5.69742 4" stroke="url(#paint0_linear_10_718)" stroke-width="4.46512" stroke-linecap="round" stroke-linejoin="round"/>
<defs>
<linearGradient id="paint0_linear_10_718" x1="5.66612" y1="3.99942" x2="85.3745" y2="28.4089" gradientUnits="userSpaceOnUse">
<stop stop-color="#0863DF"/>
<stop offset="1" stop-color="#0381FA"/>
</linearGradient>
</defs>
</svg>