<svg xmlns="http://www.w3.org/2000/svg" width="189" height="194" viewBox="0 0 189 194" fill="none">
<g opacity="0.15">
<path d="M154.507 61.0625L104.195 10.75H17.9375C16.0313 10.75 14.2031 11.5073 12.8552 12.8552C11.5073 14.2031 10.75 16.0313 10.75 17.9375V176.063C10.75 177.969 11.5073 179.797 12.8552 181.145C14.2031 182.493 16.0313 183.25 17.9375 183.25H147.32C148.263 183.25 149.198 183.064 150.07 182.703C150.942 182.342 151.734 181.812 152.402 181.145C153.069 180.477 153.599 179.685 153.96 178.813C154.321 177.941 154.507 177.006 154.507 176.063V159.292" stroke="#0F6FFF" stroke-width="20" stroke-linecap="round" stroke-linejoin="round"/>
<path d="M104.188 10.75V61.0625H154.507" stroke="#0F6FFF" stroke-width="20" stroke-linecap="round" stroke-linejoin="round"/>
<path d="M39.498 116.167H96.998" stroke="#0F6FFF" stroke-width="20" stroke-linecap="round" stroke-linejoin="round"/>
<path d="M39.498 87.417H116.165" stroke="#0F6FFF" stroke-width="20" stroke-linecap="round" stroke-linejoin="round"/>
<path d="M130.54 154.5H111.373V135.333L168.873 77.833L188.04 96.9997L130.54 154.5Z" stroke="#0F6FFF" stroke-width="20" stroke-linecap="round" stroke-linejoin="round"/>
</g></svg>