<svg xmlns="http://www.w3.org/2000/svg" width="100px" height="100px" viewBox="0 0 80 80" fill="none">
<g clip-path="url(#clip0_2452_71789)">
<path d="M73.7548 73.7629L72.051 68.7534C68.8517 59.3304 60.188 52.9085 50.3177 52.4871C49.4489 53.1621 48.5331 53.7421 47.584 54.2492C46.1689 57.9649 41.4145 58.9715 38.6289 56.1259C35.3335 55.8348 32.3164 54.533 29.6815 52.4873C19.8111 52.9073 11.1498 59.3292 7.94817 68.7536L6.2472 73.7629C5.75546 75.2038 5.99228 76.7917 6.87928 78.0286C7.76344 79.2665 9.19409 80 10.7157 80H69.284C70.8053 80 72.2361 79.2666 73.1204 78.0286C74.0071 76.7917 74.2437 75.2038 73.7548 73.7629Z" fill="#4D93FF"/>
<path d="M46.5203 48.6743C52.2503 44.6468 56.258 35.7527 56.258 27.154C56.258 2.71678 23.7437 2.74274 23.7437 27.154C23.7437 37.6046 29.6609 48.4753 37.4014 50.5275C38.1477 48.4129 40.1451 46.8836 42.5122 46.8836C44.104 46.8834 45.5241 47.5816 46.5203 48.6743Z" fill="#4D93FF"/>
<path d="M16.6093 37.3562C17.4155 40.5226 21.8087 39.6514 21.8087 36.7189C21.8087 24.9651 22.3705 23.8676 20.797 22.5919C24.3991 0.395441 55.4285 0.561921 59.2051 22.5944C57.6339 23.8741 58.196 24.9665 58.196 36.7189C58.196 37.6382 58.6901 38.4097 59.4001 38.8882C59.4001 48.0318 55.6911 47.4972 44.5381 50.4533C42.8139 48.5818 39.7342 49.8003 39.7342 52.3246C39.7342 55.4861 44.2651 56.2259 45.1443 53.0478C54.1486 50.6602 62.0632 49.9072 62.0632 40.9079V39.061C62.7317 38.715 63.205 38.1015 63.3949 37.3562C72.0743 37.1793 72.077 24.1719 63.3949 23.9951C63.2154 23.2849 62.7734 22.7049 62.1517 22.3512C62.3754 19.6879 61.8268 16.1869 60.2998 12.8071C49.6804 -9.10581 18.3153 -0.531925 17.8241 20.7048C17.7565 21.424 17.8111 21.9338 17.8526 22.3512C17.2309 22.7049 16.7889 23.2849 16.6093 23.9951C12.9733 24.0652 10.0419 27.0239 10.0419 30.6757C10.0419 34.3274 12.9733 37.2858 16.6093 37.3562Z" fill="#0F6FFF"/>
</g>
<defs>
<clipPath id="clip0_2452_71789">
<rect width="80" height="80" fill="white"/>
</clipPath>
</defs>
</svg>