<svg xmlns="http://www.w3.org/2000/svg" width="109" height="40" viewBox="0 0 109 40" fill="none">
<rect x="0.5" y="0.5" width="108" height="39" rx="3.5" stroke="#0F6FFF"/>
<path d="M19.6705 14.3636V26H18.0568L12.142 17.4659H12.0341V26H10.2784V14.3636H11.9034L17.8239 22.9091H17.9318V14.3636H19.6705ZM25.8565 26.1761C24.9967 26.1761 24.2562 25.9924 23.6349 25.625C23.0175 25.2538 22.5402 24.733 22.2031 24.0625C21.8698 23.3883 21.7031 22.5985 21.7031 21.6932C21.7031 20.7992 21.8698 20.0114 22.2031 19.3295C22.5402 18.6477 23.0099 18.1155 23.6122 17.733C24.2183 17.3504 24.9266 17.1591 25.7372 17.1591C26.2296 17.1591 26.7069 17.2405 27.169 17.4034C27.6312 17.5663 28.0459 17.822 28.4134 18.1705C28.7808 18.5189 29.0705 18.9716 29.2827 19.5284C29.4948 20.0814 29.6009 20.7538 29.6009 21.5455V22.1477H22.6634V20.875H27.9361C27.9361 20.428 27.8452 20.0322 27.6634 19.6875C27.4815 19.339 27.2259 19.0644 26.8963 18.8636C26.5705 18.6629 26.188 18.5625 25.7486 18.5625C25.2713 18.5625 24.8546 18.6799 24.4986 18.9148C24.1463 19.1458 23.8736 19.4489 23.6804 19.8239C23.491 20.1951 23.3963 20.5985 23.3963 21.0341V22.0284C23.3963 22.6117 23.4986 23.108 23.7031 23.517C23.9115 23.9261 24.2012 24.2386 24.5724 24.4545C24.9437 24.6667 25.3774 24.7727 25.8736 24.7727C26.1955 24.7727 26.4891 24.7273 26.7543 24.6364C27.0194 24.5417 27.2486 24.4015 27.4418 24.2159C27.6349 24.0303 27.7827 23.8011 27.8849 23.5284L29.4929 23.8182C29.3641 24.2917 29.133 24.7064 28.7997 25.0625C28.4702 25.4148 28.0554 25.6894 27.5554 25.8864C27.0592 26.0795 26.4929 26.1761 25.8565 26.1761ZM33.3622 26L30.794 17.2727H32.5497L34.2599 23.6818H34.3452L36.0611 17.2727H37.8168L39.5213 23.6534H39.6065L41.3054 17.2727H43.0611L40.4986 26H38.7656L36.9929 19.6989H36.8622L35.0895 26H33.3622ZM48.4702 15.875V14.3636H57.4759V15.875H53.8452V26H52.0952V15.875H48.4702ZM60.6818 26.1932C60.1288 26.1932 59.6288 26.0909 59.1818 25.8864C58.7348 25.678 58.3807 25.3769 58.1193 24.983C57.8617 24.589 57.733 24.1061 57.733 23.5341C57.733 23.0417 57.8277 22.6364 58.017 22.3182C58.2064 22 58.4621 21.7481 58.7841 21.5625C59.1061 21.3769 59.4659 21.2367 59.8636 21.142C60.2614 21.0473 60.6667 20.9754 61.0795 20.9261C61.6023 20.8655 62.0265 20.8163 62.3523 20.7784C62.678 20.7367 62.9148 20.6705 63.0625 20.5795C63.2102 20.4886 63.2841 20.3409 63.2841 20.1364V20.0966C63.2841 19.6004 63.1439 19.2159 62.8636 18.9432C62.5871 18.6705 62.1742 18.5341 61.625 18.5341C61.053 18.5341 60.6023 18.661 60.2727 18.9148C59.947 19.1648 59.7216 19.4432 59.5966 19.75L58 19.3864C58.1894 18.8561 58.4659 18.428 58.8295 18.1023C59.197 17.7727 59.6193 17.5341 60.0966 17.3864C60.5739 17.2348 61.0758 17.1591 61.6023 17.1591C61.9508 17.1591 62.3201 17.2008 62.7102 17.2841C63.1042 17.3636 63.4716 17.5114 63.8125 17.7273C64.1572 17.9432 64.4394 18.2519 64.6591 18.6534C64.8788 19.0511 64.9886 19.5682 64.9886 20.2045V26H63.3295V24.8068H63.2614C63.1515 25.0265 62.9867 25.2424 62.767 25.4545C62.5473 25.6667 62.2652 25.8428 61.9205 25.983C61.5758 26.1231 61.1629 26.1932 60.6818 26.1932ZM61.0511 24.8295C61.5208 24.8295 61.9223 24.7367 62.2557 24.5511C62.5928 24.3655 62.8485 24.1231 63.0227 23.8239C63.2008 23.5208 63.2898 23.197 63.2898 22.8523V21.7273C63.2292 21.7879 63.1117 21.8447 62.9375 21.8977C62.767 21.947 62.572 21.9905 62.3523 22.0284C62.1326 22.0625 61.9186 22.0947 61.7102 22.125C61.5019 22.1515 61.3277 22.1742 61.1875 22.1932C60.858 22.2348 60.5568 22.3049 60.2841 22.4034C60.0152 22.5019 59.7992 22.6439 59.6364 22.8295C59.4773 23.0114 59.3977 23.2538 59.3977 23.5568C59.3977 23.9773 59.553 24.2955 59.8636 24.5114C60.1742 24.7235 60.5701 24.8295 61.0511 24.8295ZM73.7912 19.4034L72.2514 19.6761C72.187 19.4792 72.0848 19.2917 71.9446 19.1136C71.8082 18.9356 71.6226 18.7898 71.3878 18.6761C71.1529 18.5625 70.8594 18.5057 70.5071 18.5057C70.026 18.5057 69.6245 18.6136 69.3026 18.8295C68.9806 19.0417 68.8196 19.3163 68.8196 19.6534C68.8196 19.9451 68.9276 20.1799 69.1435 20.358C69.3594 20.536 69.7079 20.6818 70.1889 20.7955L71.5753 21.1136C72.3783 21.2992 72.9768 21.5852 73.3707 21.9716C73.7647 22.358 73.9616 22.8598 73.9616 23.4773C73.9616 24 73.8101 24.4659 73.5071 24.875C73.2079 25.2803 72.7893 25.5985 72.2514 25.8295C71.7173 26.0606 71.098 26.1761 70.3935 26.1761C69.4162 26.1761 68.6188 25.9678 68.0014 25.5511C67.384 25.1307 67.0052 24.5341 66.8651 23.7614L68.5071 23.5114C68.6094 23.9394 68.8196 24.2633 69.1378 24.483C69.456 24.6989 69.8707 24.8068 70.3821 24.8068C70.9389 24.8068 71.384 24.6913 71.7173 24.4602C72.0507 24.2254 72.2173 23.9394 72.2173 23.6023C72.2173 23.3295 72.1151 23.1004 71.9105 22.9148C71.7098 22.7292 71.401 22.589 70.9844 22.4943L69.5071 22.1705C68.6927 21.9848 68.0904 21.6894 67.7003 21.2841C67.3139 20.8788 67.1207 20.3655 67.1207 19.7443C67.1207 19.2292 67.2647 18.7784 67.5526 18.392C67.8404 18.0057 68.2382 17.7045 68.7457 17.4886C69.2533 17.2689 69.8348 17.1591 70.4901 17.1591C71.4332 17.1591 72.1757 17.3636 72.7173 17.7727C73.259 18.178 73.617 18.7216 73.7912 19.4034ZM77.392 23.0398L77.3807 20.9659H77.6761L81.1534 17.2727H83.1875L79.2216 21.4773H78.9545L77.392 23.0398ZM75.8295 26V14.3636H77.5284V26H75.8295ZM81.3409 26L78.2159 21.8523L79.3864 20.6648L83.4261 26H81.3409Z" fill="#0F6FFF"/>
<path d="M92 16V20M92 20V24M92 20H96M92 20H88" stroke="#0F6FFF" stroke-width="1.7" stroke-linecap="round" stroke-linejoin="round"/>
</svg>