<svg width="20" height="18" viewBox="0 0 20 18" fill="none" xmlns="http://www.w3.org/2000/svg">
<path fill-rule="evenodd" clip-rule="evenodd" d="M0 2.52525C0 1.13059 1.13059 0 2.52525 0H17.4747C18.8694 0 20 1.13059 20 2.52525V10.6061C20 12.0007 18.8694 13.1313 17.4747 13.1313H12.7582L13.1291 14.8737H13.8385C14.5638 14.8737 15.1517 15.4616 15.1517 16.1869C15.1517 16.9121 14.5638 17.5 13.8385 17.5H6.16176C5.43654 17.5 4.84863 16.9121 4.84863 16.1869C4.84863 15.4616 5.43654 14.8737 6.16176 14.8737H6.87092L7.24179 13.1313H2.52525C1.13059 13.1313 0 12.0007 0 10.6061V2.52525ZM8.24013 13.1313L7.86926 14.8737H12.1307L11.7599 13.1313H8.24013ZM2.52525 1.0101C1.68846 1.0101 1.0101 1.68846 1.0101 2.52525V10.6061C1.0101 11.4429 1.68846 12.1212 2.52525 12.1212H17.4747C18.3115 12.1212 18.9899 11.4429 18.9899 10.6061V2.52525C18.9899 1.68846 18.3115 1.0101 17.4747 1.0101H2.52525ZM6.16176 15.8838C5.9944 15.8838 5.85873 16.0195 5.85873 16.1869C5.85873 16.3542 5.9944 16.4899 6.16176 16.4899H13.8385C14.0059 16.4899 14.1416 16.3542 14.1416 16.1869C14.1416 16.0195 14.0059 15.8838 13.8385 15.8838H6.16176Z" fill="#18A0FB"/>
</svg>
