<svg version="1.1" id="Layer_1" xmlns="http://www.w3.org/2000/svg" xmlns:xlink="http://www.w3.org/1999/xlink" x="0px" y="0px" viewBox="0 0 100 100" xml:space="preserve"><desc>Copyright Opto 22</desc> 
<g>
<g id="shape">
<path display="inline" fill="#CCCCCC" d="M69.015,7.59h-0.252h-2.271h-0.568c-0.694,0-1.262,0.227-1.262,0.505
	c0,0.278-0.568,0.505-1.262,0.505h-0.116v-1.85H52.813V6.368l0.96-0.876l-0.534-1.181l0.713-0.322
	c-0.432-0.956-0.472-1.044-0.94-2.08c-2.278-0.454-5.899,0.091-9.873,1.528c0.234-0.084,0.471-0.179,0.702-0.257l-0.706-1.561
	l-7.271,3.281l0.732,1.62c0,0,0,0,0.001,0c-3.128,1.869-5.47,3.943-6.521,5.739l0.948,2.096l0.707-0.32l0.534,1.181l1.119,0.63
	v1.075l4.542,2.586v5.236h2.25v0.75h1.304c-0.278,0-0.505,0.227-0.505,0.505v0.252v2.505v0.568c0,0.244,0.125,0.452,0.306,0.591
	h-0.726h-0.262c-0.55,0-1,0.45-1,1v0.262v2.28v0.558c0,0.694,0.227,1.262,0.505,1.262c0.185,0,0.34,0.263,0.428,0.635h-0.461h-3.174
	h-0.125c-0.55,0-1,0.45-1,1v2.542c0,0.55,0.45,1,1,1h0.125h1.146v0.595l-0.482-0.02l-0.622,0.301c-0.297,0.144-0.297,0.379,0,0.523
	l0.622,0.301l0.482,0.02v0.389l-0.482-0.02l-0.622,0.301c-0.297,0.144-0.297,0.379,0,0.523l0.622,0.301l0.482,0.02v0.389
	l-0.482-0.02l-0.622,0.301c-0.297,0.144-0.297,0.379,0,0.523l0.622,0.301l0.482,0.02v0.389l-0.482-0.02l-0.622,0.301
	c-0.297,0.144-0.297,0.379,0,0.523l0.622,0.301l0.482,0.02v0.389l-0.482-0.02l-0.622,0.301c-0.297,0.144-0.297,0.379,0,0.523
	l0.622,0.301l0.482,0.02v0.677h4.479v49.332l0.359,0.602c0.379,0.371,0.982,0.382,1.374,0.024l0.412-0.626V48.905h4.479v-0.217
	l0.499,0.021l0.622-0.301c0.297-0.144,0.297-0.379,0-0.523l-0.622-0.301l-0.499-0.021v-0.389l0.499,0.021l0.622-0.301
	c0.297-0.144,0.297-0.379,0-0.523l-0.622-0.301l-0.499-0.021V45.66l0.499,0.021l0.622-0.301c0.297-0.144,0.297-0.379,0-0.523
	l-0.622-0.301l-0.499-0.021v-0.389l0.499,0.021l0.622-0.301c0.297-0.144,0.297-0.379,0-0.523l-0.622-0.301l-0.499-0.021v-0.389
	l0.499,0.021l0.622-0.301c0.297-0.144,0.297-0.379,0-0.523l-0.622-0.301l-0.499-0.021v-1.054h0.748h0.398h0.125c0.55,0,1-0.45,1-1
	V36.91c0-0.55-0.45-1-1-1h-0.125h-0.398h-2h-1.32c0.088-0.372,0.243-0.635,0.428-0.635c0.278,0,0.505-0.568,0.505-1.262v-0.558
	v-2.28v-0.262c0-0.55-0.45-1-1-1h-0.262h-0.726c0.181-0.139,0.306-0.347,0.306-0.591v-0.563V26.25v-0.257c0-0.275-0.225-0.5-0.5-0.5
	h1.005v-0.75h2.25v-5.236l4.542-2.586v-0.583h10.471v-1.85H63.4c0.694,0,1.262,0.227,1.262,0.505c0,0.278,0.568,0.505,1.262,0.505
	h0.568h2.271h0.252c0.555,0,1.009-0.454,1.009-1.009v-0.252v-1.682v-2.019V8.851V8.599C70.024,8.044,69.57,7.59,69.015,7.59z
	 M42.169,3.792c-0.591,0.232-1.187,0.482-1.786,0.753C40.982,4.273,41.578,4.023,42.169,3.792z M38.429,5.495
	c-0.011,0.006-0.021,0.012-0.032,0.017C38.408,5.507,38.418,5.501,38.429,5.495z"></path>
</g>
</g>
</svg>