<svg width="16" height="17" viewBox="0 0 16 17" fill="none" xmlns="http://www.w3.org/2000/svg">
<path d="M5.33333 8.05257V5.38591C5.33333 4.67866 5.61428 4.00038 6.11438 3.50029C6.61447 3.00019 7.29275 2.71924 8 2.71924C8.70724 2.71924 9.38552 3.00019 9.88561 3.50029C10.3857 4.00038 10.6667 4.67866 10.6667 5.38591V8.05257M3.33333 9.38591C3.33333 9.03228 3.4738 8.69314 3.72385 8.4431C3.9739 8.19305 4.31304 8.05257 4.66666 8.05257H11.3333C11.687 8.05257 12.0261 8.19305 12.2761 8.4431C12.5262 8.69314 12.6667 9.03228 12.6667 9.38591V13.3859C12.6667 13.7395 12.5262 14.0787 12.2761 14.3287C12.0261 14.5788 11.687 14.7192 11.3333 14.7192H4.66666C4.31304 14.7192 3.9739 14.5788 3.72385 14.3287C3.4738 14.0787 3.33333 13.7395 3.33333 13.3859V9.38591ZM7.33333 11.3859C7.33333 11.5627 7.40357 11.7323 7.52859 11.8573C7.65361 11.9823 7.82318 12.0526 8 12.0526C8.17681 12.0526 8.34638 11.9823 8.4714 11.8573C8.59642 11.7323 8.66666 11.5627 8.66666 11.3859C8.66666 11.2091 8.59642 11.0395 8.4714 10.9145C8.34638 10.7895 8.17681 10.7192 8 10.7192C7.82318 10.7192 7.65361 10.7895 7.52859 10.9145C7.40357 11.0395 7.33333 11.2091 7.33333 11.3859Z" stroke="#646464" stroke-width="1.3" stroke-linecap="round" stroke-linejoin="round"/>
</svg>
