<svg width="16" height="17" viewBox="0 0 16 17" fill="none" xmlns="http://www.w3.org/2000/svg">
<path d="M2.4 6.71924H13.6M2.4 10.7192H13.6M7.66667 2.71924C6.54356 4.51898 5.94814 6.59782 5.94814 8.71924C5.94814 10.8407 6.54356 12.9195 7.66667 14.7192M8.33333 2.71924C9.45644 4.51898 10.0519 6.59782 10.0519 8.71924C10.0519 10.8407 9.45644 12.9195 8.33333 14.7192M2 8.71924C2 9.50717 2.15519 10.2874 2.45672 11.0153C2.75825 11.7433 3.20021 12.4047 3.75736 12.9619C4.31451 13.519 4.97595 13.961 5.7039 14.2625C6.43185 14.564 7.21207 14.7192 8 14.7192C8.78793 14.7192 9.56815 14.564 10.2961 14.2625C11.0241 13.961 11.6855 13.519 12.2426 12.9619C12.7998 12.4047 13.2417 11.7433 13.5433 11.0153C13.8448 10.2874 14 9.50717 14 8.71924C14 7.12794 13.3679 5.60182 12.2426 4.4766C11.1174 3.35138 9.5913 2.71924 8 2.71924C6.4087 2.71924 4.88258 3.35138 3.75736 4.4766C2.63214 5.60182 2 7.12794 2 8.71924Z" stroke="#646464" stroke-width="1.3" stroke-linecap="round" stroke-linejoin="round"/>
</svg>
