<svg width="16" height="17" viewBox="0 0 16 17" fill="none" xmlns="http://www.w3.org/2000/svg">
<path d="M2 14.7192V13.3859C2 12.6787 2.28095 12.0004 2.78105 11.5003C3.28115 11.0002 3.95942 10.7192 4.66667 10.7192H7.33333C8.04058 10.7192 8.71885 11.0002 9.21895 11.5003C9.71905 12.0004 10 12.6787 10 13.3859V14.7192M10.6667 2.80591C11.2403 2.95278 11.7487 3.28638 12.1118 3.75412C12.4748 4.22185 12.6719 4.79713 12.6719 5.38924C12.6719 5.98135 12.4748 6.55663 12.1118 7.02437C11.7487 7.49211 11.2403 7.82571 10.6667 7.97257M14 14.7193V13.3859C13.9966 12.7974 13.7986 12.2265 13.4368 11.7622C13.0751 11.2979 12.5699 10.9664 12 10.8193M3.33333 5.3859C3.33333 6.09315 3.61428 6.77143 4.11438 7.27152C4.61448 7.77162 5.29276 8.05257 6 8.05257C6.70724 8.05257 7.38552 7.77162 7.88562 7.27152C8.38572 6.77143 8.66667 6.09315 8.66667 5.3859C8.66667 4.67866 8.38572 4.00038 7.88562 3.50029C7.38552 3.00019 6.70724 2.71924 6 2.71924C5.29276 2.71924 4.61448 3.00019 4.11438 3.50029C3.61428 4.00038 3.33333 4.67866 3.33333 5.3859Z" stroke="#646464" stroke-width="1.3" stroke-linecap="round" stroke-linejoin="round"/>
</svg>
