<svg width="16" height="17" viewBox="0 0 16 17" fill="none" xmlns="http://www.w3.org/2000/svg">
<path d="M7.33333 8.71932C7.33333 8.89613 7.40357 9.0657 7.52859 9.19072C7.65361 9.31575 7.82318 9.38599 7.99999 9.38599C8.17681 9.38599 8.34638 9.31575 8.4714 9.19072C8.59642 9.0657 8.66666 8.89613 8.66666 8.71932C8.66666 8.54251 8.59642 8.37294 8.4714 8.24791C8.34638 8.12289 8.17681 8.05265 7.99999 8.05265C7.82318 8.05265 7.65361 8.12289 7.52859 8.24791C7.40357 8.37294 7.33333 8.54251 7.33333 8.71932Z" fill="#646464"/>
<path d="M7.33333 13.386C7.33333 13.5628 7.40357 13.7324 7.52859 13.8574C7.65361 13.9824 7.82318 14.0527 7.99999 14.0527C8.17681 14.0527 8.34638 13.9824 8.4714 13.8574C8.59642 13.7324 8.66666 13.5628 8.66666 13.386C8.66666 13.2092 8.59642 13.0396 8.4714 12.9146C8.34638 12.7896 8.17681 12.7193 7.99999 12.7193C7.82318 12.7193 7.65361 12.7896 7.52859 12.9146C7.40357 13.0396 7.33333 13.2092 7.33333 13.386Z" fill="#646464"/>
<path d="M7.33333 4.05265C7.33333 4.22946 7.40357 4.39903 7.52859 4.52406C7.65361 4.64908 7.82318 4.71932 7.99999 4.71932C8.17681 4.71932 8.34638 4.64908 8.4714 4.52406C8.59642 4.39903 8.66666 4.22946 8.66666 4.05265C8.66666 3.87584 8.59642 3.70627 8.4714 3.58125C8.34638 3.45622 8.17681 3.38599 7.99999 3.38599C7.82318 3.38599 7.65361 3.45622 7.52859 3.58125C7.40357 3.70627 7.33333 3.87584 7.33333 4.05265Z" fill="#646464"/>
<path d="M7.33333 8.71932C7.33333 8.89613 7.40357 9.0657 7.52859 9.19072C7.65361 9.31575 7.82318 9.38599 7.99999 9.38599C8.17681 9.38599 8.34638 9.31575 8.4714 9.19072C8.59642 9.0657 8.66666 8.89613 8.66666 8.71932C8.66666 8.54251 8.59642 8.37294 8.4714 8.24791C8.34638 8.12289 8.17681 8.05265 7.99999 8.05265C7.82318 8.05265 7.65361 8.12289 7.52859 8.24791C7.40357 8.37294 7.33333 8.54251 7.33333 8.71932Z" stroke="#646464" stroke-width="1.5" stroke-linecap="round" stroke-linejoin="round"/>
<path d="M7.33333 13.386C7.33333 13.5628 7.40357 13.7324 7.52859 13.8574C7.65361 13.9824 7.82318 14.0527 7.99999 14.0527C8.17681 14.0527 8.34638 13.9824 8.4714 13.8574C8.59642 13.7324 8.66666 13.5628 8.66666 13.386C8.66666 13.2092 8.59642 13.0396 8.4714 12.9146C8.34638 12.7896 8.17681 12.7193 7.99999 12.7193C7.82318 12.7193 7.65361 12.7896 7.52859 12.9146C7.40357 13.0396 7.33333 13.2092 7.33333 13.386Z" stroke="#646464" stroke-width="1.5" stroke-linecap="round" stroke-linejoin="round"/>
<path d="M7.33333 4.05265C7.33333 4.22946 7.40357 4.39903 7.52859 4.52406C7.65361 4.64908 7.82318 4.71932 7.99999 4.71932C8.17681 4.71932 8.34638 4.64908 8.4714 4.52406C8.59642 4.39903 8.66666 4.22946 8.66666 4.05265C8.66666 3.87584 8.59642 3.70627 8.4714 3.58125C8.34638 3.45622 8.17681 3.38599 7.99999 3.38599C7.82318 3.38599 7.65361 3.45622 7.52859 3.58125C7.40357 3.70627 7.33333 3.87584 7.33333 4.05265Z" stroke="#646464" stroke-width="1.5" stroke-linecap="round" stroke-linejoin="round"/>
</svg>
