<svg style="margin:0 5px" width="24" height="24" viewBox="0 0 24 24" fill="none" xmlns="http://www.w3.org/2000/svg">
<path d="M2.6001 5.83337C2.6001 4.7288 3.49553 3.83337 4.6001 3.83337H19.4001C20.5047 3.83337 21.4001 4.7288 21.4001 5.83337V13.8334C21.4001 14.9379 20.5047 15.8334 19.4001 15.8334H4.6001C3.49553 15.8334 2.6001 14.9379 2.6001 13.8334V5.83337Z" fill="#18A0FB" fill-opacity="0.1"/>
<path d="M10.0357 15.5H13.9643L14.5 18H9.5L10.0357 15.5Z" fill="#18A0FB" fill-opacity="0.1"/>
<path d="M7.3999 19.1C7.3999 18.6582 7.75807 18.3 8.1999 18.3H15.7999C16.2417 18.3 16.5999 18.6582 16.5999 19.1C16.5999 19.5419 16.2417 19.9 15.7999 19.9H8.1999C7.75807 19.9 7.3999 19.5419 7.3999 19.1Z" fill="#18A0FB" fill-opacity="0.1"/>
<path fill-rule="evenodd" clip-rule="evenodd" d="M2 5.52525C2 4.13059 3.13059 3 4.52525 3H19.4747C20.8694 3 22 4.13059 22 5.52525V13.6061C22 15.0007 20.8694 16.1313 19.4747 16.1313H14.7582L15.1291 17.8737H15.8385C16.5638 17.8737 17.1517 18.4616 17.1517 19.1869C17.1517 19.9121 16.5638 20.5 15.8385 20.5H8.16176C7.43654 20.5 6.84863 19.9121 6.84863 19.1869C6.84863 18.4616 7.43654 17.8737 8.16176 17.8737H8.87092L9.24179 16.1313H4.52525C3.13059 16.1313 2 15.0007 2 13.6061V5.52525ZM10.2401 16.1313L9.86926 17.8737H14.1307L13.7599 16.1313H10.2401ZM4.52525 4.0101C3.68846 4.0101 3.0101 4.68846 3.0101 5.52525V13.6061C3.0101 14.4429 3.68846 15.1212 4.52525 15.1212H19.4747C20.3115 15.1212 20.9899 14.4429 20.9899 13.6061V5.52525C20.9899 4.68846 20.3115 4.0101 19.4747 4.0101H4.52525ZM8.16176 18.8838C7.9944 18.8838 7.85873 19.0195 7.85873 19.1869C7.85873 19.3542 7.9944 19.4899 8.16176 19.4899H15.8385C16.0059 19.4899 16.1416 19.3542 16.1416 19.1869C16.1416 19.0195 16.0059 18.8838 15.8385 18.8838H8.16176Z" fill="#18A0FB"/>
</svg>
