<svg style="margin:0 5px" width="24" height="24" viewBox="0 0 24 24" fill="none" xmlns="http://www.w3.org/2000/svg">
<path d="M2.46948 5.86115C2.46948 4.74124 3.37735 3.83337 4.49726 3.83337H19.5028C20.6227 3.83337 21.5306 4.74124 21.5306 5.86115V13.9723C21.5306 15.0922 20.6227 16 19.5028 16H4.49726C3.37735 16 2.46948 15.0922 2.46948 13.9723V5.86115Z" fill="#18A0FB" fill-opacity="0.1"/>
<path d="M10.4286 16H13.5714L14 18H10L10.4286 16Z" fill="#18A0FB" fill-opacity="0.1"/>
<path d="M7.3999 19.1C7.3999 18.6582 7.75807 18.3 8.1999 18.3H15.7999C16.2417 18.3 16.5999 18.6582 16.5999 19.1C16.5999 19.5419 16.2417 19.9 15.7999 19.9H8.1999C7.75807 19.9 7.3999 19.5419 7.3999 19.1Z" fill="#18A0FB" fill-opacity="0.1"/>
<path fill-rule="evenodd" clip-rule="evenodd" d="M2 5.69231C2 4.20539 3.13059 3 4.52525 3H19.4747C20.8694 3 22 4.20539 22 5.69231V14.3077C22 15.7946 20.8694 17 19.4747 17H14.4432L14.6292 17.8737H15.8385C16.5638 17.8737 17.1517 18.4616 17.1517 19.1869C17.1517 19.9121 16.5638 20.5 15.8385 20.5H8.16176C7.43654 20.5 6.84863 19.9121 6.84863 19.1869C6.84863 18.4616 7.43654 17.8737 8.16176 17.8737H9.371L9.55697 17H4.52525C3.13059 17 2 15.7946 2 14.3077V5.69231ZM10.4056 17L10.2196 17.8737H13.7806L13.5946 17H10.4056ZM4.52525 4.07692C3.68846 4.07692 3.0101 4.80016 3.0101 5.69231V14.3077C3.0101 15.1998 3.68846 15.9231 4.52525 15.9231H19.4747C20.3115 15.9231 20.9899 15.1998 20.9899 14.3077V5.69231C20.9899 4.80016 20.3115 4.07692 19.4747 4.07692H4.52525ZM8.16176 18.8838C7.9944 18.8838 7.85873 19.0195 7.85873 19.1869C7.85873 19.3542 7.9944 19.4899 8.16176 19.4899H15.8385C16.0059 19.4899 16.1416 19.3542 16.1416 19.1869C16.1416 19.0195 16.0059 18.8838 15.8385 18.8838H8.16176Z" fill="#18A0FB"/>
<path d="M12.0682 8.43662C11.8707 8.43662 11.565 8.21206 11.243 8.22018C10.8183 8.22559 10.4287 8.46638 10.2095 8.84785C9.76854 9.61351 10.0959 10.7444 10.5261 11.3667C10.7371 11.6697 10.986 12.0106 11.3161 11.9997C11.6326 11.9862 11.7517 11.7941 12.1358 11.7941C12.5173 11.7941 12.6255 11.9997 12.961 11.9916C13.3019 11.9862 13.5184 11.6832 13.7267 11.3775C13.9675 11.0258 14.0676 10.6849 14.073 10.6659C14.0649 10.6632 13.4101 10.4116 13.402 9.65409C13.3966 9.021 13.9188 8.71799 13.9431 8.70446C13.6455 8.26888 13.1883 8.22018 13.0287 8.20935C12.612 8.17689 12.263 8.43662 12.0682 8.43662ZM12.7716 7.79812C12.9475 7.58709 13.0638 7.29219 13.0314 7C12.7798 7.01082 12.4767 7.16774 12.2955 7.37877C12.1331 7.56545 11.9925 7.86576 12.0303 8.15254C12.309 8.17418 12.5958 8.00915 12.7716 7.79812Z" fill="#18A0FB"/>
<rect x="3" y="14" width="18" height="1" fill="#18A0FB"/>
</svg>
