<svg style="margin:0 5px" width="24" height="24" viewBox="0 0 24 24" fill="none" xmlns="http://www.w3.org/2000/svg">
<path d="M6 4C6 2.89543 6.89543 2 8 2H16C17.1046 2 18 2.89543 18 4V20C18 21.1046 17.1046 22 16 22H8C6.89543 22 6 21.1046 6 20V4Z" fill="#18A0FB" fill-opacity="0.1"/>
<path fill-rule="evenodd" clip-rule="evenodd" d="M8 3H16C16.5523 3 17 3.44772 17 4V20C17 20.5523 16.5523 21 16 21H8C7.44772 21 7 20.5523 7 20V4C7 3.44772 7.44772 3 8 3ZM6 4C6 2.89543 6.89543 2 8 2H16C17.1046 2 18 2.89543 18 4V20C18 21.1046 17.1046 22 16 22H8C6.89543 22 6 21.1046 6 20V4ZM13.9999 4C14.5522 4 14.9999 3.55229 14.9999 3H8.99992C8.99992 3.55229 9.44763 4 9.99992 4H13.9999Z" fill="#18A0FB"/>
</svg>
