<svg style="margin:0 5px" width="24" height="24" viewBox="0 0 24 24" fill="none" xmlns="http://www.w3.org/2000/svg">
<path d="M3.22656 7.33334C3.22656 6.30241 4.0623 5.46667 5.09323 5.46667H18.9066C19.9375 5.46667 20.7732 6.30241 20.7732 7.33334V16.6667C20.7732 17.6976 19.9375 18.5333 18.9066 18.5333H5.09323C4.0623 18.5333 3.22656 17.6976 3.22656 16.6667V7.33334Z" fill="#18A0FB" fill-opacity="0.1"/>
<path fill-rule="evenodd" clip-rule="evenodd" d="M5.09334 5C3.80468 5 2.76001 6.04467 2.76001 7.33333V16.6667C2.76001 17.9553 3.80468 19 5.09334 19H18.9067C20.1953 19 21.24 17.9553 21.24 16.6667V7.33333C21.24 6.04467 20.1953 5 18.9067 5H5.09334ZM3.69334 7.33333C3.69334 6.56013 4.32014 5.93333 5.09334 5.93333H18.9067C19.6799 5.93333 20.3067 6.56013 20.3067 7.33333V16.6667C20.3067 17.4399 19.6799 18.0667 18.9067 18.0667H5.09334C4.32014 18.0667 3.69334 17.4399 3.69334 16.6667V7.33333ZM9.29349 16.2933C9.03576 16.2933 8.82682 16.5023 8.82682 16.76C8.82682 17.0177 9.03576 17.2267 9.29349 17.2267H14.7068C14.9646 17.2267 15.1735 17.0177 15.1735 16.76C15.1735 16.5023 14.9646 16.2933 14.7068 16.2933H9.29349Z" fill="#18A0FB"/>
</svg>
