<svg width="16" height="16" viewBox="0 0 16 16" fill="none" xmlns="
http://www.w3.org/2000/svg">
<path d="M4 2.66667V13.3333C3.99997 13.452 4.03158 13.5684 4.09159 13.6708C4.15159 13.7731 4.23781 13.8575 4.34135 13.9154C4.44489 13.9733 4.562 14.0025 4.68059 14C4.79918 13.9976 4.91497 13.9635 5.016 13.9013L13.6827 8.568C13.7797 8.50836 13.8599 8.42483 13.9155 8.3254C13.9711 8.22596 14.0003 8.11393 14.0003 8C14.0003 7.88608 13.9711 7.77405 13.9155 7.67461C13.8599 7.57518 13.7797 7.49165 13.6827 7.432L5.016 2.09867C4.91497 2.03651 4.79918 2.00244 4.68059 1.99996C4.562 1.99749 4.44489 2.0267 4.34135 2.08458C4.23781 2.14246 4.15159 2.22692 4.09159 2.32925C4.03158 2.43157 3.99997 2.54805 4 2.66667Z" fill="#FCFCFC"/>
</svg>