<svg width="41" height="40" viewBox="0 0 41 40" fill="none" xmlns="http://www.w3.org/2000/svg">
<path d="M11.925 17.3187C15.3051 17.3187 18.0453 14.5786 18.0453 11.1984C18.0453 7.81828 15.3051 5.07812 11.925 5.07812C8.54484 5.07812 5.80469 7.81828 5.80469 11.1984C5.80469 14.5786 8.54484 17.3187 11.925 17.3187Z" fill="url(#paint0_linear_150_368)"/>
<path d="M11.3831 13.3554L14.9904 9.74804C15.2039 9.53457 15.2039 9.1885 14.9904 8.97504C14.777 8.76158 14.4309 8.76158 14.2174 8.97504L10.9966 12.1959L9.57946 10.7787C9.36599 10.5652 9.01993 10.5652 8.80646 10.7787C8.593 10.9922 8.593 11.3382 8.80646 11.5517L10.6101 13.3554C10.8235 13.5689 11.1696 13.5689 11.3831 13.3554Z" fill="#2A8CFE"/>
<path d="M33.6812 19.1838C32.5947 19.1838 31.7139 20.0646 31.7139 21.1511V19.4024C31.7139 18.3159 30.8332 17.4352 29.7467 17.4352C28.6602 17.4352 27.7794 18.3159 27.7794 19.4024V17.6538C27.7794 16.5673 26.8987 15.6865 25.8122 15.6865C24.7257 15.6865 23.845 16.5673 23.845 17.6538V10.6591C23.845 9.57263 22.9642 8.69189 21.8777 8.69189C20.7912 8.69189 19.9105 9.57263 19.9105 10.6591V23.7274C19.9105 24.8958 18.4978 25.481 17.6716 24.6548L15.3998 22.3829C14.6315 21.6147 13.386 21.6147 12.6178 22.3829C11.8494 23.1513 11.8494 24.3968 12.6178 25.1651L19.6253 32.1726C21.3856 33.9328 23.773 34.9217 26.2623 34.9218C31.4461 34.9218 35.6484 30.7194 35.6484 25.5357V21.1511C35.6484 20.0646 34.7677 19.1838 33.6812 19.1838Z" fill="url(#paint1_linear_150_368)"/>
<defs>
<linearGradient id="paint0_linear_150_368" x1="11.925" y1="17.3187" x2="11.925" y2="5.07812" gradientUnits="userSpaceOnUse">
<stop stop-color="#ADDCFF"/>
<stop offset="0.503" stop-color="#EAF6FF"/>
<stop offset="1" stop-color="#EAF6FF"/>
</linearGradient>
<linearGradient id="paint1_linear_150_368" x1="23.3495" y1="34.9218" x2="23.3495" y2="8.57532" gradientUnits="userSpaceOnUse">
<stop stop-color="#5558FF"/>
<stop offset="1" stop-color="#00C0FF"/>
</linearGradient>
</defs>
</svg>
