<svg width="41" height="40" viewBox="0 0 41 40" fill="none" xmlns="http://www.w3.org/2000/svg">
<path d="M24.2734 29.7266H17.2422C16.7568 29.7266 16.3633 30.1201 16.3633 30.6055C16.3633 33.0286 18.3347 35 20.7578 35C23.181 35 25.1523 33.0286 25.1523 30.6055C25.1523 30.1201 24.7588 29.7266 24.2734 29.7266Z" fill="url(#paint0_linear_150_357)"/>
<path d="M20.7578 5C19.3039 5 18.1211 6.18283 18.1211 7.63672V9.57037C18.1211 10.0558 18.5146 10.4493 19 10.4493H22.5156C23.001 10.4493 23.3945 10.0558 23.3945 9.57037V7.63672C23.3945 6.18283 22.2117 5 20.7578 5Z" fill="url(#paint1_linear_150_357)"/>
<path d="M33.0625 29.7263C31.6086 29.7263 30.4258 28.5435 30.4258 27.0896V18.5611C30.4258 13.2859 26.3561 8.48949 20.6992 8.51475C15.2837 8.53901 11.0898 12.9792 11.0898 18.1834V27.0896C11.0898 28.5435 9.90701 29.7263 8.45312 29.7263C7.96773 29.7263 7.57422 30.1198 7.57422 30.6052C7.57422 31.0906 7.96773 31.4841 8.45312 31.4841H33.0625C33.5479 31.4841 33.9414 31.0906 33.9414 30.6052C33.9414 30.1198 33.5479 29.7263 33.0625 29.7263Z" fill="url(#paint2_linear_150_357)"/>
<defs>
<linearGradient id="paint0_linear_150_357" x1="20.7578" y1="35" x2="20.7578" y2="29.7266" gradientUnits="userSpaceOnUse">
<stop stop-color="#FF9500"/>
<stop offset="1" stop-color="#FFE415"/>
</linearGradient>
<linearGradient id="paint1_linear_150_357" x1="20.7578" y1="10.4493" x2="20.7578" y2="5" gradientUnits="userSpaceOnUse">
<stop stop-color="#FF9500"/>
<stop offset="1" stop-color="#FFE415"/>
</linearGradient>
<linearGradient id="paint2_linear_150_357" x1="20.7578" y1="31.4841" x2="20.7578" y2="8.51469" gradientUnits="userSpaceOnUse">
<stop stop-color="#FD0000"/>
<stop offset="1" stop-color="#FF9500"/>
</linearGradient>
</defs>
</svg>
