<svg width="41" height="40" viewBox="0 0 41 40" fill="none" xmlns="http://www.w3.org/2000/svg">
<path d="M26.7494 4.84924C26.7494 5.37003 26.3272 5.79224 25.8064 5.79224C25.2856 5.79224 24.8634 5.37003 24.8634 4.84924C24.8634 4.32846 25.2856 3.90625 25.8064 3.90625C26.3272 3.90625 26.7494 4.32846 26.7494 4.84924ZM14.4905 5.8551C13.9697 5.8551 13.5475 6.27731 13.5475 6.7981C13.5475 7.31888 13.9697 7.74109 14.4905 7.74109C15.0113 7.74109 15.4335 7.31888 15.4335 6.7981C15.4335 6.27731 15.0113 5.8551 14.4905 5.8551ZM25.182 33.6921C25.9887 34.0346 26.8304 34.2078 27.6924 34.2078C31.3318 34.2078 34.2933 31.2462 34.2933 27.6068C34.2933 27.2964 34.2694 26.9861 34.2234 26.6675C35.5052 25.0099 36.2422 23.0613 36.2422 21.0059C36.2422 16.313 32.6468 12.3375 28.0313 11.703C26.9741 9.34738 24.6368 7.80396 22.0344 7.80396C19.7635 7.80396 17.6528 8.99558 16.4501 10.9359C15.334 10.1255 14.0061 9.68994 12.6045 9.68994C8.9651 9.68994 6.00354 12.6515 6.00354 16.2909C6.00354 16.5948 6.02567 16.9033 6.06986 17.2127C4.79167 18.8666 4.05469 20.8208 4.05469 22.8918C4.05469 28.0912 8.34814 32.3218 13.5475 32.3218C13.7648 32.3218 13.9784 32.3079 14.1939 32.2849C15.2677 34.5918 17.5718 36.0938 20.1484 36.0938C22.0952 36.0938 23.9241 35.2097 25.182 33.6921Z" fill="url(#paint0_linear_150_341)"/>
<path d="M12.6045 26.6638C11.0445 26.6638 9.77551 25.3948 9.77551 23.8348V20.0629C9.77551 18.5029 11.0445 17.2339 12.6045 17.2339C14.1645 17.2339 15.4335 18.5029 15.4335 20.0629C15.4335 20.5841 15.0117 21.0059 14.4905 21.0059C13.9693 21.0059 13.5475 20.5841 13.5475 20.0629C13.5475 19.5426 13.1239 19.1199 12.6045 19.1199C12.0851 19.1199 11.6615 19.5426 11.6615 20.0629V23.8348C11.6615 24.3551 12.0851 24.7778 12.6045 24.7778C13.1239 24.7778 13.5475 24.3551 13.5475 23.8348C13.5475 23.3136 13.9693 22.8918 14.4905 22.8918C15.0117 22.8918 15.4335 23.3136 15.4335 23.8348C15.4335 25.3948 14.1645 26.6638 12.6045 26.6638ZM22.9774 23.8348V20.0629C22.9774 18.5029 21.7084 17.2339 20.1484 17.2339C18.5885 17.2339 17.3195 18.5029 17.3195 20.0629V23.8348C17.3195 25.3948 18.5885 26.6638 20.1484 26.6638C21.7084 26.6638 22.9774 25.3948 22.9774 23.8348ZM21.0914 20.0629V23.8348C21.0914 24.3551 20.6678 24.7778 20.1484 24.7778C19.629 24.7778 19.2054 24.3551 19.2054 23.8348V20.0629C19.2054 19.5426 19.629 19.1199 20.1484 19.1199C20.6678 19.1199 21.0914 19.5426 21.0914 20.0629ZM29.5784 24.7778H27.6936L29.9578 21.7591C30.3262 21.2665 30.5214 20.6798 30.5214 20.0629C30.5214 18.5029 29.2523 17.2339 27.6924 17.2339C26.1324 17.2339 24.8634 18.5029 24.8634 20.0629C24.8634 21.3108 26.7494 21.3108 26.7494 20.0629C26.7494 19.5426 27.173 19.1199 27.6924 19.1199C28.4794 19.1199 28.9045 20.0237 28.4475 20.6273L25.0513 25.1545C24.6588 25.6803 24.9654 26.6638 25.8064 26.6638H29.5784C30.0996 26.6638 30.5214 26.242 30.5214 25.7208C30.5214 25.1996 30.0996 24.7778 29.5784 24.7778ZM36.2422 6.73523C36.2422 5.17527 34.9732 3.90625 33.4132 3.90625C31.8532 3.90625 30.5842 5.17527 30.5842 6.73523C30.5842 8.29519 31.8532 9.56421 33.4132 9.56421C34.9732 9.56421 36.2422 8.29519 36.2422 6.73523ZM9.71265 6.73523C9.71265 5.17527 8.44363 3.90625 6.88367 3.90625C5.3237 3.90625 4.05469 5.17527 4.05469 6.73523C4.05469 8.29519 5.3237 9.56421 6.88367 9.56421C8.44363 9.56421 9.71265 8.29519 9.71265 6.73523Z" fill="url(#paint1_linear_150_341)"/>
<defs>
<linearGradient id="paint0_linear_150_341" x1="20.1484" y1="36.0938" x2="20.1484" y2="3.90625" gradientUnits="userSpaceOnUse">
<stop stop-color="#00B59C"/>
<stop offset="1" stop-color="#9CFFAC"/>
</linearGradient>
<linearGradient id="paint1_linear_150_341" x1="20.1484" y1="26.6638" x2="20.1484" y2="3.90625" gradientUnits="userSpaceOnUse">
<stop stop-color="#C3FFE8"/>
<stop offset="0.997" stop-color="#F0FFF4"/>
</linearGradient>
</defs>
</svg>
