<svg width="41" height="40" viewBox="0 0 41 40" fill="none" xmlns="http://www.w3.org/2000/svg">
<path d="M27.4633 34.3417C27.4633 34.8348 27.0636 35.2344 26.5706 35.2344H22.5835C22.0905 35.2344 21.6909 34.8347 21.6909 34.3417C21.6909 25.5993 14.6038 18.5123 5.86139 18.5123C5.36841 18.5123 4.96875 18.1126 4.96875 17.6196V13.6325C4.96875 13.1395 5.36841 12.7399 5.86139 12.7399C17.7918 12.7399 27.4633 22.4113 27.4633 34.3417ZM5.86139 28.6884C5.36841 28.6884 4.96875 29.088 4.96875 29.581V34.3417C4.96875 34.8347 5.36841 35.2344 5.86139 35.2344H10.6221C11.1151 35.2344 11.5148 34.8347 11.5148 34.3417C11.5148 31.2195 8.98366 28.6884 5.86139 28.6884ZM5.86139 20.7141C5.36835 20.7141 4.96875 21.1138 4.96875 21.6068V25.5939C4.96875 26.0868 5.36841 26.4865 5.86139 26.4865C10.1997 26.4865 13.7166 30.0034 13.7166 34.3417C13.7166 34.8347 14.1163 35.2344 14.6093 35.2344H18.5964C19.0893 35.2344 19.489 34.8347 19.489 34.3417C19.489 26.8154 13.3877 20.7141 5.86139 20.7141ZM5.86139 4.76562C5.36841 4.76562 4.96875 5.16529 4.96875 5.65826V9.64539C4.96875 10.1384 5.36841 10.538 5.86139 10.538C19.0078 10.538 29.6651 21.1953 29.6651 34.3417C29.6651 34.8347 30.0648 35.2344 30.5577 35.2344H34.5449C35.0378 35.2344 35.4375 34.8347 35.4375 34.3417V34.3417C35.4375 18.0073 22.1959 4.76562 5.86139 4.76562Z" fill="url(#paint0_linear_153_473)"/>
<defs>
<linearGradient id="paint0_linear_153_473" x1="20.2031" y1="35.2344" x2="20.2031" y2="4.76562" gradientUnits="userSpaceOnUse">
<stop stop-color="#5558FF"/>
<stop offset="1" stop-color="#00C0FF"/>
</linearGradient>
</defs>
</svg>
