<svg width="41" height="40" viewBox="0 0 41 40" fill="none" xmlns="http://www.w3.org/2000/svg">
<path d="M33.8401 34.1406H7.70679C5.50172 34.1406 3.70679 32.3467 3.70679 30.1406C3.70678 29.4258 3.89831 28.7241 4.26145 28.1084L17.3281 6.10743C18.0449 4.89456 19.3653 4.14062 20.7735 4.14062C22.1817 4.14062 23.502 4.89456 24.2188 6.10743L37.2855 28.1074V28.1084C37.6486 28.7241 37.8401 29.4258 37.8401 30.1406C37.8401 32.3467 36.0452 34.1406 33.8401 34.1406Z" fill="url(#paint0_linear_150_385)"/>
<path d="M20.7734 25.1406C19.6699 25.1406 18.7734 26.0381 18.7734 27.1406C18.7734 28.2432 19.6699 29.1406 20.7734 29.1406C21.877 29.1406 22.7734 28.2432 22.7734 27.1406C22.7734 26.0381 21.877 25.1406 20.7734 25.1406ZM19.7812 21.2646C19.8438 21.7646 20.2695 22.1406 20.7734 22.1406C21.2774 22.1406 21.7031 21.7646 21.7656 21.2646L22.7656 13.2646C22.8008 12.9804 22.7129 12.6934 22.5234 12.4785C22.334 12.2636 22.0606 12.1406 21.7734 12.1406H19.7734C19.4863 12.1406 19.2129 12.2637 19.0234 12.4785C18.834 12.6933 18.7461 12.9804 18.7812 13.2646L19.7812 21.2646Z" fill="url(#paint1_linear_150_385)"/>
<defs>
<linearGradient id="paint0_linear_150_385" x1="20.7735" y1="34.1406" x2="20.7735" y2="4.14062" gradientUnits="userSpaceOnUse">
<stop stop-color="#FF171B"/>
<stop offset="1" stop-color="#FF978D"/>
</linearGradient>
<linearGradient id="paint1_linear_150_385" x1="20.7734" y1="29.1406" x2="20.7734" y2="12.1406" gradientUnits="userSpaceOnUse">
<stop stop-color="#FFC2C3"/>
<stop offset="1" stop-color="#FFF2F2"/>
</linearGradient>
</defs>
</svg>
