<svg width="41" height="40" viewBox="0 0 41 40" fill="none" xmlns="http://www.w3.org/2000/svg">
<path d="M16.2528 11.5086V32.2658H8.70475C6.45033 32.2658 4.61621 30.4317 4.61621 28.1773V15.5971C4.61621 13.3427 6.45033 11.5086 8.70475 11.5086H16.2528ZM36.8213 21.8872C36.8213 22.9294 35.9765 23.7742 34.9343 23.7742H31.6635V20.0002H34.9343C35.9765 20.0002 36.8213 20.845 36.8213 21.8872ZM26.6314 9.62158H18.4544V11.5086H26.6314V9.62158ZM24.802 26.0832L26.6891 22.3091C27.0027 21.6818 26.5466 20.9437 25.8452 20.9437H23.5977L24.802 18.5351C25.0351 18.069 24.8462 17.5023 24.3801 17.2692C23.914 17.0362 23.3473 17.2251 23.1142 17.6912L21.2272 21.4652C20.9136 22.0926 21.3697 22.8307 22.0711 22.8307H24.3186L23.1143 25.2392C22.8812 25.7053 23.0701 26.2721 23.5362 26.5051C24.0023 26.7382 24.569 26.5493 24.802 26.0832Z" fill="url(#paint0_linear_153_476)"/>
<path d="M27.5749 9.62139H17.5108C16.9897 9.62139 16.5673 9.19895 16.5673 8.67788C16.5673 8.15682 16.9897 7.73438 17.5108 7.73438H27.5749C28.096 7.73438 28.5184 8.15682 28.5184 8.67788C28.5184 9.19895 28.096 9.62139 27.5749 9.62139ZM31.6634 15.597V28.1771C31.6634 30.4315 29.8293 32.2656 27.5749 32.2656H16.2528V11.5084H27.5749C29.8293 11.5084 31.6634 13.3425 31.6634 15.597ZM25.8451 20.9435H23.5978L24.8021 18.5349C25.0351 18.0688 24.8462 17.5021 24.3801 17.269C23.914 17.036 23.3473 17.2249 23.1142 17.691L21.2272 21.465C20.9135 22.0924 21.3697 22.8305 22.0711 22.8305H24.3185L23.1142 25.2391C22.8811 25.7051 23.07 26.2719 23.5361 26.5049C24.0022 26.738 24.5689 26.549 24.802 26.083L26.689 22.309C27.0027 21.6816 26.5465 20.9435 25.8451 20.9435ZM12.9505 23.774C12.9505 23.253 12.5281 22.8305 12.007 22.8305H8.86197C8.3409 22.8305 7.91846 23.253 7.91846 23.774C7.91846 24.2951 8.3409 24.7175 8.86197 24.7175H12.007C12.5281 24.7175 12.9505 24.2951 12.9505 23.774ZM12.9505 20C12.9505 19.4789 12.5281 19.0565 12.007 19.0565H8.86197C8.3409 19.0565 7.91846 19.4789 7.91846 20C7.91846 20.5211 8.3409 20.9435 8.86197 20.9435H12.007C12.5281 20.9435 12.9505 20.5211 12.9505 20ZM12.9505 16.226C12.9505 15.7049 12.5281 15.2825 12.007 15.2825H8.86197C8.3409 15.2825 7.91846 15.7049 7.91846 16.226C7.91846 16.747 8.3409 17.1695 8.86197 17.1695H12.007C12.5281 17.1695 12.9505 16.747 12.9505 16.226ZM12.9505 27.5481C12.9505 27.027 12.5281 26.6046 12.007 26.6046H8.86197C8.3409 26.6046 7.91846 27.027 7.91846 27.5481C7.91846 28.0691 8.3409 28.4916 8.86197 28.4916H12.007C12.5281 28.4916 12.9505 28.0691 12.9505 27.5481Z" fill="url(#paint1_linear_153_476)"/>
<defs>
<linearGradient id="paint0_linear_153_476" x1="20.7188" y1="32.2658" x2="20.7188" y2="9.62158" gradientUnits="userSpaceOnUse">
<stop stop-color="#5558FF"/>
<stop offset="1" stop-color="#00C0FF"/>
</linearGradient>
<linearGradient id="paint1_linear_153_476" x1="19.791" y1="32.2656" x2="19.791" y2="7.73438" gradientUnits="userSpaceOnUse">
<stop stop-color="#ADDCFF"/>
<stop offset="0.503" stop-color="#EAF6FF"/>
<stop offset="1" stop-color="#EAF6FF"/>
</linearGradient>
</defs>
</svg>
