<svg width="41" height="40" viewBox="0 0 41 40" fill="none" xmlns="http://www.w3.org/2000/svg">
<path d="M17.3987 33.9357C17.162 33.8157 16.9731 33.6189 16.8629 33.3775C16.7527 33.1361 16.7277 32.8645 16.7921 32.607L18.8521 24.3684L10.6146 22.3085C10.4221 22.2606 10.2448 22.1646 10.0995 22.0295C9.95421 21.8944 9.84556 21.7246 9.78377 21.536C9.72271 21.3471 9.71042 21.1459 9.74804 20.951C9.78566 20.7561 9.87196 20.5739 9.99893 20.4213L21.7177 6.35882C21.888 6.15561 22.122 6.01596 22.3817 5.96256C22.6414 5.90916 22.9116 5.94515 23.1482 6.06468C23.3849 6.18467 23.5738 6.38148 23.684 6.62287C23.7942 6.86426 23.8192 7.13592 23.7548 7.39335L21.6949 15.6319L29.9323 17.6919C30.1248 17.7398 30.3021 17.8358 30.4474 17.9709C30.5927 18.106 30.7014 18.2758 30.7631 18.4644C30.8242 18.6532 30.8365 18.8545 30.7989 19.0494C30.7613 19.2443 30.6749 19.4265 30.548 19.5791L18.8292 33.6416C18.6593 33.8452 18.4252 33.9852 18.1654 34.0387C17.9055 34.0921 17.6352 34.0558 17.3987 33.9357Z" fill="url(#paint0_linear_150_409)"/>
<defs>
<linearGradient id="paint0_linear_150_409" x1="20.2735" y1="34.0627" x2="20.2735" y2="5.93848" gradientUnits="userSpaceOnUse">
<stop stop-color="#5558FF"/>
<stop offset="1" stop-color="#00C0FF"/>
</linearGradient>
</defs>
</svg>
