<svg width="80" height="80" viewBox="0 0 41 40" fill="none" xmlns="http://www.w3.org/2000/svg">
<g clip-path="url(#clip0_150_405)">
<path d="M27.1797 36.0156H10.6172C9.97 36.0156 9.44531 35.4909 9.44531 34.8438V32.1094H7.49219C6.845 32.1094 6.32031 31.5847 6.32031 30.9375V20C6.32031 19.3528 6.845 18.8281 7.49219 18.8281H9.44531V16.0938C9.44531 15.4466 9.97 14.9219 10.6172 14.9219H32.6484C33.2956 14.9219 33.8203 15.4466 33.8203 16.0938V30.9375C33.8203 31.5847 33.2956 32.1094 32.6484 32.1094H30.187L28.1846 35.4466C28.0805 35.6202 27.9332 35.7638 27.7571 35.8635C27.581 35.9632 27.3821 36.0156 27.1797 36.0156ZM2.41406 28.9844V21.9531C2.41406 21.3059 1.88938 20.7812 1.24219 20.7812C0.595 20.7812 0.0703125 21.3059 0.0703125 21.9531V28.9844C0.0703125 29.6316 0.595 30.1562 1.24219 30.1562C1.88938 30.1562 2.41406 29.6316 2.41406 28.9844ZM40.0703 28.9844V21.9531C40.0703 21.3059 39.5456 20.7812 38.8984 20.7812C38.2512 20.7812 37.7266 21.3059 37.7266 21.9531V28.9844C37.7266 29.6316 38.2512 30.1562 38.8984 30.1562C39.5456 30.1562 40.0703 29.6316 40.0703 28.9844ZM17.3359 6.32812V10.2344H22.8047V6.32812H17.3359Z" fill="url(#paint0_linear_150_405)"/>
<path d="M37.7266 28.2031H33.8203V22.7344H37.7266V28.2031ZM6.32031 22.7344H2.41406V28.2031H6.32031V22.7344ZM26.7109 14.9219V11.4062C26.7109 10.7591 26.1863 10.2344 25.5391 10.2344H14.6016C13.9544 10.2344 13.4297 10.7591 13.4297 11.4062V14.9219H26.7109ZM24.7578 5.15625C24.7578 4.50906 24.2331 3.98438 23.5859 3.98438H16.5547C15.9075 3.98438 15.3828 4.50906 15.3828 5.15625C15.3828 5.80344 15.9075 6.32812 16.5547 6.32812H23.5859C24.2331 6.32812 24.7578 5.80344 24.7578 5.15625ZM21.1184 30.6803L23.4622 25.9928C23.8518 25.2137 23.2852 24.2969 22.4141 24.2969H19.6227L21.1184 21.3053C21.4079 20.7264 21.1733 20.0225 20.5944 19.7331C20.0155 19.4437 19.3116 19.6783 19.0221 20.2572L16.6784 24.9447C16.2888 25.7239 16.8554 26.6406 17.7266 26.6406H20.518L19.0222 29.6321C18.7327 30.211 18.9673 30.9149 19.5463 31.2043C20.1251 31.4938 20.829 31.2592 21.1184 30.6803Z" fill="url(#paint1_linear_150_405)"/>
</g>
<defs>
<linearGradient id="paint0_linear_150_405" x1="20.0703" y1="36.0156" x2="20.0703" y2="6.32812" gradientUnits="userSpaceOnUse">
<stop stop-color="#5558FF"/>
<stop offset="1" stop-color="#00C0FF"/>
</linearGradient>
<linearGradient id="paint1_linear_150_405" x1="20.0703" y1="31.3283" x2="20.0703" y2="3.98438" gradientUnits="userSpaceOnUse">
<stop stop-color="#ADDCFF"/>
<stop offset="0.503" stop-color="#EAF6FF"/>
<stop offset="1" stop-color="#EAF6FF"/>
</linearGradient>
<clipPath id="clip0_150_405">
<rect width="40" height="40" fill="white" transform="translate(0.0703125)"/>
</clipPath>
</defs>
</svg>
