<svg width="41" height="40" viewBox="0 0 41 40" fill="none" xmlns="http://www.w3.org/2000/svg">
<path d="M28.419 20C27.9202 20 27.4347 20.0544 26.9627 20.1472L27.404 19.0819C27.5809 18.6564 27.4224 18.1647 27.032 17.9206L25.4249 16.9175C25.5187 16.3849 25.59 15.844 25.59 15.285C25.59 14.7563 25.518 14.2463 25.4339 13.741L27.032 12.7437C27.4224 12.4997 27.5808 12.0089 27.404 11.5825L26.5715 9.57306C26.3947 9.14758 25.9306 8.90818 25.4885 9.01499L23.5255 9.46933C23.0713 8.89536 22.5565 8.31749 21.9831 7.86259L22.4291 5.93404C22.5323 5.48467 22.2965 5.02606 21.871 4.85016L19.8636 3.97908C19.6576 3.89286 19.4277 3.88286 19.215 3.95087C19.0024 4.01888 18.8209 4.16045 18.7033 4.35018L17.7277 5.9507C17.2151 5.86419 16.6968 5.79221 16.1601 5.79221C15.6227 5.79221 15.1039 5.86407 14.5908 5.95082L13.6169 4.35113C13.4989 4.16171 13.3175 4.02035 13.105 3.95221C12.8925 3.88407 12.6627 3.8936 12.4566 3.97908L10.449 4.81062C10.0235 4.98652 9.7878 5.48461 9.89096 5.93404L10.3368 7.86284C9.76347 8.31762 9.18579 8.89555 8.73158 9.46933L6.7687 9.01499C6.3248 8.90818 5.86255 9.14758 5.68571 9.57306L4.85323 11.5825C4.67639 12.0088 4.83481 12.4997 5.22527 12.7437L6.8234 13.7407C6.73922 14.246 6.66724 14.7562 6.66724 15.285C6.66724 15.8442 6.73846 16.3851 6.83232 16.9177L5.22527 17.9206C4.83481 18.1647 4.67645 18.6555 4.85323 19.0819L5.68571 21.0913C5.86839 21.53 6.33908 21.7511 6.7687 21.6494L8.79709 21.1799C9.23797 21.7247 9.79503 22.2159 10.3447 22.6508L9.89102 24.6146C9.78786 25.0631 10.0236 25.5217 10.4491 25.6976L12.4566 26.5292C12.8816 26.7051 13.3723 26.5493 13.6169 26.1581L14.6162 24.559C15.1214 24.6429 15.6314 24.715 16.1601 24.715C16.6892 24.715 17.1996 24.6429 17.7053 24.5588L18.7033 26.1571C18.9481 26.55 19.4393 26.7048 19.8636 26.5291L21.0264 26.0475C20.9286 26.5316 20.875 27.0315 20.875 27.544C20.875 31.7036 24.2584 35.1508 28.419 35.1508C32.5796 35.1508 36.0258 31.7036 36.0258 27.544C36.0258 23.3843 32.5796 20 28.419 20Z" fill="url(#paint0_linear_153_488)"/>
<path d="M28.4187 19.0573C23.7388 19.0573 19.9318 22.8643 19.9318 27.5442C19.9318 32.2242 23.7388 36.094 28.4187 36.094C33.0987 36.094 36.9686 32.2242 36.9686 27.5442C36.9686 22.8643 33.0988 19.0573 28.4187 19.0573ZM31.9145 26.325L28.1425 30.097C27.9583 30.2812 27.717 30.3733 27.4758 30.3733C27.2346 30.3733 26.9932 30.2812 26.8091 30.097L24.9231 28.211C24.5548 27.8427 24.5548 27.2459 24.9231 26.8775C25.2915 26.5092 25.8882 26.5092 26.2566 26.8775L27.4757 28.0968L30.581 24.9915C30.9494 24.6231 31.5461 24.6231 31.9145 24.9915C32.2828 25.3598 32.2828 25.9566 31.9145 26.325ZM16.1598 10.5703C13.5592 10.5703 11.4448 12.6856 11.4448 15.2853C11.4448 17.885 13.5592 20.0003 16.1598 20.0003C18.7604 20.0003 20.8748 17.885 20.8748 15.2853C20.8748 12.6856 18.7605 10.5703 16.1598 10.5703Z" fill="url(#paint1_linear_153_488)"/>
<defs>
<linearGradient id="paint0_linear_153_488" x1="20.4035" y1="35.1508" x2="20.4035" y2="3.90622" gradientUnits="userSpaceOnUse">
<stop stop-color="#00B59C"/>
<stop offset="1" stop-color="#9CFFAC"/>
</linearGradient>
<linearGradient id="paint1_linear_153_488" x1="24.2067" y1="36.094" x2="24.2067" y2="10.5703" gradientUnits="userSpaceOnUse">
<stop stop-color="#C3FFE8"/>
<stop offset="0.997" stop-color="#F0FFF4"/>
</linearGradient>
</defs>
</svg>
