<svg width="41" height="40" viewBox="0 0 41 40" fill="none" xmlns="http://www.w3.org/2000/svg">
<path d="M28.4459 14.2805C28.3118 14.2186 28.1644 14.1911 28.017 14.2007C27.8697 14.2103 27.7271 14.2566 27.6022 14.3354C27.4775 14.4149 27.3749 14.5245 27.3038 14.6541C27.2327 14.7837 27.1954 14.9292 27.1954 15.077V16.543C27.1954 17.0279 26.8014 17.4219 26.3165 17.4219C25.8822 17.4219 25.5148 17.1095 25.4436 16.6846C24.7285 12.2523 21.4721 5 20.1641 5C18.856 5 15.5996 12.2523 14.8855 16.6794C14.8134 17.1095 14.446 17.4219 14.0117 17.4219C13.5268 17.4219 13.1328 17.0279 13.1328 16.543V15.077C13.1328 14.7765 12.9792 14.4968 12.726 14.3354C12.6011 14.2566 12.4585 14.2103 12.3111 14.2007C12.1638 14.1911 12.0164 14.2185 11.8823 14.2804C8.89021 15.6761 6.98047 21.758 6.98047 25.332C6.98047 31.0243 12.4016 35 20.1641 35C27.9266 35 33.3477 31.0243 33.3477 25.332C33.3477 21.758 31.4379 15.6761 28.4459 14.2805Z" fill="url(#paint0_linear_150_345)"/>
<path d="M24.4273 23.1122C24.3485 22.9847 24.2385 22.8795 24.1077 22.8065C23.9768 22.7335 23.8295 22.6951 23.6797 22.6951H21.7296L21.0164 19.8455C20.973 19.6713 20.8772 19.5145 20.742 19.3963C20.6068 19.2782 20.4387 19.2043 20.2602 19.1846C19.8869 19.146 19.5427 19.3374 19.3779 19.6653L15.8622 26.6965C15.7258 26.9686 15.7404 27.2922 15.9008 27.5514C16.0613 27.8106 16.3438 27.9685 16.6484 27.9685H18.5985L19.3118 30.8181C19.3552 30.9923 19.4509 31.1491 19.5861 31.2672C19.7213 31.3854 19.8894 31.4593 20.0679 31.479C20.2465 31.4985 20.4267 31.4629 20.5844 31.377C20.7422 31.291 20.8698 31.1589 20.9503 30.9983L24.4659 23.9671C24.533 23.8332 24.5647 23.6843 24.5579 23.5346C24.5512 23.385 24.5062 23.2395 24.4273 23.1122Z" fill="url(#paint1_linear_150_345)"/>
<defs>
<linearGradient id="paint0_linear_150_345" x1="20.1641" y1="35" x2="20.1641" y2="5" gradientUnits="userSpaceOnUse">
<stop stop-color="#FD5900"/>
<stop offset="1" stop-color="#FFDE00"/>
</linearGradient>
<linearGradient id="paint1_linear_150_345" x1="20.1641" y1="31.484" x2="20.1641" y2="19.1797" gradientUnits="userSpaceOnUse">
<stop stop-color="#FFE59A"/>
<stop offset="1" stop-color="#FFFFD5"/>
</linearGradient>
</defs>
</svg>
