<svg width="80" height="80" viewBox="0 0 41 40" fill="none" xmlns="http://www.w3.org/2000/svg">
<path d="M26.1769 36.0937C25.8819 36.0937 25.6405 35.8523 25.6405 35.5573V33.4115C25.6405 33.1164 25.8819 32.875 26.1769 32.875C26.472 32.875 26.7134 33.1164 26.7134 33.4115V35.5573C26.7134 35.8523 26.472 36.0937 26.1769 36.0937ZM20.8123 36.0937C20.5173 36.0937 20.2759 35.8523 20.2759 35.5573V33.4115C20.2759 33.1164 20.5173 32.875 20.8123 32.875C21.1074 32.875 21.3488 33.1164 21.3488 33.4115V35.5573C21.3488 35.8523 21.1074 36.0937 20.8123 36.0937ZM15.9842 36.0937C15.6892 36.0937 15.4478 35.8523 15.4478 35.5573V33.4115C15.4478 33.1164 15.6892 32.875 15.9842 32.875C16.2793 32.875 16.5207 33.1164 16.5207 33.4115V35.5573C16.5207 35.8523 16.2793 36.0937 15.9842 36.0937Z" fill="url(#paint0_linear_153_492)"/>
<path d="M21.8854 30.729H19.7396C19.4433 30.729 19.2031 30.9692 19.2031 31.2655V33.4113C19.2031 33.7076 19.4433 33.9478 19.7396 33.9478H21.8854C22.1817 33.9478 22.4219 33.7076 22.4219 33.4113V31.2655C22.4219 30.9692 22.1817 30.729 21.8854 30.729Z" fill="url(#paint1_linear_153_492)"/>
<path d="M27.2502 30.729H25.1043C24.8081 30.729 24.5679 30.9692 24.5679 31.2655V33.4113C24.5679 33.7076 24.8081 33.9478 25.1043 33.9478H27.2502C27.5464 33.9478 27.7866 33.7076 27.7866 33.4113V31.2655C27.7866 30.9692 27.5464 30.729 27.2502 30.729Z" fill="url(#paint2_linear_153_492)"/>
<path d="M17.0573 30.729H14.9115C14.6152 30.729 14.375 30.9692 14.375 31.2655V33.4113C14.375 33.7076 14.6152 33.9478 14.9115 33.9478H17.0573C17.3536 33.9478 17.5938 33.7076 17.5938 33.4113V31.2655C17.5938 30.9692 17.3536 30.729 17.0573 30.729Z" fill="url(#paint3_linear_153_492)"/>
<path d="M28.8597 27.5103H12.766C12.4709 27.5103 12.2295 27.7517 12.2295 28.0467V30.1925C12.2295 31.0777 12.9537 31.8019 13.8389 31.8019H27.7868C28.6719 31.8019 29.3962 31.0777 29.3962 30.1925V28.0467C29.3962 27.7517 29.1548 27.5103 28.8597 27.5103Z" fill="url(#paint4_linear_153_492)"/>
<path d="M28.8595 3.90625H12.7658C11.2844 3.90625 10.0835 5.10715 10.0835 6.58854V25.901C10.0835 27.3824 11.2844 28.5833 12.7658 28.5833H28.8595C30.3409 28.5833 31.5418 27.3824 31.5418 25.901V6.58854C31.5418 5.10715 30.3409 3.90625 28.8595 3.90625Z" fill="url(#paint5_linear_153_492)"/>
<path d="M28.3229 6.58838H13.3021C13.0058 6.58838 12.7656 6.82856 12.7656 7.12484V11.4165C12.7656 11.7128 13.0058 11.953 13.3021 11.953H28.3229C28.6192 11.953 28.8594 11.7128 28.8594 11.4165V7.12484C28.8594 6.82856 28.6192 6.58838 28.3229 6.58838Z" fill="url(#paint6_linear_153_492)"/>
<path d="M23.9671 16.5293C23.9223 16.4431 23.8544 16.3708 23.7711 16.3207C23.6878 16.2705 23.5923 16.2443 23.495 16.245H21.8857V13.5627C21.8857 13.3267 21.7301 13.1175 21.5048 13.0477C21.2795 12.978 21.0327 13.0692 20.9039 13.2623L17.6852 18.0904C17.5779 18.2567 17.5672 18.4659 17.6584 18.643C17.7496 18.82 17.932 18.9273 18.1305 18.9273H19.7398V21.6096C19.7398 21.8456 19.8954 22.0549 20.1207 22.1246C20.1744 22.1407 20.2226 22.1461 20.2763 22.1461C20.4533 22.1461 20.6196 22.0602 20.7215 21.9046L23.9403 17.0765C24.0476 16.9102 24.0583 16.701 23.9671 16.524V16.5293Z" fill="url(#paint7_linear_153_492)"/>
<path d="M26.7135 24.2917H14.9115C14.6164 24.2917 14.375 24.0503 14.375 23.7552C14.375 23.4602 14.6164 23.2188 14.9115 23.2188H26.7135C27.0086 23.2188 27.25 23.4602 27.25 23.7552C27.25 24.0503 27.0086 24.2917 26.7135 24.2917ZM26.7135 26.4375H14.9115C14.6164 26.4375 14.375 26.1961 14.375 25.901C14.375 25.606 14.6164 25.3646 14.9115 25.3646H26.7135C27.0086 25.3646 27.25 25.606 27.25 25.901C27.25 26.1961 27.0086 26.4375 26.7135 26.4375Z" fill="url(#paint8_linear_153_492)"/>
<defs>
<linearGradient id="paint0_linear_153_492" x1="21.0806" y1="36.0938" x2="21.0806" y2="32.875" gradientUnits="userSpaceOnUse">
<stop stop-color="#ADDCFF"/>
<stop offset="0.503" stop-color="#EAF6FF"/>
<stop offset="1" stop-color="#EAF6FF"/>
</linearGradient>
<linearGradient id="paint1_linear_153_492" x1="20.8125" y1="33.9478" x2="20.8125" y2="30.729" gradientUnits="userSpaceOnUse">
<stop stop-color="#5558FF"/>
<stop offset="1" stop-color="#00C0FF"/>
</linearGradient>
<linearGradient id="paint2_linear_153_492" x1="26.1772" y1="33.9478" x2="26.1772" y2="30.729" gradientUnits="userSpaceOnUse">
<stop stop-color="#5558FF"/>
<stop offset="1" stop-color="#00C0FF"/>
</linearGradient>
<linearGradient id="paint3_linear_153_492" x1="15.9844" y1="33.9478" x2="15.9844" y2="30.729" gradientUnits="userSpaceOnUse">
<stop stop-color="#5558FF"/>
<stop offset="1" stop-color="#00C0FF"/>
</linearGradient>
<linearGradient id="paint4_linear_153_492" x1="20.8128" y1="31.8019" x2="20.8128" y2="27.5103" gradientUnits="userSpaceOnUse">
<stop stop-color="#ADDCFF"/>
<stop offset="0.503" stop-color="#EAF6FF"/>
<stop offset="1" stop-color="#EAF6FF"/>
</linearGradient>
<linearGradient id="paint5_linear_153_492" x1="20.8127" y1="28.5833" x2="20.8127" y2="3.90625" gradientUnits="userSpaceOnUse">
<stop stop-color="#5558FF"/>
<stop offset="1" stop-color="#00C0FF"/>
</linearGradient>
<linearGradient id="paint6_linear_153_492" x1="20.8125" y1="11.953" x2="20.8125" y2="6.58838" gradientUnits="userSpaceOnUse">
<stop stop-color="#ADDCFF"/>
<stop offset="0.503" stop-color="#EAF6FF"/>
<stop offset="1" stop-color="#EAF6FF"/>
</linearGradient>
<linearGradient id="paint7_linear_153_492" x1="20.8127" y1="22.1461" x2="20.8127" y2="13.0244" gradientUnits="userSpaceOnUse">
<stop stop-color="#ADDCFF"/>
<stop offset="0.503" stop-color="#EAF6FF"/>
<stop offset="1" stop-color="#EAF6FF"/>
</linearGradient>
<linearGradient id="paint8_linear_153_492" x1="20.8125" y1="26.4375" x2="20.8125" y2="23.2188" gradientUnits="userSpaceOnUse">
<stop stop-color="#ADDCFF"/>
<stop offset="0.503" stop-color="#EAF6FF"/>
<stop offset="1" stop-color="#EAF6FF"/>
</linearGradient>
</defs>
</svg>
