<svg width="41" height="40" viewBox="0 0 41 40" fill="none" xmlns="http://www.w3.org/2000/svg">
<path d="M20.1641 36.0938C29.0524 36.0938 36.2578 28.8883 36.2578 20C36.2578 11.1117 29.0524 3.90625 20.1641 3.90625C11.2757 3.90625 4.07031 11.1117 4.07031 20C4.07031 28.8883 11.2757 36.0938 20.1641 36.0938Z" fill="url(#paint0_linear_150_397)"/>
<path d="M21.1071 19.5186V13.5189C22.1912 13.7851 22.993 14.4829 22.993 15.2849C22.993 15.8061 23.4148 16.2279 23.936 16.2279C24.4573 16.2279 24.879 15.8061 24.879 15.2849C24.879 13.463 23.2565 11.9397 21.1071 11.5893V10.5699C21.1071 10.0487 20.6853 9.62695 20.1641 9.62695C19.6428 9.62695 19.2211 10.0487 19.2211 10.5699V11.5893C17.0716 11.9397 15.4491 13.463 15.4491 15.2849C15.4491 17.6161 17.3759 19.1492 19.2211 20.4812V26.4809C18.1369 26.2146 17.3351 25.5168 17.3351 24.7148C17.3351 24.1936 16.9133 23.7719 16.3921 23.7719C15.8709 23.7719 15.4491 24.1936 15.4491 24.7148C15.4491 26.5367 17.0716 28.0601 19.2211 28.4105V29.4298C19.2211 29.951 19.6428 30.3728 20.1641 30.3728C20.6853 30.3728 21.1071 29.951 21.1071 29.4298V28.4105C23.2565 28.0601 24.879 26.5367 24.879 24.7148C24.879 22.3837 22.9522 20.8505 21.1071 19.5186ZM17.3351 15.2849C17.3351 14.4829 18.1369 13.7851 19.2211 13.5189V18.1175C18.1443 17.249 17.3351 16.3534 17.3351 15.2849ZM21.1071 26.4809V21.8823C22.1838 22.7507 22.993 23.6464 22.993 24.7148C22.993 25.5168 22.1912 26.2146 21.1071 26.4809Z" fill="url(#paint1_linear_150_397)"/>
<defs>
<linearGradient id="paint0_linear_150_397" x1="20.1641" y1="36.0938" x2="20.1641" y2="3.90625" gradientUnits="userSpaceOnUse">
<stop stop-color="#FD5900"/>
<stop offset="1" stop-color="#FFDE00"/>
</linearGradient>
<linearGradient id="paint1_linear_150_397" x1="20.1641" y1="30.3728" x2="20.1641" y2="9.62695" gradientUnits="userSpaceOnUse">
<stop stop-color="#FFEDAD"/>
<stop offset="1" stop-color="#FFFFE5"/>
</linearGradient>
</defs>
</svg>
