<svg width="41" height="40" viewBox="0 0 41 40" fill="none" xmlns="http://www.w3.org/2000/svg">
<mask id="path-1-inside-1_153_480" fill="white">
<path d="M36.7656 20.0781C36.7656 11.1466 29.5252 3.90625 20.5938 3.90625C11.6623 3.90625 4.42188 11.1466 4.42188 20.0781C4.42188 29.0096 11.6623 36.25 20.5938 36.25C29.5252 36.25 36.7656 29.0096 36.7656 20.0781ZM7.65625 20.0781C7.65625 12.9329 13.4486 7.14062 20.5938 7.14062C27.7389 7.14062 33.5312 12.9329 33.5312 20.0781C33.5312 27.2233 27.7389 33.0156 20.5938 33.0156C13.4486 33.0156 7.65625 27.2233 7.65625 20.0781Z"/>
</mask>
<path d="M36.7656 20.0781C36.7656 11.1466 29.5252 3.90625 20.5938 3.90625C11.6623 3.90625 4.42188 11.1466 4.42188 20.0781C4.42188 29.0096 11.6623 36.25 20.5938 36.25C29.5252 36.25 36.7656 29.0096 36.7656 20.0781ZM7.65625 20.0781C7.65625 12.9329 13.4486 7.14062 20.5938 7.14062C27.7389 7.14062 33.5312 12.9329 33.5312 20.0781C33.5312 27.2233 27.7389 33.0156 20.5938 33.0156C13.4486 33.0156 7.65625 27.2233 7.65625 20.0781Z" stroke="#F0F0F0" stroke-width="7.01754" stroke-linejoin="round" mask="url(#path-1-inside-1_153_480)"/>
<mask id="path-2-inside-2_153_480" fill="white">
<path d="M19.5785 5.55889C19.5162 4.66792 20.1891 3.88666 21.0819 3.91362C22.6831 3.96197 24.2714 4.24808 25.7939 4.76513C27.828 5.45588 29.704 6.54494 31.3125 7.96874C32.921 9.39254 34.2298 11.1225 35.1623 13.0577C36.0949 14.9929 36.6325 17.0944 36.7439 19.2397C36.8552 21.3849 36.5381 23.5309 35.811 25.5522C35.0838 27.5736 33.9613 29.4298 32.5089 31.0125C31.0564 32.5952 29.3032 33.8727 27.3516 34.7703C25.8908 35.4422 24.3407 35.8913 22.7531 36.1052C21.8679 36.2244 21.1177 35.5171 21.0874 34.6244C21.0571 33.7318 21.7593 32.9939 22.6412 32.8526C23.7995 32.6669 24.9297 32.3242 26.0001 31.8319C27.5613 31.1137 28.9639 30.0918 30.1258 28.8256C31.2878 27.5594 32.1858 26.0745 32.7675 24.4574C33.3492 22.8403 33.6029 21.1236 33.5139 19.4074C33.4248 17.6912 32.9946 16.0099 32.2486 14.4618C31.5026 12.9136 30.4556 11.5297 29.1688 10.3906C27.882 9.25158 26.3811 8.38033 24.7539 7.82773C23.6383 7.4489 22.4787 7.22503 21.3074 7.16032C20.4156 7.11106 19.6408 6.44986 19.5785 5.55889Z"/>
</mask>
<path d="M19.5785 5.55889C19.5162 4.66792 20.1891 3.88666 21.0819 3.91362C22.6831 3.96197 24.2714 4.24808 25.7939 4.76513C27.828 5.45588 29.704 6.54494 31.3125 7.96874C32.921 9.39254 34.2298 11.1225 35.1623 13.0577C36.0949 14.9929 36.6325 17.0944 36.7439 19.2397C36.8552 21.3849 36.5381 23.5309 35.811 25.5522C35.0838 27.5736 33.9613 29.4298 32.5089 31.0125C31.0564 32.5952 29.3032 33.8727 27.3516 34.7703C25.8908 35.4422 24.3407 35.8913 22.7531 36.1052C21.8679 36.2244 21.1177 35.5171 21.0874 34.6244C21.0571 33.7318 21.7593 32.9939 22.6412 32.8526C23.7995 32.6669 24.9297 32.3242 26.0001 31.8319C27.5613 31.1137 28.9639 30.0918 30.1258 28.8256C31.2878 27.5594 32.1858 26.0745 32.7675 24.4574C33.3492 22.8403 33.6029 21.1236 33.5139 19.4074C33.4248 17.6912 32.9946 16.0099 32.2486 14.4618C31.5026 12.9136 30.4556 11.5297 29.1688 10.3906C27.882 9.25158 26.3811 8.38033 24.7539 7.82773C23.6383 7.4489 22.4787 7.22503 21.3074 7.16032C20.4156 7.11106 19.6408 6.44986 19.5785 5.55889Z" stroke="url(#paint0_linear_153_480)" stroke-width="7.01754" stroke-linejoin="round" mask="url(#path-2-inside-2_153_480)"/>
<mask id="path-3-inside-3_153_480" fill="white">
<path d="M33.0156 20.0781C33.0156 13.2177 27.4542 7.65625 20.5938 7.65625C13.7333 7.65625 8.17188 13.2177 8.17188 20.0781C8.17188 26.9385 13.7333 32.5 20.5938 32.5C27.4542 32.5 33.0156 26.9385 33.0156 20.0781ZM11.2773 20.0781C11.2773 14.9328 15.4484 10.7617 20.5938 10.7617C25.7391 10.7617 29.9102 14.9328 29.9102 20.0781C29.9102 25.2234 25.7391 29.3945 20.5938 29.3945C15.4484 29.3945 11.2773 25.2234 11.2773 20.0781Z"/>
</mask>
<path d="M33.0156 20.0781C33.0156 13.2177 27.4542 7.65625 20.5938 7.65625C13.7333 7.65625 8.17188 13.2177 8.17188 20.0781C8.17188 26.9385 13.7333 32.5 20.5938 32.5C27.4542 32.5 33.0156 26.9385 33.0156 20.0781ZM11.2773 20.0781C11.2773 14.9328 15.4484 10.7617 20.5938 10.7617C25.7391 10.7617 29.9102 14.9328 29.9102 20.0781C29.9102 25.2234 25.7391 29.3945 20.5938 29.3945C15.4484 29.3945 11.2773 25.2234 11.2773 20.0781Z" stroke="#F0F0F0" stroke-width="7.01754" stroke-linejoin="round" mask="url(#path-3-inside-3_153_480)"/>
<mask id="path-4-inside-4_153_480" fill="white">
<path d="M19.6464 9.25035C19.5717 8.39606 20.2054 7.63274 21.0624 7.66509C22.6326 7.72437 24.1821 8.08125 25.6273 8.72177C27.5471 9.57271 29.2199 10.8965 30.4893 12.5694C31.7587 14.2423 32.5833 16.2097 32.8859 18.2878C33.1886 20.3659 32.9595 22.4868 32.22 24.4523C31.4805 26.4178 30.2548 28.1637 28.6574 29.5269C27.0601 30.8901 25.1431 31.8261 23.0858 32.2474C21.0285 32.6688 18.898 32.5616 16.8933 31.936C15.3844 31.4652 13.9839 30.7121 12.764 29.7217C12.0983 29.1812 12.1248 28.1894 12.7442 27.5962C13.3635 27.0031 14.3401 27.0368 15.0278 27.5491C15.8681 28.1752 16.8111 28.6572 17.8184 28.9716C19.3219 29.4407 20.9198 29.5211 22.4628 29.2051C24.0058 28.8891 25.4435 28.1871 26.6415 27.1647C27.8396 26.1423 28.7588 24.8329 29.3134 23.3587C29.8681 21.8846 30.0399 20.2939 29.8129 18.7354C29.5859 17.1768 28.9675 15.7013 28.0154 14.4466C27.0634 13.1919 25.8088 12.1991 24.3689 11.5609C23.4041 11.1332 22.3773 10.8742 21.3327 10.7911C20.4779 10.723 19.7212 10.1046 19.6464 9.25035Z"/>
</mask>
<path d="M19.6464 9.25035C19.5717 8.39606 20.2054 7.63274 21.0624 7.66509C22.6326 7.72437 24.1821 8.08125 25.6273 8.72177C27.5471 9.57271 29.2199 10.8965 30.4893 12.5694C31.7587 14.2423 32.5833 16.2097 32.8859 18.2878C33.1886 20.3659 32.9595 22.4868 32.22 24.4523C31.4805 26.4178 30.2548 28.1637 28.6574 29.5269C27.0601 30.8901 25.1431 31.8261 23.0858 32.2474C21.0285 32.6688 18.898 32.5616 16.8933 31.936C15.3844 31.4652 13.9839 30.7121 12.764 29.7217C12.0983 29.1812 12.1248 28.1894 12.7442 27.5962C13.3635 27.0031 14.3401 27.0368 15.0278 27.5491C15.8681 28.1752 16.8111 28.6572 17.8184 28.9716C19.3219 29.4407 20.9198 29.5211 22.4628 29.2051C24.0058 28.8891 25.4435 28.1871 26.6415 27.1647C27.8396 26.1423 28.7588 24.8329 29.3134 23.3587C29.8681 21.8846 30.0399 20.2939 29.8129 18.7354C29.5859 17.1768 28.9675 15.7013 28.0154 14.4466C27.0634 13.1919 25.8088 12.1991 24.3689 11.5609C23.4041 11.1332 22.3773 10.8742 21.3327 10.7911C20.4779 10.723 19.7212 10.1046 19.6464 9.25035Z" stroke="url(#paint1_linear_153_480)" stroke-width="7.01754" stroke-linejoin="round" mask="url(#path-4-inside-4_153_480)"/>
<mask id="path-5-inside-5_153_480" fill="white">
<path d="M29.3438 20.1562C29.3438 15.2806 25.4262 11.3281 20.5938 11.3281C15.7613 11.3281 11.8438 15.2806 11.8438 20.1562C11.8438 25.0319 15.7613 28.9844 20.5938 28.9844C25.4262 28.9844 29.3438 25.0319 29.3438 20.1562ZM15.3278 20.1562C15.3278 17.222 17.6854 14.8433 20.5938 14.8433C23.5021 14.8433 25.8597 17.222 25.8597 20.1562C25.8597 23.0905 23.5021 25.4692 20.5938 25.4692C17.6854 25.4692 15.3278 23.0905 15.3278 20.1562Z"/>
</mask>
<path d="M29.3438 20.1562C29.3438 15.2806 25.4262 11.3281 20.5938 11.3281C15.7613 11.3281 11.8438 15.2806 11.8438 20.1562C11.8438 25.0319 15.7613 28.9844 20.5938 28.9844C25.4262 28.9844 29.3438 25.0319 29.3438 20.1562ZM15.3278 20.1562C15.3278 17.222 17.6854 14.8433 20.5938 14.8433C23.5021 14.8433 25.8597 17.222 25.8597 20.1562C25.8597 23.0905 23.5021 25.4692 20.5938 25.4692C17.6854 25.4692 15.3278 23.0905 15.3278 20.1562Z" stroke="#F0F0F0" stroke-width="7.01754" stroke-linejoin="round" mask="url(#path-5-inside-5_153_480)"/>
<mask id="path-6-inside-6_153_480" fill="white">
<path d="M19.7503 13.2257C19.6271 12.2134 20.3533 11.2717 21.3689 11.3628C22.5265 11.4667 23.6582 11.8028 24.6956 12.3583C26.2797 13.2065 27.5672 14.5253 28.3839 16.1362C29.2005 17.747 29.5069 19.5722 29.2614 21.3645C29.016 23.1569 28.2306 24.8298 27.0116 26.1569C25.7926 27.4841 24.1989 28.4012 22.4462 28.7843C20.6935 29.1673 18.8664 28.9978 17.2124 28.2986C15.5584 27.5993 14.1572 26.4042 13.1986 24.875C12.5661 23.8659 12.1464 22.7435 11.9579 21.5774C11.7962 20.5774 12.6738 19.7872 13.6857 19.8344C14.6964 19.8815 15.4467 20.762 15.7539 21.726C15.8845 22.1359 16.0665 22.5299 16.2971 22.8979C16.8541 23.7864 17.6682 24.4807 18.6292 24.887C19.5902 25.2932 20.6517 25.3917 21.67 25.1692C22.6884 24.9466 23.6143 24.4137 24.3226 23.6427C25.0308 22.8716 25.4871 21.8996 25.6297 20.8583C25.7723 19.8169 25.5943 18.7565 25.1199 17.8206C24.6454 16.8846 23.8973 16.1184 22.977 15.6256C22.6068 15.4274 22.2159 15.2772 21.8136 15.1769C20.8212 14.9294 19.8739 14.241 19.7503 13.2257Z"/>
</mask>
<path d="M19.7503 13.2257C19.6271 12.2134 20.3533 11.2717 21.3689 11.3628C22.5265 11.4667 23.6582 11.8028 24.6956 12.3583C26.2797 13.2065 27.5672 14.5253 28.3839 16.1362C29.2005 17.747 29.5069 19.5722 29.2614 21.3645C29.016 23.1569 28.2306 24.8298 27.0116 26.1569C25.7926 27.4841 24.1989 28.4012 22.4462 28.7843C20.6935 29.1673 18.8664 28.9978 17.2124 28.2986C15.5584 27.5993 14.1572 26.4042 13.1986 24.875C12.5661 23.8659 12.1464 22.7435 11.9579 21.5774C11.7962 20.5774 12.6738 19.7872 13.6857 19.8344C14.6964 19.8815 15.4467 20.762 15.7539 21.726C15.8845 22.1359 16.0665 22.5299 16.2971 22.8979C16.8541 23.7864 17.6682 24.4807 18.6292 24.887C19.5902 25.2932 20.6517 25.3917 21.67 25.1692C22.6884 24.9466 23.6143 24.4137 24.3226 23.6427C25.0308 22.8716 25.4871 21.8996 25.6297 20.8583C25.7723 19.8169 25.5943 18.7565 25.1199 17.8206C24.6454 16.8846 23.8973 16.1184 22.977 15.6256C22.6068 15.4274 22.2159 15.2772 21.8136 15.1769C20.8212 14.9294 19.8739 14.241 19.7503 13.2257Z" stroke="url(#paint2_linear_153_480)" stroke-width="7.01754" stroke-linejoin="round" mask="url(#path-6-inside-6_153_480)"/>
<defs>
<linearGradient id="paint0_linear_153_480" x1="20.5938" y1="36.25" x2="20.5938" y2="3.90625" gradientUnits="userSpaceOnUse">
<stop stop-color="#EE0E51"/>
<stop offset="1" stop-color="#FF9DB2"/>
</linearGradient>
<linearGradient id="paint1_linear_153_480" x1="21.4303" y1="7.00029" x2="12.5823" y2="28.9315" gradientUnits="userSpaceOnUse">
<stop stop-color="#C6FF92"/>
<stop offset="1" stop-color="#5DE700"/>
</linearGradient>
<linearGradient id="paint2_linear_153_480" x1="20.5938" y1="28.9844" x2="20.5938" y2="11.3281" gradientUnits="userSpaceOnUse">
<stop stop-color="#00CDDC"/>
<stop offset="1" stop-color="#A2FCFF"/>
</linearGradient>
</defs>
</svg>