<svg width="40" height="40" viewBox="0 0 40 40" fill="none" xmlns="http://www.w3.org/2000/svg">
<path d="M28.0697 14.6956L32.9222 8.22559C33.0196 8.09569 33.0789 7.94123 33.0935 7.77951C33.1081 7.61779 33.0774 7.45521 33.0047 7.30998C32.9321 7.16475 32.8205 7.04261 32.6824 6.95724C32.5443 6.87188 32.3851 6.82666 32.2227 6.82666H9.49017C9.00731 6.82666 8.61584 7.21813 8.61584 7.70099V21.6902C8.61584 22.1731 9.00731 22.5646 9.49017 22.5646H32.2227C32.3851 22.5646 32.5443 22.5194 32.6824 22.434C32.8205 22.3486 32.9321 22.2265 33.0047 22.0813C33.0774 21.936 33.1081 21.7734 33.0935 21.6117C33.0789 21.45 33.0196 21.2955 32.9222 21.1656L28.0697 14.6956Z" fill="url(#paint0_linear_150_377)"/>
<path d="M9.49017 34.9219H7.74152C7.25865 34.9219 6.86719 34.5304 6.86719 34.0475V5.95245C6.86719 5.46959 7.25865 5.07812 7.74152 5.07812H9.49017C9.97304 5.07812 10.3645 5.46959 10.3645 5.95245V34.0475C10.3645 34.5304 9.97304 34.9219 9.49017 34.9219Z" fill="url(#paint1_linear_150_377)"/>
<defs>
<linearGradient id="paint0_linear_150_377" x1="20.8564" y1="22.5646" x2="20.8564" y2="6.82666" gradientUnits="userSpaceOnUse">
<stop stop-color="#FF2B2B"/>
<stop offset="1" stop-color="#CD1A03"/>
</linearGradient>
<linearGradient id="paint1_linear_150_377" x1="8.61584" y1="34.9219" x2="8.61584" y2="5.07812" gradientUnits="userSpaceOnUse">
<stop stop-color="#FFC9C2"/>
<stop offset="1" stop-color="#FFF2F2"/>
</linearGradient>
</defs>
</svg>
