<svg width="40" height="40" viewBox="0 0 40 40" fill="none" xmlns="http://www.w3.org/2000/svg">
<path d="M30.5488 15.4122L26.1534 18.9286L19.9997 20.6868L13.8461 18.9286L9.45068 15.4122L13.8461 11.8959L19.9997 10.1377L26.1534 11.8959L30.5488 15.4122Z" fill="url(#paint0_linear_155_131)"/>
<path d="M30.5488 22.4447V29.2857C30.5488 29.6187 30.3607 29.9231 30.0628 30.072L20.3929 34.9069C20.2708 34.968 20.1362 34.9997 19.9997 34.9997C19.8633 34.9997 19.7287 34.968 19.6066 34.9069L9.93664 30.072C9.79062 29.999 9.66782 29.8867 9.58199 29.7479C9.49615 29.609 9.45069 29.449 9.45068 29.2857V22.4447L19.9997 20.6865L30.5488 22.4447Z" fill="url(#paint1_linear_155_131)"/>
<path d="M6.48677 19.858C6.19345 20.2979 6.35215 20.8954 6.8251 21.1319L15.7893 25.614C15.981 25.7098 16.201 25.7324 16.4081 25.6774C16.6152 25.6224 16.7951 25.4936 16.9139 25.3153L19.9998 20.6865L9.45076 15.412L6.48677 19.858ZM30.5488 15.412L19.9998 20.6865L23.0857 25.3153C23.2045 25.4936 23.3844 25.6224 23.5915 25.6774C23.7986 25.7324 24.0186 25.7098 24.2102 25.614L33.1745 21.1319C33.6474 20.8954 33.8061 20.2979 33.5128 19.858L30.5488 15.412ZM33.63 10.8488C33.9233 10.4089 33.7646 9.8114 33.2917 9.57493L24.3275 5.09281C24.1358 4.99699 23.9158 4.97446 23.7087 5.02945C23.5016 5.08445 23.3217 5.21318 23.2029 5.39146L19.9998 10.1375L30.5488 15.412L33.63 10.8488ZM16.7967 5.39146C16.6779 5.21318 16.498 5.08445 16.2909 5.02945C16.0838 4.97446 15.8638 4.99699 15.6721 5.09281L6.70783 9.57499C6.23488 9.81146 6.07624 10.4089 6.3695 10.8489L9.45071 15.4121L19.9998 10.1375L16.7967 5.39146Z" fill="url(#paint2_linear_155_131)"/>
<defs>
<linearGradient id="paint0_linear_155_131" x1="19.9997" y1="20.6868" x2="19.9997" y2="10.1377" gradientUnits="userSpaceOnUse">
<stop stop-color="#FFEDAD"/>
<stop offset="1" stop-color="#FFFFE5"/>
</linearGradient>
<linearGradient id="paint1_linear_155_131" x1="19.9997" y1="34.9998" x2="19.9997" y2="20.6865" gradientUnits="userSpaceOnUse">
<stop stop-color="#FD5900"/>
<stop offset="1" stop-color="#FFDE00"/>
</linearGradient>
<linearGradient id="paint2_linear_155_131" x1="19.9998" y1="15.412" x2="19.9998" y2="4.99992" gradientUnits="userSpaceOnUse">
<stop stop-color="#FD5900"/>
<stop offset="1" stop-color="#FFDE00"/>
</linearGradient>
</defs>
</svg>
