<svg width="41" height="40" viewBox="0 0 41 40" fill="none" xmlns="http://www.w3.org/2000/svg">
<path d="M27.5799 32.5H12.7949C12.2382 32.5 11.7869 32.0487 11.7869 31.4919V30.0134C11.7869 28.3459 13.1435 26.9892 14.8111 26.9892H25.5638C27.2313 26.9892 28.5879 28.3459 28.5879 30.0134V31.4919C28.5879 32.0487 28.1366 32.5 27.5799 32.5ZM37.2939 21.7044L33.9338 8.26358C33.8793 8.04548 33.7535 7.85186 33.5763 7.71351C33.3991 7.57515 33.1807 7.5 32.9559 7.5H7.41893C7.19412 7.5 6.97576 7.57515 6.79856 7.71351C6.62136 7.85186 6.4955 8.04548 6.44097 8.26358L3.08089 21.7044C2.92182 22.3407 3.40307 22.957 4.05885 22.957H36.316C36.9718 22.957 37.453 22.3407 37.2939 21.7044Z" fill="url(#paint0_linear_153_469)"/>
<path d="M12.7224 13.9964H16.3501L16.2269 16.4606H12.3528L12.7224 13.9964ZM10.3141 16.4605H6.47019L7.08619 13.9964H10.6837L10.3141 16.4605ZM21.9056 11.9803H18.4695L18.5928 9.51611H21.7824L21.9056 11.9803ZM23.8011 9.51611H26.9807L27.3504 11.9803H23.9243L23.8011 9.51611ZM22.0064 13.9964L22.1296 16.4606H18.2455L18.3687 13.9964H22.0064ZM16.4509 11.9803H13.0248L13.3945 9.51611H16.5741L16.4509 11.9803ZM16.126 18.4767L16.0029 20.9408H11.6807L12.0504 18.4767H16.126ZM18.1447 18.4767H22.2304L22.3537 20.9408H18.0215L18.1447 18.4767ZM24.2492 18.4767H28.3249L28.6945 20.9408H24.3724L24.2492 18.4767ZM24.1484 16.4605L24.0252 13.9964H27.6529L28.0225 16.4605H24.1484ZM29.6915 13.9964H33.289L33.9051 16.4606H30.0611L29.6915 13.9964ZM32.785 11.9803H29.3891L29.0195 9.51611H32.169L32.785 11.9803ZM11.3557 9.51611L10.9861 11.9803H7.59022L8.20621 9.51611H11.3557ZM5.96616 18.4767H10.0117L9.64203 20.9408H5.3501L5.96616 18.4767ZM30.7332 20.9408L30.3635 18.4767H34.409L35.025 20.9408H30.7332ZM15.7043 26.9892H24.6709L25.679 22.957H14.6963L15.7043 26.9892Z" fill="url(#paint1_linear_153_469)"/>
<defs>
<linearGradient id="paint0_linear_153_469" x1="20.1874" y1="32.5" x2="20.1874" y2="-1.9086" gradientUnits="userSpaceOnUse">
<stop stop-color="#ADDCFF"/>
<stop offset="0.503" stop-color="#EAF6FF"/>
<stop offset="1" stop-color="#EAF6FF"/>
</linearGradient>
<linearGradient id="paint1_linear_153_469" x1="20.1876" y1="26.9892" x2="20.1876" y2="9.51611" gradientUnits="userSpaceOnUse">
<stop stop-color="#5558FF"/>
<stop offset="1" stop-color="#00C0FF"/>
</linearGradient>
</defs>
</svg>
