<svg width="41" height="40" viewBox="0 0 41 40" fill="none" xmlns="http://www.w3.org/2000/svg">
<path d="M26.9333 5.02002H25.1812C24.6906 5.02002 24.3052 5.40542 24.3052 5.89606C24.3052 6.38658 23.9198 6.77209 23.4291 6.77209C22.9385 6.77209 22.5531 6.38658 22.5531 5.89606C22.5531 5.40542 22.1677 5.02002 21.6771 5.02002H18.1729C17.6823 5.02002 17.2969 5.40542 17.2969 5.89606C17.2969 6.38658 16.9115 6.77209 16.4208 6.77209C15.9302 6.77209 15.5448 6.38658 15.5448 5.89606C15.5448 5.40542 15.1594 5.02002 14.6688 5.02002H11.1646C10.674 5.02002 10.2886 5.40542 10.2886 5.89606C10.2886 6.38658 9.90318 6.77209 9.41254 6.77209C8.9219 6.77209 8.5365 6.38658 8.5365 5.89606C8.5365 5.40542 8.1511 5.02002 7.66046 5.02002H5.90839C4.45405 5.02002 3.28027 6.19391 3.28027 7.64813V32.294C3.28027 33.7481 4.45405 34.9221 5.90839 34.9221H23.4291L29.5614 28.7898V7.64813C29.5614 6.19391 28.3876 5.02002 26.9333 5.02002Z" fill="url(#paint0_linear_150_389)"/>
<path d="M25.1812 28.7899C24.2175 28.7899 23.4291 29.5783 23.4291 30.542V34.9222C23.6569 34.9222 23.8847 34.8346 24.0423 34.6593L29.2985 29.4031C29.4737 29.2454 29.5614 29.0177 29.5614 28.7899H25.1812ZM9.41254 19.0951H23.4291C23.9134 19.0951 24.3052 18.7033 24.3052 18.2191C24.3052 17.7348 23.9134 17.343 23.4291 17.343H9.41254C8.92832 17.343 8.5365 17.7348 8.5365 18.2191C8.5365 18.7033 8.92832 19.0951 9.41254 19.0951ZM9.41254 15.5909H23.4291C23.9134 15.5909 24.3052 15.1991 24.3052 14.7149C24.3052 14.2307 23.9134 13.8389 23.4291 13.8389H9.41254C8.92832 13.8389 8.5365 14.2307 8.5365 14.7149C8.5365 15.1991 8.92832 15.5909 9.41254 15.5909ZM9.41254 22.5992H23.4291C23.9134 22.5992 24.3052 22.2074 24.3052 21.7232C24.3052 21.239 23.9134 20.8472 23.4291 20.8472H9.41254C8.92832 20.8472 8.5365 21.239 8.5365 21.7232C8.5365 22.2074 8.92832 22.5992 9.41254 22.5992ZM16.4208 24.3513H9.41254C8.92832 24.3513 8.5365 24.7431 8.5365 25.2274C8.5365 25.7116 8.92832 26.1034 9.41254 26.1034H16.4208C16.9051 26.1034 17.2969 25.7116 17.2969 25.2274C17.2969 24.7431 16.9051 24.3513 16.4208 24.3513Z" fill="url(#paint1_linear_150_389)"/>
<path d="M35.079 7.19579V6.01616C35.079 5.46556 34.6335 5.02002 34.0829 5.02002C33.5323 5.02002 33.0868 5.46556 33.0868 6.01616V7.19579C31.9298 7.60839 31.0945 8.70374 31.0945 10.0007V22.9505C31.0945 24.0508 31.9864 24.9428 33.0868 24.9428H35.079C36.1794 24.9428 37.0713 24.0508 37.0713 22.9505V10.0007C37.0713 8.70374 36.236 7.60839 35.079 7.19579Z" fill="url(#paint2_linear_150_389)"/>
<path d="M31.0945 22.9507V29.1065C31.0945 31.1532 31.9272 33.1601 33.3786 34.6125C33.5654 34.7993 33.8183 34.9044 34.0829 34.9044C34.3475 34.9044 34.6004 34.7993 34.7872 34.6125C36.2385 33.1601 37.0713 31.1532 37.0713 29.1065V22.9507H31.0945Z" fill="url(#paint3_linear_150_389)"/>
<defs>
<linearGradient id="paint0_linear_150_389" x1="16.4208" y1="34.9221" x2="16.4208" y2="5.02002" gradientUnits="userSpaceOnUse">
<stop stop-color="#5558FF"/>
<stop offset="1" stop-color="#00C0FF"/>
</linearGradient>
<linearGradient id="paint1_linear_150_389" x1="19.049" y1="34.9222" x2="19.049" y2="13.8389" gradientUnits="userSpaceOnUse">
<stop stop-color="#ADDCFF"/>
<stop offset="0.503" stop-color="#EAF6FF"/>
<stop offset="1" stop-color="#EAF6FF"/>
</linearGradient>
<linearGradient id="paint2_linear_150_389" x1="21.1331" y1="36.8965" x2="21.1331" y2="4.8872" gradientUnits="userSpaceOnUse">
<stop stop-color="#5558FF"/>
<stop offset="1" stop-color="#00C0FF"/>
</linearGradient>
<linearGradient id="paint3_linear_150_389" x1="21.1331" y1="34.9044" x2="21.1331" y2="2.89508" gradientUnits="userSpaceOnUse">
<stop stop-color="#ADDCFF"/>
<stop offset="0.503" stop-color="#EAF6FF"/>
<stop offset="1" stop-color="#EAF6FF"/>
</linearGradient>
</defs>
</svg>
