<svg width="41" height="40" viewBox="0 0 41 40" fill="none" xmlns="http://www.w3.org/2000/svg">
<path d="M24.2578 29.7266H17.2266C16.7412 29.7266 16.3477 30.1201 16.3477 30.6055C16.3477 33.0286 18.319 35 20.7422 35C23.1653 35 25.1367 33.0286 25.1367 30.6055C25.1367 30.1201 24.7432 29.7266 24.2578 29.7266Z" fill="url(#paint0_linear_150_362)"/>
<path d="M20.7422 5C19.2883 5 18.1055 6.18283 18.1055 7.63672V9.57037C18.1055 10.0558 18.499 10.4493 18.9844 10.4493H22.5C22.9854 10.4493 23.3789 10.0558 23.3789 9.57037V7.63672C23.3789 6.18283 22.1961 5 20.7422 5Z" fill="url(#paint1_linear_150_362)"/>
<path d="M33.0469 29.7263C31.593 29.7263 30.4102 28.5435 30.4102 27.0896V18.5611C30.4102 13.2859 26.3405 8.48949 20.6836 8.51475C15.2681 8.53901 11.0742 12.9792 11.0742 18.1834V27.0896C11.0742 28.5435 9.89139 29.7263 8.4375 29.7263C7.95211 29.7263 7.55859 30.1198 7.55859 30.6052C7.55859 31.0906 7.95211 31.4841 8.4375 31.4841H33.0469C33.5323 31.4841 33.9258 31.0906 33.9258 30.6052C33.9258 30.1198 33.5323 29.7263 33.0469 29.7263Z" fill="url(#paint2_linear_150_362)"/>
<path d="M6.42762 12.5765C6.01638 12.1614 5.34599 12.1635 4.93881 12.5744C3.54251 13.9714 2.77344 15.8311 2.77344 17.8125C2.77344 19.7939 3.54251 21.6535 4.93881 23.0506C5.35771 23.4692 6.02396 23.456 6.42762 23.0486C6.83683 22.6345 6.83683 21.9655 6.42348 21.5535C5.42818 20.556 4.87915 19.227 4.87915 17.8125C4.87915 16.3979 5.42818 15.069 6.42348 14.0716C6.83683 13.6596 6.83683 12.9905 6.42762 12.5765ZM36.5477 12.5743C36.1364 12.1634 35.4701 12.1614 35.0589 12.5764C34.6476 12.9894 34.6476 13.6585 35.0589 14.0715C36.0562 15.071 36.6052 16.3989 36.6052 17.8125C36.6052 19.2261 36.0562 20.5539 35.0589 21.5534C34.6476 21.9664 34.6476 22.6355 35.0589 23.0485C35.4698 23.4633 36.1361 23.4618 36.5477 23.0506C37.9419 21.6515 38.7109 19.7908 38.7109 17.8125C38.7109 15.8342 37.9419 13.9735 36.5477 12.5743ZM9.46925 15.5698C9.05801 15.1568 8.39169 15.1568 7.98044 15.5698C7.38411 16.1687 7.05505 16.9658 7.05505 17.8125C7.05505 18.6592 7.38411 19.4563 7.98044 20.0551C8.39176 20.4681 9.05801 20.4681 9.46925 20.0551C9.8805 19.6422 9.8805 18.973 9.46925 18.56C9.26977 18.3598 9.16077 18.0944 9.16077 17.8125C9.16077 17.5306 9.26977 17.2652 9.46925 17.065C9.8805 16.6519 9.8805 15.9828 9.46925 15.5698ZM32.0151 15.5698C31.6039 15.9828 31.6039 16.652 32.0151 17.065C32.2146 17.2652 32.3236 17.5306 32.3236 17.8125C32.3236 18.0944 32.2146 18.3598 32.0151 18.56C31.6039 18.973 31.6039 19.6422 32.0151 20.0551C32.4264 20.4681 33.0927 20.4681 33.5039 20.0551C34.1003 19.4563 34.4293 18.6592 34.4293 17.8125C34.4293 16.9658 34.1003 16.1687 33.5039 15.5698C33.0927 15.1568 32.4264 15.1568 32.0151 15.5698Z" fill="url(#paint3_linear_150_362)"/>
<defs>
<linearGradient id="paint0_linear_150_362" x1="20.7422" y1="35" x2="20.7422" y2="29.7266" gradientUnits="userSpaceOnUse">
<stop stop-color="#FF9500"/>
<stop offset="1" stop-color="#FFE415"/>
</linearGradient>
<linearGradient id="paint1_linear_150_362" x1="20.7422" y1="10.4493" x2="20.7422" y2="5" gradientUnits="userSpaceOnUse">
<stop stop-color="#FF9500"/>
<stop offset="1" stop-color="#FFE415"/>
</linearGradient>
<linearGradient id="paint2_linear_150_362" x1="20.7422" y1="31.4841" x2="20.7422" y2="8.51469" gradientUnits="userSpaceOnUse">
<stop stop-color="#FD0000"/>
<stop offset="1" stop-color="#FF9500"/>
</linearGradient>
<linearGradient id="paint3_linear_150_362" x1="20.7422" y1="19.0625" x2="20.7422" y2="9.92188" gradientUnits="userSpaceOnUse">
<stop stop-color="#FF9500"/>
<stop offset="1" stop-color="#FFE415"/>
</linearGradient>
</defs>
</svg>
