<svg width="80" height="80" viewBox="0 0 41 40" fill="none" xmlns="http://www.w3.org/2000/svg">
<path d="M12.7607 10.9662C9.12135 10.9662 6.15979 13.9278 6.15979 17.5671C6.15979 21.2065 9.12135 24.1681 12.7607 24.1681C16.4001 24.1681 19.3617 21.2065 19.3617 17.5671C19.3617 13.9278 16.4001 10.9662 12.7607 10.9662ZM27.8486 3.35938C24.2092 3.35938 21.2477 6.32094 21.2477 9.96033C21.2477 13.5997 24.2092 16.5613 27.8486 16.5613C31.488 16.5613 34.4496 13.5997 34.4496 9.96033C34.4496 6.32094 31.488 3.35938 27.8486 3.35938Z" fill="url(#paint0_linear_150_349)"/>
<path d="M12.7607 24.1683C8.08079 24.1683 4.21094 27.9753 4.21094 32.6553V34.6041C4.21094 35.1253 4.69557 35.5471 5.2168 35.5471H20.3047C20.8259 35.5471 21.2477 35.1253 21.2477 34.6041V32.6553C21.2477 27.9753 17.4407 24.1683 12.7607 24.1683ZM27.8486 16.5615C23.1687 16.5615 19.3617 20.3685 19.3617 25.0485V26.9973C19.3617 27.5185 19.7835 27.9403 20.3047 27.9403H35.3926C35.9138 27.9403 36.3984 27.5185 36.3984 26.9973V25.0485C36.3984 20.3685 32.5286 16.5615 27.8486 16.5615Z" fill="url(#paint1_linear_150_349)"/>
<defs>
<linearGradient id="paint0_linear_150_349" x1="20.3047" y1="24.1681" x2="20.3047" y2="3.35938" gradientUnits="userSpaceOnUse">
<stop stop-color="#ADDCFF"/>
<stop offset="0.503" stop-color="#EAF6FF"/>
<stop offset="1" stop-color="#EAF6FF"/>
</linearGradient>
<linearGradient id="paint1_linear_150_349" x1="20.3047" y1="35.5471" x2="20.3047" y2="16.5615" gradientUnits="userSpaceOnUse">
<stop stop-color="#5558FF"/>
<stop offset="1" stop-color="#00C0FF"/>
</linearGradient>
</defs>
</svg>
