<svg width="80" height="80" viewBox="0 0 41 40" fill="none" xmlns="http://www.w3.org/2000/svg">
<path d="M12.4479 36.0938H10.5619C6.9225 36.0938 3.96094 33.1322 3.96094 29.4928V27.6068C3.96094 23.9674 6.9225 21.0059 10.5619 21.0059H12.4479C16.0873 21.0059 19.0488 23.9674 19.0488 27.6068V29.4928C19.0488 33.1322 16.0873 36.0938 12.4479 36.0938ZM31.9381 31.8834C32.2935 31.527 32.4906 31.0537 32.4906 30.55C32.4906 30.0462 32.2935 29.5729 31.9381 29.2165L31.2714 28.5498L31.9381 27.8831C32.6753 27.1441 32.6753 25.9553 31.9381 25.2162C31.2029 24.4791 30.0064 24.4791 29.2712 25.2162L28.6045 25.8829L27.9378 25.2162C27.2026 24.4791 26.0061 24.4791 25.2709 25.2162C24.5337 25.9553 24.5337 27.1441 25.2709 27.8831L25.9376 28.5498L25.2709 29.2165C24.536 29.9513 24.536 31.1485 25.2709 31.8834C26.0061 32.6205 27.2026 32.6205 27.9378 31.8834L28.6045 31.2167L29.2712 31.8834C30.0064 32.6206 31.2029 32.6206 31.9381 31.8834ZM29.5475 18.9941H27.6615C24.0221 18.9941 21.0605 16.0326 21.0605 12.3932V10.5072C21.0605 6.86781 24.0221 3.90625 27.6615 3.90625H29.5475C33.1869 3.90625 36.1484 6.86781 36.1484 10.5072V12.3932C36.1484 16.0326 33.1869 18.9941 29.5475 18.9941ZM14.3339 13.3362C15.3745 13.3362 16.2198 12.4899 16.2198 11.4502C16.2198 10.4105 15.3745 9.56421 14.3339 9.56421H8.6759C7.63528 9.56421 6.78992 10.4105 6.78992 11.4502C6.78992 12.4899 7.63528 13.3362 8.6759 13.3362H14.3339Z" fill="url(#paint0_linear_150_401)"/>
<path d="M29.5475 21.0059H27.6615C24.0221 21.0059 21.0605 23.9674 21.0605 27.6068V29.4928C21.0605 33.1322 24.0221 36.0938 27.6615 36.0938H29.5475C33.1869 36.0938 36.1484 33.1322 36.1484 29.4928V27.6068C36.1484 23.9674 33.1869 21.0059 29.5475 21.0059ZM31.2714 29.8833C31.6397 30.2516 31.6397 30.8484 31.2714 31.2167C30.9031 31.585 30.3063 31.585 29.9379 31.2167L28.6045 29.8833L27.271 31.2167C26.9027 31.585 26.3059 31.585 25.9376 31.2167C25.5692 30.8484 25.5692 30.2516 25.9376 29.8833L27.271 28.5498L25.9376 27.2163C25.5692 26.848 25.5692 26.2512 25.9376 25.8829C26.3059 25.5146 26.9027 25.5146 27.271 25.8829L28.6045 27.2163L29.9379 25.8829C30.3063 25.5146 30.9031 25.5146 31.2714 25.8829C31.6397 26.2512 31.6397 26.848 31.2714 27.2163L29.9379 28.5498L31.2714 29.8833ZM10.5619 31.3788C10.438 31.3789 10.3154 31.3546 10.201 31.3072C10.0865 31.2598 9.98263 31.1902 9.89519 31.1025L8.00921 29.2165C7.64087 28.8482 7.64087 28.2514 8.00921 27.883C8.37754 27.5147 8.97433 27.5147 9.34266 27.883L10.5619 29.1023L13.6672 25.9971C14.0355 25.6287 14.6323 25.6287 15.0006 25.9971C15.369 26.3654 15.369 26.9622 15.0006 27.3305L11.2286 31.1025C11.1412 31.1902 11.0373 31.2598 10.9228 31.3072C10.8084 31.3546 10.6858 31.3789 10.5619 31.3788ZM32.3765 11.4502C32.3765 11.9714 31.9547 12.3932 31.4335 12.3932H29.5475V14.2792C29.5475 14.8004 29.1257 15.2222 28.6045 15.2222C28.0833 15.2222 27.6615 14.8004 27.6615 14.2792V12.3932H25.7755C25.2543 12.3932 24.8325 11.9714 24.8325 11.4502C24.8325 10.929 25.2543 10.5072 25.7755 10.5072H27.6615V8.62122C27.6615 8.09999 28.0833 7.67822 28.6045 7.67822C29.1257 7.67822 29.5475 8.09999 29.5475 8.62122V10.5072H31.4335C31.9547 10.5072 32.3765 10.929 32.3765 11.4502ZM12.4479 3.90625H10.5619C6.9225 3.90625 3.96094 6.86781 3.96094 10.5072V12.3932C3.96094 16.0326 6.9225 18.9941 10.5619 18.9941H12.4479C16.0873 18.9941 19.0488 16.0326 19.0488 12.3932V10.5072C19.0488 6.86781 16.0873 3.90625 12.4479 3.90625ZM14.3339 12.3932H8.6759C8.15468 12.3932 7.73291 11.9714 7.73291 11.4502C7.73291 10.929 8.15468 10.5072 8.6759 10.5072H14.3339C14.8551 10.5072 15.2769 10.929 15.2769 11.4502C15.2769 11.9714 14.8551 12.3932 14.3339 12.3932Z" fill="url(#paint1_linear_150_401)"/>
<defs>
<linearGradient id="paint0_linear_150_401" x1="20.0547" y1="36.0938" x2="20.0547" y2="3.90625" gradientUnits="userSpaceOnUse">
<stop stop-color="#5558FF"/>
<stop offset="1" stop-color="#00C0FF"/>
</linearGradient>
<linearGradient id="paint1_linear_150_401" x1="20.0547" y1="36.0937" x2="20.0547" y2="3.90625" gradientUnits="userSpaceOnUse">
<stop stop-color="#ADDCFF"/>
<stop offset="0.503" stop-color="#EAF6FF"/>
<stop offset="1" stop-color="#EAF6FF"/>
</linearGradient>
</defs>
</svg>
