<svg width="41" height="40" viewBox="0 0 41 40" fill="none" xmlns="http://www.w3.org/2000/svg">
<path d="M27.0962 17.7739C27.641 18.188 28.2868 18.4487 28.9665 18.5287C29.8554 20.8128 30.3027 22.883 30.302 24.7217C30.2999 30.3461 25.724 34.9219 20.1016 34.9219C14.4792 34.9219 9.90325 30.3461 9.90109 24.7217C9.90039 22.883 10.3478 20.8128 11.2367 18.5287C11.9163 18.4487 12.5621 18.1881 13.107 17.7739C13.7702 18.2781 14.5831 18.5559 15.4385 18.5559C16.2939 18.5559 17.1068 18.2781 17.77 17.7739C18.4332 18.2781 19.2462 18.5559 20.1016 18.5559C20.957 18.5559 21.7699 18.2781 22.4331 17.7739C23.0963 18.2781 23.9093 18.5559 24.7646 18.5559C25.62 18.5559 26.433 18.2781 27.0962 17.7739Z" fill="url(#paint0_linear_150_373)"/>
<path d="M28.9665 18.5287C28.2868 18.4487 27.641 18.188 27.0962 17.7739C26.433 18.278 25.62 18.5559 24.7647 18.5559C23.9093 18.5559 23.0963 18.278 22.4331 17.7739C21.7699 18.278 20.957 18.5559 20.1016 18.5559C19.2462 18.5559 18.4332 18.278 17.77 17.7739C17.1068 18.278 16.2939 18.5559 15.4385 18.5559C14.5831 18.5559 13.7702 18.278 13.107 17.7739C12.5621 18.188 11.9163 18.4486 11.2367 18.5287C12.0355 16.4759 13.191 14.2505 14.6982 11.865C17.0385 8.16107 19.3441 5.4914 19.4411 5.37955C19.7897 4.97765 20.4135 4.97765 20.762 5.37955C20.859 5.4914 23.1646 8.16107 25.5049 11.865C27.0122 14.2505 28.1676 16.4759 28.9665 18.5287ZM22.5788 21.5601C22.1607 21.3187 21.6259 21.462 21.3845 21.8801L17.3043 28.9473C17.0629 29.3654 17.2062 29.9002 17.6243 30.1416C18.0425 30.383 18.5772 30.2397 18.8186 29.8216L22.8988 22.7545C23.1403 22.3363 22.997 21.8016 22.5788 21.5601ZM17.9471 23.4621C18.43 23.4621 18.8214 23.0707 18.8214 22.5878C18.8214 22.1049 18.43 21.7135 17.9471 21.7135C17.4643 21.7135 17.0728 22.1049 17.0728 22.5878C17.0728 23.0707 17.4643 23.4621 17.9471 23.4621ZM22.256 28.2396C21.7732 28.2396 21.3817 28.631 21.3817 29.1139C21.3817 29.5968 21.7732 29.9882 22.256 29.9882C22.7389 29.9882 23.1304 29.5968 23.1304 29.1139C23.1304 28.631 22.7389 28.2396 22.256 28.2396Z" fill="url(#paint1_linear_150_373)"/>
<defs>
<linearGradient id="paint0_linear_150_373" x1="20.1016" y1="34.9219" x2="20.1016" y2="17.7739" gradientUnits="userSpaceOnUse">
<stop stop-color="#5558FF"/>
<stop offset="1" stop-color="#00C0FF"/>
</linearGradient>
<linearGradient id="paint1_linear_150_373" x1="20.1016" y1="30.2589" x2="20.1016" y2="5.07814" gradientUnits="userSpaceOnUse">
<stop stop-color="#ADDCFF"/>
<stop offset="0.503" stop-color="#EAF6FF"/>
<stop offset="1" stop-color="#EAF6FF"/>
</linearGradient>
</defs>
</svg>
