<svg width="40" height="40" viewBox="0 0 40 40" fill="none" xmlns="http://www.w3.org/2000/svg">
<path d="M16.8817 10.4578C16.5257 9.83763 15.5044 9.83763 15.1484 10.4578L8.2012 22.4837C7.41476 23.8473 7 25.4046 7 26.9854C7 31.9565 11.0439 36.0004 16.015 36.0004C20.9862 36.0004 25.0301 31.9565 25.0301 26.9854C25.0301 25.4046 24.6153 23.8473 23.8269 22.4827L16.8817 10.4578Z" fill="url(#paint0_linear_155_126)"/>
<path d="M28.0909 4.26826C27.8856 3.91058 27.2966 3.91058 27.0912 4.26826L23.0844 11.2042C22.6308 11.9907 22.3916 12.8889 22.3916 13.8006C22.3916 16.6677 24.7239 19 27.591 19C30.4582 19 32.7905 16.6677 32.7905 13.8006C32.7905 12.8889 32.5513 11.9907 32.0965 11.2037L28.0909 4.26826Z" fill="url(#paint1_linear_155_126)"/>
<path d="M18.0184 25.9839H15.6316L16.911 23.4269C17.1575 22.932 16.958 22.3304 16.463 22.0829C15.9681 21.8403 15.3675 22.0359 15.119 22.5309L13.1156 26.5376C12.782 27.2069 13.2708 27.9873 14.0117 27.9873H16.3985L15.119 30.5443C14.8725 31.0392 15.072 31.6408 15.567 31.8883C15.8047 32.007 16.0797 32.0264 16.3317 31.9424C16.5837 31.8584 16.7921 31.6778 16.911 31.4403L18.9144 27.4336C19.248 26.7643 18.7592 25.9839 18.0184 25.9839Z" fill="url(#paint2_linear_155_126)"/>
<defs>
<linearGradient id="paint0_linear_155_126" x1="16.0151" y1="36.0002" x2="16.0151" y2="4" gradientUnits="userSpaceOnUse">
<stop stop-color="#5558FF"/>
<stop offset="1" stop-color="#00C0FF"/>
</linearGradient>
<linearGradient id="paint1_linear_155_126" x1="27.591" y1="19" x2="27.591" y2="4" gradientUnits="userSpaceOnUse">
<stop stop-color="#ADDCFF"/>
<stop offset="0.503" stop-color="#EAF6FF"/>
<stop offset="1" stop-color="#EAF6FF"/>
</linearGradient>
<linearGradient id="paint2_linear_155_126" x1="16.015" y1="31.9939" x2="16.015" y2="21.979" gradientUnits="userSpaceOnUse">
<stop stop-color="#ADDCFF"/>
<stop offset="0.503" stop-color="#EAF6FF"/>
<stop offset="1" stop-color="#EAF6FF"/>
</linearGradient>
</defs>
</svg>
