<svg width="16" height="16" viewBox="0 0 16 16" fill="none" xmlns="http://www.w3.org/2000/svg">
<path d="M9.47866 11.9833L13.8913 3.86733M4.05267 6.504L12.1973 2.08333M2 10C2 11.0609 2.42143 12.0783 3.17157 12.8284C3.92172 13.5786 4.93913 14 6 14C7.06087 14 8.07828 13.5786 8.82843 12.8284C9.57857 12.0783 10 11.0609 10 10C10 8.93913 9.57857 7.92172 8.82843 7.17157C8.07828 6.42143 7.06087 6 6 6C4.93913 6 3.92172 6.42143 3.17157 7.17157C2.42143 7.92172 2 8.93913 2 10ZM4.66667 10C4.66667 10.3536 4.80714 10.6928 5.05719 10.9428C5.30724 11.1929 5.64638 11.3333 6 11.3333C6.35362 11.3333 6.69276 11.1929 6.94281 10.9428C7.19286 10.6928 7.33333 10.3536 7.33333 10C7.33333 9.64638 7.19286 9.30724 6.94281 9.05719C6.69276 8.80714 6.35362 8.66667 6 8.66667C5.64638 8.66667 5.30724 8.80714 5.05719 9.05719C4.80714 9.30724 4.66667 9.64638 4.66667 10ZM11.3333 3.33333C11.3333 3.68696 11.4738 4.02609 11.7239 4.27614C11.9739 4.52619 12.313 4.66667 12.6667 4.66667C13.0203 4.66667 13.3594 4.52619 13.6095 4.27614C13.8595 4.02609 14 3.68696 14 3.33333C14 2.97971 13.8595 2.64057 13.6095 2.39052C13.3594 2.14048 13.0203 2 12.6667 2C12.313 2 11.9739 2.14048 11.7239 2.39052C11.4738 2.64057 11.3333 2.97971 11.3333 3.33333Z" stroke="current" stroke-width="1.5" stroke-linecap="round" stroke-linejoin="round"/>
</svg>
