<svg width="24" height="24" viewBox="0 0 24 24" fill="none" xmlns="http://www.w3.org/2000/svg">
<path d="M11.7461 9.75V13.5" stroke="current" stroke-width="1.7" stroke-linecap="round" stroke-linejoin="round"/>
<path d="M21.2938 17.9978C21.4257 18.2258 21.4953 18.4846 21.4956 18.748C21.4958 19.0115 21.4266 19.2703 21.295 19.4986C21.1634 19.7268 20.974 19.9163 20.7459 20.0481C20.5178 20.1799 20.259 20.2493 19.9956 20.2493H3.5C3.23656 20.2493 2.97776 20.1799 2.74964 20.0481C2.52153 19.9163 2.33215 19.7268 2.20055 19.4986C2.06895 19.2703 1.99978 19.0115 2 18.748C2.00022 18.4846 2.06982 18.2259 2.20179 17.9978L10.4496 3.74857C10.5813 3.52093 10.7706 3.33193 10.9985 3.20055C11.2264 3.06916 11.4848 3 11.7478 3C12.0108 3 12.2692 3.06916 12.4971 3.20055C12.7249 3.33193 12.9142 3.52093 13.046 3.74857L15.1079 7.31089" stroke="current" stroke-width="1.7" stroke-linecap="round" stroke-linejoin="round"/>
<path d="M12.0211 16.875C12.0211 17.0269 11.898 17.15 11.7461 17.15C11.5942 17.15 11.4711 17.0269 11.4711 16.875C11.4711 16.7231 11.5942 16.6 11.7461 16.6C11.898 16.6 12.0211 16.7231 12.0211 16.875Z" fill="current" stroke="current" stroke-width="1.7"/>
<path d="M21.9983 16.2522L19.5809 13.8348M20.3867 11.8203C20.3867 12.1907 20.3137 12.5574 20.172 12.8996C20.0303 13.2418 19.8225 13.5527 19.5606 13.8146C19.2988 14.0764 18.9878 14.2842 18.6457 14.4259C18.3035 14.5676 17.9368 14.6406 17.5664 14.6406C17.196 14.6406 16.8293 14.5676 16.4871 14.4259C16.1449 14.2842 15.834 14.0764 15.5721 13.8146C15.3103 13.5527 15.1025 13.2418 14.9608 12.8996C14.819 12.5574 14.7461 12.1907 14.7461 11.8203C14.7461 11.0723 15.0432 10.355 15.5721 9.82605C16.101 9.29714 16.8184 9 17.5664 9C18.3144 9 19.0317 9.29714 19.5606 9.82605C20.0896 10.355 20.3867 11.0723 20.3867 11.8203Z" stroke="current" stroke-width="1.3" stroke-linecap="round" stroke-linejoin="round"/>
<path d="M19.987 11.0146L19.1813 11.7197M15.1523 12.6262L15.9581 11.9212M17.6201 11.8582L17.5697 11.8204L17.5193 11.7827" stroke="current" stroke-width="0.73" stroke-linecap="round" stroke-linejoin="round"/>
<rect x="16.4922" y="11.0146" width="0.537189" height="0.537189" rx="0.268594" stroke="current" stroke-width="0.4029"/>
<rect x="18.1055" y="12.0889" width="0.537189" height="0.537189" rx="0.268594" stroke="current" stroke-width="0.4029"/>
</svg>
