<svg width="24" height="24" viewBox="0 0 24 24" fill="none" xmlns="http://www.w3.org/2000/svg">
<path d="M18.1341 14.3859V7.80368C18.1341 7.70896 18.1096 7.61595 18.063 7.53418C18.0165 7.45242 17.9496 7.38485 17.8692 7.33841L12.152 4.03535C12.0742 3.99041 11.9864 3.9668 11.8971 3.9668C11.8079 3.9668 11.7201 3.99041 11.6423 4.03535L5.92509 7.33841C5.84471 7.38485 5.77781 7.45242 5.73125 7.53418C5.68469 7.61595 5.66016 7.70896 5.66016 7.80368V14.3859C5.66016 14.4807 5.68469 14.5737 5.73125 14.6554C5.77781 14.7372 5.84471 14.8048 5.92509 14.8512L11.6423 18.1543C11.7201 18.1992 11.8079 18.2228 11.8971 18.2228C11.9864 18.2228 12.0742 18.1992 12.152 18.1543L17.8692 14.8512C17.9496 14.8048 18.0165 14.7372 18.063 14.6554C18.1096 14.5737 18.1341 14.4807 18.1341 14.3859Z" stroke="#161616" stroke-width="1.377" stroke-linecap="round" stroke-linejoin="round"/>
<path d="M19.822 6.63649L11.9744 11.0949L3.96875 6.63574" stroke="#161616" stroke-width="1.377" stroke-linecap="round" stroke-linejoin="round"/>
<path d="M11.9769 11.0957L11.8984 20.0186" stroke="#161616" stroke-width="1.377" stroke-linecap="round" stroke-linejoin="round"/>
</svg>
