<svg width="16" height="16" viewBox="0 0 16 16" fill="none" xmlns="http://www.w3.org/2000/svg">
<path d="M5.66666 6.33335C6.03485 6.33335 6.33333 6.03488 6.33333 5.66669C6.33333 5.2985 6.03485 5.00002 5.66666 5.00002C5.29847 5.00002 5 5.2985 5 5.66669C5 6.03488 5.29847 6.33335 5.66666 6.33335Z" stroke="#646464" stroke-width="1.5" stroke-linecap="round" stroke-linejoin="round"/>
<path d="M2.66666 4.66669V7.23935C2.66666 7.59735 2.80866 7.94069 3.062 8.19402L8.47266 13.6047C8.59803 13.7301 8.74686 13.8295 8.91066 13.8974C9.07446 13.9652 9.25003 14.0002 9.42733 14.0002C9.60463 14.0002 9.7802 13.9652 9.944 13.8974C10.1078 13.8295 10.2566 13.7301 10.382 13.6047L13.6047 10.382C13.73 10.2567 13.8295 10.1078 13.8974 9.94402C13.9652 9.78022 14.0001 9.60465 14.0001 9.42735C14.0001 9.25005 13.9652 9.07449 13.8974 8.91068C13.8295 8.74688 13.73 8.59805 13.6047 8.47269L8.19333 3.06202C7.94029 2.80902 7.59716 2.66683 7.23933 2.66669H4.66666C4.13623 2.66669 3.62752 2.8774 3.25245 3.25247C2.87738 3.62755 2.66666 4.13625 2.66666 4.66669Z" stroke="#646464" stroke-width="1.5" stroke-linecap="round" stroke-linejoin="round"/>
</svg>
