<svg width="150" height="132" viewBox="0 0 150 132" fill="none" xmlns="http://www.w3.org/2000/svg">
<g clip-path="url(#clip0_2519_32670)">
<path d="M65.1495 131.151C29.226 131.151 0 101.925 0 66.0013C0 30.0778 29.226 0.851807 65.1495 0.851807H150V50.4283H128.409C129.665 55.5283 130.299 60.7543 130.299 65.9998C130.299 101.925 101.073 131.151 65.1495 131.151Z" fill="#808080"/>
<path d="M88.7344 5.21924C106.943 12.3112 121.203 27.3472 127.227 46.0582H145.625V5.21924H88.7344Z" fill="#CCCCCC"/>
<path d="M122.631 46.0582H122.472C114.203 22.3492 91.6339 5.28374 65.1394 5.28374V5.21924C31.6249 5.21924 4.35938 32.4847 4.35938 65.9992C4.35938 99.5137 31.6249 126.779 65.1409 126.779C98.6554 126.779 125.921 99.5137 125.921 65.9992C125.921 60.2062 125.09 54.4387 123.453 48.8572L122.631 46.0582ZM65.1394 92.5927C50.4769 92.5927 38.5474 80.6632 38.5474 65.9992C38.5474 51.3352 50.4769 39.4072 65.1394 39.4072C79.8019 39.4072 91.7314 51.3367 91.7314 65.9992C91.7314 80.6617 79.8019 92.5927 65.1394 92.5927Z" fill="#CCCCCC"/>
<path d="M65.1467 39.4094C50.4842 39.4094 38.5547 51.3389 38.5547 66.0014C38.5547 80.6639 50.4842 92.5949 65.1467 92.5949C79.8092 92.5949 91.7387 80.6654 91.7387 66.0014C91.7387 51.3374 79.8092 39.4094 65.1467 39.4094Z" fill="#333333"/>
<path d="M65.1467 95.5949C48.8297 95.5949 35.5547 82.3184 35.5547 66.0014C35.5547 49.6844 48.8297 36.4094 65.1467 36.4094C81.4637 36.4094 94.7387 49.6844 94.7387 66.0014C94.7387 82.3184 81.4652 95.5949 65.1467 95.5949ZM65.1467 39.4094C50.4842 39.4094 38.5547 51.3389 38.5547 66.0014C38.5547 80.6639 50.4842 92.5949 65.1467 92.5949C79.8092 92.5949 91.7387 80.6654 91.7387 66.0014C91.7387 51.3374 79.8092 39.4094 65.1467 39.4094Z" fill="#808080"/>
<path d="M47.7467 64.5015H38.5547V67.5015H47.7467V64.5015Z" fill="#808080"/>
<path d="M91.7389 64.5015H82.5469V67.5015H91.7389V64.5015Z" fill="#808080"/>
<path d="M66.6445 83.4016H63.6445V92.5951H66.6445V83.4016Z" fill="#808080"/>
<path d="M66.6445 39.4094H63.6445V48.6014H66.6445V39.4094Z" fill="#808080"/>
<path d="M53.9065 79.3647L51.7852 77.2434L45.2855 83.7431L47.4068 85.8644L53.9065 79.3647Z" fill="#808080"/>
<path d="M85.008 48.2573L82.8867 46.136L76.3871 52.6356L78.5084 54.7569L85.008 48.2573Z" fill="#808080"/>
<path d="M85.0153 83.7423L78.5156 77.2427L76.3943 79.364L82.894 85.8636L85.0153 83.7423Z" fill="#808080"/>
<path d="M53.902 52.6364L47.4023 46.1367L45.281 48.258L51.7807 54.7577L53.902 52.6364Z" fill="#808080"/>
</g>
<defs>
<clipPath id="clip0_2519_32670">
<rect width="150" height="132" fill="white"/>
</clipPath>
</defs>
</svg>
