<svg width="168" height="96" viewBox="0 0 168 96" fill="none" xmlns="http://www.w3.org/2000/svg">
<path d="M4 92H36M36 92V76M36 92H67M164 92H131M67 92V76M67 92H100M100 92V76M100 92H131M131 92V84V76" stroke="#9BC53D" stroke-width="8" stroke-linecap="round" stroke-linejoin="bevel"/>
<path d="M22.41 18.3734C22.19 16.027 24.0359 14 26.3925 14H45.6075C47.9641 14 49.81 16.027 49.59 18.3734L44.34 74.3734C44.1473 76.4288 42.422 78 40.3575 78H31.6425C29.578 78 27.8527 76.4288 27.66 74.3734L22.41 18.3734Z" fill="#696565"/>
<path d="M54.41 18.3734C54.19 16.027 56.0359 14 58.3925 14H77.6075C79.9641 14 81.81 16.027 81.59 18.3734L76.34 74.3734C76.1473 76.4288 74.422 78 72.3575 78H63.6425C61.578 78 59.8527 76.4288 59.66 74.3734L54.41 18.3734Z" fill="#696565"/>
<path d="M86.41 18.3734C86.19 16.027 88.0359 14 90.3925 14H109.607C111.964 14 113.81 16.027 113.59 18.3734L108.34 74.3734C108.147 76.4288 106.422 78 104.357 78H95.6425C93.578 78 91.8527 76.4288 91.66 74.3734L86.41 18.3734Z" fill="#696565"/>
<path d="M118.41 18.3734C118.19 16.027 120.036 14 122.393 14H141.607C143.964 14 145.81 16.027 145.59 18.3734L140.34 74.3734C140.147 76.4288 138.422 78 136.357 78H127.643C125.578 78 123.853 76.4288 123.66 74.3734L118.41 18.3734Z" fill="#696565"/>
<rect x="14" width="140" height="64" rx="4" fill="#878787"/>
</svg>
