<svg width="69" height="177" viewBox="0 0 69 177" fill="none" xmlns="http://www.w3.org/2000/svg">
<rect x="24" y="117" width="21" height="60" fill="#D9D9D9"/>
<rect x="13.5" y="160.5" width="42" height="16.5" rx="4.5" fill="#818181"/>
<path d="M0 9C0 4.02944 4.02944 0 9 0H60C64.9706 0 69 4.02944 69 9V21H0V9Z" fill="url(#paint0_linear_2519_32811)"/>
<path d="M0 118.5C0 123.471 4.02944 127.5 9 127.5H60C64.9706 127.5 69 123.471 69 118.5V106.5H0V118.5Z" fill="url(#paint1_linear_2519_32811)"/>
<rect x="6" y="27" width="57" height="72" rx="6" fill="url(#paint2_linear_2519_32811)"/>
<rect y="21" width="69" height="85.5" fill="url(#paint3_linear_2519_32811)" fill-opacity="0.25"/>
<rect x="6" y="6" width="7.5" height="12" rx="3.75" fill="#2B2B2B"/>
<rect x="15" y="6" width="7.5" height="12" rx="3.75" fill="#2B2B2B"/>
<defs>
<linearGradient id="paint0_linear_2519_32811" x1="5.0955e-07" y1="16.3481" x2="68.9995" y2="16.1291" gradientUnits="userSpaceOnUse">
<stop offset="0.247825" stop-color="#59AAE9"/>
<stop offset="0.902158" stop-color="#80C7FE"/>
<stop offset="1" stop-color="#326083"/>
</linearGradient>
<linearGradient id="paint1_linear_2519_32811" x1="5.0955e-07" y1="111.152" x2="68.9995" y2="111.371" gradientUnits="userSpaceOnUse">
<stop offset="0.247825" stop-color="#59AAE9"/>
<stop offset="0.902158" stop-color="#80C7FE"/>
<stop offset="1" stop-color="#326083"/>
</linearGradient>
<linearGradient id="paint2_linear_2519_32811" x1="6" y1="64.5" x2="63" y2="64.5" gradientUnits="userSpaceOnUse">
<stop offset="0.005" stop-color="#EEFF00"/>
<stop offset="0.115" stop-color="#FFB20B"/>
<stop offset="0.245" stop-color="#EEFF00"/>
<stop offset="0.445" stop-color="#FFB20B"/>
<stop offset="0.575" stop-color="#EEFF00"/>
<stop offset="0.725" stop-color="#FFB20B"/>
<stop offset="0.86" stop-color="#EEFF00"/>
<stop offset="1" stop-color="#FFB20B"/>
</linearGradient>
<linearGradient id="paint3_linear_2519_32811" x1="69" y1="58.4063" x2="-0.00414085" y2="57.8799" gradientUnits="userSpaceOnUse">
<stop stop-color="#B0DDFF"/>
<stop offset="0.85" stop-color="#DFF1FF"/>
<stop offset="1" stop-color="white"/>
</linearGradient>
</defs>
</svg>
