<svg width="150" height="154" viewBox="0 0 150 154" fill="none" xmlns="http://www.w3.org/2000/svg">
<rect y="136.765" width="150" height="13.2353" fill="#BCE126"/>
<rect x="56" y="42" width="38" height="12" fill="#BCE126"/>
<rect x="56" y="80" width="38" height="2" fill="#BCE126"/>
<rect x="16" y="140" width="118" height="14" fill="#BCE126"/>
<path d="M32 150L48 64.4444L58.5556 0H71.7909V150L32 150Z" fill="#BCE126"/>
<path d="M117.789 150L101.789 64.4444L91.2335 0H77.9982V150L117.789 150Z" fill="#BCE126"/>
<rect width="134" height="4" transform="matrix(-0.178802 0.983885 0.983885 0.178802 52.9453 1.99268)" fill="#0BB9BA"/>
<rect width="134" height="4" transform="matrix(-0.178802 0.983885 0.983885 0.178802 47.0859 1.99268)" fill="#0BB9BA"/>
<rect width="134" height="4" transform="matrix(-0.178802 0.983885 0.983885 0.178802 41.2266 1.99268)" fill="#0BB9BA"/>
<rect width="134" height="4" transform="matrix(-0.178802 0.983885 0.983885 0.178802 35.3672 1.99268)" fill="#0BB9BA"/>
<rect width="134" height="4" transform="matrix(-0.178802 0.983885 0.983885 0.178802 29.5078 1.99268)" fill="#0BB9BA"/>
<rect x="97.4844" y="1.99268" width="134" height="4" transform="rotate(79.7 97.4844 1.99268)" fill="#0BB9BA"/>
<rect x="103.344" y="1.99268" width="134" height="4" transform="rotate(79.7 103.344 1.99268)" fill="#0BB9BA"/>
<rect x="109.203" y="1.99268" width="134" height="4" transform="rotate(79.7 109.203 1.99268)" fill="#0BB9BA"/>
<rect x="115.062" y="1.99268" width="134" height="4" transform="rotate(79.7 115.062 1.99268)" fill="#0BB9BA"/>
<rect x="120.922" y="1.99268" width="134" height="4" transform="rotate(79.7 120.922 1.99268)" fill="#0BB9BA"/>
</svg>
