<svg width="180" height="180" viewBox="0 0 180 180" fill="none" xmlns="http://www.w3.org/2000/svg">
<g clip-path="url(#clip0_2520_32917)">
<path d="M87.2571 108.633L68.9055 111.058L54.6673 112.852L27.0352 48.8313L57.1985 39.0234L68.9055 66.1282L87.2571 108.633Z" fill="#7A8C98"/>
<path d="M87.2578 108.633L68.9062 111.058V66.1282L87.2578 108.633Z" fill="#596C76"/>
<path d="M115.84 150.609H21.9727L44.543 105.469H93.2695L115.84 150.609Z" fill="#FFB64C"/>
<path d="M115.84 150.609H68.9062V105.469H93.2695L115.84 150.609Z" fill="#FF9100"/>
<path d="M175.359 31.5352L180 41.0273L156.094 52.7344L129.727 39.5508V13.1836L156.094 0L180 11.707L175.359 21.1992L156.094 11.8136L140.273 19.7237V33.0114L156.094 40.9215L175.359 31.5352Z" fill="#7A8C98"/>
<path d="M180 41.0273L156.094 52.7344L129.727 39.5508V26.3672H140.273V33.011L156.094 40.9212L175.359 31.5352L180 41.0273Z" fill="#596C76"/>
<path d="M42.5391 10.5469H129.727V42.1875H42.5391V10.5469Z" fill="#7A8C98"/>
<path d="M42.5391 26.3672H129.727V42.1875H42.5391V26.3672Z" fill="#596C76"/>
<path d="M37.2656 0C22.7116 0 10.8984 11.8132 10.8984 26.3672C10.8984 40.9212 22.7116 52.7344 37.2656 52.7344C51.8196 52.7344 63.6328 40.9212 63.6328 26.3672C63.6328 11.8132 51.8196 0 37.2656 0Z" fill="#FFB64C"/>
<path d="M63.6328 126.562H74.1797V137.109H63.6328V126.562Z" fill="#7A8C98"/>
<path d="M10.8984 26.3672H63.6328C63.6328 40.9212 51.8196 52.7344 37.2656 52.7344C22.7116 52.7344 10.8984 40.9212 10.8984 26.3672Z" fill="#FF9100"/>
<path d="M68.9062 126.562H74.1797V137.109H68.9062V126.562Z" fill="#596C76"/>
<path d="M53.0859 26.3672C53.0859 35.1204 46.0202 42.1875 37.2656 42.1875C28.511 42.1875 21.4453 35.1204 21.4453 26.3672C21.4453 17.6126 28.511 10.5469 37.2656 10.5469C46.0202 10.5469 53.0859 17.614 53.0859 26.3672Z" fill="#7A8C98"/>
<path d="M53.0859 26.3672C53.0859 35.1204 46.0202 42.1875 37.2656 42.1875C28.511 42.1875 21.4453 35.1204 21.4453 26.3672H53.0859Z" fill="#596C76"/>
<path d="M31.9922 21.0938H42.5391V31.6406H31.9922V21.0938Z" fill="#FFB64C"/>
<path d="M31.9922 26.3672H42.5391V31.6406H31.9922V26.3672Z" fill="#FF9100"/>
<path d="M140.273 0V52.7344H124.453C115.699 52.7344 108.633 45.6673 108.633 36.9141V15.8203C108.633 7.0657 115.699 0 124.453 0H140.273Z" fill="#FFB64C"/>
<path d="M140.273 26.3672V52.7344H124.453C115.699 52.7344 108.633 45.6673 108.633 36.9141V26.3672H140.273Z" fill="#FF9100"/>
<path d="M121.641 147.656H26.7188C12.1648 147.656 0 160.173 0 174.727V180H148.008V174.727C148.008 160.173 136.195 147.656 121.641 147.656Z" fill="#7A8C98"/>
<path d="M148.008 174.727V180H68.9062V147.656H121.641C136.195 147.656 148.008 160.173 148.008 174.727Z" fill="#596C76"/>
</g>
<defs>
<clipPath id="clip0_2520_32917">
<rect width="180" height="180" fill="white"/>
</clipPath>
</defs>
</svg>
