<svg width="164" height="126" viewBox="0 0 164 126" fill="none" xmlns="http://www.w3.org/2000/svg">
<mask id="path-1-inside-1_2520_32964" fill="white">
<path fill-rule="evenodd" clip-rule="evenodd" d="M142 0H22V126H142C154.15 126 164 97.7939 164 63C164 28.2061 154.15 0 142 0Z"/>
</mask>
<path fill-rule="evenodd" clip-rule="evenodd" d="M142 0H22V126H142C154.15 126 164 97.7939 164 63C164 28.2061 154.15 0 142 0Z" fill="#FEE066"/>
<path d="M22 0V-4H18V0H22ZM22 126H18V130H22V126ZM22 4H142V-4H22V4ZM26 126V0H18V126H26ZM142 122H22V130H142V122ZM160 63C160 80.0707 157.577 95.3543 153.78 106.229C151.875 111.685 149.698 115.815 147.479 118.502C145.238 121.216 143.366 122 142 122V130C146.709 130 150.624 127.258 153.648 123.596C156.693 119.907 159.257 114.811 161.333 108.866C165.498 96.9397 168 80.7233 168 63H160ZM142 4C143.366 4 145.238 4.78366 147.479 7.49752C149.698 10.1851 151.875 14.3151 153.78 19.771C157.577 30.6457 160 45.9293 160 63H168C168 45.2767 165.498 29.0603 161.333 17.1335C159.257 11.1887 156.693 6.09254 153.648 2.40419C150.624 -1.2579 146.709 -4 142 -4V4Z" fill="#755600" mask="url(#path-1-inside-1_2520_32964)"/>
<path d="M42 63C42 80.2338 39.5575 95.7506 35.6682 106.888C33.7202 112.467 31.4466 116.838 29.0211 119.776C26.5848 122.727 24.2018 124 22 124C19.7982 124 17.4152 122.727 14.9789 119.776C12.5534 116.838 10.2798 112.467 8.33183 106.888C4.44247 95.7506 2 80.2338 2 63C2 45.7662 4.44247 30.2494 8.33183 19.1116C10.2798 13.5335 12.5534 9.16197 14.9789 6.22418C17.4152 3.27327 19.7982 2 22 2C24.2018 2 26.5848 3.27327 29.0211 6.22418C31.4466 9.16197 33.7202 13.5335 35.6682 19.1116C39.5575 30.2494 42 45.7662 42 63Z" fill="#FEE066" stroke="#755600" stroke-width="4"/>
</svg>
