<svg width="234" height="44" viewBox="0 0 234 44" fill="none" xmlns="http://www.w3.org/2000/svg">
<rect width="114" height="32" rx="10" fill="#878787"/>
<rect x="120" width="114" height="32" rx="10" fill="#696565"/>
<rect width="16.3886" height="7.25662" rx="3.62831" transform="matrix(0.968982 0.24713 -0.174433 0.984669 6.89844 32.8045)" fill="#086400"/>
<rect width="16.3886" height="7.25662" rx="3.62831" transform="matrix(0.968982 0.24713 -0.174433 0.984669 126.242 32.8045)" fill="#086400"/>
<rect width="16.3886" height="7.25662" rx="3.62831" transform="matrix(0.968982 0.24713 -0.174433 0.984669 24.1484 32.8045)" fill="#086400"/>
<rect width="16.3886" height="7.25662" rx="3.62831" transform="matrix(0.968982 0.24713 -0.174433 0.984669 143.492 32.8045)" fill="#086400"/>
<rect width="16.3886" height="7.25662" rx="3.62831" transform="matrix(0.968982 0.24713 -0.174433 0.984669 41.3984 32.8045)" fill="#086400"/>
<rect width="16.3886" height="7.25662" rx="3.62831" transform="matrix(0.968982 0.24713 -0.174433 0.984669 160.734 32.8045)" fill="#086400"/>
<rect width="16.3886" height="7.25662" rx="3.62831" transform="matrix(0.968982 0.24713 -0.174433 0.984669 58.6484 32.8045)" fill="#086400"/>
<rect width="16.3886" height="7.25662" rx="3.62831" transform="matrix(0.968982 0.24713 -0.174433 0.984669 177.984 32.8045)" fill="#086400"/>
<rect width="16.3886" height="7.25662" rx="3.62831" transform="matrix(0.968982 0.24713 -0.174433 0.984669 75.9062 32.8045)" fill="#086400"/>
<rect width="16.3886" height="7.25662" rx="3.62831" transform="matrix(0.968982 0.24713 -0.174433 0.984669 195.242 32.8045)" fill="#086400"/>
<rect width="16.3886" height="7.25662" rx="3.62831" transform="matrix(0.968982 0.24713 -0.174433 0.984669 93.1484 32.8045)" fill="#086400"/>
<rect width="16.3886" height="7.25662" rx="3.62831" transform="matrix(0.968982 0.24713 -0.174433 0.984669 212.492 32.8045)" fill="#086400"/>
<rect width="16.3886" height="7.25662" rx="3.62831" transform="matrix(-0.968982 0.24713 0.174433 0.984669 107.758 32.8045)" fill="#086400"/>
<rect width="16.3886" height="7.25662" rx="3.62831" transform="matrix(-0.968982 0.24713 0.174433 0.984669 227.102 32.8045)" fill="#086400"/>
<rect width="16.3886" height="7.25662" rx="3.62831" transform="matrix(-0.968982 0.24713 0.174433 0.984669 90.5078 32.8045)" fill="#086400"/>
<rect width="16.3886" height="7.25662" rx="3.62831" transform="matrix(-0.968982 0.24713 0.174433 0.984669 209.852 32.8045)" fill="#086400"/>
<rect width="16.3886" height="7.25662" rx="3.62831" transform="matrix(-0.968982 0.24713 0.174433 0.984669 73.2656 32.8045)" fill="#086400"/>
<rect width="16.3886" height="7.25662" rx="3.62831" transform="matrix(-0.968982 0.24713 0.174433 0.984669 192.602 32.8045)" fill="#086400"/>
<rect width="16.3886" height="7.25662" rx="3.62831" transform="matrix(-0.968982 0.24713 0.174433 0.984669 56.0156 32.8045)" fill="#086400"/>
<rect width="16.3886" height="7.25662" rx="3.62831" transform="matrix(-0.968982 0.24713 0.174433 0.984669 175.352 32.8045)" fill="#086400"/>
<rect width="16.3886" height="7.25662" rx="3.62831" transform="matrix(-0.968982 0.24713 0.174433 0.984669 38.7656 32.8045)" fill="#086400"/>
<rect width="16.3886" height="7.25662" rx="3.62831" transform="matrix(-0.968982 0.24713 0.174433 0.984669 158.102 32.8045)" fill="#086400"/>
<rect width="16.3886" height="7.25662" rx="3.62831" transform="matrix(-0.968982 0.24713 0.174433 0.984669 21.5156 32.8045)" fill="#086400"/>
<rect width="16.3886" height="7.25662" rx="3.62831" transform="matrix(-0.968982 0.24713 0.174433 0.984669 140.859 32.8045)" fill="#086400"/>
</svg>
