<svg version="1.1" id="Layer_1" xmlns="http://www.w3.org/2000/svg" xmlns:xlink="http://www.w3.org/1999/xlink" x="0px" y="0px" viewBox="0 0 100 100" xml:space="preserve"><desc>Copyright Opto 22</desc> 
<g>
<g id="shape">
	<path fill="#660000" d="M67.3,97v-3.4H16.5V7.3h67v70h3.4c1.3,0,2.6,0.6,3.4,1.4V5.9c0-3-2.5-5.5-5.5-5.5H15.1
		c-3,0-5.5,2.5-5.5,5.5v89c0,3,2.5,5.5,5.5,5.5h53.6C67.8,99.5,67.3,98.3,67.3,97z"></path>
	<g>
		<path fill="#660000" d="M86.9,82.1H74.2c-1.1,0-2.1,0.9-2.1,2.1V97"></path>
	</g>
	<path fill="#660000" d="M31.1,60.5c0,0.7-0.6,1.3-1.3,1.3h-6.3c-0.7,0-1.3-0.6-1.3-1.3V40c0-0.7,0.6-1.3,1.3-1.3h6.3
		c0.7,0,1.3,0.6,1.3,1.3V60.5z"></path>
	<path fill="#660000" d="M42.7,60.5c0,0.7-0.6,1.3-1.3,1.3h-6.3c-0.7,0-1.3-0.6-1.3-1.3V35.9c0-0.7,0.6-1.3,1.3-1.3h6.3
		c0.7,0,1.3,0.6,1.3,1.3V60.5z"></path>
	<path fill="#660000" d="M54.4,60.5c0,0.7-0.6,1.3-1.3,1.3h-6.3c-0.7,0-1.3-0.6-1.3-1.3V29.4c0-0.7,0.6-1.3,1.3-1.3h6.3
		c0.7,0,1.3,0.6,1.3,1.3V60.5z"></path>
	<path fill="#660000" d="M66.1,60.5c0,0.7-0.6,1.3-1.3,1.3h-6.3c-0.7,0-1.3-0.6-1.3-1.3V23.9c0-0.7,0.6-1.3,1.3-1.3h6.3
		c0.7,0,1.3,0.6,1.3,1.3V60.5z"></path>
	<path fill="#660000" d="M77.8,60.5c0,0.7-0.6,1.3-1.3,1.3h-6.3c-0.7,0-1.3-0.6-1.3-1.3V15c0-0.7,0.6-1.3,1.3-1.3h6.3
		c0.7,0,1.3,0.6,1.3,1.3V60.5z"></path>
	<rect x="21.2" y="67.5" fill="#660000" width="57.7" height="6.4"></rect>
</g>
</g>
</svg>