<svg version="1.1" id="Layer_1" xmlns="http://www.w3.org/2000/svg" xmlns:xlink="http://www.w3.org/1999/xlink" x="0px" y="0px" viewBox="0 0 100 100" xml:space="preserve"><desc>Copyright Opto 22</desc> 
<g id="frame">
<rect fill="none" width="100" height="100"></rect>
</g>
    <g>
        <g id="shape">
    <path fill="#FFF" d="M68.942,5.134H68.93c-0.063-2.702-2.271-4.884-4.988-4.884h-27.73c-2.757,0-5,2.243-5,5v89.592
	c0,2.757,2.243,5,5,5h27.73c2.757,0,5-2.243,5-5V5.25c0-0.019-0.005-0.036-0.005-0.055C68.937,5.174,68.942,5.155,68.942,5.134z"></path>
        </g>
        
    <g id="shadow">
	<path fill="#660000" d="M68.942,5.134H68.93c-0.063-2.702-2.271-4.884-4.988-4.884h-27.73c-2.757,0-5,2.243-5,5v89.592
		c0,2.757,2.243,5,5,5h27.73c2.757,0,5-2.243,5-5V5.25c0-0.019-0.005-0.036-0.005-0.055C68.937,5.174,68.942,5.155,68.942,5.134z
		 M36.211,2.25h27.73c1.629,0,2.953,1.307,2.993,2.927c-0.079,1.541-4.35,3.34-8.487,5.081c-9.369,3.942-22.201,9.343-22.201,22.311
		v51.61h-3.035V5.25C33.211,3.596,34.557,2.25,36.211,2.25z M33.211,94.842V86.18h15.196c1.471,0,2.668,1.197,2.668,2.668v8.994
		H36.211C34.557,97.842,33.211,96.496,33.211,94.842z M63.942,97.842H53.076v-8.994c0-2.574-2.094-4.668-4.668-4.668H38.246V32.57
		c0-11.64,12.124-16.742,20.977-20.467c3.258-1.372,5.988-2.524,7.719-3.807v86.546C66.942,96.496,65.596,97.842,63.942,97.842z"></path>
	<path fill="#660000" d="M53.73,15.945v66.521H39.878c0,0,0-34.736,0-49.507C39.878,20.555,53.73,15.945,53.73,15.945z"></path>
	
			<path fill="#660000" d="M47.54,6.061l-0.772,2.891c-0.332,1.245,0.606,2.467,1.895,2.467h3.047c1.244,0,2.332-0.836,2.653-2.038
				l0.772-2.891c0.332-1.245-0.606-2.467-1.895-2.467h-3.047C48.949,4.023,47.86,4.859,47.54,6.061z M50.947,9.348l-0.853,0.009
				c-0.454,0.005-0.788-0.425-0.671-0.863l0.407-1.526c0.136-0.511,0.596-0.868,1.124-0.873l0.853-0.009
				c0.454-0.005,0.788,0.425,0.671,0.863l-0.407,1.526C51.935,8.985,51.476,9.342,50.947,9.348z"></path>
			<path fill="#660000" d="M44.248,4.314l-1.814,6.797c-0.042,0.156,0.076,0.308,0.237,0.308h2.155c0.178,0,0.333-0.119,0.379-0.291
				l1.814-6.797c0.042-0.156-0.076-0.308-0.237-0.308h-2.155C44.449,4.023,44.294,4.142,44.248,4.314z"></path>
			<path fill="#660000" d="M40.512,4.023h-3.537c-0.178,0-0.334,0.12-0.379,0.292l-1.819,6.858c-0.033,0.124,0.061,0.246,0.19,0.246
				h2.173c0.178,0,0.333-0.119,0.379-0.291l0.535-2.004h0.226l0.535,2.004c0.046,0.172,0.201,0.291,0.379,0.291h2.155
				c0.161,0,0.278-0.153,0.237-0.308l-0.602-2.257c0.742-0.348,1.319-1.009,1.541-1.84l0.074-0.277
				C42.962,5.367,41.929,4.023,40.512,4.023z M38.836,6.001c0.026-0.099,0.116-0.168,0.218-0.168h0.681
				c0.387,0,0.668,0.367,0.569,0.74l-0.025,0.095c-0.08,0.3-0.352,0.51-0.663,0.51h-1.093L38.836,6.001z"></path>


		<rect x="59.498" y="19.105" fill="#660000" width="3.599" height="3.599"></rect>
		<rect x="59.498" y="25.541" fill="#660000" width="3.599" height="3.599"></rect>
		<rect x="59.498" y="31.978" fill="#660000" width="3.599" height="3.599"></rect>
		<rect x="59.498" y="38.414" fill="#660000" width="3.599" height="3.599"></rect>
		<rect x="59.498" y="44.851" fill="#660000" width="3.599" height="3.599"></rect>
		<rect x="59.498" y="51.287" fill="#660000" width="3.599" height="3.599"></rect>
		<rect x="59.498" y="57.724" fill="#660000" width="3.599" height="3.599"></rect>
		<rect x="59.498" y="64.161" fill="#660000" width="3.599" height="3.599"></rect>
		<rect x="59.498" y="70.597" fill="#660000" width="3.599" height="3.599"></rect>
		<rect x="59.498" y="77.034" fill="#660000" width="3.599" height="3.599"></rect>
		<rect x="59.498" y="83.47" fill="#660000" width="3.599" height="3.599"></rect>

		<path fill="#660000" d="M38.302,89.763c-1.046,0.212-1.834,1.137-1.834,2.246s0.788,2.034,1.834,2.246V89.763z"></path>
		<path fill="#660000" d="M39.219,89.763v4.493c1.046-0.212,1.834-1.137,1.834-2.246S40.266,89.975,39.219,89.763z"></path>
	
		<path fill="#660000" d="M47.36,90.098c-0.362-0.24-0.796-0.381-1.263-0.381c-1.266,0-2.293,1.026-2.293,2.293
			c0,0.467,0.141,0.901,0.381,1.263L47.36,90.098z"></path>
		</g></g></svg>