<svg width="16" height="16" viewBox="0 0 16 16" fill="none" xmlns="http://www.w3.org/2000/svg">
<path d="M14.5815 4.28927L12.4565 2.16427C12.411 2.11408 12.3558 2.07365 12.2942 2.04544C12.2326 2.01723 12.166 2.00182 12.0982 2.00015C12.0305 1.99848 11.9632 2.01059 11.9003 2.03574C11.8374 2.06089 11.7803 2.09855 11.7324 2.14645C11.6845 2.19434 11.6468 2.25147 11.6217 2.31436C11.5965 2.37725 11.5844 2.44459 11.5861 2.51231C11.5878 2.58002 11.6032 2.64669 11.6314 2.70826C11.6596 2.76984 11.7 2.82504 11.7502 2.87052L13.8752 4.99552C13.9685 5.08744 14.0942 5.13905 14.2252 5.13927C14.358 5.13871 14.4855 5.08727 14.5815 4.99552C14.675 4.90179 14.7275 4.7748 14.7275 4.6424C14.7275 4.51 14.675 4.38301 14.5815 4.28927V4.28927Z" fill="#B4B4B4"/>
<path d="M3.97727 2.1636C3.88354 2.07009 3.75654 2.01758 3.62414 2.01758C3.49175 2.01758 3.36475 2.07009 3.27102 2.1636L1.14602 4.2886C1.05251 4.38233 1 4.50932 1 4.64172C1 4.77412 1.05251 4.90111 1.14602 4.99485C1.242 5.08659 1.3695 5.13804 1.50227 5.1386C1.63326 5.13838 1.75894 5.08676 1.85227 4.99485L3.97727 2.86985C4.07078 2.77611 4.12329 2.64912 4.12329 2.51672C4.12329 2.38432 4.07078 2.25733 3.97727 2.1636Z" fill="#B4B4B4"/>
<path d="M13.8672 8.70742C13.862 8.66388 13.8599 8.62001 13.8609 8.57617V8.57617C13.7856 7.0932 13.163 5.69085 12.1136 4.6403C11.0642 3.58975 9.66257 2.96564 8.17969 2.88867H7.55469C6.07282 2.96551 4.67199 3.58874 3.62275 4.63798C2.5735 5.68723 1.95028 7.08806 1.87344 8.56992V8.56992C1.87447 8.61376 1.87238 8.65763 1.86719 8.70117V9.05117C1.87238 9.09472 1.87447 9.13858 1.87344 9.18242V9.18242C1.94728 10.6665 2.56918 12.0704 3.61872 13.1222C4.66827 14.1741 6.07078 14.7991 7.55469 14.8762H8.17969C9.66155 14.7993 11.0624 14.1761 12.1116 13.1269C13.1609 12.0776 13.7841 10.6768 13.8609 9.19492V9.19492C13.8599 9.15108 13.862 9.10722 13.8672 9.06367V8.71367V8.70742ZM11.3672 9.38242H7.86719C7.73458 9.38242 7.6074 9.32974 7.51363 9.23598C7.41987 9.14221 7.36719 9.01503 7.36719 8.88242V5.38242C7.36719 5.24981 7.41987 5.12264 7.51363 5.02887C7.6074 4.9351 7.73458 4.88242 7.86719 4.88242C7.9998 4.88242 8.12697 4.9351 8.22074 5.02887C8.31451 5.12264 8.36719 5.24981 8.36719 5.38242V8.38242H11.3672C11.4998 8.38242 11.627 8.4351 11.7207 8.52887C11.8145 8.62264 11.8672 8.74981 11.8672 8.88242C11.8672 9.01503 11.8145 9.14221 11.7207 9.23598C11.627 9.32974 11.4998 9.38242 11.3672 9.38242Z" fill="#B4B4B4"/>
</svg>
