<svg width="16" height="16" viewBox="0 0 16 16" fill="none" xmlns="http://www.w3.org/2000/svg">
<path d="M12.5 9.5C12.0584 9.49987 11.6295 9.64726 11.2813 9.91875L9.8375 8.79375C9.94577 8.54319 10.0011 8.27295 10 8C10.001 7.95408 9.99895 7.90814 9.99375 7.8625L10.825 7.5875C11.0872 7.9885 11.485 8.28168 11.9456 8.4134C12.4062 8.54512 12.8989 8.50656 13.3334 8.30479C13.768 8.10301 14.1153 7.75152 14.3119 7.31462C14.5085 6.87772 14.5412 6.38463 14.404 5.9256C14.2668 5.46656 13.9689 5.07227 13.5649 4.81489C13.1608 4.5575 12.6775 4.45423 12.2035 4.52397C11.7295 4.59371 11.2965 4.83179 10.9837 5.19466C10.6709 5.55753 10.4992 6.02091 10.5 6.5C10.499 6.54592 10.5011 6.59186 10.5063 6.6375L9.675 6.9125C9.4943 6.63255 9.24631 6.40235 8.95371 6.24295C8.6611 6.08354 8.33321 6.00002 8 6C7.88919 6.00187 7.77859 6.01022 7.66875 6.025L7.24375 5.0625C7.48014 4.87654 7.67108 4.6392 7.80211 4.36848C7.93314 4.09776 8.00081 3.80076 8 3.5C8 3.10444 7.8827 2.71776 7.66294 2.38886C7.44318 2.05996 7.13082 1.80362 6.76537 1.65224C6.39992 1.50087 5.99778 1.46126 5.60982 1.53843C5.22186 1.6156 4.86549 1.80608 4.58579 2.08579C4.30608 2.36549 4.1156 2.72186 4.03843 3.10982C3.96126 3.49778 4.00087 3.89992 4.15224 4.26537C4.30362 4.63082 4.55996 4.94318 4.88886 5.16294C5.21776 5.3827 5.60444 5.5 6 5.5C6.11081 5.49813 6.22142 5.48978 6.33125 5.475L6.75625 6.4375C6.51987 6.62346 6.32892 6.8608 6.1979 7.13152C6.06687 7.40224 5.99919 7.69924 6 8C6.00047 8.3171 6.0754 8.62966 6.21875 8.9125L4.6125 10.3375C4.24193 10.0895 3.7991 9.97237 3.35436 10.0048C2.90962 10.0373 2.48849 10.2175 2.15788 10.5167C1.82727 10.816 1.60615 11.2171 1.52965 11.6564C1.45315 12.0957 1.52566 12.548 1.73566 12.9414C1.94566 13.3348 2.28111 13.6467 2.68869 13.8276C3.09628 14.0085 3.55262 14.048 3.98522 13.9398C4.41783 13.8316 4.80186 13.5819 5.07632 13.2305C5.35077 12.879 5.4999 12.4459 5.5 12C5.49954 11.6829 5.42461 11.3703 5.28125 11.0875L6.8875 9.6625C7.2354 9.89546 7.64781 10.013 8.06625 9.99839C8.48469 9.98381 8.88792 9.83786 9.21875 9.58125L10.6625 10.7063C10.5542 10.9568 10.4989 11.227 10.5 11.5C10.5 11.8956 10.6173 12.2822 10.8371 12.6111C11.0568 12.94 11.3692 13.1964 11.7346 13.3478C12.1001 13.4991 12.5022 13.5387 12.8902 13.4616C13.2781 13.3844 13.6345 13.1939 13.9142 12.9142C14.1939 12.6345 14.3844 12.2781 14.4616 11.8902C14.5387 11.5022 14.4991 11.1001 14.3478 10.7346C14.1964 10.3692 13.94 10.0568 13.6111 9.83706C13.2822 9.6173 12.8956 9.5 12.5 9.5ZM12.5 5.5C12.6978 5.5 12.8911 5.55865 13.0556 5.66853C13.22 5.77841 13.3482 5.93459 13.4239 6.11732C13.4996 6.30004 13.5194 6.50111 13.4808 6.69509C13.4422 6.88907 13.347 7.06726 13.2071 7.20711C13.0673 7.34696 12.8891 7.4422 12.6951 7.48079C12.5011 7.51937 12.3 7.49957 12.1173 7.42388C11.9346 7.34819 11.7784 7.22002 11.6685 7.05557C11.5587 6.89112 11.5 6.69778 11.5 6.5C11.5 6.23478 11.6054 5.98043 11.7929 5.79289C11.9804 5.60536 12.2348 5.5 12.5 5.5V5.5ZM5 3.5C5 3.30222 5.05865 3.10888 5.16853 2.94443C5.27841 2.77998 5.43459 2.65181 5.61732 2.57612C5.80005 2.50043 6.00111 2.48063 6.19509 2.51922C6.38907 2.5578 6.56726 2.65304 6.70711 2.79289C6.84696 2.93275 6.9422 3.11093 6.98079 3.30491C7.01937 3.49889 6.99957 3.69996 6.92388 3.88268C6.84819 4.06541 6.72002 4.22159 6.55557 4.33147C6.39112 4.44135 6.19778 4.5 6 4.5C5.73479 4.5 5.48043 4.39464 5.2929 4.20711C5.10536 4.01957 5 3.76522 5 3.5ZM3.5 13C3.30222 13 3.10888 12.9414 2.94443 12.8315C2.77998 12.7216 2.65181 12.5654 2.57612 12.3827C2.50044 12.2 2.48063 11.9989 2.51922 11.8049C2.5578 11.6109 2.65304 11.4327 2.7929 11.2929C2.93275 11.153 3.11093 11.0578 3.30491 11.0192C3.49889 10.9806 3.69996 11.0004 3.88269 11.0761C4.06541 11.1518 4.22159 11.28 4.33147 11.4444C4.44135 11.6089 4.5 11.8022 4.5 12C4.5 12.2652 4.39465 12.5196 4.20711 12.7071C4.01957 12.8946 3.76522 13 3.5 13ZM12.5 12.5C12.3022 12.5 12.1089 12.4414 11.9444 12.3315C11.78 12.2216 11.6518 12.0654 11.5761 11.8827C11.5004 11.7 11.4806 11.4989 11.5192 11.3049C11.5578 11.1109 11.653 10.9327 11.7929 10.7929C11.9327 10.653 12.1109 10.5578 12.3049 10.5192C12.4989 10.4806 12.7 10.5004 12.8827 10.5761C13.0654 10.6518 13.2216 10.78 13.3315 10.9444C13.4414 11.1089 13.5 11.3022 13.5 11.5C13.5 11.7652 13.3946 12.0196 13.2071 12.2071C13.0196 12.3946 12.7652 12.5 12.5 12.5Z" fill="#B4B4B4"/>
</svg>
