<svg width="16" height="16" viewBox="0 0 16 16" fill="none" xmlns="http://www.w3.org/2000/svg">
<path d="M13.8001 10.9937C13.4314 10.3562 12.9876 9.14375 12.9876 7V6.55625C12.9876 3.7875 10.7689 1.51875 8.03761 1.5H8.00011C7.34432 1.50082 6.69512 1.6308 6.08956 1.88252C5.48401 2.13423 4.93396 2.50276 4.47083 2.96705C4.0077 3.43135 3.64055 3.98231 3.39035 4.5885C3.14015 5.19468 3.01179 5.84421 3.01261 6.5V7C3.01261 9.14375 2.56886 10.3562 2.20011 10.9937C2.11093 11.1457 2.06347 11.3184 2.06251 11.4946C2.06156 11.6708 2.10716 11.844 2.1947 11.9969C2.28224 12.1498 2.4086 12.2768 2.56101 12.3652C2.71342 12.4535 2.88645 12.5 3.06261 12.5H5.50011C5.50011 13.163 5.76351 13.7989 6.23235 14.2678C6.70119 14.7366 7.33707 15 8.00011 15C8.66315 15 9.29904 14.7366 9.76788 14.2678C10.2367 13.7989 10.5001 13.163 10.5001 12.5H12.9376C13.1137 12.5011 13.287 12.4554 13.4396 12.3676C13.5923 12.2797 13.7189 12.1529 13.8064 12C13.8931 11.8463 13.9382 11.6726 13.9371 11.496C13.936 11.3195 13.8888 11.1464 13.8001 10.9937ZM8.00011 14C7.6028 13.9984 7.22222 13.8398 6.94127 13.5588C6.66032 13.2779 6.50176 12.8973 6.50011 12.5H9.50011C9.49847 12.8973 9.3399 13.2779 9.05896 13.5588C8.77801 13.8398 8.39743 13.9984 8.00011 14Z" fill="#B4B4B4"/>
</svg>
