<svg width="16" height="16" viewBox="0 0 16 16" fill="none" xmlns="http://www.w3.org/2000/svg">
<path fill-rule="evenodd" clip-rule="evenodd" d="M14.4918 6.47073C14.4849 6.34219 14.4298 6.22097 14.3376 6.13118L13.2063 4.99993L14.3376 3.86868C14.432 3.77561 14.4872 3.64991 14.4918 3.5174C14.4965 3.3849 14.4502 3.25564 14.3626 3.15618C14.3163 3.10792 14.261 3.06929 14.1998 3.04252C14.1385 3.01575 14.0726 3.00137 14.0058 3.00021C13.939 2.99905 13.8726 3.01113 13.8104 3.03575C13.7483 3.06038 13.6917 3.09706 13.6438 3.14368L12.5001 4.29368L11.3563 3.14368C11.3084 3.09706 11.2518 3.06038 11.1897 3.03575C11.1275 3.01113 11.0611 2.99905 10.9943 3.00021C10.9275 3.00137 10.8616 3.01575 10.8003 3.04252C10.7391 3.06929 10.6838 3.10792 10.6376 3.15618C10.5499 3.25564 10.5036 3.3849 10.5083 3.5174C10.5129 3.64991 10.5681 3.77561 10.6626 3.86868L11.7938 4.99993L10.6563 6.13118C10.5654 6.2217 10.5112 6.34272 10.5043 6.47085C10.4973 6.59898 10.5381 6.72513 10.6188 6.82493C10.6659 6.87997 10.7244 6.92413 10.7902 6.95435C10.856 6.98456 10.9276 7.00011 11.0001 6.99993C11.1326 6.99813 11.2596 6.94686 11.3563 6.85618L12.5001 5.70618L13.6438 6.85618C13.7398 6.94792 13.8673 6.99937 14.0001 6.99993C14.0716 7.00005 14.1422 6.98444 14.207 6.95419C14.2719 6.92395 14.3292 6.87982 14.3751 6.82493C14.4571 6.72571 14.4987 6.59927 14.4918 6.47073ZM12.5951 7.24513C12.6251 7.25786 12.6523 7.27649 12.6751 7.29993L12.9376 7.56243C13.0089 7.63164 13.0863 7.69439 13.1688 7.74993C13.1983 7.76915 13.2234 7.79439 13.2425 7.82399C13.2616 7.8536 13.2742 7.8869 13.2795 7.92171C13.2848 7.95652 13.2827 7.99207 13.2733 8.02601C13.2639 8.05996 13.2475 8.09153 13.2251 8.11868L10.0439 11.8648C9.71739 11.2043 9.03675 10.75 8.25 10.75C7.30837 10.75 6.51872 11.4007 6.30625 12.277L0.806305 5.79993C0.718626 5.69358 0.653019 5.57082 0.613314 5.43883C0.573609 5.30683 0.560603 5.16825 0.575055 5.03118C0.589 4.897 0.630639 4.76717 0.697339 4.6499C0.76404 4.53264 0.854349 4.4305 0.962555 4.34993C2.21906 3.40493 3.65296 2.72257 5.17879 2.34353C6.70462 1.96449 8.29115 1.89652 9.8438 2.14368C9.87492 2.15059 9.90367 2.1656 9.92714 2.18717C9.95061 2.20874 9.96798 2.23612 9.97749 2.26655C9.987 2.29698 9.98831 2.32938 9.9813 2.36048C9.97429 2.39158 9.9592 2.42028 9.93755 2.44368C9.9131 2.465 9.89013 2.48797 9.8688 2.51243C9.3438 3.11243 9.40005 4.02493 9.96255 4.58743L10.3813 4.99993L9.93755 5.43743C9.65816 5.72049 9.50151 6.10221 9.50151 6.49993C9.50151 6.89765 9.65816 7.27937 9.93755 7.56243C10.0789 7.70349 10.247 7.81491 10.4319 7.89016C10.6169 7.96541 10.815 8.00298 11.0147 8.00065C11.2144 7.99832 11.4116 7.95615 11.5947 7.8766C11.7779 7.79706 11.9433 7.68175 12.0813 7.53743L12.3251 7.29993C12.3478 7.27649 12.375 7.25786 12.405 7.24513C12.4351 7.23241 12.4674 7.22585 12.5001 7.22585C12.5327 7.22585 12.565 7.23241 12.5951 7.24513Z" fill="#B4B4B4"/>
<path d="M9.21875 12.75C9.21875 13.285 8.78503 13.7188 8.25 13.7188C7.71497 13.7188 7.28125 13.285 7.28125 12.75C7.28125 12.215 7.71497 11.7812 8.25 11.7812C8.78503 11.7812 9.21875 12.215 9.21875 12.75Z" fill="#B4B4B4" stroke="#B4B4B4" stroke-width="0.0625"/>
</svg>
