<svg width="16" height="16" viewBox="0 0 16 16" fill="none" xmlns="http://www.w3.org/2000/svg">
<path fill-rule="evenodd" clip-rule="evenodd" d="M11.631 2.53863L9.68087 4.48872C9.16017 5.00942 9.16017 5.85364 9.68087 6.37434L10.6237 7.31715C11.1444 7.83785 11.9886 7.83785 12.5093 7.31715L14.4594 5.36706C14.8205 6.69675 14.4842 8.17069 13.4475 9.20738C12.228 10.4269 10.4035 10.6772 8.92046 9.96318L5.50271 13.3809C4.98201 13.9016 4.13779 13.9016 3.61709 13.3809C3.09639 12.8602 3.09639 12.016 3.61709 11.4953L7.03484 8.07757C6.32078 6.59452 6.57117 4.77 7.79065 3.55052C8.82734 2.51383 10.3013 2.17749 11.631 2.53863Z" fill="#B4B4B4"/>
<path fill-rule="evenodd" clip-rule="evenodd" d="M12.1047 3.95307L13.0475 4.89588C13.3079 5.15623 13.3079 5.57834 13.0475 5.83869L12.1278 6.75848C11.8674 7.01883 11.4453 7.01883 11.1849 6.75848L10.2421 5.81567C9.98179 5.55532 9.98179 5.13321 10.2421 4.87286L11.1619 3.95307C11.4223 3.69273 11.8444 3.69273 12.1047 3.95307Z" fill="#B4B4B4"/>
<path fill-rule="evenodd" clip-rule="evenodd" d="M3.34725 5.67538L3.79634 4.32812H4.20366L4.65275 5.67538L6 6.12446V6.53179L4.65275 6.98087L4.20366 8.32812H3.79634L3.34725 6.98087L2 6.53179V6.12446L3.34725 5.67538Z" fill="#B4B4B4"/>
<path fill-rule="evenodd" clip-rule="evenodd" d="M5.3455 2.67363L5.57004 2H5.77371L5.99825 2.67363L6.67187 2.89817V3.10183L5.99825 3.32637L5.77371 4H5.57004L5.3455 3.32637L4.67188 3.10183V2.89817L5.3455 2.67363Z" fill="#B4B4B4"/>
</svg>
