<svg width="16" height="16" viewBox="0 0 16 16" fill="none" xmlns="http://www.w3.org/2000/svg">
<path d="M10.5034 8.00143C10.1262 8.00143 9.77128 7.80053 9.57932 7.4791L8.14403 5.09961L6.71098 7.4791C6.51678 7.80276 6.16187 8.00366 5.78463 8.00366C5.68419 8.00366 5.58374 7.99027 5.48776 7.96125L2.42969 7.08624V11.0595C2.42969 11.3876 2.6529 11.6733 2.96987 11.7515L7.79582 12.9591C8.0235 13.0149 8.26234 13.0149 8.48779 12.9591L13.3182 11.7515C13.6352 11.6711 13.8584 11.3854 13.8584 11.0595V7.08624L10.8003 7.95901C10.7043 7.98803 10.6039 8.00143 10.5034 8.00143Z" fill="#B4B4B4"/>
<path d="M15.2489 5.49639L14.0993 3.20172C14.0301 3.06333 13.8805 2.98297 13.7265 3.00306L8.14388 3.71512L10.1908 7.11024C10.2756 7.25087 10.4452 7.31784 10.6037 7.27319L15.0212 6.01202C15.2422 5.94728 15.3493 5.70175 15.2489 5.49639ZM2.18846 3.20172L1.03889 5.49639C0.936212 5.70175 1.04559 5.94729 1.26434 6.00979L5.6818 7.27096C5.84028 7.3156 6.00993 7.24864 6.09475 7.10801L8.14388 3.71512L2.559 3.00306C2.40498 2.9852 2.25765 3.06333 2.18846 3.20172Z" fill="#B4B4B4"/>
</svg>
