<svg width="16" height="16" viewBox="0 0 16 16" fill="none" xmlns="http://www.w3.org/2000/svg">
<path fill-rule="evenodd" clip-rule="evenodd" d="M9.85625 1.64376L13.3562 5.14376C13.4491 5.23901 13.5007 5.36698 13.5 5.50001V13.5C13.5 13.7652 13.3946 14.0196 13.2071 14.2071C13.0196 14.3947 12.7652 14.5 12.5 14.5H3.5C3.23478 14.5 2.98043 14.3947 2.79289 14.2071C2.60536 14.0196 2.5 13.7652 2.5 13.5V2.50001C2.5 2.23479 2.60536 1.98044 2.79289 1.7929C2.98043 1.60536 3.23478 1.50001 3.5 1.50001H9.5C9.63302 1.49926 9.761 1.5509 9.85625 1.64376ZM9.5 5.00001C9.5 5.27615 9.72386 5.50001 10 5.50001H12.25L9.5 2.75001V5.00001ZM10.25 7C10.1119 7 10 7.11193 10 7.25V12.75C10 12.8881 10.1119 13 10.25 13H11.25C11.3881 13 11.5 12.8881 11.5 12.75V7.25C11.5 7.11193 11.3881 7 11.25 7H10.25ZM8 8.25C8 8.11193 8.11193 8 8.25 8H9.25C9.38807 8 9.5 8.11193 9.5 8.25V12.75C9.5 12.8881 9.38807 13 9.25 13H8.25C8.11193 13 8 12.8881 8 12.75V8.25ZM6 9.25C6 9.11193 6.11193 9 6.25 9H7.25C7.38807 9 7.5 9.11193 7.5 9.25V12.75C7.5 12.8881 7.38807 13 7.25 13H6.25C6.11193 13 6 12.8881 6 12.75V9.25ZM4 10.75C4 10.6119 4.11193 10.5 4.25 10.5H5.25C5.38807 10.5 5.5 10.6119 5.5 10.75V12.75C5.5 12.8881 5.38807 13 5.25 13H4.25C4.11193 13 4 12.8881 4 12.75V10.75Z" fill="#B4B4B4"/>
</svg>
