<svg width="16" height="16" viewBox="0 0 16 16" fill="none" xmlns="http://www.w3.org/2000/svg">
<path fill-rule="evenodd" clip-rule="evenodd" d="M6.7907 1.25844C6.71936 1.30213 6.67206 1.37307 6.64046 1.45152C6.53136 1.72219 6.2634 2.4111 6.10506 3.02588C5.5998 3.22558 5.13256 3.5029 4.7174 3.84347C4.1154 3.6756 3.39496 3.56743 3.11014 3.52833C3.02765 3.51703 2.94372 3.52327 2.87091 3.56437C2.70712 3.65687 2.38805 3.8997 2.04791 4.5C1.70777 5.10027 1.66094 5.50323 1.66422 5.69403C1.66568 5.77883 1.70233 5.85603 1.7532 5.92313C1.92878 6.15487 2.38064 6.73617 2.82417 7.18337C2.78403 7.4496 2.7632 7.72233 2.7632 8C2.7632 8.27767 2.78403 8.55037 2.82417 8.8166C2.38064 9.2638 1.92878 9.8451 1.7532 10.0768C1.70233 10.144 1.66568 10.2211 1.66422 10.3059C1.66094 10.4967 1.70777 10.8997 2.04791 11.5C2.38805 12.1003 2.70712 12.3431 2.87091 12.4356C2.94372 12.4767 3.02765 12.4829 3.11014 12.4716C3.39496 12.4325 4.1154 12.3244 4.71736 12.1565C5.13253 12.4971 5.5998 12.7744 6.10506 12.9741C6.2634 13.5889 6.53136 14.2778 6.64046 14.5485C6.67206 14.6269 6.71936 14.6979 6.7907 14.7416C6.9512 14.8398 7.31713 15 7.9974 15C8.67766 15 9.0436 14.8398 9.2041 14.7416C9.27543 14.6979 9.3227 14.6269 9.35433 14.5485C9.46343 14.2778 9.7314 13.5889 9.88973 12.9741C10.395 12.7744 10.8623 12.4971 11.2774 12.1565C11.8794 12.3244 12.5998 12.4325 12.8847 12.4716C12.9671 12.4829 13.0511 12.4767 13.1239 12.4356C13.2877 12.3431 13.6068 12.1003 13.9469 11.5C14.287 10.8997 14.3339 10.4967 14.3306 10.3059C14.3291 10.2211 14.2925 10.144 14.2416 10.0768C14.066 9.8451 13.6142 9.2638 13.1706 8.8166C13.2108 8.55037 13.2316 8.27767 13.2316 8C13.2316 7.72233 13.2108 7.4496 13.1706 7.18337C13.6142 6.73617 14.066 6.15487 14.2416 5.92313C14.2925 5.85603 14.3291 5.77883 14.3306 5.69403C14.3339 5.50323 14.287 5.10027 13.9469 4.5C13.6068 3.8997 13.2877 3.65687 13.1239 3.56437C13.0511 3.52327 12.9671 3.51703 12.8847 3.52833C12.5998 3.56743 11.8794 3.6756 11.2774 3.84347C10.8622 3.5029 10.395 3.22558 9.88973 3.02588C9.7314 2.4111 9.46343 1.72219 9.35433 1.45152C9.3227 1.37307 9.27543 1.30213 9.2041 1.25844C9.0436 1.16016 8.67766 1 7.9974 1C7.31713 1 6.9512 1.16016 6.7907 1.25844ZM7.99723 10.6668C9.47 10.6668 10.6639 9.47293 10.6639 8.00016C10.6639 6.5274 9.47 5.3335 7.99723 5.3335C6.52447 5.3335 5.33057 6.5274 5.33057 8.00016C5.33057 9.47293 6.52447 10.6668 7.99723 10.6668Z" fill="#B4B4B4"/>
</svg>
