<svg width="16" height="16" viewBox="0 0 16 16" fill="none" xmlns="http://www.w3.org/2000/svg">
<path d="M12.5 2.00087H10.2312C9.95098 1.68609 9.60728 1.43418 9.22272 1.26168C8.83817 1.08918 8.42147 1 8 1C7.57853 1 7.16183 1.08918 6.77728 1.26168C6.39272 1.43418 6.04902 1.68609 5.76875 2.00087H3.5C3.23478 2.00087 2.98043 2.10623 2.79289 2.29377C2.60536 2.4813 2.5 2.73566 2.5 3.00087V13.5009C2.5 13.7661 2.60536 14.0204 2.79289 14.208C2.98043 14.3955 3.23478 14.5009 3.5 14.5009H12.5C12.7652 14.5009 13.0196 14.3955 13.2071 14.208C13.3946 14.0204 13.5 13.7661 13.5 13.5009V3.00087C13.5 2.73566 13.3946 2.4813 13.2071 2.29377C13.0196 2.10623 12.7652 2.00087 12.5 2.00087V2.00087ZM8 2.00087C8.52993 2.00252 9.03768 2.21377 9.41239 2.58848C9.78711 2.9632 9.99835 3.47095 10 4.00087H6C6.00165 3.47095 6.21289 2.9632 6.58761 2.58848C6.96232 2.21377 7.47007 2.00252 8 2.00087ZM10 10.0009H6C5.86739 10.0009 5.74021 9.9482 5.64645 9.85443C5.55268 9.76066 5.5 9.63348 5.5 9.50087C5.5 9.36827 5.55268 9.24109 5.64645 9.14732C5.74021 9.05355 5.86739 9.00087 6 9.00087H10C10.1326 9.00087 10.2598 9.05355 10.3536 9.14732C10.4473 9.24109 10.5 9.36827 10.5 9.50087C10.5 9.63348 10.4473 9.76066 10.3536 9.85443C10.2598 9.9482 10.1326 10.0009 10 10.0009ZM10 8.00087H6C5.86739 8.00087 5.74021 7.9482 5.64645 7.85443C5.55268 7.76066 5.5 7.63348 5.5 7.50087C5.5 7.36827 5.55268 7.24109 5.64645 7.14732C5.74021 7.05355 5.86739 7.00087 6 7.00087H10C10.1326 7.00087 10.2598 7.05355 10.3536 7.14732C10.4473 7.24109 10.5 7.36827 10.5 7.50087C10.5 7.63348 10.4473 7.76066 10.3536 7.85443C10.2598 7.9482 10.1326 8.00087 10 8.00087Z" fill="#B4B4B4"/>
</svg>
