<svg width="16" height="16" viewBox="0 0 16 16" fill="none" xmlns="http://www.w3.org/2000/svg">
<path d="M15.0001 7.50032C15.0001 6.70467 14.684 5.94161 14.1214 5.379C13.5588 4.81639 12.7957 4.50032 12.0001 4.50032H9.50009C9.46884 4.50032 6.22509 4.45657 3.14384 1.86907C2.99778 1.74581 2.81927 1.66728 2.62972 1.64289C2.44016 1.6185 2.24759 1.64929 2.07509 1.73157C1.90158 1.81047 1.75481 1.93818 1.6527 2.09912C1.55059 2.26005 1.49756 2.44724 1.50009 2.63782V12.3628C1.49756 12.5534 1.55059 12.7406 1.6527 12.9015C1.75481 13.0625 1.90158 13.1902 2.07509 13.2691C2.20841 13.3304 2.35334 13.3624 2.50009 13.3628C2.73527 13.3643 2.96338 13.2824 3.14384 13.1316C5.51259 11.1441 7.96884 10.6566 9.00009 10.5378V12.7316C8.99949 12.896 9.03973 13.0581 9.11717 13.2031C9.19462 13.3482 9.30686 13.4718 9.44384 13.5628L10.1313 14.0253C10.2667 14.111 10.4199 14.1645 10.5791 14.1818C10.7384 14.1992 10.8995 14.1798 11.0501 14.1253C11.1996 14.0672 11.3329 13.9738 11.4385 13.853C11.544 13.7321 11.6188 13.5876 11.6563 13.4316L12.4001 10.4753C13.1192 10.3759 13.7782 10.0202 14.2559 9.47359C14.7336 8.92698 14.9979 8.22626 15.0001 7.50032V7.50032ZM10.6876 13.1878L10.0001 12.7316V10.5003H11.3626L10.6876 13.1878ZM12.0001 9.50032H10.0001V5.50032H12.0001C12.5305 5.50032 13.0392 5.71104 13.4143 6.08611C13.7894 6.46118 14.0001 6.96989 14.0001 7.50032C14.0001 8.03076 13.7894 8.53946 13.4143 8.91454C13.0392 9.28961 12.5305 9.50032 12.0001 9.50032Z" fill="#B4B4B4"/>
</svg>
