<svg version="1.1" id="Layer_1" xmlns="http://www.w3.org/2000/svg" xmlns:xlink="http://www.w3.org/1999/xlink" x="0px" y="0px" viewBox="0 0 100 100" xml:space="preserve"><desc>Copyright Opto 22</desc> 
<g>
<g id="shape">
	<path fill="#7698B8" d="M99.029,54.508c-0.248-1.411-1.239-2.564-2.554-3.052V38.257c0-2.2-1.8-4-4-4h-8.514v-8.679v-1.009v-1.413
		c0-0.446,0.361-0.807,0.807-0.807h0.807c0.135,0,0.265-0.022,0.39-0.054c0.032-0.008,0.062-0.019,0.093-0.029
		c0.102-0.033,0.2-0.074,0.292-0.126c0.018-0.01,0.036-0.019,0.054-0.029c0.34-0.206,0.595-0.532,0.711-0.92
		c0.006-0.019,0.012-0.036,0.017-0.055c0.034-0.129,0.057-0.262,0.057-0.402v-3.229H61.559v3.229c0,0.14,0.024,0.273,0.057,0.402
		c0.005,0.019,0.011,0.036,0.017,0.055c0.116,0.388,0.371,0.714,0.711,0.92c0.018,0.011,0.036,0.019,0.054,0.029
		c0.092,0.051,0.19,0.093,0.292,0.126c0.031,0.01,0.061,0.021,0.093,0.029c0.126,0.032,0.255,0.054,0.39,0.054h0.807
		c0.446,0,0.807,0.361,0.807,0.807v1.413v1.009h-0.807v-1.615c0-0.669-0.542-1.211-1.211-1.211h-1.816h-2.624H43.949h-3.532h-14.38
		h-2.624h-1.816c-0.669,0-1.211,0.542-1.211,1.211v1.635c-0.213,0.015-0.418,0.054-0.616,0.114h-1.402v0.673v0.289
		c-0.374,0.479-0.606,1.074-0.606,1.729v5.853H4c-2.2,0-4,1.8-4,4v14.807c0,2.2,1.8,4,4,4h3.67v13.315c0,2.2,1.8,4,4,4h6.108
		c0.001,0.014,0.003,0.028,0.004,0.043h-4.662c-1.776,0-3.229,1.453-3.229,3.229v4.844h18.568v-2.422h29.064v2.422h23.009v-4.844
		l0.49-0.605h0.115c1.506,0,2.725-1.182,2.81-2.667h11.153c1.911,0,3.517-1.36,3.907-3.159v0.343
		C100.323,66.857,100.33,59.25,99.029,54.508z"></path>
</g>
<g id="linear">
	<g>
		<linearGradient class="linear" id="SVGID_1_" gradientUnits="userSpaceOnUse" x1="48.2378" y1="34.2571" x2="48.2378" y2="57.0641">
			<stop offset="0" style="stop-color:#7698B8"></stop>
			<stop offset="1" style="stop-color:#123761"></stop>
		</linearGradient>
		<path class="linear" fill="url(#SVGID_1_)" d="M0,53.064c0,2.2,1.8,4,4,4h88.476c2.2,0,4-1.8,4-4V38.257c0-2.2-1.8-4-4-4H4c-2.2,0-4,1.8-4,4
			V53.064z"></path>
	</g>
	<g>
		<linearGradient class="linear" id="SVGID_2_" gradientUnits="userSpaceOnUse" x1="53.3845" y1="51.1959" x2="53.3845" y2="74.3789">
			<stop offset="0" style="stop-color:#7698B8"></stop>
			<stop offset="1" style="stop-color:#123761"></stop>
		</linearGradient>
		<path class="linear" fill="url(#SVGID_2_)" d="M99.099,70.379c0,2.2-1.8,4-4,4H11.67c-2.2,0-4-1.8-4-4V55.196c0-2.2,1.8-4,4-4h83.43
			c2.2,0,4,1.8,4,4V70.379z"></path>
	</g>
	<g>
		<linearGradient class="linear" id="SVGID_3_" gradientUnits="userSpaceOnUse" x1="50.8616" y1="25.5784" x2="50.8616" y2="77.0455">
			<stop offset="0" style="stop-color:#7698B8"></stop>
			<stop offset="1" style="stop-color:#123761"></stop>
		</linearGradient>
		<path class="linear" fill="url(#SVGID_3_)" d="M24.587,25.578c-2.2,0-4.636,0.285-5.413,0.633c-0.777,0.348-1.413,3.993-1.413,6.193V70.22
			c0,2.2,0.285,4.636,0.633,5.413c0.348,0.777,3.993,1.413,6.193,1.413h52.55c2.2,0,4.636-0.285,5.413-0.633
			c0.777-0.348,1.413-3.993,1.413-6.193V29.578c0-2.2-1.8-4-4-4H24.587z"></path>
	</g>
	<linearGradient class="linear" id="SVGID_4_" gradientUnits="userSpaceOnUse" x1="45.2103" y1="22.7527" x2="45.2103" y2="82.4949">
		<stop offset="0" style="stop-color:#A2C2E0"></stop>
		<stop offset="0.0861" style="stop-color:#FFFFFF"></stop>
		<stop offset="0.4928" style="stop-color:#4976A5"></stop>
	</linearGradient>
	<path class="linear" fill="url(#SVGID_4_)" d="M77.302,74.422h-12.11c-0.669,0-1.211-0.542-1.211-1.211V23.964c0-0.669-0.542-1.211-1.211-1.211
		h-4.44v22.757c0,0.223-0.181,0.404-0.404,0.404H44.353c-0.223,0-0.404-0.181-0.404-0.404V22.753h-3.532v22.757
		c0,0.223-0.181,0.404-0.404,0.404h-3.746c-0.424-1.289-1.635-2.22-3.066-2.22s-2.642,0.931-3.066,2.22H26.44
		c-0.223,0-0.404-0.181-0.404-0.404V22.753h-4.44c-0.669,0-1.211,0.542-1.211,1.211v49.651c0,0.446-0.361,0.807-0.807,0.807h-6.459
		c-1.776,0-3.229,1.453-3.229,3.229v4.844h18.569v-2.422h29.064v2.422h23.009v-4.844C80.531,75.875,79.078,74.422,77.302,74.422z
		 M26.036,73.614V47.931h4.099c0.424,1.289,1.635,2.22,3.066,2.22s2.642-0.931,3.066-2.22h4.149v25.683
		c0,0.446-0.361,0.807-0.807,0.807H26.844C26.398,74.422,26.036,74.06,26.036,73.614z M43.949,73.614V47.931h14.381v25.683
		c0,0.446-0.361,0.807-0.807,0.807H44.756C44.31,74.422,43.949,74.06,43.949,73.614z"></path>
</g>
<g id="dark">
	<path fill="#7698B8" d="M63.981,67.963H81.54c1.615,0,2.422-2.422,2.422-2.422v4.037v3.835l-3.431,4.238
		c0-1.776-1.453-3.229-3.229-3.229H63.981V67.963z"></path>
	<ellipse fill="#7698B8" cx="33.201" cy="31.431" rx="9.082" ry="7.369"></ellipse>
	<circle fill="#7698B8" cx="33.201" cy="46.922" r="2.422"></circle>
	<g>
		<rect x="64.384" y="25.713" fill="#7698B8" width="1.884" height="0.673"></rect>
	</g>
	<g>
		<rect x="64.384" y="35.905" fill="#7698B8" width="1.884" height="0.673"></rect>
	</g>
	<g>
		<rect x="64.384" y="48.52" fill="#7698B8" width="1.884" height="0.673"></rect>
	</g>
	<g>
		<rect x="64.384" y="60.125" fill="#7698B8" width="1.884" height="0.673"></rect>
	</g>
	<g>
		<rect x="18.367" y="25.713" fill="#7698B8" width="1.884" height="0.673"></rect>
	</g>
	<g>
		<rect x="18.367" y="35.905" fill="#7698B8" width="1.884" height="0.673"></rect>
	</g>
	<g>
		<rect x="18.367" y="48.52" fill="#7698B8" width="1.884" height="0.673"></rect>
	</g>
	<g>
		<rect x="18.367" y="60.125" fill="#7698B8" width="1.884" height="0.673"></rect>
	</g>
	<g>
		<path fill="#7698B8" d="M61.559,20.734c0,0.295,0.086,0.569,0.226,0.807h25.181c0.14-0.239,0.226-0.512,0.226-0.807H61.559z"></path>
	</g>
	<path fill="#7698B8" d="M99.006,54.416c1.325,4.735,1.325,12.412,0,17.147"></path>
</g>
<g id="light">
	<ellipse fill="#A0BDD9" cx="33.201" cy="31.431" rx="7.703" ry="6.25"></ellipse>
	<rect x="64.384" y="26.386" fill="#A0BDD9" width="1.884" height="2.287"></rect>
	<rect x="64.384" y="36.578" fill="#A0BDD9" width="1.884" height="2.287"></rect>
	<rect x="64.384" y="49.193" fill="#A0BDD9" width="1.884" height="2.287"></rect>
	<rect x="64.384" y="60.798" fill="#A0BDD9" width="1.884" height="2.287"></rect>
	<rect x="18.367" y="26.386" fill="#A0BDD9" width="1.884" height="2.287"></rect>
	<rect x="18.367" y="36.578" fill="#A0BDD9" width="1.884" height="2.287"></rect>
	<rect x="18.367" y="49.193" fill="#A0BDD9" width="1.884" height="2.287"></rect>
	<rect x="18.367" y="60.798" fill="#A0BDD9" width="1.884" height="2.287"></rect>
	<g>
		<path fill="#A0BDD9" d="M33.201,24.063c2.217,0,4.247,0.646,5.824,1.717h1.391v-3.027h-14.38v3.027h1.341
			C28.954,24.709,30.984,24.063,33.201,24.063z"></path>
		<rect x="43.949" y="22.753" fill="#A0BDD9" width="14.381" height="3.027"></rect>
	</g>
</g>
<g id="shadow">
	<path fill="#153A64" d="M63.173,22.349h0.807c0.446,0,0.807,0.361,0.807,0.807v1.413c0,0,1.009-1.009,9.217-1.009
		s9.957,1.009,9.957,1.009v-1.413c0-0.446,0.361-0.807,0.807-0.807h0.807c0.593,0,1.108-0.328,1.389-0.807H61.784
		C62.065,22.021,62.58,22.349,63.173,22.349z"></path>
	<path fill="#153A64" d="M26.036,35.957c-1.081-1.125-1.768-2.51-1.894-4.021c-0.014,0.167-0.024,0.335-0.024,0.505
		c0,1.707,0.717,3.276,1.917,4.526L26.036,35.957L26.036,35.957z"></path>
	<path fill="#153A64" d="M42.26,31.936c-0.124,1.487-0.791,2.853-1.843,3.969v1.009c1.17-1.241,1.867-2.791,1.867-4.473
		C42.284,32.271,42.274,32.103,42.26,31.936z"></path>
	<g>
		<path fill="#153A64" d="M26.036,40.115c0-0.654,0.733-1.031,1.27-0.658c1.586,1.1,3.644,1.765,5.895,1.765
			c2.272,0,4.349-0.678,5.941-1.797c0.537-0.378,1.274-0.002,1.274,0.655v-4.176c-1.66,1.76-4.274,2.895-7.215,2.895
			c-2.913,0-5.503-1.114-7.165-2.843V40.115z"></path>
	</g>
	<path fill="#153A64" d="M40.013,47.931h-3.746c-0.424,1.289-1.635,2.22-3.066,2.22s-2.642-0.931-3.066-2.22H26.44
		c-0.223,0-0.404,0.181-0.404,0.404v2.876h4.12c0.439,1.262,1.634,2.17,3.045,2.17c1.411,0,2.606-0.908,3.045-2.17h4.17v-2.876
		C40.417,48.112,40.236,47.931,40.013,47.931z"></path>
	<path fill="#153A64" d="M43.949,51.211v-2.876c0-0.223,0.181-0.404,0.404-0.404h13.573c0.223,0,0.404,0.181,0.404,0.404v2.876
		H43.949z"></path>
	<polygon fill="#153A64" points="33.861,26.372 32.831,26.372 32.432,25.846 32.317,25.997 32.831,26.675 33.861,26.675 
		34.375,25.997 34.26,25.846 	"></polygon>
	<polygon fill="#153A64" points="33.861,37.137 32.831,37.137 32.432,36.61 32.317,36.762 32.831,37.44 33.861,37.44 34.375,36.762 
		34.26,36.61 	"></polygon>
	<polygon fill="#153A64" points="40.235,31.385 39.206,31.385 38.806,30.858 38.691,31.01 39.206,31.687 40.235,31.687 40.75,31.01 
		40.635,30.858 	"></polygon>
	<polygon fill="#153A64" points="27.217,31.385 26.188,31.385 25.788,30.858 25.673,31.01 26.188,31.687 27.217,31.687 
		27.732,31.01 27.617,30.858 	"></polygon>
	<polygon fill="#153A64" points="36.952,27.595 36.952,27.897 37.843,28.289 38.735,27.897 38.735,27.595 37.843,27.986 	"></polygon>
	<polygon fill="#153A64" points="36.918,35.13 36.918,35.432 37.81,35.824 38.701,35.432 38.701,35.13 37.81,35.521 	"></polygon>
	<polygon fill="#153A64" points="27.937,27.595 27.937,27.897 28.828,28.289 29.72,27.897 29.72,27.595 28.828,27.986 	"></polygon>
	<polygon fill="#153A64" points="27.903,35.13 27.903,35.432 28.795,35.824 29.686,35.432 29.686,35.13 28.795,35.521 	"></polygon>
	<rect x="64.384" y="28.673" fill="#153A64" width="1.884" height="1.615"></rect>
	<rect x="64.384" y="38.866" fill="#153A64" width="1.884" height="1.615"></rect>
	<rect x="64.384" y="51.48" fill="#153A64" width="1.884" height="1.615"></rect>
	<rect x="64.384" y="63.085" fill="#153A64" width="1.884" height="1.615"></rect>
	<rect x="18.367" y="28.673" fill="#153A64" width="1.884" height="1.615"></rect>
	<rect x="18.367" y="38.866" fill="#153A64" width="1.884" height="1.615"></rect>
	<rect x="18.367" y="51.48" fill="#153A64" width="1.884" height="1.615"></rect>
	<rect x="18.367" y="63.085" fill="#153A64" width="1.884" height="1.615"></rect>
</g>
<g id="hlight">
	<path fill="#FFFFFF" d="M39.912,46.115h-3.791l-0.046-0.139c-0.41-1.245-1.565-2.081-2.875-2.081c-1.326,0-2.464,0.85-2.77,2.067
		l-0.038,0.153h-3.752v-0.404h3.441c0.404-1.315,1.663-2.22,3.119-2.22c1.435,0,2.707,0.886,3.209,2.22h3.502V46.115z"></path>
	<rect x="44.453" y="45.711" fill="#FFFFFF" width="13.371" height="0.404"></rect>
	<rect x="9.385" y="52.489" fill="#FFFFFF" width="7.838" height="1.076"></rect>
	<rect x="85.072" y="52.489" fill="#FFFFFF" width="12.884" height="1.076"></rect>
	<rect x="2.052" y="35.266" fill="#FFFFFF" width="15.171" height="1.076"></rect>
	<rect x="84.197" y="35.266" fill="#FFFFFF" width="11.774" height="1.076"></rect>
	<rect x="18.905" y="30.712" fill="#FFFFFF" width="0.404" height="5.093"></rect>
	<rect x="20.52" y="25.141" fill="#FFFFFF" width="0.404" height="8.343"></rect>
	<rect x="58.464" y="25.141" fill="#FFFFFF" width="0.404" height="8.343"></rect>
	<rect x="44.168" y="29.615" fill="#FFFFFF" width="13.994" height="2.153"></rect>
	<path fill="#FFFFFF" d="M10.746,76.214l-0.33-0.233c0.646-0.913,1.693-1.458,2.803-1.458h6.459v0.404H13.22
		C12.241,74.926,11.316,75.408,10.746,76.214z"></path>
	<path fill="#FFFFFF" d="M39.609,74.623H26.844V74.22h12.766c0.334,0,0.605-0.272,0.605-0.605h0.404
		C40.619,74.171,40.166,74.623,39.609,74.623z"></path>
	<path fill="#FFFFFF" d="M57.522,74.623H44.756V74.22h12.766c0.334,0,0.605-0.272,0.605-0.605h0.404
		C58.531,74.171,58.079,74.623,57.522,74.623z"></path>
	<rect x="65.192" y="74.22" fill="#FFFFFF" width="12.11" height="0.404"></rect>
	<path fill="#FFFFFF" d="M74.005,24.771c-3.742,0-6.76,0.719-7.737,0.982v0.633v0.912c1.04,0.156,3.48,0.434,7.737,0.434
		c5.92,0,7.804-0.269,7.804-0.269v-1.615C81.809,25.847,78.58,24.771,74.005,24.771z"></path>
	<rect x="18.737" y="30.288" fill="#FFFFFF" width="1.48" height="1.48"></rect>
	<polygon fill="#7698B8" points="32.831,26.372 32.317,25.695 32.831,25.017 33.861,25.017 34.375,25.695 33.861,26.372 	"></polygon>
	<polygon fill="#7698B8" points="32.831,37.137 32.317,36.459 32.831,35.781 33.861,35.781 34.375,36.459 33.861,37.137 	"></polygon>
	<polygon fill="#7698B8" points="39.206,31.385 38.691,30.707 39.206,30.029 40.235,30.029 40.75,30.707 40.235,31.385 	"></polygon>
	<polygon fill="#7698B8" points="26.188,31.385 25.673,30.707 26.188,30.029 27.217,30.029 27.732,30.707 27.217,31.385 	"></polygon>
	<polygon fill="#7698B8" points="38.735,27.595 37.843,27.986 36.952,27.595 36.952,26.812 37.843,26.421 38.735,26.812 	"></polygon>
	<polygon fill="#7698B8" points="38.701,35.13 37.81,35.521 36.918,35.13 36.918,34.347 37.81,33.956 38.701,34.347 	"></polygon>
	<polygon fill="#7698B8" points="29.72,27.595 28.828,27.986 27.937,27.595 27.937,26.812 28.828,26.421 29.72,26.812 	"></polygon>
	<polygon fill="#7698B8" points="29.686,35.13 28.795,35.521 27.903,35.13 27.903,34.347 28.795,33.956 29.686,34.347 	"></polygon>
</g>
</g>
</svg>