<svg version="1.1" id="Layer_1" xmlns="http://www.w3.org/2000/svg" xmlns:xlink="http://www.w3.org/1999/xlink" x="0px" y="0px" viewBox="0 0 100 100" xml:space="preserve"><desc>Copyright Opto 22</desc> 
<g>
	<g id="shape">
		<path fill="#0071BC" d="M95,47.9v-1.2V24.3H77.9v18.7h-0.6c-0.2,0-0.6-0.5-0.6-1.3v-0.9h0c0.4,0,0.6-0.3,0.6-0.6v-7.1
			c0-0.4-0.3-0.6-0.6-0.6h0v-0.6c0-0.5-0.2-1-0.4-1.3v-0.2c0-0.5-0.4-0.9-0.9-0.9h-2.2V26h-5v3.4h-4.4v-2.6h-1.1v-4.5c0,0,0,0,0,0
			h3.3h1.8c0.2,0,0.3-0.1,0.4-0.2h1.1v-1.5h-1v-1.6h1v-1.5h-1v-1.6h1v-1.5H68c-0.1-0.1-0.2-0.1-0.3-0.1h-1.8H51.6h-1.8
			c-0.1,0-0.2,0.1-0.3,0.1h-1v1.5h0.9v1.6h-0.9v1.5h0.9v1.6h-0.9V22h1c0.1,0.1,0.2,0.2,0.4,0.2h1.8h3.3c0,0,0,0,0,0v4.5h-1.1v2.6
			h-1.2c-0.2,0-0.4,0-0.5,0L42.1,28v-0.4l-6.8-0.8v-0.4L33.8,26v-0.9H14.9v19.5h13.5v3.2H5.7c-2.9,0-5.2,5.7-5.2,12.7
			s2.3,12.7,5.2,12.7h7.4v7.7h-1.8v-0.5H9.1v3.8h2.2v-0.5h1.8v0.5h10.8v-11H24v12.1h-5.1v1.5h8.9v-3.3h9.1H37c0.3,0.6,0.9,1,1.6,1
			H41c0.7,0,1.4-0.4,1.6-1h0.1h12.8v0.7h2.8c1.5,0,2.8-0.9,3.3-2.2h1.9v0.4h3.5c0.5,0,0.9-0.4,0.9-0.9v-8.3h5.2v13.6h8.9v-1.5H77
			V73.2h17.3c2.9,0,5.2-5.7,5.2-12.7C99.5,54,97.5,48.7,95,47.9z M54.6,40.7h3.6c0.9,0.5,1.9,0.8,3,0.8s2.1-0.3,3-0.8h0.3v1.5
			c0,0.6-0.6,1.1-1.3,1.1h-5.7c-1.2,0-2.2,0.6-2.2,1.4v0.5h-0.7L54.6,40.7L54.6,40.7z M33.8,44l1.5-0.3v-0.4l6.8-0.8v-0.4l9.8-1.3
			c0.2,0,0.4,0,0.5,0h1.3v4.6H52c-1.1,0-2,0.9-2,2v0.4h-8.9v-3.6h-7.3C33.8,44.2,33.8,44,33.8,44z M39.1,81.2h-0.5
			c-0.7,0-1.2,0.3-1.5,0.8h-0.2h-9.1v-8.9h11.3V81.2z M39.4,47.8h-9.2v-2.1h9.2V47.8z M63.7,79h-1.9c-0.6-1.3-1.8-2.2-3.3-2.2h-2.8
			v5.2H42.8h-0.2c-0.3-0.5-0.9-0.8-1.5-0.8h-0.5v-8h23.2C63.7,73.2,63.7,79,63.7,79z M70.4,47.8h-3.7V46h-1.6v1.8h-6.2v-0.4
			c0-1.1-0.9-2-2-2h-0.6v-0.5c0-0.2,0.5-0.5,1.3-0.5h5.7c1.2,0,2.2-0.9,2.2-2v-1.5h3.3c-0.3,0.1-0.5,0.4-0.5,0.8v2.5
			c0,0.5,0.4,0.9,0.9,0.9h1.4C70.4,44.9,70.4,47.8,70.4,47.8z M75.8,40.7L75.8,40.7C75.8,40.8,75.8,40.7,75.8,40.7L75.8,40.7z
			 M77.9,46.7v1.1H74v-2.8h1.4c0.5,0,0.9-0.4,0.9-0.9v-0.9c0.3,0.4,0.6,0.6,1,0.6h0.6C77.9,43.8,77.9,46.7,77.9,46.7z M93.3,47.8
			H79.6v-1.1h13.7V47.8z"></path>
	</g>
	<g id="linear">
		
			<linearGradient id="l17_1_" gradientUnits="userSpaceOnUse" x1="34.567" y1="75.977" x2="34.567" y2="57.98" gradientTransform="matrix(1 0 0 -1 0 102)">
			<stop offset="0" style="stop-color:#0071BC"></stop>
			<stop offset="0.2366" style="stop-color:#5CBEFF"></stop>
			<stop offset="1" style="stop-color:#004B7D"></stop>
		</linearGradient>
		<polygon id="l17" fill="url(#l17_1_)" points="33.8,26 33.8,44 35.3,43.7 35.3,26.3 		"></polygon>
		
			<linearGradient id="l16_1_" gradientUnits="userSpaceOnUse" x1="70.039" y1="73.8163" x2="70.039" y2="60.1402" gradientTransform="matrix(1 0 0 -1 0 102)">
			<stop offset="0" style="stop-color:#0071BC"></stop>
			<stop offset="0.2366" style="stop-color:#5CBEFF"></stop>
			<stop offset="1" style="stop-color:#004B7D"></stop>
		</linearGradient>
		<path id="l16" fill="url(#l16_1_)" d="M75.4,29.3H63.8c2.2,1,3.8,3.2,3.8,5.8c0,2.4-1.3,4.5-3.3,5.6h11.1c0.5,0,0.9-0.4,0.9-0.9
			v-9.7C76.3,29.7,75.9,29.3,75.4,29.3z"></path>
		
			<linearGradient id="l15_1_" gradientUnits="userSpaceOnUse" x1="55.581" y1="73.8163" x2="55.581" y2="60.1402" gradientTransform="matrix(1 0 0 -1 0 102)">
			<stop offset="0" style="stop-color:#0071BC"></stop>
			<stop offset="0.2366" style="stop-color:#5CBEFF"></stop>
			<stop offset="1" style="stop-color:#004B7D"></stop>
		</linearGradient>
		<path id="l15" fill="url(#l15_1_)" d="M54.9,35.1c0-2.6,1.6-4.8,3.8-5.8h-6.1v11.4h5.7C56.2,39.7,54.9,37.5,54.9,35.1z"></path>
		
			<linearGradient id="l14_1_" gradientUnits="userSpaceOnUse" x1="47.9456" y1="74.7677" x2="46.4671" y2="57.8876" gradientTransform="matrix(1 0 0 -1 0 102)">
			<stop offset="0" style="stop-color:#0071BC"></stop>
			<stop offset="0.2366" style="stop-color:#5CBEFF"></stop>
			<stop offset="1" style="stop-color:#004B7D"></stop>
		</linearGradient>
		<path id="l14" fill="url(#l14_1_)" d="M52,29.3L42.1,28v14.1l9.8-1.3c0.2,0,0.4,0,0.5,0V29.3C52.3,29.3,52.1,29.3,52,29.3z
			 M50,38.5h-6.4v-8.3H50V38.5z"></path>
		
			<linearGradient id="l13_1_" gradientUnits="userSpaceOnUse" x1="39.2464" y1="75.4837" x2="38.176" y2="58.4259" gradientTransform="matrix(1 0 0 -1 0 102)">
			<stop offset="0" style="stop-color:#0071BC"></stop>
			<stop offset="0.2366" style="stop-color:#5CBEFF"></stop>
			<stop offset="1" style="stop-color:#004B7D"></stop>
		</linearGradient>
		<polygon id="l13" fill="url(#l13_1_)" points="35.3,26.7 35.3,43.3 42.1,42.5 42.1,27.5 		"></polygon>
		
			<linearGradient id="l12_1_" gradientUnits="userSpaceOnUse" x1="50" y1="54.248" x2="50" y2="28.79" gradientTransform="matrix(1 0 0 -1 0 102)">
			<stop offset="0" style="stop-color:#0071BC"></stop>
			<stop offset="0.2366" style="stop-color:#5CBEFF"></stop>
			<stop offset="1" style="stop-color:#004B7D"></stop>
		</linearGradient>
		<path id="l12" fill="url(#l12_1_)" d="M94.3,73.2c2.9,0,5.2-5.7,5.2-12.7s-2.3-12.7-5.2-12.7H5.7c-2.9,0-5.2,5.7-5.2,12.7
			s2.3,12.7,5.2,12.7H94.3z"></path>
		
			<linearGradient id="l9_1_" gradientUnits="userSpaceOnUse" x1="53.722" y1="74.001" x2="63.818" y2="74.001" gradientTransform="matrix(1 0 0 -1 0 102)">
			<stop offset="0" style="stop-color:#0071BC"></stop>
			<stop offset="0.2366" style="stop-color:#5CBEFF"></stop>
			<stop offset="1" style="stop-color:#004B7D"></stop>
		</linearGradient>
		<path id="l9" fill="url(#l9_1_)" d="M61.2,28.8c0.9,0,1.8,0.2,2.6,0.5h0v-2.6H53.7v2.6h4.9C59.4,29,60.3,28.8,61.2,28.8z"></path>
		
			<linearGradient id="l8_1_" gradientUnits="userSpaceOnUse" x1="58.7705" y1="87.975" x2="58.7705" y2="79.818" gradientTransform="matrix(1 0 0 -1 0 102)">
			<stop offset="0" style="stop-color:#0071BC"></stop>
			<stop offset="0.4027" style="stop-color:#3E99D5"></stop>
			<stop offset="1" style="stop-color:#004B7D"></stop>
		</linearGradient>
		<rect id="l8" x="51.6" y="14" fill="url(#l8_1_)" width="14.3" height="8.2"></rect>
		
			<linearGradient id="l7_1_" gradientUnits="userSpaceOnUse" x1="50.5035" y1="87.974" x2="50.5035" y2="79.817" gradientTransform="matrix(1 0 0 -1 0 102)">
			<stop offset="0" style="stop-color:#0071BC"></stop>
			<stop offset="0.3333" style="stop-color:#5CBEFF"></stop>
			<stop offset="1" style="stop-color:#004B7D"></stop>
		</linearGradient>
		<path id="l7" fill="url(#l7_1_)" d="M51.6,22.2h-1.8c-0.2,0-0.4-0.2-0.4-0.4v-7.3c0-0.2,0.2-0.4,0.4-0.4h1.8"></path>
		
			<linearGradient id="l6_1_" gradientUnits="userSpaceOnUse" x1="67.0375" y1="87.975" x2="67.0375" y2="79.818" gradientTransform="matrix(1 0 0 -1 0 102)">
			<stop offset="0" style="stop-color:#0071BC"></stop>
			<stop offset="0.3333" style="stop-color:#5CBEFF"></stop>
			<stop offset="1" style="stop-color:#004B7D"></stop>
		</linearGradient>
		<path id="l6" fill="url(#l6_1_)" d="M65.9,14h1.8c0.2,0,0.4,0.2,0.4,0.4v7.3c0,0.2-0.2,0.4-0.4,0.4h-1.8"></path>
		
			<linearGradient id="l5_1_" gradientUnits="userSpaceOnUse" x1="70.415" y1="57.0285" x2="74.036" y2="57.0285" gradientTransform="matrix(1 0 0 -1 0 102)">
			<stop offset="0" style="stop-color:#0071BC"></stop>
			<stop offset="0.4027" style="stop-color:#3E99D5"></stop>
			<stop offset="1" style="stop-color:#004B7D"></stop>
		</linearGradient>
		<rect id="l5" x="70.4" y="41.9" fill="url(#l5_1_)" width="3.6" height="6.1"></rect>
		
			<linearGradient id="l4_1_" gradientUnits="userSpaceOnUse" x1="54.851" y1="78.72" x2="62.689" y2="78.72" gradientTransform="matrix(1 0 0 -1 0 102)">
			<stop offset="0" style="stop-color:#0071BC"></stop>
			<stop offset="0.2366" style="stop-color:#5CBEFF"></stop>
			<stop offset="1" style="stop-color:#004B7D"></stop>
		</linearGradient>
		<path id="l4" fill="url(#l4_1_)" d="M62.7,27v-4.8c0-1.5-1.8-2.7-3.9-2.7s-3.9,1.2-3.9,2.7V27C54.9,27,62.7,27,62.7,27z"></path>
		
			<linearGradient id="l3_1_" gradientUnits="userSpaceOnUse" x1="63.674" y1="30.8385" x2="68.063" y2="30.8385" gradientTransform="matrix(1 0 0 -1 0 102)">
			<stop offset="0" style="stop-color:#5CBEFF"></stop>
			<stop offset="1" style="stop-color:#004B7D"></stop>
		</linearGradient>
		<path id="l3" fill="url(#l3_1_)" d="M67.2,82.4h-3.5V59.9h4.4v21.7C68.1,82,67.7,82.4,67.2,82.4z"></path>
		
			<linearGradient id="l2_1_" gradientUnits="userSpaceOnUse" x1="68.183" y1="59.205" x2="76.267" y2="59.205" gradientTransform="matrix(1 0 0 -1 0 102)">
			<stop offset="0" style="stop-color:#0071BC"></stop>
			<stop offset="0.4027" style="stop-color:#3E99D5"></stop>
			<stop offset="1" style="stop-color:#004B7D"></stop>
		</linearGradient>
		<path id="l2" fill="url(#l2_1_)" d="M75.4,44.9h-6.3c-0.5,0-0.9-0.4-0.9-0.9v-2.5c0-0.5,0.4-0.9,0.9-0.9h6.3
			c0.5,0,0.9,0.4,0.9,0.9v2.5C76.3,44.5,75.9,44.9,75.4,44.9z"></path>
		
			<linearGradient id="l1_1_" gradientUnits="userSpaceOnUse" x1="61.7" y1="42.4525" x2="70.04" y2="42.4525" gradientTransform="matrix(1 0 0 -1 0 102)">
			<stop offset="0" style="stop-color:#5CBEFF"></stop>
			<stop offset="1" style="stop-color:#004B7D"></stop>
		</linearGradient>
		<path id="l1" fill="url(#l1_1_)" d="M69,62.4h-6.3c-0.6,0-1-0.4-1-1v-3.7c0-0.6,0.4-1,1-1H69c0.6,0,1,0.4,1,1v3.7
			C70,62,69.6,62.4,69,62.4z"></path>
	</g>
	<g id="dark">
		<rect x="53.8" y="40.5" fill="#004B7D" width="0.9" height="6.1"></rect>
		<polygon fill="#004B7D" points="77,85.4 77,66 73.2,66 73.2,86.8 82.2,86.8 82.2,85.4 		"></polygon>
		<polygon fill="#004B7D" points="24,66 24,85.4 18.9,85.4 18.9,86.8 27.8,86.8 27.8,66 		"></polygon>
		<polygon fill="#004B7D" points="67.1,56.7 67.1,53.7 66.7,53.7 66.7,46 65.1,46 65.1,53.7 64.6,53.7 64.6,56.7 		"></polygon>
		<rect x="27.5" y="69" fill="#004B7D" width="10.3" height="0.9"></rect>
		<path fill="#004B7D" d="M41.8,69.8h1.8c1.1,0,2.5-0.6,3.3-1.4l7.3-7.3c0.6-0.6,1.8-1.1,2.7-1.1h4.8v-0.9h-4.8
			c-1.1,0-2.5,0.6-3.3,1.4l-7.3,7.3c-0.6,0.6-1.8,1.1-2.7,1.1h-1.8V69.8z"></path>
		<rect x="77.9" y="46.7" fill="#004B7D" width="1.7" height="22.9"></rect>
		<rect x="93.3" y="46.7" fill="#004B7D" width="1.7" height="22.9"></rect>
		<polygon fill="#004B7D" points="69.3,62.5 62.5,62.5 62.5,64 63,64 63,66.7 68.7,66.7 68.7,64 69.3,64 		"></polygon>
		<polygon fill="#004B7D" points="71.7,30.9 71.7,30 70.6,30 70.6,29.5 68.8,29.5 68.8,40.5 70.6,40.5 70.6,40 71.7,40 71.7,39.1 
			70.6,39.1 70.6,37.7 71.7,37.7 71.7,36.9 70.6,36.9 70.6,35.5 71.7,35.5 71.7,34.6 70.6,34.6 70.6,33.2 71.7,33.2 71.7,32.3 
			70.6,32.3 70.6,30.9 		"></polygon>
		<rect x="79" y="64.7" fill="#004B7D" width="14.6" height="1.8"></rect>
		<path fill="#004B7D" d="M56.8,45.3H52c-1.1,0-2,0.9-2,2V48h8.8v-0.6C58.8,46.2,57.9,45.3,56.8,45.3z"></path>
		<path fill="none" stroke="#004B7D" stroke-width="0.8779" stroke-linejoin="round" stroke-miterlimit="10" d="M70,61.1
			c0,0,0.3,0,0.8,0s1.5,0.4,2.3,0.9l1.2,0.7c0.8,0.5,2,0.9,2.6,0.9c0.6,0,1,0,1,0"></path>
		<rect x="80.5" y="61.6" fill="#004B7D" width="2" height="2.9"></rect>
		<rect x="84.8" y="61.6" fill="#004B7D" width="2" height="2.9"></rect>
		<rect x="89" y="61.6" fill="#004B7D" width="2" height="2.9"></rect>
		<path fill="#004B7D" d="M82,61.7h-0.9v-1.1c0-0.3-0.6-0.7-1.3-0.7H70v-0.9h9.8c1.2,0,2.2,0.7,2.2,1.5V61.7z"></path>
		<path fill="#004B7D" d="M86.3,61.6h-0.9V60c0-0.7-0.6-1.2-1.3-1.2H69.9v-0.9h14.1c1.2,0,2.2,0.9,2.2,2.1L86.3,61.6L86.3,61.6z"></path>
		<path fill="#004B7D" d="M90.3,62.7h-0.9v-3.5c0-0.7-0.6-1.3-1.3-1.3H70V57h18c1.2,0,2.2,1,2.2,2.2V62.7z"></path>
		<path fill="#004B7D" d="M61.7,79c-0.6-1.3-1.8-2.2-3.3-2.2h-2.8v5.2H42.6c-0.3-0.5-0.9-0.8-1.5-0.8h-0.5V71.1h1.3v-5.7h-4.1v5.7
			h1.3v10.2h-0.5c-0.7,0-1.2,0.3-1.5,0.8h-9.3v1.4H37c0.3,0.6,0.9,1,1.6,1H41c0.7,0,1.4-0.4,1.6-1h13v0.7h2.8c1.5,0,2.8-0.9,3.3-2.2
			h1.9v-3L61.7,79L61.7,79z"></path>
		<path fill="#004B7D" d="M56.2,45.8h-0.9v-1c0-0.8,1-1.4,2.2-1.4h5.7c0.7,0,1.3-0.5,1.3-1.1v-1.5h0.9v1.5c0,1.1-1,2-2.2,2h-5.7
			c-0.8,0-1.3,0.4-1.3,0.5C56.2,44.8,56.2,45.8,56.2,45.8z"></path>
		<path fill="#004B7D" d="M78.4,43.8h-1c-0.8,0-1.5-1-1.5-2.2v-9.9c0-0.7-0.5-1.3-1.2-1.3h-1.6v-0.9h1.6c1.1,0,2,1,2,2.2v9.9
			c0,0.8,0.4,1.3,0.6,1.3h1C78.4,42.9,78.4,43.8,78.4,43.8z"></path>
		<polygon fill="#004B7D" points="28.4,44.2 28.4,63.7 30.1,63.7 30.1,45.6 39.4,45.6 39.4,49.7 41.1,49.7 41.1,44.2 		"></polygon>
	</g>
	<g id="light">
		<rect x="18.4" y="39" fill="#CCCCCC" width="7.2" height="3.1"></rect>
		<rect x="20.2" y="33.9" fill="#CCCCCC" width="2.2" height="4.2"></rect>
		<polygon fill="#CCCCCC" points="13.1,64.3 13.1,64.8 11.3,64.8 11.3,64.3 9.1,64.3 9.1,68.1 11.3,68.1 11.3,67.6 13.1,67.6 
			13.1,80.9 11.3,80.9 11.3,80.4 9.1,80.4 9.1,84.2 11.3,84.2 11.3,83.7 13.1,83.7 13.1,84.2 23.9,84.2 23.9,64.3 		"></polygon>
		<circle fill="#22B573" cx="82.2" cy="43.7" r="1"></circle>
	</g>
	<g id="radial">
		
			<radialGradient id="SVGID_1_" cx="58.9653" cy="69.4656" r="8.9193" fx="57.8822" fy="69.4023" gradientTransform="matrix(1 0 0 -1 0 102)" gradientUnits="userSpaceOnUse">
			<stop offset="0" style="stop-color:#5CBEFF"></stop>
			<stop offset="1" style="stop-color:#000000"></stop>
		</radialGradient>
		<circle fill="url(#SVGID_1_)" cx="61.2" cy="35.1" r="4.6"></circle>
		
			<radialGradient id="l11_1_" cx="2.9142" cy="47.445" r="16.5539" gradientTransform="matrix(1 0 0 -1 0 102)" gradientUnits="userSpaceOnUse">
			<stop offset="0" style="stop-color:#5CBEFF"></stop>
			<stop offset="1" style="stop-color:#004B7D"></stop>
		</radialGradient>
		<path id="l11" fill="url(#l11_1_)" d="M5.7,47.8c-2.9,0-5.2,5.7-5.2,12.7s2.3,12.7,5.2,12.7V47.8z"></path>
		
			<radialGradient id="l10_1_" cx="96.7269" cy="47.445" r="16.5539" gradientTransform="matrix(1 0 0 -1 0 102)" gradientUnits="userSpaceOnUse">
			<stop offset="0" style="stop-color:#5CBEFF"></stop>
			<stop offset="1" style="stop-color:#004B7D"></stop>
		</radialGradient>
		<path id="l10" fill="url(#l10_1_)" d="M94.3,73.2c2.9,0,5.2-5.7,5.2-12.7s-2.3-12.7-5.2-12.7V73.2z"></path>
	</g>
	<g id="shadow">
		<rect x="68.3" y="14.2" fill="#1A1A1A" width="0.9" height="1.5"></rect>
		<rect x="68.3" y="20.4" fill="#1A1A1A" width="0.9" height="1.5"></rect>
		<rect x="68.3" y="17.3" fill="#1A1A1A" width="0.9" height="1.5"></rect>
		<rect x="48.5" y="14.2" fill="#1A1A1A" width="0.9" height="1.5"></rect>
		<rect x="48.5" y="20.4" fill="#1A1A1A" width="0.9" height="1.5"></rect>
		<rect x="48.5" y="17.3" fill="#1A1A1A" width="0.9" height="1.5"></rect>
		<polygon fill="#1A1A1A" points="66.4,35.6 66.1,35.1 66.4,34.6 67,34.6 67.3,35.1 67,35.6 		"></polygon>
		<polygon fill="#1A1A1A" points="55.5,35.6 55.2,35.1 55.5,34.6 56.1,34.6 56.4,35.1 56.1,35.6 		"></polygon>
		<polygon fill="#1A1A1A" points="65.2,31.8 64.7,31.7 64.5,31.1 64.9,30.7 65.5,30.9 65.7,31.4 		"></polygon>
		<polygon fill="#1A1A1A" points="57.5,39.6 57,39.4 56.8,38.8 57.2,38.4 57.8,38.6 58,39.1 		"></polygon>
		<polygon fill="#1A1A1A" points="61.7,30 61.2,30.3 60.7,30 60.7,29.4 61.2,29.1 61.7,29.4 		"></polygon>
		<polygon fill="#1A1A1A" points="61.7,40.9 61.2,41.2 60.7,40.9 60.7,40.3 61.2,40 61.7,40.3 		"></polygon>
		<polygon fill="#1A1A1A" points="58,31.1 57.8,31.7 57.2,31.8 56.8,31.4 57,30.9 57.5,30.7 		"></polygon>
		<polygon fill="#1A1A1A" points="65.7,38.8 65.5,39.4 64.9,39.6 64.5,39.1 64.7,38.6 65.2,38.4 		"></polygon>
		<rect x="20" y="47.8" opacity="0.75" fill="#1A1A1A" enable-background="new    " width="8.4" height="2.1"></rect>
		<polygon opacity="0.75" fill="#1A1A1A" enable-background="new    " points="39.4,49.7 39.4,47.8 30.1,47.8 30.1,49.8 39.5,49.8 
			39.5,49.7 		"></polygon>
		<rect x="79.6" y="47.8" opacity="0.75" fill="#1A1A1A" enable-background="new    " width="13.6" height="2.1"></rect>
		<rect x="66.9" y="47.8" opacity="0.75" fill="#1A1A1A" enable-background="new    " width="11" height="2.1"></rect>
		<rect x="80.5" y="30.2" fill="#1A1A1A" width="11.8" height="8.3"></rect>
		<rect x="68.2" y="26" fill="#1A1A1A" width="5" height="5.9"></rect>
		<polygon opacity="0.5" fill="#1A1A1A" enable-background="new    " points="50,31.3 50,38.5 44.8,38.5 44.8,41.5 50.3,40.8 
			50.3,31.3 		"></polygon>
		<polygon fill="#1A1A1A" points="32.9,43.8 16,43.8 16,43.4 32.5,43.4 32.5,26.1 32.9,26.1 		"></polygon>
		<polygon fill="#1A1A1A" points="94.3,46.3 78.6,46.3 78.6,45.9 93.9,45.9 93.9,25.4 94.3,25.4 		"></polygon>
		<polygon opacity="0.75" fill="#1A1A1A" enable-background="new    " points="9.1,66.5 9.1,68.1 11.3,68.1 11.3,67.6 13.1,67.6 
			13.1,66.8 11.3,66.8 11.3,66.5 		"></polygon>
		<polygon opacity="0.75" fill="#1A1A1A" enable-background="new    " points="9.1,82.6 9.1,84.2 11.3,84.2 11.3,83.7 13.1,83.7 
			13.1,82.9 11.3,82.9 11.3,82.6 		"></polygon>
	</g>
	<g id="hlight">
		<path fill="#5CBEFF" d="M41.8,69.2h1.8c1,0,2.4-0.6,3.2-1.3l7.3-7.3c0.6-0.6,1.9-1.2,2.8-1.2h4.8v-0.5h-4.8c-1,0-2.4,0.6-3.2,1.3
			l-7.3,7.3c-0.6,0.6-1.9,1.2-2.8,1.2h-1.8V69.2z"></path>
		<rect x="27.5" y="68.7" fill="#5CBEFF" width="10.3" height="0.5"></rect>
		<polygon fill="#5CBEFF" points="16.2,43.6 15.8,43.6 15.8,25.9 32.7,25.9 32.7,26.4 16.2,26.4 		"></polygon>
		<path fill="#5CBEFF" d="M77.9,63.3h-1c-0.6,0-1.8-0.4-2.7-0.9L73,61.7c-0.9-0.5-1.8-0.8-2.2-0.8H70v-0.5h0.8
			c0.5,0,1.6,0.4,2.4,0.9l1.2,0.7c0.8,0.4,1.9,0.8,2.5,0.8h1C77.9,62.8,77.9,63.3,77.9,63.3z"></path>
		<polygon fill="#5CBEFF" points="78.7,45.8 78.2,45.8 78.2,24.6 93.8,24.6 93.8,25 78.7,25 		"></polygon>
		<rect x="5.5" y="51.9" fill="#5CBEFF" width="0.4" height="4.2"></rect>
		<rect x="6.4" y="47.8" fill="#5CBEFF" width="13.5" height="0.4"></rect>
		<path fill="#5CBEFF" d="M84.6,58h-5v0.3h5c0.1,0,0.1-0.1,0.1-0.1S84.7,58,84.6,58z"></path>
		<path fill="#5CBEFF" d="M77.9,58h-8c-0.1,0-0.1,0.1-0.1,0.1s0.1,0.1,0.1,0.1h8V58z"></path>
		<path fill="#5CBEFF" d="M77.9,57.1H70c-0.1,0-0.1,0.1-0.1,0.1s0.1,0.1,0.1,0.1h7.9V57.1z"></path>
		<path fill="#5CBEFF" d="M87.6,57.1h-8v0.3h8c0.1,0,0.1-0.1,0.1-0.1S87.7,57.1,87.6,57.1z"></path>
		<path fill="#5CBEFF" d="M77.9,59.1H70c-0.1,0-0.1,0.1-0.1,0.1s0.1,0.1,0.1,0.1h7.9V59.1z"></path>
		<path fill="#5CBEFF" d="M80.4,59.1h-0.8v0.3h0.8c0.1,0,0.1-0.1,0.1-0.1S80.5,59.1,80.4,59.1z"></path>
	</g>
</g>
</svg>