<svg version="1.1" id="Layer_1" xmlns="http://www.w3.org/2000/svg" xmlns:xlink="http://www.w3.org/1999/xlink" x="0px" y="0px" viewBox="0 0 100 100" xml:space="preserve"><desc>Copyright Opto 22</desc> 
<g>
<g id="shape">
	<path fill="#808080" d="M100,37.278v-2.859h-8.576V13.016c0.963-0.519,1.48-1.065,1.48-1.628V7.954
		c0-3.438-19.135-6.225-42.74-6.225S7.425,4.516,7.425,7.954v3.434c0,0.64,0.665,1.258,1.898,1.84v21.191h-8.63v3.071h4.033v0.99
		c-0.756,0.016-1.209,0.016-1.209,0.016v3.053H0.933v4.406h3.793v1.824l2.419-1.476v-0.348h0.571l-4.199,2.562v29.975l1.143,0.76
		l0.16,4.482v1.506l1.506,1.255h3.012V84.99l1.577-1.577l5.203,3.46l4.011,8.319v2.073l2.073,1.728h4.146V96.92l6.247-6.247h37.84
		l6.247,6.247v2.073h4.146l2.073-1.728v-2.073l3.447-7.148l0.136-0.107l5.307-4.157L93,84.99v1.506h3.012l1.506-1.255v-1.506
		l0.163-4.569l0.859-0.673V50.245v-2.082l-2.304-1.224v-0.983H100V41.55h-3.764v-4.271L100,37.278L100,37.278z M85.68,14.852
		c0.941-0.204,1.801-0.417,2.573-0.637v20.204h-4.781v2.859h4.781v4.271h-2.154l-3.768-2.003v-8.679
		c2.564-0.794,4.012-1.696,4.012-2.651V15.893C86.343,15.537,86.113,15.189,85.68,14.852z M78.918,31.729v6.97h-2.694v-6.468
		C77.18,32.072,78.08,31.905,78.918,31.729z M14.65,14.852c-0.433,0.337-0.663,0.685-0.663,1.04v12.324
		c0,1.399,3.101,2.681,8.263,3.682v6.801h-2.64l-4.672,2.85h-1.123c1.692-0.721,2.487-1.671,2.487-1.671v-4.146
		c0,0-1.164,1.393-3.678,2.085V14.366C13.249,14.533,13.926,14.695,14.65,14.852z M7.145,37.49h2.178v0.778
		c-0.769,0.055-1.504,0.097-2.178,0.128V37.49z M93.818,41.55h-2.393v-4.271h2.393V41.55z"></path>
</g>
<g id="linear">
	
		<linearGradient class="linear" id="SVGID_1_" gradientUnits="userSpaceOnUse" x1="86.343" y1="75.051" x2="13.987" y2="75.051" gradientTransform="matrix(1 0 0 -1 0 100)">
		<stop offset="0" style="stop-color:#FFFFFF"></stop>
		<stop offset="1" style="stop-color:#000000"></stop>
	</linearGradient>
	<path class="linear" fill="url(#SVGID_1_)" d="M13.987,15.893c0,3.006,16.197,5.442,36.178,5.442s36.178-2.437,36.178-5.442v12.324
		c0,3.196-16.197,5.788-36.178,5.788s-36.178-2.591-36.178-5.788C13.987,28.217,13.987,15.893,13.987,15.893z"></path>
	
		<linearGradient class="linear" id="SVGID_2_" gradientUnits="userSpaceOnUse" x1="12.625" y1="67.9755" x2="9.323" y2="67.9755" gradientTransform="matrix(1 0 0 -1 0 100)">
		<stop offset="0" style="stop-color:#FFFFFF"></stop>
		<stop offset="1" style="stop-color:#000000"></stop>
	</linearGradient>
	<path class="linear" fill="url(#SVGID_2_)" d="M9.323,13.228V50.18c0,0.354,0.739,0.641,1.651,0.641s1.651-0.287,1.651-0.641V14.366
		C11.277,14.007,10.167,13.626,9.323,13.228z"></path>
	
		<linearGradient class="linear" id="SVGID_3_" gradientUnits="userSpaceOnUse" x1="91.425" y1="68.449" x2="88.253" y2="68.449" gradientTransform="matrix(1 0 0 -1 0 100)">
		<stop offset="0" style="stop-color:#FFFFFF"></stop>
		<stop offset="1" style="stop-color:#000000"></stop>
	</linearGradient>
	<path class="linear" fill="url(#SVGID_3_)" d="M88.253,14.215V49.47c0,0.34,0.71,0.616,1.586,0.616s1.586-0.276,1.586-0.616V13.016
		C90.648,13.435,89.581,13.836,88.253,14.215z"></path>
	
		<linearGradient id="SVGID_4_" gradientUnits="userSpaceOnUse" x1="92.905" y1="87.2165" x2="7.425" y2="87.2165" gradientTransform="matrix(1 0 0 -1 0 100)">
		<stop offset="0" style="stop-color:#FFFFFF"></stop>
		<stop offset="1" style="stop-color:#000000"></stop>
	</linearGradient>
	<path class="linear" fill="url(#SVGID_4_)" d="M50.165,14.179c-23.604,0-42.74-2.787-42.74-6.225v3.434c0,3.438,19.135,6.225,42.74,6.225
		s42.74-2.787,42.74-6.225V7.954C92.904,11.392,73.769,14.179,50.165,14.179z"></path>
</g>
<g id="light">
	<rect x="65.887" y="81.277" fill="#CCCCCC" width="1.382" height="3.522"></rect>
	<path fill="#CCCCCC" d="M60.004,64.326v4.397l-0.778-0.605h-1.9v-3.792H43.254v6.585h1.748v5.759h-1.748v5.154h12.114v1.44H43.254
		v1.535h21.942V64.326H60.004z M45.578,69.154h0.383c0.314-0.06,0.723-0.3,0.826-1.123h6.565c0,0,0.346,1.123,1.728,1.123h-9.119
		C45.748,69.195,45.578,69.154,45.578,69.154z M55.253,69.586v5.183h-0.518v-5.183H55.253z M47.673,76.151
		c-0.013-0.114-0.022-0.228-0.022-0.346c0-1.622,1.315-2.937,2.937-2.937s2.937,1.315,2.937,2.937c0,0.117-0.009,0.232-0.022,0.346
		c-0.171-1.459-1.41-2.592-2.915-2.592S47.844,74.692,47.673,76.151z M53.221,77.879l-0.041,1.123c0,0-2.937,0-3.628,0
		c-0.691,0-0.864-0.864-0.864-0.864v-1.296c0,0.864,1.037,1.037,1.037,1.037L53.221,77.879c0.193-0.391,0.304-0.83,0.304-1.296
		h4.319v1.296C57.844,77.879,53.221,77.879,53.221,77.879z M60.263,83.408c-1.622,0-2.937-1.315-2.937-2.937
		c0-0.117,0.009-0.232,0.022-0.346c0.171,1.459,1.41,2.592,2.915,2.592s2.744-1.133,2.915-2.592
		c0.013,0.114,0.022,0.228,0.022,0.346C63.2,82.093,61.885,83.408,60.263,83.408z"></path>
	<rect x="65.887" y="64.326" fill="#CCCCCC" width="1.382" height="0.826"></rect>
	<polygon fill="#CCCCCC" points="67.269,68.146 65.887,68.146 65.887,78.282 67.269,78.282 67.269,76.796 68.305,76.938 
		68.305,72.618 67.269,72.477 	"></polygon>
	<g>
		<g>
			<line fill="none" x1="58.622" y1="70.536" x2="63.891" y2="70.536"></line>
			<line fill="none" x1="58.622" y1="71.17" x2="63.891" y2="71.17"></line>
			<line fill="none" x1="58.622" y1="71.803" x2="63.891" y2="71.803"></line>
			<line fill="none" x1="58.622" y1="72.437" x2="63.891" y2="72.437"></line>
			<line fill="none" x1="58.622" y1="73.07" x2="63.891" y2="73.07"></line>
			<line fill="none" x1="58.622" y1="73.704" x2="63.891" y2="73.704"></line>
			<line fill="none" x1="58.622" y1="74.337" x2="63.891" y2="74.337"></line>
		</g>
		<g>
			
				<line fill="none" stroke="#999999" stroke-linecap="round" stroke-miterlimit="10" x1="58.622" y1="70.536" x2="63.891" y2="70.536"></line>
			
				<line fill="none" stroke="#999999" stroke-linecap="round" stroke-miterlimit="10" x1="58.622" y1="71.17" x2="63.891" y2="71.17"></line>
			
				<line fill="none" stroke="#999999" stroke-linecap="round" stroke-miterlimit="10" x1="58.622" y1="71.803" x2="63.891" y2="71.803"></line>
			
				<line fill="none" stroke="#999999" stroke-linecap="round" stroke-miterlimit="10" x1="58.622" y1="72.437" x2="63.891" y2="72.437"></line>
			
				<line fill="none" stroke="#999999" stroke-linecap="round" stroke-miterlimit="10" x1="58.622" y1="73.07" x2="63.891" y2="73.07"></line>
			
				<line fill="none" stroke="#999999" stroke-linecap="round" stroke-miterlimit="10" x1="58.622" y1="73.704" x2="63.891" y2="73.704"></line>
			
				<line fill="none" stroke="#999999" stroke-linecap="round" stroke-miterlimit="10" x1="58.622" y1="74.337" x2="63.891" y2="74.337"></line>
		</g>
	</g>
	<path fill="#CCCCCC" d="M93.008,50.245v0.691c0,0.644-1.38,1.166-3.083,1.166s-3.083-0.522-3.083-1.166v-0.691H85.48
		c-5.548,3.02-19.269,5.157-35.315,5.157c-16.047,0-29.767-2.137-35.315-5.157h-0.576v0.921c0,0.644-1.38,1.166-3.083,1.166
		s-3.083-0.522-3.083-1.166v-0.921H3.517l18.314,8.293h61.16l15.549-8.293C98.54,50.245,93.008,50.245,93.008,50.245z
		 M41.526,57.847L24.94,58.019l5.01-2.937c0,0,5.874,1.555,12.267,0.864C41.181,56.465,41.526,57.847,41.526,57.847z"></path>
	<polygon fill="#CCCCCC" points="6.108,77.542 5.417,77.801 5.417,57.069 6.108,57.415 	"></polygon>
	<path fill="#CCCCCC" d="M82.991,58.538v32.135l15.549-12.18V50.245L82.991,58.538z M97.049,77.312l-0.582-0.173V56.81l0.582-0.173
		V77.312z"></path>
	<polygon fill="#CCCCCC" points="18.57,85.172 18.57,85.863 5.582,77.706 6.359,77.706 	"></polygon>
	<polygon fill="#CCCCCC" points="42.404,26.166 42.116,25.907 42.116,22.365 42.404,22.365 	"></polygon>
	<path fill="#CCCCCC" d="M42.007,30.747l-0.183-0.293c0.166-0.104,0.17-0.198,0.171-0.229c0.007-0.212-0.293-0.502-0.44-0.608
		l-0.071-0.052v-3.371h0.346v3.198c0.162,0.133,0.524,0.472,0.511,0.844C42.334,30.378,42.273,30.581,42.007,30.747z"></path>
	<polygon fill="#CCCCCC" points="33.829,25.818 33.541,25.559 33.541,22.017 33.829,22.017 	"></polygon>
	<path fill="#CCCCCC" d="M33.432,30.399l-0.183-0.293c0.166-0.104,0.17-0.198,0.171-0.229c0.007-0.212-0.293-0.502-0.44-0.608
		l-0.071-0.052v-3.371h0.346v3.198c0.162,0.133,0.524,0.472,0.511,0.844C33.759,30.03,33.698,30.233,33.432,30.399z"></path>
	<polygon fill="#CCCCCC" points="26.688,25.069 26.4,24.81 26.4,21.268 26.688,21.268 	"></polygon>
	<path fill="#CCCCCC" d="M26.29,29.477l-0.183-0.293c0.166-0.104,0.17-0.198,0.171-0.229c0.007-0.212-0.293-0.502-0.44-0.608
		l-0.071-0.052v-3.371h0.346v3.198c0.162,0.133,0.524,0.472,0.511,0.844C26.618,29.109,26.556,29.311,26.29,29.477z"></path>
	<polygon fill="#CCCCCC" points="20.929,24.378 20.641,24.119 20.641,20.577 20.929,20.577 	"></polygon>
	<path fill="#CCCCCC" d="M20.531,28.786l-0.183-0.293c0.166-0.104,0.17-0.198,0.171-0.229c0.007-0.212-0.293-0.502-0.44-0.608
		l-0.071-0.052v-3.371h0.346v3.198c0.162,0.133,0.524,0.472,0.511,0.844C20.859,28.417,20.797,28.62,20.531,28.786z"></path>
	<polygon fill="#CCCCCC" points="15.746,22.507 15.458,22.247 15.458,18.706 15.746,18.706 	"></polygon>
	<path fill="#CCCCCC" d="M15.348,26.828l-0.183-0.293c0.166-0.104,0.17-0.198,0.171-0.229c0.007-0.212-0.293-0.502-0.44-0.608
		l-0.071-0.052v-3.371h0.346v3.198c0.162,0.133,0.524,0.472,0.511,0.844C15.676,26.459,15.614,26.662,15.348,26.828z"></path>
	<polygon fill="#CCCCCC" points="52.805,26.365 52.517,26.106 52.517,22.564 52.805,22.564 	"></polygon>
	<path fill="#CCCCCC" d="M52.407,30.946l-0.183-0.293c0.166-0.104,0.169-0.198,0.17-0.229c0.007-0.212-0.293-0.502-0.44-0.608
		l-0.071-0.052v-3.371h0.346v3.198c0.162,0.133,0.524,0.472,0.511,0.844C52.735,30.577,52.673,30.78,52.407,30.946z"></path>
	<polygon fill="#CCCCCC" points="62.797,25.876 62.509,25.616 62.509,22.075 62.797,22.075 	"></polygon>
	<path fill="#CCCCCC" d="M62.399,30.629l-0.183-0.293c0.166-0.104,0.169-0.198,0.17-0.229c0.007-0.212-0.293-0.502-0.44-0.608
		l-0.071-0.052v-3.371h0.346v3.198c0.162,0.133,0.524,0.472,0.511,0.844C62.727,30.26,62.665,30.463,62.399,30.629z"></path>
	<polygon fill="#CCCCCC" points="71.205,25.242 70.917,24.983 70.917,21.441 71.205,21.441 	"></polygon>
	<path fill="#CCCCCC" d="M70.807,30.168l-0.183-0.293c0.166-0.104,0.169-0.198,0.17-0.229c0.007-0.212-0.293-0.502-0.44-0.608
		l-0.071-0.052v-3.371h0.346v3.198c0.162,0.133,0.524,0.472,0.511,0.844C71.135,29.8,71.073,30.002,70.807,30.168z"></path>
	<polygon fill="#CCCCCC" points="77.857,24.148 77.569,23.889 77.569,20.347 77.857,20.347 	"></polygon>
	<path fill="#CCCCCC" d="M77.631,29.333l-0.183-0.293c0.166-0.104,0.169-0.198,0.17-0.229c0.007-0.212-0.293-0.502-0.44-0.608
		l-0.071-0.052V24.78h0.346v3.198c0.162,0.133,0.524,0.472,0.511,0.844C77.959,28.965,77.898,29.167,77.631,29.333z"></path>
	<polygon fill="#CCCCCC" points="83.27,23.255 82.982,22.996 82.982,19.454 83.27,19.454 	"></polygon>
	<path fill="#CCCCCC" d="M83.045,28.527l-0.183-0.293c0.166-0.104,0.169-0.198,0.17-0.229c0.007-0.212-0.293-0.502-0.44-0.608
		l-0.071-0.052v-3.371h0.346v3.198c0.162,0.133,0.524,0.472,0.511,0.844C83.373,28.158,83.311,28.361,83.045,28.527z"></path>
	<polygon fill="#CCCCCC" points="86.87,21.643 86.236,21.384 86.236,17.842 86.87,17.842 	"></polygon>
	<path fill="#CCCCCC" d="M87.076,27.174l-0.183-0.293c0.155-0.097,0.156-0.181,0.156-0.208c0.003-0.214-0.34-0.513-0.506-0.625
		l-0.077-0.051V21.24h0.346v4.576c0.18,0.135,0.589,0.483,0.583,0.862C87.393,26.814,87.336,27.012,87.076,27.174z"></path>
	<path fill="#CCCCCC" d="M4.726,38.48c-0.756,0.016-1.209,0.016-1.209,0.016v4.146c0,0,0.453,0,1.209-0.016V38.48z"></path>
	<path fill="#CCCCCC" d="M9.323,38.267c-0.767,0.055-1.505,0.098-2.178,0.13v4.146c0.673-0.032,1.411-0.075,2.178-0.13V38.267z"></path>
	<path fill="#CCCCCC" d="M12.624,37.817v4.146c2.514-0.692,3.678-2.085,3.678-2.085v-4.146
		C16.302,35.732,15.138,37.125,12.624,37.817z"></path>
	<polygon fill="#CCCCCC" points="9.323,37.49 9.323,34.419 0.693,34.419 0.693,37.49 4.726,37.49 4.726,35.387 7.145,35.387 
		7.145,37.49 	"></polygon>
	<polygon fill="#CCCCCC" points="91.424,34.419 91.424,37.278 93.818,37.278 93.818,35.387 96.236,35.387 96.236,37.278 100,37.278 
		100,34.419 	"></polygon>
	<rect x="83.472" y="34.419" fill="#CCCCCC" width="4.781" height="2.859"></rect>
	<path fill="#CCCCCC" d="M93.818,35.387l0.691,0.518V46.02l1.728,0.918V35.387H93.818z M95.818,46.008h-0.546l-0.273-0.473
		l0.273-0.473h0.546l0.273,0.473L95.818,46.008z M95.818,41.343h-0.546l-0.273-0.473l0.273-0.473h0.546l0.273,0.473L95.818,41.343z
		 M95.818,37.274h-0.546l-0.273-0.473l0.273-0.473h0.546l0.273,0.473L95.818,37.274z"></path>
	<polygon fill="#CCCCCC" points="5.417,35.905 4.726,35.387 4.726,47.779 5.417,47.358 	"></polygon>
	<path fill="#CCCCCC" d="M4.726,35.387l0.691,0.518v11.453l1.728-1.054V35.387H4.726z M6.727,46.008H6.181l-0.273-0.473l0.273-0.473
		h0.546L7,45.535L6.727,46.008z M6.727,41.343H6.181L5.908,40.87l0.273-0.473h0.546L7,40.87L6.727,41.343z M6.727,37.197H6.181
		l-0.273-0.473l0.273-0.473h0.546L7,36.724L6.727,37.197z"></path>
	<path fill="#CCCCCC" d="M4.726,42.627c-0.756,0.016-1.209,0.016-1.209,0.016v-2.821H0.933v4.406h3.793V42.627z"></path>
	<g>
		<g>
			<path fill="#CCCCCC" d="M9.323,42.414c-0.767,0.055-1.505,0.098-2.178,0.13v1.684h2.178V42.414z"></path>
			<path fill="#CCCCCC" d="M16.302,39.822v0.057c0,0-1.164,1.393-3.678,2.085v2.264h2.319c2.061-1.101,5.211-2.082,9.162-2.883
				v-1.522L16.302,39.822L16.302,39.822z"></path>
		</g>
		<g>
			<path fill="#CCCCCC" d="M9.323,42.414c-0.767,0.055-1.505,0.098-2.178,0.13v1.684h2.178V42.414z"></path>
			<path fill="#CCCCCC" d="M16.302,39.822v0.057c0,0-1.164,1.393-3.678,2.085v2.264h2.319c2.061-1.101,5.211-2.082,9.162-2.883
				v-1.522L16.302,39.822L16.302,39.822z"></path>
		</g>
	</g>
	<g>
		<g>
			<rect x="91.424" y="39.822" fill="#CCCCCC" width="2.393" height="4.406"></rect>
			<path fill="#CCCCCC" d="M88.253,39.822H76.224v1.522c3.952,0.801,7.101,1.783,9.162,2.883h2.866L88.253,39.822L88.253,39.822z"></path>
		</g>
		<g>
			<rect x="91.424" y="39.822" fill="#CCCCCC" width="2.393" height="4.406"></rect>
			<path fill="#CCCCCC" d="M88.253,39.822H76.224v1.522c3.952,0.801,7.101,1.783,9.162,2.883h2.866L88.253,39.822L88.253,39.822z"></path>
		</g>
	</g>
	<ellipse fill="#CCCCCC" cx="50.165" cy="7.954" rx="42.74" ry="6.225"></ellipse>
</g>
<g id="shadow">
	<polygon fill="#1A1A1A" points="91.79,83.78 93,84.99 93,86.496 96.012,86.496 96.012,80.473 	"></polygon>
	<polygon fill="#1A1A1A" points="20.603,89.856 16.118,86.873 20.128,95.192 20.128,97.265 22.202,98.993 22.202,96.201 
		21.024,90.212 	"></polygon>
	<g>
		<g>
			<polygon fill="#1A1A1A" points="85.182,81.876 85.173,84.135 87.08,82.842 87.08,80.641 			"></polygon>
			<polygon fill="#1A1A1A" points="89.605,81.049 89.605,78.903 87.831,80.057 87.824,82.257 			"></polygon>
			<polygon fill="#1A1A1A" points="91.957,79.601 91.957,77.51 90.306,78.584 90.301,80.724 			"></polygon>
			<polygon fill="#1A1A1A" points="94.05,78.154 94.05,76.117 92.523,77.112 92.52,79.191 			"></polygon>
			<polygon fill="#1A1A1A" points="96.143,76.706 96.143,74.725 94.739,75.639 94.739,77.659 			"></polygon>
		</g>
		<g>
			<polygon fill="#1A1A1A" points="85.195,78.768 85.186,81.043 87.08,79.78 87.08,77.564 			"></polygon>
			<polygon fill="#1A1A1A" points="89.605,78.053 89.605,75.893 87.84,77.021 87.833,79.235 			"></polygon>
			<polygon fill="#1A1A1A" points="91.957,76.643 91.957,74.538 90.313,75.589 90.308,77.743 			"></polygon>
			<polygon fill="#1A1A1A" points="94.05,75.233 94.05,73.184 92.526,74.158 92.523,76.251 			"></polygon>
			<polygon fill="#1A1A1A" points="96.143,73.795 96.143,71.801 94.739,72.698 94.739,74.731 			"></polygon>
		</g>
		<g>
			<polygon fill="#1A1A1A" points="85.208,75.661 85.198,77.951 87.08,76.717 87.08,74.486 			"></polygon>
			<polygon fill="#1A1A1A" points="89.605,75.057 89.605,72.883 87.85,73.984 87.843,76.212 			"></polygon>
			<polygon fill="#1A1A1A" points="91.957,73.685 91.957,71.567 90.319,72.594 90.314,74.762 			"></polygon>
			<polygon fill="#1A1A1A" points="94.05,72.313 94.05,70.251 92.529,71.205 92.527,73.311 			"></polygon>
			<polygon fill="#1A1A1A" points="96.143,70.883 96.143,68.878 94.739,69.758 94.739,71.803 			"></polygon>
		</g>
		<g>
			<polygon fill="#1A1A1A" points="85.221,72.554 85.211,74.858 87.08,73.655 87.08,71.409 			"></polygon>
			<polygon fill="#1A1A1A" points="89.605,72.061 89.605,69.873 87.859,70.947 87.852,73.19 			"></polygon>
			<polygon fill="#1A1A1A" points="91.957,70.727 91.957,68.595 90.325,69.599 90.321,71.78 			"></polygon>
			<polygon fill="#1A1A1A" points="94.05,69.393 94.05,67.318 92.532,68.252 92.53,70.371 			"></polygon>
			<polygon fill="#1A1A1A" points="96.143,67.972 96.143,65.955 94.739,66.818 94.739,68.875 			"></polygon>
		</g>
		<g>
			<polygon fill="#1A1A1A" points="85.234,69.446 85.224,71.766 87.08,70.592 87.08,68.332 			"></polygon>
			<polygon fill="#1A1A1A" points="89.605,69.065 89.605,66.863 87.869,67.91 87.862,70.167 			"></polygon>
			<polygon fill="#1A1A1A" points="91.957,67.769 91.957,65.624 90.332,66.604 90.327,68.799 			"></polygon>
			<polygon fill="#1A1A1A" points="94.05,66.472 94.05,64.385 92.535,65.299 92.533,67.431 			"></polygon>
			<polygon fill="#1A1A1A" points="96.143,65.061 96.143,63.031 94.739,63.878 94.739,65.948 			"></polygon>
		</g>
		<g>
			<polygon fill="#1A1A1A" points="85.246,66.339 85.237,68.674 87.08,67.53 87.08,65.255 			"></polygon>
			<polygon fill="#1A1A1A" points="89.605,66.07 89.605,63.853 87.879,64.873 87.871,67.145 			"></polygon>
			<polygon fill="#1A1A1A" points="91.957,64.811 91.957,62.653 90.338,63.61 90.333,65.818 			"></polygon>
			<polygon fill="#1A1A1A" points="94.05,63.552 94.05,61.452 92.539,62.346 92.536,64.491 			"></polygon>
			<polygon fill="#1A1A1A" points="96.143,62.149 96.143,60.108 94.739,60.938 94.739,63.02 			"></polygon>
		</g>
		<g>
			<polygon fill="#1A1A1A" points="85.259,63.232 85.249,65.581 87.08,64.468 87.08,62.178 			"></polygon>
			<polygon fill="#1A1A1A" points="89.605,63.074 89.605,60.843 87.888,61.837 87.881,64.123 			"></polygon>
			<polygon fill="#1A1A1A" points="91.957,61.853 91.957,59.681 90.345,60.615 90.34,62.837 			"></polygon>
			<polygon fill="#1A1A1A" points="94.05,60.632 94.05,58.519 92.542,59.392 92.539,61.551 			"></polygon>
			<polygon fill="#1A1A1A" points="96.143,59.238 96.143,57.185 94.739,57.998 94.739,60.092 			"></polygon>
		</g>
	</g>
	<g>
		<g>
			<polygon fill="#1A1A1A" points="18.388,82.653 18.397,84.999 16.49,83.792 16.49,81.591 			"></polygon>
			<polygon fill="#1A1A1A" points="13.533,82.086 13.533,79.939 15.307,81.008 15.314,83.294 			"></polygon>
			<polygon fill="#1A1A1A" points="10.922,80.379 10.922,78.374 12.573,79.276 12.577,81.329 			"></polygon>
			<polygon fill="#1A1A1A" points="8.397,78.845 8.397,76.808 9.924,77.63 9.927,79.71 			"></polygon>
			<polygon fill="#1A1A1A" points="6.131,77.397 6.131,75.416 7.535,76.243 7.535,78.263 			"></polygon>
		</g>
		<g>
			<polygon fill="#1A1A1A" points="18.375,79.388 18.384,81.734 16.49,80.571 16.49,78.355 			"></polygon>
			<polygon fill="#1A1A1A" points="13.533,78.917 13.533,76.756 15.298,77.784 15.305,80.07 			"></polygon>
			<polygon fill="#1A1A1A" points="10.922,77.291 10.922,75.258 12.566,76.137 12.571,78.218 			"></polygon>
			<polygon fill="#1A1A1A" points="8.397,75.795 8.397,73.746 9.921,74.576 9.923,76.669 			"></polygon>
			<polygon fill="#1A1A1A" points="6.131,74.414 6.131,72.42 7.535,73.231 7.535,75.264 			"></polygon>
		</g>
		<g>
			<polygon fill="#1A1A1A" points="18.362,76.122 18.372,78.469 16.49,77.351 16.49,75.12 			"></polygon>
			<polygon fill="#1A1A1A" points="13.533,75.748 13.533,73.574 15.288,74.56 15.295,76.846 			"></polygon>
			<polygon fill="#1A1A1A" points="10.922,74.203 10.922,72.143 12.56,72.998 12.565,75.107 			"></polygon>
			<polygon fill="#1A1A1A" points="8.397,72.745 8.397,70.683 9.918,71.522 9.92,73.628 			"></polygon>
			<polygon fill="#1A1A1A" points="6.131,71.431 6.131,69.425 7.535,70.219 7.535,72.264 			"></polygon>
		</g>
		<g>
			<polygon fill="#1A1A1A" points="18.349,72.856 18.359,75.204 16.49,74.13 16.49,71.884 			"></polygon>
			<polygon fill="#1A1A1A" points="13.533,72.58 13.533,70.391 15.278,71.336 15.286,73.622 			"></polygon>
			<polygon fill="#1A1A1A" points="10.922,71.116 10.922,69.027 12.553,69.859 12.558,71.996 			"></polygon>
			<polygon fill="#1A1A1A" points="8.397,69.695 8.397,67.621 9.915,68.468 9.917,70.587 			"></polygon>
			<polygon fill="#1A1A1A" points="6.131,68.447 6.131,66.43 7.535,67.207 7.535,69.264 			"></polygon>
		</g>
		<g>
			<polygon fill="#1A1A1A" points="18.336,69.59 18.346,71.939 16.49,70.909 16.49,68.649 			"></polygon>
			<polygon fill="#1A1A1A" points="13.533,69.411 13.533,67.208 15.269,68.112 15.276,70.398 			"></polygon>
			<polygon fill="#1A1A1A" points="10.922,68.028 10.922,65.912 12.547,66.72 12.552,68.886 			"></polygon>
			<polygon fill="#1A1A1A" points="8.397,66.645 8.397,64.558 9.911,65.414 9.914,67.546 			"></polygon>
			<polygon fill="#1A1A1A" points="6.131,65.464 6.131,63.434 7.535,64.195 7.535,66.264 			"></polygon>
		</g>
		<g>
			<polygon fill="#1A1A1A" points="18.323,66.325 18.333,68.674 16.49,67.688 16.49,65.413 			"></polygon>
			<polygon fill="#1A1A1A" points="13.533,66.242 13.533,64.026 15.259,64.888 15.267,67.174 			"></polygon>
			<polygon fill="#1A1A1A" points="10.922,64.94 10.922,62.797 12.54,63.581 12.545,65.775 			"></polygon>
			<polygon fill="#1A1A1A" points="8.397,63.595 8.397,61.495 9.908,62.36 9.911,64.505 			"></polygon>
			<polygon fill="#1A1A1A" points="6.131,62.48 6.131,60.439 7.535,61.182 7.535,63.265 			"></polygon>
		</g>
		<g>
			<polygon fill="#1A1A1A" points="18.311,63.059 18.321,65.409 16.49,64.468 16.49,62.178 			"></polygon>
			<polygon fill="#1A1A1A" points="13.533,63.074 13.533,60.843 15.25,61.664 15.257,63.95 			"></polygon>
			<polygon fill="#1A1A1A" points="10.922,61.853 10.922,59.681 12.534,60.442 12.539,62.664 			"></polygon>
			<polygon fill="#1A1A1A" points="8.397,60.545 8.397,58.433 9.905,59.306 9.907,61.464 			"></polygon>
			<polygon fill="#1A1A1A" points="6.131,59.497 6.131,57.444 7.535,58.17 7.535,60.265 			"></polygon>
		</g>
	</g>
	<polygon fill="#1A1A1A" points="4.66,79.253 4.82,83.734 4.82,85.241 6.326,86.496 9.338,86.496 9.338,84.99 10.915,83.413 	"></polygon>
	<path fill="#1A1A1A" d="M66.232,63.634l1.037,0.518v0.999h2.381v2.995h-2.381v4.331l1.037,0.141v4.319l-1.037-0.141v1.486h2.381
		v2.995h-2.381v3.522H43.254l-3.11-1.814v-1.938h-4.817v-2.995h4.817v-9.905h-4.817v-2.995h4.817v-1.517h-4.838v21.769H69.86v-21.77
		H66.232z M35.652,68.558h3.455v1.382h-3.455V68.558z M35.652,73.05h3.455v1.382h-3.455V73.05z M35.537,83.992v-1.094h4.29
		l1.728,1.094H35.537z M69.745,84.223h-2.361v-1.267h2.361V84.223z"></path>
	<path fill="#1A1A1A" d="M25.662,41.066c0.463-0.091,0.937-0.181,1.422-0.267c-0.483,0.08-0.957,0.162-1.422,0.246V41.066z"></path>
	<path fill="#1A1A1A" d="M50.165,17.613c-6.659,0-12.962-0.222-18.58-0.618c3.697,0.666,10.63,1.114,18.58,1.114
		s14.883-0.449,18.58-1.114C63.127,17.391,56.824,17.613,50.165,17.613z"></path>
	<polygon fill="#1A1A1A" points="80.917,74.605 73.834,74.605 73.834,63.03 74.179,63.03 74.179,74.26 80.917,74.26 	"></polygon>
	<path fill="#1A1A1A" d="M76.224,41.345v0.048c6.265,1.395,10.119,3.292,10.119,5.383c0,4.286-16.197,7.761-36.178,7.761
		s-36.178-3.475-36.178-7.761c0-2.09,3.854-3.987,10.119-5.383v-0.048c-6.049,1.227-10.217,2.875-11.481,4.727v2.38
		c2.687,3.931,18.47,6.95,37.54,6.95c20.957,0,37.946-3.645,37.946-8.141C88.11,44.93,83.541,42.829,76.224,41.345z"></path>
	<polygon opacity="0.49" fill="#1A1A1A" enable-background="new    " points="18.311,64 6.131,58.126 6.131,57.357 18.311,63.059 	
		"></polygon>
	<rect x="40.763" y="26.166" fill="#1A1A1A" width="0.346" height="3.34"></rect>
	<polyline fill="#1A1A1A" points="40.101,22.365 40.101,25.907 42.116,25.907 42.404,26.166 39.928,26.166 39.928,22.308 	"></polyline>
	<rect x="32.188" y="25.818" fill="#1A1A1A" width="0.346" height="3.34"></rect>
	<polyline fill="#1A1A1A" points="31.526,22.017 31.526,25.559 33.541,25.645 33.829,25.904 31.353,25.818 31.353,21.959 	"></polyline>
	<rect x="25.047" y="24.896" fill="#1A1A1A" width="0.346" height="3.34"></rect>
	<polyline fill="#1A1A1A" points="24.385,21.009 24.385,24.551 26.4,24.81 26.688,25.069 24.212,24.81 24.212,20.952 	"></polyline>
	<polygon fill="#1A1A1A" points="19.634,27.546 19.288,27.546 19.288,24.033 19.634,24.119 	"></polygon>
	<polyline fill="#1A1A1A" points="18.626,20.059 18.626,23.601 20.641,24.119 20.929,24.378 18.453,23.86 18.453,20.001 	"></polyline>
	<polygon fill="#1A1A1A" points="14.45,25.588 14.105,25.588 14.105,21.643 14.45,21.902 	"></polygon>
	<polyline fill="#1A1A1A" points="14.134,17.842 14.134,21.384 15.458,22.247 15.746,22.507 13.702,21.47 13.702,17.611 	"></polyline>
	<polyline fill="#1A1A1A" points="50.502,22.564 50.502,26.106 52.517,26.106 52.805,26.365 50.329,26.365 50.329,22.507 	"></polyline>
	<polyline fill="#1A1A1A" points="60.493,22.247 60.493,25.789 62.509,25.703 62.797,25.876 60.321,26.048 60.321,22.19 	"></polyline>
	<polyline fill="#1A1A1A" points="69.218,21.643 69.218,25.184 70.629,25.012 70.917,25.184 69.046,25.444 69.046,21.585 	"></polyline>
	
		<rect x="77.004" y="23.498" transform="matrix(-0.2111 -0.9775 0.9775 -0.2111 69.5368 104.7678)" fill="#1A1A1A" width="0.086" height="1.649"></rect>
	
		<rect x="82.518" y="22.711" transform="matrix(-0.2581 -0.9661 0.9661 -0.2581 81.2237 109.255)" fill="#1A1A1A" width="0.086" height="1.46"></rect>
	<polygon fill="#1A1A1A" points="94.509,46.02 94.509,35.905 93.818,35.387 93.818,45.653 	"></polygon>
	<g>
		<polygon fill="#1A1A1A" points="5.417,35.905 4.726,35.387 4.726,47.779 5.417,47.358 		"></polygon>
	</g>
	<path fill="#1A1A1A" d="M50.165,34.005c-10.236,0-19.478-0.68-26.059-1.773v14.545c0,2.726,11.667,4.936,26.059,4.936
		s26.059-2.21,26.059-4.936V32.231C69.643,33.324,60.401,34.005,50.165,34.005z"></path>
</g>
<g id="dark">
	<path fill="#BC4512" d="M19.252,32.093l-0.301-0.949c-2.139-0.582-3.66-1.23-4.416-1.92l-0.911,2.868
		c-0.043,0.135-0.065,0.277-0.065,0.419v4.995c1.867-0.73,2.744-1.774,2.744-1.774v4.146c0,0-0.789,0.941-2.464,1.661
		C14.301,41.811,15.29,42,16.439,42c1.59,0,2.88-0.361,2.88-0.806v-8.683C19.317,32.369,19.295,32.228,19.252,32.093z"></path>
	<path fill="#BC4512" d="M20.365,31.499c-0.908-0.211-1.732-0.431-2.462-0.661l-1.689,5.314c-0.043,0.135-0.065,0.277-0.065,0.419
		v8.683c0,0.445,1.289,0.806,2.879,0.806s2.88-0.361,2.88-0.806v-8.683c0-0.142-0.022-0.283-0.065-0.419L20.365,31.499z"></path>
	<path fill="#BC4512" d="M23.658,39.608l-1.824-5.742v-0.277c0.112-0.062,0.19-0.177,0.19-0.314c0-0.095-0.038-0.18-0.098-0.245
		c0.06-0.065,0.098-0.15,0.098-0.245c0-0.02-0.008-0.037-0.011-0.056c0.014-0.028,0.023-0.058,0.023-0.088
		c0-0.254-0.534-0.461-1.192-0.461s-1.192,0.206-1.192,0.461c0,0.03,0.009,0.059,0.023,0.088c-0.003,0.019-0.011,0.036-0.011,0.056
		c0,0.095,0.038,0.18,0.098,0.245c-0.06,0.065-0.098,0.15-0.098,0.245c0,0.137,0.079,0.252,0.19,0.314v0.277l-1.824,5.742
		c-0.043,0.135-0.065,0.277-0.065,0.419v8.683c0,0.445,1.289,0.806,2.879,0.806s2.879-0.361,2.879-0.806v-8.683
		C23.722,39.885,23.701,39.743,23.658,39.608z"></path>
	<path fill="#BC4512" d="M81.672,31.706V31.43c0.112-0.062,0.19-0.177,0.19-0.314c0-0.036-0.01-0.069-0.02-0.102
		c-0.655,0.189-1.372,0.372-2.15,0.548v0.145l-1.824,5.742c-0.043,0.135-0.065,0.277-0.065,0.419v8.683
		c0,0.445,1.289,0.806,2.879,0.806s2.88-0.361,2.88-0.806v-8.683c0-0.142-0.022-0.283-0.065-0.419L81.672,31.706z"></path>
	<g>
		<path fill="#BC4512" d="M7.165,37.49v0.906c0.667-0.031,1.398-0.074,2.157-0.129V37.49H7.165z"></path>
		<path fill="#BC4512" d="M9.323,34.419v-9.656c-0.284,0.084-0.47,0.215-0.47,0.364c0,0.03,0.009,0.059,0.023,0.088
			c-0.003,0.019-0.011,0.036-0.011,0.056c0,0.095,0.038,0.18,0.098,0.245c-0.06,0.065-0.098,0.15-0.098,0.245
			c0,0.137,0.079,0.252,0.19,0.314v0.277L7.23,32.093c-0.043,0.135-0.065,0.277-0.065,0.419v1.908L9.323,34.419L9.323,34.419z"></path>
	</g>
	<path fill="#BC4512" d="M51.102,43.841l-1.824-5.742v-0.277c0.112-0.062,0.19-0.177,0.19-0.314c0-0.095-0.038-0.18-0.098-0.245
		c0.06-0.065,0.098-0.15,0.098-0.245c0-0.02-0.008-0.037-0.011-0.056c0.014-0.028,0.023-0.058,0.023-0.088
		c0-0.254-0.534-0.461-1.192-0.461s-1.192,0.206-1.192,0.461c0,0.03,0.009,0.059,0.023,0.088c-0.003,0.019-0.011,0.036-0.011,0.056
		c0,0.095,0.038,0.18,0.098,0.245c-0.06,0.065-0.098,0.15-0.098,0.245c0,0.137,0.079,0.252,0.19,0.314v0.277l-1.824,5.742
		c-0.043,0.135-0.065,0.277-0.065,0.419v8.683c0,0.445,1.289,0.806,2.879,0.806s2.879-0.361,2.879-0.806V44.26
		C51.167,44.117,51.145,43.976,51.102,43.841z"></path>
	<path fill="#BC4512" d="M41.427,43.668l-1.824-5.742v-0.277c0.112-0.062,0.19-0.177,0.19-0.314c0-0.095-0.038-0.18-0.098-0.245
		c0.06-0.065,0.098-0.15,0.098-0.245c0-0.02-0.008-0.037-0.011-0.056c0.014-0.028,0.023-0.058,0.023-0.088
		c0-0.254-0.534-0.461-1.192-0.461s-1.192,0.206-1.192,0.461c0,0.03,0.009,0.059,0.023,0.088c-0.003,0.019-0.011,0.036-0.011,0.056
		c0,0.095,0.038,0.18,0.098,0.245c-0.06,0.065-0.098,0.15-0.098,0.245c0,0.137,0.079,0.252,0.19,0.314v0.277l-1.824,5.742
		c-0.043,0.135-0.065,0.277-0.065,0.419v8.683c0,0.445,1.289,0.806,2.879,0.806s2.879-0.361,2.879-0.806v-8.683
		C41.492,43.945,41.47,43.803,41.427,43.668z"></path>
	<path fill="#BC4512" d="M34.283,42.459l-1.824-5.742V36.44c0.112-0.062,0.19-0.177,0.19-0.314c0-0.095-0.038-0.18-0.098-0.245
		c0.06-0.065,0.098-0.15,0.098-0.245c0-0.02-0.008-0.037-0.011-0.056c0.014-0.028,0.023-0.058,0.023-0.088
		c0-0.254-0.534-0.461-1.192-0.461s-1.192,0.206-1.192,0.461c0,0.03,0.009,0.059,0.023,0.088c-0.003,0.019-0.011,0.036-0.011,0.056
		c0,0.095,0.038,0.18,0.098,0.245c-0.06,0.065-0.098,0.15-0.098,0.245c0,0.137,0.079,0.252,0.19,0.314v0.277l-1.824,5.742
		c-0.043,0.135-0.065,0.277-0.065,0.419v8.683c0,0.445,1.289,0.806,2.879,0.806s2.879-0.361,2.879-0.806v-8.683
		C34.348,42.735,34.326,42.594,34.283,42.459z"></path>
	<path fill="#BC4512" d="M28.063,41.163l-1.824-5.742v-0.277c0.112-0.062,0.19-0.177,0.19-0.314c0-0.095-0.038-0.18-0.098-0.245
		c0.06-0.065,0.098-0.15,0.098-0.245c0-0.02-0.008-0.037-0.011-0.056c0.014-0.028,0.023-0.058,0.023-0.088
		c0-0.254-0.534-0.461-1.192-0.461s-1.192,0.206-1.192,0.461c0,0.03,0.009,0.059,0.023,0.088c-0.003,0.019-0.011,0.036-0.011,0.056
		c0,0.095,0.038,0.18,0.098,0.245c-0.06,0.065-0.098,0.15-0.098,0.245c0,0.137,0.079,0.252,0.19,0.314v0.277l-1.824,5.742
		c-0.043,0.135-0.065,0.277-0.065,0.419v8.683c0,0.445,1.289,0.806,2.879,0.806s2.879-0.361,2.879-0.806v-8.683
		C28.128,41.439,28.106,41.298,28.063,41.163z"></path>
	<path fill="#BC4512" d="M61.209,43.668l-1.824-5.742v-0.277c0.112-0.062,0.19-0.177,0.19-0.314c0-0.095-0.038-0.18-0.098-0.245
		c0.06-0.065,0.098-0.15,0.098-0.245c0-0.02-0.008-0.037-0.011-0.056c0.014-0.028,0.023-0.058,0.023-0.088
		c0-0.254-0.534-0.461-1.192-0.461s-1.192,0.206-1.192,0.461c0,0.03,0.009,0.059,0.023,0.088c-0.003,0.019-0.011,0.036-0.011,0.056
		c0,0.095,0.038,0.18,0.098,0.245c-0.06,0.065-0.098,0.15-0.098,0.245c0,0.137,0.079,0.252,0.19,0.314v0.277l-1.824,5.742
		c-0.043,0.135-0.065,0.277-0.065,0.419v8.683c0,0.445,1.289,0.806,2.879,0.806s2.88-0.361,2.88-0.806v-8.683
		C61.274,43.945,61.252,43.803,61.209,43.668z"></path>
	<path fill="#BC4512" d="M69.156,43.15l-1.824-5.742v-0.277c0.112-0.062,0.19-0.177,0.19-0.314c0-0.095-0.038-0.18-0.098-0.245
		c0.06-0.065,0.098-0.15,0.098-0.245c0-0.02-0.008-0.037-0.011-0.056c0.014-0.028,0.023-0.058,0.023-0.088
		c0-0.254-0.534-0.461-1.192-0.461c-0.658,0-1.192,0.206-1.192,0.461c0,0.03,0.009,0.059,0.023,0.088
		c-0.003,0.019-0.011,0.036-0.011,0.056c0,0.095,0.038,0.18,0.098,0.245c-0.06,0.065-0.098,0.15-0.098,0.245
		c0,0.137,0.079,0.252,0.19,0.314v0.277l-1.824,5.742c-0.043,0.135-0.065,0.277-0.065,0.419v8.683c0,0.445,1.289,0.806,2.879,0.806
		s2.88-0.361,2.88-0.806v-8.683C69.221,43.426,69.199,43.285,69.156,43.15z"></path>
	<path fill="#BC4512" d="M75.808,41.94l-1.824-5.742v-0.277c0.112-0.062,0.19-0.177,0.19-0.314c0-0.095-0.038-0.18-0.098-0.245
		c0.06-0.065,0.098-0.15,0.098-0.245c0-0.02-0.008-0.037-0.011-0.056c0.014-0.028,0.023-0.058,0.023-0.088
		c0-0.254-0.534-0.461-1.192-0.461s-1.192,0.206-1.192,0.461c0,0.03,0.009,0.059,0.023,0.088c-0.003,0.019-0.011,0.036-0.011,0.056
		c0,0.095,0.038,0.18,0.098,0.245c-0.06,0.065-0.098,0.15-0.098,0.245c0,0.137,0.079,0.252,0.19,0.314v0.277L70.18,41.94
		c-0.043,0.135-0.065,0.277-0.065,0.419v8.683c0,0.445,1.289,0.806,2.879,0.806s2.88-0.361,2.88-0.806v-8.683
		C75.873,42.217,75.851,42.076,75.808,41.94z"></path>
	<path fill="#BC4512" d="M81.337,40.472l-1.824-5.742v-0.277c0.112-0.062,0.19-0.177,0.19-0.314c0-0.095-0.038-0.18-0.098-0.245
		c0.06-0.065,0.098-0.15,0.098-0.245c0-0.02-0.008-0.037-0.011-0.056c0.014-0.028,0.023-0.058,0.023-0.088
		c0-0.254-0.534-0.461-1.192-0.461c-0.658,0-1.192,0.206-1.192,0.461c0,0.03,0.009,0.059,0.023,0.088
		c-0.003,0.019-0.011,0.036-0.011,0.056c0,0.095,0.038,0.18,0.098,0.245c-0.06,0.065-0.098,0.15-0.098,0.245
		c0,0.137,0.079,0.252,0.19,0.314v0.277l-1.824,5.742c-0.043,0.135-0.065,0.277-0.065,0.419v8.683c0,0.445,1.289,0.806,2.879,0.806
		s2.88-0.361,2.88-0.806V40.89C81.402,40.748,81.38,40.607,81.337,40.472z"></path>
	<g>
		<path fill="#BC4512" d="M93.47,34.419v-0.714c0-0.142-0.022-0.283-0.065-0.419l-1.824-5.742v-0.277
			c0.112-0.062,0.19-0.177,0.19-0.314c0-0.095-0.038-0.18-0.098-0.245c0.06-0.065,0.098-0.15,0.098-0.245
			c0-0.02-0.008-0.037-0.011-0.056c0.014-0.028,0.023-0.058,0.023-0.088c0-0.129-0.137-0.245-0.358-0.329v8.427h2.045V34.419z"></path>
		<path fill="#BC4512" d="M91.424,37.278v5.881c1.183-0.1,2.045-0.408,2.045-0.772v-5.109H91.424z"></path>
	</g>
	<g>
		<path fill="#BC4512" d="M88.253,34.419v-2.635l-0.477,1.502c-0.043,0.135-0.065,0.277-0.065,0.419v0.714H88.253z"></path>
		<path fill="#BC4512" d="M87.711,37.278v5.109c0,0.175,0.202,0.337,0.542,0.47v-5.579C88.253,37.278,87.711,37.278,87.711,37.278z"></path>
	</g>
	<g>
		<path fill="#BC4512" d="M99.948,34.419v-0.714c0-0.142-0.022-0.283-0.065-0.419l-1.824-5.742v-0.277
			c0.112-0.062,0.19-0.177,0.19-0.314c0-0.095-0.038-0.18-0.098-0.245c0.06-0.065,0.098-0.15,0.098-0.245
			c0-0.02-0.008-0.037-0.011-0.056c0.014-0.028,0.023-0.058,0.023-0.088c0-0.254-0.534-0.461-1.192-0.461s-1.192,0.206-1.192,0.461
			c0,0.03,0.009,0.059,0.023,0.088c-0.003,0.019-0.011,0.036-0.011,0.056c0,0.095,0.038,0.18,0.098,0.245
			c-0.06,0.065-0.098,0.15-0.098,0.245c0,0.137,0.079,0.252,0.19,0.314v0.277l-1.824,5.742c-0.043,0.135-0.065,0.277-0.065,0.419
			v0.714H99.948z"></path>
		<path fill="#BC4512" d="M96.236,37.278v5.881c0.264,0.022,0.543,0.035,0.833,0.035c1.59,0,2.88-0.361,2.88-0.806v-5.109
			L96.236,37.278L96.236,37.278z"></path>
	</g>
	<path fill="#BC4512" d="M83.472,37.278v-2.859h3.433v-0.714c0-0.142-0.022-0.283-0.065-0.419l-1.239-3.898
		c-0.729,0.567-1.976,1.104-3.66,1.597l-0.731,2.3c-0.043,0.135-0.065,0.277-0.065,0.419v8.683c0,0.445,1.289,0.806,2.879,0.806
		s2.88-0.361,2.88-0.806v-5.109C86.904,37.278,83.472,37.278,83.472,37.278z"></path>
	<path fill="#BC4512" d="M3.517,38.497c0,0,0.453,0,1.209-0.016v-0.99H0.693V34.42h5.666v-1.908c0-0.142-0.022-0.283-0.065-0.419
		L4.47,26.351v-0.277c0.112-0.062,0.19-0.177,0.19-0.314c0-0.095-0.038-0.18-0.098-0.245c0.06-0.065,0.098-0.15,0.098-0.245
		c0-0.02-0.008-0.037-0.011-0.056c0.014-0.028,0.023-0.058,0.023-0.088c0-0.254-0.534-0.461-1.192-0.461s-1.192,0.206-1.192,0.461
		c0,0.03,0.009,0.059,0.023,0.088C2.308,25.233,2.3,25.25,2.3,25.27c0,0.095,0.038,0.18,0.098,0.245
		C2.338,25.58,2.3,25.665,2.3,25.76c0,0.137,0.079,0.252,0.19,0.314v0.277l-1.824,5.742C0.622,32.228,0.6,32.369,0.6,32.511v8.683
		C0.6,41.639,1.889,42,3.479,42c0.013,0,0.025,0,0.037-0.001L3.517,38.497L3.517,38.497z"></path>
</g>
<g id="hlight">
	<polygon fill="#FFFFFF" points="81.09,74.432 80.745,74.432 80.745,63.202 74.007,63.202 74.007,62.857 81.09,62.857 	"></polygon>
	<path fill="#FFFFFF" d="M92.303,51.679c-0.565,0.259-1.421,0.424-2.378,0.424c-1.194,0-2.228-0.257-2.74-0.633
		c-0.646,0.022-1.125,0.079-1.286,0.186c-0.691,0.461-4.377,1.613-2.995,1.843s2.073,2.764,3.225,1.843s7.832-3.455,7.832-3.455
		C93.72,51.826,93.099,51.75,92.303,51.679z"></path>
	<path fill="#FFFFFF" d="M89.925,51.066c1.703,0,3.083-0.522,3.083-1.166v1.037c0,0.644-1.38,1.166-3.083,1.166V51.066z"></path>
	<path fill="#FFFFFF" d="M11.191,51.296c1.703,0,3.083-0.522,3.083-1.166v1.037c0,0.644-1.38,1.166-3.083,1.166V51.296z"></path>
	
		<rect x="90.764" y="74.242" transform="matrix(-0.5664 -0.8242 0.8242 -0.5664 75.3987 202.3636)" fill="#FFFFFF" width="0.346" height="14.209"></rect>
	<path fill="#FFFFFF" d="M2.863,25.237c0.12-0.085,0.349-0.143,0.616-0.143s0.497,0.058,0.616,0.143
		c0.055-0.039,0.088-0.082,0.088-0.13c0-0.15-0.316-0.272-0.705-0.272s-0.705,0.122-0.705,0.272
		C2.775,25.154,2.809,25.198,2.863,25.237z"></path>
	<path fill="#FFFFFF" d="M47.671,36.985c0.12-0.085,0.349-0.143,0.616-0.143s0.497,0.058,0.616,0.143
		c0.055-0.039,0.088-0.082,0.088-0.13c0-0.15-0.316-0.272-0.705-0.272s-0.705,0.122-0.705,0.272
		C47.583,36.903,47.616,36.946,47.671,36.985z"></path>
	<path fill="#FFFFFF" d="M37.996,36.812c0.12-0.085,0.349-0.143,0.616-0.143s0.497,0.058,0.616,0.143
		c0.055-0.039,0.088-0.082,0.088-0.13c0-0.15-0.316-0.272-0.705-0.272s-0.705,0.122-0.705,0.272
		C37.908,36.73,37.941,36.774,37.996,36.812z"></path>
	<path fill="#FFFFFF" d="M30.852,35.603c0.12-0.085,0.349-0.143,0.616-0.143s0.497,0.058,0.616,0.143
		c0.055-0.039,0.088-0.082,0.088-0.13c0-0.15-0.316-0.272-0.705-0.272s-0.705,0.122-0.705,0.272
		C30.763,35.521,30.797,35.564,30.852,35.603z"></path>
	<path fill="#FFFFFF" d="M24.632,34.307c0.12-0.085,0.349-0.143,0.616-0.143s0.497,0.058,0.616,0.143
		c0.055-0.039,0.088-0.082,0.088-0.13c0-0.15-0.316-0.272-0.705-0.272s-0.705,0.122-0.705,0.272
		C24.544,34.225,24.578,34.268,24.632,34.307z"></path>
	<path fill="#FFFFFF" d="M20.227,32.752c0.12-0.085,0.349-0.143,0.616-0.143s0.497,0.058,0.616,0.143
		c0.055-0.039,0.088-0.082,0.088-0.13c0-0.15-0.316-0.272-0.705-0.272s-0.705,0.122-0.705,0.272
		C20.138,32.67,20.172,32.714,20.227,32.752z"></path>
	<path fill="#FFFFFF" d="M57.778,36.812c0.12-0.085,0.349-0.143,0.616-0.143s0.497,0.058,0.616,0.143
		c0.055-0.039,0.088-0.082,0.088-0.13c0-0.15-0.316-0.272-0.705-0.272s-0.705,0.122-0.705,0.272
		C57.69,36.73,57.723,36.774,57.778,36.812z"></path>
	<path fill="#FFFFFF" d="M65.725,36.294c0.12-0.085,0.349-0.143,0.616-0.143s0.497,0.058,0.616,0.143
		c0.055-0.039,0.088-0.082,0.088-0.13c0-0.15-0.316-0.272-0.705-0.272s-0.705,0.122-0.705,0.272
		C65.637,36.212,65.671,36.255,65.725,36.294z"></path>
	<path fill="#FFFFFF" d="M72.377,35.085c0.12-0.085,0.349-0.143,0.616-0.143S73.49,35,73.61,35.085
		c0.055-0.039,0.088-0.082,0.088-0.13c0-0.15-0.316-0.272-0.705-0.272s-0.705,0.122-0.705,0.272
		C72.289,35.002,72.322,35.046,72.377,35.085z"></path>
	<path fill="#FFFFFF" d="M77.906,33.616c0.12-0.085,0.349-0.143,0.616-0.143s0.497,0.058,0.616,0.143
		c0.055-0.039,0.088-0.082,0.088-0.13c0-0.15-0.316-0.272-0.705-0.272s-0.705,0.122-0.705,0.272
		C77.817,33.534,77.851,33.577,77.906,33.616z"></path>
	<path fill="#FFFFFF" d="M96.453,26.43c0.12-0.085,0.349-0.143,0.616-0.143s0.497,0.058,0.616,0.143
		c0.055-0.039,0.088-0.082,0.088-0.13c0-0.15-0.316-0.272-0.705-0.272s-0.705,0.122-0.705,0.272
		C96.364,26.348,96.398,26.391,96.453,26.43z"></path>
</g>
</g>
</svg>