<svg version="1.1" id="Layer_1" xmlns="http://www.w3.org/2000/svg" xmlns:xlink="http://www.w3.org/1999/xlink" x="0px" y="0px" viewBox="0 0 100 100" xml:space="preserve"><desc>Copyright Opto 22</desc> 
<g id="frame">
	<g id="frame_1_">
		<rect fill="none" width="100" height="100"></rect>
	</g>
</g>
<g id="shape">
	<g>
		<g id="shape_00000155851709965784569940000006118516462724831636_">
			<path fill="#808080" d="M0.666,32.044c1.509-4.145,6.109-6.29,10.254-4.781l83.633,30.44c4.145,1.509,6.29,6.109,4.781,10.254
				c-1.509,4.145-6.109,6.29-10.254,4.781L5.448,42.298C1.303,40.789-0.843,36.189,0.666,32.044z M10.236,29.142
				c-3.109-1.132-6.559,0.477-7.69,3.586c-1.132,3.109,0.477,6.559,3.586,7.69l83.633,30.44c3.109,1.132,6.559-0.477,7.69-3.586
				s-0.477-6.559-3.586-7.69L10.236,29.142z"></path>
		</g>
	</g>
</g>
<g id="radial">
</g>
<g id="linear">
</g>
<g id="dark">
	<g id="dark_00000044154502290444848890000011333369457699948679_">
		<circle cx="91.816" cy="65.22" r="5.775"></circle>
		<circle cx="8.184" cy="34.78" r="5.775"></circle>
	</g>
</g>
<g id="light">
	<g id="light_00000135687597876088356550000015864781372018887334_">
		<circle fill="#CCCCCC" cx="91.816" cy="65.22" r="3.675"></circle>
		<circle fill="#CCCCCC" cx="8.184" cy="34.78" r="3.675"></circle>
		<circle fill="#CCCCCC" cx="21.383" cy="36.525" r="2.375"></circle>
		<circle fill="#CCCCCC" cx="28.812" cy="39.229" r="2.375"></circle>
		<circle fill="#CCCCCC" cx="36.241" cy="41.933" r="2.375"></circle>
		<circle fill="#CCCCCC" cx="43.672" cy="44.637" r="2.375"></circle>
		<circle fill="#CCCCCC" cx="51.101" cy="47.341" r="2.375"></circle>
		<circle fill="#CCCCCC" cx="58.53" cy="50.045" r="2.375"></circle>
		<circle fill="#CCCCCC" cx="65.959" cy="52.749" r="2.375"></circle>
		<circle fill="#CCCCCC" cx="73.389" cy="55.454" r="2.375"></circle>
		<circle fill="#CCCCCC" cx="80.819" cy="58.158" r="2.375"></circle>
		<circle fill="#CCCCCC" cx="21.383" cy="36.525" r="2.375"></circle>
		<circle fill="#CCCCCC" cx="28.812" cy="39.229" r="2.375"></circle>
		<circle fill="#CCCCCC" cx="36.241" cy="41.933" r="2.375"></circle>
		<circle fill="#CCCCCC" cx="43.672" cy="44.637" r="2.375"></circle>
		<circle fill="#CCCCCC" cx="51.101" cy="47.341" r="2.375"></circle>
		<circle fill="#CCCCCC" cx="58.53" cy="50.045" r="2.375"></circle>
		<circle fill="#CCCCCC" cx="65.959" cy="52.749" r="2.375"></circle>
		<circle fill="#CCCCCC" cx="73.389" cy="55.454" r="2.375"></circle>
		<circle fill="#CCCCCC" cx="80.819" cy="58.158" r="2.375"></circle>
		
			<rect x="97.728" y="66.555" transform="matrix(0.342 -0.9397 0.9397 0.342 1.2742 136.9304)" fill="#CCCCCC" width="1.375" height="2"></rect>
		
			<rect x="0.94" y="31.327" transform="matrix(0.342 -0.9397 0.9397 0.342 -29.307 22.7997)" fill="#CCCCCC" width="1.375" height="2"></rect>
		
			<rect x="92.564" y="57.719" transform="matrix(0.342 -0.9397 0.9397 0.342 6.679 126.3524)" fill="#CCCCCC" width="2" height="1.375"></rect>
		
			<rect x="73.935" y="50.939" transform="matrix(0.342 -0.9397 0.9397 0.342 0.7928 104.385)" fill="#CCCCCC" width="2" height="1.375"></rect>
		
			<rect x="58.829" y="45.441" transform="matrix(0.342 -0.9397 0.9397 0.342 -3.9799 86.5728)" fill="#CCCCCC" width="2" height="1.375"></rect>
		
			<rect x="43.724" y="39.943" transform="matrix(0.342 -0.9397 0.9397 0.342 -8.7527 68.7607)" fill="#CCCCCC" width="2" height="1.375"></rect>
		
			<rect x="28.618" y="34.445" transform="matrix(0.342 -0.9397 0.9397 0.342 -13.5254 50.9486)" fill="#CCCCCC" width="2" height="1.375"></rect>
		
			<rect x="9.989" y="27.664" transform="matrix(0.342 -0.9397 0.9397 0.342 -19.4116 28.9812)" fill="#CCCCCC" width="2" height="1.375"></rect>
		
			<rect x="87.776" y="70.875" transform="matrix(0.342 -0.9397 0.9397 0.342 -8.8339 130.509)" fill="#CCCCCC" width="2" height="1.375"></rect>
		
			<rect x="69.147" y="64.095" transform="matrix(0.342 -0.9397 0.9397 0.342 -14.7201 108.5417)" fill="#CCCCCC" width="2" height="1.375"></rect>
		
			<rect x="54.041" y="58.597" transform="matrix(0.342 -0.9397 0.9397 0.342 -19.4928 90.7295)" fill="#CCCCCC" width="2" height="1.375"></rect>
		
			<rect x="38.936" y="53.099" transform="matrix(0.342 -0.9397 0.9397 0.342 -24.2656 72.9174)" fill="#CCCCCC" width="2" height="1.375"></rect>
		
			<rect x="23.83" y="47.601" transform="matrix(0.342 -0.9397 0.9397 0.342 -29.0383 55.1052)" fill="#CCCCCC" width="2" height="1.375"></rect>
		
			<rect x="5.201" y="40.82" transform="matrix(0.342 -0.9397 0.9397 0.342 -34.9245 33.1379)" fill="#CCCCCC" width="2" height="1.375"></rect>
	</g>
</g>
<g id="shadow">
</g>
<g id="hlight">
</g>
</svg>