<svg version="1.1" id="Layer_1" xmlns="http://www.w3.org/2000/svg" xmlns:xlink="http://www.w3.org/1999/xlink" x="0px" y="0px" viewBox="0 0 100 100" xml:space="preserve"><desc>Copyright Opto 22</desc> 
<g id="frame">
	<g id="frame_1_">
		<rect fill="none" width="100" height="100"></rect>
	</g>
</g>
<g id="shape">
	<g>
		<g id="shape_00000155851709965784569940000006118516462724831636_">
			<path fill="#808080" d="M94.552,42.298L10.92,72.737c-4.145,1.509-8.745-0.636-10.254-4.781
				c-1.509-4.145,0.636-8.745,4.781-10.254l83.633-30.44c4.145-1.509,8.745,0.636,10.254,4.781S98.697,40.789,94.552,42.298z
				 M6.132,59.582c-3.109,1.132-4.718,4.581-3.586,7.69s4.581,4.718,7.69,3.586l83.633-30.44c3.109-1.132,4.718-4.581,3.586-7.69
				c-1.132-3.109-4.581-4.718-7.69-3.586L6.132,59.582z"></path>
		</g>
	</g>
</g>
<g id="radial">
</g>
<g id="linear">
</g>
<g id="dark">
	<g id="dark_00000081637141370415474530000004371692183675987350_">
		<circle cx="8.184" cy="65.22" r="5.775"></circle>
		<circle cx="91.816" cy="34.78" r="5.775"></circle>
	</g>
</g>
<g id="light">
	<g id="light_00000135687597876088356550000015864781372018887334_">
		<circle fill="#CCCCCC" cx="8.184" cy="65.22" r="3.675"></circle>
		<circle fill="#CCCCCC" cx="91.816" cy="34.78" r="3.675"></circle>
		<circle fill="#CCCCCC" cx="78.617" cy="36.525" r="2.375"></circle>
		<circle fill="#CCCCCC" cx="71.188" cy="39.229" r="2.375"></circle>
		<circle fill="#CCCCCC" cx="63.759" cy="41.933" r="2.375"></circle>
		<circle fill="#CCCCCC" cx="56.328" cy="44.637" r="2.375"></circle>
		<circle fill="#CCCCCC" cx="48.899" cy="47.341" r="2.375"></circle>
		<circle fill="#CCCCCC" cx="41.47" cy="50.045" r="2.375"></circle>
		<circle fill="#CCCCCC" cx="34.041" cy="52.749" r="2.375"></circle>
		<circle fill="#CCCCCC" cx="26.611" cy="55.454" r="2.375"></circle>
		<circle fill="#CCCCCC" cx="19.181" cy="58.158" r="2.375"></circle>
		<circle fill="#CCCCCC" cx="78.617" cy="36.525" r="2.375"></circle>
		<circle fill="#CCCCCC" cx="71.188" cy="39.229" r="2.375"></circle>
		<circle fill="#CCCCCC" cx="63.759" cy="41.933" r="2.375"></circle>
		<circle fill="#CCCCCC" cx="56.328" cy="44.637" r="2.375"></circle>
		<circle fill="#CCCCCC" cx="48.899" cy="47.341" r="2.375"></circle>
		<circle fill="#CCCCCC" cx="41.47" cy="50.045" r="2.375"></circle>
		<circle fill="#CCCCCC" cx="34.041" cy="52.749" r="2.375"></circle>
		<circle fill="#CCCCCC" cx="26.611" cy="55.454" r="2.375"></circle>
		<circle fill="#CCCCCC" cx="19.181" cy="58.158" r="2.375"></circle>
		
			<rect x="0.584" y="66.868" transform="matrix(0.9397 -0.342 0.342 0.9397 -23.0097 4.616)" fill="#CCCCCC" width="2" height="1.375"></rect>
		
			<rect x="97.373" y="31.64" transform="matrix(0.9397 -0.342 0.342 0.9397 -5.124 35.595)" fill="#CCCCCC" width="2" height="1.375"></rect>
		
			<rect x="5.748" y="57.407" transform="matrix(0.9397 -0.342 0.342 0.9397 -19.5882 5.7235)" fill="#CCCCCC" width="1.375" height="2"></rect>
		
			<rect x="24.377" y="50.626" transform="matrix(0.9397 -0.342 0.342 0.9397 -16.1457 11.6862)" fill="#CCCCCC" width="1.375" height="2"></rect>
		
			<rect x="39.483" y="45.128" transform="matrix(0.9397 -0.342 0.342 0.9397 -13.3543 16.521)" fill="#CCCCCC" width="1.375" height="2"></rect>
		
			<rect x="54.589" y="39.63" transform="matrix(0.9397 -0.342 0.342 0.9397 -10.5629 21.3559)" fill="#CCCCCC" width="1.375" height="2"></rect>
		
			<rect x="69.694" y="34.132" transform="matrix(0.9397 -0.342 0.342 0.9397 -7.7715 26.1907)" fill="#CCCCCC" width="1.375" height="2"></rect>
		
			<rect x="88.324" y="27.352" transform="matrix(0.9397 -0.342 0.342 0.9397 -4.3289 32.1534)" fill="#CCCCCC" width="1.375" height="2"></rect>
		
			<rect x="10.536" y="70.563" transform="matrix(0.9397 -0.342 0.342 0.9397 -23.799 8.1545)" fill="#CCCCCC" width="1.375" height="2"></rect>
		
			<rect x="29.166" y="63.782" transform="matrix(0.9397 -0.342 0.342 0.9397 -20.3564 14.1173)" fill="#CCCCCC" width="1.375" height="2"></rect>
		
			<rect x="44.271" y="58.284" transform="matrix(0.9397 -0.342 0.342 0.9397 -17.565 18.9521)" fill="#CCCCCC" width="1.375" height="2"></rect>
		
			<rect x="59.377" y="52.786" transform="matrix(0.9397 -0.342 0.342 0.9397 -14.7736 23.7869)" fill="#CCCCCC" width="1.375" height="2"></rect>
		
			<rect x="74.482" y="47.288" transform="matrix(0.9397 -0.342 0.342 0.9397 -11.9822 28.6218)" fill="#CCCCCC" width="1.375" height="2"></rect>
		
			<rect x="93.112" y="40.508" transform="matrix(0.9397 -0.342 0.342 0.9397 -8.5396 34.5845)" fill="#CCCCCC" width="1.375" height="2"></rect>
	</g>
</g>
<g id="shadow">
</g>
<g id="hlight">
</g>
</svg>