<svg version="1.1" id="Layer_1" xmlns="http://www.w3.org/2000/svg" xmlns:xlink="http://www.w3.org/1999/xlink" x="0px" y="0px" viewBox="0 0 100 100" xml:space="preserve"><desc>Copyright Opto 22</desc> 
<g>
<g id="shape">
	<path fill="#999999" d="M3.4,61.4c-0.2,0-0.5,0-0.7-0.1c-1.8-0.4-2.9-2.2-2.5-3.9l5.2-16.1c0.4-1.5,1.7-2.5,3.2-2.5h88.1
		c0.2,0,0.5,0,0.7,0.1c1.8,0.4,2.9,2.2,2.5,3.9l-5.2,16.1c-0.4,1.5-1.7,2.5-3.2,2.5C91.2,61.4,3.4,61.4,3.4,61.4z"></path>
</g>
<g id="light">
	<path fill="#E6E6E6" d="M3.4,61.4c1.5,0,2.8-1,3.2-2.5C7,57.1,5.9,55.4,4.1,55c-0.2-0.1-0.5-0.1-0.7-0.1c-1.5,0-2.8,1-3.2,2.5
		c-0.4,1.8,0.7,3.5,2.5,3.9C2.9,61.4,3.1,61.4,3.4,61.4z"></path>
	<path fill="#E6E6E6" d="M91.5,61.4c1.5,0,2.8-1,3.2-2.5c0.4-1.8-0.7-3.5-2.5-3.9c-0.2-0.1-0.5-0.1-0.7-0.1c-1.5,0-2.8,1-3.2,2.5
		c-0.4,1.8,0.7,3.5,2.5,3.9C91,61.4,91.2,61.4,91.5,61.4z"></path>
	<g>
		<path fill="#E6E6E6" d="M9.9,58.6c0.7,0,1.4-0.5,1.6-1.3c0.2-0.9-0.3-1.8-1.2-2c-0.1,0-0.2,0-0.4,0c-0.7,0-1.4,0.5-1.6,1.3
			c-0.2,0.9,0.3,1.8,1.2,2C9.7,58.5,9.8,58.6,9.9,58.6z"></path>
		<path fill="#E6E6E6" d="M14.6,58.6c0.7,0,1.4-0.5,1.6-1.3c0.2-0.9-0.3-1.8-1.2-2c-0.1,0-0.2,0-0.4,0c-0.7,0-1.4,0.5-1.6,1.3
			c-0.2,0.9,0.3,1.8,1.2,2C14.4,58.5,14.5,58.6,14.6,58.6z"></path>
		<path fill="#E6E6E6" d="M19.3,58.6c0.7,0,1.4-0.5,1.6-1.3c0.2-0.9-0.3-1.8-1.2-2c-0.1,0-0.2,0-0.4,0c-0.7,0-1.4,0.5-1.6,1.3
			c-0.2,0.9,0.3,1.8,1.2,2C19.1,58.5,19.2,58.6,19.3,58.6z"></path>
		<path fill="#E6E6E6" d="M24,58.6c0.7,0,1.4-0.5,1.6-1.3c0.2-0.9-0.3-1.8-1.2-2c-0.1,0-0.2,0-0.4,0c-0.7,0-1.4,0.5-1.6,1.3
			c-0.2,0.9,0.3,1.8,1.2,2C23.8,58.5,23.9,58.6,24,58.6z"></path>
		<path fill="#E6E6E6" d="M28.7,58.6c0.7,0,1.4-0.5,1.6-1.3c0.2-0.9-0.3-1.8-1.2-2c-0.1,0-0.2,0-0.4,0c-0.7,0-1.4,0.5-1.6,1.3
			c-0.2,0.9,0.3,1.8,1.2,2C28.4,58.5,28.6,58.6,28.7,58.6z"></path>
		<path fill="#E6E6E6" d="M33.4,58.6c0.7,0,1.4-0.5,1.6-1.3c0.2-0.9-0.3-1.8-1.2-2c-0.1,0-0.2,0-0.4,0c-0.7,0-1.4,0.5-1.6,1.3
			c-0.2,0.9,0.3,1.8,1.2,2C33.1,58.5,33.3,58.6,33.4,58.6z"></path>
		<path fill="#E6E6E6" d="M38.1,58.6c0.7,0,1.4-0.5,1.6-1.3c0.2-0.9-0.3-1.8-1.2-2c-0.1,0-0.2,0-0.4,0c-0.7,0-1.4,0.5-1.6,1.3
			c-0.2,0.9,0.3,1.8,1.2,2C37.8,58.5,38,58.6,38.1,58.6z"></path>
		<path fill="#E6E6E6" d="M42.8,58.6c0.7,0,1.4-0.5,1.6-1.3c0.2-0.9-0.3-1.8-1.2-2c-0.1,0-0.2,0-0.4,0c-0.7,0-1.4,0.5-1.6,1.3
			c-0.2,0.9,0.3,1.8,1.2,2C42.5,58.5,42.7,58.6,42.8,58.6z"></path>
		<path fill="#E6E6E6" d="M47.5,58.6c0.7,0,1.4-0.5,1.6-1.3c0.2-0.9-0.3-1.8-1.2-2c-0.1,0-0.2,0-0.4,0c-0.7,0-1.4,0.5-1.6,1.3
			c-0.2,0.9,0.3,1.8,1.2,2C47.2,58.5,47.3,58.6,47.5,58.6z"></path>
		<path fill="#E6E6E6" d="M52.2,58.6c0.7,0,1.4-0.5,1.6-1.3c0.2-0.9-0.3-1.8-1.2-2c-0.1,0-0.2,0-0.4,0c-0.7,0-1.4,0.5-1.6,1.3
			c-0.2,0.9,0.3,1.8,1.2,2C51.9,58.5,52,58.6,52.2,58.6z"></path>
		<path fill="#E6E6E6" d="M56.9,58.6c0.7,0,1.4-0.5,1.6-1.3c0.2-0.9-0.3-1.8-1.2-2c-0.1,0-0.2,0-0.4,0c-0.7,0-1.4,0.5-1.6,1.3
			c-0.2,0.9,0.3,1.8,1.2,2C56.6,58.5,56.7,58.6,56.9,58.6z"></path>
		<path fill="#E6E6E6" d="M61.5,58.6c0.7,0,1.4-0.5,1.6-1.3c0.2-0.9-0.3-1.8-1.2-2c-0.1,0-0.2,0-0.4,0c-0.7,0-1.4,0.5-1.6,1.3
			c-0.2,0.9,0.3,1.8,1.2,2C61.3,58.5,61.4,58.6,61.5,58.6z"></path>
		<path fill="#E6E6E6" d="M66.2,58.6c0.7,0,1.4-0.5,1.6-1.3c0.2-0.9-0.3-1.8-1.2-2c-0.1,0-0.2,0-0.4,0c-0.7,0-1.4,0.5-1.6,1.3
			c-0.2,0.9,0.3,1.8,1.2,2C66,58.5,66.1,58.6,66.2,58.6z"></path>
		<path fill="#E6E6E6" d="M70.9,58.6c0.7,0,1.4-0.5,1.6-1.3c0.2-0.9-0.3-1.8-1.2-2c-0.1,0-0.2,0-0.4,0c-0.7,0-1.4,0.5-1.6,1.3
			c-0.2,0.9,0.3,1.8,1.2,2C70.7,58.5,70.8,58.6,70.9,58.6z"></path>
		<path fill="#E6E6E6" d="M75.6,58.6c0.7,0,1.4-0.5,1.6-1.3c0.2-0.9-0.3-1.8-1.2-2c-0.1,0-0.2,0-0.4,0c-0.7,0-1.4,0.5-1.6,1.3
			c-0.2,0.9,0.3,1.8,1.2,2C75.4,58.5,75.5,58.6,75.6,58.6z"></path>
		<path fill="#E6E6E6" d="M80.3,58.6c0.7,0,1.4-0.5,1.6-1.3c0.2-0.9-0.3-1.8-1.2-2c-0.1,0-0.2,0-0.4,0c-0.7,0-1.4,0.5-1.6,1.3
			c-0.2,0.9,0.3,1.8,1.2,2C80.1,58.5,80.2,58.6,80.3,58.6z"></path>
		<path fill="#E6E6E6" d="M85,58.6c0.7,0,1.4-0.5,1.6-1.3c0.2-0.9-0.3-1.8-1.2-2c-0.1,0-0.2,0-0.4,0c-0.7,0-1.4,0.5-1.6,1.3
			c-0.2,0.9,0.3,1.8,1.2,2C84.8,58.5,84.9,58.6,85,58.6z"></path>
	</g>
	<g>
		<path fill="#CCCCCC" d="M91.4,57.6c-0.2,0-0.3-0.1-0.5-0.1L3.3,57.6c-0.2,0-0.3-0.1-0.5-0.1c-1,0-1.8,0.7-2.1,1.6
			c-0.3,1.1,0.4,2.3,1.6,2.6c0.2,0,0.3,0.1,0.5,0.1c1,0,1.8-0.7,2.1-1.6h84c-0.1-0.3,0,0,0,0c0.2,0.8,0.8,1.4,1.6,1.6
			c0.2,0,0.3,0.1,0.5,0.1c1,0,1.8-0.7,2.1-1.6C93.2,59,92.5,57.9,91.4,57.6z"></path>
	</g>
	<polygon fill="#E6E6E6" points="3.4,54.9 91.5,54.9 96.6,38.7 8.5,38.7 	"></polygon>
</g>
<g id="dark">
	<g>
		<path fill="#808080" d="M90.9,60.7c0.5,0,0.9-0.3,1-0.8c0.1-0.6-0.2-1.1-0.8-1.3c-0.1,0-0.2,0-0.2,0c-0.5,0-0.9,0.3-1,0.8
			c-0.1,0.6,0.2,1.1,0.8,1.3C90.7,60.7,90.8,60.7,90.9,60.7z"></path>
	</g>
	<g>
		<path fill="#808080" d="M3,60.7c0.5,0,0.9-0.3,1-0.8c0.1-0.6-0.2-1.1-0.8-1.3c-0.1,0-0.2,0-0.2,0c-0.5,0-0.9,0.3-1,0.8
			c-0.1,0.6,0.2,1.1,0.8,1.3C2.8,60.7,2.9,60.7,3,60.7z"></path>
	</g>
	<g>
		<path fill="#CCCCCC" d="M10.1,56.3c0,0-0.1,0-0.1,0c-0.3,0-0.6,0.2-0.6,0.5c0,0,0,0.1,0,0.1l1.3,0C10.6,56.6,10.4,56.4,10.1,56.3z
			"></path>
		<path fill="#CCCCCC" d="M14.8,56.3c0,0-0.1,0-0.1,0c-0.3,0-0.6,0.2-0.6,0.5c0,0,0,0.1,0,0.1l1.3,0C15.3,56.6,15.1,56.4,14.8,56.3z
			"></path>
		<path fill="#CCCCCC" d="M19.5,56.3c0,0-0.1,0-0.1,0c-0.3,0-0.6,0.2-0.6,0.5c0,0,0,0.1,0,0.1l1.3,0C19.9,56.6,19.8,56.4,19.5,56.3z
			"></path>
		<path fill="#CCCCCC" d="M24.2,56.3c0,0-0.1,0-0.1,0c-0.3,0-0.6,0.2-0.6,0.5c0,0,0,0.1,0,0.1l1.3,0C24.6,56.6,24.4,56.4,24.2,56.3z
			"></path>
		<path fill="#CCCCCC" d="M28.8,56.3c0,0-0.1,0-0.1,0c-0.3,0-0.6,0.2-0.6,0.5c0,0,0,0.1,0,0.1l1.3,0C29.3,56.6,29.1,56.4,28.8,56.3z
			"></path>
		<path fill="#CCCCCC" d="M33.5,56.3c0,0-0.1,0-0.1,0c-0.3,0-0.6,0.2-0.6,0.5c0,0,0,0.1,0,0.1l1.3,0C34,56.6,33.8,56.4,33.5,56.3z"></path>
		<path fill="#CCCCCC" d="M38.2,56.3c0,0-0.1,0-0.1,0c-0.3,0-0.6,0.2-0.6,0.5c0,0,0,0.1,0,0.1l1.3,0C38.7,56.6,38.5,56.4,38.2,56.3z
			"></path>
		<path fill="#CCCCCC" d="M42.9,56.3c0,0-0.1,0-0.1,0c-0.3,0-0.6,0.2-0.6,0.5c0,0,0,0.1,0,0.1l1.3,0C43.4,56.6,43.2,56.4,42.9,56.3z
			"></path>
		<path fill="#CCCCCC" d="M47.6,56.3c0,0-0.1,0-0.1,0c-0.3,0-0.6,0.2-0.6,0.5c0,0,0,0.1,0,0.1l1.3,0C48.1,56.6,47.9,56.4,47.6,56.3z
			"></path>
		<path fill="#CCCCCC" d="M52.3,56.3c0,0-0.1,0-0.1,0c-0.3,0-0.6,0.2-0.6,0.5c0,0,0,0.1,0,0.1l1.3,0C52.8,56.6,52.6,56.4,52.3,56.3z
			"></path>
		<path fill="#CCCCCC" d="M57,56.3c0,0-0.1,0-0.1,0c-0.3,0-0.6,0.2-0.6,0.5c0,0,0,0.1,0,0.1l1.3,0C57.5,56.6,57.3,56.4,57,56.3z"></path>
		<path fill="#CCCCCC" d="M61.7,56.3c0,0-0.1,0-0.1,0c-0.3,0-0.6,0.2-0.6,0.5c0,0,0,0.1,0,0.1l1.3,0C62.2,56.6,62,56.4,61.7,56.3z"></path>
		<path fill="#CCCCCC" d="M66.4,56.3c0,0-0.1,0-0.1,0c-0.3,0-0.6,0.2-0.6,0.5c0,0,0,0.1,0,0.1l1.3,0C66.9,56.6,66.7,56.4,66.4,56.3z
			"></path>
		<path fill="#CCCCCC" d="M71.1,56.3c0,0-0.1,0-0.1,0c-0.3,0-0.6,0.2-0.6,0.5c0,0,0,0.1,0,0.1l1.3,0C71.6,56.6,71.4,56.4,71.1,56.3z
			"></path>
		<path fill="#CCCCCC" d="M75.8,56.3c0,0-0.1,0-0.1,0c-0.3,0-0.6,0.2-0.6,0.5c0,0,0,0.1,0,0.1l1.3,0C76.3,56.6,76.1,56.4,75.8,56.3z
			"></path>
		<path fill="#CCCCCC" d="M80.5,56.3c0,0-0.1,0-0.1,0c-0.3,0-0.6,0.2-0.6,0.5c0,0,0,0.1,0,0.1l1.3,0C80.9,56.6,80.8,56.3,80.5,56.3z
			"></path>
		<path fill="#CCCCCC" d="M85.2,56.3c0,0-0.1,0-0.1,0c-0.3,0-0.6,0.2-0.6,0.5c0,0,0,0.1,0,0.1l1.3,0C85.6,56.6,85.4,56.3,85.2,56.3z
			"></path>
	</g>
</g>
<g id="linear">
	<linearGradient class="linear" id="SVGID_1_" gradientUnits="userSpaceOnUse" x1="2.9496" y1="47.6726" x2="5.7286" y2="48.4695">
		<stop offset="0" style="stop-color:#808080"></stop>
		<stop offset="1" style="stop-color:#E6E6E6"></stop>
	</linearGradient>
	<path class="linear" fill="url(#SVGID_1_)" d="M8.5,38.7c-1.5,0-2.8,1-3.2,2.5L0.2,57.4c0.4-1.5,1.7-2.5,3.2-2.5"></path>
	<linearGradient class="linear" id="SVGID_2_" gradientUnits="userSpaceOnUse" x1="93.4116" y1="48.1037" x2="97.9274" y2="49.3986">
		<stop offset="0" style="stop-color:#E6E6E6"></stop>
		<stop offset="1" style="stop-color:#808080"></stop>
	</linearGradient>
	<path class="linear" fill="url(#SVGID_2_)" d="M91.5,54.9c0.2,0,0.5,0,0.7,0.1c1.8,0.4,2.9,2.2,2.5,3.9l5.2-16.1c0.4-1.8-0.7-3.5-2.5-3.9
		c-0.2-0.1-0.5-0.1-0.7-0.1"></path>
	<linearGradient class="linear" id="SVGID_3_" gradientUnits="userSpaceOnUse" x1="8.6847" y1="55.2485" x2="12.3323" y2="56.2944">
		<stop offset="0" style="stop-color:#333333"></stop>
		<stop offset="0.4815" style="stop-color:#E6E6E6"></stop>
		<stop offset="1" style="stop-color:#333333"></stop>
	</linearGradient>
	<path class="linear" fill="url(#SVGID_3_)" d="M12.3,54.9H8.9l-0.5,1.7c0.2-0.8,0.9-1.3,1.6-1.3c0.1,0,0.2,0,0.4,0c0.9,0.2,1.4,1.1,1.2,2
		L12.3,54.9z"></path>
	<linearGradient class="linear" id="SVGID_4_" gradientUnits="userSpaceOnUse" x1="13.3604" y1="55.3085" x2="17.008" y2="56.3545">
		<stop offset="0" style="stop-color:#333333"></stop>
		<stop offset="0.4815" style="stop-color:#E6E6E6"></stop>
		<stop offset="1" style="stop-color:#333333"></stop>
	</linearGradient>
	<path class="linear" fill="url(#SVGID_4_)" d="M13.6,54.9L13,56.6c0.2-0.8,0.9-1.3,1.6-1.3c0.1,0,0.2,0,0.4,0c0.9,0.2,1.4,1.1,1.2,2
		c-0.1,0.4-0.1,0.4,0,0l0.8-2.4H13.6z"></path>
	<linearGradient class="linear" id="SVGID_5_" gradientUnits="userSpaceOnUse" x1="18.0706" y1="55.2485" x2="21.7182" y2="56.2944">
		<stop offset="0" style="stop-color:#333333"></stop>
		<stop offset="0.4815" style="stop-color:#E6E6E6"></stop>
		<stop offset="1" style="stop-color:#333333"></stop>
	</linearGradient>
	<path class="linear" fill="url(#SVGID_5_)" d="M21.7,54.9h-3.4l-0.5,1.7c0.2-0.8,0.9-1.3,1.6-1.3c0.1,0,0.2,0,0.4,0c0.9,0.2,1.4,1.1,1.2,2
		L21.7,54.9z"></path>
	<linearGradient class="linear" id="SVGID_6_" gradientUnits="userSpaceOnUse" x1="22.7635" y1="55.2485" x2="26.4112" y2="56.2944">
		<stop offset="0" style="stop-color:#333333"></stop>
		<stop offset="0.4815" style="stop-color:#E6E6E6"></stop>
		<stop offset="1" style="stop-color:#333333"></stop>
	</linearGradient>
	<path class="linear" fill="url(#SVGID_6_)" d="M26.4,54.9h-3.4l-0.5,1.7c0.2-0.8,0.9-1.3,1.6-1.3c0.1,0,0.2,0,0.4,0c0.9,0.2,1.4,1.1,1.2,2
		L26.4,54.9z"></path>
	<linearGradient class="linear" id="SVGID_7_" gradientUnits="userSpaceOnUse" x1="27.4565" y1="55.2485" x2="31.1041" y2="56.2944">
		<stop offset="0" style="stop-color:#333333"></stop>
		<stop offset="0.4815" style="stop-color:#E6E6E6"></stop>
		<stop offset="1" style="stop-color:#333333"></stop>
	</linearGradient>
	<path class="linear" fill="url(#SVGID_7_)" d="M31.1,54.9h-3.4l-0.5,1.7c0.2-0.8,0.9-1.3,1.6-1.3c0.1,0,0.2,0,0.4,0c0.9,0.2,1.4,1.1,1.2,2
		L31.1,54.9z"></path>
	<linearGradient class="linear" id="SVGID_8_" gradientUnits="userSpaceOnUse" x1="32.1494" y1="55.2485" x2="35.7971" y2="56.2944">
		<stop offset="0" style="stop-color:#333333"></stop>
		<stop offset="0.4815" style="stop-color:#E6E6E6"></stop>
		<stop offset="1" style="stop-color:#333333"></stop>
	</linearGradient>
	<path class="linear" fill="url(#SVGID_8_)" d="M35.8,54.9h-3.4l-0.5,1.7c0.2-0.8,0.9-1.3,1.6-1.3c0.1,0,0.2,0,0.4,0c0.9,0.2,1.4,1.1,1.2,2
		L35.8,54.9z"></path>
	<linearGradient class="linear" id="SVGID_9_" gradientUnits="userSpaceOnUse" x1="36.8424" y1="55.2485" x2="40.4901" y2="56.2944">
		<stop offset="0" style="stop-color:#333333"></stop>
		<stop offset="0.4815" style="stop-color:#E6E6E6"></stop>
		<stop offset="1" style="stop-color:#333333"></stop>
	</linearGradient>
	<path class="linear" fill="url(#SVGID_9_)" d="M40.5,54.9H37l-0.5,1.7c0.2-0.8,0.9-1.3,1.6-1.3c0.1,0,0.2,0,0.4,0c0.9,0.2,1.4,1.1,1.2,2L40.5,54.9
		z"></path>
	<linearGradient class="linear" id="SVGID_10_" gradientUnits="userSpaceOnUse" x1="41.5354" y1="55.2485" x2="45.183" y2="56.2944">
		<stop offset="0" style="stop-color:#333333"></stop>
		<stop offset="0.4815" style="stop-color:#E6E6E6"></stop>
		<stop offset="1" style="stop-color:#333333"></stop>
	</linearGradient>
	<path class="linear" fill="url(#SVGID_10_)" d="M45.1,54.9h-3.4l-0.5,1.7c0.2-0.8,0.9-1.3,1.6-1.3c0.1,0,0.2,0,0.4,0c0.9,0.2,1.4,1.1,1.2,2
		L45.1,54.9z"></path>
	<linearGradient class="linear" id="SVGID_11_" gradientUnits="userSpaceOnUse" x1="46.2283" y1="55.2485" x2="49.876" y2="56.2944">
		<stop offset="0" style="stop-color:#333333"></stop>
		<stop offset="0.4815" style="stop-color:#E6E6E6"></stop>
		<stop offset="1" style="stop-color:#333333"></stop>
	</linearGradient>
	<path class="linear" fill="url(#SVGID_11_)" d="M49.8,54.9h-3.4l-0.5,1.7c0.2-0.8,0.9-1.3,1.6-1.3c0.1,0,0.2,0,0.4,0c0.9,0.2,1.4,1.1,1.2,2
		L49.8,54.9z"></path>
	<linearGradient class="linear" id="SVGID_12_" gradientUnits="userSpaceOnUse" x1="50.9213" y1="55.2485" x2="54.5689" y2="56.2944">
		<stop offset="0" style="stop-color:#333333"></stop>
		<stop offset="0.4815" style="stop-color:#E6E6E6"></stop>
		<stop offset="1" style="stop-color:#333333"></stop>
	</linearGradient>
	<path class="linear" fill="url(#SVGID_12_)" d="M54.5,54.9h-3.4l-0.5,1.7c0.2-0.8,0.9-1.3,1.6-1.3c0.1,0,0.2,0,0.4,0c0.9,0.2,1.4,1.1,1.2,2
		L54.5,54.9z"></path>
	<linearGradient class="linear" id="SVGID_13_" gradientUnits="userSpaceOnUse" x1="55.6142" y1="55.2485" x2="59.2619" y2="56.2944">
		<stop offset="0" style="stop-color:#333333"></stop>
		<stop offset="0.4815" style="stop-color:#E6E6E6"></stop>
		<stop offset="1" style="stop-color:#333333"></stop>
	</linearGradient>
	<path class="linear" fill="url(#SVGID_13_)" d="M59.2,54.9h-3.4l-0.5,1.7c0.2-0.8,0.9-1.3,1.6-1.3c0.1,0,0.2,0,0.4,0c0.9,0.2,1.4,1.1,1.2,2
		L59.2,54.9z"></path>
	<linearGradient class="linear" id="SVGID_14_" gradientUnits="userSpaceOnUse" x1="60.3072" y1="55.2485" x2="63.9549" y2="56.2944">
		<stop offset="0" style="stop-color:#333333"></stop>
		<stop offset="0.4815" style="stop-color:#E6E6E6"></stop>
		<stop offset="1" style="stop-color:#333333"></stop>
	</linearGradient>
	<path class="linear" fill="url(#SVGID_14_)" d="M63.9,54.9h-3.4L60,56.6c0.2-0.8,0.9-1.3,1.6-1.3c0.1,0,0.2,0,0.4,0c0.9,0.2,1.4,1.1,1.2,2
		L63.9,54.9z"></path>
	<linearGradient class="linear" id="SVGID_15_" gradientUnits="userSpaceOnUse" x1="65.0002" y1="55.2485" x2="68.6478" y2="56.2944">
		<stop offset="0" style="stop-color:#333333"></stop>
		<stop offset="0.4815" style="stop-color:#E6E6E6"></stop>
		<stop offset="1" style="stop-color:#333333"></stop>
	</linearGradient>
	<path class="linear" fill="url(#SVGID_15_)" d="M68.6,54.9h-3.4l-0.5,1.7c0.2-0.8,0.9-1.3,1.6-1.3c0.1,0,0.2,0,0.4,0c0.9,0.2,1.4,1.1,1.2,2
		L68.6,54.9z"></path>
	<linearGradient class="linear" id="SVGID_16_" gradientUnits="userSpaceOnUse" x1="69.6931" y1="55.2485" x2="73.3408" y2="56.2944">
		<stop offset="0" style="stop-color:#333333"></stop>
		<stop offset="0.4815" style="stop-color:#E6E6E6"></stop>
		<stop offset="1" style="stop-color:#333333"></stop>
	</linearGradient>
	<path class="linear" fill="url(#SVGID_16_)" d="M73.3,54.9h-3.4l-0.5,1.7c0.2-0.8,0.9-1.3,1.6-1.3c0.1,0,0.2,0,0.4,0c0.9,0.2,1.4,1.1,1.2,2
		L73.3,54.9z"></path>
	<linearGradient class="linear" id="SVGID_17_" gradientUnits="userSpaceOnUse" x1="74.3861" y1="55.2485" x2="78.0337" y2="56.2944">
		<stop offset="0" style="stop-color:#333333"></stop>
		<stop offset="0.4815" style="stop-color:#E6E6E6"></stop>
		<stop offset="1" style="stop-color:#333333"></stop>
	</linearGradient>
	<path class="linear" fill="url(#SVGID_17_)" d="M78,54.9h-3.4L74,56.6c0.2-0.8,0.9-1.3,1.6-1.3c0.1,0,0.2,0,0.4,0c0.9,0.2,1.4,1.1,1.2,2L78,54.9z"></path>
	<linearGradient class="linear" id="SVGID_18_" gradientUnits="userSpaceOnUse" x1="79.079" y1="55.2485" x2="82.7267" y2="56.2944">
		<stop offset="0" style="stop-color:#333333"></stop>
		<stop offset="0.4815" style="stop-color:#E6E6E6"></stop>
		<stop offset="1" style="stop-color:#333333"></stop>
	</linearGradient>
	<path class="linear" fill="url(#SVGID_18_)" d="M82.7,54.9h-3.4l-0.5,1.7c0.2-0.8,0.9-1.3,1.6-1.3c0.1,0,0.2,0,0.4,0c0.9,0.2,1.4,1.1,1.2,2
		L82.7,54.9z"></path>
	<linearGradient class="linear" id="SVGID_19_" gradientUnits="userSpaceOnUse" x1="83.772" y1="55.2485" x2="87.4197" y2="56.2944">
		<stop offset="0" style="stop-color:#333333"></stop>
		<stop offset="0.4815" style="stop-color:#E6E6E6"></stop>
		<stop offset="1" style="stop-color:#333333"></stop>
	</linearGradient>
	<path class="linear" fill="url(#SVGID_19_)" d="M87.4,54.9h-3.4l-0.5,1.7c0.2-0.8,0.9-1.3,1.6-1.3c0.1,0,0.2,0,0.4,0c0.9,0.2,1.4,1.1,1.2,2
		L87.4,54.9z"></path>
</g>
<g id="shadow">
	<g>
		<polygon fill="#4D4D4D" points="10.2,38.7 5,54.9 5.5,54.9 10.7,38.7 		"></polygon>
		<polygon fill="#4D4D4D" points="18.4,38.7 13.3,54.9 13.8,54.9 18.9,38.7 		"></polygon>
		<polygon fill="#4D4D4D" points="26.7,38.7 21.5,54.9 22,54.9 27.2,38.7 		"></polygon>
		<polygon fill="#4D4D4D" points="34.9,38.7 29.8,54.9 30.3,54.9 35.5,38.7 		"></polygon>
		<polygon fill="#4D4D4D" points="43.2,38.7 38,54.9 38.5,54.9 43.7,38.7 		"></polygon>
		<polygon fill="#4D4D4D" points="51.4,38.7 46.3,54.9 46.8,54.9 52,38.7 		"></polygon>
		<polygon fill="#4D4D4D" points="67.9,38.7 62.8,54.9 63.3,54.9 68.5,38.7 		"></polygon>
		<polygon fill="#4D4D4D" points="76.2,38.7 71,54.9 71.5,54.9 76.7,38.7 		"></polygon>
		<polygon fill="#4D4D4D" points="84.4,38.7 79.3,54.9 79.8,54.9 85,38.7 		"></polygon>
		<polygon fill="#4D4D4D" points="92.7,38.7 87.5,54.9 88,54.9 93.2,38.7 		"></polygon>
		<path fill="#4D4D4D" d="M99.4,40.3c-0.1-0.1-0.1-0.2-0.2-0.2l-5.2,16.1c0.1,0.1,0.1,0.2,0.2,0.2L99.4,40.3z"></path>
	</g>
	<polygon fill="#4D4D4D" points="59.7,38.7 54.5,54.9 55,54.9 60.2,38.7 	"></polygon>
	<g>
		<path d="M7.8,54.9H3.4c0.2,0,0.5,0,0.7,0.1c1.1,0.3,1.9,1,2.3,2l0.8,0L7.8,54.9z"></path>
		<path d="M91.5,54.9h-2.4l-0.6,2h0C89,55.7,90.2,54.9,91.5,54.9z"></path>
	</g>
	<g>
		<path d="M3.5,56.9l0.9,0c-0.2-0.2-0.4-0.3-0.7-0.4c-0.1,0-0.2,0-0.4,0c-0.5,0-0.9,0.2-1.2,0.5c0.3-0.1,0.5-0.2,0.8-0.2
			C3.2,56.9,3.4,56.9,3.5,56.9z"></path>
		<path d="M91.6,56.9c0.7,0.2,1.2,0.7,1.5,1.3c0-0.8-0.5-1.5-1.3-1.6c-0.1,0-0.2,0-0.4,0c-0.4,0-0.7,0.1-1,0.3l0.7,0
			C91.3,56.9,91.5,56.9,91.6,56.9z"></path>
	</g>
</g>
<g id="hlight">
	<path fill="#F2F2F2" d="M91.6,56.9c-0.2,0-0.3-0.1-0.5-0.1L3.5,56.9c-0.2,0-0.3-0.1-0.5-0.1c-1,0-1.8,0.7-2.1,1.6c0,0,0,0.1,0,0.1
		C1.3,58,2,57.5,2.8,57.5c0.2,0,0.3,0,0.5,0.1l87.6-0.1c0.2,0,0.3,0,0.5,0.1c1.1,0.3,1.8,1.4,1.6,2.5c0.1-0.2,0.2-0.4,0.2-0.6
		C93.5,58.3,92.8,57.2,91.6,56.9z"></path>
	<path fill="#E6E6E6" d="M9.3,59.1c0.3,0,0.6-0.2,0.6-0.5c0.1-0.4-0.1-0.7-0.5-0.8c0,0-0.1,0-0.1,0c-0.3,0-0.6,0.2-0.6,0.5
		c-0.1,0.4,0.1,0.7,0.5,0.8C9.2,59.1,9.3,59.1,9.3,59.1z"></path>
	<path fill="#E6E6E6" d="M14,59.1c0.3,0,0.6-0.2,0.6-0.5c0.1-0.4-0.1-0.7-0.5-0.8c0,0-0.1,0-0.1,0c-0.3,0-0.6,0.2-0.6,0.5
		c-0.1,0.4,0.1,0.7,0.5,0.8C13.9,59.1,14,59.1,14,59.1z"></path>
	<path fill="#E6E6E6" d="M18.7,59.1c0.3,0,0.6-0.2,0.6-0.5c0.1-0.4-0.1-0.7-0.5-0.8c0,0-0.1,0-0.1,0c-0.3,0-0.6,0.2-0.6,0.5
		c-0.1,0.4,0.1,0.7,0.5,0.8C18.6,59.1,18.7,59.1,18.7,59.1z"></path>
	<path fill="#E6E6E6" d="M23.4,59.1c0.3,0,0.6-0.2,0.6-0.5c0.1-0.4-0.1-0.7-0.5-0.8c0,0-0.1,0-0.1,0c-0.3,0-0.6,0.2-0.6,0.5
		c-0.1,0.4,0.1,0.7,0.5,0.8C23.3,59.1,23.4,59.1,23.4,59.1z"></path>
	<path fill="#E6E6E6" d="M28.1,59.1c0.3,0,0.6-0.2,0.6-0.5c0.1-0.4-0.1-0.7-0.5-0.8c0,0-0.1,0-0.1,0c-0.3,0-0.6,0.2-0.6,0.5
		c-0.1,0.4,0.1,0.7,0.5,0.8C28,59.1,28.1,59.1,28.1,59.1z"></path>
	<path fill="#E6E6E6" d="M32.8,59.1c0.3,0,0.6-0.2,0.6-0.5c0.1-0.4-0.1-0.7-0.5-0.8c0,0-0.1,0-0.1,0c-0.3,0-0.6,0.2-0.6,0.5
		c-0.1,0.4,0.1,0.7,0.5,0.8C32.7,59.1,32.8,59.1,32.8,59.1z"></path>
	<path fill="#E6E6E6" d="M37.5,59.1c0.3,0,0.6-0.2,0.6-0.5c0.1-0.4-0.1-0.7-0.5-0.8c0,0-0.1,0-0.1,0c-0.3,0-0.6,0.2-0.6,0.5
		c-0.1,0.4,0.1,0.7,0.5,0.8C37.4,59.1,37.4,59.1,37.5,59.1z"></path>
	<path fill="#E6E6E6" d="M42.2,59.1c0.3,0,0.6-0.2,0.6-0.5c0.1-0.4-0.1-0.7-0.5-0.8c0,0-0.1,0-0.1,0c-0.3,0-0.6,0.2-0.6,0.5
		c-0.1,0.4,0.1,0.7,0.5,0.8C42.1,59.1,42.1,59.1,42.2,59.1z"></path>
	<path fill="#E6E6E6" d="M46.9,59.1c0.3,0,0.6-0.2,0.6-0.5c0.1-0.4-0.1-0.7-0.5-0.8c0,0-0.1,0-0.1,0c-0.3,0-0.6,0.2-0.6,0.5
		c-0.1,0.4,0.1,0.7,0.5,0.8C46.8,59.1,46.8,59.1,46.9,59.1z"></path>
	<path fill="#E6E6E6" d="M51.6,59.1c0.3,0,0.6-0.2,0.6-0.5c0.1-0.4-0.1-0.7-0.5-0.8c0,0-0.1,0-0.1,0c-0.3,0-0.6,0.2-0.6,0.5
		c-0.1,0.4,0.1,0.7,0.5,0.8C51.5,59.1,51.5,59.1,51.6,59.1z"></path>
	<path fill="#E6E6E6" d="M56.3,59.1c0.3,0,0.6-0.2,0.6-0.5c0.1-0.4-0.1-0.7-0.5-0.8c0,0-0.1,0-0.1,0c-0.3,0-0.6,0.2-0.6,0.5
		c-0.1,0.4,0.1,0.7,0.5,0.8C56.2,59.1,56.2,59.1,56.3,59.1z"></path>
	<path fill="#E6E6E6" d="M61,59.1c0.3,0,0.6-0.2,0.6-0.5c0.1-0.4-0.1-0.7-0.5-0.8c0,0-0.1,0-0.1,0c-0.3,0-0.6,0.2-0.6,0.5
		c-0.1,0.4,0.1,0.7,0.5,0.8C60.9,59.1,60.9,59.1,61,59.1z"></path>
	<path fill="#E6E6E6" d="M65.7,59.1c0.3,0,0.6-0.2,0.6-0.5c0.1-0.4-0.1-0.7-0.5-0.8c0,0-0.1,0-0.1,0c-0.3,0-0.6,0.2-0.6,0.5
		c-0.1,0.4,0.1,0.7,0.5,0.8C65.6,59.1,65.6,59.1,65.7,59.1z"></path>
	<path fill="#E6E6E6" d="M70.3,59.1c0.3,0,0.6-0.2,0.6-0.5c0.1-0.4-0.1-0.7-0.5-0.8c0,0-0.1,0-0.1,0c-0.3,0-0.6,0.2-0.6,0.5
		c-0.1,0.4,0.1,0.7,0.5,0.8C70.2,59.1,70.3,59.1,70.3,59.1z"></path>
	<path fill="#E6E6E6" d="M75,59.1c0.3,0,0.6-0.2,0.6-0.5c0.1-0.4-0.1-0.7-0.5-0.8c0,0-0.1,0-0.1,0c-0.3,0-0.6,0.2-0.6,0.5
		c-0.1,0.4,0.1,0.7,0.5,0.8C74.9,59.1,75,59.1,75,59.1z"></path>
	<path fill="#E6E6E6" d="M79.7,59.1c0.3,0,0.6-0.2,0.6-0.5c0.1-0.4-0.1-0.7-0.5-0.8c0,0-0.1,0-0.1,0c-0.3,0-0.6,0.2-0.6,0.5
		c-0.1,0.4,0.1,0.7,0.5,0.8C79.6,59.1,79.7,59.1,79.7,59.1z"></path>
	<path fill="#E6E6E6" d="M84.4,59.1c0.3,0,0.6-0.2,0.6-0.5c0.1-0.4-0.1-0.7-0.5-0.8c0,0-0.1,0-0.1,0c-0.3,0-0.6,0.2-0.6,0.5
		c-0.1,0.4,0.1,0.7,0.5,0.8C84.3,59.1,84.4,59.1,84.4,59.1z"></path>
</g>
</g>
</svg>