<svg version="1.1" id="Layer_1" xmlns="http://www.w3.org/2000/svg" xmlns:xlink="http://www.w3.org/1999/xlink" x="0px" y="0px" viewBox="0 0 100 100" xml:space="preserve"><desc>Copyright Opto 22</desc> 
<g>
<g id="shape">
	<path fill="#61B8DE" d="M100,17.194l-1.702-0.197H94.61v-0.986l-1.775-0.197h-2.724l0.003-1.476l-1.742-0.263l-2.958,0.033v1.312
		H70.15c0.185-1.169,0.28-2.583,0.284-4.289l0.659,0.03V6.625l-3.418-0.723L65.692,5.93V2.669c0,0-4.602-0.92-12.359-0.92
		S42.027,2.537,42.027,2.537l0.131,9.992l6.804,6.35v1.933h-0.493v1.183l-1.052,0.394l0.45,0.14l-3.149,0.121
		c-6.773,0.209-11.962,6.264-11.591,13.524c0.031,0.606,0.113,1.195,0.217,1.777l-0.257-0.475l-2.684,0.581l0.309,10.779
		l-2.914,0.85c-0.652-0.652-1.518-1.057-2.44-1.056c-0.228,0-0.448,0.025-0.659,0.072l-8.132,2.289
		c-1.4,0.433-2.344,1.808-2.29,3.458L3.173,57.818L3.877,72.51c-2.005,1.467-3.495,4.134-3.815,7.297
		c-0.448,4.435,1.552,8.375,4.622,9.557l0.028,0.585l-3.246,1.794v2.465l0.92,0.066v-1.676l3.09,0.263v1.709H6.2l4.961-3.193
		l9.018,0.881l0.067,1.655l13.673,1.139l1.634-1.293l2.053,0.201l-1.955,1.465v2.465l0.92,0.066v-1.676l3.09,0.263v1.709h0.723
		l4.189-3.611L65.654,96.7l33.623-40.854l0.263-14.593L99.473,41.3L100,17.194z M52.019,22.183l-0.887-0.341v-0.937l0.887,0.828
		V22.183z M66.097,10.931l2.498,0.115c-0.001,1.793-0.106,3.247-0.309,4.373h-4.83c0.001-0.253,0.003-0.503,0.005-0.75l2.232-2.14
		v-1.612L66.097,10.931z"></path>
</g>
<g id="dark">
	<polygon fill="#187AA0" points="92.609,43.281 92.835,15.814 90.103,15.816 90.056,43.169 	"></polygon>
	<path fill="#187AA0" d="M79.457,29.255c-0.39-3.55-3.095-6.363-6.427-6.815l0.02-4.063h-1.311l-0.023,4.72
		c3.332,0.452,6.037,3.265,6.427,6.815l6.22,0.089l0.003-0.676L79.457,29.255z"></path>
	<ellipse fill="#187AA0" cx="67.543" cy="62.466" rx="0.345" ry="0.621"></ellipse>
	<ellipse fill="#187AA0" cx="67.543" cy="72.918" rx="0.345" ry="0.621"></ellipse>
	<ellipse fill="#187AA0" cx="67.543" cy="78.637" rx="0.345" ry="0.621"></ellipse>
	<ellipse fill="#187AA0" cx="67.543" cy="87.314" rx="0.345" ry="0.621"></ellipse>
	<ellipse fill="#187AA0" cx="80.91" cy="62.168" rx="0.224" ry="0.403"></ellipse>
	<ellipse fill="#187AA0" cx="80.91" cy="66.227" rx="0.224" ry="0.403"></ellipse>
	<ellipse fill="#187AA0" cx="80.91" cy="72.387" rx="0.224" ry="0.403"></ellipse>
	<ellipse fill="#187AA0" cx="89.017" cy="55.988" rx="0.187" ry="0.336"></ellipse>
	<ellipse fill="#187AA0" cx="89.017" cy="59.37" rx="0.187" ry="0.336"></ellipse>
	<ellipse fill="#187AA0" cx="89.017" cy="64.502" rx="0.187" ry="0.336"></ellipse>
	<polygon fill="#187AA0" points="88.437,48.192 86.395,48.139 86.334,46.483 85.413,46.319 85.413,14.107 88.372,14.074 	"></polygon>
	<path fill="#187AA0" d="M21.388,54.641c0.132,1.598-0.68,2.966-1.943,3.528c-0.394,0.175-0.833,0.272-1.3,0.273
		c-1.964,0.002-3.696-1.695-3.869-3.792c-0.143-1.74,0.832-3.207,2.289-3.658c0.299-0.093,0.619-0.142,0.954-0.143
		C19.484,50.846,21.216,52.544,21.388,54.641z"></path>
	<path fill="#187AA0" d="M53.776,56.042c0.115,1.671-0.696,3.115-1.959,3.767c-0.452,0.234-0.962,0.365-1.508,0.37
		c-2.071,0.016-3.876-1.811-4.031-4.081c-0.125-1.817,0.846-3.367,2.302-3.92c0.362-0.137,0.753-0.213,1.166-0.216
		C51.815,51.946,53.62,53.773,53.776,56.042z"></path>
	<path fill="#187AA0" d="M67.674,5.902l-4.667,0.066v1.359c0.11-0.113,0.226-0.216,0.354-0.301c0.43-0.285,1.158-0.534,2.178-0.096
		l-0.725,1.692c-0.146-0.063-0.341-0.124-0.436-0.061c-0.119,0.079-0.495,0.486-0.722,2.292l2.44,0.078l4.996,0.23V6.625
		L67.674,5.902z"></path>
	<path fill="#187AA0" d="M88.116,58.334l-6.326,6.078c-0.104,0.1-0.19,0.3-0.19,0.445v6.212c0,0.145,0.082,0.178,0.183,0.074
		l6.34-6.557c0.101-0.104,0.183-0.307,0.183-0.452v-5.719C88.306,58.27,88.221,58.233,88.116,58.334z M84.21,62.648
		c0.129,0.03,0.203,0.184,0.166,0.345c-0.037,0.161-0.171,0.267-0.3,0.238s-0.203-0.184-0.166-0.345
		C83.947,62.725,84.081,62.618,84.21,62.648z M82.272,64.655c-0.129-0.03-0.203-0.184-0.166-0.345
		c0.037-0.161,0.171-0.267,0.3-0.238s0.203,0.184,0.166,0.345C82.536,64.578,82.401,64.685,82.272,64.655z M82.837,66.408
		c-0.129-0.03-0.203-0.184-0.166-0.345c0.037-0.161,0.171-0.267,0.3-0.238c0.129,0.03,0.203,0.184,0.166,0.345
		C83.1,66.331,82.966,66.438,82.837,66.408z M84.166,65.082c-0.192,0.422-0.51,0.705-0.827,0.724
		c-0.058-0.137-0.163-0.241-0.3-0.272c-0.072-0.017-0.145-0.01-0.215,0.013c-0.132-0.179-0.209-0.436-0.217-0.726
		c0.093-0.086,0.166-0.206,0.199-0.349c0.038-0.167,0.016-0.329-0.049-0.456c0.204-0.5,0.581-0.827,0.942-0.794
		c0.055,0.151,0.164,0.267,0.31,0.301c0.05,0.011,0.1,0.01,0.149,0.002c0.129,0.199,0.198,0.478,0.188,0.789
		c-0.097,0.086-0.174,0.21-0.209,0.359C84.102,64.819,84.117,64.963,84.166,65.082z M84.535,65.071
		c-0.129-0.03-0.203-0.184-0.166-0.345c0.037-0.161,0.171-0.267,0.3-0.238c0.129,0.03,0.203,0.184,0.166,0.345
		C84.798,64.994,84.664,65.1,84.535,65.071z M86.98,61.46l-0.986,0.986v-1.928l0.986-0.986V61.46z"></path>
	<path fill="#187AA0" d="M96.26,39.745l-0.822,0.329c0,0.066-0.003,0.131-0.008,0.196L96.26,39.745z"></path>
	<path fill="#187AA0" d="M31.66,64.526c0.286,0.361,0.735,0.537,1.373,0.537c1.884,0,3.656,0.161,5.371,0.318
		c2.154,0.196,4.188,0.381,6.43,0.275l0.316-0.015c3.514-0.167,4.254-0.204,6.286-1.035c-0.357-1.165-0.143-2.69,1.046-4.203
		l-20.818-1.091C31.263,61.099,30.841,63.493,31.66,64.526z"></path>
	<path fill="#187AA0" d="M59.963,38.695c0.003,0.017,0.005,0.034,0.008,0.051c0.865,5.058,0.643,10.394,0.155,15.053l5.906,0.244
		l-0.033-15.218L59.963,38.695z"></path>
	<path fill="#187AA0" d="M62.789,37.966l4.933,0.088c0.506-1.18,0.818-2.469,0.892-3.825l-8.966,2.194
		c0.078,0.708,0.176,1.44,0.304,2.207L62.789,37.966z"></path>
	<path fill="#187AA0" d="M65.999,38.825l-6.036-0.13c0.003,0.017,0.005,0.034,0.008,0.051c0.312,1.822,0.478,3.681,0.546,5.531
		l1.248-0.456c1.656-0.625,3.104-1.666,4.239-2.997L65.999,38.825z"></path>
	<path fill="#187AA0" d="M48.579,52.178l5.59-2.161c0.386-0.157,0.809-0.244,1.257-0.247c1.224-0.009,2.346,0.617,3.082,1.576
		c0.247-3.113,0.321-6.4-0.003-9.664c-1.71,3.164-4.644,5.625-8.179,6.712c-1.172,0.36-2.408,0.571-3.685,0.607
		c-6.751,0.193-12.309-4.539-13.205-10.878l-3.034-0.065l0.416,14.528l16.304,0.675C47.508,52.775,48.003,52.396,48.579,52.178z"></path>
	<path fill="#187AA0" d="M59.211,60.755c-0.353,2.394-0.736,5.029-0.604,6.015c0.078-0.048,0.176-0.114,0.294-0.204
		c0.404-0.307,0.982-0.229,1.29,0.176c0.307,0.405,0.229,0.982-0.176,1.29c-0.264,0.201-0.934,0.71-1.659,0.71
		c-0.24,0-0.485-0.056-0.724-0.197c-1.288-0.761-0.985-3.012-0.267-7.886l-3.186-0.167c-1.75,1.659-1.769,3.111-1.407,3.939
		c0.079,0.065,0.148,0.142,0.191,0.242c0.019,0.045,0.02,0.091,0.029,0.137c0.005,0.007,0.01,0.016,0.016,0.022
		c0.245,0.308,0.497,0.385,0.564,0.341c0.302-0.201,0.71-0.12,0.912,0.182c0.201,0.302,0.12,0.71-0.182,0.912
		c-0.237,0.158-0.501,0.234-0.774,0.234c-0.499,0-1.019-0.265-1.443-0.741c-2.372,0.979-3.229,1.02-6.872,1.193l-0.316,0.015
		c-0.467,0.022-0.928,0.032-1.382,0.032c-1.818,0-3.546-0.157-5.229-0.311c-1.685-0.154-3.428-0.312-5.252-0.312
		c-1.05,0-1.859-0.348-2.403-1.035c-1.145-1.444-0.75-4.032-0.296-6.101l-27.16-1.424l1.578,32.933l15.428,1.507l0.067,1.655
		l13.673,1.139l-0.089-1.461l0.046,0.004L33.13,68.669l-13.936-0.876l3.681-1.446l13.586,0.833l0.712,25.298l-1.62,1.282
		l30.101,2.94l0.23-35.595L59.211,60.755z M14.111,67.4l-0.573,0.247l0.056,4.229c0.008,0.581-0.457,0.558-1.038,0.566
		c-0.005,0-0.01,0-0.014,0c-0.574,0-1.044,0.038-1.051-0.538l-0.066-4.93c-0.006-0.425,0.245-0.811,0.634-0.979l1.216-0.526
		c0.533-0.23,1.152,0.015,1.383,0.548C14.89,66.55,14.644,67.169,14.111,67.4z M41.329,69.124l-0.441,0.25l0.087,4.534
		c0.011,0.581-0.451,0.561-1.032,0.572c-0.007,0-0.014,0-0.021,0c-0.572,0-1.04,0.042-1.051-0.532l-0.099-5.16
		c-0.007-0.386,0.197-0.745,0.533-0.935l0.986-0.559c0.506-0.287,1.147-0.109,1.434,0.396
		C42.012,68.196,41.834,68.838,41.329,69.124z"></path>
	<path fill="#187AA0" d="M94.617,17.131c1.009,0,1.827,0.87,1.84,1.948l-0.722,0.015c-0.004-0.81-0.465-1.501-1.119-1.801
		l-0.253,20.602c0.114-0.033,0.231-0.056,0.354-0.056c0.578,0,1.081,0.392,1.346,0.972l-0.773,0.444
		c-0.183-0.473-0.52-0.836-0.93-0.996l-0.047,3.853l3.725,0.197l0.263-25.312L94.617,17.131z"></path>
	<path fill="#187AA0" d="M50.798,24.148c0.265,0.148,0.525,0.303,0.779,0.47C51.324,24.452,51.064,24.295,50.798,24.148z"></path>
	<path fill="#187AA0" d="M59.611,23.529c0.189-0.367,0.382-0.714,0.58-1.031c-0.083-0.021-0.167-0.036-0.251-0.055v0.241
		l-0.657,0.099l-1.479-0.592v-0.018c-0.173-0.004-0.345-0.009-0.52-0.003l-4.819,0.185l0.179,0.069v0.625l-0.888-0.033l-1.444-0.578
		l-5.594,0.214c2.179-0.067,4.254,0.483,6.081,1.497c-0.037-0.021-0.072-0.046-0.109-0.066L59.611,23.529z"></path>
	<path fill="#187AA0" d="M57.847,36.864l-0.198,0.048c0.002-0.038-0.001-0.078,0-0.116c-0.249,5.41-3.581,9.946-8.244,11.539
		l9.3-3.397c-0.051-1.962-0.216-3.937-0.549-5.883C58.026,38.296,57.929,37.571,57.847,36.864z"></path>
	<polygon fill="#187AA0" points="66.087,37.148 66.087,38.025 68.563,38.069 68.585,52.695 66.592,53.747 70.896,53.747 
		70.9,53.044 70.973,37.148 	"></polygon>
	<path fill="#187AA0" d="M83.427,43.663L72.926,43.24l0.026-5.322c-0.032,0.009-0.065,0.013-0.096,0.022v6.008l9.256,0.373
		c0.639,0.026,1.219-0.238,1.622-0.67C83.634,43.661,83.531,43.667,83.427,43.663z"></path>
</g>
<g id="linear">
	<linearGradient class="linear" id="SVGID_1_" gradientUnits="userSpaceOnUse" x1="27.2012" y1="52.8758" x2="27.408" y2="53.5183">
		<stop offset="0" style="stop-color:#A5DAF2"></stop>
		<stop offset="0.3763" style="stop-color:#FFFFFF"></stop>
		<stop offset="1" style="stop-color:#0C4054"></stop>
	</linearGradient>
	<path class="linear" fill="url(#SVGID_1_)" d="M26.247,53.19c0.248,0.178,0.535,0.297,0.844,0.32c0.188,0.014,0.367-0.007,0.535-0.057l0.74-0.238
		C27.761,53.118,27.051,53.111,26.247,53.19z"></path>
	<linearGradient class="linear" id="SVGID_2_" gradientUnits="userSpaceOnUse" x1="31.5635" y1="48.438" x2="32.6514" y2="51.8165">
		<stop offset="0" style="stop-color:#A5DAF2"></stop>
		<stop offset="0.3763" style="stop-color:#FFFFFF"></stop>
		<stop offset="1" style="stop-color:#0C4054"></stop>
	</linearGradient>
	<path class="linear" fill="url(#SVGID_2_)" d="M34.364,47.83c-0.143,0-0.28,0.021-0.409,0.06l-6.17,1.8c0.596,0.598,1.017,1.399,1.129,2.293
		c-0.135-0.029-0.285-0.042-0.428-0.063c0.743,0.11,1.393,0.315,1.922,0.639l4.588-1.474c0.663-0.176,1.113-0.828,1.049-1.606
		C35.971,48.567,35.218,47.829,34.364,47.83z"></path>
	<linearGradient class="linear" id="SVGID_3_" gradientUnits="userSpaceOnUse" x1="61.0123" y1="49.4725" x2="62.1673" y2="52.1675">
		<stop offset="0" style="stop-color:#A5DAF2"></stop>
		<stop offset="0.3763" style="stop-color:#FFFFFF"></stop>
		<stop offset="1" style="stop-color:#187AA0"></stop>
	</linearGradient>
	<path class="linear" fill="url(#SVGID_3_)" d="M62.163,48.822c-0.191,0.001-0.371,0.038-0.535,0.105l-1.159,0.521
		c-0.069,1.346-0.172,2.664-0.299,3.933l2.826-1.426c0.542-0.252,0.893-0.835,0.845-1.512
		C63.776,49.542,63.025,48.816,62.163,48.822z"></path>
	<linearGradient class="linear" id="SVGID_4_" gradientUnits="userSpaceOnUse" x1="4.3781" y1="71.2322" x2="2.7807" y2="89.3924">
		<stop offset="0.0106" style="stop-color:#A5DAF2"></stop>
		<stop offset="0.7725" style="stop-color:#0C4054"></stop>
	</linearGradient>
	<path class="linear" fill="url(#SVGID_4_)" d="M6.076,89.698c-3.834-0.387-6.526-4.815-6.013-9.89c0.513-5.075,4.036-8.875,7.87-8.487"></path>
	<linearGradient class="linear" id="SVGID_5_" gradientUnits="userSpaceOnUse" x1="25.0381" y1="72.4517" x2="23.3727" y2="91.3841">
		<stop offset="0.0106" style="stop-color:#A5DAF2"></stop>
		<stop offset="0.7725" style="stop-color:#0C4054"></stop>
	</linearGradient>
	<path class="linear" fill="url(#SVGID_5_)" d="M41.94,83.372c0.538-5.29,2.523-9.444,4.435-9.277L8.619,71.225
		c-2.544-0.161-5.111,3.859-5.734,8.98s0.934,9.403,3.477,9.564l38.066,3.483C42.517,93.086,41.403,88.662,41.94,83.372z"></path>
	<linearGradient class="linear" id="SVGID_6_" gradientUnits="userSpaceOnUse" x1="70.6641" y1="27.4651" x2="71.8002" y2="33.9979">
		<stop offset="0.1293" style="stop-color:#A5DAF2"></stop>
		<stop offset="1" style="stop-color:#0C4054"></stop>
	</linearGradient>
	<path class="linear" fill="url(#SVGID_6_)" d="M75.25,30.933c-0.005-0.082-0.011-0.164-0.021-0.245c0-0.002,0-0.003-0.001-0.005
		c-0.009-0.08-0.02-0.159-0.033-0.237c-0.325-1.962-1.918-3.51-3.894-3.848c-0.153-0.026-0.309-0.045-0.466-0.056
		c-0.001,0-0.002,0-0.003,0c-0.073-0.005-0.146-0.008-0.22-0.01c-0.007,0-0.013-0.001-0.02-0.001
		c-0.08-0.002-0.161-0.001-0.241,0.001l-3.787,0.437c1.19,1.715,1.943,3.779,2.059,6.022c0.062,1.197-0.064,2.354-0.344,3.445
		l3.483-0.948c1.654-0.373,2.936-1.612,3.352-3.192c0.004-0.016,0.008-0.032,0.012-0.048c0.012-0.048,0.024-0.097,0.034-0.146
		c0.005-0.025,0.01-0.05,0.015-0.074c0.008-0.043,0.016-0.087,0.023-0.13c0.004-0.024,0.008-0.047,0.011-0.071
		c0.01-0.065,0.018-0.13,0.025-0.196c0.001-0.009,0.001-0.018,0.002-0.027c0.006-0.059,0.01-0.119,0.013-0.179
		c0.001-0.022,0.002-0.044,0.003-0.066c0.002-0.05,0.003-0.1,0.003-0.15c0-0.021,0-0.043,0-0.064
		C75.256,31.074,75.254,31.004,75.25,30.933z"></path>
	<linearGradient class="linear" id="SVGID_7_" gradientUnits="userSpaceOnUse" x1="65.4051" y1="7.1391" x2="42.0463" y2="7.1391">
		<stop offset="0" style="stop-color:#A5DAF2"></stop>
		<stop offset="1" style="stop-color:#0C4054"></stop>
	</linearGradient>
	<path class="linear" fill="url(#SVGID_7_)" d="M63.656,10.853l2.036,0.065v1.612c0,0-0.803-0.037-2.168-0.084c0.02-0.375,0.041-0.746,0.073-1.085
		C63.615,11.173,63.636,11.016,63.656,10.853z M53.334,1.749c-7.757,0-11.307,0.789-11.307,0.789l0.131,9.992
		c0,0,2.515-0.156,6.804-0.228V2.275l1.315-0.033l0.855,0.263v9.771c0.662-0.005,1.348-0.009,2.071-0.009
		c3.263,0,6.247,0.06,8.485,0.122c0.128-2.481,0.467-4.189,1.321-5.062V5.968l2.685-0.038V2.669
		C65.692,2.669,61.091,1.749,53.334,1.749z"></path>
	<linearGradient class="linear" id="SVGID_8_" gradientUnits="userSpaceOnUse" x1="21.7043" y1="49.1433" x2="24.8936" y2="56.534">
		<stop offset="0" style="stop-color:#56A3C4"></stop>
		<stop offset="0.3763" style="stop-color:#29ABE2"></stop>
		<stop offset="1" style="stop-color:#187AA0"></stop>
	</linearGradient>
	<path class="linear" fill="url(#SVGID_8_)" d="M25.065,53.352c-0.357,0.066-0.699-0.172-0.764-0.529c-0.065-0.357,0.172-0.699,0.529-0.764
		c1.621-0.295,2.98-0.313,4.085-0.075c-0.236-1.867-1.79-3.355-3.558-3.353c-0.228,0-0.448,0.025-0.659,0.072l-8.132,2.289
		c0.299-0.093,0.619-0.142,0.954-0.143c1.964-0.002,3.696,1.695,3.869,3.792c0.132,1.598-0.68,2.966-1.943,3.528l7.313-2.605
		l-2.481-1.489l2.813-0.763l1.324,0.972c0.189-0.296,0.349-0.614,0.437-0.973C27.899,53.059,26.622,53.069,25.065,53.352z"></path>
	<linearGradient class="linear" id="SVGID_9_" gradientUnits="userSpaceOnUse" x1="58.2238" y1="50.5238" x2="58.5303" y2="51.2392">
		<stop offset="0" style="stop-color:#A5DAF2"></stop>
		<stop offset="0.3763" style="stop-color:#FFFFFF"></stop>
		<stop offset="1" style="stop-color:#187AA0"></stop>
	</linearGradient>
	<path class="linear" fill="url(#SVGID_9_)" d="M58.506,51.344c0.028-0.35,0.059-0.697,0.082-1.052l-0.778,0.349
		C58.067,50.849,58.303,51.08,58.506,51.344z"></path>
	<linearGradient class="linear" id="SVGID_10_" gradientUnits="userSpaceOnUse" x1="52.6983" y1="50.7103" x2="56.1965" y2="57.6192">
		<stop offset="0" style="stop-color:#56A3C4"></stop>
		<stop offset="0.3763" style="stop-color:#29ABE2"></stop>
		<stop offset="1" style="stop-color:#187AA0"></stop>
	</linearGradient>
	<path class="linear" fill="url(#SVGID_10_)" d="M55.426,49.77c-0.448,0.003-0.871,0.09-1.257,0.247l-5.59,2.161
		c0.362-0.137,0.753-0.213,1.166-0.216c2.071-0.016,3.876,1.811,4.031,4.081c0.115,1.671-0.696,3.115-1.959,3.767l2.216-1.063
		c1.718-1.961,2.314-4.014,1.906-4.659c-0.235-0.372-1.036-0.111-1.37,0.019c-0.338,0.132-0.719-0.036-0.851-0.374
		c-0.132-0.338,0.036-0.719,0.374-0.851c1.843-0.716,2.644,0.008,2.958,0.504c0.599,0.948,0.323,2.545-0.587,4.195l0.921-0.442
		c0.188-0.087,0.362-0.196,0.528-0.315c0.231-1.725,0.446-3.567,0.598-5.474C57.774,50.388,56.651,49.761,55.426,49.77z"></path>
</g>
<g id="radial">
	<radialGradient class="radial" id="SVGID_11_" cx="47.1542" cy="77.6098" r="9.1845" gradientUnits="userSpaceOnUse">
		<stop offset="0.1293" style="stop-color:#A5DAF2"></stop>
		<stop offset="1" style="stop-color:#0C4054"></stop>
	</radialGradient>
	<path class="radial" fill="url(#SVGID_11_)" d="M46.763,74.045c3.934,0.397,6.687,5.03,6.149,10.348c-0.537,5.318-4.162,9.306-8.095,8.909
		l-0.388-0.049c-1.912-0.167-3.026-4.59-2.488-9.881s2.523-9.444,4.435-9.277L46.763,74.045z"></path>
</g>
<g id="light">
	<path fill="#A5DAF2" d="M69.143,26.671c0.621-0.62,1.391-1.081,2.267-1.291c-0.07-0.008-0.14-0.016-0.211-0.022
		c-0.001,0-0.002,0-0.004,0c-0.079-0.006-0.158-0.01-0.238-0.012c-0.007,0-0.014-0.001-0.021-0.001
		c-0.087-0.002-0.174-0.002-0.261,0.001c-0.083,0.003-0.165,0.007-0.246,0.014c-0.064,0.005-0.128,0.013-0.191,0.021
		c-0.015,0.002-0.03,0.003-0.045,0.005c-0.156,0.021-0.31,0.049-0.462,0.085c-0.942,0.22-1.768,0.724-2.413,1.412L69.143,26.671z"></path>
	<path fill="#A5DAF2" d="M71.94,35.684c-0.038-0.007-0.075-0.014-0.113-0.022c-0.034-0.007-0.068-0.014-0.102-0.021
		c-0.041-0.009-0.081-0.019-0.122-0.029c-0.029-0.007-0.058-0.015-0.087-0.023c-0.021-0.006-0.042-0.012-0.064-0.018l-0.926,0.252
		c0.047,0.005,0.093,0.01,0.14,0.014c0.029,0.002,0.058,0.004,0.087,0.006c0.052,0.003,0.104,0.006,0.157,0.008
		c0.025,0.001,0.05,0.002,0.076,0.002c0.077,0.001,0.155,0.001,0.233-0.001c0.075-0.002,0.148-0.007,0.222-0.013
		c0.071-0.006,0.141-0.013,0.211-0.021c0.185-0.022,0.366-0.055,0.543-0.098c-0.017-0.002-0.034-0.003-0.051-0.006
		C72.076,35.706,72.008,35.696,71.94,35.684z"></path>
	<path fill="#A5DAF2" d="M58.704,25.667l-5.201,0.489c1.264,1.226,2.301,2.721,3.024,4.402l1.197-0.189
		C57.898,28.547,58.251,26.991,58.704,25.667z"></path>
	<g>
		<path fill="#A5DAF2" d="M61.361,25.417l-0.624,0.059c-0.496,1.219-0.898,2.704-1.116,4.488
			C60.6,29.414,61.105,27.646,61.361,25.417z"></path>
		<path fill="#A5DAF2" d="M63.236,25.241c-0.178,1.732-0.495,3.26-1.053,4.424l5.429-0.856c-0.395-1.375-1.424-2.664-2.68-3.727
			L63.236,25.241z"></path>
	</g>
	<polygon fill="#A5DAF2" points="37.75,26.57 37.622,26.682 38.25,26.927 38.37,27.665 37.955,28.031 37.991,28.045 38.535,27.566 
		38.414,26.828 	"></polygon>
	<polygon fill="#A5DAF2" points="37.001,42.821 36.977,42.892 37.532,42.784 37.991,43.354 37.778,43.988 37.918,43.961 
		38.155,43.255 37.696,42.685 	"></polygon>
	<polygon fill="#A5DAF2" points="56.277,33.161 56.416,33.895 56.007,34.276 56.049,34.291 56.58,33.796 56.441,33.062 
		55.771,32.822 55.649,32.936 	"></polygon>
	<polygon fill="#A5DAF2" points="34.948,31.143 34.92,31.218 35.482,31.125 35.927,31.708 35.7,32.331 35.836,32.308 36.091,31.609 
		35.646,31.026 	"></polygon>
	<polygon fill="#A5DAF2" points="34.841,37.376 34.719,37.49 35.347,37.715 35.486,38.45 35.077,38.83 35.119,38.845 35.65,38.351 
		35.511,37.617 	"></polygon>
	<polygon fill="#A5DAF2" points="41.532,46.073 41.403,46.186 42.03,46.435 42.146,47.173 41.729,47.537 41.764,47.55 
		42.311,47.075 42.194,46.336 	"></polygon>
	<polygon fill="#A5DAF2" points="51.949,44.115 51.822,44.228 52.449,44.472 52.569,45.21 52.154,45.576 52.19,45.591 
		52.734,45.111 52.613,44.373 	"></polygon>
	<polygon fill="#A5DAF2" points="52.972,27.838 52.948,27.909 53.503,27.801 53.962,28.371 53.749,29.005 53.889,28.978 
		54.127,28.272 53.668,27.702 	"></polygon>
	<polygon fill="#A5DAF2" points="55.054,39.359 55.026,39.435 55.588,39.342 56.033,39.924 55.806,40.547 55.942,40.525 
		56.197,39.826 55.752,39.243 	"></polygon>
	<polygon fill="#A5DAF2" points="46.637,46.731 46.608,46.808 47.172,46.718 47.613,47.303 47.383,47.924 47.519,47.902 
		47.777,47.205 47.336,46.619 	"></polygon>
	<polygon fill="#A5DAF2" points="43.043,24.094 43.014,24.171 43.578,24.081 44.019,24.667 43.789,25.287 43.925,25.265 
		44.183,24.568 43.742,23.982 	"></polygon>
	<polygon fill="#A5DAF2" points="48.797,24.445 48.668,24.558 49.295,24.807 49.411,25.546 48.994,25.909 49.029,25.923 
		49.576,25.447 49.459,24.708 	"></polygon>
	<polygon fill="#A5DAF2" points="42.745,28.159 42.721,28.224 43.198,28.148 43.572,28.644 43.377,29.17 43.492,29.152 
		43.712,28.561 43.338,28.064 	"></polygon>
	<polygon fill="#A5DAF2" points="45.134,43.074 45.11,43.139 45.588,43.063 45.961,43.559 45.766,44.085 45.882,44.066 
		46.101,43.476 45.727,42.979 	"></polygon>
	<polygon fill="#A5DAF2" points="49.968,40.441 49.944,40.505 50.421,40.426 50.797,40.92 50.605,41.448 50.721,41.429 
		50.937,40.836 50.56,40.343 	"></polygon>
	<polygon fill="#A5DAF2" points="50.765,31.743 50.175,31.858 50.155,31.919 50.626,31.827 51.015,32.31 50.834,32.848 
		50.953,32.825 51.154,32.227 	"></polygon>
	<path fill="#A5DAF2" d="M60.083,58.371c-0.092-0.199-0.226-0.665-0.362-1.187c-0.073,0.549-0.148,1.076-0.221,1.591L60.083,58.371z
		"></path>
	
		<ellipse transform="matrix(0.9041 -0.4274 0.4274 0.9041 -27.2434 11.7372)" fill="#A5DAF2" cx="12.523" cy="66.554" rx="0.887" ry="0.604"></ellipse>
	
		<ellipse transform="matrix(0.9041 -0.4274 0.4274 0.9041 -25.4363 23.5583)" fill="#A5DAF2" cx="39.759" cy="68.439" rx="0.887" ry="0.604"></ellipse>
	<polygon fill="#A5DAF2" points="78.774,44.807 60.772,53.822 60.772,59.278 61.298,59.294 61.298,54.578 66.765,54.731 
		66.765,56.924 66.765,59.458 67.313,59.475 84.493,48.554 84.493,44.807 	"></polygon>
	<polygon fill="#A5DAF2" points="71.093,11.161 71.093,6.625 67.674,5.902 67.674,10.689 	"></polygon>
	<path fill="#A5DAF2" d="M53.065,35.707c-0.238-4.661-3.957-8.331-8.305-8.197c-0.844,0.026-1.648,0.195-2.396,0.482
		c-0.083,0.024-0.162,0.056-0.244,0.082c0.649-0.212,1.333-0.345,2.049-0.367c4.349-0.134,8.067,3.536,8.305,8.197
		c0.193,3.764-1.944,7.02-5.062,8.207c0.005-0.002,0.011-0.003,0.016-0.005C50.855,43.119,53.269,39.698,53.065,35.707z"></path>
	<path fill="#A5DAF2" d="M43.895,29.398c-0.755,0.023-2.973,0.542-3.366,0.639c-0.004,0.001-0.008,0.003-0.011,0.004
		c0.397-0.099,0.809-0.158,1.234-0.171c3.46-0.107,6.419,2.813,6.609,6.522c0.175,3.415-2.062,6.302-5.118,6.823
		c0.031-0.005,0.064-0.005,0.096-0.01c0.428-0.08,2.299-0.48,2.789-0.631c2.67-0.825,4.538-3.519,4.378-6.653
		C50.314,32.212,47.355,29.292,43.895,29.398z"></path>
	<path fill="#A5DAF2" d="M69.143,26.671c0.621-0.62,1.391-1.081,2.267-1.291c-0.07-0.008-0.14-0.016-0.211-0.022
		c-0.001,0-0.002,0-0.004,0c-0.079-0.006-0.158-0.01-0.238-0.012c-0.007,0-0.014-0.001-0.021-0.001
		c-0.087-0.002-0.174-0.002-0.261,0.001c-0.083,0.003-0.165,0.008-0.246,0.014c-0.064,0.005-0.128,0.013-0.191,0.021
		c-0.015,0.002-0.03,0.003-0.045,0.005c-0.156,0.021-0.31,0.049-0.462,0.085c-0.942,0.22-1.768,0.724-2.413,1.412L69.143,26.671z"></path>
	<path fill="#A5DAF2" d="M71.94,35.684c-0.038-0.007-0.076-0.014-0.113-0.022c-0.034-0.007-0.068-0.014-0.102-0.021
		c-0.041-0.009-0.081-0.019-0.122-0.029c-0.029-0.007-0.058-0.015-0.087-0.023c-0.021-0.006-0.042-0.012-0.064-0.018l-0.926,0.252
		c0.047,0.005,0.093,0.01,0.14,0.014c0.029,0.002,0.058,0.004,0.087,0.006c0.052,0.003,0.104,0.006,0.157,0.008
		c0.025,0.001,0.051,0.002,0.076,0.002c0.077,0.001,0.155,0.001,0.233-0.001c0.075-0.002,0.148-0.007,0.222-0.013
		c0.071-0.006,0.141-0.013,0.211-0.021c0.185-0.022,0.366-0.055,0.543-0.098c-0.017-0.002-0.034-0.003-0.051-0.006
		C72.076,35.706,72.008,35.696,71.94,35.684z"></path>
</g>
<g id="shadow">
	<path fill="#0C4054" d="M79.251,32.104l-1.167-0.028c-0.351,2.112-1.554,3.915-3.243,5C77,36.272,78.646,34.415,79.251,32.104z"></path>
	<path fill="#0C4054" d="M75.972,30.444c-0.005-0.095-0.012-0.19-0.022-0.284c0-0.002,0-0.004-0.001-0.006
		c-0.01-0.092-0.022-0.184-0.036-0.275c-0.351-2.272-2.074-4.065-4.21-4.457c-0.097-0.018-0.195-0.032-0.293-0.044
		c-0.877,0.211-1.651,0.669-2.269,1.292l1.21-0.14c0.081-0.002,0.161-0.003,0.241-0.001c0.007,0,0.013,0.001,0.02,0.001
		c0.074,0.002,0.147,0.005,0.22,0.01c0.001,0,0.002,0,0.003,0c0.157,0.011,0.313,0.03,0.466,0.056
		c1.976,0.338,3.569,1.886,3.894,3.848c0.013,0.078,0.024,0.158,0.033,0.237c0,0.002,0,0.003,0.001,0.005
		c0.009,0.081,0.016,0.163,0.021,0.245c0.004,0.07,0.006,0.14,0.006,0.21c0,0.021,0,0.043,0,0.064c0,0.05-0.001,0.1-0.003,0.15
		c-0.001,0.022-0.002,0.044-0.003,0.066c-0.003,0.06-0.008,0.12-0.013,0.179c-0.001,0.009-0.001,0.018-0.002,0.027
		c-0.007,0.066-0.015,0.131-0.025,0.196c-0.003,0.024-0.008,0.047-0.011,0.071c-0.007,0.044-0.015,0.087-0.023,0.13
		c-0.005,0.025-0.01,0.05-0.015,0.074c-0.01,0.049-0.022,0.098-0.034,0.146c-0.004,0.016-0.008,0.032-0.012,0.048
		c-0.415,1.58-1.698,2.819-3.352,3.192l-0.309,0.084c0.021,0.006,0.042,0.012,0.064,0.018c0.029,0.008,0.058,0.016,0.087,0.023
		c0.04,0.01,0.081,0.02,0.122,0.029c0.034,0.007,0.068,0.014,0.102,0.021c0.038,0.008,0.075,0.015,0.113,0.022
		c0.068,0.012,0.135,0.022,0.204,0.031c0.017,0.002,0.034,0.004,0.051,0.006c1.791-0.431,3.18-1.866,3.63-3.698
		c0.005-0.019,0.008-0.037,0.013-0.056c0.013-0.056,0.026-0.112,0.037-0.169c0.006-0.029,0.011-0.057,0.016-0.086
		c0.009-0.05,0.018-0.1,0.025-0.151c0.004-0.027,0.009-0.055,0.012-0.082c0.01-0.075,0.02-0.151,0.027-0.227
		c0.001-0.01,0.001-0.021,0.002-0.031c0.006-0.069,0.011-0.138,0.014-0.208c0.001-0.025,0.002-0.051,0.003-0.077
		c0.002-0.058,0.003-0.115,0.004-0.174c0-0.025,0-0.049,0-0.074C75.978,30.607,75.976,30.526,75.972,30.444z"></path>
	<path fill="#0C4054" d="M58.461,47.37c0.084-0.076,0.169-0.139,0.253-0.208c0.003-0.183,0.005-0.367,0.006-0.551L58.461,47.37z"></path>
	<path fill="#0C4054" d="M63.396,40.49l-2.569-0.055l-0.464,1.361c0.13,1.434,0.189,2.874,0.192,4.301
		c1.82-0.659,3.296-0.173,3.296-0.173l0.059-4.902C63.914,40.733,63.685,40.496,63.396,40.49z"></path>
	<path fill="#0C4054" d="M49.411,25.546l-0.546,0.476l-0.662-0.263l-0.116-0.739l0.546-0.476l0.662,0.263L49.411,25.546z
		 M42.03,46.435l-0.662-0.263l-0.546,0.476l0.116,0.739l0.662,0.263l0.546-0.476L42.03,46.435z M43.578,24.081l-0.699,0.111
		L42.62,24.89l0.441,0.586l0.699-0.111l0.259-0.697L43.578,24.081z M47.172,46.718l-0.699,0.111l-0.259,0.697l0.441,0.586
		l0.699-0.111l0.259-0.697L47.172,46.718z M37.586,26.668l-0.543,0.479l0.12,0.738l0.664,0.259l0.543-0.479l-0.12-0.738
		L37.586,26.668z M51.785,44.213l-0.543,0.479l0.12,0.738l0.664,0.259l0.543-0.479l-0.12-0.738L51.785,44.213z M34.783,31.241
		l-0.254,0.699l0.444,0.583l0.699-0.116l0.254-0.699l-0.444-0.583L34.783,31.241z M54.889,39.458l-0.254,0.699l0.444,0.583
		l0.699-0.116l0.254-0.699l-0.444-0.583L54.889,39.458z M34.146,37.969l0.139,0.734l0.67,0.24l0.531-0.494l-0.139-0.734l-0.67-0.24
		L34.146,37.969z M55.076,33.415l0.139,0.734l0.67,0.24l0.531-0.494l-0.139-0.734l-0.67-0.24L55.076,33.415z M36.599,43.625
		l0.459,0.57l0.696-0.135l0.237-0.706l-0.459-0.57l-0.696,0.135L36.599,43.625z M52.571,28.642l0.459,0.57l0.696-0.135l0.237-0.706
		l-0.459-0.57l-0.696,0.135L52.571,28.642z"></path>
	<path fill="#0C4054" d="M43.198,28.148l-0.593,0.095l-0.219,0.591l0.374,0.496l0.593-0.095l0.219-0.591L43.198,28.148z
		 M45.588,43.063l-0.593,0.095l-0.219,0.591l0.374,0.496l0.593-0.095l0.219-0.591L45.588,43.063z M49.828,40.525l-0.216,0.592
		l0.377,0.494l0.592-0.098l0.216-0.592l-0.377-0.494L49.828,40.525z M49.835,32.54l0.389,0.483l0.59-0.115l0.201-0.598l-0.389-0.483
		l-0.59,0.115L49.835,32.54z"></path>
	<polygon fill="#0C4054" points="67.85,75.498 67.762,75.4 80.176,64.227 80.176,74.443 80.045,74.443 80.045,64.522 	"></polygon>
	<polygon fill="#0C4054" points="80.023,76.032 67.533,89.87 67.533,90.733 79.497,77.478 79.497,78.07 80.023,78.037 	"></polygon>
	<polygon fill="#0C4054" points="89.193,65.67 81.075,74.714 81.075,75.308 88.93,66.557 88.93,67.076 89.193,67.157 	"></polygon>
	<polygon fill="#0C4054" points="85.413,46.319 85.413,16.079 84.888,16.737 84.888,45.793 	"></polygon>
	<path fill="#0C4054" d="M18.09,57.944c-1.701,0-3.206-1.473-3.355-3.285c-0.121-1.475,0.702-2.786,2.002-3.188
		c0.267-0.083,0.548-0.125,0.834-0.125c1.704,0,3.209,1.473,3.359,3.284c0.112,1.359-0.555,2.566-1.699,3.075
		c-0.355,0.158-0.738,0.238-1.138,0.239H18.09z M17.575,51.609c-0.264,0-0.519,0.039-0.76,0.113
		c-1.181,0.366-1.929,1.565-1.818,2.916c0.138,1.678,1.526,3.043,3.093,3.043v0.131l0.003-0.131c0.363-0.001,0.71-0.073,1.031-0.216
		c1.04-0.463,1.646-1.567,1.544-2.813C20.53,52.974,19.142,51.609,17.575,51.609z"></path>
	<path fill="#0C4054" d="M50.245,59.719c-1.826,0-3.423-1.622-3.56-3.616c-0.108-1.578,0.718-2.98,2.055-3.488
		c0.331-0.126,0.682-0.191,1.044-0.194l0.023,0c1.826,0,3.423,1.622,3.56,3.616c0.099,1.436-0.587,2.751-1.748,3.351
		c-0.418,0.216-0.873,0.327-1.351,0.331L50.245,59.719z M49.807,52.684l-0.021,0c-0.33,0.003-0.65,0.062-0.952,0.177
		c-1.228,0.467-1.986,1.762-1.886,3.224c0.128,1.858,1.607,3.371,3.297,3.371l0.022,0c0.436-0.003,0.851-0.105,1.232-0.302
		c1.067-0.551,1.697-1.768,1.606-3.099C52.977,54.196,51.498,52.684,49.807,52.684z"></path>
	<path fill="#0C4054" d="M45.051,68.729v-1.242c0,0-0.526,0.131-0.526-0.92c0-1.052,0.394-1.315,0.394-1.315v-1.19
		c0-0.143,0.114-0.259,0.256-0.263l0.789-0.02c0.148-0.004,0.27,0.115,0.27,0.263v1.177c0,0-0.394,0.263-0.394,1.315
		s0.526,0.92,0.526,0.92v1.256c0,0.143-0.114,0.259-0.256,0.263l-0.789,0.02C45.172,68.995,45.051,68.876,45.051,68.729z"></path>
	<path fill="#0C4054" d="M37.074,68.466v-1.242c0,0-0.526,0.131-0.526-0.92c0-1.052,0.394-1.315,0.394-1.315v-1.19
		c0-0.143,0.114-0.259,0.256-0.263l0.789-0.02c0.148-0.004,0.27,0.115,0.27,0.263v1.177c0,0-0.394,0.263-0.394,1.315
		c0,1.052,0.526,0.92,0.526,0.92v1.256c0,0.143-0.114,0.259-0.256,0.263l-0.789,0.02C37.196,68.732,37.074,68.613,37.074,68.466z"></path>
	<path fill="#0C4054" d="M28.409,61.345l1.242,0.131c0,0-0.131,0.526,0.92,0.526c1.052,0,1.315-0.394,1.315-0.394l1.19,0.066
		c0.143,0,0.259-0.114,0.263-0.256l0.02-0.789c0.004-0.148-0.115-0.27-0.263-0.27l-1.177-0.066c0,0-0.263,0.394-1.315,0.394
		s-0.92-0.526-0.92-0.526l-1.256-0.131c-0.143,0-0.259,0.114-0.263,0.256l-0.02,0.789C28.143,61.223,28.261,61.345,28.409,61.345z"></path>
	<polyline fill="#0C4054" points="61.298,59.294 61.298,54.578 66.765,54.731 66.765,56.168 	"></polyline>
	<polyline fill="#0C4054" points="38.082,94.044 38.017,91.152 38.543,90.757 41.567,91.02 41.632,94.439 	"></polyline>
	<polyline fill="#0C4054" points="4.852,90.593 4.622,87.7 5.148,87.306 8.172,87.569 8.402,90.987 	"></polyline>
	<path fill="#0C4054" d="M51.263,64.199c0,0,0.173,1.155,1.282,2.005c0.986,0.756-1.446,0.493-1.446,0.493s0.657-1.578-0.789-1.709
		L51.263,64.199z"></path>
	<path fill="#0C4054" d="M97.819,45.699l-8.286,6.612v0.379l8.147-6.696C97.765,45.924,97.819,45.818,97.819,45.699z"></path>
	<path fill="#0C4054" d="M90.419,50.164l-0.329,0.164v0.608c0.072-0.048,0.159-0.076,0.252-0.076c0.253,0,0.459,0.205,0.459,0.459
		c0,0.207-0.137,0.379-0.325,0.437l-0.386,0.3v0.292l1.01,0.046l0.329-0.164v-2.042L90.419,50.164z"></path>
	<path fill="#0C4054" d="M97.385,44.708l-0.164,0.131v0.537c0.061-0.04,0.134-0.064,0.212-0.064c0.213,0,0.386,0.173,0.386,0.386
		c0,0.213-0.173,0.386-0.386,0.386c-0.031,0-0.062-0.005-0.091-0.012l-0.121,0.094v0.371l0.849,0.039l0.164-0.131v-1.717
		L97.385,44.708z"></path>
	<path fill="#0C4054" d="M97.819,48.657l-8.286,7.598v0.379l8.147-7.682C97.765,48.882,97.819,48.776,97.819,48.657z"></path>
	<path fill="#0C4054" d="M90.419,54.109l-0.329,0.164v0.608c0.072-0.048,0.159-0.076,0.252-0.076c0.253,0,0.459,0.205,0.459,0.459
		c0,0.207-0.137,0.379-0.325,0.437L90.09,56v0.292l1.01,0.046l0.329-0.164v-2.042L90.419,54.109z"></path>
	<path fill="#0C4054" d="M97.385,47.666l-0.164,0.131v0.537c0.061-0.04,0.134-0.064,0.212-0.064c0.213,0,0.386,0.173,0.386,0.386
		c0,0.213-0.173,0.386-0.386,0.386c-0.031,0-0.062-0.005-0.091-0.012l-0.121,0.094v0.371l0.849,0.039l0.164-0.131v-1.717
		L97.385,47.666z"></path>
	<polygon fill="#0C4054" points="89.982,48.817 99.35,41.816 99.087,55.653 98.824,55.653 99.12,42.177 89.982,49.014 	"></polygon>
	<path fill="#0C4054" d="M86.103,65.799c-0.1-0.477-0.485-0.799-0.859-0.721c-0.303,0.064-0.507,0.371-0.52,0.739
		c0.048-0.126,0.137-0.223,0.258-0.263c0.247-0.08,0.53,0.109,0.632,0.423s-0.015,0.634-0.262,0.715
		c-0.074,0.024-0.151,0.021-0.226,0.001c0.145,0.102,0.313,0.146,0.479,0.111C85.98,66.726,86.203,66.276,86.103,65.799z"></path>
	<polygon fill="#0C4054" points="85.68,66.043 81.601,69.853 81.601,70.488 85.675,66.48 	"></polygon>
	<polygon fill="#0C4054" points="85.994,60.518 85.994,62.446 84.14,62.327 	"></polygon>
	<path fill="#0C4054" d="M96.456,19.079l-0.722,0.015c0,0.003,0,0.006,0,0.01c0,0.842-0.493,1.558-1.186,1.841l-0.002,0.131h0.07
		c1.017,0,1.841-0.883,1.841-1.972C96.457,19.095,96.456,19.087,96.456,19.079z"></path>
	<polygon fill="#0C4054" points="92.609,43.281 90.056,43.169 90.055,43.662 92.609,43.774 94.281,42.929 94.281,42.436 	"></polygon>
	<path fill="#0C4054" d="M95.43,40.269c-0.048,0.574-0.302,1.071-0.67,1.379c0.832-0.03,1.5-0.87,1.5-1.904L95.43,40.269z"></path>
	<path fill="#0C4054" d="M84.41,20.492c0.006-1.166-0.938-2.114-2.104-2.114H73.05l-0.02,4.063c3.332,0.452,6.037,3.265,6.427,6.815
		l4.909,0.07l-0.003,0.676L84.41,20.492z"></path>
	<path fill="#0C4054" d="M82.565,44.288c-0.146,0.026-0.298,0.038-0.453,0.032C82.267,44.327,82.418,44.314,82.565,44.288z"></path>
	<path fill="#0C4054" d="M83.473,43.878c0.081-0.062,0.159-0.127,0.23-0.2C83.632,43.751,83.554,43.816,83.473,43.878z"></path>
	<path fill="#0C4054" d="M82.99,44.164c-0.098,0.04-0.201,0.067-0.305,0.092C82.789,44.231,82.892,44.204,82.99,44.164z"></path>
	<path fill="#0C4054" d="M83.374,43.956c-0.085,0.058-0.176,0.105-0.269,0.15C83.198,44.061,83.289,44.014,83.374,43.956z"></path>
	<path fill="#0C4054" d="M72.74,37.966c-0.357,0.086-0.722,0.152-1.1,0.18C72.017,38.118,72.383,38.052,72.74,37.966z"></path>
	<path fill="#0C4054" d="M78.084,32.076c-0.475,2.856-2.507,5.146-5.195,5.856c0.021-0.006,0.043-0.009,0.064-0.014l-0.026,5.322
		l10.501,0.423c0.102,0.004,0.201-0.002,0.299-0.012c0.35-0.373,0.571-0.868,0.574-1.422l0.05-10.004L78.084,32.076z"></path>
	<path fill="#0C4054" d="M79.251,32.104l-1.167-0.028c-0.351,2.112-1.554,3.915-3.243,5C77,36.272,78.646,34.415,79.251,32.104z"></path>
	<path fill="#0C4054" d="M48.962,12.302c-4.289,0.071-6.804,0.228-6.804,0.228l6.804,6.35V12.302z"></path>
	<path fill="#0C4054" d="M65.692,12.53c0,0-0.803-0.037-2.168-0.084c-0.037,0.693-0.056,1.439-0.064,2.224L65.692,12.53z"></path>
	<path fill="#0C4054" d="M61.687,12.389c-2.238-0.063-5.222-0.122-8.485-0.122c-0.723,0-1.409,0.003-2.071,0.009v8.629l0.887,0.828
		v0.45l0.625,0.24v0.198c0.291,0.089,0.687,0.164,1.216,0.164c1.315,0,2.235-0.296,2.235-0.296v-0.756l5.519-5.292
		C61.611,14.917,61.626,13.569,61.687,12.389z"></path>
	<path fill="#0C4054" d="M33.941,40.225l-1.174-0.054c-0.379-0.017-0.694,0.288-0.688,0.668l0.087,5.217
		c0,0,2.498-1.578,4.602,0.263l-0.671-2.206C35.19,42.963,34.453,41.655,33.941,40.225z"></path>
	<path fill="#0C4054" d="M51.439,64.604c-0.227-0.739-0.224-1.622,0.113-2.557l-3.082-0.149v3.524
		C49.537,65.295,50.281,65.077,51.439,64.604z"></path>
	<path fill="#0C4054" d="M58.607,66.769c0.078-0.048,0.176-0.114,0.294-0.204c0.404-0.307,0.982-0.229,1.29,0.176
		c0.307,0.405,0.229,0.982-0.176,1.29c-0.264,0.201-0.934,0.71-1.659,0.71c-0.24,0-0.485-0.056-0.724-0.197
		c-1.132-0.669-1.035-2.489-0.507-6.228l-4.189-0.202c-0.471,0.963-0.401,1.773-0.163,2.316c0.079,0.065,0.148,0.142,0.191,0.242
		c0.019,0.045,0.02,0.091,0.029,0.137c0.005,0.007,0.01,0.016,0.016,0.022c0.245,0.308,0.497,0.385,0.564,0.341
		c0.302-0.201,0.71-0.12,0.912,0.182c0.201,0.302,0.12,0.71-0.182,0.912c-0.237,0.158-0.501,0.234-0.774,0.234
		c-0.499,0-1.019-0.265-1.443-0.741c-1.442,0.595-2.327,0.844-3.615,0.986v2.088l14.988,0.953v-7.165l-4.486-0.216
		C58.71,64.263,58.505,66.008,58.607,66.769z"></path>
	<g>
		<path fill="#0C4054" d="M60.297,18.377c-1.126,0-2.037,0.887-2.093,1.999l0.258-0.026v1.183l1.479,0.526v0.387
			c0.083,0.019,0.168,0.03,0.251,0.051c0.199-0.319,0.4-0.62,0.601-0.891c0.267-0.36,0.543-0.681,0.821-0.982
			c0.009-0.762,0.01-1.517,0.007-2.247H60.297z"></path>
		<path fill="#0C4054" d="M63.462,19.034c0.483-0.313,0.937-0.534,1.327-0.657H63.46C63.461,18.597,63.461,18.815,63.462,19.034z"></path>
	</g>
	<path fill="#0C4054" d="M69.207,18.377c-0.043,0.073-0.083,0.154-0.128,0.222c-0.961,1.411-2.248,1.445-3.099,1.468
		c-0.182,0.005-0.354,0.009-0.492,0.027c-0.269,0.034-1.094,0.412-2.043,1.295c-0.016,0.857-0.046,1.693-0.097,2.501
		c0.755,0.482,1.46,1.044,2.083,1.697c1.078-1.303,2.577-2.218,4.312-2.477l0.024-4.733H69.207z"></path>
	<path fill="#0C4054" d="M44.817,93.301l-0.388-0.049l-5.238-0.479l-3.54,2.652v2.465l0.92,0.066v-1.676l3.09,0.263v1.709h0.723
		l5.79-4.99C45.728,93.329,45.275,93.348,44.817,93.301z"></path>
	<path fill="#0C4054" d="M52.965,82.581c0.023,0.592,0.009,1.196-0.053,1.812c-0.147,1.452-0.53,2.8-1.081,3.992l4.264-3.675v-1.972
		L52.965,82.581z"></path>
	<path fill="#0C4054" d="M6.362,89.77c-0.2-0.013-0.391-0.059-0.578-0.121c-0.128-0.02-0.25-0.055-0.375-0.084l-3.943,2.179v2.465
		l0.92,0.066v-1.676l3.09,0.263v1.709H6.2l6.551-4.216L6.362,89.77z"></path>
	<path fill="#0C4054" d="M58.244,39.642c-0.852,3.033-2.735,5.65-5.373,7.291l0.069,0.112c2.589-1.611,4.454-4.153,5.349-7.104
		C58.275,39.841,58.26,39.741,58.244,39.642z"></path>
	<path fill="#0C4054" d="M57.709,30.558c0.007-0.081,0.011-0.167,0.019-0.247c-0.566-1.319-1.322-2.55-2.264-3.63
		c-2.014-2.307-4.708-3.803-7.588-4.214l-0.018,0.13C52.314,23.233,55.991,26.344,57.709,30.558z"></path>
	<path fill="#0C4054" d="M24.278,54.076c0,2.63-2.268,3.287-2.268,3.287l6.212,0.23v-1.15L24.278,54.076z"></path>
	<path fill="#0C4054" d="M49.749,51.726l4.42-1.708c0.386-0.157,0.809-0.244,1.257-0.247c0.401-0.003,0.786,0.078,1.156,0.2
		c0.104-0.429,0.268-0.88,0.531-1.318l-6.604,1.515l-6.642-0.047l-5.785-1.567c0,0,0.657,1.15,0,2.597L49.749,51.726z"></path>
	<path fill-rule="evenodd" clip-rule="evenodd" fill="#0C4054" d="M34.455,47.501c-0.166,0-0.325,0.025-0.473,0.071
		c-0.299,0.092-0.541,0.286-0.736,0.525l0.71-0.207c0.128-0.039,0.265-0.06,0.409-0.06c0.854-0.001,1.607,0.737,1.682,1.649
		c0.064,0.777-0.386,1.43-1.049,1.606l-0.488,0.157c0.085,0.013,0.169,0.027,0.256,0.027c0.232,0,0.449-0.048,0.645-0.135
		c0.627-0.279,1.029-0.958,0.964-1.75C36.288,48.342,35.429,47.5,34.455,47.501z"></path>
	<path fill-rule="evenodd" clip-rule="evenodd" fill="#0C4054" d="M62.204,48.469c-0.201,0.002-0.392,0.039-0.568,0.105
		c-0.357,0.136-0.654,0.396-0.853,0.733l0.846-0.38c0.164-0.067,0.344-0.104,0.535-0.105c0.862-0.006,1.613,0.72,1.678,1.622
		c0.049,0.676-0.303,1.26-0.845,1.512l-0.928,0.468c0.133,0.032,0.27,0.052,0.41,0.051c0.266-0.002,0.515-0.066,0.735-0.18
		c0.615-0.318,1.011-1.022,0.955-1.836C64.093,49.352,63.213,48.461,62.204,48.469z"></path>
	<path fill="#0C4054" d="M75.972,30.444c-0.005-0.095-0.012-0.19-0.022-0.284c0-0.002,0-0.004-0.001-0.006
		c-0.01-0.092-0.022-0.184-0.036-0.275c-0.351-2.272-2.074-4.065-4.21-4.457c-0.1-0.018-0.203-0.027-0.305-0.04
		c-0.871,0.212-1.637,0.67-2.255,1.287l1.208-0.14c0.081-0.002,0.161-0.003,0.241-0.001c0.007,0,0.013,0.001,0.02,0.001
		c0.074,0.002,0.147,0.005,0.22,0.01c0.001,0,0.002,0,0.003,0c0.157,0.011,0.313,0.03,0.466,0.056
		c1.976,0.338,3.569,1.886,3.894,3.848c0.013,0.078,0.024,0.158,0.033,0.237c0,0.002,0,0.003,0.001,0.005
		c0.009,0.081,0.016,0.163,0.021,0.245c0.004,0.07,0.006,0.14,0.006,0.21c0,0.021,0,0.043,0,0.064c0,0.05-0.001,0.1-0.003,0.15
		c-0.001,0.022-0.002,0.044-0.003,0.066c-0.003,0.06-0.008,0.12-0.013,0.179c-0.001,0.009-0.001,0.018-0.002,0.027
		c-0.007,0.066-0.015,0.131-0.025,0.196c-0.003,0.024-0.008,0.047-0.011,0.071c-0.007,0.044-0.015,0.087-0.023,0.13
		c-0.005,0.025-0.01,0.05-0.015,0.074c-0.01,0.049-0.022,0.098-0.034,0.146c-0.004,0.016-0.008,0.032-0.012,0.048
		c-0.415,1.58-1.698,2.819-3.352,3.192l-0.309,0.084c0.021,0.006,0.042,0.012,0.064,0.018c0.029,0.008,0.058,0.016,0.087,0.023
		c0.04,0.01,0.081,0.02,0.122,0.029c0.034,0.008,0.068,0.014,0.102,0.021c0.038,0.008,0.075,0.015,0.113,0.022
		c0.067,0.012,0.135,0.022,0.204,0.031c0.004,0.001,0.008,0.001,0.012,0.001c1.807-0.42,3.216-1.85,3.668-3.694
		c0.005-0.019,0.008-0.037,0.013-0.056c0.013-0.056,0.026-0.112,0.037-0.169c0.006-0.029,0.011-0.057,0.016-0.086
		c0.009-0.05,0.018-0.1,0.025-0.151c0.004-0.027,0.009-0.055,0.012-0.082c0.01-0.075,0.02-0.151,0.027-0.227
		c0.001-0.01,0.001-0.021,0.002-0.031c0.006-0.069,0.011-0.138,0.014-0.208c0.001-0.025,0.002-0.051,0.003-0.077
		c0.002-0.058,0.003-0.115,0.004-0.174c0-0.025,0-0.049,0-0.074C75.978,30.607,75.976,30.526,75.972,30.444z"></path>
	<path fill="#0C4054" d="M53.011,59.236l0.522,0.031c0.166-0.167,0.32-0.337,0.47-0.507L53.011,59.236z"></path>
	<path fill="#0C4054" d="M46.939,58.15l-0.399,0.702l0.964,0.057C47.29,58.681,47.104,58.424,46.939,58.15z"></path>
	<path fill="#0C4054" d="M60.083,58.371c-0.092-0.199-0.226-0.665-0.362-1.187c-0.074,0.549-0.148,1.076-0.221,1.591L60.083,58.371z
		"></path>
	<path fill="#0C4054" d="M57.384,57.138l-0.94,0.451c-0.329,0.595-0.738,1.196-1.222,1.778l2.311,0.137
		c0.125-0.851,0.25-1.753,0.374-2.677C57.743,56.945,57.57,57.052,57.384,57.138z"></path>
</g>
<g id="hlight">
	<path fill="#FFFFFF" d="M57.711,30.526c-0.817-1.973-2.069-3.743-3.657-5.119l-0.086,0.099c1.636,1.417,2.916,3.256,3.721,5.305
		C57.696,30.716,57.703,30.62,57.711,30.526z"></path>
	<path fill="#FFFFFF" d="M67.549,28.827c-0.453-1.576-1.696-2.879-2.659-3.695l0.085-0.1c0.977,0.827,2.238,2.151,2.7,3.759
		L67.549,28.827z"></path>
	<path fill="#FFFFFF" d="M31.784,56.452c-0.004,0-0.007,0-0.011-0.001c-0.072-0.006-0.126-0.07-0.12-0.142
		c0.097-1.149-0.176-2.081-0.812-2.771c-1.211-1.314-3.358-1.326-3.394-1.326c0,0-0.001,0-0.001,0c-0.072,0-0.131-0.059-0.131-0.131
		c0-0.073,0.058-0.132,0.131-0.132c0.093,0,2.293,0.006,3.588,1.41c0.689,0.746,0.986,1.747,0.882,2.973
		C31.909,56.4,31.851,56.452,31.784,56.452z"></path>
	<path fill="#FFFFFF" d="M58.11,33.905c-0.072,0-0.13-0.057-0.131-0.129c-0.205-12.485,5.525-14.956,8.959-15.317
		c0.071-0.009,0.137,0.045,0.144,0.117c0.008,0.072-0.045,0.137-0.117,0.144c-1.644,0.173-3.987,0.865-5.81,3.18
		c-2.02,2.565-3,6.56-2.913,11.872c0.001,0.073-0.057,0.132-0.129,0.134C58.112,33.905,58.111,33.905,58.11,33.905z"></path>
	<path fill="#FFFFFF" d="M67.402,54.339c-0.046,0-0.091-0.025-0.115-0.068c-0.035-0.064-0.012-0.144,0.052-0.178l16.733-9.203
		c0.063-0.035,0.144-0.012,0.178,0.052c0.035,0.064,0.012,0.144-0.052,0.178l-16.733,9.203
		C67.445,54.333,67.423,54.339,67.402,54.339z"></path>
	
		<rect x="65.035" y="51.687" transform="matrix(0.2246 0.9745 -0.9745 0.2246 101.7018 -22.6784)" fill="#FFFFFF" width="0.131" height="1.754"></rect>
	
		<rect x="66.613" y="52.213" transform="matrix(0.2246 0.9745 -0.9745 0.2246 103.4376 -23.808)" fill="#FFFFFF" width="0.131" height="1.754"></rect>
	
		<rect x="68.214" y="52.104" transform="matrix(0.7143 0.6998 -0.6998 0.7143 56.1026 -33.0968)" fill="#FFFFFF" width="0.751" height="0.131"></rect>
	
		<rect x="63.35" y="53.385" transform="matrix(0.7143 0.6998 -0.6998 0.7143 55.61 -29.3263)" fill="#FFFFFF" width="0.751" height="0.131"></rect>
	
		<rect x="69.636" y="49.189" transform="matrix(0.2246 0.9745 -0.9745 0.2246 102.8358 -29.0995)" fill="#FFFFFF" width="0.131" height="1.754"></rect>
	
		<rect x="71.214" y="49.715" transform="matrix(0.2246 0.9745 -0.9745 0.2246 104.5716 -30.2291)" fill="#FFFFFF" width="0.131" height="1.754"></rect>
	
		<rect x="72.816" y="49.606" transform="matrix(0.7143 0.6998 -0.6998 0.7143 55.669 -37.0306)" fill="#FFFFFF" width="0.751" height="0.131"></rect>
	
		<rect x="67.951" y="50.887" transform="matrix(0.7143 0.6998 -0.6998 0.7143 55.1764 -33.2602)" fill="#FFFFFF" width="0.751" height="0.131"></rect>
	
		<rect x="73.318" y="47.085" transform="matrix(0.2246 0.9745 -0.9745 0.2246 103.6405 -34.318)" fill="#FFFFFF" width="0.131" height="1.754"></rect>
	
		<rect x="74.895" y="47.611" transform="matrix(0.2246 0.9745 -0.9745 0.2246 105.3764 -35.4476)" fill="#FFFFFF" width="0.131" height="1.754"></rect>
	
		<rect x="76.497" y="47.502" transform="matrix(0.7143 0.6998 -0.6998 0.7143 55.2485 -40.2078)" fill="#FFFFFF" width="0.751" height="0.131"></rect>
	
		<rect x="71.633" y="48.784" transform="matrix(0.7143 0.6998 -0.6998 0.7143 54.756 -36.4373)" fill="#FFFFFF" width="0.751" height="0.131"></rect>
	
		<rect x="67.939" y="55.456" transform="matrix(0.8321 0.5547 -0.5547 0.8321 42.3279 -28.7555)" fill="#FFFFFF" width="1.422" height="0.131"></rect>
	
		<rect x="68.19" y="56.545" transform="matrix(0.9578 0.2873 -0.2873 0.9578 19.3239 -17.1996)" fill="#FFFFFF" width="0.131" height="1.373"></rect>
	
		<rect x="69.649" y="54.634" transform="matrix(0.8321 0.5547 -0.5547 0.8321 42.1591 -29.8416)" fill="#FFFFFF" width="1.422" height="0.131"></rect>
	
		<rect x="69.899" y="55.723" transform="matrix(0.9578 0.2873 -0.2873 0.9578 19.1598 -17.7253)" fill="#FFFFFF" width="0.131" height="1.373"></rect>
	
		<rect x="71.489" y="53.254" transform="matrix(0.8321 0.5547 -0.5547 0.8321 41.7025 -31.0944)" fill="#FFFFFF" width="1.422" height="0.131"></rect>
	
		<rect x="71.74" y="54.343" transform="matrix(0.9578 0.2873 -0.2873 0.9578 18.8408 -18.3125)" fill="#FFFFFF" width="0.131" height="1.373"></rect>
	
		<rect x="73.198" y="52.432" transform="matrix(0.8321 0.5547 -0.5547 0.8321 41.5337 -32.1805)" fill="#FFFFFF" width="1.422" height="0.131"></rect>
	
		<rect x="73.449" y="53.521" transform="matrix(0.9578 0.2873 -0.2873 0.9578 18.6767 -18.8383)" fill="#FFFFFF" width="0.131" height="1.373"></rect>
	
		<rect x="75.039" y="51.019" transform="matrix(0.8321 0.5547 -0.5547 0.8321 41.0589 -33.4389)" fill="#FFFFFF" width="1.422" height="0.131"></rect>
	
		<rect x="75.29" y="52.108" transform="matrix(0.9578 0.2873 -0.2873 0.9578 18.3482 -19.4268)" fill="#FFFFFF" width="0.131" height="1.373"></rect>
	
		<rect x="76.748" y="50.197" transform="matrix(0.8321 0.5547 -0.5547 0.8321 40.8901 -34.525)" fill="#FFFFFF" width="1.422" height="0.131"></rect>
	
		<rect x="76.999" y="51.286" transform="matrix(0.9578 0.2873 -0.2873 0.9578 18.1842 -19.9525)" fill="#FFFFFF" width="0.131" height="1.373"></rect>
</g>
</g>
</svg>