<svg version="1.1" id="Layer_1" xmlns="http://www.w3.org/2000/svg" xmlns:xlink="http://www.w3.org/1999/xlink" x="0px" y="0px" viewBox="0 0 100 100" xml:space="preserve"><desc>Copyright Opto 22</desc> 
<g id="frame">
	<g id="frame_1_">
		<rect fill="none" width="100" height="100"></rect>
	</g>
</g>
<g id="shape">
	<path d="M5.365,33.554c0.699-1.922,6.905-18.752,9.367-17.856l84.205,30.648c2.462,0.896-3.602,17.778-4.302,19.699
		s-6.905,18.752-9.367,17.856L1.063,53.254C-1.399,52.358,4.665,35.476,5.365,33.554z"></path>
</g>
<g id="radial" display="none">
</g>
<g id="linear">
	
		<linearGradient id="SVGID_1_" gradientUnits="userSpaceOnUse" x1="50" y1="30.3125" x2="50" y2="69.2878" gradientTransform="matrix(-0.9397 -0.342 -0.342 0.9397 114.0173 20.1043)">
		<stop offset="0" style="stop-color:#FFFFFF"></stop>
		<stop offset="1" style="stop-color:#4D4D4D"></stop>
	</linearGradient>
	<path fill="url(#SVGID_1_)" d="M85.438,83.437c1.142,0.416,5.052-7.446,8.733-17.56s5.74-18.649,4.598-19.065L14.562,16.164
		c-1.142-0.416-5.052,7.446-8.733,17.56S0.09,52.373,1.232,52.788L85.438,83.437z"></path>
</g>
<g id="dark">
	<g>
		<path d="M90.916,67.676L10.649,38.461c-0.186-0.068-0.392,0.028-0.46,0.215c-0.068,0.186,0.028,0.392,0.215,0.46l80.267,29.215
			c0.186,0.068,0.392-0.028,0.46-0.215C91.199,67.95,91.103,67.744,90.916,67.676z"></path>
		<path d="M89.655,70.84L9.388,41.625c-0.186-0.068-0.392,0.028-0.46,0.215c-0.068,0.186,0.028,0.392,0.215,0.46L89.41,71.515
			c0.186,0.068,0.392-0.028,0.46-0.215C89.938,71.114,89.842,70.908,89.655,70.84z"></path>
		<path d="M88.684,73.51L8.416,44.295c-0.16-0.058-0.336,0.024-0.394,0.184c-0.058,0.16,0.024,0.336,0.184,0.394l80.267,29.215
			c0.16,0.058,0.336-0.024,0.394-0.184C88.926,73.745,88.843,73.568,88.684,73.51z"></path>
		<path d="M87.624,75.82L7.357,46.605c-0.133-0.048-0.28,0.02-0.329,0.153s0.02,0.28,0.153,0.329l80.267,29.215
			c0.133,0.048,0.28-0.02,0.329-0.153C87.826,76.016,87.757,75.869,87.624,75.82z"></path>
		<path d="M86.749,77.924L6.482,48.709c-0.133-0.048-0.28,0.02-0.329,0.153s0.02,0.28,0.153,0.329l80.267,29.215
			c0.133,0.048,0.28-0.02,0.329-0.153C86.951,78.12,86.882,77.973,86.749,77.924z"></path>
		<path d="M85.769,79.717L5.502,50.502c-0.107-0.039-0.224,0.016-0.263,0.123c-0.039,0.107,0.016,0.224,0.123,0.263l80.267,29.215
			c0.107,0.039,0.224-0.016,0.263-0.123C85.931,79.874,85.876,79.756,85.769,79.717z"></path>
		<path d="M84.614,81.392L4.346,52.177C4.24,52.138,4.122,52.193,4.083,52.3c-0.039,0.107,0.016,0.224,0.123,0.263l80.267,29.215
			c0.107,0.039,0.224-0.016,0.263-0.123C84.775,81.548,84.72,81.431,84.614,81.392z"></path>
	</g>
	<g>
		<path d="M93.367,61.542L13.1,32.327c-0.213-0.078-0.448,0.032-0.526,0.245c-0.078,0.213,0.032,0.448,0.245,0.526l80.267,29.215
			c0.213,0.078,0.448-0.032,0.526-0.245C93.69,61.855,93.58,61.62,93.367,61.542z"></path>
		<path d="M92.219,64.695L11.952,35.48c-0.213-0.078-0.448,0.032-0.526,0.245c-0.078,0.213,0.032,0.448,0.245,0.526l80.267,29.215
			c0.213,0.078,0.448-0.032,0.526-0.245S92.432,64.772,92.219,64.695z"></path>
		<path d="M94.418,58.356L14.15,29.141c-0.186-0.068-0.392,0.028-0.46,0.215c-0.068,0.186,0.028,0.392,0.215,0.46L94.172,59.03
			c0.186,0.068,0.392-0.028,0.46-0.215C94.7,58.629,94.604,58.423,94.418,58.356z"></path>
		<path d="M95.161,55.712L14.894,26.497c-0.16-0.058-0.336,0.024-0.394,0.184c-0.058,0.16,0.024,0.336,0.184,0.394l80.267,29.215
			c0.16,0.058,0.336-0.024,0.394-0.184C95.403,55.947,95.321,55.77,95.161,55.712z"></path>
		<path d="M95.861,53.49L15.594,24.275c-0.133-0.048-0.28,0.02-0.329,0.153s0.02,0.28,0.153,0.329l80.267,29.215
			c0.133,0.048,0.28-0.02,0.329-0.153C96.063,53.686,95.994,53.538,95.861,53.49z"></path>
		<path d="M96.482,51.184L16.215,21.969c-0.133-0.048-0.28,0.02-0.329,0.153c-0.048,0.133,0.02,0.28,0.153,0.329l80.267,29.215
			c0.133,0.048,0.28-0.02,0.329-0.153C96.684,51.38,96.615,51.232,96.482,51.184z"></path>
		<path d="M96.945,49.312L16.678,20.097c-0.107-0.039-0.224,0.016-0.263,0.123c-0.039,0.107,0.016,0.224,0.123,0.263l80.267,29.215
			c0.107,0.039,0.224-0.016,0.263-0.123C97.107,49.468,97.052,49.351,96.945,49.312z"></path>
		<path d="M97.04,47.251L16.773,18.036c-0.107-0.039-0.224,0.016-0.263,0.123c-0.039,0.107,0.016,0.224,0.123,0.263L96.9,47.637
			c0.107,0.039,0.224-0.016,0.263-0.123C97.201,47.408,97.147,47.29,97.04,47.251z"></path>
	</g>
</g>
<g id="light">
	<g>
		<path fill="#CCCCCC" d="M95.592,45.656c1.142,0.416-0.917,8.951-4.598,19.065c-3.681,10.114-7.591,17.975-8.733,17.56l2.892,1.053
			c1.142,0.416,5.052-7.446,8.733-17.56c3.681-10.114,5.74-18.649,4.598-19.065L95.592,45.656z"></path>
		<path fill="#CCCCCC" d="M68.488,35.791c1.142,0.416-0.917,8.951-4.598,19.065s-7.591,17.975-8.733,17.56l2.892,1.053
			c1.142,0.416,5.052-7.446,8.733-17.56c3.681-10.114,5.74-18.649,4.598-19.065L68.488,35.791z"></path>
		<path fill="#CCCCCC" d="M41.383,25.926c1.142,0.416-0.917,8.951-4.598,19.065s-7.591,17.975-8.733,17.56l2.892,1.053
			c1.142,0.416,5.052-7.446,8.733-17.56c3.681-10.114,5.74-18.649,4.598-19.065L41.383,25.926z"></path>
		<path fill="#CCCCCC" d="M14.279,16.06c1.142,0.416-0.917,8.951-4.598,19.065s-7.591,17.975-8.733,17.56l2.892,1.053
			c1.142,0.416,5.052-7.446,8.733-17.56s5.74-18.649,4.598-19.065L14.279,16.06z"></path>
	</g>
</g>
<g id="shadow">
	<g>
		
			<ellipse transform="matrix(0.342 -0.9397 0.9397 0.342 -27.2902 29.7714)" fill="#999999" cx="7.614" cy="34.373" rx="16.816" ry="1.899"></ellipse>
	</g>
</g>
<g id="hlight">
</g>
</svg>