<svg version="1.1" id="Layer_1" xmlns="http://www.w3.org/2000/svg" xmlns:xlink="http://www.w3.org/1999/xlink" x="0px" y="0px" viewBox="0 0 100 100" xml:space="preserve"><desc>Copyright Opto 22</desc> 
<g id="frame">
	<g id="frame_1_">
		<rect fill="none" width="100" height="100"></rect>
	</g>
</g>
<g id="shape">
	<path d="M98.26,37.116h-6.074c-0.335,0-0.647,0.85-0.912,2.299h-5.569c-0.344-2.643-0.793-4.254-1.285-4.254h-7.517v-2.644
		c0.776-0.093,1.261-0.218,1.261-0.355v-0.698c0-0.287-2.069-0.52-4.622-0.52c-2.553,0-4.622,0.233-4.622,0.52v0.698
		c0,0.138,0.484,0.262,1.261,0.355v2.644h-7.61c-0.011,0-0.022,0.013-0.033,0.015c-0.223-0.719-0.463-1.132-0.714-1.132h-1.681
		c-0.25,0-0.488,0.407-0.71,1.117h-6.247v-2.644c0.776-0.093,1.261-0.218,1.261-0.355v-0.698c0-0.287-2.069-0.52-4.622-0.52
		c-2.553,0-4.622,0.233-4.622,0.52v0.698c0,0.138,0.484,0.262,1.261,0.355v2.644h-7.834c-0.222-0.71-0.46-1.117-0.71-1.117h-1.681
		c-0.25,0-0.488,0.407-0.71,1.117h-5.873v-2.644c0.776-0.093,1.261-0.218,1.261-0.355v-0.698c0-0.287-2.069-0.52-4.622-0.52
		c-2.553,0-4.622,0.233-4.622,0.52v0.698c0,0.138,0.484,0.262,1.261,0.355v2.644h-8.544c-0.433,0-0.832,1.254-1.156,3.352h-0.805
		c-0.196,0-0.382,0.328-0.555,0.902H8.725c-0.265-1.448-0.577-2.299-0.912-2.299H1.74C0.779,37.116,0,43.995,0,52.481
		s0.779,15.365,1.74,15.365h6.074c0.335,0,0.647-0.85,0.912-2.299h3.146c0.173,0.573,0.359,0.902,0.555,0.902h0.805
		c0.324,2.098,0.723,3.352,1.156,3.352h1.017v0.279l3.185,5.707h6.723v-5.987h10.215c0.222,0.71,0.46,1.117,0.71,1.117h1.681
		c0.25,0,0.488-0.407,0.71-1.117h8.712v0.279l3.185,5.707h6.723v-5.987h2.185c0.222,0.71,0.46,1.117,0.71,1.117h1.681
		c0.251,0,0.491-0.413,0.714-1.132c0.011,0.002,0.022,0.015,0.033,0.015h13.624v0.279l3.185,5.707h6.723V65.547h5.172
		c0.265,1.448,0.577,2.299,0.912,2.299h6.074c0.961,0,1.74-6.879,1.74-15.365S99.221,37.116,98.26,37.116z"></path>
</g>
<g id="radial">
</g>
<g id="linear">
	<linearGradient id="SVGID_1_" gradientUnits="userSpaceOnUse" x1="87.6432" y1="39.4146" x2="87.6432" y2="65.5466">
		<stop offset="0" style="stop-color:#FFFFFF"></stop>
		<stop offset="1" style="stop-color:#000000"></stop>
	</linearGradient>
	<path fill="url(#SVGID_1_)" d="M92.187,65.547c0.817,0,1.479-5.85,1.479-13.066s-0.662-13.066-1.479-13.066H83.1
		c-0.817,0-1.479,5.85-1.479,13.066s0.662,13.066,1.479,13.066H92.187z"></path>
	
		<linearGradient id="SVGID_00000124154909747381142340000016472064142697986957_" gradientUnits="userSpaceOnUse" x1="9.4676" y1="39.4146" x2="9.4676" y2="65.5466">
		<stop offset="0" style="stop-color:#FFFFFF"></stop>
		<stop offset="1" style="stop-color:#000000"></stop>
	</linearGradient>
	<path fill="url(#SVGID_00000124154909747381142340000016472064142697986957_)" d="M14.011,65.547c0.817,0,1.479-5.85,1.479-13.066
		s-0.662-13.066-1.479-13.066H4.924c-0.817,0-1.479,5.85-1.479,13.066s0.662,13.066,1.479,13.066H14.011z"></path>
	
		<linearGradient id="SVGID_00000028302170190720129840000009092490662142795939_" gradientUnits="userSpaceOnUse" x1="96.0934" y1="37.1161" x2="96.0934" y2="67.8452">
		<stop offset="0" style="stop-color:#FFFFFF"></stop>
		<stop offset="1" style="stop-color:#000000"></stop>
	</linearGradient>
	<path fill="url(#SVGID_00000028302170190720129840000009092490662142795939_)" d="M98.26,37.116h-6.074
		c0.961,0,1.74,6.879,1.74,15.365s-0.779,15.365-1.74,15.365h6.074c0.961,0,1.74-6.879,1.74-15.365S99.221,37.116,98.26,37.116z"></path>
	
		<linearGradient id="SVGID_00000154404897201972532440000006047768785713967291_" gradientUnits="userSpaceOnUse" x1="74.4604" y1="35.1606" x2="74.4604" y2="69.8006">
		<stop offset="0" style="stop-color:#FFFFFF"></stop>
		<stop offset="1" style="stop-color:#000000"></stop>
	</linearGradient>
	<path fill="url(#SVGID_00000154404897201972532440000006047768785713967291_)" d="M84.422,35.161H62.571
		c-0.011,0-0.022,0.013-0.033,0.015c0.8,2.58,1.373,9.343,1.373,17.305s-0.573,14.726-1.373,17.305
		c0.011,0.002,0.022,0.015,0.033,0.015h21.851c1.083,0,1.961-7.754,1.961-17.32C86.383,42.915,85.505,35.161,84.422,35.161z"></path>
	
		<linearGradient id="SVGID_00000065778409349078386510000014298560177248663478_" gradientUnits="userSpaceOnUse" x1="50.3661" y1="35.1606" x2="50.3661" y2="69.8006">
		<stop offset="0" style="stop-color:#FFFFFF"></stop>
		<stop offset="1" style="stop-color:#000000"></stop>
	</linearGradient>
	<path fill="url(#SVGID_00000065778409349078386510000014298560177248663478_)" d="M60.143,35.161H38.628
		c0.803,2.569,1.378,9.343,1.378,17.32s-0.575,14.751-1.378,17.32h21.514c1.083,0,1.961-7.754,1.961-17.32
		C62.104,42.915,61.226,35.161,60.143,35.161z"></path>
	
		<linearGradient id="SVGID_00000063628322650542095630000016869896129418773898_" gradientUnits="userSpaceOnUse" x1="26.2926" y1="35.1606" x2="26.2926" y2="69.8006">
		<stop offset="0" style="stop-color:#FFFFFF"></stop>
		<stop offset="1" style="stop-color:#000000"></stop>
	</linearGradient>
	<path fill="url(#SVGID_00000063628322650542095630000016869896129418773898_)" d="M36.238,35.161H14.387
		c1.083,0,1.961,7.754,1.961,17.32c0,9.566-0.878,17.32-1.961,17.32h21.851c1.083,0,1.961-7.754,1.961-17.32
		C38.199,42.915,37.321,35.161,36.238,35.161z"></path>
	
		<linearGradient id="SVGID_00000015323748442818704920000004175211597223491202_" gradientUnits="userSpaceOnUse" x1="5.6461" y1="37.1161" x2="5.6461" y2="67.8452">
		<stop offset="0" style="stop-color:#FFFFFF"></stop>
		<stop offset="1" style="stop-color:#000000"></stop>
	</linearGradient>
	<path fill="url(#SVGID_00000015323748442818704920000004175211597223491202_)" d="M7.813,37.116H1.74
		c0.961,0,1.74,6.879,1.74,15.365S2.7,67.845,1.74,67.845h6.074c0.961,0,1.74-6.879,1.74-15.365S8.774,37.116,7.813,37.116z"></path>
	
		<linearGradient id="SVGID_00000049182155069177737980000017899980942570439822_" gradientUnits="userSpaceOnUse" x1="46.4626" y1="34.118" x2="53.186" y2="34.118">
		<stop offset="0" style="stop-color:#FFFFFF"></stop>
		<stop offset="1" style="stop-color:#000000"></stop>
	</linearGradient>
	<path fill="url(#SVGID_00000049182155069177737980000017899980942570439822_)" d="M49.824,32.682c-1.329,0-2.518-0.064-3.362-0.165
		v2.824c0,0.209,1.505,0.378,3.362,0.378c1.857,0,3.362-0.169,3.362-0.378v-2.824C52.343,32.618,51.153,32.682,49.824,32.682z"></path>
	
		<linearGradient id="SVGID_00000124159566455169999930000005840776607921127097_" gradientUnits="userSpaceOnUse" x1="70.1812" y1="34.118" x2="76.9045" y2="34.118">
		<stop offset="0" style="stop-color:#FFFFFF"></stop>
		<stop offset="1" style="stop-color:#000000"></stop>
	</linearGradient>
	<path fill="url(#SVGID_00000124159566455169999930000005840776607921127097_)" d="M73.543,32.682c-1.329,0-2.518-0.064-3.362-0.165
		v2.824c0,0.209,1.505,0.378,3.362,0.378c1.857,0,3.362-0.169,3.362-0.378v-2.824C76.061,32.618,74.872,32.682,73.543,32.682z"></path>
	
		<linearGradient id="SVGID_00000053532674311215326230000011514943860695674514_" gradientUnits="userSpaceOnUse" x1="22.931" y1="34.118" x2="29.6543" y2="34.118">
		<stop offset="0" style="stop-color:#FFFFFF"></stop>
		<stop offset="1" style="stop-color:#000000"></stop>
	</linearGradient>
	<path fill="url(#SVGID_00000053532674311215326230000011514943860695674514_)" d="M26.293,32.682c-1.329,0-2.518-0.064-3.362-0.165
		v2.824c0,0.209,1.505,0.378,3.362,0.378c1.857,0,3.362-0.169,3.362-0.378v-2.824C28.811,32.618,27.622,32.682,26.293,32.682z"></path>
</g>
<g id="dark">
	<rect x="79.379" y="61.141" fill="#808080" width="6.723" height="14.647"></rect>
	<rect x="50.525" y="61.141" fill="#808080" width="6.723" height="14.647"></rect>
	<rect x="18.589" y="61.141" fill="#808080" width="6.723" height="14.647"></rect>
</g>
<g id="light">
</g>
<g id="shadow">
	<path fill="#4D4D4D" d="M79.399,61.142c-0.339,5.176-0.973,8.659-1.699,8.659h-1.496l-0.01,0.279l3.185,5.707L79.399,61.142z"></path>
	<path fill="#4D4D4D" d="M50.544,61.142c-0.339,5.176-0.973,8.659-1.699,8.659H47.35l-0.01,0.279l3.185,5.707L50.544,61.142z"></path>
	<path fill="#4D4D4D" d="M18.608,61.142c-0.339,5.176-0.973,8.659-1.699,8.659h-1.496l-0.01,0.279l3.185,5.707L18.608,61.142z"></path>
</g>
<g id="hlight">
	<ellipse fill="#F2F2F2" cx="49.824" cy="31.463" rx="4.622" ry="0.52"></ellipse>
	<ellipse fill="#F2F2F2" cx="73.543" cy="31.463" rx="4.622" ry="0.52"></ellipse>
	<ellipse fill="#F2F2F2" cx="26.293" cy="31.463" rx="4.622" ry="0.52"></ellipse>
</g>
</svg>