<svg width="16" height="16" viewBox="0 0 16 16" fill="none" xmlns="http://www.w3.org/2000/svg">
<path d="M4 2.66661V13.3333C3.99997 13.4519 4.03158 13.5684 4.09159 13.6707C4.15159 13.773 4.23781 13.8575 4.34135 13.9154C4.44489 13.9733 4.562 14.0025 4.68059 14C4.79918 13.9975 4.91497 13.9634 5.016 13.9013L13.6827 8.56794C13.7797 8.5083 13.8599 8.42477 13.9155 8.32534C13.9711 8.2259 14.0003 8.11387 14.0003 7.99994C14.0003 7.88602 13.9711 7.77399 13.9155 7.67455C13.8599 7.57512 13.7797 7.49159 13.6827 7.43194L5.016 2.09861C4.91497 2.03645 4.79918 2.00238 4.68059 1.9999C4.562 1.99742 4.44489 2.02663 4.34135 2.08452C4.23781 2.1424 4.15159 2.22686 4.09159 2.32919C4.03158 2.43151 3.99997 2.54799 4 2.66661Z" fill="#0090FF"/>
</svg>
