<svg width="230" height="222" viewBox="0 0 230 222" fill="none" xmlns="http://www.w3.org/2000/svg">
<g opacity="0.1">
<path d="M74.4814 165.535L102.276 187.053C105.862 190.639 113.932 192.433 119.312 192.433H153.382C164.142 192.433 175.797 184.363 178.487 173.604L200.006 108.152C204.489 95.5996 196.419 84.8404 182.97 84.8404H147.106C141.727 84.8404 137.244 80.3574 138.14 74.0812L142.623 45.3899C144.416 37.3205 139.037 28.3545 130.967 25.6647C123.795 22.9749 114.829 26.5613 111.242 31.9409L74.4814 86.6336" stroke="#88B056" stroke-width="20" stroke-miterlimit="10"/>
<path d="M28.75 165.533V77.6663C28.75 65.1139 34.1296 60.6309 46.682 60.6309H55.648C68.2005 60.6309 73.5801 65.1139 73.5801 77.6663V165.533C73.5801 178.086 68.2005 182.569 55.648 182.569H46.682C34.1296 182.569 28.75 178.086 28.75 165.533Z" stroke="#88B056" stroke-width="20" stroke-linecap="round" stroke-linejoin="round"/>
</g>
</svg>
