<svg width="40" height="40" viewBox="0 0 40 40" fill="none" xmlns="http://www.w3.org/2000/svg">
<path d="M16.0501 29.2183C17.0701 30.2366 16.4017 31.9816 14.9634 32.0616C14.027 32.1143 13.09 31.9684 12.214 31.6335C11.3379 31.2986 10.5426 30.7822 9.88008 30.1183C9.21669 29.4559 8.70077 28.6607 8.36615 27.785C8.03154 26.9092 7.88577 25.9727 7.93842 25.0366C8.01508 23.66 9.61342 22.99 10.6451 23.8266L10.7817 23.95L16.0501 29.2183Z" fill="#202020"/>
<path d="M33.4517 6.5483C35.0517 8.1483 35.3417 10.565 34.3184 12.46L34.1684 12.715L34.1284 12.775C34.6947 14.8071 34.7716 16.9445 34.3527 19.0121C33.9338 21.0796 33.031 23.0185 31.7184 24.67L31.4134 25.0416L31.0951 25.405L27.6401 28.8583L27.5067 29.045C26.7996 30.0739 26.5029 31.3301 26.6751 32.5666L26.7334 32.9016L26.8084 33.21C27.2484 34.7966 25.3867 35.9516 24.1667 34.9616L24.0234 34.8316L5.1684 15.9766C3.95674 14.765 5.14007 12.735 6.79007 13.1916C7.49334 13.3866 8.23078 13.4253 8.95059 13.305C9.67041 13.1846 10.3551 12.9081 10.9567 12.495L11.1501 12.3516L14.6517 8.85164C16.2631 7.38488 18.2093 6.33537 20.3202 5.79495C22.431 5.25452 24.6421 5.23965 26.7601 5.75164L27.2234 5.86997L27.2851 5.83164C28.1566 5.29313 29.1725 5.03506 30.1954 5.09229C31.2183 5.14951 32.199 5.51928 33.0051 6.15164L33.2384 6.34664L33.4517 6.5483Z" fill="#202020"/>
<path d="M16.0501 29.2183C17.0701 30.2366 16.4017 31.9816 14.9634 32.0616C14.027 32.1143 13.09 31.9684 12.214 31.6335C11.3379 31.2986 10.5426 30.7822 9.88008 30.1183C9.21669 29.4559 8.70077 28.6607 8.36615 27.785C8.03154 26.9092 7.88577 25.9727 7.93842 25.0366C8.01508 23.66 9.61342 22.99 10.6451 23.8266L10.7817 23.95L16.0501 29.2183Z" stroke="#646464"/>
<path d="M33.4517 6.5483C35.0517 8.1483 35.3417 10.565 34.3184 12.46L34.1684 12.715L34.1284 12.775C34.6947 14.8071 34.7716 16.9445 34.3527 19.0121C33.9338 21.0796 33.031 23.0185 31.7184 24.67L31.4134 25.0416L31.0951 25.405L27.6401 28.8583L27.5067 29.045C26.7996 30.0739 26.5029 31.3301 26.6751 32.5666L26.7334 32.9016L26.8084 33.21C27.2484 34.7966 25.3867 35.9516 24.1667 34.9616L24.0234 34.8316L5.1684 15.9766C3.95674 14.765 5.14007 12.735 6.79007 13.1916C7.49334 13.3866 8.23078 13.4253 8.95059 13.305C9.67041 13.1846 10.3551 12.9081 10.9567 12.495L11.1501 12.3516L14.6517 8.85164C16.2631 7.38488 18.2093 6.33537 20.3202 5.79495C22.431 5.25452 24.6421 5.23965 26.7601 5.75164L27.2234 5.86997L27.2851 5.83164C28.1566 5.29313 29.1725 5.03506 30.1954 5.09229C31.2183 5.14951 32.199 5.51928 33.0051 6.15164L33.2384 6.34664L33.4517 6.5483Z" stroke="#646464"/>
</svg>
