<svg width="40" height="40" viewBox="0 0 40 40" fill="none" xmlns="http://www.w3.org/2000/svg">
<path d="M28.3333 28.3333V28.35M21.6667 28.3333V28.35M25 21.6667V18.3333M19.5833 14.5833C20.2006 13.7231 21.0138 13.0222 21.9557 12.5387C22.8977 12.0553 23.9412 11.8031 25 11.8031C26.0588 11.8031 27.1023 12.0553 28.0443 12.5387C28.9862 13.0222 29.7994 13.7231 30.4167 14.5833M14.1667 10.8333C15.4011 9.11284 17.0276 7.71109 18.9115 6.74413C20.7954 5.77718 22.8825 5.27283 25 5.27283C27.1175 5.27283 29.2046 5.77718 31.0885 6.74413C32.9724 7.71109 34.5989 9.11284 35.8333 10.8333M5 25C5 24.1159 5.35119 23.2681 5.97631 22.643C6.60143 22.0179 7.44928 21.6667 8.33333 21.6667H31.6667C32.5507 21.6667 33.3986 22.0179 34.0237 22.643C34.6488 23.2681 35 24.1159 35 25V31.6667C35 32.5507 34.6488 33.3986 34.0237 34.0237C33.3986 34.6488 32.5507 35 31.6667 35H8.33333C7.44928 35 6.60143 34.6488 5.97631 34.0237C5.35119 33.3986 5 32.5507 5 31.6667V25Z" stroke="current" stroke-width="3" stroke-linecap="round" stroke-linejoin="round"/>
</svg>