<svg width="24" height="24" viewBox="0 0 24 24" fill="none" xmlns="http://www.w3.org/2000/svg">
<mask id="path-1-inside-1_2056_32166" fill="white">
<path d="M15.6966 21.8839C15.6966 22.0473 15.6317 22.204 15.5161 22.3196C15.4006 22.4351 15.2439 22.5 15.0805 22.5H8.91982C8.75643 22.5 8.59973 22.4351 8.4842 22.3196C8.36866 22.204 8.30376 22.0473 8.30376 21.8839C8.30376 21.7205 8.36866 21.5638 8.4842 21.4483C8.59973 21.3328 8.75643 21.2679 8.91982 21.2679H15.0805C15.2439 21.2679 15.4006 21.3328 15.5161 21.4483C15.6317 21.5639 15.6966 21.7205 15.6966 21.8839ZM18.7769 12.0268C18.7796 13.0538 18.5476 14.0679 18.0986 14.9916C17.6496 15.9152 16.9955 16.7241 16.1862 17.3564C16.0351 17.4722 15.9125 17.621 15.8276 17.7914C15.7428 17.9618 15.6979 18.1493 15.6966 18.3397V18.8036C15.6962 19.1303 15.5663 19.4434 15.3353 19.6744C15.1043 19.9054 14.7911 20.0354 14.4644 20.0357H9.53589C9.20923 20.0354 8.89604 19.9054 8.66505 19.6744C8.43406 19.4434 8.30413 19.1303 8.30376 18.8036V18.3391C8.30352 18.1508 8.26016 17.965 8.17701 17.796C8.09386 17.6271 7.97311 17.4794 7.82404 17.3643C7.01714 16.7359 6.36371 15.9323 5.91318 15.0143C5.46264 14.0962 5.2268 13.0876 5.22349 12.065C5.20326 8.39457 8.17012 5.33829 11.8371 5.25196C12.7405 5.23023 13.6392 5.3894 14.4801 5.72011C15.3211 6.05081 16.0874 6.54637 16.7341 7.17762C17.3807 7.80888 17.8945 8.56308 18.2454 9.39586C18.5962 10.2286 18.7769 11.1232 18.7769 12.0268ZM16.252 11.3032C16.1023 10.4234 15.6827 9.61186 15.0512 8.98117C14.4198 8.35048 13.6077 7.93185 12.7277 7.78332C12.6479 7.76983 12.5662 7.7722 12.4873 7.79029C12.4084 7.80838 12.3339 7.84184 12.2679 7.88876C12.202 7.93568 12.1459 7.99514 12.1029 8.06373C12.06 8.13233 12.0309 8.20871 12.0175 8.28853C12.0041 8.36835 12.0065 8.45003 12.0247 8.52891C12.0428 8.60778 12.0764 8.68231 12.1233 8.74822C12.1703 8.81414 12.2298 8.87016 12.2984 8.91307C12.367 8.95598 12.4435 8.98494 12.5233 8.99831C13.151 9.10429 13.7302 9.40291 14.1806 9.8528C14.6311 10.3027 14.9304 10.8815 15.0371 11.5091C15.0614 11.6525 15.1357 11.7826 15.2467 11.8766C15.3577 11.9705 15.4984 12.0221 15.6438 12.0223C15.6785 12.0223 15.7132 12.0194 15.7475 12.0136C15.8273 12.0001 15.9036 11.971 15.9721 11.928C16.0406 11.885 16.1 11.8289 16.1469 11.7629C16.1937 11.6969 16.2271 11.6224 16.2451 11.5435C16.2632 11.4646 16.2655 11.383 16.252 11.3032Z"/>
</mask>
<path d="M15.6966 21.8839C15.6966 22.0473 15.6317 22.204 15.5161 22.3196C15.4006 22.4351 15.2439 22.5 15.0805 22.5H8.91982C8.75643 22.5 8.59973 22.4351 8.4842 22.3196C8.36866 22.204 8.30376 22.0473 8.30376 21.8839C8.30376 21.7205 8.36866 21.5638 8.4842 21.4483C8.59973 21.3328 8.75643 21.2679 8.91982 21.2679H15.0805C15.2439 21.2679 15.4006 21.3328 15.5161 21.4483C15.6317 21.5639 15.6966 21.7205 15.6966 21.8839ZM18.7769 12.0268C18.7796 13.0538 18.5476 14.0679 18.0986 14.9916C17.6496 15.9152 16.9955 16.7241 16.1862 17.3564C16.0351 17.4722 15.9125 17.621 15.8276 17.7914C15.7428 17.9618 15.6979 18.1493 15.6966 18.3397V18.8036C15.6962 19.1303 15.5663 19.4434 15.3353 19.6744C15.1043 19.9054 14.7911 20.0354 14.4644 20.0357H9.53589C9.20923 20.0354 8.89604 19.9054 8.66505 19.6744C8.43406 19.4434 8.30413 19.1303 8.30376 18.8036V18.3391C8.30352 18.1508 8.26016 17.965 8.17701 17.796C8.09386 17.6271 7.97311 17.4794 7.82404 17.3643C7.01714 16.7359 6.36371 15.9323 5.91318 15.0143C5.46264 14.0962 5.2268 13.0876 5.22349 12.065C5.20326 8.39457 8.17012 5.33829 11.8371 5.25196C12.7405 5.23023 13.6392 5.3894 14.4801 5.72011C15.3211 6.05081 16.0874 6.54637 16.7341 7.17762C17.3807 7.80888 17.8945 8.56308 18.2454 9.39586C18.5962 10.2286 18.7769 11.1232 18.7769 12.0268ZM16.252 11.3032C16.1023 10.4234 15.6827 9.61186 15.0512 8.98117C14.4198 8.35048 13.6077 7.93185 12.7277 7.78332C12.6479 7.76983 12.5662 7.7722 12.4873 7.79029C12.4084 7.80838 12.3339 7.84184 12.2679 7.88876C12.202 7.93568 12.1459 7.99514 12.1029 8.06373C12.06 8.13233 12.0309 8.20871 12.0175 8.28853C12.0041 8.36835 12.0065 8.45003 12.0247 8.52891C12.0428 8.60778 12.0764 8.68231 12.1233 8.74822C12.1703 8.81414 12.2298 8.87016 12.2984 8.91307C12.367 8.95598 12.4435 8.98494 12.5233 8.99831C13.151 9.10429 13.7302 9.40291 14.1806 9.8528C14.6311 10.3027 14.9304 10.8815 15.0371 11.5091C15.0614 11.6525 15.1357 11.7826 15.2467 11.8766C15.3577 11.9705 15.4984 12.0221 15.6438 12.0223C15.6785 12.0223 15.7132 12.0194 15.7475 12.0136C15.8273 12.0001 15.9036 11.971 15.9721 11.928C16.0406 11.885 16.1 11.8289 16.1469 11.7629C16.1937 11.6969 16.2271 11.6224 16.2451 11.5435C16.2632 11.4646 16.2655 11.383 16.252 11.3032Z" fill="#FFCA00"/>
<path d="M15.0805 22.5V24.2H15.0806L15.0805 22.5ZM15.0805 21.2679L15.0806 19.5679H15.0805V21.2679ZM16.1862 17.3564L17.2202 18.7058L17.2266 18.701L17.2329 18.696L16.1862 17.3564ZM15.6966 18.3397L13.9966 18.3275V18.3397H15.6966ZM15.6966 18.8036L17.3966 18.8055V18.8036H15.6966ZM14.4644 20.0357V21.7357L14.4664 21.7357L14.4644 20.0357ZM9.53589 20.0357L9.53395 21.7357H9.53589V20.0357ZM8.30376 18.8036H6.60375L6.60376 18.8055L8.30376 18.8036ZM8.30376 18.3391H10.0038L10.0038 18.337L8.30376 18.3391ZM7.82404 17.3643L6.77956 18.7056L6.78517 18.7099L7.82404 17.3643ZM5.22349 12.065L6.92349 12.0595L6.92347 12.0556L5.22349 12.065ZM11.8371 5.25196L11.8771 6.95149L11.878 6.95147L11.8371 5.25196ZM16.252 11.3032L17.928 11.0191L17.9279 11.0182L16.252 11.3032ZM12.7277 7.78332L12.4443 9.45954L12.4448 9.45961L12.7277 7.78332ZM12.5233 8.99831L12.8063 7.32203L12.804 7.32165L12.5233 8.99831ZM15.0371 11.5091L16.7132 11.2248L16.7131 11.2241L15.0371 11.5091ZM15.6438 12.0223L15.6413 13.7223L15.6445 13.7223L15.6438 12.0223ZM15.7475 12.0136L16.0308 13.6898L16.0316 13.6897L15.7475 12.0136ZM13.9966 21.8839C13.9966 21.5964 14.1108 21.3207 14.314 21.1175L16.7182 23.5216C17.1525 23.0873 17.3966 22.4982 17.3966 21.884L13.9966 21.8839ZM14.314 21.1175C14.5173 20.9142 14.793 20.8 15.0804 20.8L15.0806 24.2C15.6948 24.2 16.2839 23.956 16.7182 23.5216L14.314 21.1175ZM15.0805 20.8H8.91982V24.2H15.0805V20.8ZM8.91982 20.8C9.2073 20.8 9.483 20.9142 9.68628 21.1175L7.28212 23.5216C7.71647 23.956 8.30557 24.2 8.91982 24.2V20.8ZM9.68628 21.1175C9.88956 21.3208 10.0038 21.5965 10.0038 21.8839H6.60376C6.60376 22.4982 6.84777 23.0873 7.28212 23.5216L9.68628 21.1175ZM10.0038 21.8839C10.0038 22.1714 9.88956 22.4471 9.68628 22.6504L7.28212 20.2462C6.84777 20.6806 6.60376 21.2697 6.60376 21.8839H10.0038ZM9.68628 22.6504C9.483 22.8537 9.2073 22.9679 8.91982 22.9679V19.5679C8.30557 19.5679 7.71647 19.8119 7.28212 20.2462L9.68628 22.6504ZM8.91982 22.9679H15.0805V19.5679H8.91982V22.9679ZM15.0804 22.9679C14.793 22.9679 14.5173 22.8537 14.314 22.6504L16.7182 20.2462C16.2839 19.8119 15.6948 19.5679 15.0806 19.5679L15.0804 22.9679ZM14.314 22.6504C14.1108 22.4471 13.9966 22.1715 13.9966 21.884L17.3966 21.8839C17.3966 21.2696 17.1525 20.6806 16.7182 20.2462L14.314 22.6504ZM17.0769 12.0312C17.0789 12.7993 16.9054 13.5576 16.5696 14.2484L19.6275 15.7348C20.1897 14.5782 20.4802 13.3084 20.4769 12.0224L17.0769 12.0312ZM16.5696 14.2484C16.2339 14.9391 15.7447 15.544 15.1395 16.0169L17.2329 18.696C18.2463 17.9042 19.0653 16.8914 19.6275 15.7348L16.5696 14.2484ZM15.1523 16.007C14.7956 16.2803 14.5062 16.6314 14.3059 17.0335L17.3494 18.5492C17.3188 18.6106 17.2746 18.6642 17.2202 18.7058L15.1523 16.007ZM14.3059 17.0335C14.1056 17.4357 13.9998 17.8783 13.9966 18.3275L17.3965 18.3518C17.396 18.4203 17.3799 18.4879 17.3494 18.5492L14.3059 17.0335ZM13.9966 18.3397V18.8036H17.3966V18.3397H13.9966ZM13.9966 18.8016C13.9967 18.6781 14.0459 18.5597 14.1332 18.4724L16.5374 20.8765C17.0867 20.3272 17.3957 19.5824 17.3966 18.8055L13.9966 18.8016ZM14.1332 18.4724C14.2205 18.385 14.339 18.3359 14.4625 18.3357L14.4664 21.7357C15.2433 21.7348 15.988 21.4258 16.5374 20.8765L14.1332 18.4724ZM14.4644 18.3357H9.53589V21.7357H14.4644V18.3357ZM9.53784 18.3357C9.66136 18.3359 9.77979 18.385 9.86714 18.4724L7.46297 20.8765C8.0123 21.4258 8.75709 21.7348 9.53395 21.7357L9.53784 18.3357ZM9.86714 18.4724C9.95448 18.5597 10.0036 18.6781 10.0038 18.8016L6.60376 18.8055C6.60465 19.5824 6.91365 20.3272 7.46297 20.8765L9.86714 18.4724ZM10.0038 18.8036V18.3391H6.60376V18.8036H10.0038ZM10.0038 18.337C10.0032 17.8891 9.90009 17.4473 9.70233 17.0454L6.65169 18.5466C6.62024 18.4827 6.60385 18.4125 6.60376 18.3413L10.0038 18.337ZM9.70233 17.0454C9.50458 16.6436 9.21743 16.2923 8.86291 16.0186L6.78517 18.7099C6.72879 18.6664 6.68313 18.6105 6.65169 18.5466L9.70233 17.0454ZM8.8685 16.023C8.26501 15.553 7.77629 14.952 7.43932 14.2653L4.38704 15.7632C4.95114 16.9127 5.76928 17.9189 6.77957 18.7056L8.8685 16.023ZM7.43932 14.2653C7.10235 13.5787 6.92596 12.8244 6.92348 12.0595L3.5235 12.0705C3.52764 13.3509 3.82293 14.6137 4.38704 15.7632L7.43932 14.2653ZM6.92347 12.0556C6.90834 9.31111 9.13784 7.01598 11.8771 6.95149L11.7971 3.55243C7.20241 3.66061 3.49818 7.47804 3.52352 12.0743L6.92347 12.0556ZM11.878 6.95147C12.5548 6.93519 13.228 7.05443 13.858 7.30218L15.1023 4.13803C14.0503 3.72437 12.9263 3.52527 11.7963 3.55245L11.878 6.95147ZM13.858 7.30218C14.488 7.54992 15.0621 7.92117 15.5465 8.39407L17.9216 5.96117C17.1128 5.17156 16.1542 4.55169 15.1023 4.13803L13.858 7.30218ZM15.5465 8.39407C16.0309 8.86697 16.4159 9.43198 16.6787 10.0559L19.812 8.73587C19.3732 7.69418 18.7304 6.75078 17.9216 5.96117L15.5465 8.39407ZM16.6787 10.0559C16.9415 10.6797 17.0769 11.3499 17.0769 12.0268L20.4769 12.0268C20.4769 10.8965 20.2509 9.77755 19.812 8.73587L16.6787 10.0559ZM17.9279 11.0182C17.7191 9.7906 17.1336 8.65832 16.2526 7.77834L13.8499 10.184C14.2318 10.5654 14.4855 11.0561 14.576 11.5882L17.9279 11.0182ZM16.2526 7.77834C15.3715 6.89836 14.2385 6.31427 13.0106 6.10703L12.4448 9.45961C12.977 9.54943 13.468 9.80259 13.8499 10.184L16.2526 7.77834ZM13.011 6.1071C12.711 6.05638 12.4039 6.06528 12.1073 6.13331L12.8673 9.44727C12.7285 9.47911 12.5848 9.48328 12.4443 9.45954L13.011 6.1071ZM12.1073 6.13331C11.8107 6.20133 11.5304 6.32713 11.2825 6.50353L13.2534 9.274C13.1373 9.35655 13.0061 9.41543 12.8673 9.44727L12.1073 6.13331ZM11.2825 6.50353C11.0345 6.67992 10.8237 6.90345 10.6622 7.16134L13.5437 8.96612C13.4681 9.08682 13.3694 9.19144 13.2534 9.274L11.2825 6.50353ZM10.6622 7.16134C10.5007 7.41923 10.3916 7.70642 10.3411 8.0065L13.694 8.57057C13.6703 8.71101 13.6193 8.84542 13.5437 8.96612L10.6622 7.16134ZM10.3411 8.0065C10.2906 8.30657 10.2997 8.61366 10.368 8.91021L13.6814 8.14761C13.7133 8.2864 13.7176 8.43012 13.694 8.57057L10.3411 8.0065ZM10.368 8.91021C10.4362 9.20675 10.5623 9.48694 10.7389 9.73476L13.5078 7.76169C13.5904 7.87768 13.6494 8.00882 13.6814 8.14761L10.368 8.91021ZM10.7389 9.73476C10.9154 9.98257 11.1391 10.1932 11.3971 10.3545L13.1997 7.47164C13.3205 7.54715 13.4251 7.64571 13.5078 7.76169L10.7389 9.73476ZM11.3971 10.3545C11.6552 10.5158 11.9424 10.6247 12.2426 10.675L12.804 7.32165C12.9445 7.34517 13.0789 7.39613 13.1997 7.47164L11.3971 10.3545ZM12.2403 10.6746C12.5202 10.7218 12.7784 10.855 12.9793 11.0556L15.382 8.64999C14.682 7.95083 13.7818 7.48673 12.8063 7.32203L12.2403 10.6746ZM12.9793 11.0556C13.1801 11.2562 13.3136 11.5143 13.3612 11.7941L16.7131 11.2241C16.5472 10.2488 16.082 9.34916 15.382 8.64999L12.9793 11.0556ZM13.3611 11.7935C13.4525 12.3323 13.7315 12.8215 14.1488 13.1745L16.3446 10.5787C16.5399 10.7438 16.6704 10.9727 16.7132 11.2248L13.3611 11.7935ZM14.1488 13.1745C14.5661 13.5275 15.0947 13.7215 15.6413 13.7223L15.6463 10.3223C15.902 10.3227 16.1494 10.4135 16.3446 10.5787L14.1488 13.1745ZM15.6445 13.7223C15.774 13.7223 15.9032 13.7114 16.0308 13.6898L15.4642 10.3374C15.5233 10.3274 15.5831 10.3224 15.643 10.3223L15.6445 13.7223ZM16.0316 13.6897C16.3314 13.6389 16.6184 13.5295 16.876 13.3678L15.0682 10.4882C15.1888 10.4125 15.3231 10.3613 15.4634 10.3375L16.0316 13.6897ZM16.876 13.3678C17.1336 13.2061 17.3568 12.9952 17.5329 12.7472L14.7608 10.7786C14.8432 10.6625 14.9477 10.5638 15.0682 10.4882L16.876 13.3678ZM17.5329 12.7472C17.709 12.4992 17.8346 12.2189 17.9024 11.9224L14.5879 11.1646C14.6196 11.0258 14.6784 10.8947 14.7608 10.7786L17.5329 12.7472ZM17.9024 11.9224C17.9702 11.6259 17.9789 11.319 17.928 11.0191L14.5759 11.5874C14.5521 11.447 14.5562 11.3033 14.5879 11.1646L17.9024 11.9224Z" fill="#FFCA00" mask="url(#path-1-inside-1_2056_32166)"/>
<path d="M12 3.375V1.5" stroke="#FFCA00" stroke-width="1.7" stroke-linecap="round" stroke-linejoin="round"/>
<path d="M5.90127 5.90102L4.57544 4.5752" stroke="#FFCA00" stroke-width="1.7" stroke-linecap="round" stroke-linejoin="round"/>
<path d="M3.375 12H1.5" stroke="#FFCA00" stroke-width="1.7" stroke-linecap="round" stroke-linejoin="round"/>
<path d="M20.625 12H22.5" stroke="#FFCA00" stroke-width="1.7" stroke-linecap="round" stroke-linejoin="round"/>
<path d="M18.0989 5.90102L19.4247 4.5752" stroke="#FFCA00" stroke-width="1.7" stroke-linecap="round" stroke-linejoin="round"/>
</svg>
