<svg width="232" height="222" viewBox="0 0 232 222" fill="none" xmlns="http://www.w3.org/2000/svg">
<g opacity="0.1">
<path d="M116 187.667C158.342 187.667 192.667 153.342 192.667 111.001C192.667 68.6588 158.342 34.334 116 34.334C73.6583 34.334 39.3335 68.6588 39.3335 111.001C39.3335 153.342 73.6583 187.667 116 187.667Z" stroke="#FF6C3E" stroke-width="20" stroke-miterlimit="10"/>
<path d="M22.0779 63.083C14.7288 77.4593 10.5835 93.7454 10.5835 111C10.5835 128.254 14.7288 144.54 22.0779 158.916" stroke="#FF6C3E" stroke-width="20" stroke-miterlimit="10" stroke-linecap="round"/>
<path d="M209.922 63.083C217.271 77.4593 221.417 93.7454 221.417 111C221.417 128.254 217.271 144.54 209.922 158.916" stroke="#FF6C3E" stroke-width="20" stroke-miterlimit="10" stroke-linecap="round"/>
<path d="M116 67.875V118.188" stroke="#FF6C3E" stroke-width="20" stroke-linecap="round" stroke-linejoin="round"/>
<path d="M116 161.313C121.954 161.313 126.781 156.486 126.781 150.531C126.781 144.577 121.954 139.75 116 139.75C110.046 139.75 105.219 144.577 105.219 150.531C105.219 156.486 110.046 161.313 116 161.313Z" fill="#FF6C3E"/>
</g>
</svg>
