<svg width="40" height="40" viewBox="0 0 40 40" fill="none" xmlns="http://www.w3.org/2000/svg">
<path d="M8.33331 20C8.33331 21.5321 8.63508 23.0492 9.22138 24.4646C9.80769 25.8801 10.6671 27.1662 11.7504 28.2496C12.8338 29.3329 14.1199 30.1923 15.5353 30.7786C16.9508 31.3649 18.4679 31.6666 20 31.6666C21.5321 31.6666 23.0492 31.3649 24.4646 30.7786C25.8801 30.1923 27.1662 29.3329 28.2496 28.2496C29.3329 27.1662 30.1923 25.8801 30.7786 24.4646C31.3649 23.0492 31.6666 21.5321 31.6666 20M8.33331 20C8.33331 18.4679 8.63508 16.9508 9.22138 15.5353C9.80769 14.1199 10.6671 12.8338 11.7504 11.7504C12.8338 10.6671 14.1199 9.80769 15.5353 9.22138C16.9508 8.63508 18.4679 8.33331 20 8.33331C21.5321 8.33331 23.0492 8.63508 24.4646 9.22138C25.8801 9.80769 27.1662 10.6671 28.2496 11.7504C29.3329 12.8338 30.1923 14.1199 30.7786 15.5353C31.3649 16.9508 31.6666 18.4679 31.6666 20M8.33331 20H3.33331M31.6666 20H36.6666M16.6666 23.3333V16.6666L20 20L23.3333 16.6666V23.3333" stroke="current" stroke-width="3" stroke-linecap="round" stroke-linejoin="round"/>
</svg>