<svg width="40" height="40" viewBox="0 0 40 40" fill="none" xmlns="http://www.w3.org/2000/svg">
<path d="M22.3501 17.65L26.6667 13.3333M11.6667 20C11.6667 17.7899 12.5446 15.6702 14.1074 14.1074C15.6702 12.5446 17.7899 11.6667 20 11.6667M5 20C5 21.9698 5.38799 23.9204 6.14181 25.7403C6.89563 27.5601 8.00052 29.2137 9.3934 30.6066C10.7863 31.9995 12.4399 33.1044 14.2597 33.8582C16.0796 34.612 18.0302 35 20 35C21.9698 35 23.9204 34.612 25.7403 33.8582C27.5601 33.1044 29.2137 31.9995 30.6066 30.6066C31.9995 29.2137 33.1044 27.5601 33.8582 25.7403C34.612 23.9204 35 21.9698 35 20C35 18.0302 34.612 16.0796 33.8582 14.2597C33.1044 12.4399 31.9995 10.7863 30.6066 9.3934C29.2137 8.00052 27.5601 6.89563 25.7403 6.14181C23.9204 5.38799 21.9698 5 20 5C18.0302 5 16.0796 5.38799 14.2597 6.14181C12.4399 6.89563 10.7863 8.00052 9.3934 9.3934C8.00052 10.7863 6.89563 12.4399 6.14181 14.2597C5.38799 16.0796 5 18.0302 5 20ZM18.3333 20C18.3333 20.442 18.5089 20.8659 18.8215 21.1785C19.134 21.4911 19.558 21.6667 20 21.6667C20.442 21.6667 20.8659 21.4911 21.1785 21.1785C21.4911 20.8659 21.6667 20.442 21.6667 20C21.6667 19.558 21.4911 19.134 21.1785 18.8215C20.8659 18.5089 20.442 18.3333 20 18.3333C19.558 18.3333 19.134 18.5089 18.8215 18.8215C18.5089 19.134 18.3333 19.558 18.3333 20Z" stroke="current" stroke-width="3" stroke-linecap="round" stroke-linejoin="round"/>
</svg>