<svg width="230" height="222" viewBox="0 0 230 222" fill="none" xmlns="http://www.w3.org/2000/svg">
<g opacity="0.1">
<path d="M115 89.4375V125.375" stroke="#DA1E28" stroke-width="20" stroke-linecap="round" stroke-linejoin="round"/>
<path d="M102.559 31.9238L23.5178 168.479C22.2531 170.664 21.5861 173.144 21.584 175.669C21.5819 178.193 22.2448 180.674 23.5059 182.861C24.7671 185.048 26.582 186.865 28.7681 188.128C30.9542 189.391 33.4343 190.056 35.959 190.056H194.041C196.566 190.056 199.046 189.391 201.232 188.128C203.418 186.865 205.233 185.048 206.494 182.861C207.756 180.674 208.418 178.193 208.416 175.669C208.414 173.144 207.747 170.664 206.483 168.479L127.441 31.9238C126.179 29.7422 124.364 27.931 122.181 26.6719C119.997 25.4128 117.521 24.75 115 24.75C112.48 24.75 110.003 25.4128 107.82 26.6719C105.636 27.931 103.822 29.7422 102.559 31.9238V31.9238Z" stroke="#DA1E28" stroke-width="20" stroke-linecap="round" stroke-linejoin="round"/>
<path d="M115 168.5C120.954 168.5 125.781 163.673 125.781 157.719C125.781 151.764 120.954 146.938 115 146.938C109.046 146.938 104.219 151.764 104.219 157.719C104.219 163.673 109.046 168.5 115 168.5Z" fill="#DA1E28"/>
</g>
</svg>
