<svg width="24" height="24" viewBox="0 0 24 24" fill="none" xmlns="http://www.w3.org/2000/svg">
<path d="M12.3592 7.91475C12.0957 7.3246 11.7081 6.79813 11.2229 6.37116C10.7377 5.9442 10.1662 5.62674 9.54734 5.44039C8.92847 5.25405 8.27672 5.20318 7.63642 5.29125C6.99613 5.37932 6.38231 5.60426 5.83673 5.95078C5.29115 6.2973 4.8266 6.75725 4.47468 7.29937C4.12277 7.84148 3.89174 8.45303 3.79731 9.09242C3.70289 9.73181 3.74728 10.384 3.92748 11.0047C4.10767 11.6254 4.41943 12.2 4.84156 12.6895L4.84142 12.6892C5.36945 12.3389 5.97095 12.1147 6.59945 12.0338C7.22795 11.953 7.86662 12.0177 8.46612 12.223L8.4661 12.223C8.7286 11.2484 9.21824 10.3498 9.89491 9.60094C10.5716 8.85204 11.416 8.2741 12.3591 7.91446L12.3592 7.91475Z" fill="#FFD599"/>
<path d="M7.46859 5.31848L7.07788 3.10266" stroke="#FF9500" stroke-width="1.7" stroke-linecap="round" stroke-linejoin="round"/>
<path d="M4.56428 7.16787L2.72119 5.87732" stroke="#FF9500" stroke-width="1.7" stroke-linecap="round" stroke-linejoin="round"/>
<path d="M3.81836 10.5293L1.60254 10.92" stroke="#FF9500" stroke-width="1.7" stroke-linecap="round" stroke-linejoin="round"/>
<path d="M10.8298 6.06428L12.1204 4.22119" stroke="#FF9500" stroke-width="1.7" stroke-linecap="round" stroke-linejoin="round"/>
<path d="M4.84163 12.6894C4.41942 12.2 4.10758 11.6254 3.92733 11.0047C3.74708 10.3839 3.70264 9.73165 3.79704 9.09221C3.89144 8.45277 4.12246 7.84117 4.47439 7.29901C4.82632 6.75684 5.2909 6.29684 5.83652 5.9503C6.38214 5.60376 6.996 5.37881 7.63635 5.29075C8.27669 5.20268 8.92849 5.25358 9.5474 5.43997C10.1663 5.62637 10.7378 5.94388 11.223 6.37092C11.7082 6.79795 12.0958 7.32449 12.3593 7.91471" stroke="#FF9500" stroke-width="1.7" stroke-linecap="round" stroke-linejoin="round"/>
<path d="M8.24995 13.875C8.24995 12.6141 8.62384 11.3816 9.32434 10.3332C10.0248 9.28488 11.0205 8.46778 12.1853 7.98527C13.3502 7.50276 14.632 7.37652 15.8687 7.6225C17.1053 7.86848 18.2412 8.47564 19.1328 9.3672C20.0243 10.2588 20.6315 11.3947 20.8775 12.6313C21.1234 13.8679 20.9972 15.1497 20.5147 16.3146C20.0322 17.4795 19.2151 18.4751 18.1667 19.1756C17.1184 19.8761 15.8858 20.25 14.625 20.25H7.12495C6.52602 20.2495 5.93438 20.1186 5.39116 19.8663C4.84793 19.6141 4.36615 19.2466 3.9793 18.7893C3.59245 18.3321 3.30981 17.7961 3.15103 17.2186C2.99224 16.6411 2.96112 16.036 3.05982 15.4452C3.15852 14.8545 3.38468 14.2923 3.72258 13.7978C4.06048 13.3033 4.50201 12.8883 5.01649 12.5816C5.53097 12.275 6.10606 12.0841 6.70178 12.0221C7.2975 11.9602 7.89956 12.0287 8.46613 12.2229" fill="#CCE5FF"/>
<path d="M8.24995 13.875C8.24995 12.6141 8.62384 11.3816 9.32434 10.3332C10.0248 9.28488 11.0205 8.46778 12.1853 7.98527C13.3502 7.50276 14.632 7.37652 15.8687 7.6225C17.1053 7.86848 18.2412 8.47564 19.1328 9.3672C20.0243 10.2588 20.6315 11.3947 20.8775 12.6313C21.1234 13.8679 20.9972 15.1497 20.5147 16.3146C20.0322 17.4795 19.2151 18.4751 18.1667 19.1756C17.1184 19.8761 15.8858 20.25 14.625 20.25H7.12495C6.52602 20.2495 5.93438 20.1186 5.39116 19.8663C4.84793 19.6141 4.36615 19.2466 3.9793 18.7893C3.59245 18.3321 3.30981 17.7961 3.15103 17.2186C2.99224 16.6411 2.96112 16.036 3.05982 15.4452C3.15852 14.8545 3.38468 14.2923 3.72258 13.7978C4.06048 13.3033 4.50201 12.8883 5.01649 12.5816C5.53097 12.275 6.10606 12.0841 6.70178 12.0221C7.2975 11.9602 7.89956 12.0287 8.46613 12.2229" stroke="#007BFF" stroke-width="1.7" stroke-linecap="round" stroke-linejoin="round"/>
</svg>
