<svg width="24" height="24" viewBox="0 0 24 24" fill="none" xmlns="http://www.w3.org/2000/svg">
<path d="M8.46621 12.223C8.74588 11.1844 9.28326 10.2333 10.0285 9.45778C10.7737 8.68226 11.7027 8.10746 12.7293 7.78667L12.7435 7.78241C12.7479 7.68884 12.75 7.59472 12.7501 7.50006C12.7499 6.14296 12.2899 4.82594 11.4451 3.76389C10.6003 2.70183 9.42044 1.95742 8.09813 1.6521L8.09805 1.65212C8.32547 2.64356 8.29732 3.67653 8.01626 4.65412C7.73519 5.63171 7.21041 6.52188 6.49115 7.24115C5.77189 7.96041 4.88171 8.48519 3.90412 8.76626C2.92653 9.04732 1.89357 9.07547 0.902121 8.84805L0.9021 8.84814C1.1157 9.77107 1.54437 10.6305 2.15318 11.3563C2.76198 12.0821 3.53368 12.6537 4.40537 13.0246L4.40483 13.024C4.95151 12.5451 5.61488 12.2188 6.32797 12.0781C7.04105 11.9375 7.77862 11.9875 8.46623 12.223L8.46621 12.223Z" fill="white"/>
<path d="M8.24995 13.875C8.24995 12.6141 8.62384 11.3816 9.32434 10.3332C10.0248 9.28488 11.0205 8.46778 12.1853 7.98527C13.3502 7.50276 14.632 7.37652 15.8687 7.6225C17.1053 7.86848 18.2412 8.47564 19.1328 9.3672C20.0243 10.2588 20.6315 11.3947 20.8775 12.6313C21.1234 13.8679 20.9972 15.1497 20.5147 16.3146C20.0322 17.4795 19.2151 18.4751 18.1667 19.1756C17.1184 19.8761 15.8858 20.25 14.625 20.25H7.12495C6.52602 20.2495 5.93438 20.1186 5.39116 19.8663C4.84793 19.6141 4.36615 19.2466 3.9793 18.7893C3.59245 18.3321 3.30981 17.7961 3.15103 17.2186C2.99224 16.6411 2.96112 16.036 3.05982 15.4452C3.15852 14.8545 3.38468 14.2923 3.72258 13.7978C4.06048 13.3033 4.50201 12.8883 5.01649 12.5816C5.53097 12.275 6.10606 12.0841 6.70178 12.0221C7.2975 11.9602 7.89956 12.0287 8.46613 12.2229" fill="#BABABA"/>
<path d="M8.24995 13.875C8.24995 12.6141 8.62384 11.3816 9.32434 10.3332C10.0248 9.28488 11.0205 8.46778 12.1853 7.98527C13.3502 7.50276 14.632 7.37652 15.8687 7.6225C17.1053 7.86848 18.2412 8.47564 19.1328 9.3672C20.0243 10.2588 20.6315 11.3947 20.8775 12.6313C21.1234 13.8679 20.9972 15.1497 20.5147 16.3146C20.0322 17.4795 19.2151 18.4751 18.1667 19.1756C17.1184 19.8761 15.8858 20.25 14.625 20.25H7.12495C6.52602 20.2495 5.93438 20.1186 5.39116 19.8663C4.84793 19.6141 4.36615 19.2466 3.9793 18.7893C3.59245 18.3321 3.30981 17.7961 3.15103 17.2186C2.99224 16.6411 2.96112 16.036 3.05982 15.4452C3.15852 14.8545 3.38468 14.2923 3.72258 13.7978C4.06048 13.3033 4.50201 12.8883 5.01649 12.5816C5.53097 12.275 6.10606 12.0841 6.70178 12.0221C7.2975 11.9602 7.89956 12.0287 8.46613 12.2229" stroke="#585757" stroke-width="1.7" stroke-linecap="round" stroke-linejoin="round"/>
<path d="M4.40537 13.0246C3.53368 12.6537 2.76198 12.0821 2.15318 11.3563C1.54437 10.6305 1.1157 9.77107 0.9021 8.84814L0.902121 8.84804C1.89356 9.07546 2.92653 9.04732 3.90412 8.76625C4.88171 8.48518 5.77188 7.96041 6.49114 7.24114C7.21041 6.52188 7.73518 5.6317 8.01625 4.65411C8.29732 3.67652 8.32546 2.64356 8.09804 1.65212L8.09812 1.6521C9.42043 1.95742 10.6003 2.70183 11.4451 3.76388C12.2899 4.82594 12.7499 6.14295 12.7501 7.50006C12.7501 7.5947 12.7479 7.68882 12.7435 7.78241" stroke="#585757" stroke-width="1.7" stroke-linecap="round" stroke-linejoin="round"/>
</svg>
