<svg width="50" height="50" viewBox="0 0 512 512" fill="none" xmlns="http://www.w3.org/2000/svg">
<path d="M227.784 362.326L234.5 318H276.5L268.832 349.95C268.153 352.78 270.298 355.5 273.208 355.5H277.136C280.721 355.5 282.866 359.488 280.891 362.48L233 435L249.491 373.159C250.253 370.303 248.099 367.5 245.143 367.5H232.233C229.479 367.5 227.371 365.049 227.784 362.326Z" fill="url(#paint0_linear_611_6064)"/>
<g filter="url(#filter0_bdi_611_6064)">
<path fill-rule="evenodd" clip-rule="evenodd" d="M344 318H161V317.984C160.501 317.995 160.001 318 159.5 318C122.221 318 92 287.779 92 250.5C92 225.201 105.918 203.153 126.515 191.594C126.505 190.981 126.5 190.366 126.5 189.75C126.5 128.032 176.532 78 238.25 78C291.487 78 336.029 115.226 347.265 165.068C388 166.779 420.5 200.344 420.5 241.5C420.5 281.731 389.445 314.708 350 317.768V318H344Z" fill="url(#paint1_radial_611_6064)" fill-opacity="0.77"/>
</g>
<g style="mix-blend-mode:soft-light" filter="url(#filter1_di_611_6064)">
<circle cx="159.5" cy="250.5" r="67.5" fill="#848484"/>
</g>
<mask id="mask0_611_6064" style="mask-type:alpha" maskUnits="userSpaceOnUse" x="92" y="78" width="329" height="240">
<path fill-rule="evenodd" clip-rule="evenodd" d="M161 317.984C160.501 317.995 160.001 318 159.5 318C122.221 318 92 287.779 92 250.5C92 225.201 105.918 203.153 126.515 191.594C126.505 190.981 126.5 190.366 126.5 189.75C126.5 128.032 176.532 78 238.25 78C291.487 78 336.029 115.226 347.265 165.068C388 166.779 420.5 200.344 420.5 241.5C420.5 283.75 386.25 318 344 318C341.981 318 339.98 317.922 338 317.768V318H161V317.984Z" fill="url(#paint2_radial_611_6064)" fill-opacity="0.77"/>
</mask>
<g mask="url(#mask0_611_6064)">
<g filter="url(#filter2_f_611_6064)">
<path d="M252.5 261C212.816 290.219 176.771 310.508 153.5 318H359C334.014 318 281.283 278.325 252.5 261Z" fill="url(#paint3_radial_611_6064)"/>
</g>
<g style="mix-blend-mode:screen" filter="url(#filter3_f_611_6064)">
<path d="M263 235.5C236.673 249.86 198.939 317.318 183.5 321H341C324.424 321 282.095 244.015 263 235.5Z" fill="url(#paint4_linear_611_6064)"/>
</g>
<g style="mix-blend-mode:screen" filter="url(#filter4_f_611_6064)">
<path d="M255.5 253.5C238.672 263.103 214.368 318.538 204.5 321L305 318C294.405 318 267.705 259.194 255.5 253.5Z" fill="url(#paint5_linear_611_6064)"/>
</g>
</g>
<defs>
<filter id="filter0_bdi_611_6064" x="44" y="54" width="424.5" height="336" filterUnits="userSpaceOnUse" color-interpolation-filters="sRGB">
<feFlood flood-opacity="0" result="BackgroundImageFix"/>
<feGaussianBlur in="BackgroundImageFix" stdDeviation="12"/>
<feComposite in2="SourceAlpha" operator="in" result="effect1_backgroundBlur_611_6064"/>
<feColorMatrix in="SourceAlpha" type="matrix" values="0 0 0 0 0 0 0 0 0 0 0 0 0 0 0 0 0 0 127 0" result="hardAlpha"/>
<feOffset dy="24"/>
<feGaussianBlur stdDeviation="24"/>
<feColorMatrix type="matrix" values="0 0 0 0 0 0 0 0 0 0.2015 0 0 0 0 0.3875 0 0 0 0.2 0"/>
<feBlend mode="normal" in2="effect1_backgroundBlur_611_6064" result="effect2_dropShadow_611_6064"/>
<feBlend mode="normal" in="SourceGraphic" in2="effect2_dropShadow_611_6064" result="shape"/>
<feColorMatrix in="SourceAlpha" type="matrix" values="0 0 0 0 0 0 0 0 0 0 0 0 0 0 0 0 0 0 127 0" result="hardAlpha"/>
<feOffset dx="1.5" dy="3"/>
<feGaussianBlur stdDeviation="10.5"/>
<feComposite in2="hardAlpha" operator="arithmetic" k2="-1" k3="1"/>
<feColorMatrix type="matrix" values="0 0 0 0 1 0 0 0 0 1 0 0 0 0 1 0 0 0 1 0"/>
<feBlend mode="normal" in2="shape" result="effect3_innerShadow_611_6064"/>
</filter>
<filter id="filter1_di_611_6064" x="80" y="159" width="180" height="177" filterUnits="userSpaceOnUse" color-interpolation-filters="sRGB">
<feFlood flood-opacity="0" result="BackgroundImageFix"/>
<feColorMatrix in="SourceAlpha" type="matrix" values="0 0 0 0 0 0 0 0 0 0 0 0 0 0 0 0 0 0 127 0" result="hardAlpha"/>
<feOffset dx="-3" dy="-15"/>
<feGaussianBlur stdDeviation="4.5"/>
<feColorMatrix type="matrix" values="0 0 0 0 0 0 0 0 0 0 0 0 0 0 0 0 0 0 0.22 0"/>
<feBlend mode="normal" in2="BackgroundImageFix" result="effect1_dropShadow_611_6064"/>
<feBlend mode="normal" in="SourceGraphic" in2="effect1_dropShadow_611_6064" result="shape"/>
<feColorMatrix in="SourceAlpha" type="matrix" values="0 0 0 0 0 0 0 0 0 0 0 0 0 0 0 0 0 0 127 0" result="hardAlpha"/>
<feOffset dx="33" dy="18"/>
<feGaussianBlur stdDeviation="16.5"/>
<feComposite in2="hardAlpha" operator="arithmetic" k2="-1" k3="1"/>
<feColorMatrix type="matrix" values="0 0 0 0 1 0 0 0 0 1 0 0 0 0 1 0 0 0 0.74 0"/>
<feBlend mode="normal" in2="shape" result="effect2_innerShadow_611_6064"/>
</filter>
<filter id="filter2_f_611_6064" x="141.5" y="249" width="229.5" height="81" filterUnits="userSpaceOnUse" color-interpolation-filters="sRGB">
<feFlood flood-opacity="0" result="BackgroundImageFix"/>
<feBlend mode="normal" in="SourceGraphic" in2="BackgroundImageFix" result="shape"/>
<feGaussianBlur stdDeviation="6" result="effect1_foregroundBlur_611_6064"/>
</filter>
<filter id="filter3_f_611_6064" x="177.5" y="229.5" width="169.5" height="97.5" filterUnits="userSpaceOnUse" color-interpolation-filters="sRGB">
<feFlood flood-opacity="0" result="BackgroundImageFix"/>
<feBlend mode="normal" in="SourceGraphic" in2="BackgroundImageFix" result="shape"/>
<feGaussianBlur stdDeviation="3" result="effect1_foregroundBlur_611_6064"/>
</filter>
<filter id="filter4_f_611_6064" x="198.5" y="247.5" width="112.5" height="79.5" filterUnits="userSpaceOnUse" color-interpolation-filters="sRGB">
<feFlood flood-opacity="0" result="BackgroundImageFix"/>
<feBlend mode="normal" in="SourceGraphic" in2="BackgroundImageFix" result="shape"/>
<feGaussianBlur stdDeviation="3" result="effect1_foregroundBlur_611_6064"/>
</filter>
<linearGradient id="paint0_linear_611_6064" x1="260.1" y1="318" x2="260.1" y2="396" gradientUnits="userSpaceOnUse">
<stop stop-color="#E2BC38"/>
<stop offset="1" stop-color="#FFE244"/>
</linearGradient>
<radialGradient id="paint1_radial_611_6064" cx="0" cy="0" r="1" gradientUnits="userSpaceOnUse" gradientTransform="translate(207.747 129.172) rotate(90.6693) scale(188.743 215.381)">
<stop stop-color="white"/>
<stop offset="1" stop-color="#99CEFF"/>
</radialGradient>
<radialGradient id="paint2_radial_611_6064" cx="0" cy="0" r="1" gradientUnits="userSpaceOnUse" gradientTransform="translate(207.747 129.172) rotate(90.6693) scale(188.743 215.381)">
<stop stop-color="white"/>
<stop offset="1" stop-color="#99CEFF"/>
</radialGradient>
<radialGradient id="paint3_radial_611_6064" cx="0" cy="0" r="1" gradientUnits="userSpaceOnUse" gradientTransform="translate(271.833 311.679) rotate(-90) scale(32.309 166.911)">
<stop stop-color="#FFDE41"/>
<stop offset="1" stop-color="#FFD200" stop-opacity="0"/>
</radialGradient>
<linearGradient id="paint4_linear_611_6064" x1="266.484" y1="319.332" x2="266.484" y2="308.313" gradientUnits="userSpaceOnUse">
<stop stop-color="#FFDE41"/>
<stop offset="1" stop-color="#FFD200" stop-opacity="0"/>
</linearGradient>
<linearGradient id="paint5_linear_611_6064" x1="257.542" y1="319.837" x2="257.542" y2="304.616" gradientUnits="userSpaceOnUse">
<stop stop-color="#FFDE41"/>
<stop offset="1" stop-color="#FFD200" stop-opacity="0"/>
</linearGradient>
</defs>
</svg>
