<svg width="16" height="16" viewBox="0 0 16 16" fill="none" xmlns="http://www.w3.org/2000/svg">
<path d="M2 2V14H14M6.77332 7.08L8.33332 9M10.0587 8.88533L11.95 5.828M4.66667 6C4.66667 6.35362 4.80714 6.69276 5.05719 6.94281C5.30724 7.19286 5.64638 7.33333 6 7.33333C6.35362 7.33333 6.69276 7.19286 6.94281 6.94281C7.19286 6.69276 7.33333 6.35362 7.33333 6C7.33333 5.64638 7.19286 5.30724 6.94281 5.05719C6.69276 4.80714 6.35362 4.66667 6 4.66667C5.64638 4.66667 5.30724 4.80714 5.05719 5.05719C4.80714 5.30724 4.66667 5.64638 4.66667 6ZM11.3333 4.66667C11.3333 5.02029 11.4738 5.35943 11.7239 5.60948C11.9739 5.85952 12.313 6 12.6667 6C13.0203 6 13.3594 5.85952 13.6095 5.60948C13.8595 5.35943 14 5.02029 14 4.66667C14 4.31304 13.8595 3.97391 13.6095 3.72386C13.3594 3.47381 13.0203 3.33333 12.6667 3.33333C12.313 3.33333 11.9739 3.47381 11.7239 3.72386C11.4738 3.97391 11.3333 4.31304 11.3333 4.66667ZM8 10C8 10.3536 8.14048 10.6928 8.39052 10.9428C8.64057 11.1929 8.97971 11.3333 9.33333 11.3333C9.68696 11.3333 10.0261 11.1929 10.2761 10.9428C10.5262 10.6928 10.6667 10.3536 10.6667 10C10.6667 9.64638 10.5262 9.30724 10.2761 9.05719C10.0261 8.80714 9.68696 8.66667 9.33333 8.66667C8.97971 8.66667 8.64057 8.80714 8.39052 9.05719C8.14048 9.30724 8 9.64638 8 10Z" stroke="#0090FF" stroke-width="1.5" stroke-linecap="round" stroke-linejoin="round"/>
</svg>
