<svg width="14" height="14" viewBox="0 0 14 14" fill="none" xmlns="http://www.w3.org/2000/svg">
<path d="M9.66602 4.33341V3.00008C9.66602 2.64646 9.52554 2.30732 9.27549 2.05727C9.02544 1.80722 8.6863 1.66675 8.33268 1.66675H2.99935C2.64573 1.66675 2.30659 1.80722 2.05654 2.05727C1.80649 2.30732 1.66602 2.64646 1.66602 3.00008V8.33341C1.66602 8.68704 1.80649 9.02617 2.05654 9.27622C2.30659 9.52627 2.64573 9.66675 2.99935 9.66675H4.33268M4.33268 5.66675C4.33268 5.31313 4.47316 4.97399 4.72321 4.72394C4.97326 4.47389 5.31239 4.33341 5.66602 4.33341H10.9993C11.353 4.33341 11.6921 4.47389 11.9422 4.72394C12.1922 4.97399 12.3327 5.31313 12.3327 5.66675V11.0001C12.3327 11.3537 12.1922 11.6928 11.9422 11.9429C11.6921 12.1929 11.353 12.3334 10.9993 12.3334H5.66602C5.31239 12.3334 4.97326 12.1929 4.72321 11.9429C4.47316 11.6928 4.33268 11.3537 4.33268 11.0001V5.66675Z" stroke="current" stroke-width="1.5" stroke-linecap="round" stroke-linejoin="round"/>
</svg>
