<svg width="14" height="14" viewBox="0 0 14 14" fill="none" xmlns="http://www.w3.org/2000/svg">
<path d="M1.66602 3.66667H12.3327M5.66602 6.33333V10.3333M8.33268 6.33333V10.3333M2.33268 3.66667L2.99935 11.6667C2.99935 12.0203 3.13982 12.3594 3.38987 12.6095C3.63992 12.8595 3.97906 13 4.33268 13H9.66602C10.0196 13 10.3588 12.8595 10.6088 12.6095C10.8589 12.3594 10.9993 12.0203 10.9993 11.6667L11.666 3.66667M4.99935 3.66667V1.66667C4.99935 1.48986 5.06959 1.32029 5.19461 1.19526C5.31964 1.07024 5.4892 1 5.66602 1H8.33268C8.50949 1 8.67906 1.07024 8.80409 1.19526C8.92911 1.32029 8.99935 1.48986 8.99935 1.66667V3.66667" stroke="#CE2C31" stroke-width="1.5" stroke-linecap="round" stroke-linejoin="round"/>
</svg>
