<svg width="16" height="16" viewBox="0 0 16 16" fill="none" xmlns="http://www.w3.org/2000/svg">
<path d="M8.66667 4.66667H3.33333C2.97971 4.66667 2.64057 4.80714 2.39052 5.05719C2.14048 5.30724 2 5.64638 2 6V10.6667C2 11.0203 2.14048 11.3594 2.39052 11.6095C2.64057 11.8595 2.97971 12 3.33333 12H12C12.3536 12 12.6928 11.8595 12.9428 11.6095C13.1929 11.3594 13.3333 11.0203 13.3333 10.6667V9.33333M11.3333 10V9.33333M10.6667 5.66667C10.6667 6.10869 10.8423 6.53262 11.1548 6.84518C11.4674 7.15774 11.8913 7.33333 12.3333 7.33333C12.7754 7.33333 13.1993 7.15774 13.5118 6.84518C13.8244 6.53262 14 6.10869 14 5.66667C14 5.22464 13.8244 4.80072 13.5118 4.48816C13.1993 4.17559 12.7754 4 12.3333 4C11.8913 4 11.4674 4.17559 11.1548 4.48816C10.8423 4.80072 10.6667 5.22464 10.6667 5.66667Z" stroke="#202020" stroke-width="1.5" stroke-linecap="round" stroke-linejoin="round"/>
</svg>
