<svg width="16" height="16" viewBox="0 0 16 16" fill="none" xmlns="http://www.w3.org/2000/svg">
<path d="M9.33301 2V4.66667C9.33301 4.84348 9.40325 5.01305 9.52827 5.13807C9.65329 5.2631 9.82286 5.33333 9.99967 5.33333H12.6663M9.33301 2H4.66634C4.31272 2 3.97358 2.14048 3.72353 2.39052C3.47348 2.64057 3.33301 2.97971 3.33301 3.33333V8.66667M9.33301 2L12.6663 5.33333M12.6663 5.33333V12.6667C12.6663 13.0203 12.5259 13.3594 12.2758 13.6095C12.0258 13.8595 11.6866 14 11.333 14H7.66634M1.33301 12.6667H5.99967M5.99967 12.6667L3.99967 10.6667M5.99967 12.6667L3.99967 14.6667" stroke="#202020" stroke-width="1.5" stroke-linecap="round" stroke-linejoin="round"/>
</svg>
