<svg width="16" height="16" viewBox="0 0 16 16" fill="none" xmlns="http://www.w3.org/2000/svg">
<path d="M8 11.0001V14.0001M8 11.0001L10.6667 9.33339M8 11.0001L5.33333 9.33339M3 5.00006L5.33333 6.66673M5.33333 6.66673L8 5.00006M5.33333 6.66673V9.33339M10.6667 6.66673L13.3333 5.00006M10.6667 6.66673V9.33339M10.6667 6.66673L8 5.00006M8 5.00006V8.00006M8 8.00006L5.33333 9.33339M8 8.00006L10.6667 9.33339M12.6667 4.56272C12.871 4.68123 13.0403 4.85173 13.1574 5.05687C13.2745 5.26202 13.3352 5.49451 13.3333 5.73072V10.1007C13.3333 10.5861 13.0707 11.0334 12.6467 11.2694L8.64668 13.8321C8.44865 13.942 8.22587 13.9997 7.99935 13.9997C7.77283 13.9997 7.55005 13.942 7.35202 13.8321L3.35202 11.2694C3.14408 11.1534 2.97088 10.9839 2.85029 10.7786C2.7297 10.5733 2.66609 10.3395 2.66602 10.1014V5.73072C2.66602 5.24472 2.92868 4.79739 3.35202 4.56205L7.35202 2.17339C7.55576 2.05953 7.78528 1.99976 8.01868 1.99976C8.25208 1.99976 8.4816 2.05953 8.68535 2.17339L12.6853 4.56272H12.6653H12.6667Z" stroke="#202020" stroke-width="1.5" stroke-linecap="round" stroke-linejoin="round"/>
</svg>
