<svg width="14" height="14" viewBox="0 0 14 14" fill="none" xmlns="http://www.w3.org/2000/svg">
<path d="M11.6667 4.51199C11.8694 4.62901 12.0377 4.79732 12.1548 5.00001C12.2718 5.20269 12.3334 5.43261 12.3334 5.66666V11C12.3334 11.3536 12.1929 11.6927 11.9429 11.9428C11.6928 12.1928 11.3537 12.3333 11.0001 12.3333H5.66675C5.31313 12.3333 4.97399 12.1928 4.72394 11.9428C4.47389 11.6927 4.33341 11.3536 4.33341 11V5.66666C4.33341 5.31303 4.47389 4.9739 4.72394 4.72385C4.97399 4.4738 5.31313 4.33332 5.66675 4.33332H7.66675M2.33342 9.48932C2.13053 9.37219 1.96209 9.20367 1.84506 9.00073C1.72802 8.79779 1.66652 8.56759 1.66675 8.33332V2.99999C1.66675 2.64637 1.80722 2.30723 2.05727 2.05718C2.30732 1.80713 2.64646 1.66666 3.00008 1.66666H8.33341C8.68704 1.66666 9.02618 1.80713 9.27622 2.05718C9.52627 2.30723 9.66675 2.64637 9.66675 2.99999V8.33332C9.66675 8.68694 9.52627 9.02608 9.27622 9.27613C9.02618 9.52618 8.68704 9.66666 8.33341 9.66666H6.33342" stroke="#202020" stroke-width="1.5" stroke-linecap="round" stroke-linejoin="round"/>
</svg>
