<svg width="16" height="16" viewBox="0 0 16 16" fill="none" xmlns="http://www.w3.org/2000/svg">
<path d="M1.78609 2L6.11942 14C6.14867 14.0638 6.19563 14.1179 6.25472 14.1558C6.31381 14.1938 6.38254 14.2139 6.45275 14.2139C6.52296 14.2139 6.5917 14.1938 6.65079 14.1558C6.70988 14.1179 6.75684 14.0638 6.78609 14L9.11942 9.33333L13.7861 7C13.8499 6.97075 13.904 6.92379 13.9419 6.8647C13.9798 6.80561 14 6.73688 14 6.66667C14 6.59646 13.9798 6.52772 13.9419 6.46863C13.904 6.40954 13.8499 6.36258 13.7861 6.33333L1.78609 2Z" stroke="current" stroke-width="1.5" stroke-linecap="round" stroke-linejoin="round"/>
</svg>
