<svg width="14" height="14" viewBox="0 0 14 14" fill="none" xmlns="http://www.w3.org/2000/svg">
<path d="M0.786085 1L5.11942 13C5.14867 13.0638 5.19563 13.1179 5.25472 13.1558C5.31381 13.1938 5.38254 13.2139 5.45275 13.2139C5.52296 13.2139 5.5917 13.1938 5.65079 13.1558C5.70988 13.1179 5.75684 13.0638 5.78609 13L8.11942 8.33333L12.7861 6C12.8499 5.97075 12.904 5.92379 12.9419 5.8647C12.9798 5.80561 13 5.73688 13 5.66667C13 5.59646 12.9798 5.52772 12.9419 5.46863C12.904 5.40954 12.8499 5.36258 12.7861 5.33333L0.786085 1Z" stroke="#646464" stroke-width="1.5" stroke-linecap="round" stroke-linejoin="round"/>
</svg>
