<svg width="14" height="14" viewBox="0 0 14 14" fill="none" xmlns="http://www.w3.org/2000/svg">
<path d="M12.3327 6.33346C12.1696 5.16028 11.6254 4.07324 10.7838 3.23979C9.94215 2.40635 8.84985 1.87274 7.67513 1.72116C6.50041 1.56959 5.30843 1.80845 4.28282 2.40096C3.2572 2.99347 2.45485 3.90675 1.99935 5.00013M1.66602 2.33346V5.00013H4.33268M1.66602 7.66679C1.82906 8.83998 2.3733 9.92702 3.21492 10.7605C4.05654 11.5939 5.14884 12.1275 6.32357 12.2791C7.49829 12.4307 8.69027 12.1918 9.71588 11.5993C10.7415 11.0068 11.5438 10.0935 11.9993 9.00012M12.3327 11.6668V9.00012H9.66602" stroke="#CE2C31" stroke-width="1.5" stroke-linecap="round" stroke-linejoin="round"/>
</svg>
