<svg version="1.1" id="Layer_1" xmlns="http://www.w3.org/2000/svg" xmlns:xlink="http://www.w3.org/1999/xlink" x="0px" y="0px" viewBox="0 0 100 100" xml:space="preserve"><desc>Copyright Opto 22</desc> 
<g>
<g id="shape">
	<path fill="#999999" d="M100,50.7C100,50.7,99.9,50.7,100,50.7c-0.3,0-0.4-0.2-0.4-0.4c0-0.2,0.2-0.4,0.4-0.4c0,0,0,0,0.1,0
		c-0.1-0.2-0.2-0.3-0.4-0.4v-1.1h-0.1v-2.2h-1.2v0.2l-1-4.8c-0.1-0.5-0.6-0.9-1.1-0.9H9.7c-0.8,0-1.6,0.3-2.2,0.8l-0.2,0.2
		C3,43.4,0,46.7,0,50.5c0,3.8,3,7.1,7.4,8.9l0.2,0.2c0.6,0.5,1.4,0.8,2.2,0.8h86.3c0.5,0,1-0.4,1.1-0.9l1-5.2v0h1.2v-2.2h0.1v-0.9
		C99.7,51.1,99.9,50.9,100,50.7z M98.9,46.7v1.7h-0.1v0.7l-0.5-2.4H98.9z M98.9,53.8h-0.6l0.5-2.4v0.8h0.1V53.8z"></path>
</g>
<g id="light">
	<path fill="#F47B20" d="M95.7,46.8l-1.1-1.9c-0.3-0.5-0.8-0.8-1.4-0.8H24.9c-0.3-1.2-0.6-2.3-1.1-3.3h-9.7c0,0-1.6,7-6.7,7
		c-4,0-4.8,0-4.8,0v5.5c0,0,0.8,0,4.8,0c5.1,0,6.7,7,6.7,7h9.7c0.4-1,0.8-2.1,1-3.2h68.3c0.6,0,1.1-0.3,1.4-0.8l1.1-1.9
		c0.2-0.4,0.4-0.9,0.4-1.4v-4.9C96,47.6,95.9,47.2,95.7,46.8z"></path>
</g>
<g id="dark">
	<path fill="#A0BDD9" d="M14.6,49.5c0.7-2.6,1.2-7,1.2-7h-1.7c0,0-0.6,4.4-1.2,7H14.6z"></path>
	<path fill="#A0BDD9" d="M14.6,51.6c0.7,2.6,1.2,7,1.2,7h-1.7c0,0-0.6-4.4-1.2-7H14.6z"></path>
	<polyline fill="#CCCCCC" points="60.7,40.6 60.7,41.3 56.3,41.3 56.3,40.6 	"></polyline>
	<polyline fill="#CCCCCC" points="56.3,60.3 56.3,59.6 60.7,59.6 60.7,60.3 	"></polyline>
	<polyline fill="#CCCCCC" points="13.8,40.6 13.5,41.3 9.1,41.3 9.1,40.6 	"></polyline>
	<polyline fill="#CCCCCC" points="9.1,60.4 9.1,59.7 13.5,59.7 13.7,60.4 	"></polyline>
	<path fill="#B3B3B3" d="M25.3,44.6c-1.5,0-3.8-0.2-4.1-0.4v1.4c0.4-0.2,2.6-0.4,4.1-0.4V44.6z"></path>
	<path fill="#B3B3B3" d="M21.4,47.5c1.5,0,3.8,0.2,4.1,0.4v-1.4c-0.4,0.2-2.6,0.4-4.1,0.4V47.5z"></path>
</g>
<g id="shadow">
	<path fill="#080808" d="M96,47.1l-1.1-1.9c-0.1-0.2-0.3-0.4-0.4-0.5c0,0,0.1,0.1,0.1,0.1l1.1,1.9c0.2,0.4,0.4,0.9,0.4,1.4V53
		c0,0.5-0.1,0.9-0.4,1.4l-1.1,1.9c-0.3,0.5-0.8,0.8-1.4,0.8H25.1v0.3h68.4c0.6,0,1.1-0.3,1.4-0.8l1.1-1.9c0.2-0.4,0.4-0.9,0.4-1.4
		v-4.9C96.4,48,96.2,47.5,96,47.1z"></path>
	<path fill="#080808" d="M32.5,48.4c1,0.1,1.9,0.9,1.9,1.9h2.3c-0.1-2.3-2-4.1-4.3-4.2V48.4z"></path>
	<path fill="#080808" d="M30.3,50.3c0.1-1,0.9-1.9,1.9-1.9v-2.2c-2.3,0.1-4.1,1.9-4.2,4.2H30.3z"></path>
	<path fill="#080808" d="M32.2,52.6c-1-0.1-1.9-0.9-1.9-1.9H28c0.1,2.3,1.9,4.2,4.2,4.3V52.6z"></path>
	<path fill="#080808" d="M34.5,50.6c-0.1,1-0.9,1.9-1.9,1.9V55c2.3-0.1,4.2-2,4.3-4.3H34.5z"></path>
	<path fill="#080808" d="M87.7,48.4c1,0.1,1.9,0.9,1.9,1.9H92c-0.1-2.3-2-4.1-4.3-4.2V48.4z"></path>
	<path fill="#080808" d="M85.4,50.3c0.1-1,0.9-1.9,1.9-1.9v-2.2c-2.3,0.1-4.1,1.9-4.2,4.2H85.4z"></path>
	<path fill="#080808" d="M89.6,50.6c-0.1,1-0.9,1.9-1.9,1.9V55c2.3-0.1,4.2-2,4.3-4.3H89.6z"></path>
	<path fill="#080808" d="M87.4,52.6c-1-0.1-1.9-0.9-1.9-1.9h-2.3c0.1,2.3,1.9,4.2,4.2,4.3V52.6z"></path>
	<path fill="#080808" d="M75,50.3c0.1-1,0.9-1.9,1.9-1.9v-2.2c-2.3,0.1-4.1,1.9-4.2,4.2H75z"></path>
	<path fill="#080808" d="M77.3,48.4c1,0.1,1.9,0.9,1.9,1.9h2.3c-0.1-2.3-2-4.1-4.3-4.2V48.4z"></path>
	<path fill="#080808" d="M76.9,52.6c-1-0.1-1.9-0.9-1.9-1.9h-2.3c0.1,2.3,1.9,4.2,4.2,4.3V52.6z"></path>
	<path fill="#080808" d="M79.2,50.6c-0.1,1-0.9,1.9-1.9,1.9V55c2.3-0.1,4.2-2,4.3-4.3H79.2z"></path>
	<rect x="60.2" y="46.4" fill="#080808" width="11.3" height="0.5"></rect>
	<rect x="60.2" y="47.3" fill="#080808" width="11.3" height="0.5"></rect>
	<rect x="60.2" y="48.1" fill="#080808" width="11.3" height="0.5"></rect>
	<rect x="60.2" y="49" fill="#080808" width="11.3" height="0.5"></rect>
	<rect x="60.2" y="49.8" fill="#080808" width="11.3" height="0.5"></rect>
	<rect x="60.2" y="50.7" fill="#080808" width="11.3" height="0.5"></rect>
	<rect x="60.2" y="51.5" fill="#080808" width="11.3" height="0.5"></rect>
	<rect x="60.2" y="52.4" fill="#080808" width="11.3" height="0.5"></rect>
	<rect x="60.2" y="53.3" fill="#080808" width="11.3" height="0.5"></rect>
	<rect x="60.2" y="54.1" fill="#080808" width="11.3" height="0.5"></rect>
	<rect x="60.2" y="55" fill="#080808" width="11.3" height="0.5"></rect>
	<path fill="#080808" d="M2.6,53.3l0.5,0.4c0,0,0.8,0,4.8,0c1.2,0,2.2,0.4,3,1c-0.9-0.8-2.1-1.4-3.5-1.4C3.4,53.3,2.6,53.3,2.6,53.3
		z"></path>
	<path fill="#080808" d="M23.9,60.3h0.6c0.4-0.9,0.7-1.9,1-3h-0.6C24.6,58.4,24.2,59.4,23.9,60.3z"></path>
	<rect x="54.8" y="46.5" fill="#080808" width="0.2" height="8.8"></rect>
	<rect x="50" y="46.3" fill="#080808" width="9.6" height="0.2"></rect>
	<rect x="50" y="55.2" fill="#080808" width="9.6" height="0.2"></rect>
	<rect x="52.1" y="47.7" fill="#080808" width="0.3" height="1.2"></rect>
	<rect x="52.1" y="53" fill="#080808" width="0.3" height="1.2"></rect>
	<rect x="57.4" y="47.7" fill="#080808" width="0.3" height="1.2"></rect>
	<rect x="57.4" y="53" fill="#080808" width="0.3" height="1.2"></rect>
	<polygon fill="#080808" points="24.2,59.2 17.4,59.2 16.9,59.6 14,59.6 14.1,60.3 19,60.3 19,60.3 23.7,60.3 	"></polygon>
	<g>
		<circle fill="#080808" cx="24.3" cy="41.1" r="0.3"></circle>
		<path fill="#080808" d="M49.6,40.8c-0.1,0-0.2,0.1-0.3,0.2h-4.5c0-0.1-0.1-0.2-0.3-0.2s-0.2,0.1-0.3,0.2h-4.5
			c0-0.1-0.1-0.2-0.3-0.2c-0.1,0-0.2,0.1-0.3,0.2h-4.5c0-0.1-0.1-0.2-0.3-0.2s-0.2,0.1-0.3,0.2h-4.5c0-0.1-0.1-0.2-0.3-0.2
			s-0.2,0.1-0.3,0.2h-4.5v0.2h4.5c0,0.1,0.1,0.2,0.3,0.2s0.2-0.1,0.3-0.2h4.5c0,0.1,0.1,0.2,0.3,0.2s0.2-0.1,0.3-0.2h4.5
			c0,0.1,0.1,0.2,0.3,0.2s0.2-0.1,0.3-0.2h4.5c0,0.1,0.1,0.2,0.3,0.2s0.2-0.1,0.3-0.2h4.5c0,0.1,0.1,0.2,0.3,0.2s0.2-0.1,0.3-0.2
			h4.5V41h-4.5C49.8,40.9,49.7,40.8,49.6,40.8z"></path>
		<circle fill="#080808" cx="54.6" cy="41.1" r="0.3"></circle>
	</g>
	<g>
		<path fill="#080808" d="M49.6,59.5c-0.1,0-0.2,0.1-0.3,0.2h-4.5c0-0.1-0.1-0.2-0.3-0.2s-0.2,0.1-0.3,0.2h-4.5
			c0-0.1-0.1-0.2-0.3-0.2c-0.1,0-0.2,0.1-0.3,0.2h-4.5c0-0.1-0.1-0.2-0.3-0.2s-0.2,0.1-0.3,0.2h-4.5c0-0.1-0.1-0.2-0.3-0.2
			s-0.2,0.1-0.3,0.2h-4.3c0-0.1-0.1-0.2-0.3-0.2c-0.2,0-0.3,0.1-0.3,0.3s0.1,0.3,0.3,0.3c0.1,0,0.2-0.1,0.3-0.2h4.3
			c0,0.1,0.1,0.2,0.3,0.2s0.2-0.1,0.3-0.2h4.5c0,0.1,0.1,0.2,0.3,0.2s0.2-0.1,0.3-0.2h4.5c0,0.1,0.1,0.2,0.3,0.2
			c0.1,0,0.2-0.1,0.3-0.2h4.5c0,0.1,0.1,0.2,0.3,0.2s0.2-0.1,0.3-0.2h4.5c0,0.1,0.1,0.2,0.3,0.2s0.2-0.1,0.3-0.2h4.5v-0.2h-4.5
			C49.8,59.6,49.7,59.5,49.6,59.5z"></path>
		<circle fill="#080808" cx="54.6" cy="59.8" r="0.3"></circle>
	</g>
	<g>
		<circle fill="#080808" cx="62.7" cy="41.1" r="0.3"></circle>
		<path fill="#080808" d="M98.4,50l-1-4.7c0.1-0.1,0.2-0.1,0.2-0.2c0-0.2-0.1-0.3-0.3-0.3l-0.7-3.3c0.1-0.1,0.1-0.1,0.1-0.2
			c0-0.2-0.1-0.3-0.3-0.3c-0.1,0-0.2,0.1-0.2,0.1L93.3,41c0-0.1-0.1-0.2-0.3-0.2c-0.1,0-0.2,0.1-0.3,0.2h-4.5c0-0.1-0.1-0.2-0.3-0.2
			s-0.2,0.1-0.3,0.2h-4.5c0-0.1-0.1-0.2-0.3-0.2s-0.2,0.1-0.3,0.2h-4.5c0-0.1-0.1-0.2-0.3-0.2s-0.2,0.1-0.3,0.2h-4.5
			c0-0.1-0.1-0.2-0.3-0.2s-0.2,0.1-0.3,0.2h-4.5c0-0.1-0.1-0.2-0.3-0.2s-0.2,0.1-0.3,0.2h-4.4v0.2h4.4c0,0.1,0.1,0.2,0.3,0.2
			s0.2-0.1,0.3-0.2h4.5c0,0.1,0.1,0.2,0.3,0.2s0.2-0.1,0.3-0.2h4.5c0,0.1,0.1,0.2,0.3,0.2s0.2-0.1,0.3-0.2h4.5
			c0,0.1,0.1,0.2,0.3,0.2s0.2-0.1,0.3-0.2h4.5c0,0.1,0.1,0.2,0.3,0.2s0.2-0.1,0.3-0.2h4.5c0,0.1,0.1,0.2,0.3,0.2
			c0.1,0,0.2-0.1,0.3-0.2l2.9,0.1c0,0.1,0.1,0.2,0.2,0.2l0.7,3.3C97.1,44.9,97,45,97,45.1c0,0.1,0.1,0.2,0.2,0.3l1,4.7
			c-0.1,0.1-0.1,0.1-0.1,0.2c0,0.1,0,0.2,0.1,0.2l-0.9,4.4c-0.1,0-0.2,0.1-0.2,0.3c0,0.1,0.1,0.2,0.1,0.2l-0.8,3.9
			c-0.1,0-0.2,0.1-0.2,0.2l-2.9,0.1c0-0.1-0.1-0.2-0.3-0.2c-0.1,0-0.2,0.1-0.3,0.2h-4.5c0-0.1-0.1-0.2-0.3-0.2s-0.2,0.1-0.3,0.2
			h-4.5c0-0.1-0.1-0.2-0.3-0.2s-0.2,0.1-0.3,0.2h-4.5c0-0.1-0.1-0.2-0.3-0.2s-0.2,0.1-0.3,0.2h-4.5c0-0.1-0.1-0.2-0.3-0.2
			s-0.2,0.1-0.3,0.2h-4.5c0-0.1-0.1-0.2-0.3-0.2s-0.2,0.1-0.3,0.2h-4.3c0-0.1-0.1-0.2-0.3-0.2c-0.2,0-0.3,0.1-0.3,0.3
			s0.1,0.3,0.3,0.3c0.1,0,0.2-0.1,0.3-0.2h4.3c0,0.1,0.1,0.2,0.3,0.2s0.2-0.1,0.3-0.2h4.5c0,0.1,0.1,0.2,0.3,0.2s0.2-0.1,0.3-0.2
			h4.5c0,0.1,0.1,0.2,0.3,0.2s0.2-0.1,0.3-0.2h4.5c0,0.1,0.1,0.2,0.3,0.2s0.2-0.1,0.3-0.2h4.5c0,0.1,0.1,0.2,0.3,0.2
			s0.2-0.1,0.3-0.2h4.5c0,0.1,0.1,0.2,0.3,0.2c0.1,0,0.2-0.1,0.3-0.2l2.9-0.1c0.1,0.1,0.1,0.1,0.2,0.1c0.2,0,0.3-0.1,0.3-0.3
			c0-0.1-0.1-0.2-0.1-0.2l0.8-4c0.1,0,0.2-0.1,0.2-0.3c0-0.1-0.1-0.2-0.1-0.2l0.9-4.4c0.2,0,0.3-0.1,0.3-0.3
			C98.7,50.2,98.6,50.1,98.4,50z"></path>
	</g>
	<rect x="24.9" y="41.8" fill="#080808" width="10.7" height="0.1"></rect>
	<rect x="24.9" y="42.4" fill="#080808" width="10.7" height="0.1"></rect>
	<rect x="35.6" y="42.2" fill="#080808" width="10.7" height="0.1"></rect>
	<rect x="35.6" y="42.7" fill="#080808" width="10.7" height="0.1"></rect>
	<rect x="24.9" y="58.4" fill="#080808" width="10.7" height="0.1"></rect>
	<rect x="24.9" y="59" fill="#080808" width="10.7" height="0.1"></rect>
	<rect x="35.7" y="57.9" fill="#080808" width="10.7" height="0.1"></rect>
	<rect x="35.7" y="58.5" fill="#080808" width="10.7" height="0.1"></rect>
	<rect x="46.2" y="41.8" fill="#080808" width="10.7" height="0.1"></rect>
	<rect x="46.2" y="42.4" fill="#080808" width="10.7" height="0.1"></rect>
	<rect x="56.9" y="42.2" fill="#080808" width="10.7" height="0.1"></rect>
	<rect x="56.9" y="42.7" fill="#080808" width="10.7" height="0.1"></rect>
	<rect x="46.2" y="58.4" fill="#080808" width="10.7" height="0.1"></rect>
	<rect x="46.2" y="59" fill="#080808" width="10.7" height="0.1"></rect>
	<rect x="57" y="57.9" fill="#080808" width="10.7" height="0.1"></rect>
	<rect x="57" y="58.5" fill="#080808" width="10.7" height="0.1"></rect>
	<rect x="67.8" y="41.8" fill="#080808" width="10.7" height="0.1"></rect>
	<rect x="67.8" y="42.4" fill="#080808" width="10.7" height="0.1"></rect>
	<rect x="78.5" y="42.2" fill="#080808" width="10.7" height="0.1"></rect>
	<rect x="78.5" y="42.7" fill="#080808" width="10.7" height="0.1"></rect>
	<rect x="67.8" y="58.4" fill="#080808" width="10.7" height="0.1"></rect>
	<rect x="67.8" y="59" fill="#080808" width="10.7" height="0.1"></rect>
	<rect x="78.6" y="57.9" fill="#080808" width="10.7" height="0.1"></rect>
	<rect x="78.6" y="58.5" fill="#080808" width="10.7" height="0.1"></rect>
	<path fill="#080808" d="M8.6,41c-0.2,0-0.3,0.1-0.3,0.3c0,0,0,0,0,0l-2.5,2.3c0,0-0.1,0-0.1,0c-0.2,0-0.3,0.1-0.3,0.3
		c0,0.1,0,0.1,0.1,0.2l-1.9,2.9c0,0,0,0,0,0c-0.2,0-0.3,0.1-0.3,0.3s0.1,0.3,0.3,0.3s0.3-0.1,0.3-0.3c0-0.1,0-0.1-0.1-0.2l1.9-2.9
		c0,0,0,0,0.1,0c0.2,0,0.3-0.1,0.3-0.3c0,0,0-0.1,0-0.1l2.5-2.3c0,0,0.1,0.1,0.2,0.1c0.2,0,0.3-0.1,0.3-0.3S8.8,41,8.6,41z"></path>
	<path fill="#080808" d="M8.6,59.4c-0.1,0-0.1,0-0.2,0.1l-2.5-2.3c0,0,0-0.1,0-0.1c0-0.2-0.1-0.3-0.3-0.3c0,0,0,0,0,0l-1.9-2.9
		c0,0,0.1-0.1,0.1-0.2c0-0.2-0.1-0.3-0.3-0.3s-0.3,0.1-0.3,0.3s0.1,0.3,0.3,0.3c0,0,0,0,0,0l1.9,2.8c0,0-0.1,0.1-0.1,0.2
		c0,0.2,0.1,0.3,0.3,0.3c0,0,0.1,0,0.1,0l2.5,2.3c0,0,0,0,0,0c0,0.2,0.1,0.3,0.3,0.3s0.3-0.1,0.3-0.3S8.8,59.4,8.6,59.4z"></path>
	<path fill="#080808" d="M6.2,42.3c0,0-4.9,2.5-4.9,8.5c0,5,4.3,7.7,4.3,7.7l0.9,0.3c0,0-4.3-3.2-4.3-8.4S6.2,42.3,6.2,42.3z"></path>
	<polygon fill="#080808" points="48.5,45.9 48.3,46.1 48.3,55.3 38.2,55.3 38,55.4 38.5,55.7 48.7,55.7 48.7,46.5 	"></polygon>
	<rect x="25.6" y="44.8" fill="#080808" width="66.9" height="0.1"></rect>
	<rect x="25.6" y="56.3" fill="#080808" width="66.9" height="0.1"></rect>
	<path fill="#080808" d="M8.1,50.6c-1,0-3,1.7-3.9,1.7c-0.5,0-0.8-0.3-1-0.6c0,0,0.6,0.5,1.4,0.2S8.1,50.6,8.1,50.6z"></path>
	<rect x="8.1" y="43.2" fill="#080808" width="4.3" height="0.1"></rect>
	<rect x="6.3" y="44.3" fill="#080808" width="4.3" height="0.1"></rect>
	<rect x="5" y="46.3" fill="#080808" width="4.3" height="0.1"></rect>
	<rect x="5" y="46.7" fill="#080808" width="4.3" height="0.1"></rect>
	<rect x="5" y="54" fill="#080808" width="4.3" height="0.1"></rect>
	<rect x="5" y="54.4" fill="#080808" width="4.3" height="0.1"></rect>
	<rect x="5.4" y="44.8" fill="#080808" width="4.3" height="0.1"></rect>
	<rect x="8.4" y="42.7" fill="#080808" width="4.3" height="0.1"></rect>
	<rect x="8.1" y="57.6" fill="#080808" width="4.3" height="0.1"></rect>
	<rect x="6.3" y="56.5" fill="#080808" width="4.3" height="0.1"></rect>
	<rect x="5.4" y="56" fill="#080808" width="4.3" height="0.1"></rect>
	<rect x="8.4" y="58" fill="#080808" width="4.3" height="0.1"></rect>
	<path fill="#080808" d="M21.2,45.7L21.2,45.7c0.3-0.3,2.7-0.5,4.1-0.5v0.1C23.7,45.3,21.6,45.5,21.2,45.7z"></path>
	<path fill="#080808" d="M25.6,47.9c-0.3-0.2-2.5-0.4-4.1-0.4v-0.1C22.9,47.4,25.2,47.6,25.6,47.9L25.6,47.9z"></path>
	<path fill="#080808" d="M22.2,45.7h0.7v-0.4c-0.2,0-0.5,0-0.7,0.1V45.7z"></path>
	<path fill="#080808" d="M22.9,44.2h-0.7v0.3c0.2,0,0.4,0,0.7,0.1V44.2z"></path>
	<path fill="#080808" d="M24.6,44.2h-0.7v0.4c0.2,0,0.5,0,0.7,0V44.2z"></path>
	<path fill="#080808" d="M23.9,45.7h0.7v-0.5c-0.2,0-0.5,0-0.7,0V45.7z"></path>
	<path fill="#080808" d="M24.6,46.4h-0.7v0.4c0.2,0,0.5,0,0.7-0.1V46.4z"></path>
	<path fill="#080808" d="M23.9,48h0.7v-0.3c-0.2,0-0.4,0-0.7-0.1V48z"></path>
	<path fill="#080808" d="M22.2,48h0.7v-0.4c-0.2,0-0.5,0-0.7,0V48z"></path>
	<path fill="#080808" d="M22.9,46.4h-0.7v0.5c0.2,0,0.5,0,0.7,0V46.4z"></path>
	<path fill="#080808" d="M25.5,48c0.3,3.3,0,6.7-0.7,9.7h0.4c0.7-3,0.8-6.4,0.4-9.7H25.5z"></path>
</g>
<g id="hlight">
	<polygon fill="#FFFFFF" points="93.7,44.1 25,44.1 25,43.9 93.2,43.9 	"></polygon>
	<path fill="#FFFFFF" d="M7.4,47.9H2.6v-0.2h4.8c5,0,6.6-6.9,6.6-6.9l0-0.1h9.8v0.2h-9.7C14,41.7,12.2,47.9,7.4,47.9z"></path>
	<polygon fill="#FFFFFF" points="38.2,55.3 38,55.3 38,45.9 48.3,45.9 48.3,46.1 38.2,46.1 	"></polygon>
	<path fill="#FFFFFF" d="M3.3,49.5c0,0,0.2-0.8,2.9,0.4c0,0-2.4-0.6-3,0.1L3.3,49.5z"></path>
	<path fill="#FFFFFF" d="M23.7,41h-7.3c0,0,1.1-0.3-0.6,8.4c0,0,1.5-2.8,1.9-7.3h6.3L23.7,41z"></path>
	<path fill="#FFFFFF" d="M25.2,44.8c-3.4,0-3.9-0.3-3.9-0.3l0.1-0.1c0,0,0.6,0.3,3.9,0.3V44.8z"></path>
	<path fill="#FFFFFF" d="M21.6,47v-0.1c3.3,0,3.9-0.3,3.9-0.3l0.1,0.1C25.5,46.7,24.9,47,21.6,47z"></path>
</g>
</g>
</svg>