<svg version="1.1" id="Layer_1" xmlns="http://www.w3.org/2000/svg" xmlns:xlink="http://www.w3.org/1999/xlink" x="0px" y="0px" viewBox="0 0 100 100" xml:space="preserve"><desc>Copyright Opto 22</desc> 
<g>
	<g id="frame">
		<rect fill="none" width="100" height="100"></rect>
	</g>
	<g id="shape">
		<rect x="8.6" y="36" fill="#8C6239" width="5" height="28"></rect>
		<rect x="19.7" y="36" fill="#8C6239" width="5" height="28"></rect>
		<rect x="30.8" y="36" fill="#8C6239" width="5" height="28"></rect>
		<rect x="41.9" y="36" fill="#8C6239" width="5" height="28"></rect>
		<rect x="53.1" y="36" fill="#8C6239" width="5" height="28"></rect>
		<rect x="64.2" y="36" fill="#8C6239" width="5" height="28"></rect>
		<rect x="75.3" y="36" fill="#8C6239" width="5" height="28"></rect>
		<rect x="86.4" y="36" fill="#8C6239" width="5" height="28"></rect>
	</g>
	<g id="shadow">
		<rect x="8.6" y="40" fill="#414042" width="5" height="1.8"></rect>
		<rect x="19.7" y="40" fill="#414042" width="5" height="1.8"></rect>
		<rect x="30.8" y="40" fill="#414042" width="5" height="1.8"></rect>
		<rect x="41.9" y="40" fill="#414042" width="5" height="1.8"></rect>
		<rect x="53.1" y="40" fill="#414042" width="5" height="1.8"></rect>
		<rect x="64.2" y="40" fill="#414042" width="5" height="1.8"></rect>
		<rect x="75.3" y="40" fill="#414042" width="5" height="1.8"></rect>
		<rect x="86.4" y="40" fill="#414042" width="5" height="1.8"></rect>
		<rect x="8.6" y="60" fill="#414042" width="5" height="1.8"></rect>
		<rect x="19.7" y="60" fill="#414042" width="5" height="1.8"></rect>
		<rect x="30.8" y="60" fill="#414042" width="5" height="1.8"></rect>
		<rect x="41.9" y="60" fill="#414042" width="5" height="1.8"></rect>
		<rect x="53.1" y="60" fill="#414042" width="5" height="1.8"></rect>
		<rect x="64.2" y="60" fill="#414042" width="5" height="1.8"></rect>
		<rect x="75.3" y="60" fill="#414042" width="5" height="1.8"></rect>
		<rect x="86.4" y="60" fill="#414042" width="5" height="1.8"></rect>
	</g>
	<g id="dark">
		<rect y="39" fill="#4D4D4D" width="100" height="2"></rect>
		<rect y="59" fill="#4D4D4D" width="100" height="2"></rect>
	</g>
	<g id="hlight">
		<rect y="39.4" fill="#FFFFFF" width="100" height="0.3"></rect>
		<rect y="59.4" fill="#FFFFFF" width="100" height="0.3"></rect>
	</g>
</g>
</svg>