<svg version="1.1" id="Layer_1" xmlns="http://www.w3.org/2000/svg" xmlns:xlink="http://www.w3.org/1999/xlink" x="0px" y="0px" viewBox="0 0 100 100" xml:space="preserve"><desc>Copyright Opto 22</desc> 
<g>
	<g id="frame">
	<rect fill="none" width="100" height="100"></rect>
</g>
<g id="shape">
	<path fill="#666666" d="M100,48.4l-4.8-7.9h2.9V40h-0.3v-2h0.3v-0.5h-4.7l-0.1-0.1h-1.8v0.1h-5.1V38h0.3v1.4h-0.3h-0.5h-0.3h-0.5
		H85V38h0.3v-0.5H73.6V38h0.3v1.4h-0.3h-0.5H59.1v-1c0-0.4-0.3-0.8-0.8-0.8s-0.8,0.3-0.8,0.8v1H42.4v-1c0-0.4-0.3-0.8-0.8-0.8
		s-0.8,0.3-0.8,0.8v1H27.1h-0.5h-0.3V38h0.3v-0.5H15V38h0.3v1.4H15h-0.5h-0.3h-0.5h-0.3V38h0.3v-0.5H8.4v-0.1H6.6l-0.1,0.1H2.1V38
		h0.3v2H2.1v0.5h2.6L0,48.4v2l4.9,8.1H2.1V59h0.3v2H2.1v0.5h11.7V61h-0.3v-1.4h0.3v-0.2H15v0.2h0.3V61H15v0.5h11.7V61h-0.3v-1.4h0.3
		v-0.2h14.2v1c0,0.4,0.3,0.8,0.8,0.8s0.8-0.3,0.8-0.8v-1h0v3.8h14.8v-3.8h0.3v1c0,0.4,0.3,0.8,0.8,0.8s0.8-0.3,0.8-0.8v-1h14.5v0.2
		h0.3V61h-0.3v0.5h11.7V61H85v-1.4h0.3v-0.2h1.3v0.2h0.3V61h-0.3v0.5h11.7V61h-0.3v-2h0.3v-0.5h-3l4.9-8.1V48.4z M6.3,58.1l-4-6.7
		h2.8C5.3,53,5.7,54.5,6.3,56V58.1z M6.3,42.8c-0.6,1.5-1,3-1.2,4.6H2.3l4-6.7V42.8z M56.3,62.1H43.5v-0.5h12.8V62.1z M56.3,60.6
		H43.5v-0.8h12.8V60.6z M93.7,58.1V56c0.6-1.5,1-3,1.2-4.6h2.8L93.7,58.1z M94.9,47.4c-0.2-1.6-0.6-3.2-1.2-4.6v-2.1l4,6.7H94.9z"></path>
</g>
<g id="dark">
	<path fill="#000000" d="M57.3,63.1H42.5v-4h14.8V63.1z M43.5,62.1h12.8v-2H43.5V62.1z"></path>
	<rect fill="#000000" x="43" y="60.6" width="13.8" height="1"></rect>
	<path fill="#000000" d="M100,48.6L94.8,40h-3.2v19H95l5-8.3V48.6z M93.7,58.3v-6.7h4L93.7,58.3z M93.7,47.6v-6.7l4,6.7H93.7z"></path>
	<path fill="#000000" d="M5,40L0,48.4v2L5.1,59h3.3l0-19H5z M6.3,58.1l-4-6.7h4V58.1z M2.3,47.4l4-6.7l0,6.7H2.3z"></path>
</g>
<g id="linear">
	<linearGradient class="linear" id="SVGID_1_" gradientUnits="userSpaceOnUse" x1="86.7598" y1="38.9585" x2="97.9258" y2="38.9585">
		<stop offset="0" style="stop-color:#B3B3B3"></stop>
		<stop offset="1" style="stop-color:#000000"></stop>
	</linearGradient>
	<rect class="linear" x="86.8" y="38" fill="url(#SVGID_1_)" width="11.2" height="2"></rect>
	<linearGradient id="SVGID_2_" class="linear" gradientUnits="userSpaceOnUse" x1="86.7598" y1="59.958" x2="97.9258" y2="59.958">
		<stop offset="0" style="stop-color:#B3B3B3"></stop>
		<stop offset="1" style="stop-color:#000000"></stop>
	</linearGradient>
	<rect class="linear" x="86.8" y="59" fill="url(#SVGID_2_)" width="11.2" height="2"></rect>
	<linearGradient class="linear" id="SVGID_3_" gradientUnits="userSpaceOnUse" x1="73.8428" y1="38.9585" x2="85.0098" y2="38.9585">
		<stop offset="0" style="stop-color:#B3B3B3"></stop>
		<stop offset="1" style="stop-color:#000000"></stop>
	</linearGradient>
	<rect class="linear" x="73.8" y="38" fill="url(#SVGID_3_)" width="11.2" height="2"></rect>
	<linearGradient class="linear" id="SVGID_4_" gradientUnits="userSpaceOnUse" x1="73.8428" y1="59.958" x2="85.0098" y2="59.958">
		<stop offset="0" style="stop-color:#B3B3B3"></stop>
		<stop offset="1" style="stop-color:#000000"></stop>
	</linearGradient>
	<rect class="linear" x="73.8" y="59" fill="url(#SVGID_4_)" width="11.2" height="2"></rect>
	<linearGradient class="linear" id="SVGID_5_" gradientUnits="userSpaceOnUse" x1="2.3428" y1="38.9585" x2="13.5098" y2="38.9585">
		<stop offset="0" style="stop-color:#B3B3B3"></stop>
		<stop offset="1" style="stop-color:#000000"></stop>
	</linearGradient>
	<rect class="linear" x="2.3" y="38" fill="url(#SVGID_5_)" width="11.2" height="2"></rect>
	<linearGradient class="linear" id="SVGID_6_" gradientUnits="userSpaceOnUse" x1="2.3428" y1="59.958" x2="13.5098" y2="59.958">
		<stop offset="0" style="stop-color:#B3B3B3"></stop>
		<stop offset="1" style="stop-color:#000000"></stop>
	</linearGradient>
	<rect class="linear" x="2.3" y="59" fill="url(#SVGID_6_)" width="11.2" height="2"></rect>
	<linearGradient class="linear" id="SVGID_7_" gradientUnits="userSpaceOnUse" x1="15.2598" y1="38.9585" x2="26.4263" y2="38.9585">
		<stop offset="0" style="stop-color:#B3B3B3"></stop>
		<stop offset="1" style="stop-color:#000000"></stop>
	</linearGradient>
	<rect class="linear" x="15.3" y="38" fill="url(#SVGID_7_)" width="11.2" height="2"></rect>
	<linearGradient class="linear" id="SVGID_8_" gradientUnits="userSpaceOnUse" x1="15.2598" y1="59.958" x2="26.4263" y2="59.958">
		<stop offset="0" style="stop-color:#B3B3B3"></stop>
		<stop offset="1" style="stop-color:#000000"></stop>
	</linearGradient>
	<rect class="linear" x="15.3" y="59" fill="url(#SVGID_8_)" width="11.2" height="2"></rect>
	<linearGradient class="linear" id="SVGID_9_" gradientUnits="userSpaceOnUse" x1="50" y1="39.375" x2="50" y2="59.375">
		<stop offset="0" style="stop-color:#B3B3B3"></stop>
		<stop offset="1" style="stop-color:#000000"></stop>
	</linearGradient>
	<path class="linear" fill="url(#SVGID_9_)" d="M8.4,59.4c-4.5-5.5-4.5-14.5,0-20h83.3c4.5,5.5,4.5,14.5,0,20H8.4z"></path>
		<linearGradient class="linear" id="SVGID_10_" gradientUnits="userSpaceOnUse" x1="91.6318" y1="37.625" x2="91.6318" y2="61.125">
			<stop offset="0" style="stop-color:#B3B3B3"></stop>
			<stop offset="1" style="stop-color:#000000"></stop>
		</linearGradient>
		<path class="linear" fill="url(#SVGID_10_)" d="M91.6,61.1c-0.4,0-0.8-0.3-0.8-0.8v-22c0-0.4,0.3-0.8,0.8-0.8s0.8,0.3,0.8,0.8v22
			C92.4,60.8,92,61.1,91.6,61.1z"></path>
		<linearGradient class="linear" id="SVGID_11_" gradientUnits="userSpaceOnUse" x1="74.9791" y1="37.625" x2="74.9791" y2="61.125">
			<stop offset="0" style="stop-color:#B3B3B3"></stop>
			<stop offset="1" style="stop-color:#000000"></stop>
		</linearGradient>
		<path class="linear" fill="url(#SVGID_11_)" d="M75,61.1c-0.4,0-0.8-0.3-0.8-0.8v-22c0-0.4,0.3-0.8,0.8-0.8s0.8,0.3,0.8,0.8v22
			C75.7,60.8,75.4,61.1,75,61.1z"></path>
		<linearGradient class="linear" id="SVGID_12_" gradientUnits="userSpaceOnUse" x1="58.3264" y1="37.625" x2="58.3264" y2="61.125">
			<stop offset="0" style="stop-color:#B3B3B3"></stop>
			<stop offset="1" style="stop-color:#000000"></stop>
		</linearGradient>
		<path class="linear" fill="url(#SVGID_12_)" d="M58.3,61.1c-0.4,0-0.8-0.3-0.8-0.8v-22c0-0.4,0.3-0.8,0.8-0.8s0.8,0.3,0.8,0.8v22
			C59.1,60.8,58.7,61.1,58.3,61.1z"></path>
		<linearGradient class="linear" id="SVGID_13_" gradientUnits="userSpaceOnUse" x1="41.6736" y1="37.625" x2="41.6736" y2="61.125">
			<stop offset="0" style="stop-color:#B3B3B3"></stop>
			<stop offset="1" style="stop-color:#000000"></stop>
		</linearGradient>
		<path class="linear" fill="url(#SVGID_13_)" d="M41.7,61.1c-0.4,0-0.8-0.3-0.8-0.8v-22c0-0.4,0.3-0.8,0.8-0.8s0.8,0.3,0.8,0.8v22
			C42.4,60.8,42.1,61.1,41.7,61.1z"></path>
		<linearGradient class="linear" id="SVGID_14_" gradientUnits="userSpaceOnUse" x1="25.0209" y1="37.625" x2="25.0209" y2="61.125">
			<stop offset="0" style="stop-color:#B3B3B3"></stop>
			<stop offset="1" style="stop-color:#000000"></stop>
		</linearGradient>
		<path class="linear" fill="url(#SVGID_14_)" d="M25,61.1c-0.4,0-0.8-0.3-0.8-0.8v-22c0-0.4,0.3-0.8,0.8-0.8s0.8,0.3,0.8,0.8v22
			C25.8,60.8,25.4,61.1,25,61.1z"></path>
		<linearGradient class="linear" id="SVGID_15_" gradientUnits="userSpaceOnUse" x1="8.3682" y1="37.625" x2="8.3682" y2="61.125">
			<stop offset="0" style="stop-color:#B3B3B3"></stop>
			<stop offset="1" style="stop-color:#000000"></stop>
		</linearGradient>
		<path class="linear" fill="url(#SVGID_15_)" d="M8.4,61.1c-0.4,0-0.8-0.3-0.8-0.8v-22c0-0.4,0.3-0.8,0.8-0.8s0.8,0.3,0.8,0.8v22
			C9.1,60.8,8.8,61.1,8.4,61.1z"></path>
</g>
<g id="shadow">
	<path fill="#000000" d="M50,54.9c-3.1,0-5.7-2.4-6-5.4c0,0.2,0,0.4,0,0.6c0,3.3,2.7,6,6,6s6-2.7,6-6c0-0.2,0-0.4,0-0.6
		C55.7,52.5,53.1,54.9,50,54.9z"></path>
</g>
	<g id="light">
		<path fill="#E6E6E6" d="M91.6,42.9c-0.3,0-0.5-0.2-0.5-0.5v-2c0-0.3,0.2-0.5,0.5-0.5s0.5,0.2,0.5,0.5v2
				C92.1,42.7,91.9,42.9,91.6,42.9z"></path>
		<path fill="#E6E6E6" d="M75,42.9c-0.3,0-0.5-0.2-0.5-0.5v-2c0-0.3,0.2-0.5,0.5-0.5s0.5,0.2,0.5,0.5v2C75.5,42.7,75.3,42.9,75,42.9
				z"></path>
		<path fill="#E6E6E6" d="M58.3,42.9c-0.3,0-0.5-0.2-0.5-0.5v-2c0-0.3,0.2-0.5,0.5-0.5s0.5,0.2,0.5,0.5v2
				C58.8,42.7,58.6,42.9,58.3,42.9z"></path>
		<path fill="#E6E6E6" d="M41.7,42.9c-0.3,0-0.5-0.2-0.5-0.5v-2c0-0.3,0.2-0.5,0.5-0.5s0.5,0.2,0.5,0.5v2
				C42.2,42.7,42,42.9,41.7,42.9z"></path>
		<path fill="#E6E6E6" d="M25,42.9c-0.3,0-0.5-0.2-0.5-0.5v-2c0-0.3,0.2-0.5,0.5-0.5s0.5,0.2,0.5,0.5v2C25.5,42.7,25.3,42.9,25,42.9
				z"></path>
		<path fill="#E6E6E6" d="M8.4,42.9c-0.3,0-0.5-0.2-0.5-0.5v-2c0-0.3,0.2-0.5,0.5-0.5s0.5,0.2,0.5,0.5v2C8.9,42.7,8.6,42.9,8.4,42.9
				z"></path>
	</g>
<g id="hlight">
	
	<rect x="25.8" y="40.6" fill="#FFFFFF" width="15.2" height="1"></rect>
	<rect x="9.1" y="40.6" fill="#FFFFFF" width="15.2" height="1"></rect>
	<rect x="42.4" y="40.6" fill="#FFFFFF" width="15.2" height="1"></rect>
	<rect x="75.7" y="40.6" fill="#FFFFFF" width="15.2" height="1"></rect>
	<rect x="59.1" y="40.6" fill="#FFFFFF" width="15.2" height="1"></rect>
	<path fill="#FFFFFF" d="M56,48.9L56,48.9c0-3.2-2.8-5.8-6-5.8c-3.2,0-6,2.6-6,5.8l0,0c0-3.4,2.6-6.3,6-6.3S56,45.4,56,48.9z"></path>
</g>
	</g>
</svg>