<svg version="1.1" id="Layer_1" xmlns="http://www.w3.org/2000/svg" xmlns:xlink="http://www.w3.org/1999/xlink" x="0px" y="0px" viewBox="0 0 100 100" xml:space="preserve"><desc>Copyright Opto 22</desc> 
<g>
<g id="frame">
	<rect fill="none" width="100" height="100"></rect>
</g>
<g id="shape">
	<rect x="-1.25" y="43.006" fill="#8C6239" width="2.499" height="13.989"></rect>
	<rect x="4.303" y="43.006" fill="#8C6239" width="2.499" height="13.989"></rect>
	<rect x="9.857" y="43.006" fill="#8C6239" width="2.499" height="13.989"></rect>
	<rect x="15.41" y="43.006" fill="#8C6239" width="2.499" height="13.989"></rect>
	<rect x="20.963" y="43.006" fill="#8C6239" width="2.499" height="13.989"></rect>
	<rect x="26.516" y="43.006" fill="#8C6239" width="2.499" height="13.989"></rect>
	<rect x="32.07" y="43.006" fill="#8C6239" width="2.499" height="13.989"></rect>
	<rect x="37.623" y="43.006" fill="#8C6239" width="2.499" height="13.989"></rect>
	<rect x="43.176" y="43.006" fill="#8C6239" width="2.499" height="13.989"></rect>
	<rect x="48.73" y="43.006" fill="#8C6239" width="2.499" height="13.989"></rect>
	<rect x="54.283" y="43.006" fill="#8C6239" width="2.499" height="13.989"></rect>
	<rect x="59.836" y="43.006" fill="#8C6239" width="2.499" height="13.989"></rect>
	<rect x="65.39" y="43.006" fill="#8C6239" width="2.499" height="13.989"></rect>
	<rect x="70.943" y="43.006" fill="#8C6239" width="2.499" height="13.989"></rect>
	<rect x="76.496" y="43.006" fill="#8C6239" width="2.499" height="13.989"></rect>
	<rect x="82.049" y="43.006" fill="#8C6239" width="2.499" height="13.989"></rect>
	<rect x="87.603" y="43.006" fill="#8C6239" width="2.499" height="13.989"></rect>
	<rect x="93.156" y="43.006" fill="#8C6239" width="2.499" height="13.989"></rect>
	<rect x="98.709" y="43.006" fill="#8C6239" width="2.499" height="13.989"></rect>
</g>
<g id="shadow">
	<rect x="-1.25" y="45.004" fill="#414042" width="2.499" height="0.874"></rect>
	<rect x="4.303" y="45.004" fill="#414042" width="2.499" height="0.874"></rect>
	<rect x="9.857" y="45.004" fill="#414042" width="2.499" height="0.874"></rect>
	<rect x="15.41" y="45.004" fill="#414042" width="2.499" height="0.874"></rect>
	<rect x="20.963" y="45.004" fill="#414042" width="2.499" height="0.874"></rect>
	<rect x="26.516" y="45.004" fill="#414042" width="2.499" height="0.874"></rect>
	<rect x="32.07" y="45.004" fill="#414042" width="2.499" height="0.874"></rect>
	<rect x="37.623" y="45.004" fill="#414042" width="2.499" height="0.874"></rect>
	<rect x="43.176" y="45.004" fill="#414042" width="2.499" height="0.874"></rect>
	<rect x="48.73" y="45.004" fill="#414042" width="2.499" height="0.874"></rect>
	<rect x="-1.25" y="54.996" fill="#414042" width="2.499" height="0.874"></rect>
	<rect x="4.303" y="54.996" fill="#414042" width="2.499" height="0.874"></rect>
	<rect x="9.857" y="54.996" fill="#414042" width="2.499" height="0.874"></rect>
	<rect x="15.41" y="54.996" fill="#414042" width="2.499" height="0.874"></rect>
	<rect x="20.963" y="54.996" fill="#414042" width="2.499" height="0.874"></rect>
	<rect x="26.516" y="54.996" fill="#414042" width="2.499" height="0.874"></rect>
	<rect x="32.07" y="54.996" fill="#414042" width="2.499" height="0.874"></rect>
	<rect x="37.623" y="54.996" fill="#414042" width="2.499" height="0.874"></rect>
	<rect x="43.176" y="54.996" fill="#414042" width="2.499" height="0.874"></rect>
	<rect x="48.73" y="54.996" fill="#414042" width="2.499" height="0.874"></rect>
	<rect x="54.283" y="45.004" fill="#414042" width="2.499" height="0.874"></rect>
	<rect x="59.836" y="45.004" fill="#414042" width="2.499" height="0.874"></rect>
	<rect x="65.39" y="45.004" fill="#414042" width="2.499" height="0.874"></rect>
	<rect x="70.943" y="45.004" fill="#414042" width="2.499" height="0.874"></rect>
	<rect x="76.496" y="45.004" fill="#414042" width="2.499" height="0.874"></rect>
	<rect x="82.049" y="45.004" fill="#414042" width="2.499" height="0.874"></rect>
	<rect x="87.603" y="45.004" fill="#414042" width="2.499" height="0.874"></rect>
	<rect x="93.156" y="45.004" fill="#414042" width="2.499" height="0.874"></rect>
	<rect x="98.709" y="45.004" fill="#414042" width="2.499" height="0.874"></rect>
	<rect x="54.283" y="54.996" fill="#414042" width="2.499" height="0.874"></rect>
	<rect x="59.836" y="54.996" fill="#414042" width="2.499" height="0.874"></rect>
	<rect x="65.39" y="54.996" fill="#414042" width="2.499" height="0.874"></rect>
	<rect x="70.943" y="54.996" fill="#414042" width="2.499" height="0.874"></rect>
	<rect x="76.496" y="54.996" fill="#414042" width="2.499" height="0.874"></rect>
	<rect x="82.049" y="54.996" fill="#414042" width="2.499" height="0.874"></rect>
	<rect x="87.603" y="54.996" fill="#414042" width="2.499" height="0.874"></rect>
	<rect x="93.156" y="54.996" fill="#414042" width="2.499" height="0.874"></rect>
	<rect x="98.709" y="54.996" fill="#414042" width="2.499" height="0.874"></rect>
</g>
<g id="dark">
	<polygon fill="#4D4D4D" points="49.979,54.496 99.959,54.496 99.959,55.496 49.979,55.496 -0.001,55.496 -0.001,54.496 	"></polygon>
	<polygon fill="#4D4D4D" points="49.979,44.504 99.959,44.504 99.959,45.504 49.979,45.504 -0.001,45.504 -0.001,44.504 	"></polygon>
</g>
<g id="hlight">
	<polygon fill="#FFFFFF" points="49.979,54.684 -0.001,54.684 -0.001,54.809 49.979,54.809 99.959,54.809 99.959,54.684 	"></polygon>
	<polygon fill="#FFFFFF" points="49.979,44.692 -0.001,44.692 -0.001,44.817 49.979,44.817 99.959,44.817 99.959,44.692 	"></polygon>
</g>
</g>
</svg>