<svg version="1.1" id="Layer_1" xmlns="http://www.w3.org/2000/svg" xmlns:xlink="http://www.w3.org/1999/xlink" x="0px" y="0px" viewBox="0 0 100 100" xml:space="preserve"><desc>Copyright Opto 22</desc> 
<g>
	<g id="frame">
		<rect fill="none" width="100" height="100"></rect>
	</g>
	<g id="shape">
		<rect fill="#000000" y="37.5" width="100" height="25"></rect>
	</g>
	<g id="shadow">
		<rect y="48.5" fill="#FBB03B" width="100" height="0.5"></rect>
		<rect y="51" fill="#FBB03B" width="100" height="0.5"></rect>
	</g>
	<g id="dark">
		<rect y="49.8" fill="#4D4D4D" width="100" height="0.5"></rect>
	</g>
	<g id="light">
		<rect y="38.5" fill="#FFFFFF" width="100" height="0.5"></rect>
		<rect y="61" fill="#FFFFFF" width="100" height="0.5"></rect>
	</g>
	<g id="hlight">
		<rect y="49.8" fill="#FFFFFF" width="3" height="0.5"></rect>
		<path fill="#FFFFFF" d="M40.7,50.3h-6.3v-0.5h6.3V50.3z M28.1,50.3h-6.3v-0.5h6.3V50.3z M15.6,50.3H9.3v-0.5h6.3V50.3z"></path>
		<rect x="47" y="49.8" fill="#FFFFFF" width="6" height="0.5"></rect>
		<path fill="#FFFFFF" d="M90.7,50.3h-6.3v-0.5h6.3V50.3z M78.1,50.3h-6.3v-0.5h6.3V50.3z M65.6,50.3h-6.3v-0.5h6.3V50.3z"></path>
		<rect x="97" y="49.8" fill="#FFFFFF" width="3" height="0.5"></rect>
	</g>
</g>
</svg>