<svg version="1.1" id="Layer_1" xmlns="http://www.w3.org/2000/svg" xmlns:xlink="http://www.w3.org/1999/xlink" x="0px" y="0px" viewBox="0 0 100 100" xml:space="preserve"><desc>Copyright Opto 22</desc> 
<g>
	<g id="frame">
		<rect fill="none" width="100" height="100"></rect>
	</g>
	<g id="shape">
		<polygon fill="#000000" points="100,25 0,25 0,75 25,75 25,100 75,100 75,75 100,75 	"></polygon>
	</g>
	<g id="shadow">
		<rect y="47" fill="#FBB03B" width="28" height="1"></rect>
		<rect x="72" y="47" fill="#FBB03B" width="28" height="1"></rect>
		<rect x="72" y="52" fill="#FBB03B" width="28" height="1"></rect>
		<rect y="52" fill="#FBB03B" width="28" height="1"></rect>
		<rect x="47" y="72" fill="#FBB03B" width="1" height="28"></rect>
		<rect x="52" y="72" fill="#FBB03B" width="1" height="28"></rect>
	</g>
	<g id="dark">
		<rect y="49.5" fill="#4D4D4D" width="28" height="1"></rect>
		<rect x="72" y="49.5" fill="#4D4D4D" width="28" height="1"></rect>
		<rect x="49.5" y="72" fill="#4D4D4D" width="1" height="28"></rect>
	</g>
	<g id="light">
		<rect y="27" fill="#FFFFFF" width="100" height="1"></rect>
		<rect x="72" y="72" fill="#FFFFFF" width="28" height="1"></rect>
		<rect y="72" fill="#FFFFFF" width="28" height="1"></rect>
		<rect x="27" y="72" fill="#FFFFFF" width="1" height="28"></rect>
		<rect x="72" y="72" fill="#FFFFFF" width="1" height="28"></rect>
	</g>
	<g id="hlight">
		<rect y="49.5" fill="#FFFFFF" width="6" height="1"></rect>
		<rect x="94" y="49.5" fill="#FFFFFF" width="6" height="1"></rect>
		<rect x="49.5" y="94" fill="#FFFFFF" width="1" height="6"></rect>
		<rect x="49.5" y="72" fill="#FFFFFF" width="1" height="9.4"></rect>
		<rect x="18.6" y="49.5" fill="#FFFFFF" width="9.4" height="1"></rect>
		<rect x="72" y="49.5" fill="#FFFFFF" width="9.4" height="1"></rect>
	</g>
</g>
</svg>