<svg version="1.1" id="Layer_1" xmlns="http://www.w3.org/2000/svg" xmlns:xlink="http://www.w3.org/1999/xlink" x="0px" y="0px" viewBox="0 0 100 100" xml:space="preserve"><desc>Copyright Opto 22</desc> 
<g>
	<g id="frame">
		<rect fill="none" width="100" height="100"></rect>
	</g>
<g id="shape">
	<path fill="#000000" d="M0.9,44C0.9,44,0.9,44,0.9,44C1,44,1,44,0.9,44L0.9,44z"></path>
	<path fill="#000000" d="M99.3,42.7h-0.4v0c0-0.1-0.1-0.3-0.3-0.3s-0.3,0.1-0.3,0.3v0h-4.2v-1.3h-0.9v-0.6h-6.6v0.6h-1.1v-0.6H79v0.6h-1.3v1.3h-5.5
		v0c0-0.1-0.1-0.3-0.3-0.3s-0.3,0.1-0.3,0.3v0h-8.4v0c0-0.1-0.1-0.3-0.3-0.3s-0.3,0.1-0.3,0.3v0h-8.4v0c0-0.1-0.1-0.3-0.3-0.3
		S54,42.5,54,42.6v0h-8.4v0c0-0.1-0.1-0.3-0.3-0.3s-0.3,0.1-0.3,0.3v0h-8.4v0c0,0,0-0.1,0-0.1h3.7v-1.8h-6.6v1.8h2.5
		c0,0,0,0.1,0,0.1v0h-8.4v0c0,0,0-0.1,0-0.1h4.9v-1.8H26v1.8h1.3c0,0,0,0.1,0,0.1v0h-0.1c0,0.1,0,0.2-0.1,0.3H26v1.8h0.8
		c-0.1,0.4-0.1,0.9-0.2,1.4h-3.7v-2.7c0-0.9-0.7-1.6-1.6-1.6h-0.4V41h-5.2l-1.6,0.7l0.1-0.3c0.2-0.5,0-0.9-0.5-0.9
		c-0.4,0-1,0.4-1.1,0.9L12.4,42l-2.3,0.4v-0.7H3.5v0.7H2.6v1.4l-1.5,0.3C1.1,44,1,44,1,44c-0.1,0.1-0.1,0.2-0.1,0.2h0
		C0.4,44.2,0,44.6,0,45v10.1c0,0.5,0.4,0.8,0.8,0.8h0.1l1.7,0.3v1.4h0.9v0.9h6.6v-0.9l2.3,0.4l0.2,0.5c0.2,0.5,0.7,0.9,1.1,0.9
		c0.4,0,0.6-0.4,0.5-0.9l-0.1-0.2l1.6,0.7h5.2v-0.4h2.4v-3.5h-0.4v-1h3.8c0,0.4,0.1,0.8,0.1,1.2H26V57h1.1c0,0.1,0,0.2,0.1,0.3h0.1
		v0c0,0,0,0.1,0,0.1H26v1.8h6.6v-1.8h-4.9c0,0,0-0.1,0-0.1v0h8.4v0c0,0,0,0.1,0,0.1h-2.5v1.8h6.6v-1.8h-3.7c0,0,0-0.1,0-0.1v0h8.4v0
		c0,0.1,0.1,0.3,0.3,0.3s0.3-0.1,0.3-0.3v0H54v0c0,0.1,0.1,0.3,0.3,0.3s0.3-0.1,0.3-0.3v0h8.4v0c0,0.1,0.1,0.3,0.3,0.3
		s0.3-0.1,0.3-0.3v0h8.4v0c0,0.1,0.1,0.3,0.3,0.3s0.3-0.1,0.3-0.3v0h5.5v1.3H79v0.7h6.6v-0.7h1.1v0.7h6.6v-0.7h0.9v-1.3h4.2v0
		c0,0.1,0.1,0.3,0.3,0.3s0.3-0.1,0.3-0.3v0h0.4C100.2,53.3,100.2,46.7,99.3,42.7z"></path>
</g>
<g id="linear">
	<linearGradient class="linear" id="SVGID_1_" gradientUnits="userSpaceOnUse" x1="63.247" y1="42.6915" x2="63.247" y2="57.3085">
		<stop offset="0" style="stop-color:#E6E6E6"></stop>
		<stop offset="1" style="stop-color:#000000"></stop>
	</linearGradient>
	<path class="linear" fill="url(#SVGID_1_)" d="M27.2,57.3c-0.9-4-0.9-10.6,0-14.6h72.2c0.9,4,0.9,10.6,0,14.6H27.2z"></path>
</g>
<g id="dark">
		<path fill="#4D4D4D" d="M14,41.8c-0.6,0-1.4,0.1-2,0.2L1.9,43.9c-0.5,0.1-1,0.6-1.1,1.2l-0.3,3.8c0,0.5,0,1.4,0,2l0.3,4
			c0,0.5,0.5,1.1,1,1.2L12,58c0.5,0.1,1.4,0.2,2,0.2h7.3c0.9,0,1.6-0.7,1.6-1.6V43.4c0-0.9-0.7-1.6-1.6-1.6H14z"></path>
	<rect x="2.6" y="55.8" fill="#4D4D4D" width="8.2" height="1.8"></rect>
	<rect x="2.6" y="42.4" fill="#4D4D4D" width="8.2" height="1.8"></rect>
	<path fill="#4D4D4D" d="M12.3,42.2c-0.2,0.5,0,0.9,0.5,0.9s1-0.4,1.1-0.9l0.3-0.8c0.2-0.5,0-0.9-0.5-0.9c-0.4,0-1,0.4-1.1,0.9
		L12.3,42.2z"></path>
	<path fill="#4D4D4D" d="M12.3,57.7c-0.2-0.5,0-0.9,0.5-0.9s1,0.4,1.1,0.9l0.3,0.8c0.2,0.5,0,0.9-0.5,0.9c-0.4,0-1-0.4-1.1-0.9
		L12.3,57.7z"></path>
</g>
<g id="light">
	<path fill="#CCCCCC" d="M50.1,51.7h-9.4v-3.4h9.4V51.7z M41.2,51.2h8.4v-2.4h-8.4V51.2z"></path>
	<path fill="#CCCCCC" d="M85.7,51.7h-9.4v-3.4h9.4V51.7z M76.8,51.2h8.4v-2.4h-8.4V51.2z"></path>
	<circle fill="#CCCCCC" cx="45.3" cy="49.9" r="3.3"></circle>
	<circle fill="#CCCCCC" cx="81" cy="49.9" r="3.3"></circle>
	<path fill="#CCCCCC" d="M14,41.8h6.9V41h-5.2l-1.9,0.8v0.1C13.9,41.8,14,41.8,14,41.8z"></path>
	<path fill="#CCCCCC" d="M14,58.2c0,0-0.1,0-0.1,0v0.1l1.9,0.8h5.2v-0.9H14z"></path>
	<path fill="#CCCCCC" d="M0.9,54.9l-0.3-4c0-0.5,0-1.4,0-2l0.3-3.8c0-0.3,0.2-0.7,0.5-0.9H0.8C0.4,44.2,0,44.6,0,45v10.1
		c0,0.5,0.4,0.8,0.8,0.8h0.7C1.1,55.7,0.9,55.3,0.9,54.9z"></path>
	<rect x="77.7" y="41.4" fill="#B3B3B3" width="16.5" height="1.3"></rect>
	<rect x="77.7" y="57.3" fill="#B3B3B3" width="16.5" height="1.3"></rect>
</g>
<g id="shadow">
	<path fill="#000000" d="M27.5,57.6c-0.1,0-0.3-0.1-0.3-0.3V42.6c0-0.1,0.1-0.3,0.3-0.3s0.3,0.1,0.3,0.3v14.7C27.8,57.5,27.7,57.6,27.5,57.6z"></path>
	<path fill="#000000" d="M36.4,57.6c-0.1,0-0.3-0.1-0.3-0.3V42.6c0-0.1,0.1-0.3,0.3-0.3s0.3,0.1,0.3,0.3v14.7C36.7,57.5,36.6,57.6,36.4,57.6z"></path>
	<path fill="#000000" d="M54.2,57.6c-0.1,0-0.3-0.1-0.3-0.3V42.6c0-0.1,0.1-0.3,0.3-0.3s0.3,0.1,0.3,0.3v14.7C54.5,57.5,54.3,57.6,54.2,57.6z"></path>
	<path fill="#000000" d="M63.1,57.6c-0.1,0-0.3-0.1-0.3-0.3V42.6c0-0.1,0.1-0.3,0.3-0.3s0.3,0.1,0.3,0.3v14.7C63.3,57.5,63.2,57.6,63.1,57.6z"></path>
	<path fill="#000000" d="M72,57.6c-0.1,0-0.3-0.1-0.3-0.3V42.6c0-0.1,0.1-0.3,0.3-0.3s0.3,0.1,0.3,0.3v14.7C72.2,57.5,72.1,57.6,72,57.6z"></path>
	<path fill="#000000" d="M89.8,57.6c-0.1,0-0.3-0.1-0.3-0.3V42.6c0-0.1,0.1-0.3,0.3-0.3s0.3,0.1,0.3,0.3v14.7C90,57.5,89.9,57.6,89.8,57.6z"></path>
	<path fill="#000000" d="M98.7,57.6c-0.1,0-0.3-0.1-0.3-0.3V42.6c0-0.1,0.1-0.3,0.3-0.3s0.3,0.1,0.3,0.3v14.7C98.9,57.5,98.8,57.6,98.7,57.6z"></path>
	<path fill="#000000" d="M26.5,47.9c0-0.6,0.1-1.2,0.1-1.8h-3.7v8h3.8c-0.1-0.6-0.1-1.2-0.1-1.8h-2.6v-4.3H26.5z"></path>
	<polygon fill="#000000" points="22.7,56.6 22.1,57.6 22.1,43.1 22.7,44.1 	"></polygon>
	<path fill="#000000" d="M21.3,56.2v0.4h-8.4c0,0-0.6-2.1-0.6-6c0,0,0.5,3.4,1.2,5.4C13.5,56,16.5,56.5,21.3,56.2z"></path>
	<polygon fill="#000000" points="0.8,49.5 1.2,49.5 1.2,46.5 1,46.5 	"></polygon>
	<polygon fill="#000000" points="0.8,50.2 1.2,50.2 1.2,53.1 1,53.1 	"></polygon>
	<path fill="#000000" d="M45.3,46.6c0.1,0,0.2,0,0.2,0v-4c0-0.1-0.1-0.3-0.3-0.3s-0.3,0.1-0.3,0.3v4C45.2,46.6,45.2,46.6,45.3,46.6z"></path>
	<path fill="#000000" d="M45.3,53.2c-0.1,0-0.2,0-0.3,0v4.2c0,0.1,0.1,0.3,0.3,0.3s0.3-0.1,0.3-0.3v-4.2C45.5,53.2,45.4,53.2,45.3,53.2z"></path>
	<path fill="#000000" d="M81,46.6c0,0,0.1,0,0.1,0v-4c0-0.1-0.1-0.3-0.3-0.3s-0.3,0.1-0.3,0.3v4C80.7,46.6,80.9,46.6,81,46.6z"></path>
	<path fill="#000000" d="M81,53.2c-0.1,0-0.2,0-0.4,0v4.2c0,0.1,0.1,0.3,0.3,0.3s0.3-0.1,0.3-0.3v-4.2C81.1,53.2,81,53.2,81,53.2z"></path>
	<path fill="#000000" d="M48.6,50.7c0-0.1,0-0.3,0-0.4c0,0.3-0.1,0.6-0.3,0.9h0.3C48.6,51.1,48.6,50.9,48.6,50.7z"></path>
	<path fill="#000000" d="M42.1,50.3c0,0.1,0,0.3,0,0.4c0,0.2,0,0.4,0.1,0.5h0.3C42.2,50.9,42.1,50.6,42.1,50.3z"></path>
	<path fill="#000000" d="M48,51.7c-0.6,0.9-1.6,1.5-2.7,1.5c-1.1,0-2.1-0.6-2.7-1.5h-0.4c0.4,1.3,1.7,2.2,3.1,2.2c1.5,0,2.7-0.9,3.1-2.2H48z"></path>
	<path fill="#000000" d="M84.3,50.7c0-0.1,0-0.3,0-0.4c0,0.3-0.1,0.6-0.3,0.9h0.3C84.3,51.1,84.3,50.9,84.3,50.7z"></path>
	<path fill="#000000" d="M77.7,50.3c0,0.1,0,0.3,0,0.4c0,0.2,0,0.4,0.1,0.5H78C77.9,50.9,77.8,50.6,77.7,50.3z"></path>
	<path fill="#000000" d="M83.7,51.7c-0.6,0.9-1.6,1.5-2.7,1.5c-1.1,0-2.1-0.6-2.7-1.5h-0.4C78.3,53,79.5,54,81,54c1.5,0,2.7-0.9,3.1-2.2H83.7z"></path>
</g>
<g id="hlight">
	<polygon fill="#FFFFFF" points="1.7,44.3 1.7,44.1 9.3,43.4 9.3,43.6 	"></polygon>
	<polygon fill="#FFFFFF" points="9.3,56.5 1.7,55.8 1.7,55.5 9.3,56.3 	"></polygon>
	<path fill="#FFFFFF" d="M21.3,44.2v-0.4h-8.4c0,0-0.6,2.1-0.6,6c0,0,0.5-3.4,1.2-5.4C13.5,44.4,16.5,43.9,21.3,44.2z"></path>
	<path fill="#FFFFFF" d="M1,53.5c-0.5,0.6-0.5,1.6,0,2.2l0,0C2.2,55.2,2.2,54.1,1,53.5"></path>
	<path fill="#FFFFFF" d="M1,44c-0.5,0.6-0.5,1.6,0,2.2l0,0C2.2,45.6,2.2,44.6,1,44"></path>
	<path fill="#FFFFFF" d="M48.6,49.9L48.6,49.9c0-1.7-1.5-3.2-3.3-3.2S42,48.1,42,49.9l0,0c0-1.9,1.4-3.4,3.3-3.4S48.6,48,48.6,49.9z
		"></path>
	<path fill="#FFFFFF" d="M84.3,49.9L84.3,49.9c0-1.7-1.5-3.2-3.3-3.2c-1.7,0-3.3,1.4-3.3,3.2l0,0c0-1.9,1.4-3.4,3.3-3.4
		S84.3,48,84.3,49.9z"></path>
	<polygon fill="#E6E6E6" points="19.7,43.3 13.3,43.3 11.2,42.8 19.7,42.8 	"></polygon>
	<polygon fill="#E6E6E6" points="11.6,49.8 9.3,49.8 9.9,43.7 12,44.5 	"></polygon>
	<polygon fill="#E6E6E6" points="12,55.8 9.9,56.4 9.3,50.5 11.6,50.5 	"></polygon>
	<polygon fill="#E6E6E6" points="19.7,56.7 13.3,56.7 11.2,57.2 19.7,57.2 	"></polygon>
	<rect x="54.5" y="44.2" fill="#FFFFFF" width="8.4" height="1.2"></rect>
	<rect x="63.3" y="44.2" fill="#FFFFFF" width="8.4" height="1.2"></rect>
	<rect x="27.9" y="44.2" fill="#FFFFFF" width="8.3" height="1.2"></rect>
	<rect x="45.6" y="44.2" fill="#FFFFFF" width="8.4" height="1.2"></rect>
	<rect x="36.7" y="44.2" fill="#FFFFFF" width="8.4" height="1.2"></rect>
	<rect x="90" y="44.2" fill="#FFFFFF" width="8.4" height="1.2"></rect>
	<rect x="72.2" y="44.2" fill="#FFFFFF" width="8.4" height="1.2"></rect>
	<rect x="81.1" y="44.2" fill="#FFFFFF" width="8.4" height="1.2"></rect>
</g>
	</g>
</svg>