<svg width="24" height="24" viewBox="0 0 24 24" fill="none" xmlns="http://www.w3.org/2000/svg">
<path d="M18.1335 14.3864V7.80416C18.1335 7.70944 18.109 7.61642 18.0624 7.53466C18.0159 7.45289 17.949 7.38533 17.8686 7.33889L12.1513 4.03583C12.0735 3.99088 11.9858 3.96727 11.8965 3.96727C11.8073 3.96727 11.7195 3.99088 11.6417 4.03583L5.92448 7.33889C5.8441 7.38533 5.7772 7.45289 5.73064 7.53466C5.68408 7.61642 5.65955 7.70944 5.65955 7.80416V14.3864C5.65955 14.4811 5.68408 14.5742 5.73064 14.6559C5.7772 14.7377 5.8441 14.8053 5.92448 14.8517L11.6417 18.1548C11.7195 18.1997 11.8073 18.2233 11.8965 18.2233C11.9858 18.2233 12.0735 18.1997 12.1513 18.1548L17.8686 14.8517C17.949 14.8053 18.0159 14.7377 18.0624 14.6559C18.109 14.5742 18.1335 14.4811 18.1335 14.3864Z" stroke="#161616" stroke-width="1.377" stroke-linecap="round" stroke-linejoin="round"/>
<path d="M19.8229 6.63688L11.9753 11.0953L3.9696 6.63612" stroke="#161616" stroke-width="1.377" stroke-linecap="round" stroke-linejoin="round"/>
<path d="M11.9755 11.0953L11.8971 20.0182" stroke="#161616" stroke-width="1.377" stroke-linecap="round" stroke-linejoin="round"/>
</svg>
