<svg width="41" height="40" viewBox="0 0 41 40" fill="none" xmlns="http://www.w3.org/2000/svg">
<path d="M28.1882 2.91675H11.45C10.9898 2.91675 10.6167 3.28983 10.6167 3.75008V36.2501C10.6167 36.7103 10.9898 37.0834 11.45 37.0834H35.6167C36.077 37.0834 36.45 36.7103 36.45 36.2501V11.1786C36.45 10.9576 36.3622 10.7456 36.2059 10.5893L28.7775 3.16083C28.6212 3.00454 28.4092 2.91675 28.1882 2.91675Z" fill="white" stroke="#979593" stroke-width="2" stroke-miterlimit="10"/>
<path d="M28.1167 2.91675V10.4167C28.1167 10.877 28.4898 11.2501 28.95 11.2501H36.45" stroke="#979593" stroke-width="2" stroke-miterlimit="10"/>
<path d="M33.1169 25.4166H20.2002V24.5833H33.1169C33.347 24.5833 33.5335 24.7698 33.5335 24.9999C33.5335 25.23 33.347 25.4166 33.1169 25.4166ZM33.1169 22.9166H20.2002V22.0833H33.1169C33.347 22.0833 33.5335 22.2698 33.5335 22.4999C33.5335 22.73 33.347 22.9166 33.1169 22.9166ZM33.1169 20.4166H20.2002V19.5833H33.1169C33.347 19.5833 33.5335 19.7698 33.5335 19.9999C33.5335 20.23 33.347 20.4166 33.1169 20.4166ZM33.1169 17.9166H20.2002V17.0833H33.1169C33.347 17.0833 33.5335 17.2698 33.5335 17.4999C33.5335 17.73 33.347 17.9166 33.1169 17.9166ZM33.1169 27.9166H20.2002V27.0833H33.1169C33.347 27.0833 33.5335 27.2698 33.5335 27.4999C33.5335 27.73 33.347 27.9166 33.1169 27.9166Z" fill="#C8C6C4"/>
<path d="M5.20036 30.8334H18.5337C19.4541 30.8334 20.2004 30.0872 20.2004 29.1667V15.8334C20.2004 14.913 19.4541 14.1667 18.5337 14.1667H5.20036C4.2799 14.1667 3.53369 14.913 3.53369 15.8334V29.1667C3.53369 30.0872 4.2799 30.8334 5.20036 30.8334Z" fill="#185ABD"/>
<path d="M9.21057 25.2689C9.23811 25.4864 9.25598 25.6759 9.26457 25.8379H9.29632C9.30907 25.6844 9.33336 25.4992 9.36927 25.2817C9.40519 25.0646 9.44023 24.8813 9.47415 24.7321L10.9466 18.3333H12.8509L14.3743 24.6363C14.4506 24.9474 14.514 25.3435 14.5647 25.8251H14.5901C14.6112 25.4926 14.6641 25.1091 14.7488 24.6745L15.9676 18.3333H17.7004L15.5677 27.4999H13.5427L12.0892 21.4273C12.0469 21.2524 11.9993 21.0246 11.9464 20.7432C11.8934 20.4622 11.8606 20.2575 11.848 20.1297H11.8227C11.8057 20.2789 11.7729 20.5004 11.7242 20.7943C11.6755 21.0885 11.6363 21.3057 11.6067 21.4464L10.242 27.4999H8.18548L6.03369 18.3333H7.79823L9.12503 24.745C9.15457 24.8769 9.18303 25.0518 9.21057 25.2689Z" fill="white"/>
</svg>
