<svg width="40" height="40" viewBox="0 0 40 40" fill="none" xmlns="http://www.w3.org/2000/svg">
<path d="M25.5312 3H6.93732C6.41965 3 6 3.39966 6 4.1752V36.5596C6 36.7701 6.41965 37.1698 6.93732 37.1698H32.612C33.1296 37.1698 33.5493 36.7701 33.5493 36.5596V10.9188C33.5493 10.4942 33.4897 10.3575 33.3846 10.2568L25.9297 3.15681C25.824 3.05675 25.6804 3 25.5312 3Z" fill="#E9E9E0"/>
<path d="M25.8608 3.09229V10.3222H33.4523L25.8608 3.09229Z" fill="#D9D7CA"/>
<path d="M13.9644 14.5931C15.5811 14.5931 16.8917 13.3449 16.8917 11.8052C16.8917 10.2655 15.5811 9.01733 13.9644 9.01733C12.3477 9.01733 11.0371 10.2655 11.0371 11.8052C11.0371 13.3449 12.3477 14.5931 13.9644 14.5931Z" fill="#F3D55B"/>
<path d="M6 26.7969H13.0475H33.5493V20.085L27.1425 14.2883L20.4153 21.3053L16.9025 17.9597L6 26.7969Z" fill="#26B99A"/>
<path d="M32.612 37.1701H6.93732C6.41965 37.1701 6 36.7704 6 36.2774V26.7971H33.5493V36.2774C33.5493 36.7704 33.1296 37.1701 32.612 37.1701Z" fill="#14A085"/>
</svg>
