<svg width="41" height="40" viewBox="0 0 41 40" fill="none" xmlns="http://www.w3.org/2000/svg">
<path d="M10.0808 3.00012C8.16205 3.00012 6.6001 4.58485 6.6001 6.53017V33.6399C6.6001 35.5853 8.16205 37.17 10.0808 37.17H30.5274C32.4462 37.17 34.0082 35.5853 34.0082 33.6399V11.3482C34.0082 11.3482 34.0629 10.6954 33.7834 10.0602C33.5214 9.46483 33.0945 9.05042 33.0945 9.05042C33.0934 9.04895 33.0923 9.0475 33.0913 9.04604L28.0184 4.00127C28.0156 3.99839 28.0128 3.99554 28.01 3.99272C28.01 3.99272 27.5769 3.57459 26.9348 3.29527C26.1789 2.96638 25.3997 3.00109 25.3997 3.00109L25.4113 3L10.0808 3.00012Z" fill="#FF2116"/>
<path d="M10.0807 4.15967H25.4111C25.415 4.15971 25.4189 4.15971 25.4227 4.15967C25.4227 4.15967 26.0358 4.16569 26.4842 4.36077C26.9157 4.54853 27.2217 4.83276 27.2238 4.83466C27.2238 4.83467 27.2259 4.83685 27.2259 4.83685L32.2861 9.86985C32.2861 9.86985 32.591 10.1962 32.7387 10.532C32.858 10.8031 32.8653 11.299 32.8653 11.299C32.8648 11.3072 32.8645 11.3154 32.8643 11.3236V33.64C32.8643 34.9632 31.8323 36.0105 30.5272 36.0105H10.0807C8.77559 36.0105 7.74365 34.9632 7.74365 33.64V6.5302C7.74365 5.20695 8.77559 4.15971 10.0807 4.15971V4.15967Z" fill="#F5F5F5"/>
<path d="M13.4437 23.3449C12.6568 22.547 13.5082 21.4507 15.8187 20.2866L17.2726 19.5541L17.8389 18.2977C18.1504 17.6066 18.6154 16.4791 18.8721 15.7921L19.3389 14.5429L19.0172 13.6184C18.6217 12.4817 18.4807 10.7735 18.7316 10.1592C19.0715 9.32724 20.1849 9.41261 20.6257 10.3045C20.97 11.001 20.9348 12.2624 20.5267 13.8532L20.1921 15.1574L20.4868 15.6646C20.6489 15.9436 21.1223 16.6059 21.5389 17.1365L22.3218 18.1238L23.296 17.9949C26.3908 17.5855 27.4508 18.2814 27.4508 19.2792C27.4508 20.5384 25.0207 20.6424 22.98 19.1892C22.5209 18.8622 22.2055 18.5374 22.2055 18.5374C22.2055 18.5374 20.9271 18.8013 20.2977 18.9733C19.648 19.1509 19.3239 19.2621 18.3721 19.5877C18.3721 19.5877 18.0382 20.0794 17.8206 20.4368C17.0111 21.7666 16.0658 22.8686 15.3908 23.2697C14.635 23.7187 13.8427 23.7493 13.4437 23.3449ZM14.6787 22.8976C15.121 22.6204 16.0163 21.5468 16.6361 20.5504L16.887 20.147L15.7445 20.7294C13.9798 21.6289 13.1726 22.4767 13.5923 22.9895C13.8282 23.2776 14.1103 23.2537 14.6787 22.8976ZM26.1408 19.6356C26.5734 19.3284 26.5106 18.7093 26.0215 18.4596C25.6409 18.2654 25.334 18.2254 24.3452 18.2402C23.7375 18.2822 22.7603 18.4064 22.5947 18.4442C22.5947 18.4442 23.1315 18.8203 23.3699 18.9586C23.6871 19.1423 24.4581 19.4833 25.021 19.658C25.5763 19.8303 25.8974 19.8122 26.1408 19.6356V19.6356ZM21.532 17.6936C21.2702 17.4145 20.825 16.832 20.5426 16.3992C20.1734 15.9083 19.9882 15.5619 19.9882 15.5619C19.9882 15.5619 19.7183 16.442 19.4969 16.9716L18.8061 18.7027L18.6058 19.0954C18.6058 19.0954 19.6706 18.7415 20.2124 18.598C20.7861 18.446 21.9507 18.2139 21.9507 18.2139L21.532 17.6936ZM20.0468 11.6548C20.1136 11.0866 20.1419 10.5192 19.9619 10.2331C19.4624 9.67948 18.8595 10.1411 18.9616 11.4573C18.996 11.9 19.1045 12.6569 19.2495 13.1234L19.5132 13.9716L19.6988 13.3328C19.8009 12.9814 19.9575 12.2263 20.0468 11.6548Z" fill="#FF2116"/>
<path d="M14.7817 27.04H16.0593C16.4675 27.04 16.7989 27.0796 17.0534 27.1588C17.3079 27.2355 17.5221 27.4079 17.696 27.6762C17.8699 27.9419 17.9568 28.2625 17.9568 28.6381C17.9568 28.983 17.8862 29.2793 17.7451 29.5271C17.604 29.775 17.4138 29.9538 17.1744 30.0637C16.9375 30.1735 16.5721 30.2284 16.0782 30.2284H15.636V32.271H14.7817V27.04ZM15.636 27.7107V29.5348H16.0593C16.4373 29.5348 16.6981 29.4633 16.8417 29.3202C16.9879 29.1771 17.061 28.9446 17.061 28.6227C17.061 28.3826 17.0131 28.1884 16.9173 28.0402C16.8216 27.8895 16.7157 27.7975 16.5998 27.7643C16.4864 27.7285 16.3063 27.7106 16.0593 27.7106L15.636 27.7107Z" fill="#2C2C2C"/>
<path d="M18.6108 27.04H19.7712C20.3332 27.04 20.7817 27.1409 21.1169 27.3428C21.4545 27.5446 21.709 27.8448 21.8804 28.2434C22.0543 28.6419 22.1412 29.0839 22.1412 29.5693C22.1412 30.0803 22.0631 30.5363 21.9068 30.9374C21.7531 31.336 21.5163 31.6579 21.1962 31.9031C20.8787 32.1484 20.4252 32.271 19.8355 32.271H18.6108V27.04ZM19.4651 27.7337V31.5774H19.8204C20.3168 31.5774 20.6771 31.4036 20.9014 31.0562C21.1257 30.7062 21.2378 30.2399 21.2378 29.6574C21.2378 28.3749 20.7653 27.7337 19.8204 27.7337H19.4651Z" fill="#2C2C2C"/>
<path d="M22.9614 27.04H25.8265V27.7337H23.8157V29.2972H25.4259V29.9908H23.8157V32.271H22.9614V27.04Z" fill="#2C2C2C"/>
</svg>
