<svg width="41" height="40" viewBox="0 0 41 40" fill="none" xmlns="http://www.w3.org/2000/svg">
<path d="M28.7878 2.91675H12.0496C11.5894 2.91675 11.2163 3.28983 11.2163 3.75008V36.2501C11.2163 36.7103 11.5894 37.0834 12.0496 37.0834H36.2163C36.6766 37.0834 37.0496 36.7103 37.0496 36.2501V11.1786C37.0496 10.9576 36.9619 10.7456 36.8056 10.5893L29.3771 3.16083C29.2208 3.00454 29.0088 2.91675 28.7878 2.91675Z" fill="white" stroke="#979593" stroke-width="2" stroke-miterlimit="10"/>
<path d="M28.7163 2.91675V10.4167C28.7163 10.877 29.0894 11.2501 29.5496 11.2501H37.0496" stroke="#979593" stroke-width="2" stroke-miterlimit="10"/>
<path d="M33.7165 25.4166H20.7998V24.5833H33.7165C33.9466 24.5833 34.1331 24.7698 34.1331 24.9999C34.1331 25.23 33.9466 25.4166 33.7165 25.4166ZM33.7165 22.9166H20.7998V22.0833H33.7165C33.9466 22.0833 34.1331 22.2698 34.1331 22.4999C34.1331 22.73 33.9466 22.9166 33.7165 22.9166ZM33.7165 20.4166H20.7998V19.5833H33.7165C33.9466 19.5833 34.1331 19.7698 34.1331 19.9999C34.1331 20.23 33.9466 20.4166 33.7165 20.4166ZM33.7165 17.9166H20.7998V17.0833H33.7165C33.9466 17.0833 34.1331 17.2698 34.1331 17.4999C34.1331 17.73 33.9466 17.9166 33.7165 17.9166ZM33.7165 27.9166H20.7998V27.0833H33.7165C33.9466 27.0833 34.1331 27.2698 34.1331 27.4999C34.1331 27.73 33.9466 27.9166 33.7165 27.9166Z" fill="#C8C6C4"/>
<path d="M5.37329 14.0005H19.2655C20.0325 14.0005 20.6544 14.6223 20.6544 15.3894V29.2816C20.6544 30.0487 20.0325 30.6705 19.2655 30.6705H5.37329C4.60621 30.6705 3.98438 30.0487 3.98438 29.2816V15.3894C3.98438 14.6223 4.60621 14.0005 5.37329 14.0005Z" fill="url(#paint0_linear_48600_29171)"/>
<path d="M8.28564 26.8502L11.2074 22.3227L8.53039 17.8203H10.6838L12.1447 20.6997C12.2796 20.9732 12.3721 21.1763 12.4221 21.3104H12.441C12.537 21.0922 12.638 20.8803 12.7441 20.6747L14.3058 17.8218H16.2827L13.5374 22.2977L16.3524 26.8502H14.249L12.5615 23.6897C12.482 23.5552 12.4146 23.414 12.36 23.2676H12.335C12.2855 23.411 12.2199 23.5483 12.1395 23.6768L10.402 26.8502H8.28564Z" fill="white"/>
<defs>
<linearGradient id="paint0_linear_48600_29171" x1="6.88029" y1="12.9152" x2="17.7585" y2="31.7558" gradientUnits="userSpaceOnUse">
<stop stop-color="#18884F"/>
<stop offset="0.5" stop-color="#117E43"/>
<stop offset="1" stop-color="#0B6631"/>
</linearGradient>
</defs>
</svg>
