<svg version="1.1" id="Layer_1" xmlns="http://www.w3.org/2000/svg" xmlns:xlink="http://www.w3.org/1999/xlink" x="0px" y="0px" viewBox="0 0 100 100" xml:space="preserve"><desc>Copyright Opto 22</desc> 
<style type="text/css">
	.st0{fill:#A67C52;}
	.st1{fill:url(#SVGID_1_);}
	.st2{fill:url(#SVGID_2_);}
	.st3{fill:#B3B3B3;}
	.st4{fill:#333333;}
	.st5{fill:url(#SVGID_3_);}
	.st6{fill:url(#SVGID_4_);}
	.st7{fill:url(#SVGID_5_);}
	.st8{fill:none;stroke:#FFFFFF;stroke-width:0.2732;stroke-miterlimit:10;}
	.st9{fill:url(#SVGID_6_);}
	.st10{fill:#FF9900;}
	.st11{fill:none;stroke:#999999;stroke-width:0.8196;stroke-linecap:round;stroke-miterlimit:10;}
	.st12{fill:#E6E6E6;stroke:#FF9900;stroke-width:0.8196;stroke-miterlimit:10;}
	.st13{fill:#E6E6E6;stroke:#A67C52;stroke-width:0.5464;stroke-miterlimit:10;}
	.st14{fill:url(#SVGID_7_);}
	.st15{fill:none;stroke:#534741;stroke-width:0.5464;stroke-miterlimit:10;}
	.st16{fill:none;stroke:#F2F2F2;stroke-width:0.2732;stroke-miterlimit:10;}
	.st17{fill:none;stroke:#603813;stroke-width:0.2732;stroke-miterlimit:10;}
	.st18{fill:none;stroke:url(#SVGID_8_);stroke-width:0.2732;stroke-miterlimit:10;}
	.st19{fill:none;stroke:#C78163;stroke-width:0.5464;stroke-miterlimit:10;}
	.st20{fill:none;stroke:#FFFFFF;stroke-width:0.8196;stroke-miterlimit:10;}
	.st21{fill:none;stroke:#4D4D4D;stroke-width:0.5464;stroke-miterlimit:10;}
	.st22{fill:#4D4D4D;}
	.st23{fill:none;stroke:#333333;stroke-width:0.2732;stroke-linecap:round;stroke-miterlimit:10;}
	.st24{fill:#DEC99C;}
</style>
<desc>Copyright Opto 22</desc>
<g>
	<g id="lower_tank">
		<path class="st0" d="M30.5,93.8c0,3.4,8.7,6.2,19.5,6.2s19.5-2.8,19.5-6.2v-1c0-3.4-8.7-6.2-19.5-6.2s-19.5,2.8-19.5,6.2V93.8z"></path>
		
			<linearGradient id="SVGID_1_" gradientUnits="userSpaceOnUse" x1="69.594" y1="242.744" x2="30.546" y2="242.744" gradientTransform="matrix(1 0 0 1 0 -150)">
			<stop offset="0" style="stop-color:#F2E2CB"></stop>
			<stop offset="0.1667" style="stop-color:#FFFFFF"></stop>
			<stop offset="0.2433" style="stop-color:#E8DECF"></stop>
			<stop offset="0.3228" style="stop-color:#D4C0A6"></stop>
			<stop offset="0.4003" style="stop-color:#C4A985"></stop>
			<stop offset="0.4743" style="stop-color:#B9986D"></stop>
			<stop offset="0.5433" style="stop-color:#B28E5F"></stop>
			<stop offset="0.6022" style="stop-color:#B08B5A"></stop>
			<stop offset="0.6957" style="stop-color:#AD8858"></stop>
			<stop offset="0.7737" style="stop-color:#A28053"></stop>
			<stop offset="0.846" style="stop-color:#917249"></stop>
			<stop offset="0.9149" style="stop-color:#795F3C"></stop>
			<stop offset="0.9808" style="stop-color:#5A452B"></stop>
			<stop offset="1" style="stop-color:#4F3D25"></stop>
		</linearGradient>
		<ellipse class="st1" cx="50.1" cy="92.7" rx="19.5" ry="6.2"></ellipse>
		
			<linearGradient id="SVGID_2_" gradientUnits="userSpaceOnUse" x1="66.808" y1="242.068" x2="33.332" y2="242.068" gradientTransform="matrix(1 0 0 1 0 -150)">
			<stop offset="0" style="stop-color:#CCBFAB"></stop>
			<stop offset="0.1667" style="stop-color:#FFFFFF"></stop>
			<stop offset="0.1808" style="stop-color:#F9F7F5"></stop>
			<stop offset="0.2587" style="stop-color:#DAD0C2"></stop>
			<stop offset="0.3354" style="stop-color:#C1AF98"></stop>
			<stop offset="0.4095" style="stop-color:#AD9677"></stop>
			<stop offset="0.4801" style="stop-color:#9F845F"></stop>
			<stop offset="0.5459" style="stop-color:#977951"></stop>
			<stop offset="0.6022" style="stop-color:#94754C"></stop>
			<stop offset="0.6957" style="stop-color:#91724A"></stop>
			<stop offset="0.7737" style="stop-color:#866A45"></stop>
			<stop offset="0.846" style="stop-color:#755C3B"></stop>
			<stop offset="0.9149" style="stop-color:#5D492E"></stop>
			<stop offset="0.9808" style="stop-color:#3E2F1E"></stop>
			<stop offset="1" style="stop-color:#332718"></stop>
		</linearGradient>
		<path class="st2" d="M33.3,86.3v6.2c0,2.9,7.5,5.3,16.7,5.3s16.7-2.4,16.7-5.3v-6.2H33.3z"></path>
		<g>
			<path class="st3" d="M64,93.9c0.7-0.9,0.5-2.2-0.3-2.9c-0.2-0.2-0.5-0.3-0.8-0.4c0.1,0,0.1,0.1,0.2,0.1c0.8,0.7,1,2,0.3,2.9
				c-0.5,0.6-1.2,0.9-1.9,0.8C62.3,95,63.4,94.8,64,93.9z"></path>
			<path class="st4" d="M63.4,93.7c0.7-0.9,0.5-2.2-0.3-2.9c-0.1,0-0.1-0.1-0.2-0.1c-0.7-0.1-1.4,0.1-1.9,0.8
				c-0.7,0.9-0.5,2.2,0.3,2.9c0.1,0,0.1,0.1,0.2,0.1C62.2,94.6,62.9,94.3,63.4,93.7z"></path>
		</g>
		<g>
			<path class="st3" d="M47.6,94.1c0-1.1,0.8-1.9,1.8-2c-0.1,0-0.1,0-0.2,0c-1.1,0-2,0.9-2,2s0.9,2,2,2c0.1,0,0.1,0,0.2,0
				C48.4,96.1,47.6,95.2,47.6,94.1z"></path>
			<path d="M51.2,94.1c0-1.1-0.8-1.9-1.8-2c-1,0.1-1.8,1-1.8,2c0,1.1,0.8,1.9,1.8,2C50.4,96.1,51.2,95.2,51.2,94.1z"></path>
			<path d="M51.2,94.1c0-1.1-0.8-1.9-1.8-2c-1,0.1-1.8,1-1.8,2c0,1.1,0.8,1.9,1.8,2C50.4,96.1,51.2,95.2,51.2,94.1z"></path>
		</g>
		<g>
			
				<linearGradient id="SVGID_3_" gradientUnits="userSpaceOnUse" x1="-95.0617" y1="118.5402" x2="-98.7201" y2="118.5402" gradientTransform="matrix(0.9151 -0.4033 0.4033 0.9151 78.1289 -55.0459)">
				<stop offset="0" style="stop-color:#FFFFFF"></stop>
				<stop offset="1" style="stop-color:#000000"></stop>
			</linearGradient>
			<path class="st5" d="M36.3,93.3c-0.4-1,0-2.2,0.9-2.7c0.1-0.1,0.2-0.1,0.3-0.1c-0.3-0.1-0.6,0-0.9,0.2c-0.9,0.5-1.2,1.7-0.9,2.7
				c0.3,0.9,1.1,1.4,1.9,1.2C37,94.4,36.5,94,36.3,93.3z"></path>
			
				<linearGradient id="SVGID_4_" gradientUnits="userSpaceOnUse" x1="38.907" y1="242.6795" x2="35.5135" y2="242.6795" gradientTransform="matrix(1 0 0 1 0 -150)">
				<stop offset="0" style="stop-color:#FFFFFF"></stop>
				<stop offset="1" style="stop-color:#000000"></stop>
			</linearGradient>
			<path class="st6" d="M38.9,92.5c0-0.7-0.3-1.4-0.8-1.7c-0.1,0-0.2,0-0.3,0c-0.9,0-1.7,0.9-1.7,2c0,0.7,0.3,1.4,0.8,1.7
				c0.1,0,0.2,0,0.3,0C38.1,94.6,38.9,93.7,38.9,92.5z"></path>
			<path d="M38.8,91.7c-0.2-0.7-0.8-1.1-1.3-1.2c-0.1,0-0.2,0.1-0.3,0.1c-0.9,0.5-1.2,1.7-0.9,2.7c0.2,0.7,0.8,1.1,1.3,1.2
				c0.1,0,0.2-0.1,0.3-0.1C38.8,94,39.1,92.8,38.8,91.7z"></path>
		</g>
	</g>
	<g id="upper_tank">
		<g>
			
				<linearGradient id="SVGID_5_" gradientUnits="userSpaceOnUse" x1="58.211" y1="151.7085" x2="41.929" y2="151.7085" gradientTransform="matrix(1 0 0 1 0 -150)">
				<stop offset="0" style="stop-color:#F2E2CB"></stop>
				<stop offset="0.1667" style="stop-color:#FFFFFF"></stop>
				<stop offset="0.2433" style="stop-color:#E8DECF"></stop>
				<stop offset="0.3228" style="stop-color:#D4C0A6"></stop>
				<stop offset="0.4003" style="stop-color:#C4A985"></stop>
				<stop offset="0.4743" style="stop-color:#B9986D"></stop>
				<stop offset="0.5433" style="stop-color:#B28E5F"></stop>
				<stop offset="0.6022" style="stop-color:#B08B5A"></stop>
				<stop offset="0.6957" style="stop-color:#AD8858"></stop>
				<stop offset="0.7737" style="stop-color:#A28053"></stop>
				<stop offset="0.846" style="stop-color:#917249"></stop>
				<stop offset="0.9149" style="stop-color:#795F3C"></stop>
				<stop offset="0.9808" style="stop-color:#5A452B"></stop>
				<stop offset="1" style="stop-color:#4F3D25"></stop>
			</linearGradient>
			<path class="st7" d="M41.9,3.4v-2c0-0.8,3.6-1.4,8.1-1.4s8.1,0.6,8.1,1.4v2"></path>
			<path class="st8" d="M50.1,0.1c4.5,0,8.1,0.6,8.1,1.4"></path>
			
				<linearGradient id="SVGID_6_" gradientUnits="userSpaceOnUse" x1="69.594" y1="196.6485" x2="30.546" y2="196.6485" gradientTransform="matrix(1 0 0 1 0 -150)">
				<stop offset="0" style="stop-color:#AF8B5A"></stop>
				<stop offset="6.000000e-03" style="stop-color:#C2A47B"></stop>
				<stop offset="1.270000e-02" style="stop-color:#D4BA98"></stop>
				<stop offset="1.990000e-02" style="stop-color:#E1CCAE"></stop>
				<stop offset="2.770000e-02" style="stop-color:#EBD8BE"></stop>
				<stop offset="3.640000e-02" style="stop-color:#F0E0C8"></stop>
				<stop offset="4.810000e-02" style="stop-color:#F2E2CB"></stop>
				<stop offset="0.3094" style="stop-color:#E8DECF"></stop>
				<stop offset="0.3743" style="stop-color:#D4C0A6"></stop>
				<stop offset="0.4375" style="stop-color:#C4A985"></stop>
				<stop offset="0.4979" style="stop-color:#B9986D"></stop>
				<stop offset="0.5541" style="stop-color:#B28E5F"></stop>
				<stop offset="0.6022" style="stop-color:#B08B5A"></stop>
				<stop offset="0.6957" style="stop-color:#AD8858"></stop>
				<stop offset="0.7737" style="stop-color:#A28053"></stop>
				<stop offset="0.846" style="stop-color:#917249"></stop>
				<stop offset="0.9149" style="stop-color:#795F3C"></stop>
				<stop offset="0.9808" style="stop-color:#5A452B"></stop>
				<stop offset="1" style="stop-color:#4F3D25"></stop>
			</linearGradient>
			<path class="st9" d="M50.1,2.7c-10.8,0-19.5,1.5-19.5,3.4v79c0,3.1,8.7,5.5,19.5,5.5s19.5-2.5,19.5-5.5v-79
				C69.6,4.2,60.9,2.7,50.1,2.7z M59.5,40l-1.6,2.5l1.8,3.3l-2,2.5l1.6,3.3l-1.5,3.9l1.5,3.4l-1.6,2.9l2,3.5l-2.5,3.1l2.4,3.3
				l-2.5,3.8l1.6,2.7l-2.1,3.1l1.1,2.4l-2.5,2.5l-11.6-0.3l-2.5-2.5l1.4-2.1l-2.5-3.1l1.6-2.9L39,71.6l2.4-3.1l-2.5-3.3l2-3.3
				l-1.6-3.1l1.5-3.5l-1.5-3.8l1.6-3.3l-2-2.5l1.8-3.3L39,39.9l1.6-3.1l-1.8-2.9l1.8-2.7L39,27.4l2-2.9l-2-3.1l2.5-2.7l-2-2.4l3-2
				c0,0-1.6-1.5-2.5-2c1.8-1.3,5.1-2.6,5.1-2.6l8.1,0.1c0,0,3.3,1,5.1,2.2c-0.9,0.5-2.5,2.1-2.5,2.1l3,2.2l-2,2.4l2.5,2.7l-2,3.1
				l2,2.9l-1.6,3.8l1.8,2.7l-1.8,2.9L59.5,40z"></path>
			<path class="st8" d="M69.6,6.2c0-1.9-8.7-3.4-19.5-3.4"></path>
			<g>
				<ellipse class="st10" cx="67.2" cy="36.6" rx="0.4" ry="1.2"></ellipse>
				<ellipse class="st10" cx="66.8" cy="36.6" rx="0.5" ry="1.4"></ellipse>
				<g>
					<path class="st11" d="M67.6,36.6h1.1c0.3,0,0.5-0.2,0.5-0.5v-3.8"></path>
				</g>
				<ellipse class="st12" cx="69" cy="31.2" rx="1" ry="2.7"></ellipse>
				<ellipse class="st13" cx="69.8" cy="31.2" rx="1" ry="2.7"></ellipse>
			</g>
			
				<linearGradient id="SVGID_7_" gradientUnits="userSpaceOnUse" x1="70.14" y1="236.3605" x2="30" y2="236.3605" gradientTransform="matrix(1 0 0 1 0 -150)">
				<stop offset="0" style="stop-color:#F2E2CB"></stop>
				<stop offset="0.1667" style="stop-color:#FFFFFF"></stop>
				<stop offset="0.2433" style="stop-color:#E8DECF"></stop>
				<stop offset="0.3228" style="stop-color:#D4C0A6"></stop>
				<stop offset="0.4003" style="stop-color:#C4A985"></stop>
				<stop offset="0.4743" style="stop-color:#B9986D"></stop>
				<stop offset="0.5433" style="stop-color:#B28E5F"></stop>
				<stop offset="0.6022" style="stop-color:#B08B5A"></stop>
				<stop offset="0.6957" style="stop-color:#AD8858"></stop>
				<stop offset="0.7737" style="stop-color:#A28053"></stop>
				<stop offset="0.846" style="stop-color:#917249"></stop>
				<stop offset="0.9149" style="stop-color:#795F3C"></stop>
				<stop offset="0.9808" style="stop-color:#5A452B"></stop>
				<stop offset="1" style="stop-color:#4F3D25"></stop>
			</linearGradient>
			<path class="st14" d="M30,82c0,3.1,9,5.7,20.1,5.7s20.1-2.5,20.1-5.7v3.1c0,3.1-9,5.7-20.1,5.7S30,88.2,30,85.1V82z"></path>
			<path class="st15" d="M30.3,82c0,3.1,8.9,5.7,19.8,5.7s19.8-2.5,19.8-5.7"></path>
			<path class="st16" d="M50.1,87.6c11,0,19.9-2.5,19.9-5.7"></path>
			<line class="st8" x1="61.1" y1="86.3" x2="61.1" y2="9.8"></line>
			<line class="st17" x1="35.7" y1="86" x2="35.7" y2="10.5"></line>
			
				<linearGradient id="SVGID_8_" gradientUnits="userSpaceOnUse" x1="69.7306" y1="160.5087" x2="30.4094" y2="160.5087" gradientTransform="matrix(1 0 0 1 0 -150)">
				<stop offset="0" style="stop-color:#998675"></stop>
				<stop offset="1" style="stop-color:#1A1A1A"></stop>
			</linearGradient>
			<path class="st18" d="M69.6,12c0-1.6-8.7-2.9-19.5-2.9S30.5,10.4,30.5,12"></path>
			<g>
				<path class="st19" d="M65.7,6.6c0,0,0.5,0,1.1-0.1c0.6,0,1.7,0.2,2.4,0.4l1.1,0.4C71,7.7,71.1,7.9,70.5,8s-1,0-1,0"></path>
			</g>
		</g>
		<path class="st20" d="M69.1,28.3c0,0-0.5,0.3-0.8,1.5"></path>
		<path class="st21" d="M66,6.7v1.7c0,0,0.9,0.5,3.5,1.1"></path>
		<path class="st22" d="M67.4,38.1c-1.4,0.5-1.3,6.1,0.2,5.6S68.9,37.6,67.4,38.1z"></path>
		<polygon class="st4" points="67.8,39 67.2,39 67.3,37 67.9,37 		"></polygon>
		<polygon class="st4" points="68.9,34.4 68.8,36.4 69.3,34.4 		"></polygon>
		<line class="st23" x1="67.3" y1="36.9" x2="68.8" y2="36.9"></line>
		<path class="st24" d="M43.9,85.9l-2.5-2.5l1.4-2.1l-2.5-3.1l1.6-2.9l-2.5-3.6l2.4-3.1l-2.5-3.3l2-3.3l-1.6-3.1l1.5-3.5l-1.5-3.8
			l1.6-3.3l-2-2.5l1.8-3.3l-1.6-2.5l1.6-3.1l-1.8-2.9l1.8-2.7l-1.6-3.8l2-2.9l-2-3.1l2.5-2.7l-2-2.4l3-2c0,0-1.6-1.5-2.5-2
			c1.7-1.2,4.8-2.4,5.1-2.6l-0.5,0c0,0-3.3,1.3-5.1,2.6c0.9,0.5,2.5,2,2.5,2l-3,2l2,2.4l-2.5,2.7l2,3.1l-2,2.9l1.6,3.8l-1.8,2.7
			l1.8,2.9l-1.6,3.1l1.6,2.5l-1.8,3.3l2,2.5l-1.6,3.3l1.5,3.8l-1.5,3.5l1.6,3.1l-2,3.3l2.5,3.3l-2.4,3.1l2.5,3.6l-1.6,2.9l2.5,3.1
			l-1.4,2.1l2.5,2.5l6.6,0.3l0,0L43.9,85.9z"></path>
	</g>
</g>
</svg>