<svg version="1.1" id="Layer_1" xmlns="http://www.w3.org/2000/svg" xmlns:xlink="http://www.w3.org/1999/xlink" x="0px" y="0px" viewBox="0 0 100 100" xml:space="preserve"><desc>Copyright Opto 22</desc> 
<g id="off_state">
	<g>
		
			<linearGradient id="SVGID_1_" gradientUnits="userSpaceOnUse" x1="17.4425" y1="89.046" x2="82.5576" y2="154.1611" gradientTransform="matrix(1 0 0 1 0 -74)">
			<stop offset="0" style="stop-color:#FFFFFF"></stop>
			<stop offset="0.7318" style="stop-color:#4D4D4D"></stop>
			<stop offset="0.986" style="stop-color:#CCCCCC"></stop>
		</linearGradient>
		<path fill="url(#SVGID_1_)" stroke="#000000" d="M6.517,43.983C6.517,19.968,25.985,0.5,50,0.5s43.483,19.468,43.483,43.483v7.241
			c0,24.015-19.468,43.483-43.483,43.483S6.517,75.239,6.517,51.224V43.983z"></path>
		<path opacity="0.23" stroke="#000000" stroke-width="2" enable-background="new    " d="M6.517,49.776
			C6.517,25.761,25.985,6.293,50,6.293s43.483,19.468,43.483,43.483v7.241C93.483,81.032,74.015,100.5,50,100.5
			S6.517,81.032,6.517,57.017V49.776z"></path>
		
			<linearGradient id="SVGID_2_" gradientUnits="userSpaceOnUse" x1="19.2528" y1="87.2359" x2="80.7472" y2="148.7303" gradientTransform="matrix(1 0 0 1 0 -74)">
			<stop offset="0" style="stop-color:#FFFFFF"></stop>
			<stop offset="1" style="stop-color:#000000"></stop>
		</linearGradient>
		
			<linearGradient id="SVGID_3_" gradientUnits="userSpaceOnUse" x1="50" y1="161.9662" x2="50" y2="74" gradientTransform="matrix(1 0 0 1 0 -74)">
			<stop offset="0" style="stop-color:#000000;stop-opacity:0"></stop>
			<stop offset="1" style="stop-color:#000000"></stop>
		</linearGradient>
		<circle fill="url(#SVGID_2_)" stroke="url(#SVGID_3_)" cx="50" cy="43.983" r="43.483"></circle>
		
			<radialGradient id="SVGID_4_" cx="50" cy="117.9831" r="37.2709" gradientTransform="matrix(1 0 0 1 0 -74)" gradientUnits="userSpaceOnUse">
			<stop offset="0.7402" style="stop-color:#009642"></stop>
			<stop offset="0.8479" style="stop-color:#009441"></stop>
			<stop offset="0.8867" style="stop-color:#008D3E"></stop>
			<stop offset="0.9144" style="stop-color:#008239"></stop>
			<stop offset="0.9367" style="stop-color:#007132"></stop>
			<stop offset="0.9559" style="stop-color:#005B28"></stop>
			<stop offset="0.9728" style="stop-color:#003F1C"></stop>
			<stop offset="0.9878" style="stop-color:#00200E"></stop>
			<stop offset="1" style="stop-color:#000000"></stop>
		</radialGradient>
		<circle fill="url(#SVGID_4_)" stroke="#000000" cx="50" cy="43.983" r="37.271"></circle>
		
			<linearGradient id="SVGID_5_" gradientUnits="userSpaceOnUse" x1="50" y1="75.1835" x2="50" y2="160.7827" gradientTransform="matrix(1 0 0 1 0 -74)">
			<stop offset="0" style="stop-color:#FFFFFF"></stop>
			<stop offset="1" style="stop-color:#000000"></stop>
		</linearGradient>
		<circle fill="none" stroke="url(#SVGID_5_)" stroke-miterlimit="10" cx="50" cy="43.983" r="42.3"></circle>
		
			<linearGradient id="SVGID_6_" gradientUnits="userSpaceOnUse" x1="-89.8723" y1="-5.5137" x2="-89.8723" y2="71.803" gradientTransform="matrix(-1 0 0 -1 -39.8723 77.1277)">
			<stop offset="0" style="stop-color:#FFFFFF"></stop>
			<stop offset="1" style="stop-color:#000000"></stop>
		</linearGradient>
		<circle fill="none" stroke="url(#SVGID_6_)" stroke-miterlimit="10" cx="50" cy="43.983" r="38.158"></circle>
		<path fill="#00A34D" d="M50,40.877c14.616,0,26.966,5.273,30.998,12.514c0.903-2.978,1.393-6.136,1.393-9.408
			c0-17.889-14.502-32.39-32.39-32.39s-32.39,14.502-32.39,32.39c0,3.273,0.49,6.43,1.393,9.408
			C23.034,46.15,35.384,40.877,50,40.877z"></path>
	</g>
</g>
</svg>