<svg version="1.1" id="Layer_1" xmlns="http://www.w3.org/2000/svg" xmlns:xlink="http://www.w3.org/1999/xlink" x="0px" y="0px" viewBox="0 0 100 100" xml:space="preserve"><desc>Copyright Opto 22</desc> 
<g id="off_state">
	<g>
		
			<linearGradient id="SVGID_1_" gradientUnits="userSpaceOnUse" x1="17.4425" y1="88.546" x2="82.5576" y2="153.6611" gradientTransform="matrix(1 0 0 1 0 -74)">
			<stop offset="0" style="stop-color:#FFFFFF"></stop>
			<stop offset="0.7318" style="stop-color:#4D4D4D"></stop>
			<stop offset="0.986" style="stop-color:#CCCCCC"></stop>
		</linearGradient>
		<path fill="url(#SVGID_1_)" stroke="#000000" d="M6.517,43.483C6.517,19.468,25.985,0,50,0s43.483,19.468,43.483,43.483v7.241
			c0,24.015-19.468,43.483-43.483,43.483S6.517,74.739,6.517,50.724V43.483z"></path>
		<path opacity="0.23" stroke="#000000" stroke-width="2" enable-background="new    " d="M6.517,49.276
			C6.517,25.261,25.985,5.793,50,5.793s43.483,19.468,43.483,43.483v7.241C93.483,80.532,74.015,100,50,100
			S6.517,80.532,6.517,56.517V49.276z"></path>
		
			<linearGradient id="SVGID_2_" gradientUnits="userSpaceOnUse" x1="19.2528" y1="86.7359" x2="80.7472" y2="148.2303" gradientTransform="matrix(1 0 0 1 0 -74)">
			<stop offset="0" style="stop-color:#FFFFFF"></stop>
			<stop offset="1" style="stop-color:#000000"></stop>
		</linearGradient>
		
			<linearGradient id="SVGID_3_" gradientUnits="userSpaceOnUse" x1="50" y1="161.4662" x2="50" y2="73.5" gradientTransform="matrix(1 0 0 1 0 -74)">
			<stop offset="0" style="stop-color:#000000;stop-opacity:0"></stop>
			<stop offset="1" style="stop-color:#000000"></stop>
		</linearGradient>
		<circle fill="url(#SVGID_2_)" stroke="url(#SVGID_3_)" cx="50" cy="43.483" r="43.483"></circle>
		<circle fill="#ABAB29" stroke="#000000" cx="50" cy="43.483" r="37.271"></circle>
		
			<linearGradient id="SVGID_4_" gradientUnits="userSpaceOnUse" x1="50" y1="74.6835" x2="50" y2="160.2827" gradientTransform="matrix(1 0 0 1 0 -74)">
			<stop offset="0" style="stop-color:#FFFFFF"></stop>
			<stop offset="1" style="stop-color:#000000"></stop>
		</linearGradient>
		<circle fill="none" stroke="url(#SVGID_4_)" stroke-miterlimit="10" cx="50" cy="43.483" r="42.3"></circle>
		
			<linearGradient id="SVGID_5_" gradientUnits="userSpaceOnUse" x1="-778.383" y1="-5.0137" x2="-778.383" y2="72.303" gradientTransform="matrix(-1 0 0 -1 -728.383 77.1277)">
			<stop offset="0" style="stop-color:#FFFFFF"></stop>
			<stop offset="1" style="stop-color:#000000"></stop>
		</linearGradient>
		<circle fill="none" stroke="url(#SVGID_5_)" stroke-miterlimit="10" cx="50" cy="43.483" r="38.158"></circle>
		<path fill="#B3B32B" d="M50,40.377c14.616,0,26.966,5.273,30.998,12.514c0.903-2.978,1.393-6.136,1.393-9.408
			c0-17.889-14.502-32.39-32.39-32.39s-32.39,14.502-32.39,32.39c0,3.273,0.49,6.43,1.393,9.408
			C23.034,45.65,35.384,40.377,50,40.377z"></path>
	</g>
</g>
</svg>