<svg width="16" height="16" viewBox="0 0 24 24" fill="none" xmlns="http://www.w3.org/2000/svg">
<path d="M3.74297 2.99993C3.54576 3.00251 3.35751 3.08267 3.21896 3.22304C3.08042 3.36341 3.00274 3.5527 3.00274 3.74993V7.64055C2.99388 7.70666 2.99388 7.77366 3.00274 7.83977V20.2499C3.00276 20.4488 3.08178 20.6396 3.22243 20.7802C3.36308 20.9209 3.55383 20.9999 3.75274 20.9999H20.2527C20.4516 20.9999 20.6424 20.9209 20.783 20.7802C20.9237 20.6396 21.0027 20.4488 21.0027 20.2499V11.6113C21.0163 11.5298 21.0163 11.4466 21.0027 11.3652V6.24993C21.0027 6.12995 20.9739 6.01174 20.9187 5.9052C20.8636 5.79866 20.7836 5.70691 20.6857 5.63765C20.5877 5.56839 20.4746 5.52364 20.3557 5.50715C20.2369 5.49066 20.1159 5.50292 20.0027 5.5429L16.1316 6.90911L12.4529 4.15032C12.3579 4.07893 12.2472 4.03117 12.13 4.01096C12.0129 3.99076 11.8926 3.99869 11.7791 4.03411L8.07696 5.19036L4.10332 3.08684C3.99237 3.02818 3.86847 2.99829 3.74297 2.99993ZM4.50274 4.99602L7.65215 6.66301C7.73965 6.70925 7.83544 6.73771 7.93399 6.74676C8.03254 6.75581 8.13191 6.74527 8.22637 6.71575L11.8602 5.58L15.5525 8.34954C15.6514 8.42374 15.767 8.47237 15.8892 8.49111C16.0113 8.50985 16.1362 8.49812 16.2527 8.45696L19.5027 7.3095V11.1894L16.5027 14.1894L12.533 10.2197C12.4478 10.1345 12.3433 10.0712 12.2284 10.035C12.1134 9.99874 11.9915 9.99075 11.8729 10.0116L7.99199 10.6962L4.50274 7.42571V4.99602ZM4.50274 9.48039L5.39336 10.3154C5.30546 10.4382 5.25274 10.5875 5.25274 10.7499C5.25274 11.1639 5.58874 11.4999 6.00274 11.4999C6.18238 11.4999 6.34522 11.4345 6.47442 11.329L6.93731 11.7626C6.82388 11.894 6.75274 12.0628 6.75274 12.2499C6.75274 12.6639 7.08874 12.9999 7.50274 12.9999C7.91674 12.9999 8.25274 12.6639 8.25274 12.2499C8.25274 12.2242 8.24745 12.1998 8.24492 12.1747L9.84746 11.8915C9.78873 11.9985 9.75274 12.1194 9.75274 12.2499C9.75274 12.6639 10.0887 12.9999 10.5027 12.9999C10.9167 12.9999 11.2527 12.6639 11.2527 12.2499C11.2527 12.0258 11.152 11.8269 10.9959 11.6894L11.7488 11.5566L15.9725 15.7802C16.1131 15.9208 16.3039 15.9998 16.5027 15.9998C16.7016 15.9998 16.8924 15.9208 17.033 15.7802L19.5027 13.3105V14.4999C19.0887 14.4999 18.7527 14.8359 18.7527 15.2499C18.7527 15.6639 19.0887 15.9999 19.5027 15.9999V17.4999C19.0887 17.4999 18.7527 17.8359 18.7527 18.2499C18.7527 18.6639 19.0887 18.9999 19.5027 18.9999V19.4999H18.7068C18.6035 19.2093 18.3287 18.9999 18.0027 18.9999C17.6768 18.9999 17.402 19.2093 17.2986 19.4999H15.7068C15.6035 19.2093 15.3287 18.9999 15.0027 18.9999C14.6768 18.9999 14.402 19.2093 14.2986 19.4999H12.7068C12.6035 19.2093 12.3287 18.9999 12.0027 18.9999C11.6768 18.9999 11.402 19.2093 11.2986 19.4999H9.70684C9.60349 19.2093 9.32868 18.9999 9.00274 18.9999C8.6768 18.9999 8.40198 19.2093 8.29864 19.4999H6.70684C6.60349 19.2093 6.32868 18.9999 6.00274 18.9999C5.6768 18.9999 5.40198 19.2093 5.29864 19.4999H4.50274V18.9999C4.91674 18.9999 5.25274 18.6639 5.25274 18.2499C5.25274 17.8359 4.91674 17.4999 4.50274 17.4999V15.9999C4.91674 15.9999 5.25274 15.6639 5.25274 15.2499C5.25274 14.8359 4.91674 14.4999 4.50274 14.4999V12.9999C4.91674 12.9999 5.25274 12.6639 5.25274 12.2499C5.25274 11.8359 4.91674 11.4999 4.50274 11.4999V9.48039ZM6.00274 12.9999C5.58874 12.9999 5.25274 13.3359 5.25274 13.7499C5.25274 14.1639 5.58874 14.4999 6.00274 14.4999C6.41674 14.4999 6.75274 14.1639 6.75274 13.7499C6.75274 13.3359 6.41674 12.9999 6.00274 12.9999ZM9.00274 12.9999C8.58874 12.9999 8.25274 13.3359 8.25274 13.7499C8.25274 14.1639 8.58874 14.4999 9.00274 14.4999C9.41674 14.4999 9.75274 14.1639 9.75274 13.7499C9.75274 13.3359 9.41674 12.9999 9.00274 12.9999ZM12.0027 12.9999C11.5887 12.9999 11.2527 13.3359 11.2527 13.7499C11.2527 14.1639 11.5887 14.4999 12.0027 14.4999C12.4167 14.4999 12.7527 14.1639 12.7527 13.7499C12.7527 13.3359 12.4167 12.9999 12.0027 12.9999ZM7.50274 14.4999C7.08874 14.4999 6.75274 14.8359 6.75274 15.2499C6.75274 15.6639 7.08874 15.9999 7.50274 15.9999C7.91674 15.9999 8.25274 15.6639 8.25274 15.2499C8.25274 14.8359 7.91674 14.4999 7.50274 14.4999ZM10.5027 14.4999C10.0887 14.4999 9.75274 14.8359 9.75274 15.2499C9.75274 15.6639 10.0887 15.9999 10.5027 15.9999C10.9167 15.9999 11.2527 15.6639 11.2527 15.2499C11.2527 14.8359 10.9167 14.4999 10.5027 14.4999ZM13.5027 14.4999C13.0887 14.4999 12.7527 14.8359 12.7527 15.2499C12.7527 15.6639 13.0887 15.9999 13.5027 15.9999C13.9167 15.9999 14.2527 15.6639 14.2527 15.2499C14.2527 14.8359 13.9167 14.4999 13.5027 14.4999ZM6.00274 15.9999C5.58874 15.9999 5.25274 16.3359 5.25274 16.7499C5.25274 17.1639 5.58874 17.4999 6.00274 17.4999C6.41674 17.4999 6.75274 17.1639 6.75274 16.7499C6.75274 16.3359 6.41674 15.9999 6.00274 15.9999ZM9.00274 15.9999C8.58874 15.9999 8.25274 16.3359 8.25274 16.7499C8.25274 17.1639 8.58874 17.4999 9.00274 17.4999C9.41674 17.4999 9.75274 17.1639 9.75274 16.7499C9.75274 16.3359 9.41674 15.9999 9.00274 15.9999ZM12.0027 15.9999C11.5887 15.9999 11.2527 16.3359 11.2527 16.7499C11.2527 17.1639 11.5887 17.4999 12.0027 17.4999C12.4167 17.4999 12.7527 17.1639 12.7527 16.7499C12.7527 16.3359 12.4167 15.9999 12.0027 15.9999ZM15.0027 15.9999C14.5887 15.9999 14.2527 16.3359 14.2527 16.7499C14.2527 17.1639 14.5887 17.4999 15.0027 17.4999C15.4167 17.4999 15.7527 17.1639 15.7527 16.7499C15.7527 16.3359 15.4167 15.9999 15.0027 15.9999ZM18.0027 15.9999C17.5887 15.9999 17.2527 16.3359 17.2527 16.7499C17.2527 17.1639 17.5887 17.4999 18.0027 17.4999C18.4167 17.4999 18.7527 17.1639 18.7527 16.7499C18.7527 16.3359 18.4167 15.9999 18.0027 15.9999ZM7.50274 17.4999C7.08874 17.4999 6.75274 17.8359 6.75274 18.2499C6.75274 18.6639 7.08874 18.9999 7.50274 18.9999C7.91674 18.9999 8.25274 18.6639 8.25274 18.2499C8.25274 17.8359 7.91674 17.4999 7.50274 17.4999ZM10.5027 17.4999C10.0887 17.4999 9.75274 17.8359 9.75274 18.2499C9.75274 18.6639 10.0887 18.9999 10.5027 18.9999C10.9167 18.9999 11.2527 18.6639 11.2527 18.2499C11.2527 17.8359 10.9167 17.4999 10.5027 17.4999ZM13.5027 17.4999C13.0887 17.4999 12.7527 17.8359 12.7527 18.2499C12.7527 18.6639 13.0887 18.9999 13.5027 18.9999C13.9167 18.9999 14.2527 18.6639 14.2527 18.2499C14.2527 17.8359 13.9167 17.4999 13.5027 17.4999ZM16.5027 17.4999C16.0887 17.4999 15.7527 17.8359 15.7527 18.2499C15.7527 18.6639 16.0887 18.9999 16.5027 18.9999C16.9167 18.9999 17.2527 18.6639 17.2527 18.2499C17.2527 17.8359 16.9167 17.4999 16.5027 17.4999Z" fill="current"/>
</svg>
