<svg width="16" height="16" viewBox="0 0 24 24" fill="none" xmlns="http://www.w3.org/2000/svg">
<path d="M12 2C6.47716 2 2 6.47716 2 12C2 17.5228 6.47716 22 12 22C17.5228 22 22 17.5228 22 12C22 9.3137 20.9363 6.8738 19.2115 5.07692C19.1635 5.02885 19.1154 4.98077 19.0673 4.93269C18.4213 4.28666 17.6821 3.72476 16.8798 3.27404C16.8407 3.25 16.8017 3.22296 16.7596 3.20192C16.6815 3.15986 16.6004 3.1238 16.5192 3.08173C16.3149 2.97957 16.1046 2.88341 15.8942 2.79327C15.6178 2.67608 15.3413 2.57392 15.0529 2.48077C15.0288 2.47175 15.0048 2.46274 14.9808 2.45673C14.3618 2.26442 13.7218 2.11719 13.0577 2.04808C13.0487 2.04808 13.0427 2.04808 13.0337 2.04808C12.6971 2.01502 12.3456 2 12 2ZM12 3.53846V7.38462C9.45493 7.38462 7.38462 9.45493 7.38462 12C7.38462 14.5451 9.45493 16.6154 12 16.6154C12.9886 16.6154 13.893 16.2819 14.6442 15.75L17.4087 18.5144C15.9423 19.7344 14.0523 20.4615 12 20.4615C7.33353 20.4615 3.53846 16.6665 3.53846 12C3.53846 7.33353 7.33353 3.53846 12 3.53846ZM18.1058 6.13462C19.0703 7.13822 19.7704 8.38221 20.149 9.76442C19.8846 9.88462 19.6923 10.149 19.6923 10.4615C19.6923 10.8702 20.0108 11.2037 20.4135 11.2308C20.4375 11.4832 20.4615 11.7416 20.4615 12C20.4615 12.2584 20.4375 12.5168 20.4135 12.7692C20.0108 12.7963 19.6923 13.1298 19.6923 13.5385C19.6923 13.851 19.8846 14.1154 20.149 14.2356C19.8245 15.4165 19.2776 16.4922 18.5144 17.4087L18.0577 16.9519C18.1118 16.8468 18.1538 16.7416 18.1538 16.6154C18.1538 16.1917 17.8083 15.8462 17.3846 15.8462C17.2584 15.8462 17.1532 15.8882 17.0481 15.9423L16.5192 15.4135C16.5733 15.3083 16.6154 15.2031 16.6154 15.0769C16.6154 14.6953 16.3299 14.3918 15.9663 14.3317C16.375 13.6436 16.6154 12.8564 16.6154 12C16.6154 11.1436 16.375 10.3564 15.9663 9.66827C16.3299 9.60817 16.6154 9.30469 16.6154 8.92308C16.6154 8.54147 16.3299 8.23798 15.9663 8.17788L16.6394 7.52885C16.7085 7.88041 17.012 8.15385 17.3846 8.15385C17.8083 8.15385 18.1538 7.80829 18.1538 7.38462C18.1538 7.02103 17.8894 6.74459 17.5529 6.66346L18.1058 6.13462ZM18.9231 8.15385C18.4994 8.15385 18.1538 8.4994 18.1538 8.92308C18.1538 9.34675 18.4994 9.69231 18.9231 9.69231C19.3468 9.69231 19.6923 9.34675 19.6923 8.92308C19.6923 8.4994 19.3468 8.15385 18.9231 8.15385ZM12 8.92308C12.8714 8.92308 13.6526 9.27764 14.2115 9.86058C14.7464 10.4135 15.0769 11.1707 15.0769 12C15.0769 13.7007 13.7007 15.0769 12 15.0769C10.2993 15.0769 8.92308 13.7007 8.92308 12C8.92308 10.2993 10.2993 8.92308 12 8.92308ZM17.3846 9.69231C16.9609 9.69231 16.6154 10.0379 16.6154 10.4615C16.6154 10.8852 16.9609 11.2308 17.3846 11.2308C17.8083 11.2308 18.1538 10.8852 18.1538 10.4615C18.1538 10.0379 17.8083 9.69231 17.3846 9.69231ZM18.9231 11.2308C18.4994 11.2308 18.1538 11.5763 18.1538 12C18.1538 12.4237 18.4994 12.7692 18.9231 12.7692C19.3468 12.7692 19.6923 12.4237 19.6923 12C19.6923 11.5763 19.3468 11.2308 18.9231 11.2308ZM17.3846 12.7692C16.9609 12.7692 16.6154 13.1148 16.6154 13.5385C16.6154 13.9621 16.9609 14.3077 17.3846 14.3077C17.8083 14.3077 18.1538 13.9621 18.1538 13.5385C18.1538 13.1148 17.8083 12.7692 17.3846 12.7692ZM18.9231 14.3077C18.4994 14.3077 18.1538 14.6532 18.1538 15.0769C18.1538 15.5006 18.4994 15.8462 18.9231 15.8462C19.3468 15.8462 19.6923 15.5006 19.6923 15.0769C19.6923 14.6532 19.3468 14.3077 18.9231 14.3077Z" fill="current"/>
</svg>
