<svg width="16" height="16" viewBox="0 0 16 16" fill="none" xmlns="
http://www.w3.org/2000/svg">
<path d="M4.00008 8.00008C3.64646 8.00008 3.30732 7.85961 3.05727 7.60956C2.80722 7.35951 2.66675 7.02037 2.66675 6.66675C2.66675 6.31313 2.80722 5.97399 3.05727 5.72394C3.30732 5.47389 3.64646 5.33341 4.00008 5.33341M4.00008 8.00008C4.3537 8.00008 4.69284 7.85961 4.94289 7.60956C5.19294 7.35951 5.33341 7.02037 5.33341 6.66675C5.33341 6.31313 5.19294 5.97399 4.94289 5.72394C4.69284 5.47389 4.3537 5.33341 4.00008 5.33341M4.00008 8.00008V13.3334M4.00008 5.33341V2.66675M8.00008 12.0001C7.64646 12.0001 7.30732 11.8596 7.05727 11.6096C6.80722 11.3595 6.66675 11.0204 6.66675 10.6667C6.66675 10.3131 6.80722 9.97399 7.05727 9.72394C7.30732 9.47389 7.64646 9.33341 8.00008 9.33341M8.00008 12.0001C8.3537 12.0001 8.69284 11.8596 8.94289 11.6096C9.19294 11.3595 9.33341 11.0204 9.33341 10.6667C9.33341 10.3131 9.19294 9.97399 8.94289 9.72394C8.69284 9.47389 8.3537 9.33341 8.00008 9.33341M8.00008 12.0001V13.3334M8.00008 9.33341V2.66675M12.0001 6.00008C11.6465 6.00008 11.3073 5.85961 11.0573 5.60956C10.8072 5.35951 10.6667 5.02037 10.6667 4.66675C10.6667 4.31313 10.8072 3.97399 11.0573 3.72394C11.3073 3.47389 11.6465 3.33341 12.0001 3.33341M12.0001 6.00008C12.3537 6.00008 12.6928 5.85961 12.9429 5.60956C13.1929 5.35951 13.3334 5.02037 13.3334 4.66675C13.3334 4.31313 13.1929 3.97399 12.9429 3.72394C12.6928 3.47389 12.3537 3.33341 12.0001 3.33341M12.0001 6.00008V13.3334M12.0001 3.33341V2.66675" stroke="#646464" stroke-width="1.5" stroke-linecap="round" stroke-linejoin="round"/>
</svg>