<svg width="24" height="24" viewBox="0 0 24 24" fill="none" xmlns="http://www.w3.org/2000/svg">
<path d="M3.73836 2.9892C3.53962 2.9923 3.35023 3.07416 3.21181 3.2168C3.07338 3.35944 2.99723 3.55119 3.00008 3.74994V20.2499C3.0001 20.4488 3.07912 20.6396 3.21977 20.7802C3.36042 20.9209 3.55117 20.9999 3.75008 20.9999H20.2501C20.3495 21.0013 20.4481 20.983 20.5404 20.9459C20.6326 20.9089 20.7165 20.8538 20.7873 20.7841C20.8581 20.7143 20.9143 20.6311 20.9526 20.5394C20.991 20.4477 21.0108 20.3493 21.0108 20.2499C21.0108 20.1505 20.991 20.0521 20.9526 19.9604C20.9143 19.8688 20.8581 19.7856 20.7873 19.7158C20.7165 19.646 20.6326 19.591 20.5404 19.554C20.4481 19.5169 20.3495 19.4985 20.2501 19.4999H4.50008V3.74994C4.50152 3.64956 4.48279 3.54991 4.44501 3.45689C4.40723 3.36388 4.35116 3.2794 4.28012 3.20846C4.20909 3.13751 4.12454 3.08155 4.03147 3.04389C3.93841 3.00623 3.83874 2.98763 3.73836 2.9892ZM11.2501 4.49994C10.5626 4.49994 9.95198 4.78476 9.56453 5.22064C9.17708 5.65653 9.00008 6.20827 9.00008 6.74994C9.00008 7.2916 9.17708 7.84335 9.56453 8.27924C9.95198 8.71512 10.5626 8.99994 11.2501 8.99994C11.9376 8.99994 12.5482 8.71512 12.9356 8.27924C13.3231 7.84335 13.5001 7.2916 13.5001 6.74994C13.5001 6.20827 13.3231 5.65653 12.9356 5.22064C12.5482 4.78476 11.9376 4.49994 11.2501 4.49994ZM7.25008 5.99994C7.05117 5.99994 6.8604 6.07896 6.71975 6.21961C6.57909 6.36026 6.50008 6.55103 6.50008 6.74994C6.50008 6.94885 6.57909 7.13962 6.71975 7.28027C6.8604 7.42092 7.05117 7.49994 7.25008 7.49994C7.44899 7.49994 7.63976 7.42092 7.78041 7.28027C7.92106 7.13962 8.00008 6.94885 8.00008 6.74994C8.00008 6.55103 7.92106 6.36026 7.78041 6.21961C7.63976 6.07896 7.44899 5.99994 7.25008 5.99994ZM11.2501 5.99994C11.5626 5.99994 11.702 6.09012 11.8145 6.21674C11.9271 6.34335 12.0001 6.5416 12.0001 6.74994C12.0001 6.95827 11.9271 7.15653 11.8145 7.28314C11.702 7.40976 11.5626 7.49994 11.2501 7.49994C10.9376 7.49994 10.7982 7.40976 10.6856 7.28314C10.5731 7.15653 10.5001 6.95827 10.5001 6.74994C10.5001 6.5416 10.5731 6.34335 10.6856 6.21674C10.7982 6.09012 10.9376 5.99994 11.2501 5.99994ZM15.2501 5.99994C15.0512 5.99994 14.8604 6.07896 14.7197 6.21961C14.5791 6.36026 14.5001 6.55103 14.5001 6.74994C14.5001 6.94885 14.5791 7.13962 14.7197 7.28027C14.8604 7.42092 15.0512 7.49994 15.2501 7.49994C15.449 7.49994 15.6398 7.42092 15.7804 7.28027C15.9211 7.13962 16.0001 6.94885 16.0001 6.74994C16.0001 6.55103 15.9211 6.36026 15.7804 6.21961C15.6398 6.07896 15.449 5.99994 15.2501 5.99994ZM19.2501 5.99994C19.0512 5.99994 18.8604 6.07896 18.7197 6.21961C18.5791 6.36026 18.5001 6.55103 18.5001 6.74994C18.5001 6.94885 18.5791 7.13962 18.7197 7.28027C18.8604 7.42092 19.0512 7.49994 19.2501 7.49994C19.449 7.49994 19.6398 7.42092 19.7804 7.28027C19.9211 7.13962 20.0001 6.94885 20.0001 6.74994C20.0001 6.55103 19.9211 6.36026 19.7804 6.21961C19.6398 6.07896 19.449 5.99994 19.2501 5.99994ZM19.2501 8.99994C18.5626 8.99994 17.952 9.28475 17.5645 9.72064C17.1771 10.1565 17.0001 10.7083 17.0001 11.2499C17.0001 11.7916 17.1771 12.3433 17.5645 12.7792C17.952 13.2151 18.5626 13.4999 19.2501 13.4999C19.9376 13.4999 20.5482 13.2151 20.9356 12.7792C21.3231 12.3433 21.5001 11.7916 21.5001 11.2499C21.5001 10.7083 21.3231 10.1565 20.9356 9.72064C20.5482 9.28475 19.9376 8.99994 19.2501 8.99994ZM7.25008 10.4999C7.05117 10.4999 6.8604 10.579 6.71975 10.7196C6.57909 10.8603 6.50008 11.051 6.50008 11.2499C6.50008 11.4489 6.57909 11.6396 6.71975 11.7803C6.8604 11.9209 7.05117 11.9999 7.25008 11.9999C7.44899 11.9999 7.63976 11.9209 7.78041 11.7803C7.92106 11.6396 8.00008 11.4489 8.00008 11.2499C8.00008 11.051 7.92106 10.8603 7.78041 10.7196C7.63976 10.579 7.44899 10.4999 7.25008 10.4999ZM11.2501 10.4999C11.0512 10.4999 10.8604 10.579 10.7197 10.7196C10.5791 10.8603 10.5001 11.051 10.5001 11.2499C10.5001 11.4489 10.5791 11.6396 10.7197 11.7803C10.8604 11.9209 11.0512 11.9999 11.2501 11.9999C11.449 11.9999 11.6398 11.9209 11.7804 11.7803C11.9211 11.6396 12.0001 11.4489 12.0001 11.2499C12.0001 11.051 11.9211 10.8603 11.7804 10.7196C11.6398 10.579 11.449 10.4999 11.2501 10.4999ZM15.2501 10.4999C15.0512 10.4999 14.8604 10.579 14.7197 10.7196C14.5791 10.8603 14.5001 11.051 14.5001 11.2499C14.5001 11.4489 14.5791 11.6396 14.7197 11.7803C14.8604 11.9209 15.0512 11.9999 15.2501 11.9999C15.449 11.9999 15.6398 11.9209 15.7804 11.7803C15.9211 11.6396 16.0001 11.4489 16.0001 11.2499C16.0001 11.051 15.9211 10.8603 15.7804 10.7196C15.6398 10.579 15.449 10.4999 15.2501 10.4999ZM19.2501 10.4999C19.5626 10.4999 19.702 10.5901 19.8145 10.7167C19.9271 10.8433 20.0001 11.0416 20.0001 11.2499C20.0001 11.4583 19.9271 11.6565 19.8145 11.7831C19.702 11.9098 19.5626 11.9999 19.2501 11.9999C18.9376 11.9999 18.7982 11.9098 18.6856 11.7831C18.5731 11.6565 18.5001 11.4583 18.5001 11.2499C18.5001 11.0416 18.5731 10.8433 18.6856 10.7167C18.7982 10.5901 18.9376 10.4999 19.2501 10.4999ZM15.2501 13.4999C14.5626 13.4999 13.952 13.7848 13.5645 14.2206C13.1771 14.6565 13.0001 15.2083 13.0001 15.7499C13.0001 16.2916 13.1771 16.8433 13.5645 17.2792C13.952 17.7151 14.5626 17.9999 15.2501 17.9999C15.9376 17.9999 16.5482 17.7151 16.9356 17.2792C17.3231 16.8433 17.5001 16.2916 17.5001 15.7499C17.5001 15.2083 17.3231 14.6565 16.9356 14.2206C16.5482 13.7848 15.9376 13.4999 15.2501 13.4999ZM7.25008 14.9999C7.05117 14.9999 6.8604 15.079 6.71975 15.2196C6.57909 15.3603 6.50008 15.551 6.50008 15.7499C6.50008 15.9488 6.57909 16.1396 6.71975 16.2803C6.8604 16.4209 7.05117 16.4999 7.25008 16.4999C7.44899 16.4999 7.63976 16.4209 7.78041 16.2803C7.92106 16.1396 8.00008 15.9488 8.00008 15.7499C8.00008 15.551 7.92106 15.3603 7.78041 15.2196C7.63976 15.079 7.44899 14.9999 7.25008 14.9999ZM11.2501 14.9999C11.0512 14.9999 10.8604 15.079 10.7197 15.2196C10.5791 15.3603 10.5001 15.551 10.5001 15.7499C10.5001 15.9488 10.5791 16.1396 10.7197 16.2803C10.8604 16.4209 11.0512 16.4999 11.2501 16.4999C11.449 16.4999 11.6398 16.4209 11.7804 16.2803C11.9211 16.1396 12.0001 15.9488 12.0001 15.7499C12.0001 15.551 11.9211 15.3603 11.7804 15.2196C11.6398 15.079 11.449 14.9999 11.2501 14.9999ZM15.2501 14.9999C15.5626 14.9999 15.702 15.0901 15.8145 15.2167C15.9271 15.3433 16.0001 15.5416 16.0001 15.7499C16.0001 15.9583 15.9271 16.1565 15.8145 16.2831C15.702 16.4098 15.5626 16.4999 15.2501 16.4999C14.9376 16.4999 14.7982 16.4098 14.6856 16.2831C14.5731 16.1565 14.5001 15.9583 14.5001 15.7499C14.5001 15.5416 14.5731 15.3433 14.6856 15.2167C14.7982 15.0901 14.9376 14.9999 15.2501 14.9999ZM19.2501 14.9999C19.0512 14.9999 18.8604 15.079 18.7197 15.2196C18.5791 15.3603 18.5001 15.551 18.5001 15.7499C18.5001 15.9488 18.5791 16.1396 18.7197 16.2803C18.8604 16.4209 19.0512 16.4999 19.2501 16.4999C19.449 16.4999 19.6398 16.4209 19.7804 16.2803C19.9211 16.1396 20.0001 15.9488 20.0001 15.7499C20.0001 15.551 19.9211 15.3603 19.7804 15.2196C19.6398 15.079 19.449 14.9999 19.2501 14.9999Z" fill="#242424"/>
</svg>
