<svg width="288" height="288" viewBox="0 0 288 288" fill="none" xmlns="http://www.w3.org/2000/svg">
<g opacity="0.15">
<path d="M251.233 131.063C251.745 135.356 252.001 139.676 252 144C252 165.36 245.666 186.241 233.799 204.002C221.932 221.762 205.064 235.605 185.33 243.779C165.595 251.953 143.88 254.092 122.93 249.925C101.98 245.758 82.7366 235.472 67.6325 220.368C52.5284 205.263 42.2424 186.02 38.0752 165.07C33.908 144.12 36.0468 122.405 44.2211 102.67C52.3953 82.9358 66.238 66.0685 83.9985 54.2013C101.759 42.3341 122.64 36 144 36C147.379 36 150.72 36.1529 154.022 36.4588" stroke="#2E81FF" stroke-width="20" stroke-linecap="round" stroke-linejoin="round"/>
<path d="M107.981 65.9624C106.585 65.1521 104.997 64.7321 103.383 64.7462C101.8 64.7605 100.248 65.1922 98.8851 65.9978C97.522 66.8033 96.3955 67.9542 95.6193 69.3343C94.8431 70.7143 94.4446 72.2747 94.4642 73.8579C94.4837 75.4412 94.9206 76.9912 95.7307 78.3517L128.438 135.012C126.861 137.748 126.032 140.85 126.033 144.008C126.034 147.166 126.866 150.267 128.446 153.002C130.025 155.736 132.295 158.007 135.03 159.587C137.764 161.166 140.866 161.998 144.024 162L151.078 174.223C151.655 175.273 152.436 176.197 153.375 176.941C154.314 177.685 155.392 178.234 156.546 178.556C157.699 178.878 158.906 178.967 160.094 178.817C161.283 178.666 162.429 178.28 163.467 177.681C164.504 177.082 165.412 176.282 166.136 175.328C166.86 174.374 167.386 173.284 167.684 172.124C167.982 170.964 168.045 169.756 167.87 168.571C167.695 167.386 167.285 166.247 166.664 165.223L159.61 153C161.189 150.264 162.021 147.16 162.021 144.001C162.021 140.841 161.19 137.737 159.61 135.001C158.031 132.265 155.759 129.993 153.023 128.413C150.287 126.833 147.183 126.001 144.024 126L111.317 69.3517C110.529 67.9433 109.376 66.7726 107.981 65.9624Z" fill="#2E81FF"/>
<path d="M228 144C228 137.933 227.343 131.898 226.049 126M60 144C60 132.969 62.1727 122.046 66.3941 111.855C70.6155 101.663 76.8029 92.4032 84.603 84.603C92.4031 76.8029 101.663 70.6155 111.855 66.3941C122.046 62.1727 132.969 60 144 60C152.806 60 161.544 61.3847 169.895 64.091" stroke="#2E81FF" stroke-width="20" stroke-dasharray="20 20"/>
<path fill-rule="evenodd" clip-rule="evenodd" d="M213.257 24C213.257 24 246.514 46.3846 246.514 75.1649C246.514 83.646 243.011 91.7797 236.774 97.7768C230.537 103.774 222.078 107.143 213.257 107.143C204.437 107.143 195.978 103.774 189.741 97.7768C183.504 91.7797 180 83.646 180 75.1649C180 46.3846 213.257 24 213.257 24ZM234.755 69.4756C235.271 66.4582 233.243 63.5938 230.226 63.0777C227.208 62.5616 224.344 64.5893 223.828 67.6067C223.31 70.6312 221.868 73.4193 219.701 75.5862C217.534 77.7531 214.75 79.192 211.733 79.7055C208.715 80.2191 206.685 83.0819 207.198 86.0997C207.712 89.1176 210.575 91.1477 213.593 90.6341C218.876 89.7349 223.749 87.2155 227.54 83.425C231.33 79.6346 233.851 74.7603 234.755 69.4756Z" fill="#2E81FF"/>
</g>
</svg>
