<svg width="288" height="288" viewBox="0 0 288 288" fill="none" xmlns="http://www.w3.org/2000/svg">
<g opacity="0.15">
<path d="M127.574 113.934C127.574 76.8462 84.7165 48 84.7165 48C84.7165 48 41.8594 76.8462 41.8594 113.934C41.8594 124.863 46.3747 135.345 54.4119 143.073C62.4492 150.801 73.3501 155.143 84.7165 155.143C96.083 155.143 106.984 150.801 115.021 143.073C123.058 135.345 127.574 124.863 127.574 113.934Z" stroke="#2E81FF" stroke-width="20" stroke-linecap="round" stroke-linejoin="round"/>
<path d="M83.9502 126.827C89.2986 125.916 94.2327 123.366 98.0712 119.527C101.91 115.689 104.463 110.752 105.379 105.398" stroke="#2E81FF" stroke-width="16" stroke-linecap="round" stroke-linejoin="round"/>
<path d="M252.571 169.429C216.857 169.429 224 198 195.428 198C166.857 198 159.714 169.429 138.285 169.429C116.857 169.429 109.714 198 81.1426 198C52.5711 198 59.714 169.429 23.9997 169.429" stroke="#2E81FF" stroke-width="20" stroke-linecap="round"/>
<path d="M252.571 219.429C216.857 219.429 224 248 195.428 248C166.857 248 159.714 219.429 138.285 219.429C116.857 219.429 109.714 248 81.1426 248C52.5711 248 59.714 219.429 23.9997 219.429" stroke="#2E81FF" stroke-width="20" stroke-linecap="round"/>
<path d="M252.571 112.286C216.857 112.286 224 140.857 195.428 140.857C174.767 140.857 165.312 125.916 153.556 117.643" stroke="#2E81FF" stroke-width="20" stroke-linecap="round"/>
</g>
</svg>
