<svg width="60" height="24" viewBox="0 0 60 24" fill="none" xmlns="http://www.w3.org/2000/svg">
<mask id="mask0_17_76044" style="mask-type:luminance" maskUnits="userSpaceOnUse" x="4" y="4" width="52" height="16">
<path d="M55.6883 4H4V20H55.6883V4Z" fill="white"/>
</mask>
<g mask="url(#mask0_17_76044)">
<path fill-rule="evenodd" clip-rule="evenodd" d="M40.4777 6.91661C39.9943 6.91661 39.5306 7.10866 39.1888 7.45051C38.8469 7.79236 38.6549 8.25601 38.6549 8.73946C38.6549 9.22292 38.8469 9.68657 39.1888 10.0284C39.5306 10.3703 39.9943 10.5623 40.4777 10.5623H44.3588C44.973 10.5558 45.5823 10.6712 46.1516 10.9017C46.7209 11.1323 47.2389 11.4734 47.6755 11.9054C48.1121 12.3374 48.4587 12.8518 48.6953 13.4186C48.9318 13.9854 49.0536 14.5936 49.0536 15.2078C49.0536 15.822 48.9318 16.4301 48.6953 16.997C48.4587 17.5638 48.1121 18.0781 47.6755 18.5101C47.2389 18.9421 46.7209 19.2833 46.1516 19.5138C45.5823 19.7444 44.973 19.8597 44.3588 19.8532H33.5016C32.6479 19.8533 31.8074 19.6421 31.0551 19.2385C30.3027 18.8349 29.662 18.2514 29.1899 17.54L22.872 8.0231L18.2938 14.6569C18.0788 14.959 17.7536 15.1643 17.3884 15.2286C17.0232 15.2928 16.6474 15.2108 16.3422 15.0002C16.037 14.7896 15.827 14.4673 15.7575 14.1031C15.6879 13.7389 15.7645 13.362 15.9707 13.0538L20.9437 5.84752C21.1621 5.53114 21.4548 5.27312 21.796 5.09602C22.1372 4.91892 22.5167 4.82814 22.9011 4.83162C23.2856 4.83511 23.6633 4.93275 24.0013 5.11601C24.3392 5.29927 24.6271 5.56256 24.8398 5.88284L31.5411 15.9795C31.7556 16.3028 32.0468 16.568 32.3887 16.7514C32.7306 16.9349 33.1126 17.0309 33.5006 17.0309H44.3577C44.8412 17.0309 45.3048 16.8388 45.6467 16.497C45.9885 16.1551 46.1806 15.6915 46.1806 15.208C46.1806 14.7246 45.9885 14.2609 45.6467 13.9191C45.3048 13.5772 44.8412 13.3852 44.3577 13.3852H40.4777C39.2456 13.3852 38.064 12.8957 37.1927 12.0245C36.3215 11.1532 35.832 9.97158 35.832 8.73946C35.832 7.50734 36.3215 6.32569 37.1927 5.45445C38.064 4.58321 39.2456 4.09375 40.4777 4.09375H46.2995C46.6739 4.09375 47.0329 4.24245 47.2976 4.50715C47.5623 4.77184 47.711 5.13085 47.711 5.50518C47.711 5.87951 47.5623 6.23851 47.2976 6.50321C47.0329 6.7679 46.6739 6.91661 46.2995 6.91661H40.4777ZM8.89331 4.89842C10.3366 4.30075 11.9247 4.14462 13.4568 4.44977C14.9888 4.75492 16.3959 5.50765 17.5001 6.61271C17.7583 6.87869 17.9015 7.2356 17.8988 7.60632C17.8961 7.97704 17.7476 8.33179 17.4854 8.59394C17.2233 8.85608 16.8685 9.00456 16.4978 9.0073C16.1271 9.01003 15.7702 8.8668 15.5042 8.60856C14.6128 7.72183 13.424 7.19757 12.1682 7.13737C10.9123 7.07717 9.6788 7.48532 8.7067 8.28272C7.7346 9.08011 7.09311 10.21 6.90656 11.4534C6.72 12.6968 7.00166 13.9651 7.69695 15.0127C7.9998 15.4657 8.38266 15.9618 9.07149 16.3675C9.76032 16.7732 10.8814 17.1587 12.7401 17.1587H14.5458C15.4892 17.1587 16.3302 17.1587 18.1915 17.1587C18.5716 17.1566 18.9453 17.0604 19.2793 16.8788C19.6132 16.6971 19.897 16.4356 20.1053 16.1176L22.0107 13.181C22.1106 13.0234 22.2408 12.8872 22.3937 12.7803C22.5467 12.6734 22.7193 12.5978 22.9016 12.558C23.0839 12.5182 23.2722 12.5149 23.4558 12.5484C23.6394 12.5819 23.8145 12.6514 23.971 12.753C24.1275 12.8546 24.2623 12.9862 24.3677 13.1402C24.473 13.2942 24.5468 13.4676 24.5847 13.6503C24.6226 13.833 24.6238 14.0214 24.5885 14.2046C24.5531 14.3878 24.4817 14.5622 24.3785 14.7176L22.4705 17.6584L22.4658 17.6657C22.0012 18.3752 21.3677 18.9583 20.6223 19.3628C19.8769 19.7672 19.0427 19.9804 18.1946 19.9831C16.3297 19.9867 15.4819 19.9857 14.5359 19.9831C14.0242 19.9831 13.4834 19.9831 12.738 19.9831C10.4803 19.9831 8.84552 19.5156 7.63669 18.8013C6.42786 18.087 5.7598 17.1945 5.35201 16.5831C4.7028 15.6123 4.27701 14.5096 4.10532 13.3545C3.93364 12.1993 4.02033 11.0204 4.35915 9.90282C4.69796 8.78519 5.28048 7.75664 6.06471 6.89128C6.84894 6.02591 7.81537 5.34528 8.89435 4.89842H8.89331ZM26.9624 5.55817C27.1743 5.23175 27.4639 4.963 27.8052 4.77601C28.1464 4.58902 28.5288 4.48963 28.9179 4.48675C29.3071 4.48387 29.6909 4.57758 30.0349 4.75949C30.3789 4.9414 30.6725 5.20583 30.8892 5.52907L35.9468 13.0719C36.0528 13.2258 36.1271 13.3992 36.1656 13.582C36.204 13.7648 36.2058 13.9535 36.1707 14.137C36.1357 14.3205 36.0646 14.4952 35.9616 14.651C35.8585 14.8068 35.7255 14.9407 35.5704 15.0447C35.4152 15.1487 35.2409 15.2209 35.0576 15.2571C34.8743 15.2933 34.6857 15.2927 34.5026 15.2554C34.3196 15.2181 34.1457 15.1449 33.9912 15.0399C33.8367 14.9349 33.7045 14.8003 33.6024 14.6439L28.912 7.647C28.6578 7.87811 28.3281 8.00859 27.9846 8.01397C27.6411 8.01934 27.3074 7.89924 27.0461 7.67619C26.7848 7.45314 26.6138 7.14245 26.5653 6.80235C26.5167 6.46226 26.5938 6.11612 26.7821 5.82881L26.9624 5.55817Z" fill="#ffffff"/>
<path d="M53.3416 8.6208C54.6155 8.6208 55.6481 7.58815 55.6481 6.31431C55.6481 5.04046 54.6155 4.00781 53.3416 4.00781C52.0678 4.00781 51.0352 5.04046 51.0352 6.31431C51.0352 7.58815 52.0678 8.6208 53.3416 8.6208Z" fill="#14B14B"/>
<path d="M53.3416 14.195C54.6155 14.195 55.6481 13.1624 55.6481 11.8885C55.6481 10.6147 54.6155 9.58203 53.3416 9.58203C52.0678 9.58203 51.0352 10.6147 51.0352 11.8885C51.0352 13.1624 52.0678 14.195 53.3416 14.195Z" fill="#F5851F"/>
<path d="M53.3416 19.7692C54.6155 19.7692 55.6481 18.7366 55.6481 17.4627C55.6481 16.1889 54.6155 15.1562 53.3416 15.1562C52.0678 15.1562 51.0352 16.1889 51.0352 17.4627C51.0352 18.7366 52.0678 19.7692 53.3416 19.7692Z" fill="#CF2027"/>
</g>
</svg>
