<svg width="151" height="24" viewBox="0 0 151 24" fill="none" xmlns="http://www.w3.org/2000/svg">
<path d="M14.1877 14.5396C14.3441 14.5396 14.4483 14.4721 14.5005 14.3363L15.2512 12.5689H12.9365L13.9062 10.3011H19.2552L17.394 14.696C16.6639 16.4062 15.6526 17.2611 14.3598 17.2611H7.21215C6.79488 17.2611 6.50299 17.1152 6.33629 16.8231C6.16925 16.5313 6.17457 16.1768 6.35193 15.7596L9.40179 8.565C9.72492 7.80397 10.1966 7.18616 10.8172 6.71163C11.4375 6.23742 12.0813 6 12.7488 6H20.3031L19.1457 8.72144H12.6081C12.4723 8.72144 12.3735 8.78929 12.3109 8.92473L9.98046 14.4145C9.94921 14.498 9.97518 14.5396 10.0587 14.5396H14.1877Z" fill="#636466"/>
<path d="M22.9158 6H30.7359C31.4554 6 31.9559 6.25025 32.2374 6.75074C32.5189 7.25122 32.5083 7.85617 32.2062 8.565L31.1739 11.0049C30.8714 11.7037 30.41 12.3058 29.7897 12.8114C29.1692 13.3172 28.4159 13.5699 27.5297 13.5699H27.4671L28.8279 17.2611H25.3088L24.2453 13.5699H22.7594L21.1954 17.2611H18.1299L22.9158 6ZM27.9207 10.9736C28.0562 10.9736 28.15 10.9061 28.2022 10.7703L28.9843 8.92473C29.0468 8.78929 29.0102 8.72144 28.8748 8.72144H24.8239L23.8699 10.9736H27.9207Z" fill="#636466"/>
<path d="M35.1297 6H38.1952L33.4092 17.2611H30.3438L35.1297 6Z" fill="#636466"/>
<path d="M40.1345 6H43.2L44.8423 12.6941L47.6888 6H50.7543L45.9684 17.2611H43.0593L41.2607 10.567L38.4141 17.2611H35.3486L40.1345 6Z" fill="#636466"/>
<path d="M47.9072 17.2611L52.6931 6H60.1067C60.8261 6 61.3266 6.24775 61.6081 6.74292C61.8897 7.2384 61.879 7.84553 61.5768 8.565L58.9805 14.696C58.6677 15.4155 58.2114 16.0229 57.612 16.5181C57.0124 17.0136 56.353 17.2611 55.6335 17.2611H47.9072ZM58.355 8.92473C58.4175 8.78929 58.3809 8.72144 58.2454 8.72144H54.6013L52.1301 14.5396H55.7743C55.9097 14.5396 56.0036 14.4721 56.0558 14.3363L58.355 8.92473Z" fill="#636466"/>
<path d="M85.6478 13.6951L85.366 14.3363C85.3138 14.4721 85.3556 14.5396 85.4913 14.5396H89.2295C89.3645 14.5396 89.4585 14.4721 89.5107 14.3363L90.0424 13.0851C90.105 12.9496 90.0685 12.8817 89.9334 12.8817H85.4913C84.7717 12.8817 84.2687 12.6343 83.9823 12.1388C83.6952 11.6437 83.7083 11.0362 84.0214 10.3167L84.756 8.565C85.0587 7.84553 85.5121 7.2384 86.1169 6.74292C86.7217 6.24775 87.3839 6 88.1034 6H93.5614C94.281 6 94.7814 6.24775 95.0632 6.74292C95.3444 7.2384 95.334 7.84553 95.0319 8.565L94.6098 9.56597H91.5442L91.8097 8.92473C91.8723 8.78929 91.8358 8.72144 91.7008 8.72144H87.9625C87.8268 8.72144 87.7277 8.78929 87.665 8.92473L87.1333 10.176C87.0811 10.3117 87.1229 10.3793 87.2586 10.3793H91.7008C92.4197 10.3793 92.9227 10.627 93.2098 11.1222C93.4962 11.6177 93.4838 12.2249 93.1706 12.9443L92.4354 14.696C92.1229 15.4155 91.6799 16.0229 91.1064 16.5181C90.5323 17.0136 89.8865 17.2611 89.1669 17.2611H83.63C82.9104 17.2611 82.4074 17.0136 82.121 16.5181C81.8339 16.0229 81.847 15.4155 82.1601 14.696L82.5822 13.6951H85.6478Z" fill="#636466"/>
<path d="M97.9569 6H100.553L101.226 12.5689L107.201 6H110.11L105.324 17.2611H102.258L104.166 12.7722L100.96 16.0411H98.5512L98.1291 12.7879L96.2365 17.2611H93.1709L97.9569 6Z" fill="#636466"/>
<path d="M110.904 8.565C111.635 6.85521 112.594 6 113.783 6H119.96C120.68 6 121.18 6.24775 121.462 6.74292C121.743 7.2384 121.733 7.84553 121.431 8.565L117.74 17.2611H114.674L115.831 14.5396H111.437L110.279 17.2611H107.214L110.904 8.565ZM116.801 12.2561L118.13 9.11242C118.245 8.85185 118.172 8.72144 117.912 8.72144H114.299C114.038 8.72144 113.85 8.85185 113.736 9.11242L112.406 12.2561H116.801Z" fill="#636466"/>
<path d="M124.42 6H132.24C132.959 6 133.46 6.25025 133.741 6.75074C134.023 7.25122 134.012 7.85617 133.71 8.565L132.678 11.0049C132.375 11.7037 131.914 12.3058 131.293 12.8114C130.673 13.3172 129.919 13.5699 129.034 13.5699H128.971L130.332 17.2611H126.813L125.749 13.5699H124.263L122.699 17.2611H119.634L124.42 6ZM129.424 10.9736C129.56 10.9736 129.654 10.9061 129.706 10.7703L130.488 8.92473C130.55 8.78929 130.514 8.72144 130.379 8.72144H126.328L125.374 10.9736H129.424Z" fill="#636466"/>
<path d="M134.272 17.2611L137.9 8.72144H134.115L135.273 6H145.908L144.751 8.72144H140.966L137.337 17.2611H134.272Z" fill="#636466"/>
<path d="M65.9542 6.12672L67.03 7.20245C65.9287 8.30386 65.2476 9.82531 65.2476 11.5058C65.2476 13.1861 65.9287 14.7082 67.03 15.809L65.9555 16.8838C64.5777 15.5077 63.7266 13.6059 63.7266 11.5054C63.7266 9.40491 64.5787 7.50338 65.9548 6.1264L65.9542 6.12672ZM78.2336 6.12672C79.6108 7.50369 80.4622 9.40523 80.4622 11.5058C80.4622 13.6062 79.6101 15.5087 78.2336 16.8848L77.1584 15.809C78.2597 14.7076 78.9408 13.1861 78.9408 11.5058C78.9408 9.82531 78.2597 8.30477 77.1591 7.20308L78.2336 6.12672ZM72.8546 6.18083V10.745H75.1373L71.3332 16.8306V12.2664H69.0511L72.8546 6.18083ZM68.1058 8.27822L69.1822 9.35454C68.6316 9.90445 68.2904 10.6652 68.2904 11.5058C68.2904 12.3462 68.6316 13.107 69.1822 13.6569L68.1058 14.7333C67.2805 13.9072 66.769 12.7661 66.769 11.5054C66.769 10.2448 67.2805 9.10402 68.1058 8.27756V8.27822ZM76.0833 8.2788C76.9086 9.10493 77.4194 10.246 77.4194 11.5058C77.4194 12.7654 76.9079 13.9072 76.0826 14.7336L75.0062 13.6572C75.5574 13.1073 75.898 12.3466 75.898 11.506C75.898 10.6655 75.5581 9.90542 75.0081 9.35552L76.0839 8.27913L76.0833 8.2788Z" fill="#0F6FFF"/>
</svg>
