<svg width="70" height="24" viewBox="0 0 70 24" fill="none" xmlns="http://www.w3.org/2000/svg">
<path d="M49.459 16.1544L51.0459 17.9419C52.2683 19.1626 53.8255 19.9926 55.52 20.3291C57.2146 20.6647 58.9709 20.4911 60.5659 19.8289C62.1618 19.1676 63.5257 18.0472 64.4848 16.6109C65.444 15.1746 65.9565 13.4858 65.9565 11.7584C65.9565 10.0309 65.4448 8.34208 64.4848 6.90581C63.5257 5.46954 62.1618 4.34915 60.5659 3.68777C58.9701 3.0264 57.2146 2.85201 55.52 3.18763C53.8255 3.52325 52.2691 4.35408 51.0459 5.57483L40.0648 17.9419C38.8424 19.1626 37.2852 19.9926 35.5907 20.3291C33.8961 20.6647 32.1398 20.4911 30.5448 19.8289C28.9489 19.1676 27.5858 18.0472 26.6259 16.6109C25.6667 15.1746 25.1542 13.4858 25.1542 11.7584C25.1542 10.0309 25.6659 8.34208 26.6259 6.90581C27.585 5.46954 28.9489 4.34915 30.5448 3.68777C32.1406 3.0264 33.8961 2.85201 35.5907 3.18763C37.2852 3.52325 38.8416 4.35408 40.0648 5.57483L41.6517 7.36235C39.7547 9.49948 37.8578 11.6358 35.96 13.7729M20.5344 20.496C20.5344 17.4244 20.5344 14.3528 20.5344 11.2812C20.5344 6.72147 16.8384 3.0255 12.2787 3.0255C11.8534 2.98848 8.59014 2.76391 6.12231 5.32386C3.76964 7.76453 3.9827 10.8246 4.02301 11.2812C4.02301 11.3667 4.02301 20.496 4.02301 20.496C4.02301 20.496 4.02301 3.16205 4.02301 3" stroke="url(#paint0_linear_116_815)" stroke-width="3.34884" stroke-linecap="round" stroke-linejoin="round"/>
<defs>
<linearGradient id="paint0_linear_116_815" x1="3.99953" y1="2.99956" x2="63.7808" y2="21.3067" gradientUnits="userSpaceOnUse">
<stop stop-color="#0863DF"/>
<stop offset="1" stop-color="#0381FA"/>
</linearGradient>
</defs>
</svg>
