<svg width="43" height="14" viewBox="0 0 43 14" fill="none" xmlns="http://www.w3.org/2000/svg">
<path d="M35.5464 0.00984726C34.1789 -0.0393446 33.0278 0.442736 32.5949 0.65918C31.3946 1.24948 30.7059 2.10542 29.4466 3.65988C28.9547 4.26986 28.4825 4.92903 27.5478 6.24737C27.233 6.68026 27.0756 6.91638 26.9378 7.11315L26.928 7.12299C26.7903 7.31976 26.6722 7.48701 26.4361 7.81167C25.4522 9.17921 24.7439 10.1729 24.4684 10.409C23.7404 11.0387 22.668 11.4322 21.7333 11.4027C19.9231 11.3535 17.2962 9.75967 17.2864 7.01477C17.2766 4.7421 19.0376 2.80394 21.2906 2.60718C22.3138 2.51863 23.2878 2.76459 24.1241 3.31554C24.252 3.39425 24.3307 3.52215 24.3503 3.65988C24.37 3.79762 24.3307 3.94519 24.2421 4.06325L21.2709 7.81167C20.8479 8.34295 20.8971 9.12018 21.3693 9.57274C21.635 9.8187 21.9891 9.9466 22.3532 9.92692C22.7172 9.89741 23.0517 9.72032 23.2681 9.44484L27.2723 4.39776C27.6364 3.93536 27.6462 3.29586 27.292 2.82362C25.9737 1.06255 23.8879 0.0196862 21.694 0.0196862C17.8373 0.0196862 14.7087 3.15813 14.7087 7.00493C14.7087 8.96276 15.545 10.773 17.0699 12.111C18.3588 13.2425 20.0805 13.9508 21.6546 13.9902C21.7038 13.9902 21.7629 13.9902 21.812 13.9902C23.3272 13.9902 24.9898 13.3704 26.1508 12.3668C26.6624 11.9241 27.2428 11.1075 28.5316 9.31694C28.7678 8.98244 28.8957 8.79551 29.0334 8.60858L29.0432 8.58891C29.181 8.39214 29.3384 8.16586 29.6434 7.74281C30.5485 6.47366 31.0011 5.83416 31.4536 5.27337C32.5359 3.92552 33.0376 3.3057 33.7165 2.9712C33.864 2.90233 34.6118 2.55798 35.448 2.5875C37.2681 2.65637 39.9048 4.26002 39.9048 6.99509C39.9048 9.42517 37.9273 11.4027 35.4972 11.4027C34.8577 11.4027 34.1887 11.2059 34.1887 11.2059C33.0278 10.8419 32.2702 10.0745 31.8373 9.49403C31.6111 9.18904 31.2667 9.00212 30.8929 8.9726C30.519 8.94309 30.155 9.08082 29.8795 9.3563C29.4368 9.79902 29.3876 10.5369 29.7811 11.0583C30.4403 11.9339 31.6012 13.0949 33.4115 13.6655C33.4508 13.6753 34.4347 13.9803 35.4874 13.9803C39.344 13.9803 42.4726 10.8419 42.4726 6.99509C42.4825 2.59734 38.4487 0.118069 35.5464 0.00984726Z" fill="white"/>
<path d="M11.1665 1.40689C10.9895 1.27899 10.7632 1.11174 10.4779 0.954323C10.2122 0.796909 9.75966 0.560788 9.1792 0.364021C8.28391 0.0688698 7.487 0.00983897 6.9754 0.00983897C5.35207 0.00983897 3.80745 0.560788 2.56781 1.58398V1.28883C2.56781 0.580464 1.98735 0 1.27899 0C0.570625 0 0 0.580464 0 1.28883V12.7112C0 13.4195 0.580464 14 1.28883 14C1.99719 14 2.57765 13.4195 2.57765 12.7112V6.99508C2.57765 4.565 4.55516 2.58749 6.98524 2.58749C9.41532 2.58749 11.3928 4.565 11.3928 6.99508V12.7112C11.3928 13.4195 11.9733 14 12.6817 14C13.39 14 13.9705 13.4195 13.9705 12.7112V6.41462C13.9705 6.3064 13.9705 3.49262 11.1665 1.40689Z" fill="white"/>
</svg>
