<svg width="66" height="18" viewBox="0 0 66 18" fill="none" xmlns="http://www.w3.org/2000/svg">
<path d="M0.5 4C0.5 1.79086 2.29086 0 4.5 0H61.5C63.7091 0 65.5 1.79086 65.5 4V14C65.5 16.2091 63.7091 18 61.5 18H4.5C2.29086 18 0.5 16.2091 0.5 14V4Z" fill="#BABABA"/>
<path d="M20.7074 7.6108H19.3778C19.3267 7.3267 19.2315 7.0767 19.0923 6.8608C18.9531 6.64489 18.7827 6.46165 18.581 6.31108C18.3793 6.16051 18.1534 6.04687 17.9034 5.97017C17.6563 5.89347 17.3935 5.85511 17.1151 5.85511C16.6122 5.85511 16.1619 5.98153 15.7642 6.23438C15.3693 6.48722 15.0568 6.85795 14.8267 7.34659C14.5994 7.83523 14.4858 8.43182 14.4858 9.13636C14.4858 9.84659 14.5994 10.446 14.8267 10.9347C15.0568 11.4233 15.3707 11.7926 15.7685 12.0426C16.1662 12.2926 16.6136 12.4176 17.1108 12.4176C17.3864 12.4176 17.6477 12.3807 17.8949 12.3068C18.1449 12.2301 18.3707 12.1179 18.5724 11.9702C18.7741 11.8224 18.9446 11.642 19.0838 11.429C19.2259 11.2131 19.3239 10.9659 19.3778 10.6875L20.7074 10.6918C20.6364 11.1207 20.4986 11.5156 20.294 11.8764C20.0923 12.2344 19.8324 12.544 19.5142 12.8054C19.1989 13.0639 18.8381 13.2642 18.4318 13.4062C18.0256 13.5483 17.5824 13.6193 17.1023 13.6193C16.3466 13.6193 15.6733 13.4403 15.0824 13.0824C14.4915 12.7216 14.0256 12.206 13.6847 11.5355C13.3466 10.8651 13.1776 10.0653 13.1776 9.13636C13.1776 8.20455 13.348 7.40483 13.6889 6.73722C14.0298 6.06676 14.4957 5.55256 15.0866 5.1946C15.6776 4.83381 16.3494 4.65341 17.1023 4.65341C17.5653 4.65341 17.9972 4.72017 18.3977 4.85369C18.8011 4.98437 19.1634 5.17756 19.4844 5.43324C19.8054 5.68608 20.071 5.99574 20.2812 6.36222C20.4915 6.72585 20.6335 7.14205 20.7074 7.6108ZM23.4549 4.77273V13.5H22.1808V4.77273H23.4549ZM27.9261 13.6321C27.3125 13.6321 26.777 13.4915 26.3196 13.2102C25.8622 12.929 25.5071 12.5355 25.2543 12.0298C25.0014 11.5241 24.875 10.9332 24.875 10.2571C24.875 9.57812 25.0014 8.98437 25.2543 8.47585C25.5071 7.96733 25.8622 7.57244 26.3196 7.29119C26.777 7.00994 27.3125 6.86932 27.9261 6.86932C28.5398 6.86932 29.0753 7.00994 29.5327 7.29119C29.9901 7.57244 30.3452 7.96733 30.598 8.47585C30.8509 8.98437 30.9773 9.57812 30.9773 10.2571C30.9773 10.9332 30.8509 11.5241 30.598 12.0298C30.3452 12.5355 29.9901 12.929 29.5327 13.2102C29.0753 13.4915 28.5398 13.6321 27.9261 13.6321ZM27.9304 12.5625C28.3281 12.5625 28.6577 12.4574 28.919 12.2472C29.1804 12.0369 29.3736 11.7571 29.4986 11.4077C29.6264 11.0582 29.6903 10.6733 29.6903 10.2528C29.6903 9.83523 29.6264 9.4517 29.4986 9.10227C29.3736 8.75 29.1804 8.46733 28.919 8.25426C28.6577 8.04119 28.3281 7.93466 27.9304 7.93466C27.5298 7.93466 27.1974 8.04119 26.9332 8.25426C26.6719 8.46733 26.4773 8.75 26.3494 9.10227C26.2244 9.4517 26.1619 9.83523 26.1619 10.2528C26.1619 10.6733 26.2244 11.0582 26.3494 11.4077C26.4773 11.7571 26.6719 12.0369 26.9332 12.2472C27.1974 12.4574 27.5298 12.5625 27.9304 12.5625ZM37.3043 8.55256L36.1495 8.7571C36.1012 8.60937 36.0245 8.46875 35.9194 8.33523C35.8171 8.2017 35.6779 8.09233 35.5018 8.0071C35.3256 7.92187 35.1055 7.87926 34.8413 7.87926C34.4805 7.87926 34.1793 7.96023 33.9379 8.12216C33.6964 8.28125 33.5756 8.48722 33.5756 8.74006C33.5756 8.95881 33.6566 9.13494 33.8185 9.26847C33.9805 9.40199 34.2418 9.51136 34.6026 9.59659L35.6424 9.83523C36.2447 9.97443 36.6935 10.1889 36.989 10.4787C37.2844 10.7685 37.4322 11.1449 37.4322 11.608C37.4322 12 37.3185 12.3494 37.0913 12.6562C36.8668 12.9602 36.5529 13.1989 36.1495 13.3722C35.7489 13.5455 35.2844 13.6321 34.756 13.6321C34.0231 13.6321 33.4251 13.4759 32.962 13.1634C32.4989 12.848 32.2148 12.4006 32.1097 11.821L33.3413 11.6335C33.418 11.9545 33.5756 12.1974 33.8143 12.3622C34.0529 12.5241 34.364 12.6051 34.7475 12.6051C35.1651 12.6051 35.4989 12.5185 35.7489 12.3452C35.9989 12.169 36.1239 11.9545 36.1239 11.7017C36.1239 11.4972 36.0472 11.3253 35.8938 11.1861C35.7433 11.0469 35.5117 10.9418 35.1992 10.8707L34.0913 10.6278C33.4805 10.4886 33.0288 10.267 32.7362 9.96307C32.4464 9.65909 32.3015 9.27415 32.3015 8.80824C32.3015 8.42187 32.4094 8.08381 32.6254 7.79403C32.8413 7.50426 33.1396 7.27841 33.5202 7.11648C33.9009 6.9517 34.337 6.86932 34.8285 6.86932C35.5359 6.86932 36.0927 7.02273 36.4989 7.32955C36.9052 7.63352 37.1737 8.04119 37.3043 8.55256ZM41.6541 13.6321C41.0092 13.6321 40.4538 13.4943 39.9879 13.2188C39.5249 12.9403 39.1669 12.5497 38.9141 12.0469C38.6641 11.5412 38.5391 10.9489 38.5391 10.2699C38.5391 9.59943 38.6641 9.00852 38.9141 8.49716C39.1669 7.9858 39.5192 7.58665 39.9709 7.29972C40.4254 7.01278 40.9567 6.86932 41.5646 6.86932C41.9339 6.86932 42.2919 6.9304 42.6385 7.05256C42.9851 7.17472 43.2962 7.36648 43.5717 7.62784C43.8473 7.8892 44.0646 8.22869 44.2237 8.64631C44.3828 9.06108 44.4624 9.56534 44.4624 10.1591V10.6108H39.2592V9.65625H43.2138C43.2138 9.32102 43.1456 9.02415 43.0092 8.76562C42.8729 8.50426 42.6811 8.2983 42.4339 8.14773C42.1896 7.99716 41.9027 7.92188 41.5732 7.92188C41.2152 7.92188 40.9027 8.00994 40.6357 8.18608C40.3714 8.35937 40.1669 8.58665 40.022 8.8679C39.88 9.14631 39.8089 9.44886 39.8089 9.77557V10.5213C39.8089 10.9588 39.8857 11.331 40.0391 11.6378C40.1953 11.9446 40.4126 12.179 40.6911 12.3409C40.9695 12.5 41.2947 12.5795 41.6669 12.5795C41.9084 12.5795 42.1286 12.5455 42.3274 12.4773C42.5263 12.4062 42.6982 12.3011 42.843 12.1619C42.9879 12.0227 43.0987 11.8509 43.1754 11.6463L44.3814 11.8636C44.2848 12.2187 44.1115 12.5298 43.8615 12.7969C43.6143 13.0611 43.3033 13.267 42.9283 13.4148C42.5561 13.5597 42.1314 13.6321 41.6541 13.6321ZM48.3263 13.6278C47.7979 13.6278 47.3263 13.4929 46.9116 13.223C46.4996 12.9503 46.1758 12.5625 45.94 12.0597C45.707 11.554 45.5906 10.9474 45.5906 10.2401C45.5906 9.53267 45.7085 8.92756 45.9442 8.42472C46.1829 7.92187 46.5096 7.53693 46.9244 7.26989C47.3391 7.00284 47.8093 6.86932 48.3349 6.86932C48.7411 6.86932 49.0678 6.9375 49.315 7.07386C49.565 7.20739 49.7582 7.36364 49.8945 7.54261C50.0337 7.72159 50.1417 7.87926 50.2184 8.01562H50.2951V4.77273H51.5692V13.5H50.3249V12.4815H50.2184C50.1417 12.6207 50.0309 12.7798 49.886 12.9588C49.744 13.1378 49.5479 13.294 49.2979 13.4276C49.0479 13.5611 48.7241 13.6278 48.3263 13.6278ZM48.6076 12.5412C48.9741 12.5412 49.2837 12.4446 49.5366 12.2514C49.7923 12.0554 49.9854 11.7841 50.1161 11.4375C50.2496 11.0909 50.3164 10.6875 50.3164 10.2273C50.3164 9.77273 50.2511 9.375 50.1204 9.03409C49.9897 8.69318 49.7979 8.42756 49.5451 8.23722C49.2923 8.04687 48.9798 7.9517 48.6076 7.9517C48.2241 7.9517 47.9045 8.05114 47.6488 8.25C47.3931 8.44886 47.1999 8.72017 47.0692 9.06392C46.9414 9.40767 46.8775 9.79545 46.8775 10.2273C46.8775 10.6648 46.9428 11.0582 47.0735 11.4077C47.2042 11.7571 47.3974 12.0341 47.6531 12.2386C47.9116 12.4403 48.2298 12.5412 48.6076 12.5412Z" fill="white"/>
</svg>
