<svg width="63" height="18" viewBox="0 0 63 18" fill="none" xmlns="http://www.w3.org/2000/svg">
<path d="M0 4C0 1.79086 1.79086 0 4 0H59C61.2091 0 63 1.79086 63 4V14C63 16.2091 61.2091 18 59 18H4C1.79086 18 0 16.2091 0 14V4Z" fill="#FF0D00"/>
<path d="M19.2074 7.1108H17.8778C17.8267 6.8267 17.7315 6.5767 17.5923 6.3608C17.4531 6.14489 17.2827 5.96165 17.081 5.81108C16.8793 5.66051 16.6534 5.54687 16.4034 5.47017C16.1563 5.39347 15.8935 5.35511 15.6151 5.35511C15.1122 5.35511 14.6619 5.48153 14.2642 5.73438C13.8693 5.98722 13.5568 6.35795 13.3267 6.84659C13.0994 7.33523 12.9858 7.93182 12.9858 8.63636C12.9858 9.34659 13.0994 9.94602 13.3267 10.4347C13.5568 10.9233 13.8707 11.2926 14.2685 11.5426C14.6662 11.7926 15.1136 11.9176 15.6108 11.9176C15.8864 11.9176 16.1477 11.8807 16.3949 11.8068C16.6449 11.7301 16.8707 11.6179 17.0724 11.4702C17.2741 11.3224 17.4446 11.142 17.5838 10.929C17.7259 10.7131 17.8239 10.4659 17.8778 10.1875L19.2074 10.1918C19.1364 10.6207 18.9986 11.0156 18.794 11.3764C18.5923 11.7344 18.3324 12.044 18.0142 12.3054C17.6989 12.5639 17.3381 12.7642 16.9318 12.9062C16.5256 13.0483 16.0824 13.1193 15.6023 13.1193C14.8466 13.1193 14.1733 12.9403 13.5824 12.5824C12.9915 12.2216 12.5256 11.706 12.1847 11.0355C11.8466 10.3651 11.6776 9.56534 11.6776 8.63636C11.6776 7.70455 11.848 6.90483 12.1889 6.23722C12.5298 5.56676 12.9957 5.05256 13.5866 4.6946C14.1776 4.33381 14.8494 4.15341 15.6023 4.15341C16.0653 4.15341 16.4972 4.22017 16.8977 4.35369C17.3011 4.48437 17.6634 4.67756 17.9844 4.93324C18.3054 5.18608 18.571 5.49574 18.7812 5.86222C18.9915 6.22585 19.1335 6.64205 19.2074 7.1108ZM20.6808 13V6.45455H21.9123V7.49432H21.9805C22.0998 7.14205 22.31 6.86506 22.6112 6.66335C22.9151 6.45881 23.2589 6.35653 23.6424 6.35653C23.7219 6.35653 23.8157 6.35937 23.9237 6.36506C24.0344 6.37074 24.1211 6.37784 24.1836 6.38636V7.60511C24.1325 7.59091 24.0415 7.57528 23.9109 7.55824C23.7802 7.53835 23.6495 7.52841 23.5188 7.52841C23.2177 7.52841 22.9492 7.59233 22.7134 7.72017C22.4805 7.84517 22.2958 8.01989 22.1594 8.24432C22.0231 8.46591 21.9549 8.71875 21.9549 9.00284V13H20.6808ZM25.2862 13V6.45455H26.5604V13H25.2862ZM25.9297 5.4446C25.7081 5.4446 25.5178 5.37074 25.3587 5.22301C25.2024 5.07244 25.1243 4.89347 25.1243 4.68608C25.1243 4.47585 25.2024 4.29687 25.3587 4.14915C25.5178 3.99858 25.7081 3.9233 25.9297 3.9233C26.1513 3.9233 26.3402 3.99858 26.4964 4.14915C26.6555 4.29687 26.7351 4.47585 26.7351 4.68608C26.7351 4.89347 26.6555 5.07244 26.4964 5.22301C26.3402 5.37074 26.1513 5.4446 25.9297 5.4446ZM31.3299 6.45455V7.47727H27.7546V6.45455H31.3299ZM28.7134 4.88636H29.9876V11.0781C29.9876 11.3253 30.0245 11.5114 30.0984 11.6364C30.1722 11.7585 30.2674 11.8423 30.3839 11.8878C30.5032 11.9304 30.6325 11.9517 30.7717 11.9517C30.8739 11.9517 30.9634 11.9446 31.0401 11.9304C31.1168 11.9162 31.1765 11.9048 31.2191 11.8963L31.4492 12.9489C31.3754 12.9773 31.2702 13.0057 31.1339 13.0341C30.9975 13.0653 30.8271 13.0824 30.6225 13.0852C30.2873 13.0909 29.9748 13.0312 29.685 12.9062C29.3952 12.7812 29.1609 12.5881 28.9819 12.3267C28.8029 12.0653 28.7134 11.7372 28.7134 11.3423V4.88636ZM32.7393 13V6.45455H34.0135V13H32.7393ZM33.3828 5.4446C33.1612 5.4446 32.9709 5.37074 32.8118 5.22301C32.6555 5.07244 32.5774 4.89347 32.5774 4.68608C32.5774 4.47585 32.6555 4.29687 32.8118 4.14915C32.9709 3.99858 33.1612 3.9233 33.3828 3.9233C33.6044 3.9233 33.7933 3.99858 33.9496 4.14915C34.1087 4.29687 34.1882 4.47585 34.1882 4.68608C34.1882 4.89347 34.1087 5.07244 33.9496 5.22301C33.7933 5.37074 33.6044 5.4446 33.3828 5.4446ZM38.4847 13.1321C37.8512 13.1321 37.3058 12.9886 36.8484 12.7017C36.3938 12.4119 36.0444 12.0128 35.8001 11.5043C35.5558 10.9957 35.4336 10.4134 35.4336 9.7571C35.4336 9.09233 35.5586 8.50568 35.8086 7.99716C36.0586 7.4858 36.4109 7.08665 36.8654 6.79972C37.32 6.51278 37.8555 6.36932 38.4719 6.36932C38.9691 6.36932 39.4123 6.46165 39.8015 6.64631C40.1907 6.82812 40.5046 7.08381 40.7433 7.41335C40.9847 7.7429 41.1282 8.12784 41.1737 8.56818H39.9336C39.8654 8.26136 39.7092 7.99716 39.4648 7.77557C39.2234 7.55398 38.8995 7.44318 38.4933 7.44318C38.1381 7.44318 37.8271 7.53693 37.56 7.72443C37.2958 7.90909 37.0898 8.1733 36.9421 8.51705C36.7944 8.85795 36.7205 9.26136 36.7205 9.72727C36.7205 10.2045 36.793 10.6165 36.9379 10.9631C37.0827 11.3097 37.2873 11.5781 37.5515 11.7685C37.8185 11.9588 38.1325 12.054 38.4933 12.054C38.7347 12.054 38.9535 12.0099 39.1495 11.9219C39.3484 11.831 39.5146 11.7017 39.6481 11.5341C39.7844 11.3665 39.8796 11.1648 39.9336 10.929H41.1737C41.1282 11.3523 40.9904 11.7301 40.7603 12.0625C40.5302 12.3949 40.2219 12.6562 39.8356 12.8466C39.4521 13.0369 39.0018 13.1321 38.4847 13.1321ZM44.4411 13.1449C44.0263 13.1449 43.6513 13.0682 43.3161 12.9148C42.9808 12.7585 42.7152 12.5327 42.5192 12.2372C42.326 11.9418 42.2294 11.5795 42.2294 11.1506C42.2294 10.7812 42.3004 10.4773 42.4425 10.2386C42.5845 10 42.7763 9.81108 43.0178 9.67188C43.2592 9.53267 43.5291 9.42756 43.8274 9.35653C44.1257 9.28551 44.4297 9.23153 44.7393 9.1946C45.1314 9.14915 45.4496 9.11222 45.6939 9.08381C45.9382 9.05256 46.1158 9.00284 46.2266 8.93466C46.3374 8.86648 46.3928 8.75568 46.3928 8.60227V8.57244C46.3928 8.20028 46.2876 7.91193 46.0774 7.70739C45.87 7.50284 45.5604 7.40057 45.1484 7.40057C44.7195 7.40057 44.3814 7.49574 44.1342 7.68608C43.8899 7.87358 43.7209 8.08239 43.6271 8.3125L42.4297 8.03977C42.5717 7.64205 42.7791 7.32102 43.0518 7.0767C43.3274 6.82955 43.6442 6.65057 44.0021 6.53977C44.3601 6.42614 44.7365 6.36932 45.1314 6.36932C45.3928 6.36932 45.6697 6.40057 45.9624 6.46307C46.2578 6.52273 46.5334 6.63352 46.7891 6.79545C47.0476 6.95739 47.2592 7.18892 47.424 7.49006C47.5888 7.78835 47.6712 8.17614 47.6712 8.65341V13H46.4268V12.1051H46.3757C46.2933 12.2699 46.1697 12.4318 46.005 12.5909C45.8402 12.75 45.6286 12.8821 45.37 12.9872C45.1115 13.0923 44.8018 13.1449 44.4411 13.1449ZM44.718 12.1222C45.0703 12.1222 45.3714 12.0526 45.6214 11.9134C45.8743 11.7741 46.0661 11.5923 46.1967 11.3679C46.3303 11.1406 46.397 10.8977 46.397 10.6392V9.79545C46.3516 9.84091 46.2635 9.88352 46.1328 9.9233C46.005 9.96023 45.8587 9.9929 45.6939 10.0213C45.5291 10.0469 45.3686 10.071 45.2124 10.0938C45.0561 10.1136 44.9254 10.1307 44.8203 10.1449C44.5732 10.1761 44.3473 10.2287 44.1428 10.3026C43.9411 10.3764 43.7791 10.483 43.657 10.6222C43.5376 10.7585 43.478 10.9403 43.478 11.1676C43.478 11.483 43.5945 11.7216 43.8274 11.8835C44.0604 12.0426 44.3572 12.1222 44.718 12.1222ZM50.6424 4.27273V13H49.3683V4.27273H50.6424Z" fill="white"/>
</svg>
