<svg width="24" height="24" viewBox="0 0 24 24" fill="none" xmlns="http://www.w3.org/2000/svg">
<path d="M16.13 6.16C16.131 6.0267 16.0965 5.89553 16.03 5.78C15.9644 5.66588 15.8717 5.5697 15.76 5.5C15.6468 5.4368 15.5197 5.40246 15.39 5.4C15.2534 5.39767 15.1187 5.43221 15 5.5C14.8877 5.57215 14.7922 5.66765 14.72 5.78L12 10.5C11.7355 10.4998 11.476 10.5724 11.25 10.71C11.0228 10.839 10.8332 11.0252 10.7 11.25C10.57 11.4787 10.5011 11.737 10.5 12C10.4988 12.2633 10.5678 12.5222 10.7 12.75L10.11 13.75C10.062 13.8374 10.0283 13.932 10.01 14.03C9.99007 14.129 9.99007 14.231 10.01 14.33C10.0327 14.4285 10.0771 14.5208 10.14 14.6C10.2014 14.6759 10.2759 14.7403 10.36 14.79C10.4467 14.8395 10.5415 14.8734 10.64 14.89C10.739 14.9097 10.841 14.9097 10.94 14.89C11.036 14.8648 11.1257 14.8197 11.2032 14.7577C11.2807 14.6957 11.3443 14.6181 11.39 14.53L11.98 13.53C12.2437 13.5338 12.5032 13.4645 12.73 13.33C12.9664 13.1984 13.1627 13.0052 13.2983 12.7711C13.4338 12.537 13.5035 12.2705 13.5 12C13.5013 11.7367 13.4322 11.4778 13.3 11.25L16 6.53C16.0777 6.42157 16.1228 6.2932 16.13 6.16V6.16ZM16.13 6.16C16.131 6.0267 16.0965 5.89553 16.03 5.78C15.9644 5.66588 15.8717 5.5697 15.76 5.5C15.6468 5.4368 15.5197 5.40246 15.39 5.4C15.2534 5.39767 15.1187 5.43221 15 5.5C14.8877 5.57215 14.7922 5.66765 14.72 5.78L12 10.5C11.7355 10.4998 11.476 10.5724 11.25 10.71C11.0228 10.839 10.8332 11.0252 10.7 11.25C10.57 11.4787 10.5011 11.737 10.5 12C10.4988 12.2633 10.5678 12.5222 10.7 12.75L10.11 13.75C10.062 13.8374 10.0283 13.932 10.01 14.03C9.99007 14.129 9.99007 14.231 10.01 14.33C10.0327 14.4285 10.0771 14.5208 10.14 14.6C10.2014 14.6759 10.2759 14.7403 10.36 14.79C10.4467 14.8395 10.5415 14.8734 10.64 14.89C10.739 14.9097 10.841 14.9097 10.94 14.89C11.036 14.8648 11.1257 14.8197 11.2032 14.7577C11.2807 14.6957 11.3443 14.6181 11.39 14.53L11.98 13.53C12.2437 13.5338 12.5032 13.4645 12.73 13.33C12.9664 13.1984 13.1627 13.0052 13.2983 12.7711C13.4338 12.537 13.5035 12.2705 13.5 12C13.5013 11.7367 13.4322 11.4778 13.3 11.25L16 6.53C16.0777 6.42157 16.1228 6.2932 16.13 6.16V6.16ZM16.13 6.16C16.131 6.0267 16.0965 5.89553 16.03 5.78C15.9644 5.66588 15.8717 5.5697 15.76 5.5C15.6468 5.4368 15.5197 5.40246 15.39 5.4C15.2534 5.39767 15.1187 5.43221 15 5.5C14.8877 5.57215 14.7922 5.66765 14.72 5.78L12 10.5C11.7355 10.4998 11.476 10.5724 11.25 10.71C11.0228 10.839 10.8332 11.0252 10.7 11.25C10.57 11.4787 10.5011 11.737 10.5 12C10.4988 12.2633 10.5678 12.5222 10.7 12.75L10.11 13.75C10.062 13.8374 10.0283 13.932 10.01 14.03C9.99007 14.129 9.99007 14.231 10.01 14.33C10.0327 14.4285 10.0771 14.5208 10.14 14.6C10.2014 14.6759 10.2759 14.7403 10.36 14.79C10.4467 14.8395 10.5415 14.8734 10.64 14.89C10.739 14.9097 10.841 14.9097 10.94 14.89C11.036 14.8648 11.1257 14.8197 11.2032 14.7577C11.2807 14.6957 11.3443 14.6181 11.39 14.53L11.98 13.53C12.2437 13.5338 12.5032 13.4645 12.73 13.33C12.9664 13.1984 13.1627 13.0052 13.2983 12.7711C13.4338 12.537 13.5035 12.2705 13.5 12C13.5013 11.7367 13.4322 11.4778 13.3 11.25L16 6.53C16.0777 6.42157 16.1228 6.2932 16.13 6.16V6.16ZM16.13 6.16C16.131 6.0267 16.0965 5.89553 16.03 5.78C15.9644 5.66588 15.8717 5.5697 15.76 5.5C15.6468 5.4368 15.5197 5.40246 15.39 5.4C15.2534 5.39767 15.1187 5.43221 15 5.5C14.8877 5.57215 14.7922 5.66765 14.72 5.78L12 10.5C11.7355 10.4998 11.476 10.5724 11.25 10.71C11.0228 10.839 10.8332 11.0252 10.7 11.25C10.57 11.4787 10.5011 11.737 10.5 12C10.4988 12.2633 10.5678 12.5222 10.7 12.75L10.11 13.75C10.062 13.8374 10.0283 13.932 10.01 14.03C9.99007 14.129 9.99007 14.231 10.01 14.33C10.0327 14.4285 10.0771 14.5208 10.14 14.6C10.2014 14.6759 10.2759 14.7403 10.36 14.79C10.4467 14.8395 10.5415 14.8734 10.64 14.89C10.739 14.9097 10.841 14.9097 10.94 14.89C11.036 14.8648 11.1257 14.8197 11.2032 14.7577C11.2807 14.6957 11.3443 14.6181 11.39 14.53L11.98 13.53C12.2437 13.5338 12.5032 13.4645 12.73 13.33C12.9664 13.1984 13.1627 13.0052 13.2983 12.7711C13.4338 12.537 13.5035 12.2705 13.5 12C13.5013 11.7367 13.4322 11.4778 13.3 11.25L16 6.53C16.0777 6.42157 16.1228 6.2932 16.13 6.16V6.16ZM16.13 6.16C16.131 6.0267 16.0965 5.89553 16.03 5.78C15.9644 5.66588 15.8717 5.5697 15.76 5.5C15.6468 5.4368 15.5197 5.40246 15.39 5.4C15.2534 5.39767 15.1187 5.43221 15 5.5C14.8877 5.57215 14.7922 5.66765 14.72 5.78L12 10.5C11.7355 10.4998 11.476 10.5724 11.25 10.71C11.0228 10.839 10.8332 11.0252 10.7 11.25C10.57 11.4787 10.5011 11.737 10.5 12C10.4988 12.2633 10.5678 12.5222 10.7 12.75L10.11 13.75C10.062 13.8374 10.0283 13.932 10.01 14.03C9.99007 14.129 9.99007 14.231 10.01 14.33C10.0327 14.4285 10.0771 14.5208 10.14 14.6C10.2014 14.6759 10.2759 14.7403 10.36 14.79C10.4467 14.8395 10.5415 14.8734 10.64 14.89C10.739 14.9097 10.841 14.9097 10.94 14.89C11.036 14.8648 11.1257 14.8197 11.2032 14.7577C11.2807 14.6957 11.3443 14.6181 11.39 14.53L11.98 13.53C12.2437 13.5338 12.5032 13.4645 12.73 13.33C12.9664 13.1984 13.1627 13.0052 13.2983 12.7711C13.4338 12.537 13.5035 12.2705 13.5 12C13.5013 11.7367 13.4322 11.4778 13.3 11.25L16 6.53C16.0777 6.42157 16.1228 6.2932 16.13 6.16V6.16ZM16.13 6.16C16.131 6.0267 16.0965 5.89553 16.03 5.78C15.9644 5.66588 15.8717 5.5697 15.76 5.5C15.6468 5.4368 15.5197 5.40246 15.39 5.4C15.2534 5.39767 15.1187 5.43221 15 5.5C14.8877 5.57215 14.7922 5.66765 14.72 5.78L12 10.5C11.7355 10.4998 11.476 10.5724 11.25 10.71C11.0228 10.839 10.8332 11.0252 10.7 11.25C10.57 11.4787 10.5011 11.737 10.5 12C10.4988 12.2633 10.5678 12.5222 10.7 12.75L10.11 13.75C10.062 13.8374 10.0283 13.932 10.01 14.03C9.99007 14.129 9.99007 14.231 10.01 14.33C10.0327 14.4285 10.0771 14.5208 10.14 14.6C10.2014 14.6759 10.2759 14.7403 10.36 14.79C10.4467 14.8395 10.5415 14.8734 10.64 14.89C10.739 14.9097 10.841 14.9097 10.94 14.89C11.036 14.8648 11.1257 14.8197 11.2032 14.7577C11.2807 14.6957 11.3443 14.6181 11.39 14.53L11.98 13.53C12.2437 13.5338 12.5032 13.4645 12.73 13.33C12.9664 13.1984 13.1627 13.0052 13.2983 12.7711C13.4338 12.537 13.5035 12.2705 13.5 12C13.5013 11.7367 13.4322 11.4778 13.3 11.25L16 6.53C16.0777 6.42157 16.1228 6.2932 16.13 6.16V6.16ZM16.13 6.16C16.131 6.0267 16.0965 5.89553 16.03 5.78C15.9644 5.66588 15.8717 5.5697 15.76 5.5C15.6468 5.4368 15.5197 5.40246 15.39 5.4C15.2534 5.39767 15.1187 5.43221 15 5.5C14.8877 5.57215 14.7922 5.66765 14.72 5.78L12 10.5C11.7355 10.4998 11.476 10.5724 11.25 10.71C11.0228 10.839 10.8332 11.0252 10.7 11.25C10.57 11.4787 10.5011 11.737 10.5 12C10.4988 12.2633 10.5678 12.5222 10.7 12.75L10.11 13.75C10.062 13.8374 10.0283 13.932 10.01 14.03C9.99007 14.129 9.99007 14.231 10.01 14.33C10.0327 14.4285 10.0771 14.5208 10.14 14.6C10.2014 14.6759 10.2759 14.7403 10.36 14.79C10.4467 14.8395 10.5415 14.8734 10.64 14.89C10.739 14.9097 10.841 14.9097 10.94 14.89C11.036 14.8648 11.1257 14.8197 11.2032 14.7577C11.2807 14.6957 11.3443 14.6181 11.39 14.53L11.98 13.53C12.2437 13.5338 12.5032 13.4645 12.73 13.33C12.9664 13.1984 13.1627 13.0052 13.2983 12.7711C13.4338 12.537 13.5035 12.2705 13.5 12C13.5013 11.7367 13.4322 11.4778 13.3 11.25L16 6.53C16.0777 6.42157 16.1228 6.2932 16.13 6.16V6.16ZM16.13 6.16C16.131 6.0267 16.0965 5.89553 16.03 5.78C15.9644 5.66588 15.8717 5.5697 15.76 5.5C15.6468 5.4368 15.5197 5.40246 15.39 5.4C15.2534 5.39767 15.1187 5.43221 15 5.5C14.8877 5.57215 14.7922 5.66765 14.72 5.78L12 10.5C11.7355 10.4998 11.476 10.5724 11.25 10.71C11.0228 10.839 10.8332 11.0252 10.7 11.25C10.57 11.4787 10.5011 11.737 10.5 12C10.4988 12.2633 10.5678 12.5222 10.7 12.75L10.11 13.75C10.062 13.8374 10.0283 13.932 10.01 14.03C9.99007 14.129 9.99007 14.231 10.01 14.33C10.0327 14.4285 10.0771 14.5208 10.14 14.6C10.2014 14.6759 10.2759 14.7403 10.36 14.79C10.4467 14.8395 10.5415 14.8734 10.64 14.89C10.739 14.9097 10.841 14.9097 10.94 14.89C11.036 14.8648 11.1257 14.8197 11.2032 14.7577C11.2807 14.6957 11.3443 14.6181 11.39 14.53L11.98 13.53C12.2437 13.5338 12.5032 13.4645 12.73 13.33C12.9664 13.1984 13.1627 13.0052 13.2983 12.7711C13.4338 12.537 13.5035 12.2705 13.5 12C13.5013 11.7367 13.4322 11.4778 13.3 11.25L16 6.53C16.0777 6.42157 16.1228 6.2932 16.13 6.16V6.16ZM16.13 6.16C16.131 6.0267 16.0965 5.89553 16.03 5.78C15.9644 5.66588 15.8717 5.5697 15.76 5.5C15.6468 5.4368 15.5197 5.40246 15.39 5.4C15.2534 5.39767 15.1187 5.43221 15 5.5C14.8877 5.57215 14.7922 5.66765 14.72 5.78L12 10.5C11.7355 10.4998 11.476 10.5724 11.25 10.71C11.0228 10.839 10.8332 11.0252 10.7 11.25C10.57 11.4787 10.5011 11.737 10.5 12C10.4988 12.2633 10.5678 12.5222 10.7 12.75L10.11 13.75C10.062 13.8374 10.0283 13.932 10.01 14.03C9.99007 14.129 9.99007 14.231 10.01 14.33C10.0327 14.4285 10.0771 14.5208 10.14 14.6C10.2014 14.6759 10.2759 14.7403 10.36 14.79C10.4467 14.8395 10.5415 14.8734 10.64 14.89C10.739 14.9097 10.841 14.9097 10.94 14.89C11.036 14.8648 11.1257 14.8197 11.2032 14.7577C11.2807 14.6957 11.3443 14.6181 11.39 14.53L11.98 13.53C12.2437 13.5338 12.5032 13.4645 12.73 13.33C12.9664 13.1984 13.1627 13.0052 13.2983 12.7711C13.4338 12.537 13.5035 12.2705 13.5 12C13.5013 11.7367 13.4322 11.4778 13.3 11.25L16 6.53C16.0777 6.42157 16.1228 6.2932 16.13 6.16V6.16ZM16.13 6.16C16.131 6.0267 16.0965 5.89553 16.03 5.78C15.9644 5.66588 15.8717 5.5697 15.76 5.5C15.6468 5.4368 15.5197 5.40246 15.39 5.4C15.2534 5.39767 15.1187 5.43221 15 5.5C14.8877 5.57215 14.7922 5.66765 14.72 5.78L12 10.5C11.7355 10.4998 11.476 10.5724 11.25 10.71C11.0228 10.839 10.8332 11.0252 10.7 11.25C10.57 11.4787 10.5011 11.737 10.5 12C10.4988 12.2633 10.5678 12.5222 10.7 12.75L10.11 13.75C10.062 13.8374 10.0283 13.932 10.01 14.03C9.99007 14.129 9.99007 14.231 10.01 14.33C10.0327 14.4285 10.0771 14.5208 10.14 14.6C10.2014 14.6759 10.2759 14.7403 10.36 14.79C10.4467 14.8395 10.5415 14.8734 10.64 14.89C10.739 14.9097 10.841 14.9097 10.94 14.89C11.036 14.8648 11.1257 14.8197 11.2032 14.7577C11.2807 14.6957 11.3443 14.6181 11.39 14.53L11.98 13.53C12.2437 13.5338 12.5032 13.4645 12.73 13.33C12.9664 13.1984 13.1627 13.0052 13.2983 12.7711C13.4338 12.537 13.5035 12.2705 13.5 12C13.5013 11.7367 13.4322 11.4778 13.3 11.25L16 6.53C16.0777 6.42157 16.1228 6.2932 16.13 6.16V6.16ZM12 2C10.0222 2 8.08879 2.58649 6.4443 3.6853C4.79981 4.78412 3.51809 6.3459 2.76121 8.17317C2.00433 10.0004 1.8063 12.0111 2.19215 13.9509C2.578 15.8907 3.53041 17.6725 4.92894 19.0711C6.32746 20.4696 8.10929 21.422 10.0491 21.8079C11.9889 22.1937 13.9996 21.9957 15.8268 21.2388C17.6541 20.4819 19.2159 19.2002 20.3147 17.5557C21.4135 15.9112 22 13.9778 22 12C22 9.34784 20.9464 6.8043 19.0711 4.92893C17.1957 3.05357 14.6522 2 12 2V2ZM12 20.5C10.3189 20.5 8.67548 20.0015 7.27766 19.0675C5.87984 18.1335 4.79037 16.806 4.14703 15.2528C3.50368 13.6996 3.33536 11.9906 3.66333 10.3417C3.9913 8.69289 4.80085 7.17834 5.9896 5.98959C7.17834 4.80085 8.6929 3.9913 10.3417 3.66333C11.9906 3.33535 13.6996 3.50368 15.2528 4.14702C16.806 4.79037 18.1335 5.87984 19.0675 7.27765C20.0015 8.67547 20.5 10.3189 20.5 12C20.5013 13.1166 20.2824 14.2225 19.8557 15.2544C19.429 16.2862 18.8029 17.2238 18.0133 18.0133C17.2238 18.8029 16.2862 19.429 15.2544 19.8557C14.2225 20.2824 13.1166 20.5013 12 20.5V20.5ZM15.76 5.5C15.6468 5.4368 15.5197 5.40246 15.39 5.4C15.2534 5.39767 15.1187 5.43221 15 5.5C14.8877 5.57215 14.7922 5.66765 14.72 5.78L12 10.5C11.7355 10.4998 11.476 10.5724 11.25 10.71C11.0228 10.839 10.8332 11.0252 10.7 11.25C10.57 11.4787 10.5011 11.737 10.5 12C10.4988 12.2633 10.5678 12.5222 10.7 12.75L10.11 13.75C10.062 13.8374 10.0283 13.932 10.01 14.03C9.99007 14.129 9.99007 14.231 10.01 14.33C10.0327 14.4285 10.0771 14.5208 10.14 14.6C10.2014 14.6759 10.2759 14.7403 10.36 14.79C10.4467 14.8395 10.5415 14.8734 10.64 14.89C10.739 14.9097 10.841 14.9097 10.94 14.89C11.036 14.8648 11.1257 14.8197 11.2032 14.7577C11.2807 14.6957 11.3443 14.6181 11.39 14.53L11.98 13.53C12.2437 13.5338 12.5032 13.4645 12.73 13.33C12.9664 13.1984 13.1627 13.0052 13.2983 12.7711C13.4338 12.537 13.5035 12.2705 13.5 12C13.5013 11.7367 13.4322 11.4778 13.3 11.25L16 6.53C16.0706 6.41941 16.1087 6.29121 16.11 6.16C16.111 6.0267 16.0765 5.89553 16.01 5.78C15.9501 5.66816 15.8644 5.57219 15.76 5.5V5.5ZM16.13 6.16C16.131 6.0267 16.0965 5.89553 16.03 5.78C15.9644 5.66588 15.8717 5.5697 15.76 5.5C15.6468 5.4368 15.5197 5.40246 15.39 5.4C15.2534 5.39767 15.1187 5.43221 15 5.5C14.8877 5.57215 14.7922 5.66765 14.72 5.78L12 10.5C11.7355 10.4998 11.476 10.5724 11.25 10.71C11.0228 10.839 10.8332 11.0252 10.7 11.25C10.57 11.4787 10.5011 11.737 10.5 12C10.4988 12.2633 10.5678 12.5222 10.7 12.75L10.11 13.75C10.062 13.8374 10.0283 13.932 10.01 14.03C9.99007 14.129 9.99007 14.231 10.01 14.33C10.0327 14.4285 10.0771 14.5208 10.14 14.6C10.2014 14.6759 10.2759 14.7403 10.36 14.79C10.4467 14.8395 10.5415 14.8734 10.64 14.89C10.739 14.9097 10.841 14.9097 10.94 14.89C11.036 14.8648 11.1257 14.8197 11.2032 14.7577C11.2807 14.6957 11.3443 14.6181 11.39 14.53L11.98 13.53C12.2437 13.5338 12.5032 13.4645 12.73 13.33C12.9664 13.1984 13.1627 13.0052 13.2983 12.7711C13.4338 12.537 13.5035 12.2705 13.5 12C13.5013 11.7367 13.4322 11.4778 13.3 11.25L16 6.53C16.0777 6.42157 16.1228 6.2932 16.13 6.16V6.16ZM16.13 6.16C16.131 6.0267 16.0965 5.89553 16.03 5.78C15.9644 5.66588 15.8717 5.5697 15.76 5.5C15.6468 5.4368 15.5197 5.40246 15.39 5.4C15.2534 5.39767 15.1187 5.43221 15 5.5C14.8877 5.57215 14.7922 5.66765 14.72 5.78L12 10.5C11.7355 10.4998 11.476 10.5724 11.25 10.71C11.0228 10.839 10.8332 11.0252 10.7 11.25C10.57 11.4787 10.5011 11.737 10.5 12C10.4988 12.2633 10.5678 12.5222 10.7 12.75L10.11 13.75C10.062 13.8374 10.0283 13.932 10.01 14.03C9.99007 14.129 9.99007 14.231 10.01 14.33C10.0327 14.4285 10.0771 14.5208 10.14 14.6C10.2014 14.6759 10.2759 14.7403 10.36 14.79C10.4467 14.8395 10.5415 14.8734 10.64 14.89C10.739 14.9097 10.841 14.9097 10.94 14.89C11.036 14.8648 11.1257 14.8197 11.2032 14.7577C11.2807 14.6957 11.3443 14.6181 11.39 14.53L11.98 13.53C12.2437 13.5338 12.5032 13.4645 12.73 13.33C12.9664 13.1984 13.1627 13.0052 13.2983 12.7711C13.4338 12.537 13.5035 12.2705 13.5 12C13.5013 11.7367 13.4322 11.4778 13.3 11.25L16 6.53C16.0777 6.42157 16.1228 6.2932 16.13 6.16V6.16ZM16.13 6.16C16.131 6.0267 16.0965 5.89553 16.03 5.78C15.9644 5.66588 15.8717 5.5697 15.76 5.5C15.6468 5.4368 15.5197 5.40246 15.39 5.4C15.2534 5.39767 15.1187 5.43221 15 5.5C14.8877 5.57215 14.7922 5.66765 14.72 5.78L12 10.5C11.7355 10.4998 11.476 10.5724 11.25 10.71C11.0228 10.839 10.8332 11.0252 10.7 11.25C10.57 11.4787 10.5011 11.737 10.5 12C10.4988 12.2633 10.5678 12.5222 10.7 12.75L10.11 13.75C10.062 13.8374 10.0283 13.932 10.01 14.03C9.99007 14.129 9.99007 14.231 10.01 14.33C10.0327 14.4285 10.0771 14.5208 10.14 14.6C10.2014 14.6759 10.2759 14.7403 10.36 14.79C10.4467 14.8395 10.5415 14.8734 10.64 14.89C10.739 14.9097 10.841 14.9097 10.94 14.89C11.036 14.8648 11.1257 14.8197 11.2032 14.7577C11.2807 14.6957 11.3443 14.6181 11.39 14.53L11.98 13.53C12.2437 13.5338 12.5032 13.4645 12.73 13.33C12.9664 13.1984 13.1627 13.0052 13.2983 12.7711C13.4338 12.537 13.5035 12.2705 13.5 12C13.5013 11.7367 13.4322 11.4778 13.3 11.25L16 6.53C16.0777 6.42157 16.1228 6.2932 16.13 6.16V6.16ZM16.13 6.16C16.131 6.0267 16.0965 5.89553 16.03 5.78C15.9644 5.66588 15.8717 5.5697 15.76 5.5C15.6468 5.4368 15.5197 5.40246 15.39 5.4C15.2534 5.39767 15.1187 5.43221 15 5.5C14.8877 5.57215 14.7922 5.66765 14.72 5.78L12 10.5C11.7355 10.4998 11.476 10.5724 11.25 10.71C11.0228 10.839 10.8332 11.0252 10.7 11.25C10.57 11.4787 10.5011 11.737 10.5 12C10.4988 12.2633 10.5678 12.5222 10.7 12.75L10.11 13.75C10.062 13.8374 10.0283 13.932 10.01 14.03C9.99007 14.129 9.99007 14.231 10.01 14.33C10.0327 14.4285 10.0771 14.5208 10.14 14.6C10.2014 14.6759 10.2759 14.7403 10.36 14.79C10.4467 14.8395 10.5415 14.8734 10.64 14.89C10.739 14.9097 10.841 14.9097 10.94 14.89C11.036 14.8648 11.1257 14.8197 11.2032 14.7577C11.2807 14.6957 11.3443 14.6181 11.39 14.53L11.98 13.53C12.2437 13.5338 12.5032 13.4645 12.73 13.33C12.9664 13.1984 13.1627 13.0052 13.2983 12.7711C13.4338 12.537 13.5035 12.2705 13.5 12C13.5013 11.7367 13.4322 11.4778 13.3 11.25L16 6.53C16.0777 6.42157 16.1228 6.2932 16.13 6.16V6.16ZM16.13 6.16C16.131 6.0267 16.0965 5.89553 16.03 5.78C15.9644 5.66588 15.8717 5.5697 15.76 5.5C15.6468 5.4368 15.5197 5.40246 15.39 5.4C15.2534 5.39767 15.1187 5.43221 15 5.5C14.8877 5.57215 14.7922 5.66765 14.72 5.78L12 10.5C11.7355 10.4998 11.476 10.5724 11.25 10.71C11.0228 10.839 10.8332 11.0252 10.7 11.25C10.57 11.4787 10.5011 11.737 10.5 12C10.4988 12.2633 10.5678 12.5222 10.7 12.75L10.11 13.75C10.062 13.8374 10.0283 13.932 10.01 14.03C9.99007 14.129 9.99007 14.231 10.01 14.33C10.0327 14.4285 10.0771 14.5208 10.14 14.6C10.2014 14.6759 10.2759 14.7403 10.36 14.79C10.4467 14.8395 10.5415 14.8734 10.64 14.89C10.739 14.9097 10.841 14.9097 10.94 14.89C11.036 14.8648 11.1257 14.8197 11.2032 14.7577C11.2807 14.6957 11.3443 14.6181 11.39 14.53L11.98 13.53C12.2437 13.5338 12.5032 13.4645 12.73 13.33C12.9664 13.1984 13.1627 13.0052 13.2983 12.7711C13.4338 12.537 13.5035 12.2705 13.5 12C13.5013 11.7367 13.4322 11.4778 13.3 11.25L16 6.53C16.0777 6.42157 16.1228 6.2932 16.13 6.16V6.16ZM16.13 6.16C16.131 6.0267 16.0965 5.89553 16.03 5.78C15.9644 5.66588 15.8717 5.5697 15.76 5.5C15.6468 5.4368 15.5197 5.40246 15.39 5.4C15.2534 5.39767 15.1187 5.43221 15 5.5C14.8877 5.57215 14.7922 5.66765 14.72 5.78L12 10.5C11.7355 10.4998 11.476 10.5724 11.25 10.71C11.0228 10.839 10.8332 11.0252 10.7 11.25C10.57 11.4787 10.5011 11.737 10.5 12C10.4988 12.2633 10.5678 12.5222 10.7 12.75L10.11 13.75C10.062 13.8374 10.0283 13.932 10.01 14.03C9.99007 14.129 9.99007 14.231 10.01 14.33C10.0327 14.4285 10.0771 14.5208 10.14 14.6C10.2014 14.6759 10.2759 14.7403 10.36 14.79C10.4467 14.8395 10.5415 14.8734 10.64 14.89C10.739 14.9097 10.841 14.9097 10.94 14.89C11.036 14.8648 11.1257 14.8197 11.2032 14.7577C11.2807 14.6957 11.3443 14.6181 11.39 14.53L11.98 13.53C12.2437 13.5338 12.5032 13.4645 12.73 13.33C12.9664 13.1984 13.1627 13.0052 13.2983 12.7711C13.4338 12.537 13.5035 12.2705 13.5 12C13.5013 11.7367 13.4322 11.4778 13.3 11.25L16 6.53C16.0777 6.42157 16.1228 6.2932 16.13 6.16V6.16ZM16.13 6.16C16.131 6.0267 16.0965 5.89553 16.03 5.78C15.9644 5.66588 15.8717 5.5697 15.76 5.5C15.6468 5.4368 15.5197 5.40246 15.39 5.4C15.2534 5.39767 15.1187 5.43221 15 5.5C14.8877 5.57215 14.7922 5.66765 14.72 5.78L12 10.5C11.7355 10.4998 11.476 10.5724 11.25 10.71C11.0228 10.839 10.8332 11.0252 10.7 11.25C10.57 11.4787 10.5011 11.737 10.5 12C10.4988 12.2633 10.5678 12.5222 10.7 12.75L10.11 13.75C10.062 13.8374 10.0283 13.932 10.01 14.03C9.99007 14.129 9.99007 14.231 10.01 14.33C10.0327 14.4285 10.0771 14.5208 10.14 14.6C10.2014 14.6759 10.2759 14.7403 10.36 14.79C10.4467 14.8395 10.5415 14.8734 10.64 14.89C10.739 14.9097 10.841 14.9097 10.94 14.89C11.036 14.8648 11.1257 14.8197 11.2032 14.7577C11.2807 14.6957 11.3443 14.6181 11.39 14.53L11.98 13.53C12.2437 13.5338 12.5032 13.4645 12.73 13.33C12.9664 13.1984 13.1627 13.0052 13.2983 12.7711C13.4338 12.537 13.5035 12.2705 13.5 12C13.5013 11.7367 13.4322 11.4778 13.3 11.25L16 6.53C16.0777 6.42157 16.1228 6.2932 16.13 6.16V6.16ZM16.13 6.16C16.131 6.0267 16.0965 5.89553 16.03 5.78C15.9644 5.66588 15.8717 5.5697 15.76 5.5C15.6468 5.4368 15.5197 5.40246 15.39 5.4C15.2534 5.39767 15.1187 5.43221 15 5.5C14.8877 5.57215 14.7922 5.66765 14.72 5.78L12 10.5C11.7355 10.4998 11.476 10.5724 11.25 10.71C11.0228 10.839 10.8332 11.0252 10.7 11.25C10.57 11.4787 10.5011 11.737 10.5 12C10.4988 12.2633 10.5678 12.5222 10.7 12.75L10.11 13.75C10.062 13.8374 10.0283 13.932 10.01 14.03C9.99007 14.129 9.99007 14.231 10.01 14.33C10.0327 14.4285 10.0771 14.5208 10.14 14.6C10.2014 14.6759 10.2759 14.7403 10.36 14.79C10.4467 14.8395 10.5415 14.8734 10.64 14.89C10.739 14.9097 10.841 14.9097 10.94 14.89C11.036 14.8648 11.1257 14.8197 11.2032 14.7577C11.2807 14.6957 11.3443 14.6181 11.39 14.53L11.98 13.53C12.2437 13.5338 12.5032 13.4645 12.73 13.33C12.9664 13.1984 13.1627 13.0052 13.2983 12.7711C13.4338 12.537 13.5035 12.2705 13.5 12C13.5013 11.7367 13.4322 11.4778 13.3 11.25L16 6.53C16.0777 6.42157 16.1228 6.2932 16.13 6.16V6.16Z" fill="#101010"/>
<path d="M19 12C19 11.0807 18.8189 10.1705 18.4672 9.32122C18.1154 8.47194 17.5998 7.70026 16.9497 7.05025C16.2997 6.40024 15.5281 5.88463 14.6788 5.53284C13.8295 5.18106 12.9193 5 12 5C11.0807 5 10.1705 5.18106 9.32122 5.53284C8.47194 5.88463 7.70026 6.40024 7.05025 7.05025C6.40024 7.70026 5.88463 8.47194 5.53284 9.32122C5.18106 10.1705 5 11.0807 5 12" stroke="#101010" stroke-width="0.875" stroke-dasharray="1.75 1.75"/>
</svg>
