<svg width="24" height="24" viewBox="0 0 24 24" fill="none" xmlns="http://www.w3.org/2000/svg">
<g id="Lightbulb">
<g id="Vector">
<mask id="path-1-inside-1_5278_66505" fill="white">
<path d="M15.6958 21.8839C15.6958 22.0473 15.6309 22.204 15.5154 22.3196C15.3999 22.4351 15.2432 22.5 15.0798 22.5H8.91909C8.7557 22.5 8.599 22.4351 8.48347 22.3196C8.36793 22.204 8.30302 22.0473 8.30302 21.8839C8.30302 21.7205 8.36793 21.5638 8.48347 21.4483C8.599 21.3328 8.7557 21.2679 8.91909 21.2679H15.0798C15.2432 21.2679 15.3999 21.3328 15.5154 21.4483C15.6309 21.5639 15.6958 21.7205 15.6958 21.8839ZM18.7762 12.0268C18.7788 13.0538 18.5468 14.0679 18.0978 14.9916C17.6488 15.9152 16.9948 16.7241 16.1855 17.3564C16.0344 17.4722 15.9117 17.621 15.8269 17.7914C15.742 17.9618 15.6972 18.1493 15.6958 18.3397V18.8036C15.6955 19.1303 15.5655 19.4434 15.3346 19.6744C15.1036 19.9054 14.7904 20.0354 14.4637 20.0357H9.53516C9.20849 20.0354 8.89531 19.9054 8.66432 19.6744C8.43333 19.4434 8.3034 19.1303 8.30302 18.8036V18.3391C8.30279 18.1508 8.25943 17.965 8.17628 17.796C8.09312 17.6271 7.97238 17.4794 7.8233 17.3643C7.01641 16.7359 6.36298 15.9323 5.91244 15.0143C5.46191 14.0962 5.22607 13.0876 5.22276 12.065C5.20253 8.39457 8.16939 5.33829 11.8364 5.25196C12.7398 5.23023 13.6384 5.3894 14.4794 5.72011C15.3204 6.05081 16.0867 6.54637 16.7333 7.17762C17.38 7.80888 17.8938 8.56308 18.2446 9.39586C18.5955 10.2286 18.7762 11.1232 18.7762 12.0268ZM16.2512 11.3032C16.1016 10.4234 15.682 9.61186 15.0505 8.98117C14.419 8.35048 13.607 7.93185 12.727 7.78332C12.6472 7.76983 12.5655 7.7722 12.4866 7.79029C12.4077 7.80838 12.3331 7.84184 12.2672 7.88876C12.2012 7.93568 12.1452 7.99514 12.1022 8.06373C12.0592 8.13233 12.0302 8.20871 12.0168 8.28853C12.0034 8.36835 12.0058 8.45003 12.0239 8.52891C12.0421 8.60778 12.0756 8.68231 12.1226 8.74822C12.1696 8.81414 12.2291 8.87016 12.2977 8.91307C12.3663 8.95598 12.4427 8.98494 12.5226 8.99831C13.1503 9.10429 13.7295 9.40291 14.1799 9.8528C14.6303 10.3027 14.9297 10.8815 15.0364 11.5091C15.0607 11.6525 15.1349 11.7826 15.246 11.8766C15.357 11.9705 15.4976 12.0221 15.6431 12.0223C15.6778 12.0223 15.7125 12.0194 15.7468 12.0136C15.8265 12.0001 15.9029 11.971 15.9714 11.928C16.0399 11.885 16.0993 11.8289 16.1461 11.7629C16.193 11.6969 16.2264 11.6224 16.2444 11.5435C16.2624 11.4646 16.2648 11.383 16.2512 11.3032Z"/>
</mask>
<path d="M15.6958 21.8839C15.6958 22.0473 15.6309 22.204 15.5154 22.3196C15.3999 22.4351 15.2432 22.5 15.0798 22.5H8.91909C8.7557 22.5 8.599 22.4351 8.48347 22.3196C8.36793 22.204 8.30302 22.0473 8.30302 21.8839C8.30302 21.7205 8.36793 21.5638 8.48347 21.4483C8.599 21.3328 8.7557 21.2679 8.91909 21.2679H15.0798C15.2432 21.2679 15.3999 21.3328 15.5154 21.4483C15.6309 21.5639 15.6958 21.7205 15.6958 21.8839ZM18.7762 12.0268C18.7788 13.0538 18.5468 14.0679 18.0978 14.9916C17.6488 15.9152 16.9948 16.7241 16.1855 17.3564C16.0344 17.4722 15.9117 17.621 15.8269 17.7914C15.742 17.9618 15.6972 18.1493 15.6958 18.3397V18.8036C15.6955 19.1303 15.5655 19.4434 15.3346 19.6744C15.1036 19.9054 14.7904 20.0354 14.4637 20.0357H9.53516C9.20849 20.0354 8.89531 19.9054 8.66432 19.6744C8.43333 19.4434 8.3034 19.1303 8.30302 18.8036V18.3391C8.30279 18.1508 8.25943 17.965 8.17628 17.796C8.09312 17.6271 7.97238 17.4794 7.8233 17.3643C7.01641 16.7359 6.36298 15.9323 5.91244 15.0143C5.46191 14.0962 5.22607 13.0876 5.22276 12.065C5.20253 8.39457 8.16939 5.33829 11.8364 5.25196C12.7398 5.23023 13.6384 5.3894 14.4794 5.72011C15.3204 6.05081 16.0867 6.54637 16.7333 7.17762C17.38 7.80888 17.8938 8.56308 18.2446 9.39586C18.5955 10.2286 18.7762 11.1232 18.7762 12.0268ZM16.2512 11.3032C16.1016 10.4234 15.682 9.61186 15.0505 8.98117C14.419 8.35048 13.607 7.93185 12.727 7.78332C12.6472 7.76983 12.5655 7.7722 12.4866 7.79029C12.4077 7.80838 12.3331 7.84184 12.2672 7.88876C12.2012 7.93568 12.1452 7.99514 12.1022 8.06373C12.0592 8.13233 12.0302 8.20871 12.0168 8.28853C12.0034 8.36835 12.0058 8.45003 12.0239 8.52891C12.0421 8.60778 12.0756 8.68231 12.1226 8.74822C12.1696 8.81414 12.2291 8.87016 12.2977 8.91307C12.3663 8.95598 12.4427 8.98494 12.5226 8.99831C13.1503 9.10429 13.7295 9.40291 14.1799 9.8528C14.6303 10.3027 14.9297 10.8815 15.0364 11.5091C15.0607 11.6525 15.1349 11.7826 15.246 11.8766C15.357 11.9705 15.4976 12.0221 15.6431 12.0223C15.6778 12.0223 15.7125 12.0194 15.7468 12.0136C15.8265 12.0001 15.9029 11.971 15.9714 11.928C16.0399 11.885 16.0993 11.8289 16.1461 11.7629C16.193 11.6969 16.2264 11.6224 16.2444 11.5435C16.2624 11.4646 16.2648 11.383 16.2512 11.3032Z" fill="#FFCA00"/>
<path d="M15.0798 22.5V24.2H15.0799L15.0798 22.5ZM15.0798 21.2679L15.0799 19.5679H15.0798V21.2679ZM16.1855 17.3564L17.2195 18.7058L17.2259 18.701L17.2322 18.696L16.1855 17.3564ZM15.6958 18.3397L13.9958 18.3275V18.3397H15.6958ZM15.6958 18.8036L17.3958 18.8055V18.8036H15.6958ZM14.4637 20.0357V21.7357L14.4657 21.7357L14.4637 20.0357ZM9.53516 20.0357L9.53322 21.7357H9.53516V20.0357ZM8.30302 18.8036H6.60302L6.60302 18.8055L8.30302 18.8036ZM8.30302 18.3391H10.003L10.003 18.337L8.30302 18.3391ZM7.8233 17.3643L6.77883 18.7056L6.78443 18.7099L7.8233 17.3643ZM5.22276 12.065L6.92275 12.0595L6.92273 12.0556L5.22276 12.065ZM11.8364 5.25196L11.8764 6.95149L11.8773 6.95147L11.8364 5.25196ZM18.7762 12.0268L17.0762 12.0268L17.0762 12.0312L18.7762 12.0268ZM16.2512 11.3032L17.9273 11.0191L17.9272 11.0182L16.2512 11.3032ZM12.727 7.78332L12.4436 9.45954L12.444 9.45961L12.727 7.78332ZM12.5226 8.99831L12.8056 7.32203L12.8033 7.32165L12.5226 8.99831ZM15.0364 11.5091L16.7124 11.2248L16.7123 11.2241L15.0364 11.5091ZM15.6431 12.0223L15.6405 13.7223L15.6438 13.7223L15.6431 12.0223ZM15.7468 12.0136L16.03 13.6898L16.0308 13.6897L15.7468 12.0136ZM13.9958 21.8839C13.9959 21.5964 14.1101 21.3207 14.3133 21.1175L16.7175 23.5216C17.1518 23.0873 17.3958 22.4982 17.3958 21.884L13.9958 21.8839ZM14.3133 21.1175C14.5166 20.9142 14.7922 20.8 15.0797 20.8L15.0799 24.2C15.6941 24.2 16.2832 23.956 16.7175 23.5216L14.3133 21.1175ZM15.0798 20.8H8.91909V24.2H15.0798V20.8ZM8.91909 20.8C9.20657 20.8 9.48227 20.9142 9.68555 21.1175L7.28138 23.5216C7.71573 23.956 8.30484 24.2 8.91909 24.2V20.8ZM9.68555 21.1175C9.88882 21.3208 10.003 21.5965 10.003 21.8839H6.60302C6.60302 22.4982 6.84704 23.0873 7.28138 23.5216L9.68555 21.1175ZM10.003 21.8839C10.003 22.1714 9.88882 22.4471 9.68555 22.6504L7.28138 20.2462C6.84704 20.6806 6.60302 21.2697 6.60302 21.8839H10.003ZM9.68555 22.6504C9.48227 22.8537 9.20657 22.9679 8.91909 22.9679V19.5679C8.30484 19.5679 7.71573 19.8119 7.28138 20.2462L9.68555 22.6504ZM8.91909 22.9679H15.0798V19.5679H8.91909V22.9679ZM15.0797 22.9679C14.7922 22.9679 14.5166 22.8537 14.3133 22.6504L16.7175 20.2462C16.2832 19.8119 15.6941 19.5679 15.0799 19.5679L15.0797 22.9679ZM14.3133 22.6504C14.1101 22.4471 13.9959 22.1715 13.9958 21.884L17.3958 21.8839C17.3958 21.2696 17.1518 20.6806 16.7175 20.2462L14.3133 22.6504ZM17.0762 12.0312C17.0782 12.7993 16.9047 13.5576 16.5689 14.2484L19.6268 15.7348C20.189 14.5782 20.4795 13.3084 20.4762 12.0224L17.0762 12.0312ZM16.5689 14.2484C16.2331 14.9391 15.744 15.544 15.1388 16.0169L17.2322 18.696C18.2455 17.9042 19.0646 16.8914 19.6268 15.7348L16.5689 14.2484ZM15.1515 16.007C14.7949 16.2803 14.5054 16.6314 14.3052 17.0335L17.3486 18.5492C17.3181 18.6106 17.2739 18.6642 17.2195 18.7058L15.1515 16.007ZM14.3052 17.0335C14.1049 17.4357 13.9991 17.8783 13.9959 18.3275L17.3958 18.3518C17.3953 18.4203 17.3792 18.4879 17.3486 18.5492L14.3052 17.0335ZM13.9958 18.3397V18.8036H17.3958V18.3397H13.9958ZM13.9958 18.8016C13.996 18.6781 14.0451 18.5597 14.1325 18.4724L16.5366 20.8765C17.086 20.3272 17.395 19.5824 17.3958 18.8055L13.9958 18.8016ZM14.1325 18.4724C14.2198 18.385 14.3382 18.3359 14.4618 18.3357L14.4657 21.7357C15.2425 21.7348 15.9873 21.4258 16.5366 20.8765L14.1325 18.4724ZM14.4637 18.3357H9.53516V21.7357H14.4637V18.3357ZM9.53711 18.3357C9.66063 18.3359 9.77906 18.385 9.8664 18.4724L7.46224 20.8765C8.01156 21.4258 8.75635 21.7348 9.53322 21.7357L9.53711 18.3357ZM9.8664 18.4724C9.95375 18.5597 10.0029 18.6781 10.003 18.8016L6.60302 18.8055C6.60391 19.5824 6.91291 20.3272 7.46224 20.8765L9.8664 18.4724ZM10.003 18.8036V18.3391H6.60302V18.8036H10.003ZM10.003 18.337C10.0025 17.8891 9.89935 17.4473 9.7016 17.0454L6.65095 18.5466C6.61951 18.4827 6.60311 18.4125 6.60302 18.3413L10.003 18.337ZM9.7016 17.0454C9.50385 16.6436 9.2167 16.2923 8.86217 16.0186L6.78443 18.7099C6.72806 18.6664 6.6824 18.6105 6.65095 18.5466L9.7016 17.0454ZM8.86777 16.023C8.26427 15.553 7.77555 14.952 7.43859 14.2653L4.3863 15.7632C4.95041 16.9127 5.76855 17.9189 6.77883 18.7056L8.86777 16.023ZM7.43859 14.2653C7.10162 13.5787 6.92522 12.8244 6.92275 12.0595L3.52277 12.0705C3.52691 13.3509 3.8222 14.6137 4.3863 15.7632L7.43859 14.2653ZM6.92273 12.0556C6.90761 9.31111 9.1371 7.01598 11.8764 6.95149L11.7964 3.55243C7.20168 3.66061 3.49745 7.47804 3.52278 12.0743L6.92273 12.0556ZM11.8773 6.95147C12.5541 6.93519 13.2273 7.05443 13.8573 7.30218L15.1015 4.13803C14.0496 3.72437 12.9255 3.52527 11.7955 3.55245L11.8773 6.95147ZM13.8573 7.30218C14.4873 7.54992 15.0614 7.92117 15.5458 8.39407L17.9209 5.96117C17.112 5.17156 16.1535 4.55169 15.1015 4.13803L13.8573 7.30218ZM15.5458 8.39407C16.0302 8.86697 16.4151 9.43198 16.678 10.0559L19.8113 8.73587C19.3724 7.69418 18.7297 6.75078 17.9209 5.96117L15.5458 8.39407ZM16.678 10.0559C16.9408 10.6797 17.0762 11.3499 17.0762 12.0268L20.4762 12.0268C20.4762 10.8965 20.2501 9.77755 19.8113 8.73587L16.678 10.0559ZM17.9272 11.0182C17.7184 9.7906 17.1329 8.65832 16.2518 7.77834L13.8492 10.184C14.231 10.5654 14.4848 11.0561 14.5753 11.5882L17.9272 11.0182ZM16.2518 7.77834C15.3708 6.89836 14.2378 6.31427 13.0099 6.10703L12.444 9.45961C12.9762 9.54943 13.4673 9.80259 13.8492 10.184L16.2518 7.77834ZM13.0103 6.1071C12.7103 6.05638 12.4032 6.06528 12.1066 6.13331L12.8666 9.44727C12.7278 9.47911 12.584 9.48328 12.4436 9.45954L13.0103 6.1071ZM12.1066 6.13331C11.81 6.20133 11.5297 6.32713 11.2817 6.50353L13.2526 9.274C13.1366 9.35655 13.0054 9.41543 12.8666 9.44727L12.1066 6.13331ZM11.2817 6.50353C11.0338 6.67992 10.823 6.90345 10.6615 7.16134L13.5429 8.96612C13.4673 9.08682 13.3687 9.19144 13.2526 9.274L11.2817 6.50353ZM10.6615 7.16134C10.5 7.41923 10.3908 7.70642 10.3403 8.0065L13.6932 8.57057C13.6696 8.71101 13.6185 8.84542 13.5429 8.96612L10.6615 7.16134ZM10.3403 8.0065C10.2899 8.30657 10.299 8.61366 10.3673 8.91021L13.6806 8.14761C13.7126 8.2864 13.7169 8.43012 13.6932 8.57057L10.3403 8.0065ZM10.3673 8.91021C10.4355 9.20675 10.5615 9.48694 10.7381 9.73476L13.5071 7.76169C13.5897 7.87768 13.6487 8.00882 13.6806 8.14761L10.3673 8.91021ZM10.7381 9.73476C10.9147 9.98257 11.1384 10.1932 11.3964 10.3545L13.199 7.47164C13.3197 7.54715 13.4244 7.64571 13.5071 7.76169L10.7381 9.73476ZM11.3964 10.3545C11.6544 10.5158 11.9417 10.6247 12.2418 10.675L12.8033 7.32165C12.9437 7.34517 13.0782 7.39613 13.199 7.47164L11.3964 10.3545ZM12.2395 10.6746C12.5194 10.7218 12.7777 10.855 12.9786 11.0556L15.3813 8.64999C14.6813 7.95083 13.7811 7.48673 12.8056 7.32203L12.2395 10.6746ZM12.9786 11.0556C13.1794 11.2562 13.3129 11.5143 13.3605 11.7941L16.7123 11.2241C16.5465 10.2488 16.0813 9.34916 15.3813 8.64999L12.9786 11.0556ZM13.3603 11.7935C13.4518 12.3323 13.7308 12.8215 14.148 13.1745L16.3439 10.5787C16.5391 10.7438 16.6697 10.9727 16.7124 11.2248L13.3603 11.7935ZM14.148 13.1745C14.5653 13.5275 15.094 13.7215 15.6405 13.7223L15.6456 10.3223C15.9013 10.3227 16.1487 10.4135 16.3439 10.5787L14.148 13.1745ZM15.6438 13.7223C15.7732 13.7223 15.9024 13.7114 16.03 13.6898L15.4635 10.3374C15.5226 10.3274 15.5824 10.3224 15.6423 10.3223L15.6438 13.7223ZM16.0308 13.6897C16.3307 13.6389 16.6176 13.5295 16.8752 13.3678L15.0675 10.4882C15.1881 10.4125 15.3224 10.3613 15.4627 10.3375L16.0308 13.6897ZM16.8752 13.3678C17.1328 13.2061 17.3561 12.9952 17.5322 12.7472L14.7601 10.7786C14.8425 10.6625 14.947 10.5638 15.0675 10.4882L16.8752 13.3678ZM17.5322 12.7472C17.7083 12.4992 17.8338 12.2189 17.9016 11.9224L14.5872 11.1646C14.6189 11.0258 14.6776 10.8947 14.7601 10.7786L17.5322 12.7472ZM17.9016 11.9224C17.9694 11.6259 17.9782 11.319 17.9273 11.0191L14.5751 11.5874C14.5513 11.447 14.5554 11.3033 14.5872 11.1646L17.9016 11.9224Z" fill="#FFCA00" mask="url(#path-1-inside-1_5278_66505)"/>
</g>
<path id="Vector_2" d="M12 3.375V1.5" stroke="#FFCA00" stroke-width="1.7" stroke-linecap="round" stroke-linejoin="round"/>
<path id="Vector_3" d="M5.902 5.90127L4.57617 4.57544" stroke="#FFCA00" stroke-width="1.7" stroke-linecap="round" stroke-linejoin="round"/>
<path id="Vector_4" d="M3.375 12H1.5" stroke="#FFCA00" stroke-width="1.7" stroke-linecap="round" stroke-linejoin="round"/>
<path id="Vector_5" d="M20.625 12H22.5" stroke="#FFCA00" stroke-width="1.7" stroke-linecap="round" stroke-linejoin="round"/>
<path id="Vector_6" d="M18.0996 5.90127L19.4254 4.57544" stroke="#FFCA00" stroke-width="1.7" stroke-linecap="round" stroke-linejoin="round"/>
</g>
</svg>
