<svg width="24" height="24" viewBox="0 0 24 24" fill="none" xmlns="http://www.w3.org/2000/svg">
<path d="M5.17117 2.5C3.98333 2.5 2.9882 3.44244 2.9241 4.62891L2.08621 20.1289C2.01778 21.4067 3.05424 22.5 4.33426 22.5H7.16727C8.44703 22.5 9.48277 21.4067 9.41434 20.1289L8.57645 4.62891C8.57645 4.62858 8.57645 4.62826 8.57645 4.62793C8.51164 3.44206 7.51722 2.5 6.32938 2.5H5.17117ZM5.17117 4H6.32938C6.73554 4 7.05621 4.30383 7.0784 4.70996L7.91629 20.209C7.93986 20.6491 7.6075 21 7.16727 21H4.33426C3.89362 21 3.56126 20.6496 3.58426 20.21V20.209L4.42215 4.70996C4.42215 4.70964 4.42215 4.70931 4.42215 4.70898C4.44406 4.30345 4.76501 4 5.17117 4ZM14.343 5.50586C14.1289 5.47912 13.9094 5.54591 13.7444 5.69629L9.8284 9.2666L9.93289 11.2012L13.5003 7.94824V12.25C13.5003 12.543 13.6708 12.8087 13.9368 12.9307C14.2033 13.0537 14.5161 13.0108 14.7386 12.8193L20.5003 7.88086V20.25C20.5003 20.6635 20.1638 21 19.7503 21H19.0003V17.25C19.0003 16.0162 17.984 15 16.7503 15H13.2503C12.0165 15 11.0003 16.0162 11.0003 17.25V21H10.3255C10.1935 21.552 9.92214 22.0679 9.52664 22.4854C9.52164 22.4904 9.51602 22.495 9.51102 22.5H11.7503H18.2503H19.7503C20.9908 22.5 22.0003 21.4905 22.0003 20.25V6.25C22.0003 5.957 21.8298 5.69086 21.5638 5.56836C21.2978 5.44536 20.9845 5.49016 20.762 5.68066L15.0003 10.6191V6.25C15.0003 5.953 14.8245 5.68445 14.553 5.56445C14.4849 5.53445 14.4144 5.51477 14.343 5.50586ZM13.2503 16.5H16.7503C17.1735 16.5 17.5003 16.8268 17.5003 17.25V21H12.5003V17.25C12.5003 16.8268 12.827 16.5 13.2503 16.5Z" fill="#101010"/>
</svg>
