<svg width="66" height="18" viewBox="0 0 66 18" fill="none" xmlns="http://www.w3.org/2000/svg">
<path d="M0.5 4C0.5 1.79086 2.29086 0 4.5 0H61.5C63.7091 0 65.5 1.79086 65.5 4V14C65.5 16.2091 63.7091 18 61.5 18H4.5C2.29086 18 0.5 16.2091 0.5 14V4Z" fill="#28BD41"/>
<path d="M26.0398 9.13636C26.0398 10.0682 25.8693 10.8693 25.5284 11.5398C25.1875 12.2074 24.7202 12.7216 24.1264 13.0824C23.5355 13.4403 22.8636 13.6193 22.1108 13.6193C21.3551 13.6193 20.6804 13.4403 20.0866 13.0824C19.4957 12.7216 19.0298 12.206 18.6889 11.5355C18.348 10.8651 18.1776 10.0653 18.1776 9.13636C18.1776 8.20455 18.348 7.40483 18.6889 6.73722C19.0298 6.06676 19.4957 5.55256 20.0866 5.1946C20.6804 4.83381 21.3551 4.65341 22.1108 4.65341C22.8636 4.65341 23.5355 4.83381 24.1264 5.1946C24.7202 5.55256 25.1875 6.06676 25.5284 6.73722C25.8693 7.40483 26.0398 8.20455 26.0398 9.13636ZM24.7358 9.13636C24.7358 8.42614 24.6207 7.82812 24.3906 7.34233C24.1634 6.85369 23.8509 6.48438 23.4531 6.23438C23.0582 5.98153 22.6108 5.85511 22.1108 5.85511C21.608 5.85511 21.1591 5.98153 20.7642 6.23438C20.3693 6.48438 20.0568 6.85369 19.8267 7.34233C19.5994 7.82812 19.4858 8.42614 19.4858 9.13636C19.4858 9.84659 19.5994 10.446 19.8267 10.9347C20.0568 11.4205 20.3693 11.7898 20.7642 12.0426C21.1591 12.2926 21.608 12.4176 22.1108 12.4176C22.6108 12.4176 23.0582 12.2926 23.4531 12.0426C23.8509 11.7898 24.1634 11.4205 24.3906 10.9347C24.6207 10.446 24.7358 9.84659 24.7358 9.13636ZM27.5792 15.9545V6.95455H28.8235V8.01562H28.93C29.0039 7.87926 29.1104 7.72159 29.2496 7.54261C29.3888 7.36364 29.582 7.20739 29.8292 7.07386C30.0763 6.9375 30.4031 6.86932 30.8093 6.86932C31.3377 6.86932 31.8093 7.00284 32.2241 7.26989C32.6388 7.53693 32.9641 7.92187 33.1999 8.42472C33.4386 8.92756 33.5579 9.53267 33.5579 10.2401C33.5579 10.9474 33.44 11.554 33.2042 12.0597C32.9684 12.5625 32.6445 12.9503 32.2326 13.223C31.8207 13.4929 31.3505 13.6278 30.8221 13.6278C30.4244 13.6278 30.0991 13.5611 29.8462 13.4276C29.5962 13.294 29.4002 13.1378 29.2582 12.9588C29.1161 12.7798 29.0067 12.6207 28.93 12.4815H28.8533V15.9545H27.5792ZM28.8278 10.2273C28.8278 10.6875 28.8945 11.0909 29.0281 11.4375C29.1616 11.7841 29.3548 12.0554 29.6076 12.2514C29.8604 12.4446 30.1701 12.5412 30.5366 12.5412C30.9173 12.5412 31.2354 12.4403 31.4911 12.2386C31.7468 12.0341 31.94 11.7571 32.0707 11.4077C32.2042 11.0582 32.271 10.6648 32.271 10.2273C32.271 9.79545 32.2056 9.40767 32.0749 9.06392C31.9471 8.72017 31.7539 8.44886 31.4954 8.25C31.2397 8.05114 30.9201 7.9517 30.5366 7.9517C30.1673 7.9517 29.8548 8.04687 29.5991 8.23722C29.3462 8.42756 29.1545 8.69318 29.0238 9.03409C28.8931 9.375 28.8278 9.77273 28.8278 10.2273ZM37.8065 13.6321C37.1616 13.6321 36.6062 13.4943 36.1403 13.2188C35.6772 12.9403 35.3192 12.5497 35.0664 12.0469C34.8164 11.5412 34.6914 10.9489 34.6914 10.2699C34.6914 9.59943 34.8164 9.00852 35.0664 8.49716C35.3192 7.9858 35.6715 7.58665 36.1232 7.29972C36.5778 7.01278 37.109 6.86932 37.717 6.86932C38.0863 6.86932 38.4442 6.9304 38.7908 7.05256C39.1374 7.17472 39.4485 7.36648 39.7241 7.62784C39.9996 7.8892 40.217 8.22869 40.3761 8.64631C40.5352 9.06108 40.6147 9.56534 40.6147 10.1591V10.6108H35.4116V9.65625H39.3661C39.3661 9.32102 39.2979 9.02415 39.1616 8.76562C39.0252 8.50426 38.8335 8.2983 38.5863 8.14773C38.342 7.99716 38.055 7.92188 37.7255 7.92188C37.3675 7.92188 37.055 8.00994 36.788 8.18608C36.5238 8.35937 36.3192 8.58665 36.1744 8.8679C36.0323 9.14631 35.9613 9.44886 35.9613 9.77557V10.5213C35.9613 10.9588 36.038 11.331 36.1914 11.6378C36.3477 11.9446 36.565 12.179 36.8434 12.3409C37.1218 12.5 37.4471 12.5795 37.8192 12.5795C38.0607 12.5795 38.2809 12.5455 38.4798 12.4773C38.6786 12.4062 38.8505 12.3011 38.9954 12.1619C39.1403 12.0227 39.2511 11.8509 39.3278 11.6463L40.5337 11.8636C40.4371 12.2187 40.2638 12.5298 40.0138 12.7969C39.7667 13.0611 39.4556 13.267 39.0806 13.4148C38.7085 13.5597 38.2837 13.6321 37.8065 13.6321ZM43.3026 9.61364V13.5H42.0284V6.95455H43.2514V8.01989H43.3324C43.483 7.6733 43.7188 7.39489 44.0398 7.18466C44.3636 6.97443 44.7713 6.86932 45.2628 6.86932C45.7088 6.86932 46.0994 6.96307 46.4347 7.15057C46.7699 7.33523 47.0298 7.6108 47.2145 7.97727C47.3991 8.34375 47.4915 8.79687 47.4915 9.33665V13.5H46.2173V9.49006C46.2173 9.01562 46.0938 8.64489 45.8466 8.37784C45.5994 8.10795 45.2599 7.97301 44.8281 7.97301C44.5327 7.97301 44.2699 8.03693 44.0398 8.16477C43.8125 8.29261 43.6321 8.48011 43.4986 8.72727C43.3679 8.97159 43.3026 9.26705 43.3026 9.61364Z" fill="white"/>
</svg>
