<svg width="66" height="18" viewBox="0 0 66 18" fill="none" xmlns="http://www.w3.org/2000/svg">
<path d="M0.5 4C0.5 1.79086 2.29086 0 4.5 0H61.5C63.7091 0 65.5 1.79086 65.5 4V14C65.5 16.2091 63.7091 18 61.5 18H4.5C2.29086 18 0.5 16.2091 0.5 14V4Z" fill="#FF9500"/>
<path d="M10.4588 13.5V4.77273H13.5696C14.2486 4.77273 14.8111 4.89631 15.2571 5.14347C15.7031 5.39062 16.0369 5.72869 16.2585 6.15767C16.4801 6.58381 16.5909 7.06392 16.5909 7.59801C16.5909 8.13494 16.4787 8.6179 16.2543 9.04688C16.0327 9.47301 15.6974 9.81108 15.2486 10.0611C14.8026 10.3082 14.2415 10.4318 13.5653 10.4318H11.4261V9.31534H13.446C13.875 9.31534 14.223 9.24148 14.4901 9.09375C14.7571 8.94318 14.9531 8.73864 15.0781 8.48011C15.2031 8.22159 15.2656 7.92756 15.2656 7.59801C15.2656 7.26847 15.2031 6.97585 15.0781 6.72017C14.9531 6.46449 14.7557 6.2642 14.4858 6.11932C14.2188 5.97443 13.8665 5.90199 13.429 5.90199H11.7756V13.5H10.4588ZM20.7713 13.6321C20.1264 13.6321 19.571 13.4943 19.1051 13.2188C18.642 12.9403 18.2841 12.5497 18.0312 12.0469C17.7812 11.5412 17.6562 10.9489 17.6562 10.2699C17.6562 9.59943 17.7812 9.00852 18.0312 8.49716C18.2841 7.9858 18.6364 7.58665 19.0881 7.29972C19.5426 7.01278 20.0739 6.86932 20.6818 6.86932C21.0511 6.86932 21.4091 6.9304 21.7557 7.05256C22.1023 7.17472 22.4134 7.36648 22.6889 7.62784C22.9645 7.8892 23.1818 8.22869 23.3409 8.64631C23.5 9.06108 23.5795 9.56534 23.5795 10.1591V10.6108H18.3764V9.65625H22.331C22.331 9.32102 22.2628 9.02415 22.1264 8.76562C21.9901 8.50426 21.7983 8.2983 21.5511 8.14773C21.3068 7.99716 21.0199 7.92188 20.6903 7.92188C20.3324 7.92188 20.0199 8.00994 19.7528 8.18608C19.4886 8.35937 19.2841 8.58665 19.1392 8.8679C18.9972 9.14631 18.9261 9.44886 18.9261 9.77557V10.5213C18.9261 10.9588 19.0028 11.331 19.1562 11.6378C19.3125 11.9446 19.5298 12.179 19.8082 12.3409C20.0866 12.5 20.4119 12.5795 20.7841 12.5795C21.0256 12.5795 21.2457 12.5455 21.4446 12.4773C21.6435 12.4062 21.8153 12.3011 21.9602 12.1619C22.1051 12.0227 22.2159 11.8509 22.2926 11.6463L23.4986 11.8636C23.402 12.2187 23.2287 12.5298 22.9787 12.7969C22.7315 13.0611 22.4205 13.267 22.0455 13.4148C21.6733 13.5597 21.2486 13.6321 20.7713 13.6321ZM26.2674 9.61364V13.5H24.9933V6.95455H26.2163V8.01989H26.2972C26.4478 7.6733 26.6836 7.39489 27.0046 7.18466C27.3285 6.97443 27.7362 6.86932 28.2276 6.86932C28.6737 6.86932 29.0643 6.96307 29.3995 7.15057C29.7347 7.33523 29.9947 7.6108 30.1793 7.97727C30.364 8.34375 30.4563 8.79687 30.4563 9.33665V13.5H29.1822V9.49006C29.1822 9.01562 29.0586 8.64489 28.8114 8.37784C28.5643 8.10795 28.2248 7.97301 27.793 7.97301C27.4975 7.97301 27.2347 8.03693 27.0046 8.16477C26.7773 8.29261 26.5969 8.48011 26.4634 8.72727C26.3327 8.97159 26.2674 9.26705 26.2674 9.61364ZM34.6154 13.6278C34.087 13.6278 33.6154 13.4929 33.2006 13.223C32.7887 12.9503 32.4648 12.5625 32.229 12.0597C31.9961 11.554 31.8796 10.9474 31.8796 10.2401C31.8796 9.53267 31.9975 8.92756 32.2333 8.42472C32.4719 7.92187 32.7987 7.53693 33.2134 7.26989C33.6282 7.00284 34.0984 6.86932 34.6239 6.86932C35.0302 6.86932 35.3569 6.9375 35.604 7.07386C35.854 7.20739 36.0472 7.36364 36.1836 7.54261C36.3228 7.72159 36.4308 7.87926 36.5075 8.01562H36.5842V4.77273H37.8583V13.5H36.614V12.4815H36.5075C36.4308 12.6207 36.32 12.7798 36.1751 12.9588C36.033 13.1378 35.837 13.294 35.587 13.4276C35.337 13.5611 35.0131 13.6278 34.6154 13.6278ZM34.8967 12.5412C35.2631 12.5412 35.5728 12.4446 35.8256 12.2514C36.0813 12.0554 36.2745 11.7841 36.4052 11.4375C36.5387 11.0909 36.6055 10.6875 36.6055 10.2273C36.6055 9.77273 36.5401 9.375 36.4094 9.03409C36.2788 8.69318 36.087 8.42756 35.8342 8.23722C35.5813 8.04687 35.2688 7.9517 34.8967 7.9517C34.5131 7.9517 34.1935 8.05114 33.9379 8.25C33.6822 8.44886 33.489 8.72017 33.3583 9.06392C33.2305 9.40767 33.1665 9.79545 33.1665 10.2273C33.1665 10.6648 33.2319 11.0582 33.3626 11.4077C33.4933 11.7571 33.6864 12.0341 33.9421 12.2386C34.2006 12.4403 34.5188 12.5412 34.8967 12.5412ZM39.6768 13.5V6.95455H40.951V13.5H39.6768ZM40.3203 5.9446C40.0987 5.9446 39.9084 5.87074 39.7493 5.72301C39.593 5.57244 39.5149 5.39347 39.5149 5.18608C39.5149 4.97585 39.593 4.79687 39.7493 4.64915C39.9084 4.49858 40.0987 4.4233 40.3203 4.4233C40.5419 4.4233 40.7308 4.49858 40.8871 4.64915C41.0462 4.79687 41.1257 4.97585 41.1257 5.18608C41.1257 5.39347 41.0462 5.57244 40.8871 5.72301C40.7308 5.87074 40.5419 5.9446 40.3203 5.9446ZM43.9393 9.61364V13.5H42.6651V6.95455H43.8881V8.01989H43.9691C44.1197 7.6733 44.3555 7.39489 44.6765 7.18466C45.0004 6.97443 45.408 6.86932 45.8995 6.86932C46.3455 6.86932 46.7362 6.96307 47.0714 7.15057C47.4066 7.33523 47.6665 7.6108 47.8512 7.97727C48.0359 8.34375 48.1282 8.79687 48.1282 9.33665V13.5H46.854V9.49006C46.854 9.01562 46.7305 8.64489 46.4833 8.37784C46.2362 8.10795 45.8967 7.97301 45.4648 7.97301C45.1694 7.97301 44.9066 8.03693 44.6765 8.16477C44.4492 8.29261 44.2688 8.48011 44.1353 8.72727C44.0046 8.97159 43.9393 9.26705 43.9393 9.61364ZM52.5813 16.0909C52.0614 16.0909 51.614 16.0227 51.239 15.8864C50.8668 15.75 50.5629 15.5696 50.3271 15.3452C50.0913 15.1207 49.9151 14.875 49.7987 14.608L50.8938 14.1562C50.9705 14.2812 51.0728 14.4134 51.2006 14.5526C51.3313 14.6946 51.5075 14.8153 51.729 14.9148C51.9535 15.0142 52.2418 15.0639 52.5941 15.0639C53.0771 15.0639 53.4762 14.946 53.7915 14.7102C54.1069 14.4773 54.2646 14.1051 54.2646 13.5938V12.3068H54.1836C54.1069 12.446 53.9961 12.6009 53.8512 12.7713C53.7092 12.9418 53.5131 13.0895 53.2631 13.2145C53.0131 13.3395 52.6879 13.402 52.2873 13.402C51.7702 13.402 51.3043 13.2812 50.8896 13.0398C50.4776 12.7955 50.1509 12.4361 49.9094 11.9616C49.6708 11.4844 49.5515 10.8977 49.5515 10.2017C49.5515 9.50568 49.6694 8.90909 49.9052 8.41193C50.1438 7.91477 50.4705 7.53409 50.8853 7.26989C51.3001 7.00284 51.7702 6.86932 52.2958 6.86932C52.7021 6.86932 53.0302 6.9375 53.2802 7.07386C53.5302 7.20739 53.7248 7.36364 53.864 7.54261C54.006 7.72159 54.1154 7.87926 54.1921 8.01562H54.2859V6.95455H55.5344V13.6449C55.5344 14.2074 55.4038 14.669 55.1424 15.0298C54.881 15.3906 54.5273 15.6577 54.0813 15.831C53.6381 16.0043 53.1381 16.0909 52.5813 16.0909ZM52.5685 12.3452C52.935 12.3452 53.2447 12.2599 53.4975 12.0895C53.7532 11.9162 53.9464 11.669 54.0771 11.348C54.2106 11.0241 54.2773 10.6364 54.2773 10.1847C54.2773 9.74432 54.212 9.35653 54.0813 9.02131C53.9506 8.68608 53.7589 8.42472 53.506 8.23722C53.2532 8.04687 52.9407 7.9517 52.5685 7.9517C52.185 7.9517 51.8654 8.05114 51.6097 8.25C51.354 8.44602 51.1609 8.71307 51.0302 9.05114C50.9023 9.3892 50.8384 9.76705 50.8384 10.1847C50.8384 10.6136 50.9038 10.9901 51.0344 11.3139C51.1651 11.6378 51.3583 11.8906 51.614 12.0724C51.8725 12.2543 52.1907 12.3452 52.5685 12.3452Z" fill="white"/>
</svg>
