<svg width="32" height="32" viewBox="0 0 32 32" fill="none" xmlns="http://www.w3.org/2000/svg">
<path d="M17.5 25H14.5"  stroke-width="1.7" stroke-linecap="round" stroke-linejoin="round"/>
<path d="M15.5283 5.85275C13.7478 7.27907 7.79242 12.9786 12.9998 22H18.9998C24.099 12.985 18.2307 7.28714 16.4689 5.85578C16.3361 5.74782 16.1703 5.68864 15.9991 5.68808C15.828 5.68753 15.6618 5.74565 15.5283 5.85275V5.85275Z"  stroke-width="1.7" stroke-linecap="round" stroke-linejoin="round"/>
<path d="M10.9249 14.44L7.98585 17.9669C7.91243 18.055 7.8602 18.1587 7.83316 18.2702C7.80612 18.3816 7.80499 18.4978 7.82987 18.6097L8.98889 23.8253C9.01652 23.9497 9.07536 24.0649 9.15985 24.1602C9.24435 24.2555 9.35172 24.3277 9.47184 24.37C9.59197 24.4124 9.72089 24.4234 9.84646 24.4021C9.97203 24.3808 10.0901 24.3279 10.1896 24.2483L12.9999 22"  stroke-width="1.7" stroke-linecap="round" stroke-linejoin="round"/>
<path d="M21.0186 14.3723L24.0141 17.9669C24.0875 18.055 24.1397 18.1588 24.1668 18.2702C24.1938 18.3816 24.1949 18.4978 24.1701 18.6097L23.011 23.8253C22.9834 23.9497 22.9246 24.0649 22.8401 24.1602C22.7556 24.2555 22.6482 24.3277 22.5281 24.37C22.408 24.4124 22.279 24.4234 22.1535 24.4021C22.0279 24.3808 21.9098 24.3279 21.8104 24.2483L19 22"  stroke-width="1.7" stroke-linecap="round" stroke-linejoin="round"/>
<path d="M16 14.125C16.6213 14.125 17.125 13.6213 17.125 13C17.125 12.3787 16.6213 11.875 16 11.875C15.3787 11.875 14.875 12.3787 14.875 13C14.875 13.6213 15.3787 14.125 16 14.125Z" fill="#007BFF"/>
</svg>
