<svg width="32" height="32" viewBox="0 0 32 32" fill="none" xmlns="http://www.w3.org/2000/svg">
<path d="M23.5 7.75H8.5C8.08579 7.75 7.75 8.08579 7.75 8.5V23.5C7.75 23.9142 8.08579 24.25 8.5 24.25H23.5C23.9142 24.25 24.25 23.9142 24.25 23.5V8.5C24.25 8.08579 23.9142 7.75 23.5 7.75Z" stroke="#FF9500" stroke-width="2" stroke-linecap="round" stroke-linejoin="round"/>
<path d="M11 12L18.5 12" stroke="#FF9500" stroke-width="2" stroke-linecap="round" stroke-linejoin="round"/>
<path d="M11 16L15 16" stroke="#FF9500" stroke-width="2" stroke-linecap="round" stroke-linejoin="round"/>
<path d="M7.74951 19H11.1889C11.2873 19 11.3849 19.0194 11.4759 19.0571C11.5669 19.0948 11.6495 19.15 11.7192 19.2197L13.5298 21.0303C13.5995 21.1 13.6822 21.1552 13.7732 21.1929C13.8642 21.2306 13.9617 21.25 14.0602 21.25H17.9389C18.0373 21.25 18.1349 21.2306 18.2259 21.1929C18.3169 21.1552 18.3995 21.1 18.4692 21.0303L20.2798 19.2197C20.3495 19.15 20.4322 19.0948 20.5232 19.0571C20.6142 19.0194 20.7117 19 20.8102 19H24.2495" stroke="#FF9500" stroke-width="2" stroke-linecap="round" stroke-linejoin="round"/>
</svg>
