<svg width="24" height="24" viewBox="0 0 24 24" fill="none" xmlns="http://www.w3.org/2000/svg">
<path d="M19.5 20.25H4.5C4.08579 20.25 3.75 19.9142 3.75 19.5V4.5C3.75 4.08579 4.08579 3.75 4.5 3.75H19.5C19.9142 3.75 20.25 4.08579 20.25 4.5V6" stroke="#101010" stroke-width="1.7" stroke-linecap="round" stroke-linejoin="round"/>
<path d="M7 8L14.5 8" stroke="#101010" stroke-width="1.7" stroke-linecap="round" stroke-linejoin="round"/>
<path d="M7 12L11 12" stroke="#101010" stroke-width="1.7" stroke-linecap="round" stroke-linejoin="round"/>
<path d="M3.74902 15H7.18836C7.28685 15 7.38438 15.0194 7.47538 15.0571C7.56637 15.0948 7.64905 15.15 7.71869 15.2197L9.52935 17.0303C9.599 17.1 9.68168 17.1552 9.77267 17.1929C9.86367 17.2306 9.96119 17.25 10.0597 17.25H11.999H13.9384C14.0369 17.25 14.1344 17.2306 14.2254 17.1929C14.3164 17.1552 14.3991 17.1 14.4687 17.0303L15.4995 16" stroke="#101010" stroke-width="1.7" stroke-linecap="round" stroke-linejoin="round"/>
<path d="M14 12.2408L18.2426 7.99805L22.4852 12.2408" stroke="#101010" stroke-width="1.7" stroke-linecap="round" stroke-linejoin="round"/>
<path d="M18.2422 7.99805V17.1361" stroke="#101010" stroke-width="1.7" stroke-linecap="round" stroke-linejoin="round"/>
</svg>
