<svg width="24" height="24" viewBox="0 0 24 24" fill="none" xmlns="http://www.w3.org/2000/svg">
<path d="M19.5 20.25H4.5C4.08579 20.25 3.75 19.9142 3.75 19.5V4.5C3.75 4.08579 4.08579 3.75 4.5 3.75H19.5C19.9142 3.75 20.25 4.08579 20.25 4.5V6" stroke="#101010" stroke-width="2" stroke-linecap="round" stroke-linejoin="round"/>
<path d="M7 8L14.5 8" stroke="#101010" stroke-width="2" stroke-linecap="round" stroke-linejoin="round"/>
<path d="M7 12L11 12" stroke="#101010" stroke-width="2" stroke-linecap="round" stroke-linejoin="round"/>
<path d="M3.74951 15H7.18885C7.28734 15 7.38487 15.0194 7.47586 15.0571C7.56686 15.0948 7.64954 15.15 7.71918 15.2197L9.52984 17.0303C9.59949 17.1 9.68216 17.1552 9.77316 17.1929C9.86415 17.2306 9.96168 17.25 10.0602 17.25H11.9995H13.9389C14.0373 17.25 14.1349 17.2306 14.2259 17.1929C14.3169 17.1552 14.3995 17.1 14.4692 17.0303L15.5 16" stroke="#101010" stroke-width="2" stroke-linecap="round" stroke-linejoin="round"/>
<path d="M14 12.2408L18.2426 7.99805L22.4852 12.2408" stroke="#101010" stroke-width="2" stroke-linecap="round" stroke-linejoin="round"/>
<path d="M18.2427 7.99805V17.1361" stroke="#101010" stroke-width="2" stroke-linecap="round" stroke-linejoin="round"/>
</svg>
