<svg width="64" height="18" viewBox="0 0 64 18" fill="none" xmlns="http://www.w3.org/2000/svg">
<path d="M0 4C0 1.79086 1.79086 0 4 0H60C62.2091 0 64 1.79086 64 4V14C64 16.2091 62.2091 18 60 18H4C1.79086 18 0 16.2091 0 14V4Z" fill="#FF9500"/>
<path d="M10.6676 13L8.24716 4.27273H9.6321L11.3324 11.0312H11.4134L13.1818 4.27273H14.554L16.3224 11.0355H16.4034L18.0994 4.27273H19.4886L17.0639 13H15.7386L13.902 6.46307H13.8338L11.9972 13H10.6676ZM21.8473 13.1449C21.4325 13.1449 21.0575 13.0682 20.7223 12.9148C20.3871 12.7585 20.1214 12.5327 19.9254 12.2372C19.7322 11.9418 19.6357 11.5795 19.6357 11.1506C19.6357 10.7812 19.7067 10.4773 19.8487 10.2386C19.9908 10 20.1825 9.81108 20.424 9.67188C20.6655 9.53267 20.9354 9.42756 21.2337 9.35653C21.532 9.28551 21.8359 9.23153 22.1456 9.1946C22.5376 9.14915 22.8558 9.11222 23.1001 9.08381C23.3445 9.05256 23.522 9.00284 23.6328 8.93466C23.7436 8.86648 23.799 8.75568 23.799 8.60227V8.57244C23.799 8.20028 23.6939 7.91193 23.4837 7.70739C23.2763 7.50284 22.9666 7.40057 22.5547 7.40057C22.1257 7.40057 21.7876 7.49574 21.5405 7.68608C21.2962 7.87358 21.1271 8.08239 21.0334 8.3125L19.8359 8.03977C19.978 7.64205 20.1854 7.32102 20.4581 7.0767C20.7337 6.82955 21.0504 6.65057 21.4084 6.53977C21.7663 6.42614 22.1428 6.36932 22.5376 6.36932C22.799 6.36932 23.076 6.40057 23.3686 6.46307C23.6641 6.52273 23.9396 6.63352 24.1953 6.79545C24.4538 6.95739 24.6655 7.18892 24.8303 7.49006C24.995 7.78835 25.0774 8.17614 25.0774 8.65341V13H23.8331V12.1051H23.782C23.6996 12.2699 23.576 12.4318 23.4112 12.5909C23.2464 12.75 23.0348 12.8821 22.7763 12.9872C22.5178 13.0923 22.2081 13.1449 21.8473 13.1449ZM22.1243 12.1222C22.4766 12.1222 22.7777 12.0526 23.0277 11.9134C23.2805 11.7741 23.4723 11.5923 23.603 11.3679C23.7365 11.1406 23.8033 10.8977 23.8033 10.6392V9.79545C23.7578 9.84091 23.6697 9.88352 23.5391 9.9233C23.4112 9.96023 23.2649 9.9929 23.1001 10.0213C22.9354 10.0469 22.7749 10.071 22.6186 10.0938C22.4624 10.1136 22.3317 10.1307 22.2266 10.1449C21.9794 10.1761 21.7536 10.2287 21.549 10.3026C21.3473 10.3764 21.1854 10.483 21.0632 10.6222C20.9439 10.7585 20.8842 10.9403 20.8842 11.1676C20.8842 11.483 21.0007 11.7216 21.2337 11.8835C21.4666 12.0426 21.7635 12.1222 22.1243 12.1222ZM26.7745 13V6.45455H28.006V7.49432H28.0742C28.1935 7.14205 28.4038 6.86506 28.7049 6.66335C29.0089 6.45881 29.3526 6.35653 29.7362 6.35653C29.8157 6.35653 29.9094 6.35937 30.0174 6.36506C30.1282 6.37074 30.2148 6.37784 30.2773 6.38636V7.60511C30.2262 7.59091 30.1353 7.57528 30.0046 7.55824C29.8739 7.53835 29.7433 7.52841 29.6126 7.52841C29.3114 7.52841 29.043 7.59233 28.8072 7.72017C28.5742 7.84517 28.3896 8.01989 28.2532 8.24432C28.1168 8.46591 28.0487 8.71875 28.0487 9.00284V13H26.7745ZM32.6541 9.11364V13H31.38V6.45455H32.603V7.51989H32.6839C32.8345 7.1733 33.0703 6.89489 33.3913 6.68466C33.7152 6.47443 34.1229 6.36932 34.6143 6.36932C35.0604 6.36932 35.451 6.46307 35.7862 6.65057C36.1214 6.83523 36.3814 7.1108 36.5661 7.47727C36.7507 7.84375 36.843 8.29687 36.843 8.83665V13H35.5689V8.99006C35.5689 8.51562 35.4453 8.14489 35.1982 7.87784C34.951 7.60795 34.6115 7.47301 34.1797 7.47301C33.8842 7.47301 33.6214 7.53693 33.3913 7.66477C33.1641 7.79261 32.9837 7.98011 32.8501 8.22727C32.7195 8.47159 32.6541 8.76705 32.6541 9.11364ZM38.5518 13V6.45455H39.826V13H38.5518ZM39.1953 5.4446C38.9737 5.4446 38.7834 5.37074 38.6243 5.22301C38.468 5.07244 38.3899 4.89347 38.3899 4.68608C38.3899 4.47585 38.468 4.29687 38.6243 4.14915C38.7834 3.99858 38.9737 3.9233 39.1953 3.9233C39.4169 3.9233 39.6058 3.99858 39.7621 4.14915C39.9212 4.29687 40.0007 4.47585 40.0007 4.68608C40.0007 4.89347 39.9212 5.07244 39.7621 5.22301C39.6058 5.37074 39.4169 5.4446 39.1953 5.4446ZM42.8143 9.11364V13H41.5401V6.45455H42.7631V7.51989H42.8441C42.9947 7.1733 43.2305 6.89489 43.5515 6.68466C43.8754 6.47443 44.283 6.36932 44.7745 6.36932C45.2205 6.36932 45.6112 6.46307 45.9464 6.65057C46.2816 6.83523 46.5415 7.1108 46.7262 7.47727C46.9109 7.84375 47.0032 8.29687 47.0032 8.83665V13H45.729V8.99006C45.729 8.51562 45.6055 8.14489 45.3583 7.87784C45.1112 7.60795 44.7717 7.47301 44.3398 7.47301C44.0444 7.47301 43.7816 7.53693 43.5515 7.66477C43.3242 7.79261 43.1438 7.98011 43.0103 8.22727C42.8796 8.47159 42.8143 8.76705 42.8143 9.11364ZM51.4563 15.5909C50.9364 15.5909 50.489 15.5227 50.114 15.3864C49.7418 15.25 49.4379 15.0696 49.2021 14.8452C48.9663 14.6207 48.7901 14.375 48.6737 14.108L49.7688 13.6562C49.8455 13.7812 49.9478 13.9134 50.0756 14.0526C50.2063 14.1946 50.3825 14.3153 50.604 14.4148C50.8285 14.5142 51.1168 14.5639 51.4691 14.5639C51.9521 14.5639 52.3512 14.446 52.6665 14.2102C52.9819 13.9773 53.1396 13.6051 53.1396 13.0938V11.8068H53.0586C52.9819 11.946 52.8711 12.1009 52.7262 12.2713C52.5842 12.4418 52.3881 12.5895 52.1381 12.7145C51.8881 12.8395 51.5629 12.902 51.1623 12.902C50.6452 12.902 50.1793 12.7812 49.7646 12.5398C49.3526 12.2955 49.0259 11.9361 48.7844 11.4616C48.5458 10.9844 48.4265 10.3977 48.4265 9.7017C48.4265 9.00568 48.5444 8.40909 48.7802 7.91193C49.0188 7.41477 49.3455 7.03409 49.7603 6.76989C50.1751 6.50284 50.6452 6.36932 51.1708 6.36932C51.5771 6.36932 51.9052 6.4375 52.1552 6.57386C52.4052 6.70739 52.5998 6.86364 52.739 7.04261C52.881 7.22159 52.9904 7.37926 53.0671 7.51562H53.1609V6.45455H54.4094V13.1449C54.4094 13.7074 54.2788 14.169 54.0174 14.5298C53.756 14.8906 53.4023 15.1577 52.9563 15.331C52.5131 15.5043 52.0131 15.5909 51.4563 15.5909ZM51.4435 11.8452C51.81 11.8452 52.1197 11.7599 52.3725 11.5895C52.6282 11.4162 52.8214 11.169 52.9521 10.848C53.0856 10.5241 53.1523 10.1364 53.1523 9.68466C53.1523 9.24432 53.087 8.85653 52.9563 8.52131C52.8256 8.18608 52.6339 7.92472 52.381 7.73722C52.1282 7.54687 51.8157 7.4517 51.4435 7.4517C51.06 7.4517 50.7404 7.55114 50.4847 7.75C50.229 7.94602 50.0359 8.21307 49.9052 8.55114C49.7773 8.8892 49.7134 9.26705 49.7134 9.68466C49.7134 10.1136 49.7788 10.4901 49.9094 10.8139C50.0401 11.1378 50.2333 11.3906 50.489 11.5724C50.7475 11.7543 51.0657 11.8452 51.4435 11.8452Z" fill="white"/>
</svg>
