<svg width="40" height="40" viewBox="0 0 40 40" fill="none" xmlns="http://www.w3.org/2000/svg">
<path d="M28.3333 28.3335V28.3501M21.6667 28.3335V28.3501M25 21.6668V18.3335M19.5833 14.5835C20.2006 13.7232 21.0138 13.0223 21.9557 12.5389C22.8977 12.0554 23.9412 11.8032 25 11.8032C26.0588 11.8032 27.1023 12.0554 28.0443 12.5389C28.9862 13.0223 29.7994 13.7232 30.4167 14.5835M14.1667 10.8335C15.4011 9.11296 17.0276 7.71121 18.9115 6.74426C20.7954 5.7773 22.8825 5.27295 25 5.27295C27.1175 5.27295 29.2046 5.7773 31.0885 6.74426C32.9724 7.71121 34.5989 9.11296 35.8333 10.8335M5 25.0001C5 24.1161 5.35119 23.2682 5.97631 22.6431C6.60143 22.018 7.44928 21.6668 8.33333 21.6668H31.6667C32.5507 21.6668 33.3986 22.018 34.0237 22.6431C34.6488 23.2682 35 24.1161 35 25.0001V31.6668C35 32.5508 34.6488 33.3987 34.0237 34.0238C33.3986 34.6489 32.5507 35.0001 31.6667 35.0001H8.33333C7.44928 35.0001 6.60143 34.6489 5.97631 34.0238C5.35119 33.3987 5 32.5508 5 31.6668V25.0001Z" stroke="current" stroke-width="3" stroke-linecap="round" stroke-linejoin="round"/>
</svg>
