<svg width="17" height="16" viewBox="0 0 17 16" fill="none" xmlns="http://www.w3.org/2000/svg">
<path d="M6.1665 6.33317C6.53469 6.33317 6.83317 6.03469 6.83317 5.6665C6.83317 5.29831 6.53469 4.99984 6.1665 4.99984C5.79831 4.99984 5.49984 5.29831 5.49984 5.6665C5.49984 6.03469 5.79831 6.33317 6.1665 6.33317Z" stroke="current" stroke-width="1.5" stroke-linecap="round" stroke-linejoin="round"/>
<path d="M3.1665 4.6665V7.23917C3.1665 7.59717 3.3085 7.9405 3.56184 8.19384L8.9725 13.6045C9.09787 13.7299 9.2467 13.8293 9.4105 13.8972C9.5743 13.9651 9.74987 14 9.92717 14C10.1045 14 10.28 13.9651 10.4438 13.8972C10.6076 13.8293 10.7565 13.7299 10.8818 13.6045L14.1045 10.3818C14.2299 10.2565 14.3293 10.1076 14.3972 9.94384C14.4651 9.78004 14.5 9.60447 14.5 9.42717C14.5 9.24987 14.4651 9.0743 14.3972 8.9105C14.3293 8.7467 14.2299 8.59787 14.1045 8.4725L8.69317 3.06184C8.44013 2.80884 8.097 2.66664 7.73917 2.6665H5.1665C4.63607 2.6665 4.12736 2.87722 3.75229 3.25229C3.37722 3.62736 3.1665 4.13607 3.1665 4.6665Z" stroke="current" stroke-width="1.5" stroke-linecap="round" stroke-linejoin="round"/>
</svg>
