<svg width="16" height="16" viewBox="0 0 16 16" fill="none" xmlns="http://www.w3.org/2000/svg">
<path d="M8.66602 7.99992C9.28485 7.99992 9.87835 7.75409 10.3159 7.3165C10.7535 6.87892 10.9993 6.28542 10.9993 5.66659C10.9993 5.04775 10.7535 4.45425 10.3159 4.01667C9.87835 3.57908 9.28485 3.33325 8.66602 3.33325H4.66602V7.99992M8.66602 7.99992H4.66602M8.66602 7.99992H9.33268C9.95152 7.99992 10.545 8.24575 10.9826 8.68334C11.4202 9.12092 11.666 9.71441 11.666 10.3333C11.666 10.9521 11.4202 11.5456 10.9826 11.9832C10.545 12.4208 9.95152 12.6666 9.33268 12.6666H4.66602V7.99992" stroke-width="1.5" stroke-linecap="round" stroke-linejoin="round"/>
</svg>
