<svg width="144" height="32" viewBox="0 0 144 32" fill="none" xmlns="http://www.w3.org/2000/svg">
<path d="M0 12C0 6.34315 0 3.51472 1.75736 1.75736C3.51472 0 6.34315 0 12 0H132C137.657 0 140.485 0 142.243 1.75736C144 3.51472 144 6.34315 144 12V20C144 25.6569 144 28.4853 142.243 30.2426C140.485 32 137.657 32 132 32H12C6.34314 32 3.51472 32 1.75736 30.2426C0 28.4853 0 25.6569 0 20V12Z" fill="url(#paint0_linear_286_4573)"/>
<path d="M16.0002 11.3333V20.6666M11.3335 15.9999H20.6668" stroke="#FCFCFC" stroke-width="1.5" stroke-linecap="round" stroke-linejoin="round"/>
<path d="M33.288 11.06H34.996L39.91 19.796V11.06H41.114V21H39.322L34.492 12.432V21H33.288V11.06ZM46.4643 21.168C45.7736 21.168 45.1716 21.0093 44.6583 20.692C44.145 20.3747 43.7483 19.9267 43.4683 19.348C43.1976 18.76 43.0623 18.074 43.0623 17.29C43.0623 16.5153 43.1976 15.834 43.4683 15.246C43.7483 14.658 44.1403 14.2053 44.6443 13.888C45.1483 13.5707 45.7363 13.412 46.4083 13.412C47.0523 13.412 47.6216 13.566 48.1163 13.874C48.611 14.1727 48.9936 14.616 49.2643 15.204C49.5443 15.792 49.6843 16.492 49.6843 17.304V17.654H44.2943C44.3316 18.438 44.537 19.0353 44.9103 19.446C45.293 19.8473 45.811 20.048 46.4643 20.048C46.9403 20.048 47.3323 19.9407 47.6403 19.726C47.9576 19.502 48.1816 19.194 48.3123 18.802L49.5723 18.9C49.3763 19.5813 48.9983 20.132 48.4383 20.552C47.8876 20.9627 47.2296 21.168 46.4643 21.168ZM48.3963 16.618C48.3403 15.9273 48.135 15.4093 47.7803 15.064C47.435 14.7093 46.9776 14.532 46.4083 14.532C45.8296 14.532 45.3536 14.7093 44.9803 15.064C44.6163 15.4187 44.3876 15.9367 44.2943 16.618H48.3963ZM50.3002 13.58H51.5882L53.3242 19.768L55.0882 13.58H56.3482L58.1122 19.768L59.8622 13.58H61.1502L58.8542 21H57.3702L55.7182 15.358L54.0662 21H52.5962L50.3002 13.58ZM66.2509 11.06H69.3309C70.8616 11.06 72.0376 11.494 72.8589 12.362C73.6896 13.2207 74.1049 14.448 74.1049 16.044C74.1049 17.6307 73.6989 18.8533 72.8869 19.712C72.0749 20.5707 70.9176 21 69.4149 21H66.2509V11.06ZM69.3309 19.824C71.6736 19.824 72.8449 18.564 72.8449 16.044C72.8449 13.5053 71.6736 12.236 69.3309 12.236H67.4549V19.824H69.3309ZM77.957 21.168C77.1823 21.168 76.571 20.9907 76.123 20.636C75.675 20.2813 75.451 19.7867 75.451 19.152C75.451 18.5173 75.6376 18.018 76.011 17.654C76.3843 17.29 76.977 17.0333 77.789 16.884L80.421 16.394C80.421 15.1527 79.833 14.532 78.657 14.532C77.6676 14.532 77.0563 14.9753 76.823 15.862L75.577 15.764C75.717 15.0453 76.0576 14.476 76.599 14.056C77.1496 13.6267 77.8356 13.412 78.657 13.412C79.5996 13.412 80.323 13.678 80.827 14.21C81.3403 14.742 81.597 15.484 81.597 16.436V19.502C81.597 19.67 81.625 19.7913 81.681 19.866C81.7463 19.9313 81.849 19.964 81.989 19.964H82.283V21C82.171 21.0187 82.0216 21.028 81.835 21.028C81.387 21.028 81.051 20.9347 80.827 20.748C80.6123 20.5613 80.4816 20.2627 80.435 19.852C80.2483 20.2347 79.9216 20.552 79.455 20.804C78.9976 21.0467 78.4983 21.168 77.957 21.168ZM78.069 20.132C78.797 20.132 79.371 19.9267 79.791 19.516C80.211 19.1053 80.421 18.5827 80.421 17.948V17.416L78.013 17.864C77.5276 17.948 77.1823 18.088 76.977 18.284C76.781 18.4707 76.683 18.7227 76.683 19.04C76.683 19.3853 76.8043 19.656 77.047 19.852C77.2896 20.0387 77.6303 20.132 78.069 20.132ZM86.5046 21.168C85.534 21.168 84.7686 20.9393 84.2086 20.482C83.658 20.0247 83.3546 19.418 83.2986 18.662L84.5306 18.578C84.68 19.558 85.338 20.048 86.5046 20.048C87.0273 20.048 87.4333 19.964 87.7226 19.796C88.0213 19.628 88.1706 19.3667 88.1706 19.012C88.1706 18.8067 88.1193 18.6433 88.0166 18.522C87.9233 18.3913 87.7413 18.2793 87.4706 18.186C87.2093 18.0833 86.8126 17.9853 86.2806 17.892C85.2446 17.7053 84.5166 17.444 84.0966 17.108C83.686 16.7627 83.4806 16.2867 83.4806 15.68C83.4806 15.008 83.728 14.462 84.2226 14.042C84.7173 13.622 85.4033 13.412 86.2806 13.412C87.1393 13.412 87.8206 13.636 88.3246 14.084C88.8286 14.532 89.1413 15.1013 89.2626 15.792L88.0306 15.876C87.9466 15.4653 87.7506 15.1387 87.4426 14.896C87.144 14.6533 86.752 14.532 86.2666 14.532C85.7533 14.532 85.366 14.6347 85.1046 14.84C84.8433 15.036 84.7126 15.2973 84.7126 15.624C84.7126 15.9787 84.8433 16.2447 85.1046 16.422C85.366 16.5993 85.8326 16.744 86.5046 16.856C87.2606 16.9867 87.844 17.1453 88.2546 17.332C88.6746 17.5093 88.9686 17.7333 89.1366 18.004C89.314 18.2653 89.4026 18.6013 89.4026 19.012C89.4026 19.684 89.1273 20.2113 88.5766 20.594C88.0353 20.9767 87.3446 21.168 86.5046 21.168ZM90.911 11.06H92.087V14.742C92.2737 14.3033 92.5583 13.972 92.941 13.748C93.333 13.524 93.795 13.412 94.327 13.412C95.111 13.412 95.7177 13.6687 96.147 14.182C96.5857 14.6953 96.805 15.3767 96.805 16.226V21H95.629V16.562C95.629 15.1527 95.111 14.448 94.075 14.448C93.459 14.448 92.9737 14.6347 92.619 15.008C92.2643 15.3813 92.087 15.904 92.087 16.576V21H90.911V11.06ZM102.448 21.168C101.934 21.168 101.477 21.056 101.076 20.832C100.674 20.608 100.366 20.2907 100.152 19.88L100.11 21H99.0458V11.06H100.222V14.616C100.418 14.28 100.716 13.9953 101.118 13.762C101.519 13.5287 101.962 13.412 102.448 13.412C103.092 13.412 103.652 13.5707 104.128 13.888C104.613 14.2053 104.986 14.658 105.248 15.246C105.509 15.8247 105.64 16.506 105.64 17.29C105.64 18.074 105.509 18.76 105.248 19.348C104.986 19.9267 104.613 20.3747 104.128 20.692C103.652 21.0093 103.092 21.168 102.448 21.168ZM102.378 20.048C103.003 20.048 103.498 19.8007 103.862 19.306C104.226 18.8113 104.408 18.1393 104.408 17.29C104.408 16.4313 104.226 15.7593 103.862 15.274C103.507 14.7793 103.022 14.532 102.406 14.532C101.724 14.532 101.188 14.7793 100.796 15.274C100.413 15.7593 100.222 16.4313 100.222 17.29C100.222 18.1393 100.413 18.8113 100.796 19.306C101.178 19.8007 101.706 20.048 102.378 20.048ZM110.285 21.168C109.603 21.168 109.006 21.0093 108.493 20.692C107.979 20.3747 107.583 19.9267 107.303 19.348C107.023 18.76 106.883 18.074 106.883 17.29C106.883 16.506 107.023 15.8247 107.303 15.246C107.583 14.658 107.979 14.2053 108.493 13.888C109.006 13.5707 109.603 13.412 110.285 13.412C110.957 13.412 111.549 13.5707 112.063 13.888C112.576 14.2053 112.973 14.658 113.253 15.246C113.533 15.8247 113.673 16.506 113.673 17.29C113.673 18.074 113.533 18.76 113.253 19.348C112.973 19.9267 112.576 20.3747 112.063 20.692C111.549 21.0093 110.957 21.168 110.285 21.168ZM110.285 20.048C110.966 20.048 111.493 19.8053 111.867 19.32C112.249 18.8253 112.441 18.1487 112.441 17.29C112.441 16.4313 112.249 15.7593 111.867 15.274C111.493 14.7793 110.966 14.532 110.285 14.532C109.603 14.532 109.071 14.7747 108.689 15.26C108.306 15.7453 108.115 16.422 108.115 17.29C108.115 18.158 108.306 18.8347 108.689 19.32C109.071 19.8053 109.603 20.048 110.285 20.048ZM117.496 21.168C116.721 21.168 116.11 20.9907 115.662 20.636C115.214 20.2813 114.99 19.7867 114.99 19.152C114.99 18.5173 115.177 18.018 115.55 17.654C115.923 17.29 116.516 17.0333 117.328 16.884L119.96 16.394C119.96 15.1527 119.372 14.532 118.196 14.532C117.207 14.532 116.595 14.9753 116.362 15.862L115.116 15.764C115.256 15.0453 115.597 14.476 116.138 14.056C116.689 13.6267 117.375 13.412 118.196 13.412C119.139 13.412 119.862 13.678 120.366 14.21C120.879 14.742 121.136 15.484 121.136 16.436V19.502C121.136 19.67 121.164 19.7913 121.22 19.866C121.285 19.9313 121.388 19.964 121.528 19.964H121.822V21C121.71 21.0187 121.561 21.028 121.374 21.028C120.926 21.028 120.59 20.9347 120.366 20.748C120.151 20.5613 120.021 20.2627 119.974 19.852C119.787 20.2347 119.461 20.552 118.994 20.804C118.537 21.0467 118.037 21.168 117.496 21.168ZM117.608 20.132C118.336 20.132 118.91 19.9267 119.33 19.516C119.75 19.1053 119.96 18.5827 119.96 17.948V17.416L117.552 17.864C117.067 17.948 116.721 18.088 116.516 18.284C116.32 18.4707 116.222 18.7227 116.222 19.04C116.222 19.3853 116.343 19.656 116.586 19.852C116.829 20.0387 117.169 20.132 117.608 20.132ZM123.368 13.58H124.404L124.446 14.952C124.707 14.0373 125.295 13.58 126.21 13.58H126.938V14.7H126.224C125.104 14.7 124.544 15.3067 124.544 16.52V21H123.368V13.58ZM130.964 21.168C130.329 21.168 129.774 21.0093 129.298 20.692C128.822 20.3747 128.458 19.9267 128.206 19.348C127.954 18.76 127.828 18.074 127.828 17.29C127.828 16.506 127.954 15.8247 128.206 15.246C128.458 14.658 128.822 14.2053 129.298 13.888C129.774 13.5707 130.329 13.412 130.964 13.412C131.468 13.412 131.921 13.5193 132.322 13.734C132.733 13.9487 133.041 14.2427 133.246 14.616V11.06H134.422V21H133.358L133.316 19.88C133.111 20.2813 132.798 20.5987 132.378 20.832C131.958 21.056 131.487 21.168 130.964 21.168ZM131.202 20.048C131.855 20.048 132.359 19.8053 132.714 19.32C133.069 18.8253 133.246 18.1487 133.246 17.29C133.246 16.422 133.069 15.7453 132.714 15.26C132.359 14.7747 131.855 14.532 131.202 14.532C130.549 14.532 130.026 14.7793 129.634 15.274C129.251 15.7593 129.06 16.4313 129.06 17.29C129.06 18.1393 129.251 18.8113 129.634 19.306C130.026 19.8007 130.549 20.048 131.202 20.048Z" fill="#FCFCFC"/>
<defs>
<linearGradient id="paint0_linear_286_4573" x1="2.68893" y1="2.50415" x2="76.0602" y2="88.2455" gradientUnits="userSpaceOnUse">
<stop stop-color="#0851DF"/>
<stop offset="1" stop-color="#008FFE"/>
</linearGradient>
</defs>
</svg>
