<svg width="14" height="14" viewBox="0 0 14 14" fill="none" xmlns="http://www.w3.org/2000/svg">
<path d="M1.6665 3.66667H12.3332M5.6665 6.33333V10.3333M8.33317 6.33333V10.3333M2.33317 3.66667L2.99984 11.6667C2.99984 12.0203 3.14031 12.3594 3.39036 12.6095C3.64041 12.8595 3.97955 13 4.33317 13H9.6665C10.0201 13 10.3593 12.8595 10.6093 12.6095C10.8594 12.3594 10.9998 12.0203 10.9998 11.6667L11.6665 3.66667M4.99984 3.66667V1.66667C4.99984 1.48986 5.07008 1.32029 5.1951 1.19526C5.32012 1.07024 5.48969 1 5.6665 1H8.33317C8.50998 1 8.67955 1.07024 8.80457 1.19526C8.9296 1.32029 8.99984 1.48986 8.99984 1.66667V3.66667" stroke="#CE2C31" stroke-width="1.5" stroke-linecap="round" stroke-linejoin="round"/>
</svg>
