<svg width="14" height="14" viewBox="0 0 14 14" fill="none" xmlns="http://www.w3.org/2000/svg">
<path d="M3.6665 3.66662H2.99984C2.64622 3.66662 2.30708 3.80709 2.05703 4.05714C1.80698 4.30719 1.6665 4.64633 1.6665 4.99995V10.9999C1.6665 11.3536 1.80698 11.6927 2.05703 11.9428C2.30708 12.1928 2.64622 12.3333 2.99984 12.3333H8.99984C9.35346 12.3333 9.6926 12.1928 9.94265 11.9428C10.1927 11.6927 10.3332 11.3536 10.3332 10.9999V10.3333M9.6665 2.33328L11.6665 4.33328M12.5898 3.38995C12.8524 3.12739 12.9999 2.77127 12.9999 2.39995C12.9999 2.02863 12.8524 1.67251 12.5898 1.40995C12.3273 1.14738 11.9712 0.999878 11.5998 0.999878C11.2285 0.999878 10.8724 1.14738 10.6098 1.40995L4.99984 6.99995V8.99995H6.99984L12.5898 3.38995Z" stroke="#202020" stroke-width="1.5" stroke-linecap="round" stroke-linejoin="round"/>
</svg>
