<svg width="16" height="16" viewBox="0 0 16 16" fill="none" xmlns="http://www.w3.org/2000/svg">
<path d="M4.66699 4.66668H4.00033C3.6467 4.66668 3.30756 4.80715 3.05752 5.0572C2.80747 5.30725 2.66699 5.64639 2.66699 6.00001V12C2.66699 12.3536 2.80747 12.6928 3.05752 12.9428C3.30756 13.1929 3.6467 13.3333 4.00033 13.3333H10.0003C10.3539 13.3333 10.6931 13.1929 10.9431 12.9428C11.1932 12.6928 11.3337 12.3536 11.3337 12V11.3333M10.667 3.33334L12.667 5.33334M13.5903 4.39001C13.8529 4.12745 14.0004 3.77133 14.0004 3.40001C14.0004 3.02869 13.8529 2.67257 13.5903 2.41001C13.3278 2.14745 12.9716 1.99994 12.6003 1.99994C12.229 1.99994 11.8729 2.14745 11.6103 2.41001L6.00033 8.00001V10H8.00033L13.5903 4.39001Z" stroke="#0090FF" stroke-width="1.5" stroke-linecap="round" stroke-linejoin="round"/>
</svg>
