<svg width="12" height="14" viewBox="0 0 12 14" fill="none" xmlns="http://www.w3.org/2000/svg">
<path d="M3.33325 6.33333V3.66667C3.33325 2.95942 3.6142 2.28115 4.1143 1.78105C4.6144 1.28095 5.29267 1 5.99992 1C6.70716 1 7.38544 1.28095 7.88554 1.78105C8.38563 2.28115 8.66659 2.95942 8.66659 3.66667V6.33333M1.33325 7.66667C1.33325 7.31304 1.47373 6.97391 1.72378 6.72386C1.97382 6.47381 2.31296 6.33333 2.66659 6.33333H9.33325C9.68687 6.33333 10.026 6.47381 10.2761 6.72386C10.5261 6.97391 10.6666 7.31304 10.6666 7.66667V11.6667C10.6666 12.0203 10.5261 12.3594 10.2761 12.6095C10.026 12.8595 9.68687 13 9.33325 13H2.66659C2.31296 13 1.97382 12.8595 1.72378 12.6095C1.47373 12.3594 1.33325 12.0203 1.33325 11.6667V7.66667ZM5.33325 9.66667C5.33325 9.84348 5.40349 10.013 5.52851 10.1381C5.65354 10.2631 5.82311 10.3333 5.99992 10.3333C6.17673 10.3333 6.3463 10.2631 6.47132 10.1381C6.59635 10.013 6.66659 9.84348 6.66659 9.66667C6.66659 9.48986 6.59635 9.32029 6.47132 9.19526C6.3463 9.07024 6.17673 9 5.99992 9C5.82311 9 5.65354 9.07024 5.52851 9.19526C5.40349 9.32029 5.33325 9.48986 5.33325 9.66667Z" stroke="#646464" stroke-width="1.3" stroke-linecap="round" stroke-linejoin="round"/>
</svg>
