<svg width="32" height="32" viewBox="0 0 32 32" fill="none" xmlns="http://www.w3.org/2000/svg">
<path d="M13.4952 12.8933L9.24184 13.5099L9.16651 13.5253C9.05247 13.5556 8.94851 13.6156 8.86524 13.6991C8.78197 13.7827 8.72238 13.8869 8.69255 14.0011C8.66272 14.1153 8.66373 14.2353 8.69546 14.3489C8.7272 14.4626 8.78852 14.5658 8.87318 14.6479L11.9545 17.6473L11.2278 21.8839L11.2192 21.9573C11.2122 22.0752 11.2367 22.1929 11.2901 22.2983C11.3436 22.4037 11.4241 22.4929 11.5234 22.557C11.6227 22.621 11.7372 22.6575 11.8553 22.6627C11.9733 22.6679 12.0906 22.6416 12.1952 22.5866L15.9992 20.5866L19.7945 22.5866L19.8612 22.6173C19.9712 22.6606 20.0908 22.6739 20.2077 22.6558C20.3246 22.6377 20.4345 22.5888 20.5262 22.5141C20.618 22.4395 20.6882 22.3418 20.7297 22.231C20.7713 22.1203 20.7826 22.0005 20.7625 21.8839L20.0352 17.6473L23.1178 14.6473L23.1698 14.5906C23.2441 14.4991 23.2928 14.3896 23.311 14.2731C23.3292 14.1567 23.3161 14.0375 23.2732 13.9278C23.2303 13.818 23.1591 13.7216 23.0668 13.6483C22.9745 13.575 22.8645 13.5275 22.7478 13.5106L18.4945 12.8933L16.5932 9.03995C16.5382 8.9283 16.453 8.83429 16.3473 8.76855C16.2416 8.70281 16.1196 8.66797 15.9952 8.66797C15.8707 8.66797 15.7487 8.70281 15.6431 8.76855C15.5374 8.83429 15.4522 8.9283 15.3972 9.03995L13.4952 12.8933Z" fill="#8D8D8D"/>
</svg>
