<svg width="80" height="80" viewBox="0 0 80 80" fill="none" xmlns="http://www.w3.org/2000/svg">
<path d="M19.167 13.334C12.2921 13.334 6.66699 18.9591 6.66699 25.834V65.834C6.66706 66.497 6.93047 67.1328 7.3993 67.6017C7.86813 68.0705 8.50397 68.3339 9.16699 68.334H18.7666C19.035 68.3781 19.3088 68.3781 19.5771 68.334H21.667V66.0098C21.6691 65.9512 21.6691 65.8926 21.667 65.834V63.334V59.584C21.667 58.8666 22.1997 58.334 22.917 58.334H26.667V68.334H31.667V58.334H36.667V68.334H41.667V58.334H46.667V68.334H51.667V58.334H55.417C56.1343 58.334 56.667 58.8666 56.667 59.584V65.834V68.334H58.7666C59.035 68.3781 59.3088 68.3781 59.5772 68.334H69.167C69.83 68.3339 70.4659 68.0705 70.9347 67.6017C71.4035 67.1328 71.6669 66.497 71.667 65.834V25.834C71.667 18.9591 66.0419 13.334 59.167 13.334H19.167ZM19.167 18.334H59.167C63.3421 18.334 66.667 21.6589 66.667 25.834V63.334H61.667V59.584C61.667 56.1613 58.8397 53.334 55.417 53.334H22.917C19.4943 53.334 16.667 56.1613 16.667 59.584V63.334H11.667V25.834C11.667 21.6589 14.9919 18.334 19.167 18.334ZM19.167 23.334C18.504 23.334 17.8681 23.5975 17.3993 24.0663C16.9305 24.5351 16.6671 25.171 16.667 25.834V35.834C16.6671 36.497 16.9305 37.1328 17.3993 37.6017C17.8681 38.0705 18.504 38.3339 19.167 38.334H39.167C39.83 38.3339 40.4659 38.0705 40.9347 37.6017C41.4035 37.1328 41.6669 36.497 41.667 35.834V25.834C41.6669 25.171 41.4035 24.5351 40.9347 24.0663C40.4659 23.5975 39.83 23.334 39.167 23.334H19.167ZM21.667 28.334H36.667V33.334H21.667V28.334ZM54.167 28.334C50.0545 28.334 46.667 31.7215 46.667 35.834C46.667 39.9465 50.0545 43.334 54.167 43.334C58.2795 43.334 61.667 39.9465 61.667 35.834C61.667 31.7215 58.2795 28.334 54.167 28.334ZM54.167 33.334C55.5773 33.334 56.667 34.4237 56.667 35.834C56.667 37.2443 55.5773 38.334 54.167 38.334C52.7567 38.334 51.667 37.2443 51.667 35.834C51.667 34.4237 52.7567 33.334 54.167 33.334ZM39.167 43.334C38.504 43.334 37.8681 43.5974 37.3992 44.0662C36.9304 44.5351 36.667 45.1709 36.667 45.834C36.667 46.497 36.9304 47.1329 37.3992 47.6017C37.8681 48.0706 38.504 48.334 39.167 48.334C39.83 48.334 40.4659 48.0706 40.9348 47.6017C41.4036 47.1329 41.667 46.497 41.667 45.834C41.667 45.1709 41.4036 44.5351 40.9348 44.0662C40.4659 43.5974 39.83 43.334 39.167 43.334Z" fill="#202020"/>
</svg>
