<svg width="80" height="80" viewBox="0 0 80 80" fill="none" xmlns="http://www.w3.org/2000/svg">
<path d="M35.8284 10.0022C35.4971 9.99752 35.1682 10.0587 34.8608 10.1823C34.5534 10.3058 34.2736 10.4892 34.0376 10.7218C33.8017 10.9544 33.6144 11.2316 33.4865 11.5372C33.3586 11.8429 33.2928 12.1709 33.2928 12.5022C33.2928 12.8335 33.3586 13.1615 33.4865 13.4672C33.6144 13.7728 33.8017 14.05 34.0376 14.2826C34.2736 14.5152 34.5534 14.6986 34.8608 14.8221C35.1682 14.9457 35.4971 15.0069 35.8284 15.0022H54.1617C54.493 15.0069 54.8219 14.9457 55.1293 14.8221C55.4368 14.6986 55.7166 14.5152 55.9525 14.2826C56.1884 14.05 56.3757 13.7728 56.5036 13.4672C56.6315 13.1615 56.6973 12.8335 56.6973 12.5022C56.6973 12.1709 56.6315 11.8429 56.5036 11.5372C56.3757 11.2316 56.1884 10.9544 55.9525 10.7218C55.7166 10.4892 55.4368 10.3058 55.1293 10.1823C54.8219 10.0587 54.493 9.99752 54.1617 10.0022H35.8284ZM33.3023 18.3355C29.9886 18.3355 26.8089 19.652 24.4645 21.9944C24.4645 21.9933 24.4645 21.9955 24.4645 21.9944L18.1266 28.3355H14.1617C13.4987 28.3356 12.8629 28.599 12.394 29.0678C11.9252 29.5367 11.6618 30.1725 11.6617 30.8355V55.8355C11.6618 56.4985 11.9252 57.1344 12.394 57.6032C12.8629 58.072 13.4987 58.3355 14.1617 58.3355H17.9898L23.5758 65.038C25.3167 67.1271 27.8985 68.3355 30.6168 68.3355H50.0211C53.3348 68.3355 56.5146 67.019 58.859 64.6767C58.859 64.6777 58.859 64.6756 58.859 64.6767L65.6461 57.8896C67.3644 56.1713 68.3316 53.8386 68.3316 51.4084V27.5022C68.3294 22.4699 64.1947 18.3355 59.1617 18.3355H33.3023ZM33.3023 23.3355H59.1617C61.4921 23.3355 63.3306 25.1712 63.3316 27.5022V51.4084C63.3316 52.5116 62.8894 53.5727 62.1077 54.3544L55.3238 61.1383C53.9149 62.5459 52.0107 63.3355 50.0211 63.3355H30.6168C29.3784 63.3355 28.2094 62.7891 27.4169 61.8381L21.0823 54.234C20.8476 53.9526 20.5538 53.7263 20.222 53.5711C19.8901 53.4158 19.5281 53.3354 19.1617 53.3355H16.6617V33.3355H19.1617C19.8247 33.3354 20.4605 33.0719 20.9293 32.6031L27.9996 25.5328C29.4085 24.1251 31.3127 23.3355 33.3023 23.3355ZM42.4169 30.0022C42.3719 30.0022 42.3268 30.0054 42.2835 30.0087C41.9718 30.0337 41.6852 30.1398 41.4469 30.3114C41.3369 30.3898 41.2357 30.4831 41.1474 30.5881C41.1174 30.6248 41.0878 30.6621 41.0595 30.7021L31.984 43.1304C31.649 43.5888 31.5707 44.1841 31.7757 44.7125C31.9807 45.2408 32.4397 45.631 32.9964 45.7444L39.2333 47.0269L39.2171 54.9989C39.2154 55.7206 39.6795 56.3609 40.3661 56.5842C40.5361 56.6409 40.7104 56.6689 40.8837 56.6689C41.4054 56.6689 41.9114 56.4219 42.2314 55.9853L51.3167 43.5406C51.6483 43.0823 51.7267 42.4869 51.5217 41.9586C51.3167 41.4302 50.8577 41.04 50.301 40.9267L44.0673 39.6441L44.0803 31.7893C44.0837 31.7493 44.0869 31.7105 44.0869 31.6689C44.0869 30.7539 43.3546 30.0122 42.443 30.0022H42.4169ZM74.1227 31.6331C73.4602 31.6434 72.8289 31.9163 72.3675 32.3917C71.9061 32.8672 71.6522 33.5064 71.6617 34.1689V50.8355C71.657 51.1668 71.7182 51.4957 71.8418 51.8031C71.9653 52.1106 72.1487 52.3904 72.3813 52.6263C72.6139 52.8622 72.8911 53.0495 73.1968 53.1774C73.5024 53.3053 73.8304 53.3711 74.1617 53.3711C74.493 53.3711 74.8211 53.3053 75.1267 53.1774C75.4323 53.0495 75.7095 52.8622 75.9421 52.6263C76.1747 52.3904 76.3581 52.1106 76.4817 51.8031C76.6052 51.4957 76.6664 51.1668 76.6617 50.8355V34.1689C76.6665 33.8343 76.6041 33.5021 76.4782 33.192C76.3522 32.882 76.1653 32.6004 75.9285 32.3639C75.6918 32.1274 75.4099 31.9409 75.0997 31.8154C74.7895 31.6898 74.4573 31.6278 74.1227 31.6331ZM5.78932 33.2997C5.12685 33.3101 4.49557 33.5829 4.03414 34.0584C3.57272 34.5339 3.31888 35.173 3.32838 35.8355V50.8355C3.3237 51.1668 3.3849 51.4957 3.50843 51.8031C3.63197 52.1106 3.81537 52.3904 4.04798 52.6263C4.28059 52.8622 4.55778 53.0495 4.86342 53.1774C5.16906 53.3053 5.49707 53.3711 5.82838 53.3711C6.1597 53.3711 6.4877 53.3053 6.79335 53.1774C7.09899 53.0495 7.37617 52.8622 7.60878 52.6263C7.84139 52.3904 8.0248 52.1106 8.14833 51.8031C8.27187 51.4957 8.33307 51.1668 8.32838 50.8355V35.8355C8.33318 35.5009 8.27076 35.1687 8.14482 34.8587C8.01888 34.5487 7.83198 34.2671 7.5952 34.0306C7.35842 33.7941 7.07658 33.6076 6.76637 33.482C6.45617 33.3565 6.12392 33.2945 5.78932 33.2997Z" fill="#202020"/>
</svg>
