<svg width="24" height="24" viewBox="0 0 24 24" fill="none" xmlns="http://www.w3.org/2000/svg">
<path d="M15.1138 1.77637H4.10663C3.80018 1.77637 3.55176 2.01296 3.55176 2.47206V21.643C3.55176 21.7676 3.80018 22.0042 4.10663 22.0042H19.3055C19.612 22.0042 19.8604 21.7676 19.8604 21.643V6.46416C19.8604 6.21276 19.8251 6.13185 19.7629 6.07225L15.3497 1.8692C15.2871 1.80996 15.2022 1.77637 15.1138 1.77637Z" fill="#E9E9E0"/>
<path d="M15.3091 1.83105V6.11104H19.8031L15.3091 1.83105Z" fill="#D9D7CA"/>
<path d="M8.26658 8.63961C9.22362 8.63961 9.99946 7.90072 9.99946 6.98924C9.99946 6.07776 9.22362 5.33887 8.26658 5.33887C7.30953 5.33887 6.53369 6.07776 6.53369 6.98924C6.53369 7.90072 7.30953 8.63961 8.26658 8.63961Z" fill="#F3D55B"/>
<path d="M3.55176 15.8638H7.72373H19.8604V11.8905L16.0677 8.45898L12.0853 12.6129L10.0058 10.6324L3.55176 15.8638Z" fill="#26B99A"/>
<path d="M19.3055 22.0039H4.10663C3.80018 22.0039 3.55176 21.7673 3.55176 21.4754V15.8633H19.8604V21.4754C19.8604 21.7673 19.612 22.0039 19.3055 22.0039Z" fill="#14A085"/>
</svg>
