<svg width="24" height="24" viewBox="0 0 24 24" fill="none" xmlns="http://www.w3.org/2000/svg">
<path d="M5.68805 1.79988C4.53678 1.79988 3.59961 2.75072 3.59961 3.91791V20.1838C3.59961 21.351 4.53678 22.3018 5.68805 22.3018H17.956C19.1073 22.3018 20.0445 21.351 20.0445 20.1838V6.8087C20.0445 6.8087 20.0773 6.41706 19.9096 6.03594C19.7524 5.6787 19.4962 5.43006 19.4962 5.43006C19.4956 5.42918 19.495 5.4283 19.4943 5.42743L16.4506 2.40056C16.4489 2.39884 16.4472 2.39713 16.4455 2.39544C16.4455 2.39544 16.1857 2.14456 15.8004 1.97696C15.3469 1.77963 14.8793 1.80046 14.8793 1.80046L14.8863 1.7998L5.68805 1.79988Z" fill="#FF2116"/>
<path d="M5.68835 2.49609H14.8866C14.8889 2.49612 14.8913 2.49612 14.8936 2.49609C14.8936 2.49609 15.2614 2.49971 15.5304 2.61676C15.7894 2.72941 15.973 2.89995 15.9742 2.90109C15.9742 2.90109 15.9755 2.9024 15.9755 2.9024L19.0116 5.92221C19.0116 5.92221 19.1945 6.118 19.2832 6.3195C19.3547 6.48214 19.3591 6.77969 19.3591 6.77969C19.3588 6.78461 19.3586 6.78952 19.3585 6.79445V20.1843C19.3585 20.9782 18.7393 21.6066 17.9563 21.6066H5.68835C4.90529 21.6066 4.28613 20.9782 4.28613 20.1843V3.91841C4.28613 3.12446 4.90529 2.49612 5.68835 2.49612V2.49609Z" fill="#F5F5F5"/>
<path d="M7.70579 14.0064C7.23364 13.5277 7.74447 12.8699 9.13079 12.1714L10.0031 11.7319L10.3429 10.9781C10.5298 10.5635 10.8088 9.88698 10.9628 9.47475L11.2429 8.72523L11.0499 8.17055C10.8126 7.48852 10.7279 6.4636 10.8785 6.09506C11.0825 5.59586 11.7505 5.64708 12.015 6.18219C12.2215 6.60011 12.2004 7.35695 11.9556 8.31145L11.7548 9.09396L11.9316 9.39827C12.0289 9.56564 12.3129 9.96306 12.5629 10.2814L13.0326 10.8738L13.6171 10.7965C15.474 10.5508 16.11 10.9683 16.11 11.567C16.11 12.3226 14.652 12.3849 13.4276 11.513C13.1521 11.3169 12.9629 11.122 12.9629 11.122C12.9629 11.122 12.1958 11.2803 11.8182 11.3835C11.4283 11.49 11.2339 11.5567 10.6628 11.7522C10.6628 11.7522 10.4625 12.0471 10.3319 12.2616C9.8462 13.0594 9.27906 13.7207 8.87404 13.9613C8.42055 14.2307 7.94515 14.2491 7.70579 14.0064ZM8.44675 13.7381C8.71215 13.5718 9.24933 12.9276 9.62118 12.3298L9.77173 12.0877L9.08622 12.4372C8.02746 12.9769 7.54309 13.4856 7.79496 13.7932C7.93645 13.9661 8.10571 13.9518 8.44675 13.7381ZM15.324 11.7809C15.5836 11.5965 15.5459 11.2251 15.2525 11.0753C15.0241 10.9587 14.84 10.9348 14.2467 10.9437C13.882 10.9689 13.2958 11.0434 13.1964 11.066C13.1964 11.066 13.5185 11.2917 13.6615 11.3747C13.8518 11.4849 14.3144 11.6895 14.6522 11.7943C14.9853 11.8977 15.178 11.8868 15.324 11.7809V11.7809ZM12.5588 10.6156C12.4017 10.4482 12.1345 10.0987 11.9651 9.83905C11.7436 9.54447 11.6325 9.33664 11.6325 9.33664C11.6325 9.33664 11.4706 9.86471 11.3377 10.1825L10.9232 11.2212L10.8031 11.4568C10.8031 11.4568 11.4419 11.2444 11.767 11.1583C12.1112 11.0671 12.8099 10.9278 12.8099 10.9278L12.5588 10.6156ZM11.6676 6.9924C11.7077 6.65146 11.7247 6.31103 11.6167 6.13936C11.317 5.8072 10.9553 6.08419 11.0165 6.87387C11.0371 7.13952 11.1022 7.59365 11.1893 7.87355L11.3475 8.38246L11.4589 7.99917C11.5201 7.78836 11.6141 7.33531 11.6676 6.9924Z" fill="#FF2116"/>
<path d="M8.50879 16.2236H9.27534C9.52027 16.2236 9.71909 16.2474 9.87179 16.2949C10.0245 16.3409 10.153 16.4444 10.2573 16.6053C10.3617 16.7647 10.4138 16.9571 10.4138 17.1824C10.4138 17.3894 10.3715 17.5672 10.2868 17.7159C10.2021 17.8646 10.088 17.9719 9.94437 18.0378C9.80224 18.1037 9.58301 18.1367 9.28668 18.1367H9.02133V19.3622H8.50879V16.2236ZM9.02133 16.626V17.7205H9.27534C9.50213 17.7205 9.65861 17.6776 9.74479 17.5917C9.83248 17.5059 9.87633 17.3664 9.87633 17.1733C9.87633 17.0292 9.8476 16.9127 9.79015 16.8238C9.7327 16.7333 9.66919 16.6781 9.59965 16.6582C9.53161 16.6367 9.42351 16.626 9.27534 16.626L9.02133 16.626Z" fill="#2C2C2C"/>
<path d="M10.8066 16.2236H11.5029C11.84 16.2236 12.1092 16.2842 12.3103 16.4053C12.5129 16.5264 12.6656 16.7065 12.7684 16.9456C12.8727 17.1847 12.9249 17.4499 12.9249 17.7412C12.9249 18.0478 12.878 18.3214 12.7842 18.5621C12.692 18.8012 12.5499 18.9943 12.3579 19.1415C12.1674 19.2886 11.8952 19.3622 11.5414 19.3622H10.8066V16.2236ZM11.3192 16.6398V18.946H11.5324C11.8302 18.946 12.0464 18.8418 12.181 18.6333C12.3155 18.4233 12.3828 18.1436 12.3828 17.7941C12.3828 17.0246 12.0993 16.6398 11.5324 16.6398H11.3192Z" fill="#2C2C2C"/>
<path d="M13.417 16.2236H15.1361V16.6398H13.9295V17.5779H14.8957V17.9941H13.9295V19.3622H13.417V16.2236Z" fill="#2C2C2C"/>
</svg>
