<svg width="500" height="500" viewBox="0 0 500 500" fill="none" xmlns="http://www.w3.org/2000/svg">
<g opacity="0.05">
<circle cx="246.5" cy="249.5" r="153.5" fill="#0D0D0D"/>
<rect x="35" y="129" width="249" height="26" rx="13" fill="#0D0D0D"/>
<rect x="203" y="228" width="249" height="26" rx="13" fill="#0D0D0D"/>
<rect x="57" y="160" width="249" height="26" rx="13" fill="#0D0D0D"/>
<rect x="197" y="351" width="249" height="26" rx="13" fill="#0D0D0D"/>
<rect x="225" y="259" width="249" height="26" rx="13" fill="#0D0D0D"/>
<rect x="26" y="316" width="249" height="26" rx="13" fill="#0D0D0D"/>
</g>
<path d="M367.87 86.084L361.3 82.274L132.01 214.724V420.214C132.01 422.444 132.79 424.004 134.01 424.744L140.57 428.564C141.83 429.294 143.57 429.194 145.52 428.074L360.87 303.694C362.907 302.366 364.603 300.577 365.819 298.471C367.035 296.365 367.738 294.002 367.87 291.574V86.084Z" fill="#E6E6E6"/>
<path d="M142.44 428.214C143.404 428.167 144.341 427.875 145.16 427.364L360.51 302.994C362.427 301.741 364.023 300.054 365.168 298.07C366.312 296.086 366.974 293.861 367.1 291.574V87.4841L139.38 219.004V424.004C139.38 426.654 140.52 428.214 142.44 428.214Z" fill="#FAFAFA"/>
<path d="M366.29 88.8841V291.574C366.158 293.718 365.53 295.802 364.456 297.662C363.382 299.523 361.891 301.108 360.1 302.294L144.76 426.674C144.062 427.113 143.264 427.368 142.44 427.414C140.44 427.414 140.18 425.054 140.18 424.034V219.474L366.29 88.8841ZM367.91 86.0841L138.57 218.544V424.034C138.57 427.204 140.14 429.034 142.44 429.034C143.553 428.98 144.632 428.635 145.57 428.034L360.87 303.694C362.907 302.366 364.603 300.577 365.819 298.471C367.035 296.365 367.738 294.002 367.87 291.574V86.0841H367.91Z" fill="#E0E0E0"/>
<path d="M138.57 218.544V240.414L367.9 107.954L367.91 86.0841L138.57 218.544Z" fill="#1A1A1A"/>
<g clip-path="url(#clip0_1_11)">
<path fill-rule="evenodd" clip-rule="evenodd" d="M168.12 210.001C167.866 210.166 167.623 210.444 167.444 210.774C167.265 211.104 167.164 211.459 167.164 211.761C167.164 212.063 167.265 212.288 167.444 212.385C167.623 212.482 167.866 212.444 168.12 212.28L170.154 210.959C170.476 210.746 170.795 210.61 171.094 210.561C171.392 210.511 171.664 210.548 171.893 210.669C172.122 210.791 172.303 210.994 172.427 211.268C172.551 211.542 172.615 211.88 172.615 212.264C172.615 212.648 172.551 213.069 172.427 213.504C172.303 213.939 172.122 214.378 171.893 214.797C171.664 215.216 171.392 215.605 171.094 215.943C170.795 216.281 170.476 216.561 170.154 216.766L164.463 220.461C164.016 220.752 163.575 220.906 163.181 220.91C162.786 220.914 162.451 220.767 162.203 220.483L158.891 216.686L156.492 222.39C156.379 222.652 156.209 222.891 156.017 223.056C155.826 223.22 155.629 223.297 155.469 223.269C155.309 223.241 155.199 223.112 155.162 222.908C155.126 222.704 155.166 222.442 155.274 222.179L157.881 215.982C157.995 215.71 158.149 215.449 158.327 215.223C158.506 214.996 158.705 214.81 158.907 214.681C159.108 214.553 159.306 214.485 159.483 214.484C159.661 214.484 159.811 214.551 159.923 214.678L163.436 218.708C163.548 218.837 163.701 218.903 163.88 218.902C164.059 218.9 164.259 218.83 164.463 218.698L170.154 215.002C170.407 214.837 170.65 214.56 170.829 214.23C171.008 213.899 171.109 213.544 171.109 213.242C171.109 212.94 171.008 212.716 170.829 212.618C170.65 212.521 170.407 212.559 170.154 212.723L168.12 214.044C167.474 214.464 166.855 214.56 166.398 214.312C165.941 214.064 165.685 213.492 165.685 212.722C165.685 211.952 165.941 211.047 166.398 210.206C166.855 209.365 167.474 208.656 168.12 208.237L171.171 206.255C171.368 206.128 171.556 206.099 171.695 206.174C171.833 206.249 171.911 206.423 171.911 206.657C171.911 206.891 171.833 207.166 171.695 207.421C171.556 207.677 171.368 207.892 171.171 208.02L168.12 210.001ZM151.564 219.491C152.321 218.626 153.153 217.988 153.956 217.657C154.759 217.327 155.497 217.318 156.076 217.633C156.211 217.711 156.286 217.886 156.285 218.118C156.283 218.351 156.205 218.623 156.068 218.876C155.931 219.129 155.745 219.343 155.55 219.471C155.356 219.599 155.169 219.631 155.029 219.56C154.562 219.309 153.939 219.386 153.281 219.776C152.623 220.166 151.976 220.841 151.466 221.67C150.957 222.499 150.621 223.424 150.523 224.264C150.425 225.105 150.573 225.802 150.937 226.22C151.096 226.4 151.297 226.58 151.658 226.599C152.019 226.618 152.606 226.477 153.581 225.844L154.527 225.23C155.022 224.909 155.462 224.622 156.438 223.989C156.637 223.858 156.833 223.671 157.008 223.444C157.183 223.216 157.332 222.956 157.441 222.687L158.44 220.203C158.492 220.07 158.561 219.941 158.641 219.822C158.721 219.703 158.811 219.597 158.907 219.51C159.002 219.423 159.101 219.357 159.197 219.315C159.294 219.274 159.385 219.258 159.467 219.268C159.55 219.278 159.62 219.314 159.675 219.375C159.731 219.435 159.769 219.519 159.789 219.62C159.809 219.721 159.81 219.838 159.791 219.965C159.773 220.092 159.735 220.225 159.681 220.357L158.681 222.845L158.679 222.851C158.435 223.452 158.103 224.032 157.712 224.539C157.321 225.045 156.884 225.463 156.44 225.753C155.462 226.39 155.018 226.678 154.522 226.998C154.254 227.173 153.97 227.357 153.579 227.61C152.396 228.379 151.539 228.643 150.906 228.608C150.272 228.573 149.922 228.243 149.708 228C149.368 227.614 149.145 227.07 149.055 226.406C148.965 225.743 149.01 224.976 149.188 224.162C149.365 223.349 149.671 222.507 150.082 221.7C150.493 220.892 150.999 220.137 151.565 219.491L151.564 219.491ZM161.035 213.753C161.147 213.477 161.298 213.21 161.477 212.977C161.656 212.744 161.857 212.552 162.061 212.418C162.265 212.283 162.466 212.211 162.646 212.208C162.826 212.204 162.98 212.27 163.094 212.398L165.745 215.391C165.8 215.451 165.839 215.534 165.86 215.635C165.88 215.736 165.881 215.853 165.862 215.98C165.844 216.107 165.807 216.24 165.753 216.373C165.699 216.505 165.629 216.634 165.548 216.752C165.466 216.87 165.375 216.974 165.279 217.059C165.183 217.144 165.084 217.208 164.988 217.247C164.892 217.286 164.801 217.299 164.72 217.286C164.639 217.273 164.57 217.234 164.516 217.171L162.057 214.395C161.924 214.626 161.751 214.819 161.571 214.94C161.391 215.06 161.216 215.099 161.079 215.048C160.942 214.998 160.853 214.862 160.827 214.666C160.802 214.47 160.842 214.227 160.941 213.983L161.035 213.753ZM162.276 213.908L162.07 213.88L162.277 213.905L162.276 213.908Z" fill="white"/>
<path d="M174.863 206.687C175.531 206.253 176.072 205.256 176.072 204.46C176.072 203.664 175.531 203.37 174.863 203.804C174.196 204.237 173.654 205.234 173.654 206.031C173.654 206.827 174.196 207.121 174.863 206.687Z" fill="#14B14B"/>
<path d="M174.863 210.171C175.531 209.737 176.072 208.74 176.072 207.944C176.072 207.148 175.531 206.854 174.863 207.288C174.196 207.721 173.654 208.718 173.654 209.514C173.654 210.31 174.196 210.604 174.863 210.171Z" fill="#F5851F"/>
<path d="M174.863 213.654C175.531 213.221 176.072 212.224 176.072 211.428C176.072 210.631 175.531 210.338 174.863 210.771C174.196 211.205 173.654 212.202 173.654 212.998C173.654 213.794 174.196 214.088 174.863 213.654Z" fill="#CF2027"/>
</g>
<path d="M293.01 138.394V142.894C293.01 143.814 293.66 144.194 294.46 143.734L352.33 110.294V102.434L294.46 135.874C294.037 136.15 293.685 136.523 293.433 136.961C293.181 137.398 293.036 137.89 293.01 138.394Z" fill="#FAFAFA"/>
<path d="M359.95 98.0341C360.75 97.5741 361.4 97.9541 361.4 98.8741V103.384C361.372 103.887 361.226 104.376 360.974 104.812C360.723 105.248 360.372 105.619 359.95 105.894L352.33 110.294V102.434L359.95 98.0341Z" fill="#808080"/>
<path d="M359.13 104.684L358.25 104.274C358.401 103.902 358.505 103.512 358.56 103.114C358.654 102.749 358.65 102.366 358.55 102.003C358.45 101.64 358.257 101.309 357.99 101.044C357.8 100.901 357.574 100.813 357.337 100.792C357.1 100.771 356.862 100.817 356.65 100.924C356.007 101.289 355.458 101.801 355.05 102.418C354.642 103.035 354.385 103.739 354.3 104.474C354.208 104.838 354.211 105.22 354.309 105.582C354.407 105.945 354.597 106.276 354.86 106.544C355.023 106.671 355.216 106.753 355.42 106.784C355.689 106.811 355.961 106.77 356.21 106.664C356.97 106.279 357.584 105.658 357.96 104.894L358.84 105.304H358.94C359.023 105.32 359.11 105.305 359.182 105.261C359.255 105.217 359.308 105.147 359.332 105.066C359.356 104.984 359.348 104.897 359.311 104.821C359.273 104.745 359.209 104.685 359.13 104.654V104.684ZM355.95 106.034C355.849 106.095 355.733 106.127 355.615 106.127C355.497 106.127 355.381 106.095 355.28 106.034C355.121 105.836 355.011 105.604 354.958 105.355C354.906 105.107 354.914 104.849 354.98 104.604C355.056 103.991 355.269 103.404 355.603 102.884C355.938 102.365 356.384 101.928 356.91 101.604C357.045 101.544 357.193 101.52 357.34 101.534C357.425 101.542 357.506 101.577 357.57 101.634C357.722 101.826 357.828 102.05 357.88 102.289C357.933 102.528 357.929 102.776 357.87 103.014C357.796 103.629 357.584 104.219 357.252 104.742C356.92 105.264 356.475 105.706 355.95 106.034V106.034Z" fill="#FAFAFA"/>
<path d="M359.36 71.5141C358.09 70.7341 356.31 70.8141 354.36 71.9541L139 196.334C136.962 197.661 135.266 199.451 134.05 201.557C132.834 203.662 132.131 206.026 132 208.454V214.724L138.56 218.544L367.87 86.0841V79.8141C367.87 77.5941 367.09 76.0341 365.87 75.3041C364.65 74.5741 360.5 72.2141 359.36 71.5141Z" fill="#404040"/>
<path d="M138.57 212.264C138.701 209.836 139.404 207.472 140.62 205.367C141.836 203.261 143.532 201.471 145.57 200.144L360.87 75.7741C364.73 73.5441 367.87 75.3541 367.87 79.7741V86.0441L138.57 218.544V212.264Z" fill="#333333"/>
<path d="M365.95 75.3441C364.67 74.5541 362.89 74.6341 360.95 75.7741L145.57 200.144C143.5 201.432 141.796 203.229 140.62 205.364L134.05 201.564C135.238 199.419 136.96 197.617 139.05 196.334L354.34 71.9441C356.34 70.8141 358.09 70.7341 359.34 71.5141C360.59 72.2941 364.69 74.6141 365.87 75.2941L365.95 75.3441Z" fill="#808080"/>
<path d="M343.47 90.6841C342.759 91.1473 342.167 91.7718 341.743 92.5069C341.319 93.2419 341.075 94.0667 341.03 94.9141C341.03 96.4741 342.12 97.1041 343.47 96.3241C344.174 95.8564 344.757 95.2299 345.174 94.4951C345.591 93.7604 345.829 92.9379 345.87 92.0941C345.87 90.5341 344.87 89.9041 343.47 90.6841Z" fill="#FAFAFA"/>
<path d="M352.02 85.7541C351.309 86.2195 350.717 86.8459 350.293 87.5825C349.869 88.3192 349.625 89.1453 349.58 89.9941C349.58 91.5541 350.67 92.1841 352.02 91.4041C352.725 90.9436 353.312 90.3251 353.736 89.5977C354.159 88.8703 354.407 88.0541 354.46 87.2141C354.46 85.6141 353.37 84.9841 352.02 85.7541Z" fill="#FAFAFA"/>
<path d="M360.57 80.8341C359.859 81.2973 359.267 81.9219 358.843 82.6569C358.419 83.392 358.175 84.2167 358.13 85.0641C358.13 86.6241 359.22 87.2541 360.57 86.4741C361.286 86.0084 361.882 85.3795 362.308 84.6389C362.734 83.8984 362.978 83.0673 363.02 82.2141C363.02 80.6841 361.92 80.0541 360.57 80.8341Z" fill="#FAFAFA"/>
<path d="M145.97 426.904C142.33 429.004 139.38 427.294 139.38 423.094V240.874L194.07 209.294V399.124L145.97 426.904Z" fill="#F5F5F5"/>
<path d="M140.18 241.344L193.26 210.684V398.684L146.37 425.744C143.02 427.674 140.18 426.044 140.18 422.164V241.344ZM138.57 240.414V424.034C138.57 428.494 141.7 430.304 145.57 428.034L194.87 399.594V207.884L138.57 240.414Z" fill="#E0E0E0"/>
<path d="M138.57 218.544L132.01 214.724V236.624L138.57 240.414V218.544Z" fill="#242424"/>
<path d="M159.64 241.034L183.97 226.974C184.87 226.454 185.6 226.874 185.6 227.914V230.034C185.566 230.598 185.401 231.147 185.118 231.637C184.835 232.126 184.442 232.543 183.97 232.854L159.64 246.914C158.74 247.434 158.02 247.014 158.02 245.974V243.854C158.052 243.29 158.215 242.742 158.497 242.252C158.778 241.763 159.169 241.346 159.64 241.034Z" fill="#E0E0E0"/>
<path d="M152.93 246.794V248.904C152.899 249.468 152.737 250.017 152.456 250.507C152.174 250.997 151.782 251.414 151.31 251.724L149.47 252.784C148.58 253.304 147.85 252.884 147.85 251.844V249.724C147.881 249.162 148.044 248.614 148.326 248.126C148.607 247.638 148.999 247.223 149.47 246.914L151.31 245.854C152.2 245.334 152.93 245.754 152.93 246.794Z" fill="#0084FF"/>
<path d="M159.64 252.734L183.97 238.674C184.87 238.154 185.6 238.574 185.6 239.614V241.734C185.567 242.297 185.402 242.845 185.119 243.333C184.836 243.821 184.442 244.236 183.97 244.544L159.64 258.614C158.74 259.124 158.02 258.704 158.02 257.674V255.554C158.051 254.99 158.213 254.441 158.494 253.951C158.776 253.462 159.168 253.045 159.64 252.734V252.734Z" fill="#E0E0E0"/>
<path d="M152.93 258.494V260.604C152.899 261.168 152.737 261.717 152.456 262.207C152.174 262.697 151.782 263.114 151.31 263.424L149.47 264.484C148.58 265.004 147.85 264.584 147.85 263.544V261.424C147.881 260.862 148.044 260.314 148.326 259.826C148.607 259.338 148.999 258.923 149.47 258.614L151.31 257.554C152.2 257.034 152.93 257.454 152.93 258.494Z" fill="#0084FF"/>
<path d="M159.64 264.434L183.97 250.374C184.87 249.854 185.6 250.274 185.6 251.314V253.434C185.562 253.992 185.395 254.534 185.112 255.016C184.83 255.498 184.438 255.909 183.97 256.214L159.64 270.314C158.74 270.824 158.02 270.404 158.02 269.374V267.214C158.057 266.657 158.222 266.116 158.503 265.634C158.784 265.151 159.173 264.741 159.64 264.434V264.434Z" fill="#E0E0E0"/>
<path d="M152.93 270.214V272.324C152.899 272.888 152.737 273.437 152.456 273.927C152.174 274.417 151.782 274.833 151.31 275.144L149.47 276.214C148.58 276.734 147.85 276.314 147.85 275.274V273.154C147.88 272.591 148.042 272.043 148.324 271.555C148.605 271.067 148.998 270.652 149.47 270.344L151.31 269.284C152.2 268.734 152.93 269.154 152.93 270.214Z" fill="#0084FF"/>
<path d="M159.45 275.177L183.78 261.177C184.68 260.657 185.41 261.077 185.41 262.117V264.177C185.378 264.742 185.213 265.291 184.93 265.781C184.647 266.271 184.253 266.687 183.78 266.997L159.45 281.057C158.55 281.577 157.83 281.157 157.83 280.117V278.007C157.859 277.441 158.021 276.89 158.302 276.399C158.584 275.907 158.977 275.489 159.45 275.177V275.177Z" fill="#E0E0E0"/>
<path d="M152.74 280.947V283.067C152.709 283.63 152.546 284.177 152.265 284.665C151.983 285.153 151.591 285.568 151.12 285.877L149.28 286.937C148.39 287.457 147.66 287.037 147.66 285.997V283.887C147.691 283.323 147.853 282.774 148.135 282.284C148.416 281.795 148.808 281.378 149.28 281.067L151.12 280.007C152.01 279.487 152.74 279.907 152.74 280.947Z" fill="#0084FF"/>
<path d="M236.125 287.153C235.37 287.153 234.646 286.859 234.106 286.332C233.723 285.938 233.426 285.469 233.234 284.955C233.042 284.44 232.959 283.892 232.989 283.344V277.269L216.784 286.635C216.289 286.935 215.721 287.091 215.142 287.087C214.39 287.09 213.667 286.795 213.131 286.266C212.746 285.872 212.447 285.402 212.253 284.886C212.059 284.37 211.975 283.82 212.006 283.27V273.254C211.993 271.458 212.31 269.674 212.942 267.992L231.29 221.783C231.613 220.909 232.049 220.081 232.587 219.32C233.096 218.676 233.726 218.138 234.442 217.735L243.702 212.391C244.197 212.092 244.765 211.936 245.344 211.94C246.096 211.94 246.818 212.234 247.355 212.761C247.739 213.154 248.037 213.622 248.231 214.137C248.424 214.651 248.509 215.2 248.48 215.749V248.446L250.672 247.182C251.167 246.882 251.735 246.726 252.314 246.73C253.065 246.734 253.786 247.028 254.325 247.551C254.698 247.96 254.983 248.442 255.163 248.966C255.342 249.49 255.412 250.045 255.367 250.597V260.604C255.362 261.626 255.127 262.633 254.678 263.551C254.268 264.514 253.571 265.328 252.683 265.883L248.439 268.345V276.784C248.433 277.809 248.197 278.819 247.749 279.74C247.339 280.703 246.642 281.516 245.754 282.071L237.726 286.709C237.239 286.992 236.688 287.145 236.125 287.153V287.153ZM230.477 258.855L233.293 257.214V251.754L230.477 258.855Z" fill="#E0E0E0"/>
<path d="M270.382 266.63H269.89C267.297 266.56 264.835 265.475 263.035 263.609C261.179 261.574 259.881 259.094 259.267 256.409C258.481 253.304 258.037 250.121 257.945 246.919C257.863 244.383 257.822 241.591 257.822 238.611C257.822 235.632 257.822 232.725 257.945 229.975C258.08 226.331 258.513 222.704 259.242 219.131C259.967 215.517 261.107 211.999 262.641 208.648C264.143 205.343 266.075 202.252 268.387 199.453C270.763 196.599 273.629 194.191 276.851 192.344C280.085 190.473 282.876 189.57 285.397 189.57H285.889C288.48 189.647 290.939 190.731 292.744 192.591C294.596 194.628 295.894 197.107 296.512 199.79C297.297 202.896 297.74 206.078 297.834 209.28C297.916 211.997 297.957 214.854 297.957 217.785C297.957 220.715 297.957 223.531 297.834 226.224C297.695 229.868 297.261 233.494 296.537 237.068C295.804 240.678 294.661 244.193 293.13 247.543C291.629 250.848 289.696 253.94 287.383 256.737C285.006 259.593 282.14 262.002 278.92 263.855C275.693 265.718 272.894 266.63 270.382 266.63ZM280.668 210.29C280.042 210.365 279.445 210.594 278.928 210.955C277.98 211.494 277.144 212.21 276.465 213.064C275.777 213.952 275.223 214.937 274.823 215.987C274.369 217.175 274.039 218.408 273.838 219.665C273.601 221.087 273.466 222.525 273.436 223.966C273.231 229.261 273.231 234.54 273.436 239.695C273.459 240.972 273.583 242.246 273.805 243.504C273.898 244.201 274.145 244.868 274.528 245.458C274.591 245.56 274.678 245.646 274.78 245.709C274.883 245.771 274.999 245.809 275.119 245.819V245.819C275.762 245.758 276.378 245.532 276.908 245.162C277.855 244.618 278.691 243.899 279.371 243.044C280.078 242.147 280.65 241.151 281.07 240.089C281.535 238.918 281.866 237.698 282.056 236.452C282.266 235.025 282.39 233.585 282.425 232.143C282.589 226.766 282.589 221.471 282.425 216.406C282.367 215.141 282.224 213.883 281.998 212.637C281.894 211.922 281.646 211.235 281.267 210.618C281.214 210.526 281.139 210.448 281.049 210.391C280.959 210.334 280.857 210.299 280.75 210.29H280.668Z" fill="#E0E0E0"/>
<path d="M326.156 235.172C325.401 235.172 324.676 234.878 324.136 234.351C323.754 233.957 323.457 233.488 323.265 232.974C323.073 232.46 322.989 231.911 323.02 231.363V225.288L306.782 234.663C306.301 234.954 305.751 235.11 305.189 235.114C304.434 235.118 303.708 234.823 303.17 234.293C302.787 233.9 302.49 233.431 302.298 232.917C302.106 232.402 302.022 231.854 302.053 231.305V221.265C302.037 219.48 302.352 217.707 302.981 216.036L321.32 169.843C321.641 168.969 322.074 168.141 322.609 167.38C323.12 166.738 323.75 166.2 324.464 165.796L333.724 160.452C334.22 160.154 334.788 159.997 335.366 160C336.119 159.997 336.842 160.292 337.378 160.821C337.761 161.214 338.06 161.683 338.253 162.197C338.447 162.711 338.532 163.26 338.502 163.809V196.506L340.702 195.242C341.182 194.95 341.733 194.793 342.295 194.791C343.046 194.794 343.767 195.088 344.306 195.612C344.69 196.008 344.989 196.479 345.182 196.996C345.376 197.513 345.46 198.065 345.431 198.616V208.648C345.425 209.671 345.193 210.681 344.749 211.603C344.337 212.565 343.641 213.378 342.755 213.935L338.502 216.397V224.836C338.495 225.86 338.262 226.869 337.821 227.792C337.408 228.756 336.708 229.569 335.818 230.123L327.789 234.761C327.291 235.041 326.727 235.183 326.156 235.172ZM320.516 206.875L323.332 205.233V199.774L320.516 206.875Z" fill="#E0E0E0"/>
<path d="M259.866 253.224C259.805 253.162 259.736 253.11 259.661 253.068L253.43 249.472V219.919C253.454 219.647 253.422 219.373 253.338 219.114C253.253 218.854 253.117 218.614 252.937 218.409L252.74 218.261L246.083 214.394C245.93 214.313 245.758 214.276 245.585 214.288C245.412 214.299 245.246 214.359 245.106 214.46L235.846 219.804C235.363 220.073 234.936 220.433 234.59 220.863C234.166 221.466 233.827 222.123 233.58 222.817L215.241 268.994C214.688 270.435 214.409 271.966 214.42 273.509V283.516C214.395 283.788 214.425 284.062 214.51 284.322C214.595 284.582 214.732 284.822 214.912 285.027C214.973 285.088 215.042 285.141 215.118 285.183L221.775 289.033C221.927 289.113 222.099 289.149 222.27 289.136C222.442 289.122 222.606 289.061 222.744 288.959L235.419 281.71V283.639C235.396 283.91 235.427 284.184 235.51 284.443C235.593 284.702 235.727 284.942 235.903 285.15L236.1 285.297L242.774 289.148C242.926 289.229 243.097 289.266 243.268 289.254C243.44 289.243 243.604 289.183 243.743 289.082L251.772 284.444C252.295 284.095 252.701 283.597 252.937 283.015C253.256 282.369 253.424 281.659 253.43 280.938V271.293L258.7 268.247C259.227 267.902 259.634 267.403 259.866 266.818C260.184 266.172 260.353 265.462 260.359 264.742V254.735C260.382 254.463 260.351 254.189 260.266 253.929C260.182 253.669 260.046 253.43 259.866 253.224V253.224Z" fill="#0084FF"/>
<path opacity="0.15" d="M241.215 224.738V224.853C240.836 225.432 240.522 226.052 240.279 226.7L221.948 272.877C221.708 273.49 221.526 274.125 221.406 274.773L214.691 270.898C214.816 270.261 214.995 269.635 215.224 269.027L233.555 222.85C233.81 222.158 234.152 221.501 234.573 220.896V220.896L241.215 224.738Z" fill="black"/>
<path opacity="0.3" d="M221.71 289.016C220.954 288.581 215.397 285.371 215.142 285.223C215.068 285.176 214.999 285.121 214.937 285.059C214.756 284.854 214.619 284.615 214.535 284.355C214.45 284.095 214.419 283.821 214.444 283.549V273.55C214.446 272.668 214.534 271.788 214.707 270.923L221.373 274.773C221.199 275.638 221.113 276.518 221.119 277.4V287.407C221.095 287.677 221.125 287.949 221.209 288.207C221.292 288.465 221.426 288.704 221.603 288.909L221.71 289.016Z" fill="black"/>
<path opacity="0.3" d="M242.397 245.195V262.566L236.782 259.323L242.397 245.195Z" fill="black"/>
<path opacity="0.4" d="M242.397 262.566L233.441 267.73L236.782 259.323L242.397 262.566Z" fill="black"/>
<path opacity="0.3" d="M242.577 288.983L242.692 289.082L236.125 285.289C236.051 285.249 235.984 285.196 235.928 285.133C235.748 284.928 235.611 284.688 235.526 284.429C235.442 284.169 235.411 283.895 235.435 283.623V281.71L242.101 277.86V287.456C242.072 287.73 242.099 288.007 242.181 288.269C242.263 288.532 242.398 288.775 242.577 288.983V288.983Z" fill="black"/>
<path opacity="0.15" d="M259.587 253.035C259.443 252.979 259.288 252.96 259.134 252.978C258.981 252.997 258.835 253.053 258.709 253.142L253.43 256.188V249.481L259.587 253.035Z" fill="black"/>
<path opacity="0.4" d="M252.699 218.253C252.55 218.185 252.386 218.158 252.224 218.174C252.061 218.19 251.905 218.248 251.772 218.343L242.52 223.687C242.039 223.956 241.613 224.312 241.264 224.738L234.598 220.888C234.944 220.462 235.367 220.105 235.846 219.837L245.106 214.493C245.246 214.39 245.413 214.331 245.586 214.32C245.759 214.31 245.932 214.35 246.083 214.435L252.699 218.253Z" fill="white"/>
<path d="M243.743 289.098C243.572 289.228 243.359 289.292 243.145 289.277C242.93 289.261 242.729 289.169 242.577 289.016C242.397 288.811 242.26 288.571 242.176 288.312C242.091 288.052 242.06 287.778 242.085 287.506V277.844L222.769 288.992C222.598 289.123 222.385 289.188 222.17 289.173C221.955 289.157 221.753 289.064 221.603 288.91C221.422 288.705 221.285 288.465 221.2 288.205C221.116 287.945 221.085 287.671 221.11 287.399V277.392C221.1 275.849 221.378 274.318 221.931 272.877L240.246 226.708C240.501 226.018 240.84 225.362 241.256 224.754C241.606 224.328 242.032 223.969 242.512 223.695L251.772 218.351C251.943 218.221 252.156 218.158 252.37 218.173C252.584 218.188 252.786 218.281 252.937 218.433C253.117 218.639 253.253 218.879 253.338 219.138C253.422 219.398 253.454 219.672 253.43 219.944V256.196L258.7 253.15C258.873 253.023 259.085 252.962 259.298 252.977C259.512 252.992 259.713 253.083 259.866 253.232C260.046 253.438 260.182 253.678 260.266 253.937C260.351 254.197 260.382 254.471 260.359 254.743V264.75C260.353 265.47 260.184 266.18 259.866 266.827C259.634 267.412 259.227 267.91 258.7 268.255L253.43 271.301V280.889C253.424 281.61 253.256 282.32 252.937 282.966C252.701 283.548 252.295 284.046 251.772 284.394L243.743 289.098ZM242.389 262.591V245.187L233.441 267.754L242.389 262.591Z" fill="#0084FF"/>
<path d="M302.85 213.491C302.763 210.444 302.342 207.416 301.594 204.461C301.059 202.117 299.928 199.951 298.31 198.173C297.825 197.662 297.273 197.22 296.668 196.859C295.56 196.203 290.601 193.354 289.994 193.001C288.831 192.337 287.523 191.968 286.185 191.926C283.996 191.811 281.361 192.632 278.279 194.389C275.264 196.11 272.584 198.359 270.366 201.03C268.157 203.687 266.313 206.628 264.882 209.773C263.402 212.981 262.3 216.35 261.598 219.812C260.892 223.272 260.472 226.784 260.342 230.312C260.26 233.048 260.219 235.903 260.219 238.874C260.219 241.838 260.26 244.58 260.342 247.083C260.427 250.131 260.848 253.159 261.598 256.114C262.132 258.46 263.263 260.63 264.882 262.41C265.368 262.917 265.921 263.356 266.524 263.715C267.64 264.372 272.664 267.27 273.305 267.631C274.446 268.262 275.72 268.614 277.023 268.657C279.223 268.772 281.867 267.943 284.929 266.195C287.94 264.468 290.62 262.219 292.842 259.553C295.048 256.894 296.892 253.954 298.326 250.81C299.806 247.602 300.908 244.233 301.61 240.771C302.316 237.311 302.736 233.799 302.866 230.271C302.948 227.644 302.989 224.853 302.989 221.898C302.989 218.942 302.943 216.14 302.85 213.491ZM278.624 247.042C278.473 246.017 278.383 244.984 278.353 243.948C278.151 238.716 278.151 233.429 278.353 228.087C278.388 226.55 278.531 225.016 278.78 223.498C279.006 222.096 279.378 220.72 279.888 219.394C280.366 218.153 281.027 216.99 281.85 215.946C282.597 215.013 283.496 214.213 284.51 213.582C284.65 214.518 284.748 215.535 284.806 216.644C284.97 221.777 284.97 227.064 284.806 232.504C284.772 234.035 284.637 235.563 284.403 237.076C284.195 238.482 283.826 239.86 283.303 241.181C282.809 242.426 282.137 243.593 281.309 244.645C280.558 245.593 279.65 246.404 278.624 247.042Z" fill="#0084FF"/>
<path opacity="0.15" d="M273.149 267.582L266.581 263.773C265.979 263.408 265.427 262.967 264.939 262.459C263.321 260.681 262.19 258.515 261.656 256.171C260.906 253.216 260.485 250.188 260.4 247.141C260.318 244.607 260.277 241.871 260.277 238.932C260.277 235.993 260.318 233.136 260.4 230.361C260.53 226.833 260.95 223.321 261.656 219.862C262.146 217.414 262.837 215.012 263.724 212.679L270.382 216.537C269.505 218.869 268.818 221.268 268.33 223.712C267.617 227.17 267.194 230.682 267.066 234.211C266.983 236.948 266.942 239.805 266.942 242.782C266.942 245.759 266.983 248.495 267.066 250.991C267.15 254.039 267.574 257.068 268.33 260.021C268.862 262.366 269.993 264.533 271.613 266.309C272.069 266.797 272.585 267.225 273.149 267.582Z" fill="black"/>
<path opacity="0.4" d="M296.414 196.704C295.309 196.133 294.093 195.81 292.851 195.759C290.662 195.65 288.024 196.471 284.937 198.222C281.928 199.951 279.25 202.203 277.032 204.872C274.824 207.528 272.977 210.465 271.54 213.606C271.318 214.082 271.113 214.567 270.907 215.059C270.702 215.552 270.538 215.995 270.357 216.471L263.7 212.613C263.856 212.194 264.02 211.792 264.192 211.365C264.414 210.823 264.636 210.29 264.882 209.723C266.321 206.583 268.165 203.644 270.366 200.981C272.59 198.316 275.269 196.068 278.279 194.339C281.341 192.566 284.026 191.745 286.193 191.877C287.528 191.923 288.832 192.292 289.994 192.952C290.569 193.321 294.952 195.842 296.414 196.704Z" fill="white"/>
<path opacity="0.3" d="M291.488 236.379C291.45 237.91 291.315 239.437 291.086 240.951C290.879 242.357 290.51 243.735 289.986 245.056C289.766 245.603 289.511 246.135 289.222 246.648L282.556 242.798C282.839 242.283 283.091 241.751 283.312 241.206C283.834 239.884 284.206 238.507 284.42 237.101C284.647 235.587 284.778 234.059 284.814 232.528C284.978 227.089 284.978 221.802 284.814 216.668C284.756 215.56 284.658 214.542 284.527 213.606C284.527 213.606 284.699 213.483 284.921 213.352C285.819 212.725 286.895 212.403 287.991 212.432C288.384 212.476 288.763 212.604 289.102 212.808C289.44 213.012 289.731 213.287 289.953 213.614C290.507 214.469 290.874 215.432 291.028 216.438C291.27 217.795 291.424 219.166 291.488 220.543C291.663 225.66 291.663 230.939 291.488 236.379Z" fill="black"/>
<path opacity="0.4" d="M289.247 246.624C288.89 247.282 288.478 247.908 288.015 248.495C287.171 249.559 286.129 250.448 284.945 251.114C284.048 251.737 282.975 252.059 281.883 252.034C281.487 251.995 281.104 251.871 280.76 251.671C280.416 251.472 280.119 251.2 279.888 250.876C279.314 250.036 278.937 249.076 278.788 248.069C278.723 247.74 278.673 247.395 278.624 247.042C279.664 246.409 280.584 245.598 281.341 244.645C281.807 244.058 282.222 243.432 282.581 242.774L289.247 246.624Z" fill="black"/>
<path d="M284.921 198.247C287.991 196.474 290.629 195.653 292.834 195.784C294.905 195.836 296.873 196.697 298.318 198.181C299.936 199.959 301.067 202.126 301.602 204.469C302.35 207.424 302.772 210.453 302.858 213.5C302.94 216.159 302.981 218.97 302.981 221.93C302.981 224.891 302.94 227.682 302.858 230.304C302.728 233.832 302.308 237.344 301.602 240.803C300.9 244.266 299.798 247.635 298.318 250.843C296.885 253.969 295.05 256.895 292.859 259.545C290.636 262.211 287.957 264.46 284.945 266.186C281.883 267.96 279.24 268.789 277.04 268.649C274.966 268.599 272.994 267.739 271.548 266.252C269.929 264.471 268.797 262.302 268.264 259.956C267.514 257.001 267.093 253.973 267.008 250.925C266.926 248.389 266.885 245.647 266.885 242.716C266.885 239.786 266.926 236.904 267.008 234.154C267.138 230.626 267.558 227.114 268.264 223.654C268.966 220.192 270.068 216.823 271.548 213.615C272.985 210.471 274.832 207.531 277.04 204.872C279.249 202.209 281.918 199.966 284.921 198.247V198.247ZM291.488 236.379C291.652 230.939 291.652 225.652 291.488 220.518C291.428 219.141 291.274 217.77 291.028 216.414C290.876 215.408 290.512 214.445 289.961 213.59C289.742 213.26 289.452 212.983 289.113 212.778C288.774 212.574 288.393 212.447 287.999 212.408C286.905 212.386 285.831 212.708 284.929 213.327C283.748 213.993 282.708 214.883 281.867 215.946C281.043 216.99 280.382 218.153 279.905 219.394C279.394 220.72 279.023 222.096 278.797 223.498C278.547 225.016 278.404 226.55 278.37 228.087C278.167 233.429 278.167 238.716 278.37 243.948C278.394 245.324 278.526 246.696 278.764 248.052C278.912 249.061 279.291 250.022 279.872 250.86C280.102 251.185 280.399 251.458 280.743 251.659C281.087 251.86 281.47 251.985 281.867 252.025C282.958 252.046 284.029 251.724 284.929 251.106C286.109 250.435 287.151 249.547 287.999 248.487C288.822 247.432 289.491 246.266 289.986 245.023C290.511 243.702 290.883 242.325 291.094 240.918C291.319 239.415 291.451 237.899 291.488 236.379V236.379Z" fill="#0084FF"/>
<path d="M349.905 201.26C349.841 201.198 349.769 201.145 349.691 201.104L343.461 197.508V167.955C343.485 167.683 343.454 167.41 343.371 167.151C343.288 166.891 343.153 166.651 342.976 166.444C342.917 166.387 342.851 166.338 342.779 166.297L336.113 162.446C335.96 162.365 335.788 162.328 335.615 162.34C335.443 162.351 335.277 162.411 335.136 162.512L325.876 167.856C325.393 168.124 324.966 168.484 324.62 168.915C324.203 169.522 323.864 170.178 323.611 170.869L305.279 217.046C304.726 218.487 304.448 220.018 304.459 221.561V231.568C304.433 231.839 304.462 232.113 304.545 232.373C304.629 232.633 304.764 232.873 304.943 233.079C305.006 233.14 305.078 233.193 305.156 233.235L311.814 237.085C311.966 237.165 312.138 237.201 312.309 237.188C312.48 237.174 312.645 237.113 312.783 237.011L325.425 229.713V231.634C325.401 231.906 325.432 232.18 325.517 232.439C325.602 232.699 325.738 232.939 325.917 233.144L326.114 233.292L332.78 237.142C332.932 237.222 333.103 237.258 333.274 237.246C333.445 237.235 333.609 237.176 333.749 237.076L341.81 232.455C342.331 232.103 342.736 231.607 342.976 231.026C343.287 230.378 343.453 229.669 343.461 228.949V219.32L348.739 216.274C349.263 215.927 349.67 215.429 349.905 214.846C350.216 214.197 350.381 213.488 350.389 212.769V202.754C350.431 202.211 350.257 201.674 349.905 201.26Z" fill="#0084FF"/>
<path opacity="0.15" d="M331.245 172.757V172.872C330.866 173.451 330.552 174.071 330.309 174.719L311.978 220.896C311.738 221.51 311.557 222.145 311.436 222.792L304.721 218.918C304.847 218.28 305.025 217.654 305.255 217.046L323.553 170.885C323.807 170.193 324.149 169.536 324.571 168.932L331.245 172.757Z" fill="black"/>
<path opacity="0.3" d="M311.757 237.035C311.001 236.6 305.444 233.39 305.189 233.243C305.115 233.196 305.046 233.141 304.984 233.079C304.803 232.874 304.666 232.634 304.581 232.374C304.497 232.114 304.466 231.84 304.491 231.568V221.569C304.493 220.687 304.581 219.807 304.754 218.942L311.42 222.792C311.246 223.657 311.16 224.537 311.165 225.419V235.426C311.142 235.696 311.172 235.969 311.255 236.227C311.339 236.485 311.473 236.723 311.65 236.929L311.757 237.035Z" fill="black"/>
<path opacity="0.3" d="M332.427 193.214V210.585L326.812 207.343L332.427 193.214Z" fill="black"/>
<path opacity="0.4" d="M332.427 210.585L323.471 215.749L326.812 207.343L332.427 210.585Z" fill="black"/>
<path opacity="0.3" d="M332.608 237.003L332.723 237.101L326.156 233.308C326.081 233.268 326.015 233.216 325.958 233.152C325.778 232.947 325.641 232.708 325.557 232.448C325.472 232.188 325.441 231.914 325.466 231.642V229.713L332.132 225.863V235.492C332.105 235.763 332.133 236.037 332.215 236.296C332.297 236.556 332.431 236.796 332.608 237.003V237.003Z" fill="black"/>
<path opacity="0.15" d="M349.617 201.054C349.474 200.998 349.318 200.979 349.165 200.997C349.012 201.016 348.865 201.072 348.739 201.161L343.461 204.207V197.5L349.617 201.054Z" fill="black"/>
<path opacity="0.4" d="M342.73 166.272C342.581 166.205 342.417 166.177 342.254 166.193C342.091 166.209 341.936 166.267 341.802 166.362L332.534 171.706C332.053 171.975 331.627 172.331 331.278 172.757L324.612 168.907C324.958 168.481 325.381 168.125 325.86 167.856L335.12 162.512C335.26 162.41 335.427 162.35 335.6 162.34C335.773 162.329 335.946 162.369 336.097 162.455L342.73 166.272Z" fill="white"/>
<path d="M333.774 237.085C333.602 237.215 333.39 237.278 333.175 237.263C332.961 237.248 332.759 237.155 332.608 237.003C332.43 236.796 332.295 236.556 332.212 236.297C332.129 236.037 332.099 235.763 332.124 235.492V225.887L312.832 237.011C312.661 237.142 312.448 237.207 312.233 237.192C312.019 237.177 311.817 237.083 311.666 236.929C311.485 236.724 311.348 236.484 311.264 236.224C311.179 235.965 311.148 235.69 311.174 235.418V225.411C311.163 223.868 311.442 222.337 311.995 220.896L330.326 174.719C330.578 174.026 330.92 173.369 331.344 172.765C331.669 172.339 332.073 171.98 332.534 171.706L341.794 166.362C341.966 166.234 342.178 166.172 342.392 166.187C342.606 166.202 342.808 166.293 342.96 166.444C343.137 166.651 343.271 166.891 343.354 167.151C343.438 167.41 343.468 167.683 343.444 167.955V204.207L348.723 201.161C348.895 201.033 349.107 200.97 349.321 200.986C349.535 201.001 349.736 201.092 349.888 201.243C350.065 201.45 350.199 201.691 350.282 201.95C350.365 202.209 350.396 202.482 350.373 202.754V212.752C350.365 213.472 350.2 214.181 349.888 214.829C349.653 215.413 349.247 215.911 348.723 216.258L343.461 219.32V228.949C343.453 229.669 343.287 230.378 342.976 231.026C342.736 231.607 342.331 232.103 341.81 232.455L333.774 237.085ZM332.427 210.577V193.206L323.504 215.749L332.427 210.577Z" fill="#0084FF"/>
<path d="M268.683 295.198C268.72 295.167 268.766 295.15 268.814 295.15C268.862 295.15 268.909 295.167 268.945 295.198C268.987 295.245 269.018 295.299 269.038 295.358C269.058 295.418 269.065 295.48 269.06 295.543V297.808C269.056 297.973 269.017 298.136 268.945 298.284C268.894 298.416 268.802 298.528 268.683 298.605L262.115 302.405C262.079 302.436 262.032 302.453 261.984 302.453C261.936 302.453 261.89 302.436 261.853 302.405C261.813 302.358 261.783 302.303 261.765 302.244C261.746 302.185 261.74 302.122 261.746 302.061V288.277C261.746 288.115 261.782 287.955 261.853 287.809C261.906 287.679 261.998 287.567 262.115 287.489L268.592 283.746C268.629 283.714 268.675 283.696 268.724 283.696C268.772 283.696 268.819 283.714 268.855 283.746C268.895 283.791 268.926 283.845 268.944 283.903C268.963 283.961 268.969 284.022 268.962 284.082V286.356C268.962 286.518 268.926 286.678 268.855 286.824C268.802 286.955 268.71 287.066 268.592 287.144L264.315 289.607V291.914L268.281 289.624C268.319 289.594 268.367 289.577 268.416 289.577C268.465 289.577 268.513 289.594 268.551 289.624C268.591 289.671 268.621 289.726 268.639 289.785C268.658 289.845 268.664 289.907 268.658 289.968V292.234C268.658 292.396 268.622 292.556 268.551 292.702C268.495 292.836 268.401 292.95 268.281 293.03L264.315 295.321V297.718L268.683 295.198Z" fill="#455A64"/>
<path d="M275.143 279.929C275.647 279.614 276.203 279.395 276.785 279.28C277.205 279.189 277.644 279.256 278.017 279.469C278.397 279.723 278.673 280.104 278.796 280.544C278.997 281.198 279.088 281.88 279.067 282.564C279.079 283.549 278.932 284.531 278.632 285.47C278.368 286.31 277.956 287.096 277.417 287.793L279.133 291.898C279.162 291.962 279.176 292.032 279.174 292.103C279.176 292.237 279.145 292.369 279.084 292.489C279.04 292.595 278.966 292.686 278.87 292.751L276.982 293.843C276.802 293.95 276.67 293.958 276.588 293.843C276.511 293.764 276.447 293.672 276.399 293.572L274.848 289.919L273.575 290.65V295.231C273.572 295.393 273.533 295.553 273.46 295.698C273.403 295.829 273.312 295.942 273.198 296.027L271.375 297.069C271.34 297.103 271.293 297.123 271.244 297.123C271.195 297.123 271.148 297.103 271.113 297.069C271.072 297.023 271.041 296.968 271.023 296.908C271.004 296.849 270.999 296.786 271.006 296.725V282.892C271.006 282.73 271.042 282.57 271.113 282.424C271.167 282.292 271.258 282.177 271.375 282.096L275.143 279.929ZM273.575 287.317L275.143 286.414C275.527 286.189 275.855 285.88 276.104 285.511C276.377 285.074 276.512 284.564 276.49 284.05C276.49 283.45 276.358 283.114 276.104 283.032C275.938 282.999 275.767 283.002 275.601 283.038C275.436 283.075 275.28 283.145 275.143 283.245L273.575 284.173V287.317Z" fill="#455A64"/>
<path d="M285.142 274.149C285.647 273.838 286.203 273.618 286.784 273.501C287.201 273.418 287.634 273.485 288.007 273.69C288.401 273.942 288.692 274.326 288.828 274.773C289.003 275.428 289.069 276.108 289.025 276.784C289.035 277.772 288.891 278.755 288.598 279.699C288.327 280.535 287.914 281.319 287.375 282.014L289.091 286.118C289.123 286.185 289.139 286.258 289.14 286.332C289.138 286.465 289.107 286.597 289.05 286.718C289.001 286.823 288.924 286.914 288.828 286.98L286.94 288.072C286.759 288.179 286.628 288.187 286.546 288.072C286.467 287.991 286.403 287.897 286.357 287.793L284.847 284.173L283.574 284.912V289.492C283.571 289.655 283.532 289.815 283.459 289.96C283.406 290.091 283.314 290.202 283.197 290.28L281.374 291.331C281.338 291.364 281.291 291.381 281.243 291.381C281.194 291.381 281.148 291.364 281.111 291.331C281.072 291.284 281.042 291.229 281.024 291.17C281.005 291.11 280.999 291.048 281.005 290.986V277.121C281.005 276.956 281.041 276.794 281.111 276.645C281.165 276.514 281.257 276.403 281.374 276.325L285.142 274.149ZM283.574 281.538L285.142 280.626C285.529 280.409 285.858 280.102 286.103 279.732C286.375 279.294 286.51 278.785 286.489 278.27C286.489 277.671 286.357 277.335 286.103 277.252C285.937 277.221 285.766 277.223 285.6 277.26C285.435 277.296 285.279 277.367 285.142 277.466L283.574 278.369V281.538Z" fill="#455A64"/>
<path d="M290.667 276.53C290.694 275.699 290.807 274.874 291.004 274.067C291.193 273.263 291.469 272.481 291.825 271.736C292.186 271.013 292.636 270.337 293.163 269.724C293.677 269.124 294.291 268.615 294.977 268.222C295.517 267.872 296.14 267.671 296.783 267.639C297.271 267.627 297.747 267.793 298.121 268.107C298.513 268.472 298.797 268.938 298.942 269.453C299.153 270.12 299.266 270.814 299.279 271.514C299.279 272.113 299.279 272.754 299.279 273.418C299.279 274.083 299.279 274.724 299.279 275.323C299.252 276.153 299.139 276.979 298.942 277.786C298.755 278.593 298.479 279.378 298.121 280.125C297.763 280.85 297.313 281.526 296.783 282.137C296.268 282.731 295.658 283.236 294.977 283.631C294.433 283.982 293.809 284.189 293.163 284.23C292.674 284.242 292.199 284.076 291.825 283.762C291.439 283.386 291.156 282.916 291.004 282.399C290.793 281.732 290.679 281.038 290.667 280.339C290.667 279.764 290.667 279.14 290.667 278.475C290.667 277.81 290.667 277.154 290.667 276.53ZM296.766 276.71C296.766 276.448 296.766 276.16 296.766 275.84C296.766 275.52 296.766 275.2 296.766 274.872C296.766 274.543 296.766 274.231 296.766 273.927C296.766 273.624 296.766 273.361 296.766 273.107C296.749 272.801 296.7 272.498 296.619 272.204C296.558 271.981 296.442 271.778 296.282 271.612C296.136 271.479 295.946 271.404 295.749 271.399C295.482 271.412 295.224 271.497 295.002 271.645C294.715 271.807 294.459 272.018 294.246 272.269C294.033 272.518 293.854 272.794 293.713 273.09C293.568 273.403 293.458 273.73 293.384 274.067C293.301 274.417 293.252 274.775 293.237 275.134C293.237 275.389 293.237 275.668 293.237 275.955C293.237 276.242 293.237 276.587 293.237 276.916C293.237 277.244 293.237 277.564 293.237 277.868C293.237 278.172 293.237 278.459 293.237 278.689C293.22 279.229 293.388 279.759 293.713 280.191C294 280.495 294.427 280.487 295.002 280.15C295.572 279.825 296.02 279.32 296.274 278.713C296.557 278.08 296.729 277.402 296.783 276.71H296.766Z" fill="#455A64"/>
<path d="M305.444 262.418C305.948 262.107 306.504 261.887 307.085 261.77C307.503 261.687 307.936 261.754 308.309 261.959C308.702 262.211 308.993 262.595 309.13 263.042C309.329 263.693 309.421 264.373 309.4 265.053C309.41 266.041 309.266 267.024 308.974 267.968C308.701 268.806 308.287 269.592 307.75 270.291L309.466 274.395C309.498 274.462 309.515 274.535 309.515 274.609C309.513 274.742 309.482 274.874 309.425 274.995C309.376 275.1 309.299 275.191 309.203 275.257L307.315 276.349C307.135 276.456 307.003 276.464 306.921 276.349C306.842 276.269 306.778 276.174 306.732 276.07L305.189 272.384L303.917 273.123V277.704C303.914 277.866 303.874 278.026 303.802 278.172C303.748 278.302 303.657 278.414 303.539 278.492L301.717 279.543C301.681 279.575 301.634 279.593 301.585 279.593C301.537 279.593 301.49 279.575 301.454 279.543C301.414 279.495 301.384 279.44 301.366 279.381C301.348 279.322 301.341 279.26 301.347 279.198V265.39C301.348 265.225 301.384 265.063 301.454 264.914C301.508 264.783 301.599 264.672 301.717 264.594L305.444 262.418ZM303.876 269.807L305.444 268.895C305.831 268.676 306.163 268.37 306.412 268C306.682 267.562 306.814 267.053 306.79 266.539C306.79 265.94 306.667 265.603 306.412 265.521C306.245 265.489 306.072 265.491 305.906 265.528C305.739 265.564 305.582 265.635 305.444 265.735L303.876 266.638V269.807Z" fill="#455A64"/>
<path d="M243.636 318.84C244.457 318.348 245.163 318.274 245.639 318.627C246.116 318.98 246.354 319.743 246.354 320.95C246.378 322.046 246.133 323.131 245.639 324.11C245.19 324.993 244.494 325.725 243.636 326.22L241.937 327.197V330.858C241.934 330.981 241.903 331.102 241.847 331.211C241.808 331.314 241.74 331.403 241.65 331.466L240.829 331.958C240.801 331.985 240.765 332 240.726 332C240.688 332 240.651 331.985 240.624 331.958C240.593 331.924 240.57 331.884 240.555 331.84C240.541 331.796 240.537 331.75 240.542 331.704V321.114C240.541 320.989 240.569 320.865 240.624 320.753C240.667 320.653 240.738 320.567 240.829 320.507L243.636 318.84ZM241.937 325.153L243.579 324.201C244.009 323.966 244.363 323.614 244.598 323.185C244.834 322.755 244.942 322.268 244.909 321.779C244.909 321.163 244.786 320.81 244.548 320.712C244.38 320.674 244.207 320.674 244.039 320.71C243.872 320.747 243.715 320.821 243.579 320.925L241.937 321.878V325.153Z" fill="#E0E0E0"/>
<path d="M250.836 314.695C250.943 314.629 251.033 314.621 251.09 314.695C251.167 314.79 251.217 314.903 251.238 315.023L253.849 323.872C253.849 323.872 253.849 323.938 253.849 323.979C253.846 324.104 253.818 324.227 253.767 324.34C253.725 324.442 253.653 324.528 253.561 324.587L252.798 325.03C252.65 325.112 252.552 325.129 252.494 325.03C252.439 324.973 252.399 324.902 252.379 324.825L251.92 323.273L248.57 325.219L248.11 327.296C248.081 327.411 248.042 327.523 247.996 327.632C247.933 327.768 247.826 327.878 247.692 327.944L246.928 328.388C246.9 328.412 246.863 328.426 246.826 328.426C246.788 328.426 246.752 328.412 246.723 328.388C246.662 328.314 246.633 328.22 246.641 328.125C246.637 328.084 246.637 328.043 246.641 328.002L249.26 316.189C249.29 316.017 249.34 315.849 249.408 315.688C249.457 315.566 249.547 315.465 249.662 315.401L250.836 314.695ZM251.419 321.549L250.245 317.551L249.079 322.896L251.419 321.549Z" fill="#E0E0E0"/>
<path d="M254.678 316.714C254.687 316.065 254.764 315.418 254.908 314.785C255.048 314.181 255.255 313.595 255.523 313.036C255.791 312.502 256.127 312.005 256.525 311.559C256.924 311.117 257.389 310.741 257.904 310.442C258.358 310.138 258.885 309.962 259.431 309.933C259.777 309.93 260.113 310.046 260.383 310.262C260.628 310.479 260.803 310.765 260.884 311.082C260.974 311.348 261.03 311.624 261.048 311.903C261.057 312.031 261.032 312.158 260.974 312.273C260.928 312.371 260.854 312.454 260.761 312.511L259.94 313.012C259.866 313.053 259.8 313.061 259.759 313.012C259.711 312.98 259.674 312.934 259.653 312.88C259.621 312.804 259.586 312.73 259.546 312.659C259.477 312.537 259.378 312.436 259.259 312.363C259.101 312.275 258.922 312.232 258.741 312.24C258.449 312.258 258.166 312.351 257.92 312.511C257.365 312.842 256.919 313.331 256.64 313.915C256.314 314.556 256.14 315.264 256.131 315.983C256.131 316.41 256.131 316.862 256.131 317.33C256.131 317.798 256.131 318.249 256.131 318.651C256.131 319.546 256.32 320.113 256.64 320.293C256.842 320.402 257.071 320.448 257.299 320.426C257.527 320.404 257.743 320.315 257.92 320.17C258.182 320.016 258.425 319.831 258.643 319.62C258.869 319.399 259.06 319.144 259.209 318.865C259.383 318.555 259.507 318.22 259.579 317.871C259.675 317.457 259.722 317.033 259.718 316.607V316.476L258.413 317.231C258.385 317.254 258.35 317.266 258.315 317.266C258.279 317.266 258.244 317.254 258.216 317.231C258.185 317.195 258.162 317.154 258.148 317.108C258.133 317.063 258.129 317.016 258.134 316.968V315.803C258.133 315.678 258.161 315.554 258.216 315.442C258.26 315.344 258.327 315.259 258.413 315.195L260.876 313.783C260.902 313.757 260.937 313.743 260.974 313.743C261.011 313.743 261.047 313.757 261.073 313.783C261.106 313.818 261.131 313.86 261.146 313.905C261.162 313.95 261.168 313.998 261.163 314.046V315.844C261.161 316.492 261.092 317.139 260.958 317.773C260.831 318.387 260.627 318.983 260.35 319.546C260.084 320.095 259.744 320.606 259.341 321.065C258.936 321.525 258.459 321.915 257.929 322.222C257.503 322.494 257.019 322.66 256.517 322.707C256.337 322.717 256.157 322.691 255.988 322.63C255.819 322.57 255.664 322.476 255.532 322.354C255.236 322.061 255.028 321.691 254.932 321.286C254.783 320.752 254.706 320.2 254.702 319.645C254.702 319.439 254.702 319.21 254.702 318.963C254.702 318.717 254.702 318.454 254.702 318.192C254.702 317.929 254.702 317.674 254.702 317.42C254.702 317.165 254.67 316.927 254.678 316.714Z" fill="#E0E0E0"/>
<path d="M267.681 314.374C267.709 314.348 267.746 314.333 267.784 314.333C267.822 314.333 267.859 314.348 267.886 314.374C267.919 314.409 267.944 314.451 267.96 314.496C267.976 314.541 267.981 314.589 267.977 314.637V315.795C267.975 315.92 267.944 316.044 267.886 316.156C267.848 316.259 267.776 316.346 267.681 316.402L263.01 319.103C262.983 319.127 262.948 319.141 262.912 319.141C262.875 319.141 262.84 319.127 262.813 319.103C262.78 319.068 262.755 319.027 262.74 318.981C262.724 318.936 262.718 318.888 262.723 318.84V308.259C262.725 308.133 262.756 308.009 262.813 307.897C262.852 307.797 262.92 307.711 263.01 307.651L267.599 304.999C267.628 304.975 267.664 304.961 267.702 304.961C267.739 304.961 267.776 304.975 267.804 304.999C267.835 305.035 267.859 305.077 267.873 305.122C267.887 305.167 267.892 305.215 267.886 305.262V306.428C267.886 306.55 267.858 306.671 267.804 306.781C267.763 306.885 267.692 306.973 267.599 307.035L264.159 309.014V311.624L267.369 309.769C267.397 309.746 267.432 309.734 267.468 309.734C267.504 309.734 267.538 309.746 267.566 309.769C267.598 309.804 267.623 309.846 267.638 309.891C267.654 309.936 267.66 309.984 267.657 310.032V311.263C267.655 311.389 267.624 311.512 267.566 311.624C267.523 311.722 267.455 311.807 267.369 311.871L264.176 313.726V316.451L267.681 314.374Z" fill="#E0E0E0"/>
<path d="M277.097 310.992C276.974 311.066 276.884 311.066 276.826 310.992L276.687 310.845L273.707 305.747V312.495C273.705 312.62 273.674 312.744 273.616 312.856C273.578 312.956 273.509 313.043 273.419 313.102L272.557 313.603C272.53 313.629 272.493 313.644 272.455 313.644C272.417 313.644 272.38 313.629 272.352 313.603C272.321 313.567 272.297 313.526 272.283 313.48C272.269 313.435 272.265 313.387 272.27 313.34V302.759C272.27 302.633 272.298 302.51 272.352 302.397C272.391 302.294 272.463 302.207 272.557 302.151L273.296 301.716C273.419 301.65 273.51 301.642 273.575 301.716C273.627 301.76 273.673 301.81 273.715 301.864L276.695 306.962V300.214C276.694 300.089 276.722 299.965 276.777 299.852C276.819 299.751 276.89 299.665 276.982 299.606L277.803 299.105C277.831 299.079 277.867 299.064 277.906 299.064C277.944 299.064 277.981 299.079 278.008 299.105C278.069 299.179 278.098 299.273 278.09 299.368V309.95C278.086 310.074 278.058 310.197 278.008 310.311C277.967 310.412 277.895 310.498 277.803 310.557L277.097 310.992Z" fill="#E0E0E0"/>
<path d="M279.806 302.233C279.823 301.607 279.898 300.983 280.028 300.37C280.157 299.77 280.352 299.186 280.611 298.629C280.86 298.087 281.184 297.581 281.571 297.127C281.953 296.667 282.414 296.281 282.934 295.986C283.336 295.725 283.801 295.574 284.28 295.551C284.458 295.55 284.635 295.584 284.8 295.652C284.965 295.719 285.115 295.819 285.241 295.945C285.522 296.249 285.723 296.618 285.824 297.02C285.97 297.542 286.05 298.08 286.062 298.621C286.062 298.826 286.062 299.048 286.062 299.302V300.854C286.062 301.108 286.062 301.338 286.062 301.552C286.038 302.178 285.961 302.802 285.832 303.415C285.705 304.016 285.509 304.6 285.249 305.156C284.999 305.698 284.676 306.204 284.288 306.658C283.906 307.108 283.447 307.489 282.934 307.783C282.527 308.049 282.057 308.202 281.571 308.226C281.213 308.228 280.868 308.089 280.611 307.84C280.329 307.536 280.129 307.166 280.028 306.765C279.889 306.242 279.814 305.704 279.806 305.164C279.806 304.967 279.806 304.737 279.806 304.491C279.806 304.244 279.806 303.982 279.806 303.711C279.806 303.44 279.806 303.185 279.806 302.931C279.806 302.676 279.798 302.455 279.806 302.233ZM284.625 299.532C284.667 298.974 284.49 298.42 284.133 297.989C283.956 297.864 283.743 297.801 283.526 297.808C283.31 297.816 283.102 297.893 282.934 298.03C282.409 298.349 281.991 298.818 281.735 299.376C281.417 300.034 281.248 300.755 281.243 301.486C281.243 301.913 281.243 302.373 281.243 302.882C281.243 303.391 281.243 303.85 281.243 304.253C281.217 304.528 281.247 304.807 281.332 305.071C281.417 305.334 281.554 305.578 281.735 305.788C282.039 306.042 282.433 306.026 282.934 305.738C283.455 305.422 283.872 304.959 284.133 304.409C284.442 303.747 284.61 303.029 284.625 302.299C284.625 301.88 284.625 301.412 284.625 300.903C284.625 300.394 284.633 299.951 284.625 299.541V299.532Z" fill="#E0E0E0"/>
<path d="M292.539 290.609C292.567 290.584 292.604 290.57 292.641 290.57C292.679 290.57 292.716 290.584 292.744 290.609C292.775 290.645 292.798 290.686 292.812 290.732C292.826 290.777 292.831 290.824 292.826 290.872V292.037C292.827 292.162 292.799 292.286 292.744 292.398C292.701 292.499 292.629 292.584 292.539 292.645L290.667 293.761V302.742C290.664 302.867 290.636 302.99 290.585 303.103C290.543 303.204 290.472 303.29 290.38 303.35L289.559 303.85C289.53 303.875 289.494 303.889 289.456 303.889C289.418 303.889 289.382 303.875 289.354 303.85C289.322 303.815 289.299 303.773 289.284 303.728C289.27 303.682 289.266 303.635 289.271 303.588V294.599L287.277 295.666C287.249 295.692 287.212 295.707 287.174 295.707C287.136 295.707 287.099 295.692 287.071 295.666C287.041 295.631 287.017 295.591 287.003 295.547C286.989 295.503 286.984 295.457 286.989 295.411V294.245C286.989 294.12 287.017 293.997 287.071 293.884C287.11 293.781 287.182 293.694 287.277 293.638L292.539 290.609Z" fill="#E0E0E0"/>
<path d="M301.421 285.486C301.448 285.462 301.483 285.448 301.52 285.448C301.556 285.448 301.591 285.462 301.618 285.486C301.651 285.521 301.676 285.562 301.692 285.608C301.707 285.653 301.713 285.701 301.708 285.749V286.906C301.706 287.032 301.676 287.156 301.618 287.268C301.58 287.368 301.511 287.454 301.421 287.514L298.055 289.492V292.669L301.241 290.839C301.268 290.814 301.303 290.801 301.339 290.801C301.375 290.801 301.41 290.814 301.438 290.839C301.469 290.874 301.493 290.916 301.509 290.961C301.524 291.006 301.531 291.054 301.528 291.101V292.267C301.526 292.393 301.495 292.516 301.438 292.628C301.399 292.729 301.33 292.815 301.241 292.874L298.055 294.721V298.473C298.056 298.598 298.028 298.722 297.973 298.834C297.935 298.937 297.862 299.024 297.768 299.081L296.906 299.581C296.878 299.606 296.841 299.62 296.803 299.62C296.766 299.62 296.729 299.606 296.701 299.581C296.67 299.546 296.647 299.504 296.632 299.459C296.618 299.413 296.614 299.366 296.619 299.319V288.721C296.618 288.595 296.646 288.472 296.701 288.359C296.739 288.256 296.812 288.169 296.906 288.113L301.421 285.486Z" fill="#E0E0E0"/>
<path d="M302.866 288.926C302.886 288.299 302.963 287.675 303.096 287.062C303.22 286.462 303.413 285.878 303.67 285.322C303.923 284.781 304.246 284.276 304.631 283.82C305.014 283.362 305.476 282.976 305.994 282.679C306.399 282.416 306.866 282.266 307.348 282.244C307.525 282.243 307.7 282.278 307.864 282.345C308.027 282.413 308.176 282.512 308.3 282.638C308.581 282.944 308.784 283.312 308.891 283.713C309.035 284.235 309.112 284.773 309.121 285.314C309.121 285.519 309.121 285.741 309.121 285.995C309.121 286.25 309.121 286.504 309.121 286.767C309.121 287.03 309.121 287.292 309.121 287.547C309.121 287.801 309.121 288.039 309.121 288.245C309.102 288.871 309.025 289.495 308.891 290.108C308.767 290.708 308.574 291.292 308.317 291.848C308.064 292.391 307.738 292.896 307.348 293.351C306.965 293.801 306.507 294.182 305.994 294.475C305.587 294.743 305.117 294.896 304.631 294.919C304.273 294.919 303.929 294.781 303.67 294.533C303.389 294.23 303.191 293.859 303.096 293.457C302.954 292.935 302.876 292.398 302.866 291.857C302.866 291.66 302.866 291.43 302.866 291.184C302.866 290.937 302.866 290.675 302.866 290.363C302.866 290.051 302.866 289.837 302.866 289.583C302.866 289.328 302.858 289.139 302.866 288.926ZM307.685 286.225C307.709 285.948 307.678 285.669 307.594 285.404C307.509 285.139 307.373 284.893 307.192 284.682C306.888 284.427 306.486 284.444 305.994 284.731C305.471 285.049 305.054 285.514 304.795 286.069C304.476 286.727 304.308 287.448 304.303 288.179C304.303 288.606 304.303 289.066 304.303 289.574C304.303 290.083 304.303 290.543 304.303 290.945C304.277 291.221 304.307 291.5 304.392 291.763C304.476 292.027 304.614 292.271 304.795 292.481C305.099 292.735 305.501 292.719 305.994 292.431C306.515 292.115 306.931 291.652 307.192 291.101C307.511 290.443 307.679 289.723 307.685 288.992C307.685 288.573 307.685 288.105 307.685 287.596C307.685 287.087 307.701 286.636 307.685 286.225V286.225Z" fill="#E0E0E0"/>
<path d="M316.551 276.784C316.579 276.76 316.616 276.746 316.653 276.746C316.691 276.746 316.728 276.76 316.756 276.784C316.817 276.858 316.846 276.952 316.838 277.047V283.77C316.839 284.424 316.775 285.075 316.649 285.716C316.538 286.314 316.359 286.898 316.116 287.456C315.868 287.987 315.544 288.479 315.155 288.918C314.774 289.349 314.325 289.715 313.825 290.001C313.425 290.264 312.964 290.419 312.487 290.453C312.313 290.46 312.139 290.433 311.975 290.373C311.812 290.312 311.662 290.219 311.535 290.1C311.25 289.797 311.054 289.423 310.968 289.016C310.834 288.452 310.77 287.872 310.78 287.292V280.569C310.783 280.443 310.814 280.32 310.87 280.208C310.911 280.108 310.979 280.023 311.067 279.961L311.888 279.461C311.916 279.436 311.953 279.422 311.99 279.422C312.028 279.422 312.065 279.436 312.093 279.461C312.154 279.534 312.184 279.628 312.175 279.723V286.356C312.165 286.722 312.206 287.086 312.298 287.44C312.345 287.666 312.46 287.872 312.627 288.031C312.697 288.088 312.779 288.131 312.866 288.156C312.954 288.182 313.045 288.189 313.136 288.179C313.365 288.141 313.585 288.06 313.784 287.941C314.29 287.646 314.699 287.21 314.958 286.685C315.108 286.374 315.219 286.046 315.286 285.708C315.373 285.309 315.414 284.901 315.41 284.493V277.852C315.412 277.726 315.443 277.602 315.5 277.49C315.541 277.389 315.609 277.301 315.697 277.236L316.551 276.784Z" fill="#E0E0E0"/>
<path d="M323.545 284.173C323.422 284.238 323.332 284.247 323.266 284.173C323.215 284.128 323.168 284.078 323.126 284.025L320.146 278.935V285.683C320.147 285.808 320.119 285.932 320.064 286.044C320.023 286.146 319.951 286.232 319.859 286.291L318.997 286.791C318.97 286.816 318.935 286.829 318.899 286.829C318.862 286.829 318.827 286.816 318.8 286.791C318.768 286.756 318.743 286.714 318.728 286.669C318.712 286.624 318.706 286.576 318.71 286.529V275.963C318.713 275.84 318.744 275.72 318.8 275.61C318.841 275.509 318.909 275.421 318.997 275.356L319.744 274.929C319.867 274.863 319.958 274.855 320.023 274.929L320.163 275.077L323.143 280.167V273.419C323.142 273.293 323.17 273.17 323.225 273.057C323.268 272.96 323.336 272.875 323.422 272.811L324.292 272.31C324.32 272.288 324.355 272.275 324.39 272.275C324.426 272.275 324.461 272.288 324.489 272.31C324.521 272.346 324.545 272.388 324.56 272.433C324.576 272.478 324.582 272.525 324.579 272.573V283.155C324.577 283.28 324.546 283.404 324.489 283.516C324.448 283.617 324.38 283.705 324.292 283.77L323.545 284.173Z" fill="#E0E0E0"/>
<path d="M329.415 269.322C329.828 269.058 330.297 268.894 330.785 268.846C330.962 268.836 331.139 268.863 331.306 268.924C331.472 268.984 331.625 269.078 331.754 269.199C332.044 269.501 332.248 269.875 332.345 270.283C332.501 270.845 332.586 271.424 332.6 272.007C332.6 272.827 332.6 273.607 332.6 274.428C332.576 275.105 332.491 275.778 332.345 276.44C332.223 277.049 332.027 277.642 331.762 278.205C331.513 278.733 331.193 279.224 330.81 279.666C330.426 280.099 329.974 280.468 329.472 280.758L326.788 282.309C326.761 282.333 326.725 282.347 326.689 282.347C326.653 282.347 326.618 282.333 326.591 282.309C326.559 282.274 326.534 282.232 326.519 282.187C326.503 282.142 326.497 282.094 326.5 282.046V271.448C326.502 271.323 326.533 271.199 326.591 271.087C326.626 270.985 326.696 270.898 326.788 270.841L329.415 269.322ZM331.163 272.836C331.154 272.531 331.11 272.228 331.032 271.933C330.974 271.711 330.861 271.508 330.703 271.342C330.631 271.271 330.545 271.217 330.45 271.181C330.355 271.146 330.254 271.131 330.153 271.136C329.861 271.146 329.577 271.237 329.332 271.399L327.904 272.22V279.608L329.382 278.787C329.67 278.628 329.926 278.417 330.137 278.163C330.353 277.917 330.533 277.64 330.671 277.343C330.817 277.03 330.927 276.703 330.999 276.366C331.072 276.017 331.116 275.663 331.13 275.307C331.188 274.437 331.188 273.624 331.163 272.836Z" fill="#E0E0E0"/>
<defs>
<clipPath id="clip0_1_11">
<rect width="32.3052" height="10" fill="white" transform="matrix(0.838671 -0.544639 0 1 149 220.595)"/>
</clipPath>
</defs>
</svg>
