<svg width="87" height="37" viewBox="0 0 87 37" fill="none" xmlns="http://www.w3.org/2000/svg">
<g clip-path="url(#clip0_22_27812)">
<path d="M4.20762 31.3118C3.02229 30.952 2.50371 30.7244 2.50371 30.0471C2.50371 29.4403 3.31157 29.2251 4.00301 29.2251C4.60803 29.2251 5.2589 29.4051 5.70165 29.6943C5.8057 29.7631 5.93445 29.7825 6.0544 29.749C6.17435 29.7173 6.2749 29.6344 6.33135 29.5215L6.53245 29.1193C6.6312 28.92 6.56595 28.6801 6.38075 28.5566C5.74395 28.1403 4.84086 27.8828 4.02418 27.8828C2.30615 27.8828 1.15257 28.7648 1.15257 30.0771C1.15257 31.7828 2.59367 32.2132 3.74901 32.5607C4.95904 32.924 5.4882 33.1568 5.4829 33.8765C5.4829 34.5997 4.63096 34.8572 3.83544 34.8572C3.07168 34.8572 2.24089 34.4515 1.73642 33.9859C1.63587 33.8924 1.50535 33.8395 1.37129 33.8553C1.23547 33.8712 1.11553 33.9488 1.04497 34.0652L0.812136 34.4568C0.708066 34.6297 0.738052 34.8502 0.880926 34.9913C1.62882 35.7286 2.75771 36.1872 3.8231 36.1872C5.62225 36.1872 6.8323 35.2523 6.8323 33.8677C6.8464 32.1126 5.3824 31.6681 4.20762 31.3118Z" fill="#254A9A"/>
<path d="M12.1391 28.16C12.0685 28.0048 11.9115 27.9043 11.7404 27.9043H11.2642C11.0913 27.9043 10.9361 28.0048 10.8655 28.1618L7.50881 35.5613C7.44711 35.6971 7.45946 35.8541 7.53881 35.9793C7.61996 36.1046 7.75756 36.1804 7.90746 36.1804H8.39431C8.56716 36.1804 8.72236 36.0799 8.79296 35.9229L9.62901 34.0743H13.3967L14.2434 35.9264C14.3139 36.0817 14.4709 36.1822 14.6402 36.1822H15.1271C15.277 36.1822 15.4146 36.1063 15.4957 35.9811C15.5769 35.8559 15.5875 35.6989 15.5257 35.5631L12.1391 28.16ZM10.2164 32.7514L11.4988 29.908L12.7952 32.7514H10.2164Z" fill="#254A9A"/>
<path d="M17.7208 27.9043H17.2763C17.0347 27.9043 16.8389 28.1001 16.8389 28.3417V35.7412C16.8389 35.9829 17.0347 36.1787 17.2763 36.1787H17.7208C17.9625 36.1787 18.1583 35.9829 18.1583 35.7412V28.3417C18.1583 28.1018 17.9625 27.9043 17.7208 27.9043Z" fill="#254A9A"/>
<path d="M26.9525 27.9043H26.5186C26.2752 27.9043 26.0812 28.1001 26.0812 28.3417V33.7304L21.9272 28.0824C21.8443 27.9695 21.7138 27.9043 21.5744 27.9043H21.0559C20.8142 27.9043 20.6184 28.1001 20.6184 28.3417V35.7412C20.6184 35.9829 20.8142 36.1787 21.0559 36.1787H21.5004C21.742 36.1787 21.9378 35.9829 21.9378 35.7412V30.3543L26.0812 36.0005C26.1623 36.1117 26.2946 36.1787 26.434 36.1787H26.9525C27.1942 36.1787 27.39 35.9829 27.39 35.7412V28.3417C27.39 28.1018 27.1942 27.9043 26.9525 27.9043Z" fill="#254A9A"/>
<path d="M34.5846 27.9043H29.143C28.9014 27.9043 28.7056 28.1001 28.7056 28.3417V28.7756C28.7056 29.0155 28.9014 29.2131 29.143 29.2131H31.205V35.7412C31.205 35.9829 31.4008 36.1787 31.6425 36.1787H32.0852C32.3286 36.1787 32.5244 35.9829 32.5244 35.7412V29.2131H34.5846C34.8263 29.2131 35.0221 29.0173 35.0221 28.7756V28.3417C35.0221 28.1018 34.8263 27.9043 34.5846 27.9043Z" fill="#254A9A"/>
<path d="M37.8393 31.9385H35.4775C35.2358 31.9385 35.04 32.1343 35.04 32.3759V32.7357C35.04 32.9774 35.2358 33.1732 35.4775 33.1732H37.8393C38.081 33.1732 38.2768 32.9774 38.2768 32.7357V32.3759C38.2768 32.1343 38.081 31.9385 37.8393 31.9385Z" fill="#254A9A"/>
<path d="M47.0329 31.6728H46.6307C46.6289 31.6728 46.6254 31.6728 46.6237 31.6728H45.3096C45.0679 31.6728 44.8721 31.8686 44.8721 32.1102V32.5547C44.8721 32.7964 45.0679 32.9922 45.3096 32.9922H46.1933V34.3451C45.6782 34.6978 45.0591 34.8901 44.4294 34.8901C42.796 34.8901 41.4696 33.6095 41.4696 32.0361C41.4696 30.468 42.7978 29.191 44.4294 29.191C45.1878 29.191 45.934 29.4697 46.4772 29.9583C46.5672 30.0376 46.6854 30.0782 46.8053 30.0694C46.9253 30.0606 47.0346 30.0006 47.1105 29.9089L47.3751 29.5808C47.5215 29.3974 47.5003 29.131 47.3222 28.9758C46.5266 28.279 45.5001 27.8945 44.4294 27.8945C42.0693 27.8945 40.1484 29.7519 40.1484 32.0379C40.1484 34.3274 42.0587 36.1901 44.4082 36.1901C45.4701 36.1901 46.5302 35.8003 47.3204 35.1212C47.4156 35.0383 47.4721 34.9166 47.4721 34.7896V32.112C47.4721 31.8703 47.2745 31.6728 47.0329 31.6728Z" fill="#254A9A"/>
<path d="M53.2375 27.8945C50.8825 27.8945 48.9688 29.7519 48.9688 32.0379C48.9688 34.3292 50.8845 36.1901 53.2375 36.1901C55.5905 36.1901 57.5075 34.3274 57.5075 32.0379C57.5075 29.7519 55.5905 27.8945 53.2375 27.8945ZM53.2375 34.8813C51.6165 34.8813 50.2971 33.606 50.2971 32.0379C50.2971 30.4751 51.6165 29.2051 53.2375 29.2051C54.8585 29.2051 56.176 30.4751 56.176 32.0379C56.176 33.6042 54.8585 34.8813 53.2375 34.8813Z" fill="#254A9A"/>
<path d="M64.5131 31.8088C64.9576 31.426 65.2061 30.8616 65.2061 30.1736C65.2061 28.7749 64.1551 27.9053 62.4616 27.9053H59.4331C59.1931 27.9053 58.9956 28.1011 58.9956 28.3427V35.7422C58.9956 35.9839 59.1916 36.1797 59.4331 36.1797H62.4831C64.4216 36.1797 65.5766 35.273 65.5766 33.7526C65.5766 32.8936 65.1886 32.2092 64.5131 31.8088ZM62.4511 31.2602H60.3151V29.2141H62.4511C63.1056 29.2141 63.8871 29.3887 63.8871 30.2266C63.8871 30.9127 63.4036 31.2602 62.4511 31.2602ZM60.3151 32.569H62.4511C63.1251 32.569 64.2571 32.7154 64.2571 33.6979C64.2571 34.6663 63.2746 34.8691 62.4511 34.8691H60.3151V32.569Z" fill="#254A9A"/>
<path d="M70.9455 28.16C70.875 28.0048 70.718 27.9043 70.547 27.9043H70.071C69.898 27.9043 69.743 28.0048 69.672 28.1618L66.3175 35.5613C66.2555 35.6971 66.268 35.8541 66.349 35.9793C66.43 36.1046 66.568 36.1804 66.7175 36.1804H67.2045C67.3775 36.1804 67.5325 36.0799 67.603 35.9229L68.439 34.0743H72.205L73.052 35.9264C73.1225 36.0817 73.2795 36.1822 73.4505 36.1822H73.9375C74.0855 36.1822 74.225 36.1063 74.306 35.9811C74.387 35.8559 74.3975 35.6989 74.336 35.5631L70.9455 28.16ZM69.025 32.7514L70.307 29.908L71.6035 32.7514H69.025Z" fill="#254A9A"/>
<path d="M76.529 27.9043H76.0845C75.843 27.9043 75.647 28.1001 75.647 28.3417V35.7412C75.647 35.9829 75.843 36.1787 76.0845 36.1787H76.529C76.771 36.1787 76.9685 35.9829 76.9685 35.7412V28.3417C76.9685 28.1018 76.771 27.9043 76.529 27.9043Z" fill="#254A9A"/>
<path d="M85.761 27.9043H85.327C85.085 27.9043 84.8895 28.1001 84.8895 28.3417V33.7304L80.7355 28.0824C80.6545 27.9695 80.522 27.9043 80.3825 27.9043H79.864C79.6225 27.9043 79.4265 28.1001 79.4265 28.3417V35.7412C79.4265 35.9829 79.6225 36.1787 79.864 36.1787H80.3085C80.5505 36.1787 80.746 35.9829 80.746 35.7412V30.3543L84.8895 36.0005C84.9705 36.1117 85.103 36.1787 85.242 36.1787H85.761C86.0025 36.1787 86.198 35.9829 86.198 35.7412V28.3417C86.1965 28.1018 86.0025 27.9043 85.761 27.9043Z" fill="#254A9A"/>
<path d="M48.7839 16.2955V23.5697H47.4451V15.2936L48.7839 16.2955ZM74.7485 23.545H69.4795L69.4425 23.508L64.809 18.9254C64.62 18.7384 64.329 18.682 64.084 18.7843C63.835 18.8884 63.673 19.13 63.673 19.3999V23.5697H62.297V13.251C62.297 13.0675 62.221 12.8912 62.087 12.7659L58.2365 9.13054C58.113 9.01239 57.949 8.94889 57.778 8.94889H55.8535C55.485 8.94889 55.187 9.24874 55.187 9.61564V23.5697H53.8215V1.1666C53.8215 0.894957 53.6595 0.653302 53.407 0.549232C53.16 0.448692 52.8635 0.508662 52.6785 0.697402L46.3021 7.16734C46.1786 7.29259 46.1098 7.46014 46.1098 7.63479V12.6336L43.4993 10.6845C43.2612 10.5081 42.9137 10.5134 42.6826 10.6986L36.7471 15.4576C36.5884 15.5846 36.4984 15.7751 36.4984 15.978V23.5697H35.1526V19.3858C35.1526 17.9165 34.1401 16.3537 32.2668 16.3537C30.3918 16.3537 29.3811 17.9235 29.3811 19.3999V23.5697H28.0212V20.7316C28.0212 19.5816 27.2292 18.3592 25.7616 18.3592C24.2941 18.3592 23.5021 19.5833 23.5021 20.7352V23.5697H22.1474V23.4445C22.1456 22.873 22.1439 22.1392 22.1439 21.8464C22.1439 20.8692 21.2214 20.012 20.1701 20.012C19.1188 20.012 18.1963 20.8639 18.1963 21.8376V23.5697H12.252C11.8833 23.5697 11.5852 23.8696 11.5852 24.2365C11.5852 24.4146 11.654 24.5822 11.781 24.7092C11.908 24.8362 12.0738 24.905 12.252 24.905H18.8631C19.0412 24.905 19.2088 24.8362 19.334 24.7092C19.4592 24.584 19.5298 24.4164 19.5298 24.2382V21.9593C19.5298 21.7124 19.7979 21.3472 20.1701 21.3472C20.537 21.3472 20.8121 21.6824 20.8121 21.9805C20.8121 22.1516 20.8192 24.2418 20.8192 24.2418C20.821 24.6087 21.1191 24.9068 21.486 24.9068L24.1741 24.905C24.541 24.905 24.8409 24.6051 24.8409 24.2382V20.7334C24.8409 20.3736 25.0349 19.6909 25.7669 19.6909C26.4989 19.6909 26.693 20.37 26.693 20.7299V24.2347C26.693 24.6034 26.991 24.9015 27.3597 24.9015L30.0532 24.9032C30.2296 24.9032 30.4006 24.8327 30.5259 24.7074C30.6494 24.584 30.7217 24.4111 30.7217 24.2365V19.3999C30.7217 18.8072 31.0462 17.6872 32.2739 17.6872C33.4134 17.6872 33.8261 18.7032 33.8261 19.3858V24.2365C33.8261 24.6034 34.126 24.9032 34.4929 24.9032H37.1722C37.5409 24.9032 37.839 24.6034 37.839 24.2365V16.2972L37.8866 16.2584L43.1218 12.0604L46.1169 14.297V24.2365C46.1169 24.6034 46.4168 24.9032 46.7836 24.9032H49.4577C49.8246 24.9032 50.1244 24.6034 50.1244 24.2365V15.9603C50.1244 15.7522 50.0239 15.5511 49.8563 15.4259L47.4504 13.6285V7.90819L47.4874 7.87114L52.4935 2.79114V24.2365C52.4935 24.6034 52.793 24.9032 53.16 24.9032H55.8605C56.2275 24.9032 56.5275 24.6034 56.5275 24.2365V10.2806H57.5205L57.5575 10.3159L60.969 13.5385V24.2365C60.969 24.6034 61.2685 24.9032 61.6355 24.9032H64.3465C64.7155 24.9032 65.0135 24.6034 65.0135 24.2365V20.9962L68.744 24.6863C68.8695 24.8097 69.037 24.8785 69.213 24.8785H74.757C75.126 24.8785 75.424 24.5787 75.424 24.2118C75.417 23.8431 75.117 23.545 74.7485 23.545Z" fill="url(#paint0_linear_22_27812)"/>
</g>
<defs>
<linearGradient id="paint0_linear_22_27812" x1="11.505" y1="12.7022" x2="34.1138" y2="12.7022" gradientUnits="userSpaceOnUse">
<stop stop-color="#54B6AE"/>
<stop offset="0.1" stop-color="#54B6AE"/>
<stop offset="0.3" stop-color="#3B98DA"/>
<stop offset="0.42" stop-color="#254A9A"/>
<stop offset="0.55" stop-color="#ED1443"/>
<stop offset="0.84" stop-color="#F25C19"/>
<stop offset="1" stop-color="#F25C19"/>
</linearGradient>
<clipPath id="clip0_22_27812">
<rect width="86.5" height="37" fill="white" transform="translate(0.25)"/>
</clipPath>
</defs>
</svg>
