<svg width="24" height="150" viewBox="0 0 24 150" fill="none" xmlns="http://www.w3.org/2000/svg">
<path d="M9.93923 130.464H8.76465V137.34L18.2021 143.289V148.345H19.3707V142.621L16.282 140.615V136.228H19.3707V135.057H16.282V132.455H16.903L15.7246 131.119L14.7862 132.183L14.6024 132.391L14.5457 132.455H15.1134V133.721H9.93923V130.464ZM15.1134 136.228V139.904L9.93923 136.687V136.228H15.1134ZM15.1134 135.057H9.93923V134.139C11.664 134.139 13.3887 134.139 15.1134 134.138V135.057Z" fill="white"/>
<path d="M8.41085 133.485V133.965L4.59592 136.353L17.8496 144.94V145.353L3.9281 136.313L8.41085 133.485Z" fill="white"/>
<path d="M19.3707 126.45V134.72H18.9532V127.119L10.321 132.711V132.239L19.3707 126.45Z" fill="white"/>
<path d="M12.4511 119.776H14.804V120.541H16.9281V123.195H11.2551C10.1571 123.195 9.30524 122.896 8.69959 122.299C8.08959 121.698 7.78459 120.855 7.78459 119.77C7.78459 118.724 8.06127 117.951 8.61463 117.45C9.16363 116.949 10.0133 116.698 11.1636 116.698H16.9281V119.352H11.34C10.9915 119.352 10.7496 119.393 10.6146 119.476C10.4795 119.559 10.412 119.707 10.412 119.92C10.412 120.334 10.7213 120.541 11.34 120.541H12.4511V119.776ZM16.9281 109.463V111.907H13.2485C12.8738 111.907 12.6864 112.062 12.6864 112.371C12.6864 112.676 12.8738 112.829 13.2485 112.829H16.9281V115.273H13.2942C12.4446 115.273 11.73 114.992 11.1505 114.43C10.5666 113.868 10.2747 113.18 10.2747 112.365C10.2747 111.432 10.6124 110.685 11.2877 110.123C11.815 109.683 12.5491 109.463 13.4903 109.463H16.9281ZM10.5035 108.032V105.587H14.1831C14.5534 105.587 14.7386 105.433 14.7386 105.123C14.7386 104.818 14.5534 104.666 14.1831 104.666H10.5035V102.221H14.1373C14.9826 102.221 15.6972 102.502 16.2811 103.064C16.8606 103.627 17.1503 104.315 17.1503 105.13C17.1503 106.058 16.8126 106.805 16.1373 107.372C15.6101 107.812 14.8781 108.032 13.9413 108.032H10.5035ZM14.7059 95.398C15.4641 95.398 16.0523 95.6878 16.4706 96.2673C16.8845 96.8424 17.0915 97.6463 17.0915 98.679C17.0915 98.9796 17.061 99.3522 17 99.7966C16.939 100.237 16.8649 100.596 16.7778 100.875H14.8236C15.1896 100.051 15.3726 99.3631 15.3726 98.8097C15.3726 98.2651 15.231 97.9927 14.9478 97.9927C14.8301 97.9927 14.7343 98.0559 14.6602 98.1823C14.5818 98.3086 14.4532 98.6398 14.2746 99.1757C14.0872 99.7683 13.8389 100.2 13.5295 100.47C13.2202 100.74 12.8171 100.875 12.3204 100.875C11.6276 100.875 11.0808 100.601 10.6799 100.051C10.2747 99.4981 10.0721 98.7226 10.0721 97.7248C10.0721 97.1409 10.1571 96.5222 10.327 95.8686H12.2028C12.0851 96.1431 11.9871 96.4438 11.9086 96.7706C11.8302 97.0973 11.791 97.3718 11.791 97.5941C11.791 97.7771 11.8215 97.923 11.8825 98.032C11.9435 98.1409 12.0285 98.1953 12.1374 98.1953C12.2638 98.1953 12.3661 98.1365 12.4446 98.0189C12.523 97.9012 12.6167 97.6659 12.7256 97.313C12.926 96.6289 13.1831 96.1388 13.4968 95.8425C13.8105 95.5462 14.2136 95.398 14.7059 95.398ZM8.0068 91.8753H10.7322C10.4316 91.4613 10.2812 91.0474 10.2812 90.6335C10.2812 90.0061 10.5078 89.5093 10.961 89.1433C11.4141 88.773 12.0263 88.5878 12.7975 88.5878H16.9281V91.0322H13.4838C13.2049 91.0322 13.0175 91.0627 12.9217 91.1237C12.8258 91.1803 12.7779 91.2936 12.7779 91.4635C12.7779 91.738 12.9805 91.8753 13.3857 91.8753H16.9281V94.3196H8.0068V91.8753ZM14.4837 83.5357H17.0131C17.0479 83.7361 17.0654 83.9191 17.0654 84.0847C17.0654 85.065 16.7429 85.882 16.0981 86.5356C15.4532 87.1891 14.6449 87.5159 13.6733 87.5159C12.7278 87.5159 11.9261 87.187 11.2681 86.529C10.6102 85.8667 10.2812 85.0628 10.2812 84.1173C10.2812 83.0629 10.5906 82.2329 11.2093 81.6272C11.8237 81.0172 12.6646 80.7122 13.7321 80.7122H16.9281V83.1566H13.9086C13.5644 83.1566 13.2899 83.2416 13.0851 83.4115C12.8803 83.5771 12.7779 83.8014 12.7779 84.0847C12.7779 84.3417 12.8716 84.564 13.0589 84.7513C13.2463 84.9387 13.4685 85.0323 13.7256 85.0323C13.9957 85.0323 14.2179 84.9474 14.3922 84.7775C14.5665 84.6075 14.6537 84.3918 14.6537 84.1304C14.6537 83.9169 14.597 83.7187 14.4837 83.5357ZM16.9281 70.3465V72.7909H13.4119C13.1417 72.7909 12.9544 72.8192 12.8498 72.8759C12.7452 72.9325 12.6929 73.0349 12.6929 73.183C12.6929 73.4575 12.9348 73.5948 13.4184 73.5948H16.9281V76.0392H13.4119C13.1417 76.0392 12.9544 76.0697 12.8498 76.1307C12.7452 76.1873 12.6929 76.2897 12.6929 76.4378C12.6929 76.708 12.9348 76.8431 13.4184 76.8431H16.9281V79.2874H12.9152C12.1831 79.2874 11.5623 79.0412 11.0525 78.5489C10.5383 78.0565 10.2812 77.4596 10.2812 76.7581C10.2812 76.0348 10.5862 75.3856 11.1962 74.8104C10.5862 74.1699 10.2812 73.5294 10.2812 72.8889C10.2812 72.0741 10.5775 71.4206 11.1701 70.9282C11.632 70.5404 12.3051 70.3465 13.1897 70.3465H16.9281ZM8.0068 62.7258H16.9281V65.3794H8.0068V62.7258ZM16.9281 55.3078V57.7521H13.2485C12.8738 57.7521 12.6864 57.9068 12.6864 58.2162C12.6864 58.5212 12.8738 58.6737 13.2485 58.6737H16.9281V61.118H13.2942C12.4446 61.118 11.73 60.837 11.1505 60.2749C10.5666 59.7129 10.2747 59.0244 10.2747 58.2096C10.2747 57.2772 10.6124 56.5299 11.2877 55.9679C11.815 55.5278 12.5491 55.3078 13.4903 55.3078H16.9281ZM8.0068 49.8635V47.4191H13.438C14.4358 47.4191 15.2484 47.6805 15.8758 48.2034C16.2375 48.504 16.5251 48.8875 16.7386 49.3537C16.9521 49.8156 17.0588 50.2905 17.0588 50.7785C17.0588 51.7501 16.732 52.5693 16.0785 53.2359C15.4249 53.9026 14.6232 54.2359 13.6733 54.2359C12.7539 54.2359 11.9588 53.9048 11.2877 53.2425C10.6167 52.5802 10.2812 51.7959 10.2812 50.8896C10.2812 50.7458 10.2943 50.528 10.3205 50.236H13.0132C12.8563 50.4364 12.7779 50.6369 12.7779 50.8373C12.7779 51.09 12.8716 51.3079 13.0589 51.4909C13.2419 51.6695 13.4642 51.7588 13.7256 51.7588C13.9783 51.7588 14.1962 51.6652 14.3792 51.4778C14.5578 51.2905 14.6471 51.0661 14.6471 50.8046C14.6471 50.1772 14.2136 49.8635 13.3465 49.8635H8.0068ZM10.5035 46.125V43.6807H14.1831C14.5534 43.6807 14.7386 43.526 14.7386 43.2166C14.7386 42.9116 14.5534 42.7591 14.1831 42.7591H10.5035V40.3148H14.1373C14.9826 40.3148 15.6972 40.5958 16.2811 41.1579C16.8606 41.7199 17.1503 42.4084 17.1503 43.2232C17.1503 44.1512 16.8126 44.8985 16.1373 45.4649C15.6101 45.905 14.8781 46.125 13.9413 46.125H10.5035ZM14.7059 33.4914C15.4641 33.4914 16.0523 33.7812 16.4706 34.3607C16.8845 34.9358 17.0915 35.7397 17.0915 36.7724C17.0915 37.073 17.061 37.4456 17 37.89C16.939 38.3301 16.8649 38.6895 16.7778 38.9684H14.8236C15.1896 38.1449 15.3726 37.4564 15.3726 36.9031C15.3726 36.3584 15.231 36.0861 14.9478 36.0861C14.8301 36.0861 14.7343 36.1493 14.6602 36.2757C14.5818 36.402 14.4532 36.7332 14.2746 37.2691C14.0872 37.8617 13.8389 38.293 13.5295 38.5632C13.2202 38.8333 12.8171 38.9684 12.3204 38.9684C11.6276 38.9684 11.0808 38.6939 10.6799 38.1449C10.2747 37.5915 10.0721 36.8159 10.0721 35.8182C10.0721 35.2343 10.1571 34.6156 10.327 33.962H12.2028C12.0851 34.2365 11.9871 34.5371 11.9086 34.8639C11.8302 35.1907 11.791 35.4652 11.791 35.6874C11.791 35.8704 11.8215 36.0164 11.8825 36.1253C11.9435 36.2343 12.0285 36.2887 12.1374 36.2887C12.2638 36.2887 12.3661 36.2299 12.4446 36.1123C12.523 35.9946 12.6167 35.7593 12.7256 35.4064C12.926 34.7223 13.1831 34.2321 13.4968 33.9359C13.8105 33.6396 14.2136 33.4914 14.7059 33.4914ZM8.0068 30.2366H10.5035V29.1386H13.0851V30.2366C13.6036 30.2366 13.9609 30.156 14.1569 29.9948C14.353 29.8292 14.4511 29.5286 14.4511 29.0929H17.0196C17.024 29.2192 17.0261 29.3129 17.0261 29.3739C17.0261 29.9273 16.8976 30.4501 16.6405 30.9425C16.3835 31.4305 16.0349 31.8226 15.5948 32.1189C15.0327 32.4936 14.2877 32.681 13.3596 32.681H8.0068V30.2366ZM10.3466 24.3545H12.9609C12.865 24.5244 12.8171 24.6791 12.8171 24.8185C12.8171 25.2629 13.157 25.4851 13.8367 25.4851H16.9281V27.9295H13.3661C12.425 27.9295 11.6755 27.6724 11.1178 27.1583C10.5557 26.6441 10.2747 25.9579 10.2747 25.0995C10.2747 24.9078 10.2987 24.6595 10.3466 24.3545ZM10.412 21.1846H16.9281V23.629H10.412V21.1846ZM7.50355 22.4003C7.50355 22.0691 7.62119 21.7837 7.85648 21.5441C8.08741 21.3001 8.36191 21.1781 8.67999 21.1781C9.01984 21.1781 9.2987 21.2935 9.51656 21.5245C9.73442 21.751 9.84335 22.043 9.84335 22.4003C9.84335 22.7576 9.73442 23.0517 9.51656 23.2826C9.2987 23.5092 9.01984 23.6225 8.67999 23.6225C8.36191 23.6225 8.08741 23.5026 7.85648 23.263C7.62119 23.019 7.50355 22.7314 7.50355 22.4003ZM14.0654 13.3417V17.0475C13.8781 17.1041 13.706 17.1324 13.5491 17.1324C13.3313 17.1324 13.1178 17.0932 12.9086 17.0148V15.773C12.425 15.8602 12.1831 16.1325 12.1831 16.59C12.1831 16.895 12.3139 17.1433 12.5753 17.3351C12.8324 17.5268 13.1635 17.6226 13.5687 17.6226C13.9914 17.6226 14.3334 17.5311 14.5948 17.3481C14.8563 17.1608 14.987 16.9168 14.987 16.6161C14.987 16.3721 14.865 16.1368 14.621 15.9103L16.2941 14.5181C16.8039 15.1674 17.0588 15.8885 17.0588 16.6815C17.0588 17.6488 16.7342 18.4614 16.085 19.1193C15.4358 19.7772 14.6319 20.1062 13.6733 20.1062C12.7191 20.1062 11.913 19.7751 11.2551 19.1128C10.5971 18.4461 10.2682 17.6292 10.2682 16.6619C10.2682 15.7164 10.5906 14.9234 11.2355 14.2829C11.876 13.638 12.6668 13.3156 13.6079 13.3156C13.7038 13.3156 13.8563 13.3243 14.0654 13.3417ZM14.7059 6.93015C15.4641 6.93015 16.0523 7.2199 16.4706 7.7994C16.8845 8.37455 17.0915 9.17845 17.0915 10.2111C17.0915 10.5117 17.061 10.8843 17 11.3287C16.939 11.7688 16.8649 12.1282 16.7778 12.4071H14.8236C15.1896 11.5836 15.3726 10.8952 15.3726 10.3418C15.3726 9.79716 15.231 9.52484 14.9478 9.52484C14.8301 9.52484 14.7343 9.58802 14.6602 9.71438C14.5818 9.84074 14.4532 10.1719 14.2746 10.7078C14.0872 11.3004 13.8389 11.7317 13.5295 12.0019C13.2202 12.272 12.8171 12.4071 12.3204 12.4071C11.6276 12.4071 11.0808 12.1326 10.6799 11.5836C10.2747 11.0302 10.0721 10.2547 10.0721 9.25688C10.0721 8.67302 10.1571 8.0543 10.327 7.40072H12.2028C12.0851 7.67522 11.9871 7.97587 11.9086 8.30266C11.8302 8.62944 11.791 8.90394 11.791 9.12616C11.791 9.30916 11.8215 9.45513 11.8825 9.56406C11.9435 9.67298 12.0285 9.72745 12.1374 9.72745C12.2638 9.72745 12.3661 9.66863 12.4446 9.55098C12.523 9.43334 12.6167 9.19805 12.7256 8.84512C12.926 8.16105 13.1831 7.67087 13.4968 7.37458C13.8105 7.07829 14.2136 6.93015 14.7059 6.93015Z" fill="white"/>
</svg>
