<svg width="633" height="424" viewBox="0 0 633 424" fill="none" xmlns="http://www.w3.org/2000/svg">
<g clip-path="url(#clip0_33897_70628)">
<g opacity="0.08">
<path d="M287.895 241.47H280.135V180.17C280.135 174.894 281.377 169.773 284.015 165.272C286.498 160.772 290.222 156.892 294.723 154.099L308.535 145.563L312.57 152.081L298.603 160.617C295.344 162.634 292.55 165.583 290.688 168.842C288.826 172.256 287.739 176.135 287.739 180.015L287.895 241.47Z" fill="#0A0803"/>
<path d="M385.98 350.108L349.045 328.537L385.98 311.777V350.108Z" fill="#E6E6E6"/>
<path d="M406.781 298.275L385.365 310.69L346.257 328.536L385.986 351.66L406.781 339.71V298.275ZM351.844 328.692L384.744 313.794V348.09L351.844 328.692Z" fill="#0A0803"/>
<path d="M297.682 401.319L260.748 379.748L297.682 362.988V401.319Z" fill="#E6E6E6"/>
<path d="M318.472 349.489L297.056 361.904L257.949 379.751L297.677 402.874L318.472 390.924V349.489ZM263.536 379.906L296.436 365.008V399.149L263.536 379.906Z" fill="#0A0803"/>
<path d="M209.377 452.688L172.442 431.117L209.377 414.356V452.688Z" fill="#E6E6E6"/>
<path d="M230.019 400.854L208.603 413.269L169.496 431.116L209.224 454.239L230.019 442.289V400.854ZM175.238 431.271L208.138 416.373V450.514L175.238 431.271Z" fill="#0A0803"/>
<path d="M451.157 142.464L304.193 227.197L327.937 130.98L422.602 91.5623L451.157 142.464Z" fill="#0A0803"/>
<path d="M302.339 229.833L327.014 130.046L423.386 89.8525L452.872 142.772L302.339 229.833ZM329.187 132.064L306.219 224.867L449.458 141.996L422.145 93.1115L329.187 132.064Z" fill="#0A0803"/>
<path d="M377.292 171.014C376.051 170.394 374.654 170.083 373.257 170.239C371.861 170.394 370.464 170.859 369.378 171.635L-69.4964 424.593C-76.1696 428.473 -81.7563 438.87 -81.7563 447.871C-81.7563 452.993 -80.0493 456.562 -77.2559 457.959L23.9272 515.689L133.025 438.87L463.112 251.402L479.251 229.521L377.292 171.014Z" fill="#E6E6E6"/>
<path d="M24.0803 517.093L-77.8787 459.052C-81.1377 457.345 -83 453.31 -83 447.879C-83 438.412 -77.258 427.549 -70.1193 423.359L368.755 170.556C370.151 169.625 371.548 169.159 373.255 169.004C374.807 168.849 376.514 169.159 377.911 169.935L481.112 228.907L463.73 252.341L133.799 439.809L24.0803 517.093ZM374.186 171.487C372.634 171.487 371.238 171.953 369.996 172.729L-68.8778 425.687C-75.2405 429.411 -80.517 439.343 -80.517 447.879C-80.517 452.224 -79.1203 455.638 -76.6372 456.724L23.9251 513.989L132.402 437.636L462.178 250.168L477.232 229.528L376.514 171.953C375.738 171.642 374.962 171.487 374.186 171.487Z" fill="#0A0803"/>
<path d="M471.799 262.894L32.9249 515.697C26.2518 519.577 20.665 515.542 20.665 506.541C20.665 497.54 26.0966 487.142 32.9249 483.262L471.799 230.305C478.472 226.425 484.059 230.46 484.059 239.461C484.059 248.462 478.627 259.015 471.799 262.894Z" fill="#0A0803"/>
<path d="M28.1145 518.486C26.7178 518.486 25.4763 518.175 24.39 517.554C21.2862 515.847 19.5791 511.812 19.5791 506.536C19.5791 497.069 25.3211 486.206 32.4598 482.016L471.334 229.213C472.731 228.282 474.282 227.662 475.834 227.662C477.386 227.506 479.093 227.817 480.49 228.593C483.594 230.455 485.301 234.335 485.301 239.611C485.301 248.922 479.559 259.941 472.42 264.131L33.5461 516.778C31.9942 517.865 29.9768 518.33 28.1145 518.486ZM476.765 230.145C475.214 230.145 473.817 230.61 472.575 231.386L33.5461 484.189C27.1834 487.913 21.9069 497.845 21.9069 506.381C21.9069 510.571 23.1484 513.83 25.4763 515.071C26.5626 515.537 27.8041 515.692 28.8904 515.692C30.1319 515.537 31.2183 515.227 32.1494 514.451L471.024 261.648C477.386 257.923 482.663 247.991 482.663 239.456C482.663 235.266 481.421 232.007 479.093 230.765C478.473 230.3 477.541 230.145 476.765 230.145Z" fill="#0A0803"/>
<path d="M617.215 267.077L470.251 351.965V181.568L617.215 96.6792V267.077Z" fill="#0A0803"/>
<path d="M304.193 86.4427L470.245 181.574L617.209 96.6852L451.312 1.55444L304.193 86.4427Z" fill="#FCFCFC"/>
<path d="M470.245 351.965L433.31 331.015V210.123L336.783 152.703V190.569L304.193 209.347V86.437L470.245 181.568V351.965Z" fill="#E6E6E6"/>
<path d="M618.451 95.9067L617.21 95.1308L451.313 0L304.504 84.8883L303.263 85.6642V211.522L338.335 191.348V155.034L432.38 210.746V331.794L469.315 352.744L470.556 353.52L471.798 352.744L617.986 268.166L618.606 267.856L618.451 95.9067ZM306.832 86.4402L451.158 3.10378L614.572 96.6826L470.246 180.019L429.431 156.586L306.832 86.4402ZM434.553 330.242V209.35L335.387 150.688V190.106L305.591 207.332V88.6129L428.19 158.913L469.004 182.347V349.796L434.553 330.242ZM615.813 266.304L471.487 349.641V182.192L525.648 150.999L615.813 98.8553V266.304Z" fill="#0A0803"/>
<path d="M494.301 274.996C493.214 274.996 492.283 274.686 491.352 274.22C490.11 273.289 489.024 272.048 488.248 270.496C487.627 268.944 487.317 267.392 487.472 265.685C487.472 258.546 491.817 250.166 497.249 247.218L500.042 245.511C501.129 244.735 502.37 244.424 503.612 244.269C504.853 244.114 506.095 244.424 507.336 245.045C508.578 245.976 509.664 247.218 510.44 248.77C511.061 250.321 511.371 251.873 511.216 253.58C511.216 260.719 506.871 269.099 501.439 272.203L498.646 273.755C497.249 274.531 495.852 274.841 494.301 274.996ZM504.233 246.752C503.146 246.752 502.215 247.062 501.284 247.683L498.491 249.235C493.835 251.873 489.955 259.322 489.955 265.53C489.8 266.771 489.955 267.858 490.421 268.944C490.886 270.03 491.662 270.962 492.593 271.737C493.369 272.048 494.145 272.203 494.921 272.203C495.697 272.048 496.473 271.893 497.249 271.272L500.042 269.72C504.698 267.082 508.578 259.633 508.578 253.425C508.733 252.184 508.578 251.097 508.112 250.011C507.647 248.925 506.871 247.994 505.94 247.218C505.474 246.907 505.008 246.752 504.233 246.752Z" fill="#E6E6E6"/>
<path d="M517.427 322.169V284.924C517.271 279.802 516.03 274.681 513.702 270.026C511.374 265.37 508.115 261.335 504.08 258.076C503.615 257.766 503.149 257.455 502.684 257.455C502.218 257.3 501.597 257.3 501.132 257.455C500.666 257.61 500.045 257.766 499.735 258.076C499.27 258.386 498.959 258.852 498.649 259.318C498.183 260.093 498.028 261.025 498.183 261.956C498.338 262.887 498.804 263.663 499.58 264.284C502.684 266.767 505.167 269.87 507.029 273.44C508.736 277.009 509.822 280.889 509.978 284.924V326.67L517.427 322.169Z" fill="#E6E6E6"/>
<path d="M550.172 303.08L557.931 298.58V242.091H550.172V303.08Z" fill="#E6E6E6"/>
<path d="M575.464 272.505L526.114 244.105V174.58L537.598 181.098L575.464 249.847V272.505Z" fill="#E6E6E6"/>
<path d="M576.71 274.837L524.722 245.041V172.567L538.378 180.482L576.71 249.851V274.837ZM527.36 243.334L574.072 270.336V250.317L536.516 182.189L527.36 176.913V243.334Z" fill="#0A0803"/>
<path d="M526.114 174.589L582.137 142.155L593.621 148.673L537.598 181.107L526.114 174.589Z" fill="#E6E6E6"/>
<path d="M527.362 175.365V173.814L582.143 142.155L593.627 148.673L537.604 181.107L527.362 175.365Z" fill="#FCFCFC"/>
<path d="M537.445 182.654L523.478 174.584L582.139 140.598L596.106 148.667L537.445 182.654ZM528.599 174.584L537.445 179.705L590.985 148.823L582.139 143.701L528.599 174.584Z" fill="#0A0803"/>
<path d="M575.466 250.007L631.489 217.573L593.623 148.824L537.6 181.259L575.466 250.007Z" fill="#E6E6E6"/>
<path d="M574.847 251.716L535.739 180.639L594.09 146.963L633.353 218.04L574.847 251.716ZM539.153 181.725L575.778 248.302L629.629 217.109L593.004 150.533L539.153 181.725Z" fill="#0A0803"/>
<path d="M575.467 272.512L631.49 240.078V217.575L575.467 250.01V272.512Z" fill="#0A0803"/>
<path d="M574.064 274.842V249.236L632.725 215.249V240.855L574.064 274.842ZM576.702 250.788V270.341L630.242 239.459V219.905L576.702 250.788Z" fill="#0A0803"/>
<path d="M578.41 232.007L615.345 210.591L590.36 165.121L553.27 186.537L578.41 232.007Z" fill="#E6E6E6"/>
<path d="M579.342 232.008L610.535 213.85L589.119 175.053L557.926 193.21L579.342 232.008Z" fill="#FCFCFC"/>
<path d="M577.95 233.715L551.723 186.072L590.985 163.415L617.212 211.058L577.95 233.715ZM555.137 187.159L578.881 230.301L613.643 210.127L589.899 166.984L555.137 187.159Z" fill="#0A0803"/>
<path d="M588.811 175.518L609.917 213.695L615.659 210.591L590.674 165.121L553.583 186.537L557.618 193.675L588.811 175.518Z" fill="#0A0803"/>
<path d="M609.298 215.403L588.192 177.227L556.844 195.539L551.723 186.072L590.985 163.415L617.212 211.058L609.298 215.403ZM589.278 173.657L610.384 211.989L613.798 210.127L590.054 166.984L555.292 187.159L557.93 192.125L589.278 173.657Z" fill="#0A0803"/>
<path d="M484.37 242.714C483.594 242.714 482.973 242.404 482.352 241.938C481.731 241.162 481.266 240.231 481.111 239.145C480.955 238.059 481.266 237.127 481.731 236.196L494.612 204.538C494.922 203.451 495.698 202.365 496.63 201.434C497.561 200.658 498.647 200.037 499.733 199.727C500.199 199.572 500.82 199.727 501.285 199.882C501.751 200.037 502.216 200.503 502.527 200.813L515.097 217.884C515.407 218.505 515.718 219.126 515.718 219.746C515.873 220.367 515.718 221.143 515.563 221.764C515.407 222.85 514.942 223.936 514.166 225.023C513.545 225.954 512.614 226.73 511.683 227.506L486.232 242.093C485.922 242.404 485.146 242.714 484.37 242.714ZM500.354 202.365C499.578 202.675 498.957 202.986 498.492 203.607C498.026 204.227 497.561 204.848 497.25 205.469L484.37 237.127C483.749 238.679 483.904 239.766 484.37 240.076C484.835 240.386 485.146 240.076 485.456 239.921L510.907 225.333C512.304 224.402 513.235 223.005 513.545 221.453C513.7 220.833 513.7 220.212 513.39 219.746L500.82 202.831V202.676C500.82 202.676 500.82 202.675 500.664 202.52C500.664 202.21 500.509 202.21 500.354 202.365C500.509 202.21 500.354 202.365 500.354 202.365Z" fill="#E6E6E6"/>
<path d="M33.3913 508.24C32.6154 508.24 31.6842 508.085 31.0635 507.619C30.1323 506.998 29.5116 506.223 29.046 505.291C28.5805 504.36 28.4253 503.274 28.4253 502.188C28.5805 499.549 29.2012 497.066 30.5979 494.894C31.8394 492.721 33.7017 490.704 35.8743 489.307L417.484 268.163C418.415 267.542 419.346 267.232 420.432 267.077C421.519 266.921 422.605 267.232 423.536 267.697C424.467 268.318 425.088 269.094 425.553 270.025C426.019 270.956 426.174 272.043 426.174 273.129C426.019 275.767 425.398 278.25 424.002 280.423C422.76 282.595 420.898 284.613 418.725 286.01L36.9607 507.154C35.8744 507.774 34.6328 508.085 33.3913 508.24ZM418.725 270.335L36.9607 491.48C35.2536 492.721 33.7017 494.273 32.6154 495.98C31.529 497.842 30.9083 499.86 30.7531 502.032C30.7531 502.653 30.7531 503.274 31.0635 503.895C31.2187 504.515 31.6842 504.981 32.1498 505.291C32.7706 505.447 33.3913 505.602 34.0121 505.447C34.6328 505.291 35.2536 505.136 35.7191 504.826L417.328 283.526C419.036 282.285 420.587 280.733 421.674 279.026C422.76 277.164 423.381 275.146 423.536 272.974C423.691 272.353 423.536 271.732 423.381 271.111C423.226 270.491 422.76 270.025 422.295 269.715C421.674 269.559 421.053 269.404 420.432 269.559C419.812 269.715 419.191 269.87 418.725 270.335Z" fill="#E6E6E6"/>
<path d="M415.003 286.949C414.227 286.949 413.296 286.793 412.675 286.328C411.744 285.707 411.123 284.931 410.657 284C410.192 283.069 410.037 281.983 410.037 280.896C410.192 278.258 410.813 275.775 412.209 273.602C413.451 271.43 415.313 269.412 417.486 268.016C418.417 267.395 419.348 267.084 420.434 266.929C421.521 266.774 422.607 267.084 423.538 267.55C424.469 268.171 425.09 268.947 425.556 269.878C426.021 270.809 426.176 271.895 426.176 272.982C426.021 275.62 425.4 278.103 424.004 280.276C422.762 282.448 420.9 284.466 418.727 285.862C417.641 286.638 416.244 286.949 415.003 286.949ZM421.055 269.567C420.279 269.567 419.348 269.878 418.727 270.343C417.02 271.585 415.468 273.137 414.382 274.844C413.296 276.706 412.675 278.724 412.52 280.896C412.52 281.517 412.52 282.138 412.83 282.759C412.985 283.379 413.451 283.845 413.916 284.155C414.537 284.31 415.158 284.466 415.779 284.31C416.399 284.155 417.02 284 417.486 283.69C419.193 282.448 420.745 280.896 421.831 279.189C422.917 277.327 423.538 275.309 423.693 273.137C423.849 272.516 423.693 271.895 423.538 271.275C423.383 270.654 422.917 270.188 422.452 269.878C421.831 269.723 421.365 269.567 421.055 269.567Z" fill="#E6E6E6"/>
<path d="M329.02 194.606L327.778 196.778L429.737 255.595L430.979 253.422L329.02 194.606Z" fill="#0A0803"/>
<path d="M433.314 223.316L357.271 178.932L358.513 176.759L433.314 220.367V223.316Z" fill="#0A0803"/>
<path d="M259.656 234.179L258.414 236.352L359.597 295.634L360.839 293.462L259.656 234.179Z" fill="#0A0803"/>
<path d="M-35.9792 404.265L-37.2207 406.438L63.9624 465.72L65.204 463.548L-35.9792 404.265Z" fill="#0A0803"/>
<path d="M351.682 75.2677L463.418 139.826L545.357 92.4936L433.621 27.9351L351.682 75.2677Z" fill="#FCFCFC"/>
<path d="M463.424 139.67V155.189L545.364 107.856V92.3372L463.424 139.67Z" fill="#0A0803"/>
<path d="M351.682 75.2644V90.7833L463.418 155.342V139.823L351.682 75.2644Z" fill="#E6E6E6"/>
<path d="M546.759 91.5599L433.781 26.3806L350.445 74.4892V91.5599L463.422 156.739L546.759 108.631V91.5599ZM354.325 75.2651L433.781 29.4844L542.879 92.4911L463.422 138.272L436.109 122.598L354.325 75.2651ZM353.083 90.008V77.5929L434.868 124.77L462.181 140.444V153.015L353.083 90.008ZM544.12 107.079L464.664 153.015V140.444L544.12 94.6637V107.079Z" fill="#0A0803"/>
<path d="M23.3086 395.111L76.0728 425.528L114.87 403.181L62.1059 372.764L23.3086 395.111Z" fill="#FCFCFC"/>
<path d="M76.0688 425.528V432.821L114.866 410.474V403.18L76.0688 425.528Z" fill="#0A0803"/>
<path d="M23.3086 395.109V402.403L76.0728 432.82V425.526L23.3086 395.109Z" fill="#E6E6E6"/>
<path d="M115.484 402.871L62.0987 371.989L22.6807 394.801V402.871L76.0657 433.754L115.484 411.096V402.871ZM24.5429 395.112L62.0987 373.385L113.621 403.182L76.0657 424.908L63.1849 417.459L24.5429 395.112ZM23.9222 402.095V396.198L62.5642 418.545L75.4449 425.994V431.891L23.9222 402.095ZM114.242 410.165L76.6864 431.736V425.839L114.242 404.113V410.165Z" fill="#0A0803"/>
<path d="M119.212 336.916L171.976 367.333L210.773 344.985L158.009 314.568L119.212 336.916Z" fill="#FCFCFC"/>
<path d="M171.977 367.331V374.625L210.774 352.278V344.984L171.977 367.331Z" fill="#0A0803"/>
<path d="M119.212 336.917V344.211L171.976 374.628V367.334L119.212 336.917Z" fill="#E6E6E6"/>
<path d="M211.391 344.675L158.006 313.638L118.588 336.295V344.365L171.973 375.248L211.391 352.59V344.675ZM120.45 336.916L158.006 315.19L209.529 344.986L172.128 366.557L159.247 359.108L120.45 336.916ZM119.829 343.9V338.002L158.471 360.35L171.352 367.799V373.696L119.829 343.9ZM210.149 351.969L172.594 373.696V367.799L210.149 346.072V351.969Z" fill="#0A0803"/>
<path d="M206.576 284.154L259.34 314.571L298.137 292.224L245.373 261.652L206.576 284.154Z" fill="#FCFCFC"/>
<path d="M259.503 314.567V321.861L298.3 299.513V292.219L259.503 314.567Z" fill="#0A0803"/>
<path d="M206.576 284.152V291.446L259.34 321.863V314.569L206.576 284.152Z" fill="#E6E6E6"/>
<path d="M298.762 291.907L245.377 261.024L205.959 283.682V291.752L259.344 322.634L298.762 299.977V291.907ZM207.822 284.148L245.377 262.421L296.9 292.217L259.344 313.944L246.464 306.495L207.822 284.148ZM207.201 291.131V285.234L245.843 307.581L258.724 315.03V320.927L207.201 291.131ZM297.521 299.201L259.965 320.927V315.03L297.521 293.304V299.201Z" fill="#0A0803"/>
<path d="M296.901 232.32L349.666 262.737L388.463 240.39L335.699 209.973L296.901 232.32Z" fill="#FCFCFC"/>
<path d="M349.82 262.737V270.031L388.618 247.684V240.39L349.82 262.737Z" fill="#0A0803"/>
<path d="M296.901 232.314V239.608L349.666 270.025V262.731L296.901 232.314Z" fill="#E6E6E6"/>
<path d="M389.083 240.076L335.698 209.194L296.28 232.162V240.231L349.665 270.804L389.083 248.146V240.076ZM298.143 232.317L335.698 210.59L387.221 240.387L349.82 262.113L336.94 254.664L298.143 232.317ZM297.522 239.3V233.403L336.164 255.75L349.044 263.199V269.097L297.522 239.3ZM387.842 247.37L350.286 269.097V263.199L387.842 241.473V247.37Z" fill="#0A0803"/>
<path d="M557.933 299.825L550.173 304.326V313.016C550.173 317.517 548.932 322.017 546.604 326.052C544.276 329.932 541.017 333.191 536.982 335.519L531.085 338.933C529.533 339.864 527.826 340.174 526.119 340.174C524.412 340.019 522.705 339.554 521.308 338.467C520.067 337.536 518.98 336.295 518.36 334.898C517.739 333.501 517.273 331.949 517.428 330.397V323.259L509.669 327.759V330.397C509.669 333.501 510.445 336.605 511.842 339.243C513.394 341.881 515.566 344.209 518.204 345.761C520.687 347.158 523.636 347.934 526.585 347.934C529.533 347.934 532.482 347.158 535.12 345.606L541.017 342.192C546.138 339.243 550.484 335.053 553.432 329.932C556.381 324.811 557.933 319.069 557.933 313.016V299.825Z" fill="#0A0803"/>
<path d="M590.985 214.007C590.675 214.162 590.209 214.317 589.899 214.472C589.433 214.472 589.123 214.472 588.657 214.472C588.347 214.317 587.881 214.162 587.571 213.852C587.261 213.541 586.95 213.231 586.795 212.92C586.64 212.61 586.485 212.144 586.33 211.834C586.33 211.369 586.33 211.058 586.33 210.593C586.485 210.127 586.64 209.817 586.795 209.506C587.106 209.196 587.416 208.885 587.726 208.73C588.037 208.575 588.502 208.42 588.813 208.265C589.123 208.265 589.589 208.265 590.054 208.265C590.52 208.42 590.83 208.575 591.14 208.886C591.451 209.196 591.761 209.506 591.916 209.817C592.072 210.127 592.227 210.593 592.382 210.903C592.382 211.369 592.382 211.679 592.382 212.144C592.227 212.61 592.072 212.92 591.916 213.231C591.761 213.541 591.296 213.852 590.985 214.007ZM585.243 208.11L576.553 195.074L581.208 192.28L588.502 206.092L585.243 208.11Z" fill="#0A0803"/>
<path d="M577.021 272.353V269.249L615.819 246.747V249.851L577.021 272.353Z" fill="#E6E6E6"/>
<path d="M159.719 304.014V302.773L162.667 302.152V303.394L159.719 304.014Z" fill="#E6E6E6"/>
<path d="M420.276 170.556L419.034 172.573L443.088 186.385L444.33 184.367L420.276 170.556Z" fill="#0A0803"/>
<path d="M325.147 115.927L323.905 117.944L413.294 169.312L414.536 167.294L325.147 115.927Z" fill="#0A0803"/>
<path d="M-31.1592 337.534C-31.1592 337.379 -31.1592 337.224 -31.1592 337.224V330.706L-22.6238 331.017L9.03477 313.325C10.4315 312.549 11.9834 312.083 13.5352 312.083C15.0871 312.083 16.639 312.394 18.0357 313.015L53.8843 334.12L63.8164 334.431V341.88C63.506 342.811 62.7301 343.742 61.799 344.208L23.9329 365.468C22.5362 366.244 20.9843 366.71 19.4324 366.71C17.8805 366.71 16.3286 366.4 14.9319 365.779L-29.1417 339.707C-29.6073 339.552 -29.9177 339.242 -30.228 338.776C-30.8488 338.466 -31.004 338 -31.1592 337.534Z" fill="#E6E6E6"/>
<path d="M18.3428 367.327C16.7909 367.327 15.3942 367.017 14.1527 366.396L-29.9209 340.325C-30.3865 340.014 -30.8521 339.704 -31.1625 339.238C-31.4728 338.773 -31.628 338.152 -31.7832 337.686C-31.7832 337.531 -31.7832 337.376 -31.7832 337.376V330.237L-22.7822 330.548L8.7211 312.856C10.1178 312.08 11.8249 311.615 13.532 311.459C15.239 311.459 16.9461 311.77 18.3428 312.391L54.0363 333.496L64.2787 333.962V341.721L63.9683 342.652C63.5027 343.584 62.7268 344.515 61.7957 344.98L23.9296 366.241C22.0673 367.017 20.2051 367.483 18.3428 367.327ZM-30.5417 331.324V337.531C-30.5417 337.842 -30.3865 338.152 -30.0761 338.462C-29.9209 338.773 -29.6105 338.928 -29.3002 339.083L14.7735 365.155C16.1702 365.776 17.5669 366.086 18.9636 365.931C20.3603 365.931 21.9121 365.465 23.1536 364.689L61.0198 343.428C61.7957 342.963 62.4165 342.342 62.8821 341.566V341.256V334.893L53.2603 334.427L17.4117 313.322C16.015 312.701 14.6183 312.391 13.2216 312.546C11.8249 312.546 10.273 313.011 9.0315 313.632L-22.7822 331.479L-30.5417 331.324Z" fill="#0A0803"/>
<path d="M-29.6129 332.877L14.4607 358.948C15.8574 359.569 17.4093 359.879 18.9612 359.879C20.5131 359.879 22.065 359.414 23.4617 358.638L61.3278 337.377C63.966 335.825 64.2763 333.497 61.9485 332.256L17.8749 306.184C16.4782 305.563 14.9263 305.253 13.3744 305.253C11.8225 305.253 10.2706 305.719 8.87392 306.494L-28.9922 327.6C-31.6304 329.152 -31.9408 331.48 -29.6129 332.877Z" fill="#FCFCFC"/>
<path d="M18.3428 360.497C16.7909 360.497 15.3941 360.187 14.1526 359.566L-29.921 333.494C-30.3866 333.184 -30.8521 332.873 -31.3177 332.408C-31.6281 331.942 -31.7833 331.322 -31.9385 330.701C-31.7833 329.925 -31.6281 329.149 -31.1625 328.528C-30.697 327.907 -30.0762 327.442 -29.4554 327.131L8.41063 305.871C9.80733 305.095 11.5144 304.629 13.2215 304.474C14.9286 304.474 16.6357 304.784 18.0324 305.405L62.106 331.477C62.5716 331.787 63.0371 332.098 63.5027 332.563C63.8131 333.029 63.9682 333.649 63.9682 334.27C63.9682 335.046 63.6579 335.822 63.1923 336.443C62.7267 337.064 62.106 337.529 61.4852 337.839L23.6192 359.1C22.2225 360.032 20.3602 360.497 18.3428 360.497ZM13.9974 305.715C12.2904 305.715 10.7385 306.026 9.18657 306.957L-28.6795 328.218C-29.921 328.839 -30.5417 329.77 -30.5417 330.546C-30.5417 330.856 -30.3866 331.322 -30.0762 331.632C-29.921 331.942 -29.6106 332.253 -29.3002 332.408L14.7734 358.48C16.1701 359.1 17.5668 359.411 18.9635 359.256C20.3602 359.256 21.7569 358.79 23.1536 358.014L61.0197 336.753C61.4853 336.598 61.9508 336.288 62.2612 335.822C62.5716 335.356 62.882 334.891 62.882 334.425C62.882 334.115 62.7268 333.649 62.5716 333.339C62.4164 333.029 62.106 332.873 61.6404 332.718L17.5668 306.491C16.4805 305.871 15.2389 305.56 13.9974 305.715Z" fill="#0A0803"/>
<path d="M16.1692 247.836C17.1004 247.371 18.1867 247.216 19.273 247.371C20.3593 247.526 21.2905 247.836 22.2216 248.457L46.5863 262.734C51.7075 265.683 55.8976 273.753 55.8976 280.581V334.121L19.1179 355.382C19.1179 355.382 -10.9888 291.91 -11.2992 290.668C-11.6095 289.427 -20.9209 269.252 -20.9209 269.252L16.1692 247.836Z" fill="#E6E6E6"/>
<path d="M16.1766 247.372C17.1078 246.906 18.1941 246.751 19.2804 246.906C20.3667 247.061 21.2979 247.372 22.229 247.992L46.5937 262.27C51.7149 265.218 55.905 273.288 55.905 280.117V326.673L17.5734 348.71C17.5734 348.71 -10.8262 291.445 -11.1366 290.204C-11.4469 288.962 -20.7583 268.788 -20.7583 268.788L16.1766 247.372Z" fill="#FCFCFC"/>
<path d="M19.122 356.155L18.6564 355.845V355.69C13.5352 345.137 -11.4503 292.062 -11.7606 290.821C-12.071 289.579 -17.6578 277.63 -21.3823 269.56L-21.072 268.784L16.0182 247.213C17.1045 246.747 18.1908 246.592 19.4323 246.592C20.5187 246.747 21.7602 247.057 22.6913 247.833L47.056 262.111C52.3324 265.214 56.6777 273.439 56.6777 280.578V334.584L56.3673 334.739L19.122 356.155ZM-20.1408 269.56C-18.4338 273.129 -10.9847 289.269 -10.6743 290.51C-10.5191 291.752 9.03467 332.722 19.2771 354.448L55.1258 333.653V280.578C55.1258 273.905 51.0909 266.146 46.1248 263.197L21.7602 248.92C20.9842 248.454 20.0531 247.988 19.122 247.988C18.1908 247.833 17.2597 247.989 16.3286 248.454L-20.1408 269.56Z" fill="#0A0803"/>
<path d="M-24.0186 330.239L18.9688 355.379V301.839C18.9688 295.011 14.7787 286.941 9.65745 283.992L-14.7072 269.715C-19.8285 266.766 -24.0186 269.87 -24.0186 276.698V330.239Z" fill="#E6E6E6"/>
<path d="M19.5828 355.847L18.962 356.158L-24.8013 330.707V276.701C-24.9565 275.149 -24.6461 273.597 -24.0253 272.201C-23.4046 270.804 -22.4734 269.563 -21.2319 268.631C-20.1456 268.166 -19.0593 267.855 -17.8178 268.011C-16.5763 268.166 -15.4899 268.476 -14.5588 269.252L9.80587 283.529C15.0823 286.633 19.4276 294.858 19.4276 301.997L19.5828 355.847ZM-23.4046 330.086L18.3413 354.451V301.997C18.3413 295.324 14.3063 287.564 9.34028 284.616L-15.0243 270.338C-15.8003 269.718 -16.7314 269.407 -17.6626 269.407C-18.5937 269.252 -19.5248 269.407 -20.456 269.873C-21.5423 270.649 -22.3182 271.735 -22.7838 272.977C-23.2494 274.218 -23.5598 275.615 -23.4046 276.856V330.086Z" fill="#0A0803"/>
<path d="M18.3418 359.882V367.021L23.1526 365.624L62.7258 343.277L63.657 341.88V335.207L59.9324 338.466L21.4456 359.882H18.3418Z" fill="#0A0803"/>
<path d="M18.1826 296.095L24.235 292.681L24.7005 294.854V333.961L30.2873 337.686L50.1515 326.202L55.5831 329.616V334.117L19.5793 355.067L18.9586 352.584L18.8034 299.199L18.1826 296.095Z" fill="#0A0803"/>
<path d="M51.8632 279.959L55.5878 277.942L55.8982 282.753V295.323L50.9321 292.374L51.2425 280.425L51.8632 279.959Z" fill="#0A0803"/>
<path d="M152.271 322.48V317.98H149.943L141.097 313.014C140.632 312.859 140.321 312.704 139.856 312.704C139.39 312.704 138.925 312.859 138.614 313.014L130.234 317.98H127.286V322.791C127.441 323.101 127.596 323.256 127.906 323.412L138.459 329.309C138.925 329.464 139.235 329.619 139.701 329.619C140.166 329.619 140.632 329.464 140.942 329.309L151.65 322.946C151.805 322.946 151.805 322.791 151.961 322.636C152.116 322.636 152.116 322.48 152.271 322.48Z" fill="#E6E6E6"/>
<path d="M140.007 330.396C139.387 330.396 138.766 330.241 138.3 329.93L127.748 324.033C127.437 323.878 127.282 323.567 127.127 323.412L126.972 323.102V317.981L130.231 317.205L138.456 312.394C138.921 312.083 139.542 311.928 140.007 311.928C140.473 311.928 141.094 312.083 141.559 312.394L150.25 317.205L153.199 317.67V322.326C153.199 322.636 153.199 322.791 153.043 322.947C152.888 323.102 152.733 323.257 152.578 323.412L141.87 329.775C141.094 330.241 140.473 330.396 140.007 330.396ZM128.058 322.636C128.058 322.791 128.213 322.791 128.368 322.947L138.921 328.844C139.232 328.999 139.542 328.999 139.852 328.999C140.163 328.999 140.473 328.999 140.783 328.844L151.647 322.481V318.601H149.784H149.629L140.783 313.635C140.473 313.48 140.163 313.48 139.852 313.48C139.542 313.48 139.232 313.48 138.921 313.635L130.231 318.601H128.058V322.636Z" fill="#0A0803"/>
<path d="M151.802 318.447L141.094 324.809C140.629 324.964 140.318 325.12 139.853 325.12C139.387 325.12 138.922 324.964 138.611 324.809L128.059 318.912C127.283 318.447 127.283 317.826 127.903 317.515L138.611 311.153C139.077 310.997 139.387 310.842 139.853 310.842C140.318 310.842 140.784 310.997 141.094 311.153L151.647 317.05C152.423 317.515 152.423 318.136 151.802 318.447Z" fill="#FCFCFC"/>
<path d="M140.012 325.738C139.391 325.738 138.77 325.583 138.305 325.272L127.752 319.375C127.442 319.22 127.286 319.065 127.131 318.754C126.976 318.444 126.821 318.289 126.821 317.978C126.821 317.668 126.821 317.513 126.976 317.202C127.131 317.047 127.286 316.892 127.597 316.737L138.305 310.374C138.77 310.064 139.391 309.908 139.857 309.908C140.477 309.908 140.943 310.064 141.409 310.374L151.961 316.271C152.272 316.426 152.427 316.582 152.582 316.892C152.737 317.202 152.893 317.358 152.893 317.668C152.893 317.978 152.737 318.133 152.737 318.289C152.582 318.444 152.427 318.599 152.117 318.754L141.409 325.117C141.098 325.583 140.477 325.738 140.012 325.738ZM139.546 311.46C139.236 311.46 139.081 311.46 138.77 311.616L127.907 317.978C128.062 318.133 128.062 318.133 128.218 318.133L138.77 324.031C139.081 324.186 139.391 324.341 139.702 324.341C140.012 324.341 140.322 324.341 140.633 324.186L151.341 317.823H151.496C151.341 317.668 151.341 317.668 151.185 317.513L140.633 311.305C140.322 311.46 140.012 311.305 139.546 311.46Z" fill="#0A0803"/>
<path d="M143.578 315.5C143.578 316.431 142.026 317.362 140.008 317.362C137.991 317.362 136.439 316.586 136.439 315.5C136.439 314.413 137.991 313.637 140.008 313.637C142.026 313.637 143.578 314.413 143.578 315.5Z" fill="#E6E6E6"/>
<path d="M140.171 317.98C137.843 317.98 135.981 316.894 135.981 315.342C135.981 313.79 137.688 312.704 140.171 312.704C142.654 312.704 144.361 313.79 144.361 315.342C144.361 316.894 142.499 317.98 140.171 317.98ZM140.171 314.256C138.464 314.256 137.378 315.031 137.378 315.497C137.378 315.963 138.464 316.739 140.171 316.739C141.878 316.739 142.964 316.118 142.964 315.497C142.964 314.876 141.878 314.256 140.171 314.256Z" fill="#0A0803"/>
<path d="M140.161 315.496C139.696 315.496 139.23 315.341 138.765 314.875C138.454 314.565 138.144 314.099 138.144 313.478V305.564C138.144 305.098 138.299 304.633 138.765 304.322C139.075 304.012 139.541 303.857 140.161 303.857C140.627 303.857 141.093 304.012 141.403 304.477C141.713 304.788 142.024 305.253 142.024 305.719V313.634C142.024 313.944 142.024 314.099 141.869 314.41C141.713 314.565 141.713 314.875 141.403 315.03C141.248 315.185 141.093 315.341 140.782 315.496C140.627 315.341 140.317 315.496 140.161 315.496Z" fill="#0A0803"/>
<path d="M140.166 316.118C139.545 316.118 138.769 315.808 138.304 315.342C137.838 314.877 137.528 314.256 137.528 313.48V305.565C137.528 304.945 137.838 304.169 138.304 303.703C138.769 303.238 139.39 302.927 140.166 302.927C140.942 302.927 141.563 303.238 142.028 303.703C142.494 304.169 142.804 304.79 142.804 305.565V313.48C142.804 314.101 142.494 314.877 142.028 315.342C141.408 315.808 140.787 316.118 140.166 316.118ZM140.166 304.479C140.011 304.479 139.856 304.479 139.701 304.634C139.545 304.634 139.39 304.79 139.235 304.945C139.08 305.1 139.08 305.255 138.925 305.41C138.925 305.565 138.769 305.721 138.769 305.876V313.79C138.769 313.946 138.769 314.101 138.925 314.256C138.925 314.411 139.08 314.566 139.235 314.722C139.39 314.877 139.545 314.877 139.701 315.032C139.856 315.032 140.011 315.187 140.166 315.187C140.321 315.187 140.476 315.187 140.632 315.032C140.787 315.032 140.942 314.877 141.097 314.722C141.252 314.566 141.252 314.411 141.408 314.256C141.563 314.101 141.563 313.946 141.563 313.79V305.876C141.563 305.565 141.408 305.255 141.252 304.945C140.787 304.479 140.476 304.479 140.166 304.479Z" fill="#0A0803"/>
<path d="M30.4512 337.684L51.0913 325.734V275.453L30.4512 287.403V337.684Z" fill="#0A0803"/>
<path d="M40.8456 269.87L51.2432 275.612L30.6031 287.562L20.8262 281.664L40.8456 269.87Z" fill="#FCFCFC"/>
<path d="M20.6748 281.509V286.164C23.1578 288.802 24.7097 292.372 24.8649 296.096V333.962L30.4517 337.687V287.406L20.6748 281.509Z" fill="#E6E6E6"/>
<path d="M51.8607 275.147L40.8423 269.095L20.2021 281.199V286.321L20.3573 286.476C22.6852 288.959 24.2371 292.373 24.3923 295.942V334.119L30.5998 338.309L52.0159 325.894L51.8607 275.147ZM40.8423 270.647L49.8432 275.613L30.4446 286.786L29.2031 286.01L22.0644 281.665L40.8423 270.647ZM25.4786 333.653V296.098C25.3234 292.373 23.9267 288.804 21.2885 286.01V282.751L28.272 286.941L29.6687 287.873V336.602L25.4786 333.653ZM50.464 325.428L31.0654 336.602V287.873L50.464 276.699V325.428Z" fill="#0A0803"/>
<path d="M51.8667 281.357L50.6252 282.133V325.12L31.2266 336.294V337.845L51.8667 325.896V281.357Z" fill="#E6E6E6"/>
<path d="M48.4411 283.993C48.1307 283.993 32.6118 292.839 32.6118 292.839V328.222L48.2859 319.532L48.4411 283.993Z" fill="#E6E6E6"/>
<path d="M32.002 329.309V292.529L32.3123 292.374C47.9864 283.373 48.1416 283.373 48.4519 283.373H49.0727V319.843L32.002 329.309ZM33.2434 293.305V327.137L47.676 319.067V285.08C45.3482 286.322 38.3647 290.357 33.2434 293.305Z" fill="#0A0803"/>
<path d="M62.8907 303.702L38.6812 289.27V306.496L62.8907 320.618V303.702Z" fill="#E6E6E6"/>
<path d="M63.66 321.859L38.209 306.961V288.959L38.8297 288.649L63.66 303.392V321.859ZM39.4505 306.185L62.4184 319.531V304.012L39.4505 290.356V306.185Z" fill="#0A0803"/>
<path d="M38.8213 289.422L42.5458 287.405L66.4449 301.682L63.0308 303.855L38.8213 289.422Z" fill="#E6E6E6"/>
<path d="M39.1357 289.425L42.0843 287.718L65.9834 301.996L62.5693 304.168L39.1357 290.201V289.425Z" fill="#FCFCFC"/>
<path d="M63.0398 304.48L62.7294 304.325L37.5889 289.426L42.5549 286.633L42.8653 286.788L67.6955 301.686L63.0398 304.48ZM40.0719 289.426L62.8847 303.083L65.0573 301.686L42.3997 288.03L40.0719 289.426Z" fill="#0A0803"/>
<path d="M62.8799 320.771L66.294 318.598V301.683L62.8799 303.855V320.771Z" fill="#E6E6E6"/>
<path d="M62.2598 321.857V303.39L66.9154 300.441V318.909L62.2598 321.857ZM63.6565 304.01V319.529L65.6739 318.288V302.769L63.6565 304.01Z" fill="#0A0803"/>
<path d="M56.5178 307.896L32.7739 293.773L32.9291 310.999L56.673 324.811V307.896H56.5178Z" fill="#E6E6E6"/>
<path d="M57.1324 326.047L32.147 311.459V292.681L57.2875 307.579L57.1324 326.047ZM33.3885 310.683L55.7357 323.874V308.355L33.2333 295.009L33.3885 310.683Z" fill="#0A0803"/>
<path d="M32.6118 293.768V292.837L35.4052 291.285L59.7699 305.873L56.3557 308.045L32.6118 293.768Z" fill="#E6E6E6"/>
<path d="M32.3159 293.458L35.1093 291.285L59.474 305.873L56.8357 308.201L32.3159 293.458Z" fill="#FCFCFC"/>
<path d="M56.5116 308.663L56.2012 308.508L32.147 294.231V292.524L35.5611 290.506L61.1673 305.715L56.5116 308.663ZM33.2333 293.455L56.3564 307.267L58.529 305.87L35.4059 292.058L33.2333 293.3V293.455Z" fill="#0A0803"/>
<path d="M56.5146 324.965L59.9288 322.792V305.721L56.5146 307.894V324.965Z" fill="#E6E6E6"/>
<path d="M55.7437 326.207V307.739L60.3993 304.791V323.258L55.7437 326.207ZM57.1404 308.36V323.879L59.1578 322.482V306.963L57.1404 308.36Z" fill="#0A0803"/>
<path d="M42.8543 317.05L32.6118 323.102V328.223L47.6652 319.843L42.8543 317.05Z" fill="#E6E6E6"/>
<path d="M43.0095 316.894L32.6118 323.102C32.6118 324.809 32.6118 326.516 32.6118 328.223L47.3548 319.687L43.0095 316.894Z" fill="#E6E6E6"/>
<path d="M32.002 329.31V322.637L42.8652 316.119L49.0727 319.688L32.002 329.31ZM33.2434 323.413V326.982L46.4345 319.688L42.8652 317.515L33.2434 323.413Z" fill="#0A0803"/>
<path d="M98.1077 227.504L68.1562 299.977L71.26 301.994L100.746 229.831L98.1077 227.504Z" fill="#E6E6E6"/>
<path d="M71.5748 302.771L67.2295 300.132L67.3846 299.667L97.6465 226.418L101.371 229.522L71.5748 302.771ZM69.0918 299.667L71.1092 300.908L100.13 229.987L98.4224 228.59L69.0918 299.667Z" fill="#0A0803"/>
<path d="M104.782 229.212L75.4509 304.479L71.2607 301.841L100.747 229.678L104.782 229.212Z" fill="#0A0803"/>
<path d="M75.9135 305.562L70.4819 302.148L100.433 229.209L105.865 228.433L75.9135 305.562ZM72.0338 301.683L75.1376 303.545L103.692 229.985L101.054 230.296L72.0338 301.683Z" fill="#0A0803"/>
<path d="M102.922 232.466L73.5913 303.387L76.6951 305.405L105.56 234.794L102.922 232.466Z" fill="#E6E6E6"/>
<path d="M77.1607 306.344L72.8154 303.706L72.9707 303.24L102.612 231.543L106.336 234.647L106.181 235.112L77.1607 306.344ZM74.5226 303.085L76.54 304.326L104.94 234.957L103.233 233.56L74.5226 303.085Z" fill="#0A0803"/>
<path d="M109.433 232.466L78.7059 311.147L76.8438 305.249L106.33 233.087L109.433 232.466Z" fill="#0A0803"/>
<path d="M78.5591 313.172L75.9209 305.257V305.102L105.562 232.629L110.218 231.543L78.5591 313.172ZM77.4728 305.413L78.7143 309.292L108.355 233.405L106.804 233.715L77.4728 305.413Z" fill="#0A0803"/>
<path d="M66.7619 295.014H67.0722C67.3826 295.014 67.693 295.014 67.8482 295.17L74.3661 299.049C77.0043 300.912 79.0218 303.395 80.5737 306.188C81.9704 308.981 82.7463 312.085 82.9015 315.344C83.0567 316.586 82.9015 317.672 82.436 318.758C81.9704 319.845 81.3496 320.931 80.5737 321.707C80.2633 322.017 79.7978 322.328 79.3322 322.483L63.6582 331.329L54.9675 314.413L50.0015 304.791L66.7619 295.014Z" fill="#E6E6E6"/>
<path d="M67.3785 295.162H67.6889C67.8441 295.162 67.9993 295.162 68.1545 295.162C68.3097 295.162 68.4648 295.318 68.62 295.318L75.138 299.197C79.7936 301.835 81.9663 306.181 81.9663 312.388C82.1215 313.63 81.9663 314.716 81.5008 315.802C81.0352 316.889 80.4144 317.975 79.6385 318.751C79.1729 319.061 78.8626 319.372 78.397 319.527L63.1884 326.2L55.5842 314.251L50.6182 304.629L67.3785 295.162Z" fill="#FCFCFC"/>
<path d="M63.3487 331.791L49.0713 304.167L66.2972 294.546L66.4525 294.391L66.7629 294.235H67.694C67.8491 294.235 67.8491 294.235 68.1595 294.391L74.6775 298.27C77.3157 300.132 79.4883 302.616 81.0402 305.564C82.592 308.513 83.368 311.616 83.368 315.031C83.5232 316.272 83.368 317.358 82.9024 318.6C82.5921 319.686 81.9713 320.773 81.1954 321.704L80.7299 322.014C80.2643 322.325 79.7987 322.635 79.3331 322.79L63.3487 331.791ZM50.9336 304.633L63.9694 330.084L79.0227 321.704C79.4883 321.549 79.7986 321.238 80.2642 321.083C81.0402 320.307 81.661 319.376 81.9713 318.29C82.2817 317.203 82.4369 316.117 82.4369 315.031C82.4369 311.927 81.6609 308.978 80.2642 306.34C78.8675 303.702 76.8501 301.219 74.3671 299.512L67.8491 295.632H67.694H67.5388H67.3836L50.9336 304.633Z" fill="#0A0803"/>
<path d="M51.395 326.829L57.913 330.708C62.5686 333.347 66.2931 330.553 66.2931 324.346C66.2931 321.242 65.5172 318.138 63.9653 315.189C62.5686 312.396 60.396 309.913 57.913 308.051L51.395 304.171C50.4639 303.705 49.688 304.171 49.688 305.412V323.414C49.688 324.035 49.8432 324.656 50.1535 325.277C50.3087 326.053 50.7743 326.518 51.395 326.829Z" fill="#E6E6E6"/>
<path d="M61.176 332.416C59.9345 332.416 58.693 331.95 57.4515 331.33L50.9336 327.45C50.3128 326.984 49.8472 326.519 49.5368 325.743C49.2265 325.122 49.0713 324.346 49.0713 323.57V305.568C49.0713 305.258 49.0713 304.792 49.2264 304.482C49.3816 304.171 49.692 303.861 50.0024 303.706C50.3128 303.551 50.6232 303.396 50.9336 303.396C51.244 303.396 51.5543 303.551 51.8647 303.706L58.3826 307.586C61.0208 309.448 63.1934 311.931 64.7453 314.879C66.2972 317.828 67.0732 320.932 67.0732 324.346C67.2283 325.743 67.0732 327.139 66.4525 328.536C65.8317 329.778 65.0557 331.019 63.8142 331.795C62.8831 332.105 62.1071 332.416 61.176 332.416ZM51.7095 326.363L58.2275 330.243C58.8482 330.709 59.7794 331.019 60.5553 331.174C61.3312 331.174 62.2623 331.174 63.0383 330.709C63.9694 329.933 64.7454 329.002 65.211 327.915C65.6765 326.829 65.8317 325.588 65.6765 324.501C65.6765 321.397 64.9005 318.449 63.5038 315.811C62.1071 313.172 60.0897 310.689 57.6067 308.982L51.0887 305.103C51.0887 305.103 50.7784 304.947 50.6232 305.103C50.468 305.258 50.468 305.258 50.468 305.413C50.468 305.568 50.468 305.723 50.468 305.879V323.88C50.468 324.346 50.6231 324.812 50.7783 325.277C50.9335 325.588 51.244 325.898 51.7095 326.363Z" fill="#0A0803"/>
<path d="M50.9308 311.773H51.2412L54.1897 313.48C55.276 314.256 56.2072 315.342 56.8279 316.584C57.4487 317.825 57.759 319.222 57.759 320.618C57.759 321.084 57.7591 321.705 57.6039 322.17C57.4487 322.636 57.1383 323.101 56.8279 323.412C56.6727 323.567 56.5175 323.722 56.2071 323.722L53.2586 325.429L49.8444 318.601L47.5166 313.48L50.9308 311.773Z" fill="#E6E6E6"/>
<path d="M50.7756 312.393H51.086L54.0346 314.1C55.1209 314.876 56.0521 315.962 56.6729 317.204C57.2936 318.445 57.6039 319.842 57.7591 321.239C57.7591 322.48 55.5865 320.928 54.9657 321.394C54.8105 321.549 54.6554 321.704 54.345 321.704L51.3964 323.411L49.8445 319.221L47.6719 314.1L50.7756 312.393Z" fill="#E6E6E6"/>
<path d="M53.1004 326.357L49.3759 318.908L47.3584 313.166L51.0829 310.994L51.2382 311.149C51.3934 311.149 51.5485 311.304 51.5485 311.304L54.4971 313.011C55.7386 313.942 56.6698 315.029 57.4457 316.425C58.0665 317.822 58.532 319.219 58.532 320.771C58.532 321.702 58.3768 322.788 57.756 323.564L57.1353 324.185C56.9801 324.34 56.6697 324.495 56.5145 324.495L53.1004 326.357ZM48.5999 313.787L50.6174 318.288L53.7211 324.495L56.2041 323.098C56.3593 323.098 56.5146 322.943 56.6698 322.788C56.9802 322.478 57.1353 322.167 57.2905 321.702C57.4457 321.236 57.4457 320.926 57.4457 320.46C57.4457 319.219 57.1353 317.977 56.5145 316.736C55.8938 315.649 55.1179 314.563 54.0315 313.787L51.2382 312.235L48.5999 313.787Z" fill="#0A0803"/>
<path d="M48.2925 323.565L51.2412 325.272C53.2586 326.513 54.9656 325.272 54.9656 322.478C54.9656 321.082 54.6553 319.685 53.8793 318.444C53.2586 317.202 52.3275 316.116 51.2412 315.34L48.2925 313.633C47.827 313.322 47.5166 313.633 47.5166 314.098V322.168C47.5166 322.479 47.5166 322.634 47.6718 322.944C47.827 323.254 47.9822 323.41 48.2925 323.565Z" fill="#E6E6E6"/>
<path d="M52.6423 326.36C52.0215 326.36 51.4007 326.205 50.78 325.894L47.8315 324.187C47.5211 324.032 47.2107 323.722 47.0555 323.411C46.9003 323.101 46.7451 322.635 46.7451 322.325V314.255C46.7451 314.1 46.7451 313.79 46.9003 313.634C47.0555 313.479 47.2107 313.324 47.3659 313.169C47.5211 313.014 47.6762 313.014 47.9866 313.014C48.1418 313.014 48.297 313.014 48.6074 313.169L51.5559 314.876C52.7974 315.807 53.8838 316.893 54.5046 318.29C55.2805 319.687 55.5909 321.084 55.5909 322.635C55.5909 323.256 55.5909 324.032 55.2805 324.653C54.9701 325.274 54.5046 325.894 54.039 326.205C53.4183 326.205 53.1078 326.36 52.6423 326.36ZM48.6074 323.101L51.5559 324.808C51.8663 324.963 52.1767 325.118 52.4871 325.118C52.7975 325.118 53.1078 325.118 53.4182 324.963C53.7286 324.653 54.039 324.342 54.1942 323.877C54.3494 323.411 54.3494 322.946 54.3494 322.48C54.3494 321.239 54.039 319.997 53.4182 318.756C52.7975 317.669 52.0216 316.583 50.9352 315.807L48.297 314.255V322.015C48.297 322.17 48.297 322.325 48.4522 322.48C48.4522 322.791 48.4522 322.791 48.6074 323.101Z" fill="#0A0803"/>
<path d="M118.287 225.023C118.287 225.023 115.183 213.384 109.751 215.401C107.113 216.333 106.492 215.712 104.165 216.643C102.613 217.109 101.216 217.884 99.9745 218.971C98.733 220.057 97.8019 221.454 97.1811 222.851C96.5603 224.402 96.25 225.954 96.25 227.661C96.25 229.368 96.7155 230.92 97.4915 232.317C97.8019 232.783 98.1122 233.248 98.4226 233.559C98.8882 233.869 99.3538 234.179 99.8193 234.334C100.285 234.49 100.906 234.645 101.371 234.49C101.992 234.49 102.458 234.334 102.923 234.024L118.908 226.109L118.287 225.023Z" fill="#E6E6E6"/>
<path d="M101.05 235.417C100.585 235.417 99.9639 235.262 99.4984 235.106C98.8776 234.951 98.412 234.641 97.9465 234.175C97.4809 233.71 97.0153 233.244 96.8601 232.623C96.0842 231.072 95.7738 229.52 95.6186 227.813C95.4635 226.105 95.7738 224.554 96.3946 222.847C97.0153 221.295 98.1017 219.743 99.4984 218.656C100.74 217.415 102.292 216.639 103.999 216.018C104.93 215.708 105.861 215.397 106.792 215.397C107.723 215.397 108.655 215.087 109.586 214.777C110.051 214.622 110.672 214.466 111.293 214.466C111.913 214.466 112.379 214.622 113 214.932C116.724 216.794 118.742 223.933 119.052 224.709L119.983 226.571L103.533 234.796C102.602 235.262 101.826 235.417 101.05 235.417ZM110.982 215.863C110.672 215.863 110.206 215.863 109.896 216.018C108.965 216.329 107.879 216.639 106.792 216.794C105.861 216.794 105.085 216.949 104.154 217.415C102.602 217.881 101.205 218.656 100.119 219.743C98.8777 220.829 97.9464 222.071 97.3257 223.622C96.8601 225.019 96.5498 226.571 96.705 227.968C96.705 229.52 97.1706 230.916 97.7913 232.313C97.9465 232.779 98.2569 233.089 98.5673 233.399C98.8777 233.71 99.3432 234.02 99.8088 234.02C100.585 234.33 101.516 234.175 102.447 233.865L117.966 226.105L117.5 225.174C117.5 225.174 115.483 217.88 112.069 216.173C111.758 215.863 111.448 215.863 110.982 215.863Z" fill="#0A0803"/>
<path d="M122.626 222.852C122.626 222.852 118.591 212.609 108.814 215.092C98.8818 217.73 99.9682 226.421 101.83 230.146L103.693 233.87L123.402 224.093L122.626 222.852Z" fill="#FCFCFC"/>
<path d="M103.234 234.799L101.062 230.453C100.286 228.902 99.8203 227.194 99.8203 225.487C99.8203 223.78 100.131 222.073 100.751 220.366C101.527 218.814 102.614 217.573 104.01 216.642C105.407 215.71 106.959 214.934 108.511 214.624C118.598 211.986 122.788 222.073 123.099 222.694L124.03 224.711L103.234 234.799ZM111.77 215.4C110.839 215.4 109.752 215.555 108.821 215.71C107.425 216.021 106.028 216.642 104.786 217.418C103.545 218.349 102.614 219.435 101.993 220.832C101.372 222.228 101.062 223.78 101.217 225.332C101.217 226.884 101.683 228.436 102.303 229.833L103.855 233.092L122.323 223.935L122.012 223.004C121.857 222.694 118.909 215.4 111.77 215.4Z" fill="#0A0803"/>
<path d="M101.831 227.968L102.141 227.658L104.78 224.864C104.78 224.864 106.331 225.795 107.418 226.571L131.938 223.778C132.558 223.778 133.024 223.933 133.49 224.243C133.955 224.554 134.266 225.019 134.421 225.64L136.128 233.4C136.283 234.331 136.283 235.262 136.128 236.193L137.214 236.348L134.576 239.297C134.421 239.607 134.11 239.762 133.955 240.073C133.024 241.004 131.783 241.625 130.386 241.78L111.142 244.728C109.28 245.039 107.418 244.573 106.021 243.487C104.469 242.401 103.538 240.693 103.228 238.986L101.831 229.985C101.521 229.054 101.676 228.434 101.831 227.968Z" fill="#E6E6E6"/>
<path d="M109.902 245.044C108.04 245.044 106.333 244.423 104.936 243.182C103.539 241.94 102.608 240.388 102.298 238.526L100.901 229.525C100.746 228.905 100.901 228.439 101.056 227.973V227.818L101.367 227.508L101.677 227.042L104.471 223.938L104.936 224.249L107.574 225.801L131.939 223.007C132.715 222.852 133.336 223.163 133.956 223.473C134.577 223.939 134.888 224.559 135.043 225.18L136.75 232.939C136.905 233.715 136.905 234.491 136.905 235.267L138.457 235.578L135.198 239.302C135.043 239.613 134.732 239.768 134.577 240.078L134.422 240.233C133.336 241.164 131.939 241.785 130.542 241.94L111.299 244.734C110.678 245.044 110.368 245.044 109.902 245.044ZM102.608 228.129C102.453 228.594 102.298 228.905 102.453 229.215L103.85 238.216C104.16 239.923 105.091 241.32 106.333 242.251C107.73 243.182 109.281 243.647 110.988 243.492L130.232 240.544C131.318 240.389 132.405 239.923 133.18 239.147L133.025 238.371C133.18 238.216 133.956 238.371 134.267 238.216L136.129 236.198L135.508 236.043V235.422C135.663 234.647 135.663 233.715 135.508 232.784L133.956 225.025C133.801 224.714 133.646 224.249 133.336 224.094C133.025 223.938 132.56 223.783 132.249 223.783L107.419 226.577L107.264 226.422C106.488 225.956 105.557 225.335 105.091 225.025L103.074 227.353L102.608 228.129Z" fill="#0A0803"/>
<path d="M134.731 220.524L106.332 223.783C106.021 223.783 105.711 223.938 105.556 224.094C105.245 224.249 105.09 224.404 104.935 224.714C104.78 225.025 104.625 225.18 104.625 225.49C104.625 225.801 104.469 226.111 104.625 226.421L106.021 235.422C106.332 237.285 107.263 238.837 108.815 239.923C110.367 241.009 112.229 241.475 113.936 241.164L133.179 238.216C134.111 238.061 135.042 237.75 135.818 237.285C136.594 236.819 137.37 236.043 137.835 235.267C138.456 234.491 138.766 233.56 138.921 232.629C139.077 231.698 139.077 230.767 138.921 229.836L137.214 222.076C137.059 221.611 136.749 221.145 136.283 220.835C135.818 220.524 135.352 220.369 134.731 220.524Z" fill="#FCFCFC"/>
<path d="M112.698 241.936C110.835 241.936 109.128 241.315 107.732 240.074C106.335 238.832 105.404 237.28 105.093 235.418L103.697 226.417C103.697 226.107 103.697 225.641 103.697 225.331C103.852 225.02 104.007 224.555 104.162 224.245C104.318 223.934 104.628 223.624 104.938 223.469C105.249 223.313 105.714 223.158 106.025 223.158L134.424 219.899C135.2 219.744 135.821 220.054 136.442 220.365C137.062 220.83 137.373 221.451 137.528 222.072L139.235 229.831C139.39 230.918 139.39 231.849 139.235 232.935C139.08 234.021 138.614 234.953 137.993 235.728C137.373 236.66 136.597 237.28 135.821 237.901C134.89 238.522 133.959 238.832 132.872 238.987L113.629 241.781C113.318 241.936 113.008 242.091 112.698 241.936ZM134.735 221.296L106.335 224.555C106.18 224.555 105.869 224.71 105.714 224.71C105.559 224.865 105.404 225.02 105.249 225.176C105.093 225.331 105.093 225.486 104.938 225.796C104.938 225.952 104.938 226.262 104.938 226.417L106.335 235.418C106.645 237.125 107.421 238.522 108.818 239.608C110.215 240.539 111.922 241.005 113.474 240.85L132.717 237.901C133.493 237.746 134.424 237.436 135.045 237.125C135.821 236.66 136.442 236.039 136.907 235.418C137.373 234.642 137.683 233.866 137.993 233.09C138.149 232.159 138.149 231.383 137.993 230.452L136.442 222.693C136.286 222.382 136.131 221.917 135.821 221.761C135.666 221.296 135.355 221.296 134.735 221.296Z" fill="#0A0803"/>
<path d="M115.957 241.005L117.819 236.505L118.44 237.901C119.526 237.125 120.923 236.66 122.475 236.815C124.492 237.125 126.51 238.057 127.907 239.608C129.459 241.005 130.39 243.023 130.7 245.04L137.994 282.441L142.65 292.993L141.253 296.718L141.098 297.184V297.494C140.787 298.115 140.322 298.58 139.856 298.891C139.391 299.201 138.615 299.511 137.994 299.511C137.063 299.511 136.132 299.046 135.356 298.425C134.58 297.804 134.114 296.873 133.959 295.942L116.888 249.851C116.578 249.075 116.268 248.299 116.112 247.368L115.957 246.902C115.957 246.592 115.802 246.282 115.802 245.971C115.181 244.109 115.336 242.402 115.957 241.005Z" fill="#0A0803"/>
<path d="M137.684 299.823C136.597 299.823 135.511 299.357 134.735 298.581C133.959 297.805 133.338 296.874 133.028 295.788L115.957 249.697C115.647 248.921 115.336 247.99 115.026 247.059L114.871 245.817C114.871 245.817 114.871 245.662 114.871 245.507C114.716 243.8 114.871 242.093 115.492 240.541L117.819 234.488L118.751 236.506C119.837 235.885 121.234 235.575 122.475 235.73C124.648 236.04 126.51 236.971 128.062 238.523C129.614 239.92 130.7 241.937 131.166 243.955V244.42L138.46 281.821L143.115 292.374L141.719 296.409C141.719 296.564 141.563 296.719 141.563 296.874L141.408 297.185C141.098 297.961 140.632 298.581 140.011 299.047C139.235 299.512 138.46 299.823 137.684 299.823ZM116.268 247.059C116.423 247.834 116.733 248.61 117.044 249.231L134.27 295.322C134.425 296.098 134.89 296.874 135.511 297.495C136.132 298.116 136.908 298.426 137.839 298.426C138.46 298.426 138.925 298.271 139.391 297.961C139.856 297.65 140.167 297.185 140.477 296.719V296.564C140.477 296.409 140.632 296.253 140.632 296.098L141.874 292.529L137.373 282.286L130.079 244.731C129.769 242.868 128.838 241.006 127.441 239.609C126.044 238.213 124.337 237.282 122.32 236.971C121.078 236.816 119.837 237.282 118.751 237.902L118.13 238.368L117.819 237.747L116.578 240.851C116.112 242.248 115.802 243.8 116.112 245.352C116.112 245.507 116.112 245.662 116.112 245.817L116.268 247.059Z" fill="#0A0803"/>
<path d="M117.502 241.317C117.502 241.007 117.346 240.697 117.346 240.386C116.726 235.265 119.985 231.075 124.33 231.385C126.347 231.696 128.365 232.627 129.762 234.179C131.313 235.575 132.245 237.593 132.555 239.61L142.332 290.512C142.332 290.667 142.487 290.978 142.487 291.133C142.642 291.599 142.487 292.219 142.487 292.685C142.332 293.151 142.177 293.616 141.711 294.082C141.401 294.547 140.935 294.858 140.47 295.168C140.004 295.478 139.539 295.634 138.918 295.634C137.987 295.634 137.056 295.168 136.28 294.547C135.504 293.926 135.038 292.995 134.883 292.064L118.433 244.421C118.122 243.645 117.812 242.714 117.657 241.783L117.502 241.317Z" fill="#FCFCFC"/>
<path d="M139.076 296.098C137.989 296.098 136.903 295.632 136.127 294.856C135.351 294.081 134.731 293.149 134.42 292.063L117.97 244.575C117.66 243.799 117.349 242.868 117.039 241.937L116.884 240.696C116.884 240.696 116.884 240.54 116.884 240.385C116.729 238.989 116.729 237.592 117.194 236.195C117.66 234.798 118.281 233.557 119.212 232.626C119.832 231.85 120.764 231.384 121.695 230.919C122.626 230.608 123.557 230.453 124.643 230.453C126.816 230.764 128.678 231.695 130.23 233.247C131.782 234.643 132.868 236.661 133.334 238.678V239.144L143.266 290.511C143.266 290.511 143.266 290.666 143.266 290.822C143.266 291.442 143.266 292.218 143.111 292.839C142.955 293.46 142.49 294.081 142.18 294.546C141.869 295.012 141.404 295.322 140.938 295.477C140.162 295.943 139.541 296.098 139.076 296.098ZM118.436 241.782C118.591 242.558 118.901 243.334 119.212 244.11L135.662 291.908C135.817 292.684 136.282 293.46 136.903 294.081C137.524 294.701 138.3 295.012 139.076 295.012C139.386 295.012 139.852 294.856 140.162 294.701C140.473 294.546 140.783 294.391 141.093 294.081C141.404 293.615 141.714 293.305 141.869 292.684C142.024 292.218 142.024 291.753 142.024 291.132C142.024 290.977 142.024 290.666 142.024 290.511V290.046L132.247 239.764C131.937 237.902 131.006 236.04 129.609 234.643C128.213 233.246 126.505 232.315 124.488 232.005C123.712 232.005 122.936 232.005 122.16 232.315C121.384 232.626 120.764 233.091 120.143 233.712C119.367 234.643 118.746 235.73 118.436 236.816C118.125 237.902 117.97 239.144 118.28 240.385C118.28 240.54 118.28 240.696 118.28 240.851L118.436 241.782Z" fill="#0A0803"/>
<path d="M145.135 296.247H145.601C147.308 296.247 148.86 297.799 149.481 300.437C149.946 302.92 148.394 303.386 146.687 303.852L134.893 306.024L133.496 299.196L145.135 296.247Z" fill="#FCFCFC"/>
<path d="M134.266 308.361L132.559 298.118L145.905 295.014C146.991 295.325 147.922 295.946 148.543 296.877C149.319 297.653 149.629 298.739 149.785 299.825C150.405 302.929 149.319 305.722 147.146 306.343L135.197 309.137C135.042 309.137 135.042 309.137 134.886 309.137C134.731 309.137 134.731 309.137 134.576 308.981C134.421 308.981 134.421 308.826 134.421 308.671C134.421 308.516 134.421 308.516 134.266 308.361ZM134.11 299.049L135.507 307.585L146.991 304.946C148.388 304.636 149.164 302.308 148.698 299.98C148.233 297.653 146.991 296.411 145.75 296.411H145.284L134.11 299.049Z" fill="#0A0803"/>
<path d="M130.849 304.324C131.47 306.962 133.488 308.824 135.04 308.359C136.591 307.893 137.678 305.41 137.212 302.617C136.591 299.979 134.729 298.116 133.022 298.427C131.315 299.048 130.384 301.531 130.849 304.324Z" fill="#E6E6E6"/>
<path d="M134.419 308.98C133.798 308.98 133.177 308.825 132.712 308.514C131.315 307.583 130.384 306.031 130.074 304.324C129.453 301.221 130.539 298.427 132.712 297.806C133.177 297.651 133.488 297.651 133.953 297.806C134.419 297.806 134.729 298.117 135.04 298.272C135.66 298.737 136.281 299.358 136.747 300.134C137.212 300.91 137.523 301.686 137.678 302.462C138.299 305.566 137.212 308.359 135.04 308.98C134.884 308.98 134.729 308.98 134.419 308.98ZM131.47 304.014C131.625 305.411 132.401 306.497 133.488 307.273C133.643 307.428 133.953 307.428 134.108 307.583C134.419 307.583 134.574 307.583 134.884 307.583C136.281 307.273 137.057 304.945 136.592 302.617C136.436 301.22 135.66 300.134 134.574 299.203C134.108 298.893 133.643 298.893 133.177 298.893C131.781 299.513 131.005 301.686 131.47 304.014Z" fill="#0A0803"/>
<path d="M1.73902 303.237H2.04942C2.20461 303.237 2.35977 303.237 2.35977 303.237C2.51495 303.237 2.67016 303.237 2.67016 303.237L8.56732 306.651C10.8952 308.358 12.7574 310.375 13.9989 312.858C15.2404 315.341 16.0164 318.135 16.0164 320.928C16.1716 322.014 16.0164 322.946 15.5508 324.032C15.2404 324.963 14.6197 325.894 13.8437 326.67C13.5334 326.98 13.0678 327.136 12.7574 327.291L7.17063 330.395L-0.588813 315.341L-4.93408 306.806L1.73902 303.237Z" fill="#E6E6E6"/>
<path d="M1.73902 303.237H2.04942C2.20461 303.237 2.35977 303.237 2.35977 303.237C2.51495 303.237 2.67016 303.237 2.67016 303.392L8.56732 306.806C10.8952 308.513 12.7574 310.53 13.9989 313.013C15.2404 315.496 16.0164 318.29 16.0164 321.083C16.0164 323.722 13.8438 323.256 12.6022 324.342C12.2919 324.653 11.8263 324.808 11.3607 324.963L5.92914 327.912L-0.588813 315.341L-4.93408 306.806L1.73902 303.237Z" fill="#FCFCFC"/>
<path d="M7.01528 331.171L-5.08943 307.583C-5.24462 307.272 -5.24463 306.962 -5.24463 306.651C-5.08944 306.341 -4.93426 306.031 -4.62388 306.031L2.04927 302.306L2.67001 302.461C2.8252 302.461 2.82518 302.461 3.13556 302.617L9.03277 306.031C11.3606 307.738 13.378 309.91 14.6195 312.549C15.861 315.187 16.637 317.98 16.7922 320.929C16.7922 322.015 16.7922 323.101 16.3266 324.033C16.0162 325.119 15.3955 326.05 14.7747 326.826L14.3092 327.136C13.9988 327.447 13.5332 327.757 13.0676 327.912L7.01528 331.171ZM-3.84794 307.117L7.63603 329.464L12.6021 326.826C12.9125 326.671 13.378 326.516 13.5332 326.36C14.154 325.74 14.7747 324.809 15.0851 324.033C15.3955 323.101 15.5507 322.17 15.3955 321.239C15.3955 318.601 14.6195 315.963 13.378 313.48C12.1365 311.152 10.4295 308.979 8.25682 307.427L2.35962 304.013H2.20442H2.04927H1.89407L-3.84794 307.117Z" fill="#0A0803"/>
<path d="M-3.53739 326.67L2.35976 330.085C6.54986 332.412 9.80886 329.929 9.80886 324.498C9.80886 321.704 9.03288 318.911 7.79137 316.428C6.54986 313.945 4.6876 311.772 2.35976 310.22L-3.53739 306.806C-4.31334 306.341 -4.93408 306.806 -4.93408 307.893V324.032C-4.93408 324.653 -4.77891 325.119 -4.46853 325.584C-4.46853 325.894 -4.00296 326.36 -3.53739 326.67Z" fill="#E6E6E6"/>
<path d="M5.15716 331.634C3.91565 331.634 2.82932 331.324 1.89819 330.703L-3.99902 327.289C-4.61977 326.979 -4.93013 326.358 -5.24051 325.893C-5.55088 325.272 -5.70605 324.651 -5.70605 324.03V307.891C-5.70605 307.58 -5.70609 307.27 -5.5509 306.959C-5.39571 306.649 -5.24049 306.339 -4.93011 306.184C-4.61973 306.028 -4.46454 306.028 -4.15417 306.028C-3.84379 306.028 -3.53341 306.184 -3.37822 306.184L2.51894 309.598C4.84677 311.305 6.86423 313.477 8.10574 316.116C9.50244 318.754 10.1232 321.547 10.2784 324.496C10.4336 325.737 10.2784 326.979 9.65763 328.22C9.19207 329.462 8.26093 330.393 7.3298 331.169C6.70904 331.324 5.93311 331.479 5.15716 331.634ZM-4.15417 307.115C-4.15417 307.115 -4.30936 307.27 -4.30936 307.735V323.72C-4.30936 324.185 -4.1542 324.651 -3.99902 324.961C-3.84383 325.427 -3.53345 325.737 -3.22307 325.893L2.67413 329.307C3.29489 329.772 4.07081 330.083 4.69157 330.083C5.46751 330.083 6.24345 330.083 6.8642 329.772C7.64015 329.151 8.26092 328.22 8.72649 327.289C9.19206 326.358 9.19204 325.272 9.19204 324.185C9.19204 321.547 8.41611 318.909 7.1746 316.426C5.93309 314.098 4.22603 311.926 2.05339 310.374L-3.84382 306.959L-4.15417 307.115Z" fill="#0A0803"/>
<path d="M140.013 324.963V329.929L141.565 329.463L152.893 321.859L152.118 318.6L140.013 324.963Z" fill="#0A0803"/>
<path d="M137.222 303.235L149.172 300.441L148.862 303.855L147.62 305.407L135.981 308.045L137.067 305.562L137.222 303.235Z" fill="#0A0803"/>
<path d="M106.492 243.641L108.82 239.917L111.769 241.158L115.338 240.537L114.717 243.641L110.837 244.262H108.354L106.492 243.641Z" fill="#0A0803"/>
<path d="M115.642 243.799H114.4L114.866 241.005H116.108L115.642 243.799Z" fill="#E6E6E6"/>
<path d="M54.1885 319.069L57.2923 317.362L58.0682 320.311L57.6027 322.639L55.43 324.656H54.654L54.4989 320.156L54.1885 319.069Z" fill="#0A0803"/>
<path d="M64.5854 316.273L81.3458 307.272L82.5873 311.307L83.2081 315.497L82.4322 319.221L81.1907 321.084L64.8958 330.395L66.1373 327.912L66.2925 323.256L65.3614 317.98L64.5854 316.273Z" fill="#0A0803"/>
<path d="M7.78906 316.586L14.1518 313.172L15.7037 317.828L16.1693 322.173L15.3933 325.121L13.8414 327.294L8.09946 329.932L9.80655 326.984L9.65135 320.621L7.78906 316.586Z" fill="#0A0803"/>
</g>
</g>
<defs>
<clipPath id="clip0_33897_70628">
<rect width="633" height="424" fill="white"/>
</clipPath>
</defs>
</svg>
