<svg width="633" height="424" viewBox="0 0 633 424" fill="none" xmlns="http://www.w3.org/2000/svg">
<g clip-path="url(#clip0_33897_70960)">
<g opacity="0.08">
<path d="M-42.0718 233.595C-45.4935 231.661 -47.5762 228.09 -47.5762 224.073V185.245H-39.3939V224.073C-39.3939 225.561 -38.5013 226.156 -37.9062 226.454C-37.3111 226.751 -36.2699 227.197 -35.0797 226.454L9.25345 200.865L13.2701 207.858L-31.0629 233.446C-32.8481 234.338 -34.6334 234.933 -36.5674 234.933C-38.5014 234.933 -40.2866 234.487 -42.0718 233.595Z" fill="#0A0803"/>
<path d="M306.191 412.564C304.406 408.398 300.836 405.125 296.373 404.233C282.388 400.96 271.231 391.29 266.172 377.901L264.982 375.223L267.511 374.33L268.702 377.157C273.313 389.504 283.727 398.877 296.819 401.704C302.175 403.042 306.638 406.613 308.721 411.671C311.547 418.366 318.986 421.787 325.829 419.705L329.102 418.812C337.284 416.432 343.384 410.035 345.466 401.852C347.103 395.753 343.83 389.504 338.028 387.273C333.267 385.339 329.697 381.173 328.655 376.264L318.837 329.551L321.515 328.956L331.333 375.669C332.077 379.686 335.052 383.107 338.92 384.595C346.21 387.422 349.929 395.158 348.144 402.596C345.913 411.82 338.92 418.961 329.994 421.639L326.721 422.531C325.085 422.977 323.3 423.275 321.812 423.275C315.266 423.126 309.018 419.258 306.191 412.564Z" fill="#0A0803"/>
<path d="M-18.8625 279.714C-28.3837 266.028 -5.32444 234.786 -4.43183 233.447L-2.20029 235.084C-2.49783 235.381 -24.962 266.028 -16.631 278.078C-14.8458 280.607 -13.0606 281.797 -11.2753 281.648C-6.96104 281.202 -2.79537 272.722 -1.45645 269.449L1.07255 270.342C0.477472 271.681 -4.28306 283.434 -11.1264 284.326C-11.424 284.326 -11.5727 284.326 -11.8703 284.326C-14.5481 284.475 -16.9285 282.839 -18.8625 279.714Z" fill="#0A0803"/>
<path d="M294.445 254.428C294.892 254.13 334.911 227.649 336.398 181.68C336.845 166.356 333.572 155.794 326.133 149.992C316.463 142.256 303.223 145.975 303.074 145.975L302.33 143.297C302.925 143.148 317.207 139.28 328.067 147.76C336.101 154.009 339.969 165.464 339.522 181.68C338.035 228.988 296.826 256.362 296.379 256.659L294.445 254.428Z" fill="#0A0803"/>
<path d="M291.918 244.461C292.364 244.163 332.383 217.683 333.871 171.713C334.317 156.39 331.044 145.827 323.606 140.025C313.936 132.289 300.695 136.008 300.547 136.008L299.803 133.331C300.398 133.182 314.68 129.314 325.54 137.794C333.573 144.042 337.441 155.497 336.995 171.713C335.507 219.021 294.298 246.395 293.852 246.692L291.918 244.461Z" fill="#0A0803"/>
<path d="M301.879 306.943L330.889 258.742C339.369 244.758 343.684 228.691 343.684 212.475V194.92C343.684 187.333 339.518 180.192 332.972 176.175L329.848 174.39C320.922 168.885 309.467 168.885 300.541 174.539L290.424 180.787L286.11 173.944L296.226 167.695C307.979 160.406 322.41 160.257 334.162 167.398L337.286 169.183C346.51 174.687 352.015 184.506 352.015 195.069V212.624C352.015 230.327 347.254 247.733 338.03 263.056L309.02 311.257L301.879 306.943Z" fill="#0A0803"/>
<path d="M-47.5762 150.284V97.4712C-47.5762 86.016 -41.4767 75.4534 -31.658 69.6514C-21.5417 63.8495 -9.04507 63.8494 0.922447 69.8002L79.77 116.514L75.6043 123.357L-3.24316 76.6436C-10.6816 72.1805 -19.9052 72.1805 -27.4924 76.4948C-34.9308 80.8091 -39.3939 88.6938 -39.3939 97.1737V150.135L-47.5762 150.284Z" fill="#0A0803"/>
<path d="M204.734 110.857V111.006C203.247 116.361 202.503 122.312 202.503 129.007C202.503 168.728 230.323 216.78 264.688 236.567C271.68 240.583 278.673 243.112 284.921 244.303C285.07 244.303 285.07 244.451 285.07 244.6L282.392 255.014C282.243 255.311 282.541 255.46 282.689 255.311L309.319 240.435C320.179 233.889 326.874 220.202 326.874 200.713C326.874 160.992 299.054 112.94 264.688 93.1534C248.77 83.9298 234.191 82.5908 223.331 87.5002C221.992 88.0953 200.271 100.294 197.593 101.782C197.593 101.782 197.445 101.931 197.593 102.08L204.734 110.857Z" fill="#FCFCFC"/>
<path d="M281.8 256.502C281.205 256.056 281.056 255.312 281.205 254.717L283.585 245.344C277.337 244.005 270.791 241.476 264.096 237.608C229.433 217.525 201.316 168.728 201.316 128.71C201.316 122.313 202.06 116.362 203.547 110.857L196.555 102.824C196.258 102.526 196.109 102.08 196.258 101.485L196.406 100.741L197.001 100.443C204.44 96.4267 221.548 86.608 222.887 86.1617C234.789 80.6572 249.814 82.5912 265.584 91.8149C300.247 111.899 328.364 160.695 328.364 200.714C328.364 219.31 322.265 233.592 311.256 241.03V241.179L283.585 256.651C283.287 256.8 283.139 256.8 282.841 256.8C282.246 256.8 281.948 256.651 281.8 256.502ZM308.727 239.096C319.438 232.401 325.389 218.715 325.389 200.565C325.389 161.587 297.867 113.833 264.096 94.344C249.368 85.8641 235.086 83.9301 223.929 88.8395C223.185 89.137 213.812 94.344 199.531 102.377L205.928 109.816C206.225 110.262 206.374 111.006 206.225 111.452C204.737 116.808 203.994 122.759 203.994 129.156C203.994 168.133 231.516 215.888 265.286 235.377C271.981 239.245 278.824 241.774 285.073 242.964C285.519 243.113 285.816 243.41 286.263 243.708L286.56 244.303L284.478 252.783L308.281 239.394L308.727 239.096Z" fill="#0A0803"/>
<path d="M155.785 270.045L210.086 301.287L218.12 313.783L253.824 439.195L324.192 398.73V247.135C324.192 185.396 280.9 110.267 227.343 79.3235C201.606 64.5954 178.398 62.6614 160.992 71.4388L89.4346 112.499L155.785 216.191V270.045Z" fill="#FCFCFC"/>
<path d="M216.786 314.676L209.05 302.476L154.452 270.937V216.934L87.6548 112.499L160.552 70.5458C178.999 61.0246 202.951 64 228.093 78.4306C281.798 109.374 325.536 185.247 325.536 247.283V399.623L252.937 441.427L216.786 314.676ZM323.007 397.986V247.134C323.007 185.99 279.864 111.308 226.903 80.6621C202.653 66.6778 179.594 63.8512 162.039 72.7774L91.6717 113.242L157.279 216.042V269.003L210.984 300.096L219.315 313.039L254.574 436.964L322.71 397.837L323.007 397.986Z" fill="#0A0803"/>
<path d="M101.187 218.421V279.714L162.926 315.418L172.149 329.7L212.912 472.221L293.247 425.953V253.679C293.247 183.163 243.856 97.6206 182.861 62.5111C153.702 45.7002 126.924 43.4687 107.286 53.585L25.7607 100.447L101.187 218.421Z" fill="#FCFCFC"/>
<path d="M170.812 330.443L162.035 316.459L99.7007 280.457V219.016L23.6797 99.8517L106.693 52.2456C127.52 41.5343 155.043 44.6584 183.606 61.1718C244.899 96.43 294.737 182.716 294.737 253.53V426.697L212.17 474.154L170.812 330.443ZM291.613 425.209V253.679C291.613 183.906 242.519 98.6615 181.97 63.7008C154.15 47.6338 127.818 44.5096 107.734 54.7747L27.3989 100.893L102.378 218.272V278.969L163.82 314.376L173.341 329.104L213.658 470.286L291.613 425.209Z" fill="#0A0803"/>
<path d="M-7.70768 172.601V344.727L208.305 469.395C210.388 470.585 212.917 469.098 212.917 466.717V299.65C212.917 229.431 163.823 144.038 102.976 108.78C42.1299 73.3725 -7.85645 102.085 -7.70768 172.601Z" fill="#E6E6E6"/>
<path d="M207.561 470.88L-8.45127 346.212L-9.04639 345.765V172.598C-9.04639 137.935 2.70643 112.049 24.1291 99.7016C45.5519 87.3538 73.9667 90.1804 103.72 107.586C164.716 142.993 214.256 229.279 214.256 299.796V466.714C214.256 468.5 213.512 469.987 212.024 470.731C211.429 471.177 210.537 471.326 209.793 471.326C209.049 471.326 208.156 471.177 207.561 470.88ZM102.53 110.115C73.5203 93.3045 46.1469 90.3292 25.6168 102.231C5.08673 113.983 -6.21974 138.977 -6.21974 172.598V343.98L209.049 468.202C209.793 468.648 210.537 468.351 210.834 468.202C210.983 468.053 211.578 467.756 211.578 466.714V299.796C211.578 230.172 162.484 145.076 102.233 110.115L102.828 108.777L102.53 110.115Z" fill="#0A0803"/>
<path d="M4.93457 178.849V338.478L200.268 451.096V291.467C200.268 229.133 156.53 153.558 102.676 122.465C48.8215 91.3727 4.93457 116.515 4.93457 178.849Z" fill="#E6E6E6"/>
<path d="M4.34835 339.517L3.75342 339.071V178.698C3.75342 148.052 14.0184 125.29 32.9121 114.281C51.8057 103.421 76.9477 105.95 103.429 121.124C157.58 152.217 201.616 228.684 201.616 291.316V453.474L4.34835 339.517ZM102.09 123.802C76.5013 108.925 52.5495 106.396 34.5485 116.959C16.5475 127.373 6.57988 149.391 6.57988 178.996V337.732L198.938 448.862V291.465C198.938 229.874 155.498 154.597 102.09 123.802L102.536 122.315L102.09 123.802Z" fill="#0A0803"/>
<path d="M4.93457 179V338.629L200.119 451.396V441.28L14.3071 334.018V174.24C14.3071 145.081 23.977 123.956 39.8953 113.096C40.044 112.947 39.8953 112.65 39.7465 112.798C18.4726 121.129 4.93457 144.337 4.93457 179Z" fill="#0A0803"/>
<path d="M4.34835 339.815L3.75342 339.369V178.847C3.75342 144.928 16.6963 120.381 39.4579 111.455C40.053 111.306 41.0943 111.604 41.3918 112.199C41.8381 112.943 41.5407 113.835 40.9456 114.282C24.8786 125.29 16.1011 146.713 16.1011 174.384V333.269L201.17 440.085L201.765 440.532V453.921L4.34835 339.815ZM13.8696 335.65L13.2745 335.203V174.682C13.2745 151.027 19.5228 131.985 31.1267 119.488C15.3572 130.349 6.57988 151.622 6.57988 179.145V337.881L198.938 449.011V442.168L13.8696 335.65Z" fill="#0A0803"/>
<path d="M21.9015 161.145C21.9015 161.293 21.9015 161.293 21.9015 161.442C19.8187 168.434 18.6287 176.765 18.6287 185.84C18.6287 239.546 56.4159 305.004 102.981 331.782C112.502 337.436 121.725 340.709 130.205 342.345C130.503 342.494 130.503 342.643 130.503 342.791L126.784 356.924C126.784 357.073 126.932 357.371 127.23 357.222L163.381 336.989C177.96 327.766 187.035 309.318 187.035 282.986C187.035 229.281 149.248 163.822 102.683 137.044C81.1116 124.696 61.474 122.613 46.4484 129.457H46.2996C44.6632 130.201 15.0581 146.863 11.4877 148.946C11.1901 148.946 11.1902 149.243 11.3389 149.392L21.9015 161.145Z" fill="#FCFCFC"/>
<path d="M125.738 358.262C125.143 357.965 124.994 357.072 125.143 356.477L128.564 343.386C119.936 341.749 111.01 338.179 101.935 332.972C55.0726 306.045 16.9876 239.991 16.9876 185.988C16.9876 177.36 17.8804 169.177 20.1119 161.739L10.4419 150.73C10.1444 150.284 9.99551 149.837 10.1443 149.242C10.1443 148.647 10.4418 148.35 10.8881 147.903C16.3926 144.779 44.0636 129.307 45.8488 128.415C61.7671 121.125 82.1484 123.952 103.274 136.151C150.136 163.078 188.221 229.131 188.221 283.134C188.221 308.425 179.89 327.765 164.715 337.732V337.881L127.672 358.56C127.523 358.709 127.225 358.709 126.928 358.709C126.63 358.709 126.184 358.56 125.738 358.262ZM162.484 335.947C177.212 326.723 185.394 308.127 185.394 283.283C185.394 230.172 148.053 165.309 101.935 138.68C81.5534 126.927 61.916 124.249 46.8903 131.092C45.5514 131.539 25.765 142.845 13.2684 149.689L22.4922 160.251C22.7897 160.697 22.9384 161.441 22.7896 161.888C20.7069 169.177 19.6655 177.36 19.6655 185.988C19.6655 239.099 57.0065 303.962 103.125 330.592C112.497 336.096 121.423 339.369 130.052 341.005C130.498 341.154 130.796 341.303 131.242 341.749C131.391 342.047 131.54 342.493 131.391 343.088L128.267 354.841L161.591 336.245L162.484 335.947Z" fill="#0A0803"/>
<path d="M128.567 356.623C161.445 337.581 161.445 276.139 128.567 219.161C95.6887 162.182 42.4294 131.387 9.55151 150.43C-23.3264 169.472 -23.3264 230.914 9.55151 287.892C42.4294 344.87 95.6887 375.666 128.567 356.623Z" fill="#E6E6E6"/>
<path d="M68.3166 351.867C21.4544 324.94 -16.6304 258.887 -16.6304 204.884C-16.6304 178.403 -7.70424 158.617 8.66033 149.244C25.0249 139.723 46.7452 141.806 69.6556 155.195C116.518 182.122 154.603 248.175 154.603 302.179C154.603 328.659 145.676 348.446 129.312 357.818C122.617 361.686 114.881 363.62 106.699 363.62C94.9463 363.62 81.7058 359.752 68.3166 351.867ZM10.148 151.476C-5.32394 160.253 -13.8037 179.295 -13.8037 204.735C-13.8037 257.845 23.5372 322.709 69.6556 349.338C91.6733 362.132 112.352 364.215 127.824 355.289C143.296 346.512 151.776 327.469 151.776 302.03C151.776 248.919 114.435 184.056 68.3166 157.426C55.3737 149.839 42.5797 145.971 31.422 145.971C23.6861 146.12 16.3963 147.756 10.148 151.476Z" fill="#0A0803"/>
<path d="M120.979 343.537C149.691 327.023 149.691 273.169 120.979 223.48C92.2664 173.792 45.7018 146.864 16.9894 163.378C-11.723 179.891 -11.723 233.745 16.9894 283.434C45.7018 333.272 92.2664 360.199 120.979 343.537Z" fill="#E6E6E6"/>
<path d="M68.3146 339.516C27.4032 315.862 -5.9209 258.14 -5.9209 210.98C-5.9209 187.921 2.11262 170.515 16.3944 162.184C30.825 153.853 49.7185 155.787 69.8023 167.391C110.714 191.045 144.038 248.767 144.038 295.927C144.038 318.986 136.004 336.392 121.723 344.723C115.772 348.145 109.077 349.93 101.788 349.93C91.5226 349.781 80.0674 346.211 68.3146 339.516ZM17.7332 164.713C4.19524 172.449 -3.09444 188.962 -3.09444 211.129C-3.09444 257.545 29.6347 314.226 69.8023 337.285C88.8447 348.294 106.846 350.079 120.384 342.492C133.922 334.756 141.211 318.242 141.211 296.076C141.211 249.66 108.482 192.979 68.3146 169.92C56.8594 163.374 45.9993 159.952 36.1806 159.952C29.3372 159.804 23.0889 161.44 17.7332 164.713Z" fill="#0A0803"/>
<path d="M230.024 310.509L236.273 336.693L238.207 353.503L243.414 450.203L251.893 475.345L303.814 445.591V348.892C303.814 326.576 295.78 304.112 281.796 280.607L230.024 310.509Z" fill="#FCFCFC"/>
<path d="M250.404 476.536L241.626 450.651V450.502L236.419 353.653L234.485 336.991L228.237 310.808L227.939 309.618L280.752 279.418L281.348 279.12L282.538 279.418L282.835 279.864C297.712 304.708 305.002 327.321 305.002 348.744V445.444V446.188L252.486 476.239L251.891 476.536H250.404ZM302.324 348.893C302.324 328.363 295.481 306.642 281.348 282.542L231.51 310.957L237.609 336.247L239.543 353.058L244.75 449.609L252.635 473.115L302.473 444.7V348.893H302.324Z" fill="#0A0803"/>
<path d="M244.157 317.054C252.191 331.782 257.249 346.064 258.885 360.197L295.334 339.369C293.549 325.236 288.639 310.954 280.606 296.375L244.157 317.054Z" fill="#E6E6E6"/>
<path d="M257.548 360.199C255.912 346.512 251.151 332.677 242.969 317.502L242.374 316.163L281.202 294.146L281.797 295.484C290.128 310.956 295.186 325.238 296.674 338.925L296.823 339.818L257.697 362.133L257.548 360.199ZM280.012 298.162L245.944 317.353C253.531 331.486 258.143 344.876 259.928 357.67L293.848 338.479C292.211 325.684 287.748 312.593 280.012 298.162Z" fill="#0A0803"/>
<path d="M258.145 354.692C258.443 356.478 258.74 358.412 258.889 360.197L295.337 339.369C293.552 325.236 288.643 310.954 280.609 296.375L277.336 298.16C283.882 311.252 288.196 324.046 289.684 336.691L258.145 354.692Z" fill="#0A0803"/>
<path d="M257.554 360.05C257.405 358.414 257.107 356.48 256.81 354.694L256.661 353.802L288.498 335.652C286.861 323.751 282.844 311.7 276.299 298.609L275.703 297.418L281.357 294.146L281.952 295.484C290.283 310.956 295.341 325.238 296.829 338.925L296.977 339.818L257.851 362.133L257.554 360.05ZM280.018 298.162L279.274 298.609C285.82 311.998 289.688 324.346 291.175 336.396L291.324 337.288L259.637 355.289C259.785 356.033 259.785 356.926 259.934 357.67L293.853 338.479C292.217 325.684 287.754 312.593 280.018 298.162Z" fill="#0A0803"/>
<path d="M251.744 381.916C251.744 359.75 244.008 334.013 230.172 310.805C230.172 310.656 229.875 310.805 229.875 310.954V462.549L251.744 475.194V381.916Z" fill="#E6E6E6"/>
<path d="M229.133 463.741L228.538 463.294V310.955C228.538 310.36 228.984 309.616 229.728 309.467L231.067 309.319L231.513 310.211C245.497 333.717 253.382 359.751 253.382 381.918V475.047V475.791L251.894 476.535L229.133 463.741ZM231.364 461.509L250.407 472.518V381.769C250.407 361.388 243.563 337.436 231.364 315.418V461.509Z" fill="#0A0803"/>
<path d="M21.0039 226.007C21.0039 256.356 42.4266 293.251 68.6099 308.574C76.0484 312.74 83.0406 314.822 89.2888 314.971C90.0327 314.971 90.7765 315.566 90.7765 316.459C90.6278 317.649 91.9665 318.393 92.8592 317.798L104.463 310.508C104.612 310.359 104.612 310.359 104.612 310.359C111.902 304.855 116.365 294.739 116.365 281.052C116.365 250.703 94.942 213.808 68.7587 198.485C55.8158 190.898 44.063 190.154 35.4344 194.915C34.8393 195.212 23.8306 202.204 23.8306 202.204L25.3182 202.651C26.2109 202.948 26.6572 203.99 26.0621 204.733C22.9379 210.238 21.3014 217.379 21.0039 226.007Z" fill="#FCFCFC"/>
<path d="M91.3749 318.845C90.4823 318.399 89.8872 317.357 89.8872 316.316C83.1926 316.167 75.9031 313.936 68.4646 309.621C41.835 294.149 20.1147 256.66 20.1147 225.864C20.1147 217.236 21.7511 209.946 24.8753 203.996L20.7097 202.508L23.0901 200.871C24.2803 200.276 33.9501 194.028 34.694 193.582L36.0329 192.838V192.987C45.4054 188.524 57.0093 189.862 69.6547 197.152C96.2843 212.624 118.005 250.114 118.005 280.909C118.005 294.744 113.69 305.456 105.657 311.407L93.9041 318.845C93.4577 319.143 93.0114 319.291 92.4164 319.291C91.8213 319.291 91.5236 319.143 91.3749 318.845ZM36.1817 196.111C35.4378 196.408 30.6772 199.384 26.6604 201.913C26.958 202.062 27.1068 202.508 27.2555 202.805C27.5531 203.549 27.5531 204.442 27.1068 205.186C24.2802 210.69 22.6437 217.533 22.6437 225.716C22.6437 255.767 43.6202 292.215 69.5059 307.092C76.4981 311.109 83.3414 313.192 89.5897 313.341C90.3336 313.341 91.2262 313.638 91.6725 314.233C92.1188 314.828 92.2676 315.572 92.2676 316.316L103.871 308.878C111.161 303.522 115.178 293.406 115.178 280.611C115.178 250.56 94.2015 214.112 68.3157 199.235C61.026 195.069 54.034 192.987 47.7857 192.987C43.4714 193.284 39.6034 194.177 36.1817 196.111Z" fill="#0A0803"/>
<path d="M90.776 319.133C109.372 308.422 109.372 273.61 90.776 241.327C72.1799 209.044 41.9797 191.638 23.3836 202.349C4.7875 213.061 4.7875 247.873 23.3836 280.155C42.1285 312.438 72.3286 329.844 90.776 319.133Z" fill="#E6E6E6"/>
<path d="M56.5584 317.052C29.9288 301.58 8.2085 264.09 8.2085 233.295C8.2085 217.972 13.4153 206.666 22.7877 201.161C32.3089 195.657 44.8055 196.996 57.8972 204.583C84.5268 220.055 106.247 257.545 106.247 288.34C106.247 303.663 101.04 314.969 91.6678 320.474C87.651 322.705 83.3367 323.895 78.5761 323.895C71.7327 323.747 64.2944 321.515 56.5584 317.052ZM24.2754 203.541C15.6468 208.451 10.8862 219.162 10.8862 233.295C10.8862 263.347 31.8626 299.795 57.7484 314.672C69.9475 321.664 81.5515 323.003 90.0314 318.093C98.66 313.184 103.421 302.473 103.421 288.34C103.421 258.288 82.4442 221.84 56.5584 206.963C49.2687 202.798 42.2765 200.715 36.0282 200.715C31.5651 200.566 27.5483 201.607 24.2754 203.541Z" fill="#0A0803"/>
<path d="M84.0803 307.535C98.9571 298.906 98.9571 271.086 84.0803 245.201C69.2034 219.464 45.1028 205.479 30.0771 214.108C15.2002 222.736 15.2002 250.556 30.0771 276.442C45.1028 302.179 69.2034 316.015 84.0803 307.535Z" fill="#0A0803"/>
<path d="M56.5583 305.898C35.1356 293.55 17.7295 263.35 17.7295 238.654C17.7295 226.455 21.895 217.232 29.631 212.768C37.367 208.454 47.4834 209.347 58.046 215.446C79.4687 227.794 96.8746 257.994 96.8746 282.69C96.8746 294.889 92.7091 304.113 84.9731 308.576C81.7002 310.361 78.2786 311.253 74.4106 311.253C68.7574 311.402 62.8066 309.617 56.5583 305.898ZM30.97 215.149C24.2754 219.017 20.5561 227.348 20.5561 238.654C20.5561 262.457 37.2182 291.616 57.8971 303.517C67.5671 309.171 76.6421 310.063 83.4854 306.195C90.18 302.327 93.8993 293.996 93.8993 282.69C93.8993 258.887 77.2372 229.728 56.5583 217.827C50.7563 214.554 45.1031 212.917 40.1937 212.917C36.7721 212.768 33.7966 213.661 30.97 215.149Z" fill="#0A0803"/>
<path d="M64.5992 301.286C73.0791 306.195 80.9639 307.534 87.2122 305.749C92.5679 301.286 95.5432 293.55 95.5432 283.136C95.5432 258.738 78.4349 229.133 57.3097 216.934C48.8299 212.025 40.945 210.686 34.6967 212.471C29.3411 216.934 26.3657 224.67 26.3657 235.084C26.3657 259.333 43.3253 289.087 64.5992 301.286Z" fill="#FCFCFC"/>
<path d="M63.7051 302.476C42.2824 290.128 24.8765 259.928 24.8765 235.232C24.8765 224.67 28.0006 216.487 33.6539 211.429L33.8026 211.28L34.1001 211.132C40.9434 209.198 49.1258 210.834 57.7543 215.743C79.1771 228.091 96.583 258.291 96.583 282.987C96.583 293.55 93.459 301.732 87.8058 306.79L87.6568 306.939L87.3594 307.087C85.4254 307.534 83.4914 307.831 81.4086 307.831C75.9042 307.831 69.9534 305.897 63.7051 302.476ZM93.9053 282.987C93.9053 259.184 77.2432 230.025 56.5643 218.124C48.8283 213.661 41.5385 212.024 35.439 213.661C30.6784 217.975 27.8518 225.711 27.8518 235.083C27.8518 258.886 44.5139 288.045 65.1928 299.947C72.9288 304.41 80.2186 306.046 86.3181 304.41C91.2274 299.947 93.9053 292.508 93.9053 282.987Z" fill="#0A0803"/>
<path d="M202.502 240.586L203.841 242.966L284.325 197.889L282.986 195.509L202.502 240.586Z" fill="#0A0803"/>
<path d="M165.904 166.053L167.243 168.433L247.727 123.356L246.388 120.976L165.904 166.053Z" fill="#0A0803"/>
<path d="M123.36 122.313L124.699 124.693L205.183 79.6162L203.844 77.2358L123.36 122.313Z" fill="#0A0803"/>
<path d="M101.639 106.099L102.978 108.479L183.462 63.402L182.123 61.0217L101.639 106.099Z" fill="#0A0803"/>
<path d="M50.9048 91.2261L52.2437 93.6064L132.728 48.5295L131.389 46.1492L50.9048 91.2261Z" fill="#0A0803"/>
<path d="M70.6973 93.7496L72.036 96.1299L152.52 51.0529L151.181 48.6726L70.6973 93.7496Z" fill="#0A0803"/>
<path d="M291.617 236.422L292.955 238.803L322.412 221.992L321.073 219.612L291.617 236.422Z" fill="#0A0803"/>
<path d="M277.927 180.633L279.266 183.013L304.408 168.731L303.069 166.351L277.927 180.633Z" fill="#0A0803"/>
<path d="M252.337 130.949L253.676 133.329L274.95 121.13L273.611 118.75L252.337 130.949Z" fill="#0A0803"/>
<path d="M228.538 99.7029L229.877 102.083L245.348 93.7521L244.01 91.3718L228.538 99.7029Z" fill="#0A0803"/>
<path d="M212.174 84.5255L213.513 86.9058L226.307 79.6162L224.968 77.2358L212.174 84.5255Z" fill="#0A0803"/>
<path d="M281.205 129.009L282.543 131.39L297.718 123.207L296.379 120.827L281.205 129.009Z" fill="#0A0803"/>
<path d="M302.626 164.57L311.255 183.761L317.057 200.87L322.413 224.673L325.537 214.854L327.025 204.589L326.429 189.712L321.223 167.248L315.272 151.925L299.949 159.958L302.626 164.57Z" fill="#0A0803"/>
<path d="M262.612 107.139L263.951 109.519L277.637 102.081L276.298 99.7004L262.612 107.139Z" fill="#0A0803"/>
<path d="M104.166 185.691L105.505 188.071L138.829 168.583L137.49 166.202L104.166 185.691Z" fill="#0A0803"/>
<path d="M65.187 153.114L66.526 155.494L99.8502 136.006L98.5113 133.625L65.187 153.114Z" fill="#0A0803"/>
<path d="M34.9946 144.482L36.3334 146.862L69.6577 127.373L68.3187 124.993L34.9946 144.482Z" fill="#0A0803"/>
<path d="M147.014 258.886L148.353 261.267L181.677 241.778L180.338 239.397L147.014 258.886Z" fill="#0A0803"/>
<path d="M95.0942 249.217L96.4332 251.597L108.483 244.903L107.145 242.522L95.0942 249.217Z" fill="#0A0803"/>
<path d="M69.6528 213.66L70.9918 216.041L83.042 209.346L81.7031 206.966L69.6528 213.66Z" fill="#0A0803"/>
<path d="M46.7427 199.825L48.0816 202.205L60.1319 195.51L58.7931 193.13L46.7427 199.825Z" fill="#0A0803"/>
<path d="M251.147 398.582L252.486 400.962L304.407 369.87L303.068 367.49L251.147 398.582Z" fill="#0A0803"/>
<path d="M251.445 377.452L252.784 379.832L304.704 348.739L303.365 346.359L251.445 377.452Z" fill="#0A0803"/>
<path d="M303.811 445.595L251.742 475.2V451.1L303.96 420.304L303.811 445.595Z" fill="#0A0803"/>
<path d="M323.746 398.134L303.662 408.845V372.546L324.043 360.644L323.746 398.134Z" fill="#0A0803"/>
<path d="M91.2265 260.826L94.6482 273.174L95.3921 284.183L92.8629 296.679L88.9949 303.523L82.4491 307.093L79.0275 306.349L87.0611 295.489L52.6953 275.703L88.9949 254.875L91.2265 260.826Z" fill="#0A0803"/>
<path d="M25.623 253.384L26.962 255.764L72.7827 229.432L71.4439 227.052L25.623 253.384Z" fill="#0A0803"/>
<path d="M24.8765 229.581L26.2154 231.961L54.0351 216.043L52.6962 213.663L24.8765 229.581Z" fill="#0A0803"/>
<path d="M186.882 293.997L182.716 310.957L175.129 325.685L166.5 334.611L138.978 350.53L135.557 351.125L145.375 338.182L149.987 326.132L152.07 316.759L152.963 305.006L152.814 293.997L186.733 274.211V293.997H186.882Z" fill="#0A0803"/>
<path d="M113.837 260.814L116.366 274.501L116.664 288.485L112.944 301.577L107.589 308.42L97.4727 313.181L103.274 300.684L104.762 288.188L103.87 276.584L102.531 270.633L101.043 264.682L112.944 257.392L113.837 260.814Z" fill="#0A0803"/>
<path d="M317.498 193.427L318.241 194.766L325.829 190.303L325.085 188.964L317.498 193.427Z" fill="#E6E6E6"/>
<path d="M306.642 163.822L307.535 165.161L317.651 159.062L316.758 157.723L306.642 163.822Z" fill="#E6E6E6"/>
<path d="M73.5225 282.543L74.2663 283.881L89.7383 274.955L88.9945 273.616L73.5225 282.543Z" fill="#E6E6E6"/>
<path d="M79.022 304.114L79.7658 305.452L89.7333 299.65L88.9894 298.312L79.022 304.114Z" fill="#E6E6E6"/>
<path d="M161.887 426.844L162.631 428.183L169.325 424.315L168.581 422.976L161.887 426.844Z" fill="#E6E6E6"/>
<path d="M17.585 344.132L18.3288 345.471L25.0234 341.603L24.2796 340.264L17.585 344.132Z" fill="#E6E6E6"/>
<path d="M11.9321 141.957L12.676 143.296L19.3706 139.428L18.6267 138.089L11.9321 141.957Z" fill="#E6E6E6"/>
<path d="M289.384 337.285L289.979 335.798L295.632 338.475L294.888 339.963L289.384 337.285Z" fill="#E6E6E6"/>
<path d="M306.642 397.835L307.386 399.174L320.775 391.289L320.031 389.95L306.642 397.835Z" fill="#E6E6E6"/>
<path d="M185.106 139.127C184.808 139.275 184.808 139.573 184.957 139.722L197.305 154.152L219.174 174.385C219.323 174.385 219.323 174.534 219.323 174.534L235.241 233C235.39 233.297 235.539 233.446 235.836 233.297L279.277 209.048C279.872 208.899 280.615 208.602 281.062 208.155C281.359 207.709 281.657 206.965 281.657 206.37V174.236C281.657 154.004 270.945 135.407 253.391 125.291L234.795 114.58C233.158 113.687 231.224 113.836 229.885 114.58L185.106 139.127Z" fill="#FCFCFC"/>
<path d="M235.08 234.786C234.484 234.488 234.187 234.042 233.889 233.447L218.12 175.278L196.4 155.194L183.903 140.615C183.457 140.317 183.308 139.722 183.457 139.127C183.605 138.681 183.903 138.235 184.349 137.788L228.98 113.093L230.468 112.349V112.498C232.104 112.051 233.889 112.349 235.228 113.093L253.824 123.804C271.825 134.069 282.834 153.409 282.834 174.088V206.222C282.834 206.817 282.685 207.561 282.388 208.156L282.537 208.602L281.793 209.049C281.347 209.495 280.454 209.941 279.71 210.239L236.567 234.488C236.27 234.637 235.972 234.637 235.674 234.637C235.526 234.786 235.228 234.786 235.08 234.786ZM280.305 206.222V174.088C280.305 154.302 269.743 136.003 252.634 126.184L234.038 115.473C232.848 114.878 231.658 114.878 230.468 115.473L228.98 116.366L186.73 139.871L198.185 153.409L220.054 173.642C220.203 173.79 220.351 174.088 220.5 174.385L236.121 231.513L278.52 207.71L278.966 207.561C279.413 207.561 279.71 207.412 279.859 207.115C280.305 206.817 280.305 206.668 280.305 206.222Z" fill="#0A0803"/>
<path d="M216.041 224.223L232.554 233.893C234.339 235.083 236.72 233.744 236.72 231.512V199.081C236.72 178.997 226.008 160.55 208.602 150.433L189.857 139.573C186.584 137.639 182.419 140.019 182.419 143.887V158.169C196.701 178.402 208.156 201.163 216.041 224.223Z" fill="#E6E6E6"/>
<path d="M231.662 234.488L214.702 224.67L214.554 224.223C206.966 201.462 195.511 178.849 181.378 158.467L181.081 158.17V143.442C181.081 141.21 182.419 139.127 184.353 137.937C186.436 136.747 188.817 136.747 190.751 137.937L209.495 148.797C227.199 159.062 238.208 178.105 238.208 198.784V231.215C238.208 232.852 237.464 234.042 236.125 234.935C235.53 235.381 234.786 235.53 234.042 235.53C233.298 235.53 232.406 235.232 231.662 234.488ZM185.841 140.764C184.651 141.359 184.056 142.549 184.056 143.888V157.872C198.189 178.254 209.644 200.867 217.231 223.479L233.298 232.852C233.893 233.149 234.637 233.001 234.786 232.852C234.935 232.703 235.381 232.406 235.381 231.513V199.081C235.381 179.444 224.819 161.294 207.859 151.624L189.114 140.764C188.668 140.466 187.924 140.318 187.329 140.318C186.734 140.318 186.287 140.318 185.841 140.764Z" fill="#0A0803"/>
<path d="M224.368 163.38L225.707 165.76L269.891 140.023L268.553 137.643L224.368 163.38Z" fill="#0A0803"/>
<path d="M196.556 141.36L197.895 143.74L242.525 119.045L241.186 116.665L196.556 141.36Z" fill="#0A0803"/>
<path d="M281.794 206.372L279.414 209.05L236.866 231.217V211.579L281.794 186.586V206.372Z" fill="#0A0803"/>
<path d="M221.245 206.223L225.856 202.95C227.047 202.355 227.493 200.421 226.6 197.743C226.154 196.256 225.41 195.065 224.369 193.875C222.435 191.793 220.65 191.346 219.459 191.941C219.459 191.941 219.311 192.09 219.162 192.09L214.699 195.214C214.699 195.214 214.699 195.363 214.699 195.512L220.947 205.926C220.947 206.074 221.096 206.223 221.245 206.223Z" fill="#E6E6E6"/>
<path d="M220.056 207.26L213.51 196.252C213.064 195.508 213.361 194.466 213.956 194.02L218.27 191.193C218.27 191.193 218.568 190.896 218.717 190.896C220.651 190.152 223.031 190.896 225.262 193.127C226.453 194.466 227.345 195.954 227.792 197.59C228.684 200.715 228.238 203.095 226.453 204.285L221.841 207.558L221.246 207.856L220.056 207.26ZM220.204 193.276L216.336 195.805L221.543 204.285L225.114 201.905C225.709 201.459 226.006 200.268 225.411 198.186C225.114 196.847 224.519 195.805 223.477 194.764C222.138 193.425 221.246 192.979 220.651 192.979C220.353 193.127 220.204 193.127 220.204 193.276Z" fill="#0A0803"/>
<path d="M217.675 195.659C220.055 197.146 222.138 200.568 222.138 203.543C222.138 206.519 220.055 207.56 217.675 206.072C215.295 204.585 213.212 201.163 213.212 198.188C213.212 195.361 215.146 194.171 217.675 195.659Z" fill="#E6E6E6"/>
<path d="M216.932 207.266C214.106 205.629 211.726 201.612 211.726 198.34C211.726 196.406 212.469 194.918 213.808 194.174C215.147 193.43 216.932 193.579 218.42 194.472C221.247 196.108 223.627 200.125 223.627 203.398C223.627 205.332 222.883 206.819 221.544 207.563C220.949 207.861 220.205 208.009 219.61 208.009C218.867 208.009 217.825 207.861 216.932 207.266ZM215.147 196.554C214.701 196.852 214.552 197.447 214.552 198.34C214.552 200.72 216.337 203.844 218.42 204.885C219.015 205.332 219.908 205.332 220.206 205.183C220.652 204.885 220.8 204.29 220.8 203.398C220.8 201.017 219.015 197.893 216.932 196.852C216.486 196.554 216.04 196.406 215.594 196.406C215.445 196.406 215.296 196.406 215.147 196.554Z" fill="#0A0803"/>
<path d="M220.356 186.88L224.968 183.607C226.158 183.012 226.605 181.078 225.712 178.401C225.266 176.913 224.522 175.723 223.481 174.533C221.547 172.45 219.761 172.003 218.571 172.599C218.571 172.599 218.422 172.747 218.274 172.747L213.811 175.871C213.811 175.871 213.811 176.02 213.811 176.169L220.059 186.583C220.208 186.88 220.356 186.88 220.356 186.88Z" fill="#E6E6E6"/>
<path d="M219.308 187.921L212.763 176.912C212.316 176.168 212.614 175.127 213.209 174.68L217.523 171.854C217.523 171.854 217.821 171.556 217.97 171.556C219.904 170.664 222.284 171.407 224.515 173.639C225.706 174.978 226.598 176.466 227.045 178.102C227.937 181.226 227.491 183.607 225.706 184.797L221.094 188.07L220.499 188.367L219.308 187.921ZM219.606 173.937L215.738 176.466L220.647 184.945L224.218 182.565C224.813 182.119 225.11 180.929 224.515 178.846C224.218 177.507 223.623 176.466 222.581 175.424C221.243 174.085 220.35 173.639 219.755 173.639C219.755 173.788 219.606 173.788 219.606 173.937Z" fill="#0A0803"/>
<path d="M216.932 176.172C219.313 177.66 221.395 181.082 221.395 184.057C221.395 186.884 219.313 188.074 216.932 186.586C214.552 185.098 212.469 181.677 212.469 178.701C212.469 176.024 214.552 174.833 216.932 176.172Z" fill="#FCFCFC"/>
<path d="M216.186 187.926C213.359 186.289 210.979 182.272 210.979 178.999C210.979 177.065 211.723 175.578 213.062 174.834C214.401 174.09 216.186 174.239 217.674 175.131C220.5 176.768 222.881 180.785 222.881 184.058C222.881 185.992 222.137 187.479 220.798 188.223C220.203 188.521 219.459 188.669 218.864 188.669C218.12 188.818 217.227 188.372 216.186 187.926ZM214.549 177.214C214.103 177.512 213.954 178.107 213.954 178.999C213.954 181.38 215.74 184.504 217.822 185.545C218.417 185.992 219.31 185.992 219.608 185.843C220.054 185.545 220.203 184.95 220.203 184.058C220.203 181.677 218.417 178.553 216.335 177.512C215.888 177.214 215.442 177.065 214.996 177.065C214.847 177.065 214.698 177.065 214.549 177.214Z" fill="#0A0803"/>
<path d="M158.024 372.396C158.024 372.694 158.173 372.992 158.173 373.289V387.571C158.173 390.695 160.107 394.117 162.338 395.456L163.677 395.753C163.826 395.902 163.975 396.051 164.123 396.199L171.116 405.572C171.116 405.721 171.116 405.869 171.264 405.869L177.661 411.82C178.108 412.415 179.149 412.415 179.744 412.118L186.439 408.399C186.588 408.399 186.885 408.25 187.034 408.101C187.629 407.655 188.224 406.465 188.224 404.977V377.901C188.224 374.777 186.29 371.355 184.059 370.016L161.892 357.668C161.148 357.222 160.404 357.073 159.809 357.222L152.817 360.792C151.924 361.239 151.478 362.429 152.073 363.322L158.024 372.396Z" fill="#FCFCFC"/>
<path d="M176.62 413.459L170.074 407.508C169.925 407.359 169.776 407.21 169.627 407.062L162.635 397.689L161.445 397.392L161.148 397.243C158.47 395.606 156.387 391.59 156.387 388.019V373.737L150.882 364.216C150.436 363.472 150.287 362.431 150.585 361.687C150.734 360.943 151.329 360.051 152.221 359.753L159.214 356.183L159.511 356.034C160.404 355.885 161.594 356.034 162.635 356.629L184.802 368.977C187.48 370.613 189.562 374.63 189.562 378.2V405.276C189.562 407.062 189.116 408.549 187.926 409.442C187.628 409.739 187.331 409.888 187.033 410.037L180.487 413.756C180.041 414.054 179.297 414.203 178.851 414.203C177.958 414.351 177.066 414.054 176.62 413.459ZM153.263 362.282C153.263 362.431 153.114 362.58 153.114 362.58C153.114 362.58 153.114 362.728 153.114 362.877L158.619 372.398C158.916 372.845 159.065 373.291 159.065 374.035V388.317C159.065 390.697 160.701 393.821 162.487 394.863L163.677 395.16L163.974 395.309C164.272 395.458 164.569 395.755 164.867 396.053L171.859 405.425L178.256 411.376C178.405 411.376 178.554 411.525 178.702 411.376L185.397 407.657L185.694 407.508C185.694 407.508 185.694 407.359 185.843 407.359C186.289 407.062 186.438 406.169 186.438 405.276V378.2C186.438 375.671 184.951 372.547 183.017 371.506L160.85 359.158C160.553 359.009 160.255 358.861 159.958 358.861L153.263 362.282Z" fill="#0A0803"/>
<path d="M149.541 392.629V365.553C149.541 362.726 151.475 361.239 153.706 362.429L175.873 374.777C178.105 376.116 180.039 379.537 180.039 382.661V409.737C180.039 412.564 178.105 414.052 175.873 412.862L153.706 400.514C151.326 399.175 149.69 395.753 149.541 392.629Z" fill="#E6E6E6"/>
<path d="M175.131 414.202L152.965 401.854C150.287 400.217 148.204 396.201 148.204 392.63V365.554C148.204 363.471 148.948 361.835 150.287 361.091C151.626 360.347 152.965 360.496 154.452 361.24L176.619 373.588C179.297 375.224 181.379 379.241 181.379 382.811V409.887C181.379 411.97 180.636 413.606 179.297 414.35C178.851 414.648 178.107 414.797 177.511 414.797C176.768 414.797 176.024 414.648 175.131 414.202ZM151.775 363.323C151.328 363.471 151.031 364.066 151.031 365.405V392.63C151.031 395.159 152.518 398.283 154.452 399.325L176.619 411.673C176.916 411.821 177.363 411.97 177.958 411.821C178.553 411.672 178.702 411.077 178.702 409.738V382.663C178.702 380.134 177.214 377.009 175.28 375.968L153.113 363.62C152.816 363.471 152.518 363.323 152.221 363.323C151.923 363.323 151.923 363.323 151.775 363.323Z" fill="#0A0803"/>
<path d="M179.294 381.473L180.633 383.854L188.815 379.391L187.477 377.01L179.294 381.473Z" fill="#0A0803"/>
<path d="M175.277 373.736L176.616 376.116L184.798 371.653L183.459 369.273L175.277 373.736Z" fill="#0A0803"/>
<path d="M179.145 403.195L180.484 405.575L188.666 401.112L187.327 398.731L179.145 403.195Z" fill="#0A0803"/>
<path d="M158.914 364.806L160.253 367.186L168.435 362.723L167.096 360.343L158.914 364.806Z" fill="#0A0803"/>
<path d="M253.681 321.071L255.02 323.452L276.443 311.401L275.104 309.021L253.681 321.071Z" fill="#0A0803"/>
<path d="M256.063 327.471L257.402 329.851L278.825 317.801L277.486 315.421L256.063 327.471Z" fill="#0A0803"/>
<path d="M257.997 333.42L259.336 335.801L280.759 323.75L279.42 321.37L257.997 333.42Z" fill="#0A0803"/>
<path d="M259.628 339.961L260.967 342.342L282.39 330.291L281.051 327.911L259.628 339.961Z" fill="#0A0803"/>
<path d="M186.138 478.169L147.16 455.407C140.317 451.242 135.854 443.654 135.854 435.621V411.52C135.854 404.231 139.722 397.387 146.119 393.668L159.211 385.932C161.145 384.742 163.674 385.486 164.864 387.42C166.054 389.354 165.31 391.883 163.376 393.073L150.285 400.809C146.417 403.04 144.036 407.206 144.036 411.669V435.77C144.036 440.977 146.714 445.886 151.326 448.415L190.303 471.177C194.023 473.408 198.635 473.408 202.354 471.325L235.232 453.027C237.166 451.837 239.546 452.729 240.736 454.663C241.926 456.597 241.034 458.978 239.1 460.168L206.222 478.466C203.098 480.252 199.825 480.995 196.403 480.995C192.833 481.144 189.262 480.103 186.138 478.169Z" fill="#0A0803"/>
<path d="M132.43 386.376L137.041 383.104C138.232 382.508 138.678 380.574 137.785 377.897C137.339 376.409 136.595 375.219 135.554 374.029C133.62 371.946 131.834 371.5 130.644 372.095C130.644 372.095 130.496 372.243 130.347 372.243L125.884 375.368C125.884 375.368 125.884 375.516 125.884 375.665L132.132 386.079C132.132 386.376 132.281 386.376 132.43 386.376Z" fill="#E6E6E6"/>
<path d="M131.244 387.423L124.698 376.414C124.252 375.671 124.55 374.629 125.145 374.183L129.459 371.356C129.459 371.356 129.756 371.059 129.905 371.059C131.839 370.166 134.22 370.91 136.451 373.141C137.641 374.48 138.534 375.968 138.98 377.604C139.873 380.729 139.426 383.109 137.641 384.299L133.029 387.572L132.434 387.87L131.244 387.423ZM131.542 373.588L127.674 376.117L132.583 384.597L136.154 382.216C136.749 381.77 137.046 380.58 136.451 378.497C136.154 377.158 135.558 376.117 134.517 375.075C133.178 373.737 132.286 373.29 131.691 373.29C131.691 373.439 131.542 373.439 131.542 373.588Z" fill="#0A0803"/>
<path d="M128.711 375.964C131.091 377.451 133.174 380.873 133.174 383.848C133.174 386.675 131.091 387.865 128.711 386.377C126.331 384.89 124.248 381.468 124.248 378.493C124.248 375.666 126.331 374.476 128.711 375.964Z" fill="#E6E6E6"/>
<path d="M128.121 387.422C125.294 385.785 122.914 381.768 122.914 378.496C122.914 376.562 123.658 375.074 124.997 374.33C126.336 373.586 128.121 373.735 129.609 374.628C132.435 376.264 134.816 380.281 134.816 383.554C134.816 385.488 134.072 386.975 132.733 387.719C132.138 388.017 131.394 388.166 130.799 388.166C130.055 388.314 129.014 388.166 128.121 387.422ZM126.336 376.859C125.889 377.157 125.741 377.752 125.741 378.644C125.741 381.025 127.526 384.149 129.609 385.19C130.204 385.636 131.096 385.636 131.394 385.488C131.84 385.19 131.989 384.595 131.989 383.702C131.989 381.322 130.204 378.198 128.121 377.157C127.675 376.859 127.228 376.71 126.782 376.71C126.633 376.71 126.484 376.71 126.336 376.859Z" fill="#0A0803"/>
<path d="M327.921 413.011V465.229V465.526C328.07 466.27 328.665 467.311 329.855 467.906L370.916 491.709C374.04 493.495 379.247 493.346 382.817 491.263L424.026 467.46C426.109 466.121 427.15 464.782 426.853 463.295V411.82C426.853 411.523 426.704 411.225 426.406 411.225L419.117 410.482H418.968L384.007 390.398C380.883 388.613 375.676 388.761 372.106 390.844L333.575 413.159C333.575 413.159 333.426 413.159 333.277 413.159L328.814 412.713C328.517 412.416 328.219 412.713 327.921 413.011Z" fill="#E6E6E6"/>
<path d="M370.757 492.749L329.697 468.946C327.763 468.053 327.168 466.566 327.019 465.376V412.86C327.019 412.414 327.168 411.67 327.614 411.372C327.912 411.075 328.507 410.926 329.102 410.926L333.267 411.224L371.65 389.057C375.518 386.826 381.32 386.677 384.741 388.611L419.702 408.843L426.992 409.587C427.884 409.736 428.777 410.48 428.777 411.521V462.846C428.926 464.929 427.587 466.863 425.206 468.351L383.998 492.154C381.915 493.493 379.237 494.088 376.559 494.088C374.328 494.237 372.245 493.939 370.757 492.749ZM419.107 411.372L418.661 411.224L383.402 390.842C380.725 389.206 375.815 389.503 372.84 391.289L334.309 413.604C334.011 413.902 333.714 413.902 333.119 413.902L329.399 413.604V464.929V465.078C329.399 465.822 330.143 466.417 330.738 466.714L371.798 490.517C374.476 492.154 379.386 491.856 382.361 490.071L423.57 466.268C425.207 465.376 425.95 464.334 425.802 463.144V412.414L419.107 411.372Z" fill="#0A0803"/>
<path d="M328.36 413.159V465.377V465.675C328.508 466.419 329.104 467.46 330.294 468.055L371.354 491.858C372.842 492.602 374.776 493.048 376.71 493.048L376.412 423.276L384.297 390.398C381.173 388.613 375.966 388.761 372.395 390.844L333.864 413.159C333.864 413.159 333.715 413.159 333.567 413.159L329.104 412.713C328.508 412.416 328.211 412.713 328.36 413.159Z" fill="#0A0803"/>
<path d="M331.04 408.991L372.249 385.188C375.819 383.105 381.026 382.957 384.15 384.742L425.21 408.545C428.334 410.33 427.888 413.305 424.466 415.388L383.257 439.191C379.687 441.274 374.48 441.423 371.356 439.637L330.296 415.834C327.172 414.198 327.469 411.074 331.04 408.991Z" fill="#FCFCFC"/>
<path d="M370.757 440.829L329.697 417.026C327.912 415.836 327.019 414.497 327.019 412.861C327.019 411.075 328.358 409.141 330.59 407.951L371.798 384.148C375.666 381.917 381.468 381.768 384.89 383.702L425.95 407.505C427.736 408.695 428.628 410.034 428.628 411.67C428.628 413.456 427.289 415.39 425.058 416.58L383.849 440.383C381.766 441.722 379.088 442.317 376.41 442.317C374.328 442.168 372.245 441.722 370.757 440.829ZM372.989 386.38L331.78 410.183C330.292 410.927 329.548 411.968 329.548 412.861C329.548 413.604 330.292 414.348 331.036 414.646L372.096 438.449C374.774 440.085 379.683 439.788 382.659 438.002L423.868 414.199C425.355 413.456 426.099 412.414 426.099 411.522C426.099 410.778 425.355 410.034 424.611 409.736L383.551 385.933C382.361 385.338 380.873 385.041 379.088 385.041C376.857 384.892 374.476 385.338 372.989 386.38Z" fill="#0A0803"/>
<path d="M333.276 469.696H334.615V419.858H333.276V469.696Z" fill="#E6E6E6"/>
<path d="M416.581 471.775H418.366V419.557H416.581V471.775Z" fill="#0A0803"/>
<path d="M406.61 414.202V383.705C406.61 382.366 407.502 381.473 408.841 381.473C410.18 381.473 411.073 382.366 411.073 383.705V414.202C411.073 415.541 410.18 416.434 408.841 416.434C407.502 416.434 406.61 415.392 406.61 414.202Z" fill="#0A0803"/>
<path d="M375.969 396.647V366.15C375.969 364.811 376.861 363.918 378.2 363.918C379.539 363.918 380.432 364.811 380.432 366.15V396.647C380.432 397.986 379.539 398.879 378.2 398.879C376.861 398.879 375.969 397.986 375.969 396.647Z" fill="#0A0803"/>
<path d="M354.243 362.125V369.712V370.009C354.392 370.753 354.987 371.795 356.177 372.39L397.237 396.193C400.362 397.978 405.568 397.829 409.139 395.746L424.016 386.969C426.099 385.63 427.14 384.291 426.842 382.803V375.811C426.842 375.514 426.694 375.216 426.396 375.216L419.106 374.472H418.958L383.997 354.24C380.873 352.455 375.666 352.603 372.095 354.686L359.896 361.976C359.896 361.976 359.748 361.976 359.599 361.976L355.136 361.53C354.838 361.232 354.541 361.381 354.243 362.125Z" fill="#E6E6E6"/>
<path d="M396.945 396.796L355.885 372.993C353.951 372.1 353.356 370.612 353.207 369.422V361.389C353.207 360.943 353.356 360.199 353.802 359.901C354.1 359.604 354.695 359.455 355.29 359.455L359.455 359.752L371.506 352.76C375.374 350.529 381.176 350.38 384.597 352.314L419.558 372.546L426.848 373.29C427.74 373.439 428.633 374.183 428.633 375.224V382.068C428.782 384.15 427.443 386.084 425.062 387.572L410.186 396.35C408.103 397.688 405.425 398.284 402.747 398.284C400.664 398.432 398.582 398.135 396.945 396.796ZM419.112 375.671L418.665 375.522L383.407 355.141C380.729 353.653 375.82 353.802 372.845 355.587L360.645 362.877C360.348 363.025 359.902 363.025 359.455 363.025L355.736 362.728V369.422V369.571C355.736 370.315 356.48 370.91 357.075 371.208L398.135 395.011C400.813 396.498 405.723 396.35 408.698 394.564L423.575 385.787C425.211 384.894 425.955 383.853 425.806 382.663V376.266L419.112 375.671Z" fill="#0A0803"/>
<path d="M354.7 362.28V369.867V370.165C354.849 370.909 355.444 371.95 356.634 372.545L397.694 396.348C399.182 397.092 401.116 397.538 403.05 397.538V371.504L384.305 353.949C381.181 352.164 375.974 352.313 372.404 354.395L360.205 361.685C360.205 361.685 360.056 361.685 359.907 361.685L355.444 361.239C354.849 361.239 354.551 361.387 354.7 362.28Z" fill="#0A0803"/>
<path d="M357.374 357.665L372.251 348.888C375.821 346.805 381.028 346.657 384.152 348.442L425.212 372.245C428.336 374.03 427.89 377.005 424.468 379.088L409.591 387.865C406.021 389.948 400.814 390.097 397.69 388.312L356.63 364.509C353.506 362.724 353.803 359.748 357.374 357.665Z" fill="#FCFCFC"/>
<path d="M396.945 389.354L355.885 365.551C354.1 364.361 353.207 363.022 353.207 361.386C353.207 359.6 354.546 357.666 356.778 356.476L371.654 347.699C375.522 345.467 381.324 345.319 384.746 347.253L425.806 371.056C427.592 372.246 428.484 373.585 428.484 375.221C428.484 377.006 427.145 378.94 424.914 380.131L410.037 388.908C407.954 390.247 405.276 390.842 402.598 390.842C400.664 390.842 398.582 390.396 396.945 389.354ZM372.993 350.079L358.116 358.857C356.629 359.6 355.885 360.642 355.885 361.534C355.885 362.278 356.629 363.022 357.373 363.32L398.433 387.123C401.111 388.61 406.02 388.462 408.995 386.676L423.872 377.899C425.36 377.155 426.104 376.114 426.104 375.221C426.104 374.477 425.36 373.734 424.616 373.436L383.556 349.633C382.366 349.038 380.878 348.74 379.093 348.74C377.01 348.592 374.63 349.187 372.993 350.079Z" fill="#0A0803"/>
<path d="M396.497 394.86H397.836V389.504H396.497V394.86Z" fill="#E6E6E6"/>
<path d="M359.599 373.885H360.938V368.529H359.599V373.885Z" fill="#E6E6E6"/>
<path d="M416.581 390.989H418.366V383.253H416.581V390.989Z" fill="#0A0803"/>
<path d="M410.184 394.858H411.969V387.122H410.184V394.858Z" fill="#0A0803"/>
<path d="M375.668 383.998L380.131 386.527L380.726 385.486L376.263 382.957L375.668 383.998Z" fill="#E6E6E6"/>
<path d="M360.643 417.178L378.942 406.615C379.388 406.318 380.132 406.318 380.578 406.615L389.207 411.525C389.356 411.673 389.504 411.822 389.504 411.971L389.356 416.732C389.356 416.88 389.207 417.029 389.058 417.178L375.074 425.211C374.627 425.509 373.884 425.509 373.437 425.211L360.643 417.773C360.048 417.624 360.048 417.327 360.643 417.178Z" fill="#E6E6E6"/>
<path d="M373.141 425.949L360.347 418.511C359.9 418.362 359.751 417.916 359.751 417.618C359.751 417.321 359.9 416.874 360.347 416.726L378.645 406.163C379.24 405.866 380.282 405.866 380.877 406.163L389.505 411.072C389.952 411.221 390.1 411.519 390.1 411.965L389.952 416.726C389.952 417.023 389.654 417.47 389.357 417.618L375.372 425.652C375.075 425.801 374.628 425.949 374.182 425.949C373.736 426.247 373.438 426.247 373.141 425.949ZM379.24 407.056L361.09 417.47L373.736 424.908C374.033 425.057 374.48 425.057 374.628 424.908L388.613 416.874L388.761 412.114L380.133 407.204C379.984 407.056 379.835 407.056 379.687 407.056C379.389 406.907 379.24 406.907 379.24 407.056Z" fill="#0A0803"/>
<path d="M360.643 414.347L378.942 403.785C379.388 403.487 380.132 403.487 380.578 403.785L389.207 408.694C389.356 408.843 389.504 408.992 389.504 409.14L389.356 413.901C389.356 414.05 389.207 414.199 389.058 414.347L375.074 422.381C374.627 422.678 373.884 422.678 373.437 422.381L360.643 414.942C360.048 414.794 360.048 414.496 360.643 414.347Z" fill="#E6E6E6"/>
<path d="M373.141 423.128L360.347 415.69C359.9 415.541 359.751 415.095 359.751 414.797C359.751 414.499 359.9 414.053 360.347 413.904L378.645 403.342C379.24 403.044 380.282 403.044 380.877 403.342L389.505 408.251C389.952 408.4 390.1 408.697 390.1 409.144L389.952 413.904C389.952 414.202 389.654 414.648 389.357 414.797L375.372 422.831C375.075 422.979 374.628 423.128 374.182 423.128C373.736 423.277 373.438 423.277 373.141 423.128ZM379.24 404.234L361.09 414.648L373.736 422.087C374.033 422.235 374.48 422.235 374.628 422.087L388.613 414.053L388.761 409.293L380.133 404.383C379.984 404.234 379.835 404.234 379.687 404.234C379.389 404.086 379.24 404.086 379.24 404.234Z" fill="#0A0803"/>
<path d="M360.643 411.225L378.942 400.663C379.388 400.365 380.132 400.365 380.578 400.663L389.207 405.572C389.356 405.721 389.504 405.87 389.504 406.019L389.356 410.779C389.356 410.928 389.207 411.077 389.058 411.225L375.074 419.259C374.627 419.556 373.884 419.556 373.437 419.259L360.643 411.821C360.048 411.969 360.048 411.374 360.643 411.225Z" fill="#E6E6E6"/>
<path d="M373.141 420.3L360.347 412.862C359.9 412.713 359.751 412.267 359.751 411.969C359.751 411.672 359.9 411.225 360.347 411.077L378.645 400.514C379.24 400.217 380.282 400.217 380.877 400.514L389.505 405.424C389.952 405.572 390.1 405.87 390.1 406.316L389.952 411.077C389.952 411.374 389.654 411.821 389.357 411.969L375.372 420.003C375.075 420.152 374.628 420.3 374.182 420.3C373.736 420.449 373.438 420.3 373.141 420.3ZM379.24 401.258L361.09 411.672L373.736 419.11C374.033 419.259 374.48 419.259 374.628 419.11L388.613 411.077L388.761 406.316L380.133 401.407C379.984 401.258 379.835 401.258 379.687 401.258C379.389 401.109 379.24 401.109 379.24 401.258Z" fill="#0A0803"/>
<path d="M360.643 408.401L378.942 397.838C379.388 397.541 380.132 397.541 380.578 397.838L389.207 402.748C389.356 402.896 389.504 403.045 389.504 403.194L389.356 407.954C389.356 408.103 389.207 408.252 389.058 408.401L375.074 416.434C374.627 416.732 373.884 416.732 373.437 416.434L360.643 408.996C360.048 408.996 360.048 408.55 360.643 408.401Z" fill="#E6E6E6"/>
<path d="M373.141 417.323L360.347 409.884C359.9 409.736 359.751 409.289 359.751 408.992C359.751 408.694 359.9 408.248 360.347 408.099L378.645 397.537C379.24 397.239 380.282 397.239 380.877 397.537L389.505 402.446C389.952 402.595 390.1 402.892 390.1 403.339L389.952 408.099C389.952 408.397 389.654 408.843 389.357 408.992L375.372 417.025C375.075 417.174 374.628 417.323 374.182 417.323C373.736 417.472 373.438 417.323 373.141 417.323ZM379.24 398.28L361.09 408.694L373.736 416.133C374.033 416.282 374.48 416.282 374.628 416.133L388.613 408.099L388.761 403.339L380.133 398.429C379.984 398.28 379.835 398.28 379.687 398.28C379.389 398.132 379.24 398.28 379.24 398.28Z" fill="#0A0803"/>
<path d="M396.2 373.144C396.2 373.441 396.498 373.739 396.795 373.888L402.002 377.012C402.895 377.458 404.234 377.458 405.275 377.012L410.482 374.185C410.928 373.888 411.077 373.59 411.077 373.293V371.21H408.25L405.573 369.573C404.68 369.127 403.341 369.127 402.3 369.573L399.176 371.359H396.498L396.2 373.144Z" fill="#0A0803"/>
<path d="M401.854 377.902L396.647 374.778C396.052 374.331 395.754 374.034 395.754 373.29V371.207V370.612H399.027L401.854 368.976C403.044 368.381 404.532 368.381 405.722 368.976L408.4 370.612H411.077H411.673V373.29C411.673 373.885 411.375 374.629 410.78 374.926L405.573 377.753C404.978 378.05 404.234 378.199 403.639 378.199C402.895 378.348 402.3 378.199 401.854 377.902ZM410.482 372.1H408.102H407.953L405.127 370.315C404.532 370.017 403.193 370.017 402.598 370.315L399.474 372.1H397.093V373.587C397.093 373.587 397.242 373.736 397.391 373.885L402.598 377.009C403.193 377.307 404.532 377.307 405.127 377.009L410.334 374.183C410.482 374.034 410.631 373.885 410.631 373.736L410.482 372.1Z" fill="#0A0803"/>
<path d="M402.304 367.489L397.097 370.316C396.353 370.762 396.353 371.655 397.097 372.101L402.304 375.225C403.048 375.672 404.536 375.672 405.428 375.225L410.635 372.399C411.379 371.952 411.379 371.06 410.635 370.613L405.428 367.489C404.387 366.894 403.048 366.894 402.304 367.489Z" fill="#E6E6E6"/>
<path d="M401.854 375.669L396.647 372.545C396.052 372.247 395.754 371.801 395.754 371.057C395.754 370.313 396.052 369.867 396.647 369.569L401.854 366.743C402.746 366.148 404.383 366.148 405.573 366.743L410.78 369.867C411.375 370.164 411.673 370.611 411.673 371.355C411.673 372.098 411.375 372.545 410.78 372.842L405.573 375.669C405.127 375.966 404.383 376.115 403.788 376.115C402.895 376.115 402.3 375.966 401.854 375.669ZM402.449 367.933L397.242 370.759C397.093 370.908 396.944 370.908 396.944 371.057C396.944 371.057 397.093 371.206 397.242 371.355L402.449 374.479C403.193 374.776 404.383 374.776 404.978 374.479L410.185 371.652C410.334 371.503 410.482 371.503 410.482 371.355C410.482 371.355 410.334 371.206 410.185 371.057L404.978 367.933C404.383 367.635 403.044 367.635 402.449 367.933Z" fill="#0A0803"/>
<path d="M403.045 377.751H404.384V375.817H403.045V377.751Z" fill="#E6E6E6"/>
</g>
</g>
<defs>
<clipPath id="clip0_33897_70960">
<rect width="633" height="424" fill="white"/>
</clipPath>
</defs>
</svg>
