<svg width="633" height="424" viewBox="0 0 633 424" fill="none" xmlns="http://www.w3.org/2000/svg">
<g clip-path="url(#clip0_33897_71316)">
<g opacity="0.08">
<path d="M-27.9158 348.616V243.681L2.73351 240.564V251.646L84.8117 204.2C99.0109 196.062 120.483 195.023 132.95 202.296L114.076 192.252L113.037 186.365H150.44V289.742C150.613 295.283 146.457 301.343 138.491 305.846L37.5388 364.028C23.3396 372.339 1.8678 373.205 -10.5998 366.105L-19.7774 360.218C-22.0285 359.179 -23.9331 357.621 -25.3184 355.543C-26.7037 353.465 -27.7427 351.041 -27.9158 348.616Z" fill="#E6E6E6"/>
<path d="M10.3414 373.034C20.2115 373.208 29.9086 370.783 38.5667 365.935L139.519 307.58C148.004 302.731 152.679 296.151 152.333 289.571V184.116H110.428L112.16 193.467L116.142 195.545C104.887 194.679 93.8048 197.103 83.9347 202.471L4.80034 248.186V238.316L-29.8318 241.779V348.619C-29.4855 351.389 -28.4466 354.16 -26.8881 356.411C-25.3297 358.662 -23.0787 360.567 -20.4813 361.779L-11.6499 368.013C-4.89665 371.649 2.72232 373.381 10.3414 373.034ZM148.35 188.445V289.744C148.35 294.939 144.714 300.134 137.614 304.117L36.6617 362.472C22.982 370.437 2.37596 371.303 -9.39896 364.55L-18.5763 358.489C-20.4811 357.623 -22.2128 356.238 -23.598 354.506C-24.8102 352.775 -25.676 350.697 -26.0223 348.619H-28.1002H-26.0223V245.761L0.471329 243.164V255.458L85.6663 206.281C98.8265 198.662 118.22 197.623 130.168 203.51L131.727 204.376L133.632 200.74L132.073 199.874L115.623 191.216L115.104 188.792L148.35 188.445Z" fill="#0A0803"/>
<path d="M29.2256 368.009C25.7624 369.221 22.126 369.914 18.6628 370.433V222.554H29.2256V368.009Z" fill="#0A0803"/>
<path d="M16.4098 372.859L18.6609 372.512C22.4705 371.993 26.1067 371.127 29.743 369.915L31.1284 369.395V220.477H16.4098V372.859ZM27.1456 366.452C25.0677 367.144 22.8167 367.664 20.5657 368.01V224.46H27.1456V366.452Z" fill="#0A0803"/>
<path d="M138.837 186.016H150.439V289.393C150.612 294.934 146.803 300.822 139.011 305.151L138.837 186.016Z" fill="#0A0803"/>
<path d="M136.748 308.962L139.865 307.057C148.177 302.209 152.679 295.629 152.332 289.222V183.94H136.575L136.748 308.962ZM148.35 188.096V289.395C148.177 291.819 147.484 294.243 146.099 296.321C144.887 298.399 142.982 300.304 140.904 301.516V187.923L148.35 188.096Z" fill="#0A0803"/>
<path d="M2.55372 251.816L7.4023 253.547L7.74854 370.95C1.34159 370.777 -4.89215 369.219 -10.6064 366.275L-19.784 360.041C-22.0351 359.002 -23.9398 357.444 -25.3251 355.366C-26.7104 353.288 -27.7493 351.037 -28.0956 348.613V243.677L2.55372 240.56V251.816Z" fill="#0A0803"/>
<path d="M9.82959 373.203L9.48335 252.164L4.63477 250.432V238.484L-29.9974 241.947V348.787C-29.651 351.558 -28.6119 354.328 -27.0535 356.579C-25.4951 358.831 -23.244 360.735 -20.6466 361.947L-11.6422 368.008C-5.7547 371.298 0.998483 373.03 7.75175 373.03L9.82959 373.203ZM5.32746 254.934L5.6739 368.701C0.305924 368.354 -4.88898 366.969 -9.56432 364.372L-18.7419 358.311C-20.6467 357.445 -22.3781 356.06 -23.7634 354.328C-24.9755 352.597 -25.8414 350.519 -26.1877 348.441V245.583L0.305756 242.986V253.203L5.32746 254.934Z" fill="#0A0803"/>
<path d="M58.3196 359.35V276.059L82.5621 273.635V282.466L147.844 244.89C159.099 238.31 176.242 237.618 185.939 243.332L223.688 264.804L222.822 260.129H252.606V342.207C252.606 346.709 249.662 351.384 243.255 355.021L163.082 401.254C151.826 407.835 134.683 408.527 124.986 402.813L64.8998 368.527C63.1682 367.661 61.6098 366.449 60.3976 364.891C59.1855 363.159 58.4928 361.254 58.3196 359.35Z" fill="#E6E6E6"/>
<path d="M141.429 408.528C149.395 408.528 157.014 406.623 164.113 402.987L244.287 356.753C251.213 352.77 254.849 347.402 254.676 342.034V258.051H220.39L220.91 260.822L186.97 241.601C176.581 235.714 158.572 236.406 146.797 243.16L84.6326 279.004V271.558L56.2342 274.328V359.697C56.5805 361.948 57.2732 364.199 58.6585 366.104C60.0437 368.008 61.7754 369.567 63.8533 370.433L123.94 404.718C129.308 407.316 135.368 408.701 141.429 408.528ZM250.52 262.207V342.207C250.52 346.19 247.75 350.173 242.209 353.29L162.035 399.524C151.299 405.757 135.022 406.45 125.845 401.082L65.758 366.796C64.3727 366.104 62.9875 365.065 62.1217 363.853C61.0827 362.64 60.5633 361.082 60.2169 359.524V278.138L80.3035 276.06V286.103L148.529 246.623C159.265 240.389 175.369 239.696 184.719 245.064L226.451 268.787L225.239 262.207H250.52Z" fill="#0A0803"/>
<path d="M243.428 259.784H252.606V341.689C252.606 346.018 249.662 350.694 243.428 354.33V259.784Z" fill="#0A0803"/>
<path d="M241.343 358.145L244.46 356.24C251.213 352.257 254.849 347.063 254.676 341.695V257.712H241.343V358.145ZM250.52 261.694V341.695C250.52 343.426 250.001 345.158 249.135 346.716C248.269 348.275 247.057 349.487 245.499 350.526V261.694H250.52Z" fill="#0A0803"/>
<path d="M82.5639 282.469L147.846 244.893C159.101 238.486 176.244 237.62 185.941 243.335L138.841 266.538L139.534 406.625C134.512 406.452 129.49 405.067 124.988 402.643L64.9016 368.357C63.17 367.491 61.6116 366.279 60.3995 364.72C59.1873 363.162 58.4946 361.257 58.3214 359.352V275.889L82.5639 273.465V282.469Z" fill="#0A0803"/>
<path d="M141.431 408.698L140.738 267.572L190.262 243.33L186.972 241.425C176.582 235.537 158.574 236.23 146.799 242.983L84.6342 278.828V271.382L56.2358 274.152V359.52C56.5822 361.771 57.2748 364.023 58.6601 365.927C60.0454 367.832 61.777 369.391 63.8549 370.256L123.942 404.542C128.79 407.14 133.985 408.352 139.353 408.525L141.431 408.698ZM181.085 243.33L136.756 265.148V266.36L137.448 404.369C133.466 404.023 129.483 402.984 126.02 401.079L65.9328 366.793C64.5475 366.101 63.1623 365.062 62.2965 363.849C61.2575 362.637 60.7381 361.079 60.3917 359.52L58.3137 359.347H60.3917V278.308L80.4783 276.23V286.273L148.704 246.793C153.552 244.195 158.92 242.464 164.634 241.944C170.175 241.079 175.717 241.598 181.085 243.33Z" fill="#0A0803"/>
<path d="M65.246 290.262H69.4019V368.011H65.246V290.262Z" fill="#E6E6E6"/>
<path d="M127.578 324.541H131.733V402.29H127.578V324.541Z" fill="#E6E6E6"/>
<path d="M150.43 452.338C150.43 452.164 150.43 451.991 150.43 451.818V347.402L181.079 344.285V355.368L263.157 307.922C277.356 299.783 298.828 298.744 311.296 306.017L358.742 333.03L357.703 327.142H395.106V430.519C395.279 436.061 391.123 442.121 383.158 446.623L282.205 504.978C268.006 513.29 246.534 514.156 234.066 507.056L158.395 463.766C156.144 462.727 154.239 461.169 152.854 459.091C151.469 457.013 150.603 454.762 150.43 452.338Z" fill="#E6E6E6"/>
<path d="M255.198 513.988C265.068 514.161 274.765 511.737 283.423 506.889L384.376 448.534C392.861 443.685 397.536 437.105 397.19 430.525V325.07H355.285L355.978 329.053L312.168 304.118C299.354 296.672 276.843 297.537 261.952 306.022L182.817 351.737V341.867L148.185 345.33V451.65C148.185 451.824 148.185 451.997 148.185 452.17C148.531 454.94 149.57 457.711 151.129 459.962C152.86 462.213 154.938 464.118 157.536 465.33L233.38 508.62C240.133 512.43 247.752 514.161 255.198 513.988ZM393.207 329.399V430.698C393.38 435.893 389.571 441.088 382.471 445.07L281.519 503.425C267.839 511.391 247.233 512.257 235.458 505.503L159.787 462.213C157.882 461.347 156.15 459.962 154.938 458.231C153.726 456.499 152.86 454.594 152.514 452.343H150.436H152.514V349.486L179.008 346.888V359.183L264.203 310.005C277.882 302.04 298.488 301.347 310.263 308.1L361.692 337.364L360.134 329.399H393.207Z" fill="#0A0803"/>
<path d="M274.074 508.792C270.611 510.004 266.975 510.697 263.338 511.216V363.337H274.074V508.792Z" fill="#0A0803"/>
<path d="M261.09 513.634L263.341 513.288C267.151 512.768 270.787 511.902 274.423 510.69L275.809 510.171V361.253H261.09V513.634ZM271.826 507.4C269.748 508.093 267.497 508.612 265.246 508.959V365.409H271.826V507.4Z" fill="#0A0803"/>
<path d="M383.855 326.796H395.283V430.173C395.457 435.714 391.647 441.601 383.855 445.93V326.796Z" fill="#0A0803"/>
<path d="M381.605 449.913L384.722 448.008C393.034 443.16 397.536 436.58 397.189 430.173V324.891H381.432L381.605 449.913ZM393.207 328.874V430.173C393.033 432.597 392.341 435.021 390.956 437.099C389.743 439.177 387.839 441.082 385.761 442.294V328.701H393.207V328.874Z" fill="#0A0803"/>
<path d="M180.91 355.542L262.988 308.096C277.187 299.957 298.659 298.918 311.126 306.191L251.732 335.455L252.598 512.079C246.191 511.906 239.957 510.347 234.243 507.404L158.572 464.113C156.321 463.074 154.416 461.516 153.031 459.438C151.646 457.36 150.78 455.109 150.433 452.685C150.433 452.512 150.433 452.339 150.433 452.165V347.75L181.083 344.633L180.91 355.542Z" fill="#0A0803"/>
<path d="M254.676 513.987L253.81 336.498L315.456 306.194L312.165 304.29C299.352 296.844 276.841 297.71 261.949 306.194L182.814 351.909V342.039L148.182 345.502V451.823C148.182 451.996 148.182 452.169 148.182 452.515C148.529 455.286 149.568 458.056 151.126 460.307C152.685 462.559 154.936 464.463 157.533 465.675L233.377 508.966C239.265 512.082 245.845 513.814 252.598 513.987H254.676ZM306.451 306.021L249.655 334.073V335.285L250.52 509.658C245.152 509.312 239.958 507.927 235.282 505.329L159.611 462.039C157.706 461.173 155.975 459.788 154.763 458.056C153.55 456.325 152.685 454.42 152.338 452.169V349.311L178.832 346.714V359.008L264.2 310.004C270.607 306.541 277.706 304.29 284.979 303.597C292.252 302.904 299.525 303.77 306.451 306.021Z" fill="#0A0803"/>
<path d="M159.786 365.41H163.941V463.246H159.786V365.41Z" fill="#E6E6E6"/>
<path d="M238.225 408.536H242.381V506.371H238.225V408.536Z" fill="#E6E6E6"/>
<path d="M-27.9209 245.409V210.258L2.72845 207.141V218.223L84.8066 170.777C99.0058 162.638 120.478 161.599 132.945 168.872L358.92 299.435L357.881 293.548H395.284V327.141C395.457 332.682 391.474 338.743 383.336 343.245L282.383 401.6C268.184 409.912 246.712 410.778 234.244 403.505L-19.6093 257.011C-21.8604 255.972 -23.7651 254.413 -25.1504 252.336C-26.5356 250.258 -27.5746 248.007 -27.9209 245.409Z" fill="#E6E6E6"/>
<path d="M255.198 410.439C265.068 410.612 274.765 408.188 283.423 403.339L384.376 345.157C392.861 340.309 397.536 333.729 397.19 327.149V291.478H355.285L355.978 295.46L133.986 167.321C121.172 159.876 98.6611 160.741 83.7693 169.226L4.63477 214.941V205.07L-29.9974 208.534V247.668H-29.6509C-28.9583 250.092 -27.9193 252.343 -26.3608 254.248C-24.8024 256.153 -22.8977 257.711 -20.6467 258.75L233.207 405.244C239.96 408.881 247.579 410.612 255.198 410.439ZM393.034 295.633V327.322C393.207 332.344 389.398 337.712 382.298 341.694L281.346 399.53C267.666 407.495 247.06 408.361 235.285 401.435L-18.5686 255.114C-20.4734 254.248 -22.2051 252.863 -23.4172 251.131C-24.6293 249.4 -25.4951 247.495 -25.8415 245.244V245.071V211.997L0.652191 209.399V221.694L85.8471 172.516C99.5268 164.551 120.133 163.685 131.908 170.438L361.692 303.079L360.134 295.114L393.034 295.633Z" fill="#0A0803"/>
<path d="M273.9 405.412C270.437 406.624 266.801 407.316 263.164 407.836V329.567H273.9V405.412Z" fill="#0A0803"/>
<path d="M261.09 410.262L263.341 409.916C267.151 409.397 270.787 408.531 274.423 407.319L275.809 406.799V327.665H261.09V410.262ZM271.826 403.855C269.575 404.548 267.497 405.068 265.246 405.414V331.647H271.826V403.855Z" fill="#0A0803"/>
<path d="M383.855 293.03H395.283V326.623C395.457 332.164 391.647 338.052 383.855 342.727V293.03Z" fill="#0A0803"/>
<path d="M381.605 346.364L384.722 344.46C393.034 339.611 397.536 333.031 397.189 326.624V290.953H381.432L381.605 346.364ZM393.034 295.109V326.797C392.86 329.221 392.168 331.646 390.782 333.724C389.57 335.802 387.666 337.706 385.588 338.918V295.109H393.034Z" fill="#0A0803"/>
<path d="M2.73509 218.399L84.8133 170.953C99.0124 162.815 120.484 161.776 132.952 169.048L252.606 238.139V408.53C246.199 408.356 239.965 406.798 234.251 403.854L-19.7758 257.533C-22.0269 256.495 -23.9315 254.936 -25.3168 252.858C-26.7021 250.78 -27.7411 248.529 -28.0874 246.105V210.78L2.56197 207.663L2.73509 218.399Z" fill="#0A0803"/>
<path d="M254.678 410.439V236.932L133.985 167.321C121.171 159.876 98.6606 160.741 83.7688 169.226L4.63423 214.941V205.07L-29.9979 208.534V245.763L-29.8246 247.668C-29.1319 250.092 -28.0931 252.343 -26.5347 254.248C-24.9762 256.153 -22.8982 257.711 -20.8203 258.923L233.033 405.244C238.921 408.361 245.501 410.093 252.254 410.266L254.678 410.439ZM250.696 239.183V406.11C245.328 405.764 240.133 404.378 235.457 401.781L-18.396 255.287C-20.3008 254.421 -22.0324 253.036 -23.2446 251.304C-24.4567 249.573 -25.3225 247.668 -25.6689 245.417V245.244V212.17L0.824783 209.573V221.867L86.0197 172.689C99.6994 164.724 120.306 163.858 132.081 170.611L250.696 239.183Z" fill="#0A0803"/>
<path d="M-19.6094 223.074L234.244 369.395C246.539 376.495 268.184 375.629 282.383 367.49L383.336 309.135C397.535 300.823 399.093 288.529 386.799 281.429L132.945 135.109C120.651 128.009 99.0057 128.875 84.8065 137.013L-16.1462 195.369C-30.3453 203.507 -31.9038 215.975 -19.6094 223.074Z" fill="#FCFCFC"/>
<path d="M255.196 376.495C265.066 376.495 274.763 374.071 283.421 369.396L384.374 311.041C392.512 306.365 397.188 299.958 397.188 293.551C397.014 290.608 395.975 287.837 394.417 285.413C392.685 282.989 390.434 281.084 387.837 279.699L133.983 133.205C121.169 125.759 98.6585 126.625 83.7667 135.109L-17.186 193.465C-25.3246 198.14 -29.9999 204.547 -29.9999 210.954C-29.8268 213.898 -28.7877 216.668 -27.2292 219.092C-25.4976 221.517 -23.2466 223.421 -20.6492 224.807L233.204 371.301C239.958 374.937 247.577 376.669 255.196 376.495ZM111.992 132.166C118.918 131.993 125.672 133.551 131.732 136.668L385.586 283.335C387.664 284.201 389.395 285.586 390.607 287.491C391.993 289.222 392.685 291.474 392.858 293.551C392.858 298.4 388.876 303.595 382.123 307.404L281.17 365.759C267.49 373.725 246.884 374.591 235.109 367.664L-18.7445 221.17C-20.8224 220.305 -22.5539 218.746 -23.766 217.014C-24.9781 215.283 -25.844 213.032 -26.0172 210.954C-26.0172 206.105 -22.0345 200.911 -15.2813 197.101L85.8446 138.573C93.9831 134.244 102.814 132.166 111.992 132.166Z" fill="#0A0803"/>
<path d="M238.225 374.766H242.381V402.818H238.225V374.766Z" fill="#E6E6E6"/>
<path d="M2.55911 258.4C3.42491 258.4 4.11764 258.227 4.81028 257.881C5.67608 257.361 6.19552 256.669 6.71501 255.803C7.23449 254.937 7.40752 253.898 7.23436 253.032C7.23436 250.955 6.54172 249.05 5.50276 247.145C4.46379 245.413 3.07868 243.855 1.34707 242.816C0.481266 242.297 -0.384706 241.95 -1.42367 241.95C-2.28947 241.95 -3.32839 242.123 -4.1942 242.47C-5.06 242.989 -5.57944 243.682 -6.09892 244.548C-6.6184 245.413 -6.79165 246.452 -6.61849 247.318C-6.61849 249.396 -5.92585 251.301 -4.88688 253.206C-3.84792 254.937 -2.46259 256.496 -0.730985 257.535C0.307979 258.054 1.34698 258.227 2.55911 258.4ZM-1.76991 245.76C-1.42358 245.76 -0.904145 245.933 -0.730985 246.106C0.307979 246.799 1.3469 247.838 2.03954 248.877C2.73219 250.089 3.07863 251.301 3.25179 252.686C3.25179 253.552 2.90535 253.898 2.90535 254.071C2.90535 254.245 2.38599 254.071 1.52019 253.725C0.481224 253.032 -0.557697 251.993 -1.25034 250.781C-1.94298 249.569 -2.28943 248.357 -2.46259 246.972C-2.46259 246.106 -2.2893 245.76 -2.11614 245.587L-1.76991 245.76Z" fill="#E6E6E6"/>
<path d="M14.5067 258.227C14.5067 259.959 15.026 261.517 15.8918 263.076C16.7576 264.461 17.9697 265.846 19.355 266.712C21.9524 268.27 24.2036 267.058 24.2036 263.941C24.2036 262.21 23.684 260.651 22.8182 259.093C21.9524 257.708 20.7403 256.322 19.355 255.456C16.5845 253.898 14.5067 255.11 14.5067 258.227Z" fill="#E6E6E6"/>
<path d="M219.875 384.118C220.741 384.118 221.434 383.945 222.126 383.598C222.992 383.079 223.512 382.386 224.031 381.521C224.551 380.655 224.724 379.616 224.551 378.75C224.551 376.672 223.858 374.767 222.819 373.036C221.78 371.304 220.395 369.746 218.663 368.707C217.797 368.187 216.932 367.841 215.893 367.841C214.854 367.841 213.988 368.014 213.122 368.36C212.256 368.88 211.737 369.572 211.217 370.438C210.698 371.304 210.525 372.343 210.698 373.209C210.698 375.287 211.391 377.191 212.43 379.096C213.469 380.828 214.854 382.386 216.585 383.425C217.451 383.598 218.663 383.945 219.875 384.118ZM215.373 371.477C215.72 371.477 216.239 371.65 216.585 371.824C217.624 372.516 218.663 373.555 219.356 374.594C220.049 375.806 220.395 377.018 220.568 378.404C220.568 379.269 220.395 379.789 220.222 379.789C220.049 379.789 219.702 379.789 218.837 379.443C217.798 378.75 216.759 377.711 216.066 376.672C215.373 375.46 215.027 374.248 214.854 372.863C214.854 371.997 215.2 371.65 215.373 371.477Z" fill="#E6E6E6"/>
<path d="M-9.3981 261.168L234.932 402.294L232.854 405.93L-11.4759 264.804L-9.3981 261.168Z" fill="#E6E6E6"/>
<path d="M386.455 343.248C389.398 341.17 391.996 338.746 394.42 335.802L391.13 333.378C389.225 335.802 386.801 338.054 384.204 339.958L386.455 343.248Z" fill="#E6E6E6"/>
<path d="M27.1458 101.518L71.3018 76.0638C79.7866 71.2153 87.4058 70.869 93.2933 74.3322L123.77 91.6483L112.341 129.397L24.3753 224.809C24.3753 224.809 24.3753 224.809 24.2022 224.809L-6.44719 207.32V165.415C-6.44719 140.826 8.61761 112.081 27.1458 101.518Z" fill="#FCFCFC"/>
<path d="M24.7281 227.569L26.1133 226.184L114.252 130.773L126.2 90.9457L93.1266 72.0712C89.4902 70.5128 85.3342 69.9933 81.5247 70.3396C77.542 70.6859 73.7324 72.0712 70.4423 74.3223L26.4597 99.7769C7.41203 110.859 -8.17242 140.47 -8.17242 165.751V208.868L24.7281 227.569ZM110.443 128.348L23.8623 222.201L-4.36298 206.098V165.405C-4.36298 141.335 10.1826 113.457 28.1913 103.067L72.1739 77.6124C79.6199 73.2833 86.7195 72.7639 91.9143 75.8807L93.2997 76.5734L121.005 92.331L110.443 128.348Z" fill="#0A0803"/>
<path d="M-6.44632 206.963V165.058C-6.44632 157.958 -5.23437 150.859 -3.15644 143.932L27.32 161.941L51.3892 163.499L46.5408 195.361L24.3761 224.279C24.3761 224.279 24.3762 224.279 24.203 224.279L-6.44632 206.963Z" fill="#0A0803"/>
<path d="M24.7165 227.061L26.1016 225.503L48.6125 196.239L53.9805 161.607L28.1797 159.875L-4.20146 140.654L-4.89415 143.252C-6.97208 150.351 -8.18403 157.624 -8.18403 164.897V208.014L24.7165 227.061ZM44.4566 194.68L23.8507 221.693L-4.20146 205.936V165.243C-4.20146 159.182 -3.33562 153.122 -1.77717 147.234L26.9675 164.204L49.3052 165.589L44.4566 194.68Z" fill="#0A0803"/>
<path d="M119.437 105.499L110.606 94.07C108.355 92.3384 104.892 94.9358 102.641 93.2042L71.2984 76.0614L77.1859 73.2908C79.7833 72.2518 82.5538 71.9055 85.1512 72.0787C87.9218 72.2518 90.5192 72.9445 92.9435 74.3297L123.247 91.6458L119.437 105.499Z" fill="#E6E6E6"/>
<path d="M118.408 107.749L121.005 107.403L121.525 106.191L126.2 90.7793L124.815 89.9135L93.1266 71.9048C90.5291 70.6926 87.7584 70.1732 84.9879 70C82.2173 70 79.4469 70.3463 76.6763 71.3853C69.4035 73.8095 69.4035 75.368 69.2303 75.8875V77.2727L101.611 95.1083C103.17 96.1473 105.075 96.3204 106.979 95.9741C107.672 95.8009 108.538 95.8009 109.23 95.9741L118.408 107.749ZM121.352 92.5109L118.754 101.169L111.828 92.3377C110.962 91.8182 110.096 91.4719 109.23 91.2988C108.191 91.1256 107.326 91.1256 106.287 91.4719C105.248 91.4719 104.382 91.8182 103.862 91.4719L103.516 91.2988L75.8105 76.0606L78.0615 75.0216C80.3125 74.1558 82.7369 73.8095 85.3343 73.9827C87.7586 74.1558 90.1828 74.8485 92.2608 76.0606L93.6459 76.7533L121.352 92.5109Z" fill="#0A0803"/>
<path d="M7.06156 121.781L37.3647 139.962L43.4253 151.91L27.6677 161.954L-2.80851 143.945C-0.557423 136.153 2.9057 128.534 7.06156 121.781Z" fill="#E6E6E6"/>
<path d="M27.4892 164.199L46.1904 152.251L39.0909 138.225L6.53681 118.831L5.49768 120.562C0.995502 127.662 -2.46771 135.281 -4.89196 143.073L-5.41131 144.631L27.4892 164.199ZM40.8225 150.865L27.4892 159.35L-0.389614 142.9C1.68832 136.493 4.45876 130.259 7.92197 124.545L35.9741 141.341L40.8225 150.865Z" fill="#0A0803"/>
<path d="M24.5473 224.812L135.37 160.742V118.837C135.37 94.0755 120.305 82.82 101.777 93.3828L57.6212 118.837C39.093 129.573 24.028 158.318 24.028 182.907V224.465C24.2011 224.465 24.5473 224.812 24.5473 224.812Z" fill="#E6E6E6"/>
<path d="M24.3735 227.227L25.5858 226.708L137.621 162.119V119.002C137.621 105.322 132.945 94.7592 124.98 90.0839C118.227 86.1012 109.742 86.7938 100.911 91.8155L56.7547 117.27C37.707 128.352 22.1226 157.79 22.1226 183.244V225.669L24.3735 227.227ZM133.465 159.521L26.4516 221.34V183.071C26.4516 159.002 40.9969 131.123 59.0056 120.733L102.988 95.2787C110.434 90.9497 117.534 90.4302 122.729 93.5471C129.482 97.5298 133.292 106.707 133.292 119.002L133.465 159.521Z" fill="#0A0803"/>
<path d="M75.2876 133.032C79.7897 130.435 83.5992 131.474 85.1576 134.937C86.7161 137.707 87.5819 140.824 87.5819 144.114C87.7551 146.366 87.2357 148.617 86.1968 150.521C85.1578 152.599 83.5992 154.158 81.6944 155.37C78.7507 157.794 75.1143 159.006 71.3048 158.833C67.3221 159.353 64.5517 156.582 64.5517 151.387C64.7248 147.751 65.7637 144.114 67.6685 140.998C69.5732 137.881 72.1707 135.11 75.2876 133.032Z" fill="#0A0803"/>
<path d="M70.433 161.087H71.2988C75.4547 161.26 79.6107 159.875 82.9007 157.104C84.9787 155.719 86.7103 153.641 87.9224 151.39C89.1346 149.139 89.6539 146.542 89.4807 143.944C89.4807 140.481 88.6149 136.845 86.7102 133.901C86.3639 133.035 85.6712 132.169 84.9786 131.477C84.2859 130.784 83.247 130.264 82.3812 129.918C80.9959 129.572 79.6106 129.399 78.2253 129.745C76.84 129.918 75.4548 130.438 74.2427 131.303C70.7795 133.381 67.8357 136.498 65.7578 139.961C63.6799 143.425 62.4677 147.407 62.2946 151.563C62.1214 152.948 62.2947 154.507 62.8141 155.892C63.3336 157.277 64.1993 158.49 65.2382 159.529C65.9309 160.221 66.7967 160.568 67.6625 160.914C68.5283 161.087 69.5672 161.26 70.433 161.087ZM71.2988 156.931C70.7794 156.931 70.26 156.931 69.7406 156.931C69.2211 156.758 68.8747 156.585 68.3552 156.239C67.8357 155.546 67.3163 154.853 67.1432 153.987C66.7968 153.122 66.7967 152.256 66.7967 151.39C66.9699 148.1 68.0088 144.81 69.5672 141.866C71.2988 138.922 73.55 136.498 76.3205 134.767C77.0132 134.247 77.8791 133.901 78.5717 133.728C79.4375 133.554 80.3033 133.554 81.1691 133.728C81.6886 133.901 82.0348 134.074 82.3812 134.42C82.7275 134.767 83.0738 135.113 83.247 135.632C84.6323 138.23 85.4981 141 85.4981 143.944V144.464C85.4981 146.368 85.1517 148.273 84.2859 149.832C83.4201 151.563 82.0349 152.948 80.4764 153.814C77.879 155.892 74.7622 156.931 71.4722 156.758L71.2988 156.931Z" fill="#0A0803"/>
<path d="M81.512 147.23C78.5682 149.655 74.9319 150.867 71.1223 150.694C69.737 150.867 68.525 150.694 67.486 150.001C66.447 149.308 65.5811 148.269 65.2348 147.057C66.6201 141.343 70.2566 136.321 75.2782 133.205C79.7804 130.607 83.5898 131.646 85.1483 135.109C86.0141 136.668 86.7069 138.399 87.0532 140.131C85.8411 142.901 84.1094 145.499 81.512 147.23Z" fill="#E6E6E6"/>
<path d="M70.4336 152.775H71.2994C75.4553 152.948 79.6112 151.563 82.9013 148.793C85.6719 146.715 87.7498 143.771 88.9619 140.481V139.961V139.442C88.4424 137.537 87.7497 135.632 86.7107 133.901C86.3644 133.035 85.6718 132.169 84.9791 131.477C84.2865 130.784 83.2475 130.264 82.3817 129.918C80.9964 129.572 79.6111 129.399 78.2258 129.745C76.8405 129.918 75.4554 130.438 74.2433 131.303C68.8753 134.767 65.0656 140.308 63.5072 146.368V147.061L63.6805 147.754C64.2 149.139 65.0658 150.351 66.2779 151.39C67.49 152.256 68.8752 152.775 70.4336 152.775ZM71.1263 148.619C70.4336 148.793 69.7411 148.619 69.0484 148.273C68.3558 147.927 67.8363 147.407 67.49 146.715C68.8752 141.866 71.9921 137.71 76.3211 134.767C77.0137 134.247 77.8796 133.901 78.5723 133.728C79.4381 133.554 80.3039 133.554 81.1697 133.728C81.6892 133.901 82.0354 134.074 82.3817 134.42C82.728 134.767 83.0744 135.113 83.2475 135.632C83.9402 136.845 84.6328 138.23 84.9791 139.615C83.9402 141.866 82.3818 143.944 80.477 145.329C77.8796 147.407 74.7628 148.446 71.4727 148.273H71.1263V148.619Z" fill="#0A0803"/>
<path d="M68.5249 139.785C70.2565 137.015 72.5076 134.764 75.2782 133.032C79.7804 130.435 83.5898 131.474 85.1483 134.937C86.0141 136.495 86.7069 138.227 87.0532 139.959C86.5337 141.69 85.6679 143.249 84.4558 144.461L77.0098 145.327L68.5249 139.785Z" fill="#FCFCFC"/>
<path d="M76.3263 147.575L85.3307 146.709L85.8501 146.017C87.2354 144.458 88.1013 142.727 88.7939 140.649V140.129V139.61C88.2745 137.705 87.5817 135.8 86.5428 134.069C86.1965 133.203 85.5038 132.337 84.8112 131.644C84.1185 130.952 83.0796 130.432 82.2138 130.086C80.8285 129.74 79.4431 129.567 78.0579 129.913C76.6726 130.086 75.2874 130.606 74.0753 131.471C71.1316 133.376 68.5341 135.8 66.6293 138.917L65.5904 140.649L76.3263 147.575ZM83.2527 142.554L77.3652 143.073L71.3046 139.09C72.6898 137.359 74.2484 135.8 76.1531 134.761C76.8458 134.242 77.7117 133.896 78.4043 133.722C79.2701 133.549 80.1359 133.549 81.0017 133.722C81.5212 133.896 81.8674 134.069 82.2138 134.415C82.5601 134.761 82.9064 135.108 83.0796 135.627C83.7722 136.839 84.4648 138.225 84.8112 139.61C84.2917 140.649 83.7722 141.688 83.2527 142.554Z" fill="#0A0803"/>
<path d="M85.673 133.208C92.5994 129.225 98.4869 130.611 101.084 136.325C103.682 140.654 105.067 145.676 105.067 150.697C105.067 150.697 106.799 159.875 95.8895 168.533C91.3874 172.342 85.673 174.247 79.7855 173.901C73.5517 174.593 69.2228 170.264 69.2228 161.953C69.5691 156.238 71.1276 150.524 74.0713 145.676C76.8419 140.654 80.8245 136.325 85.673 133.208Z" fill="#E6E6E6"/>
<path d="M78.2284 175.975H79.6138C86.0207 176.322 92.0813 174.071 97.103 170.088C108.012 161.43 107.146 152.252 106.973 150.521C106.973 145.153 105.588 139.958 102.99 135.283C102.471 133.897 101.605 132.685 100.393 131.646C99.3541 130.607 97.9689 129.915 96.5836 129.395C94.5057 128.876 92.4278 128.876 90.523 129.222C88.4451 129.568 86.5402 130.261 84.8086 131.473C79.6138 134.763 75.2848 139.265 72.3411 144.633C69.2242 150.001 67.4926 155.889 67.1463 162.123C66.9731 164.201 67.3195 166.278 68.0121 168.183C68.7047 170.088 69.9167 171.993 71.302 173.378C73.3799 175.11 75.8042 175.975 78.2284 175.975ZM79.4407 171.82C78.5749 171.993 77.5359 171.993 76.6701 171.646C75.8043 171.473 74.9385 170.954 74.2458 170.261C73.2069 169.222 72.341 167.837 71.9947 166.452C71.4752 165.066 71.3022 163.508 71.4753 161.949C71.8216 156.581 73.38 151.213 76.1506 146.538C78.9211 141.863 82.7307 137.88 87.2329 134.936C88.445 134.071 89.8303 133.551 91.3888 133.205C92.7741 132.858 94.3325 132.858 95.8909 133.205C96.7567 133.551 97.6226 134.071 98.3152 134.763C99.0079 135.456 99.5272 136.322 99.8735 137.187C102.298 141.343 103.51 145.845 103.51 150.694V151.213C103.51 151.56 104.895 159.352 95.1982 166.971C91.0424 170.434 85.6744 172.166 80.3065 171.993L79.4407 171.82Z" fill="#0A0803"/>
<path d="M76.8455 140.995C79.2697 137.878 82.2134 135.108 85.6766 133.03C92.603 129.047 98.6637 130.432 101.088 136.147C103.685 140.476 105.071 145.497 105.071 150.519C105.244 152.77 105.071 155.021 104.205 157.099L89.3129 150.173L76.8455 140.995Z" fill="#FCFCFC"/>
<path d="M105.247 159.87L105.939 157.619C106.805 155.368 106.978 152.77 106.805 150.346C106.805 144.978 105.42 139.783 102.822 135.108C102.303 133.723 101.437 132.511 100.225 131.645C99.186 130.606 97.8005 129.913 96.4153 129.394C94.3373 128.874 92.2594 128.701 90.1815 129.047C88.1036 129.394 86.1989 130.259 84.4673 131.298C80.831 133.55 77.5409 136.32 75.1166 139.783L73.9044 141.515L88.1037 152.078L105.247 159.87ZM93.1254 132.857C93.818 132.857 94.5105 133.03 95.3763 133.203C96.2421 133.55 97.108 134.069 97.8006 134.762C98.4933 135.454 99.0128 136.32 99.3591 137.186C101.783 141.169 102.995 145.844 102.995 150.519V151.039C103.169 152.078 103.169 153.29 102.995 154.329L90.528 148.441L80.1383 140.822C82.0431 138.571 84.4673 136.493 87.0648 134.935C88.7964 133.723 90.8743 133.03 93.1254 132.857Z" fill="#0A0803"/>
<path d="M85.849 155.886L100.741 163.331C99.3554 165.236 97.624 166.968 95.7192 168.353C91.2171 172.163 85.5027 174.067 79.6152 173.721C73.3814 174.414 69.0525 170.085 69.0525 161.773C69.2256 157.098 70.2646 152.596 72.3425 148.44L85.849 155.886Z" fill="#0A0803"/>
<path d="M78.2234 175.974H79.6088C86.0157 176.32 92.0763 174.069 97.098 170.087C99.0028 168.528 100.907 166.797 102.466 164.719L104.024 162.814L86.8815 154.156L71.4703 145.844L70.6045 147.749C68.3534 152.251 67.1413 157.1 67.1413 161.948C66.9682 164.026 67.3145 166.104 68.0071 168.009C68.6998 169.914 69.9117 171.818 71.297 173.204C73.2018 175.108 75.626 175.974 78.2234 175.974ZM79.4357 171.818C78.5699 171.991 77.531 171.991 76.6652 171.645C75.7994 171.472 74.9335 170.953 74.2409 170.26C73.2019 169.221 72.336 167.836 71.9897 166.45C71.4702 165.065 71.2972 163.507 71.4703 161.948C71.4703 158.312 72.336 154.849 73.7213 151.385L85.3232 157.619L97.7907 163.853C96.9249 164.892 95.886 165.758 94.847 166.624C90.6912 170.087 85.323 171.818 79.955 171.645H79.4357V171.818Z" fill="#0A0803"/>
<path d="M84.2874 163.16C84.2874 169.74 88.9627 172.337 94.677 169.047C97.6208 167.143 100.218 164.372 101.95 161.255C103.682 158.138 104.72 154.675 104.894 151.039C104.894 144.458 100.391 141.861 94.677 145.151C91.7333 147.056 89.136 149.826 87.4044 152.943C85.4996 156.06 84.4606 159.697 84.2874 163.16Z" fill="#E6E6E6"/>
<path d="M90.0082 172.688C91.913 172.688 93.991 171.995 95.7226 170.956C99.0127 168.878 101.783 165.934 103.861 162.471C105.766 159.008 106.978 155.199 107.151 151.216C107.324 149.657 106.978 147.926 106.285 146.367C105.593 144.809 104.554 143.597 103.168 142.731C101.783 142.038 100.052 141.692 98.4932 141.865C96.7615 142.038 95.2031 142.558 93.991 143.424C90.701 145.502 87.9303 148.445 85.8523 151.908C83.9476 155.372 82.7354 159.181 82.5622 163.164C82.3891 164.722 82.7354 166.454 83.4281 168.012C84.1207 169.571 85.1597 170.783 86.545 171.649C87.4108 172.341 88.623 172.688 90.0082 172.688ZM99.1858 146.021C99.7053 146.021 100.398 146.194 100.917 146.367C101.61 146.887 102.129 147.753 102.476 148.618C102.822 149.484 102.995 150.35 102.822 151.389C102.649 154.679 101.61 157.796 100.052 160.567C98.4932 163.337 96.242 165.761 93.4715 167.493C92.7788 168.012 91.913 168.359 90.874 168.532C90.0082 168.705 88.9693 168.532 88.1035 168.186C87.4109 167.666 86.8913 166.8 86.545 165.934C86.1987 165.069 86.0256 164.203 86.1988 163.164C86.372 159.874 87.4109 156.757 88.9693 153.986C90.5278 151.216 92.7787 148.792 95.5493 147.06C96.5883 146.367 97.8004 146.021 98.8394 145.848L99.1858 146.021Z" fill="#0A0803"/>
<path d="M95.8853 164.202L171.037 207.492C171.903 208.012 172.942 208.185 173.808 208.185C174.847 208.185 175.712 208.012 176.578 207.492C177.444 206.973 178.137 206.28 178.656 205.414C179.176 204.549 179.349 203.51 179.349 202.644C179.349 201.605 179.002 200.739 178.656 199.873C178.137 199.007 177.444 198.315 176.578 197.795L101.426 154.505C100.561 153.986 99.5216 153.812 98.6558 153.812C97.6169 153.812 96.7511 154.159 95.8853 154.505C95.0195 155.025 94.3267 155.717 93.8072 156.583C93.2878 157.449 93.1148 158.315 93.1148 159.354C93.1148 160.393 93.2878 161.258 93.8072 162.124C94.3267 162.99 95.0195 163.683 95.8853 164.202Z" fill="#FCFCFC"/>
<path d="M173.982 210.264C175.368 210.264 176.753 209.918 177.965 209.225C179.177 208.533 180.216 207.667 180.909 206.455C181.601 205.242 181.948 204.03 181.948 202.645C181.948 201.26 181.601 199.874 180.909 198.836C180.216 197.623 179.177 196.758 177.965 196.065L102.813 152.775C101.601 152.082 100.389 151.736 99.0038 151.736C97.6185 151.736 96.2333 152.082 95.1943 152.775C93.9822 153.467 92.9433 154.333 92.2507 155.545C91.558 156.757 91.2115 157.97 91.2115 159.355C91.2115 160.74 91.558 162.125 92.2507 163.164C92.9433 164.377 93.9822 165.242 95.1943 165.935L170.346 209.225C171.385 209.918 172.597 210.264 173.982 210.264ZM98.8306 155.719C99.5233 155.719 100.043 155.892 100.562 156.238L175.714 199.528C176.233 199.875 176.753 200.221 177.099 200.913C177.446 201.433 177.619 202.126 177.619 202.645C177.619 203.338 177.446 203.857 177.099 204.377C176.753 204.896 176.407 205.416 175.714 205.762C175.195 206.108 174.502 206.281 173.982 206.281C173.29 206.281 172.77 206.108 172.251 205.762L97.099 162.299C96.5796 161.952 96.0602 161.606 95.7139 161.087C95.3676 160.567 95.1943 159.874 95.1943 159.355C95.1943 158.662 95.3676 158.143 95.7139 157.623C96.0602 157.104 96.4064 156.584 97.099 156.238C97.6185 155.892 98.138 155.719 98.8306 155.719Z" fill="#0A0803"/>
<path d="M157.367 201.944L158.926 197.961L158.06 199.866L158.926 197.961C157.887 197.442 157.021 196.749 156.502 195.883C155.809 195.017 155.463 193.979 155.463 192.94C155.463 192.42 155.463 191.727 155.809 191.208C155.982 190.688 156.502 190.169 156.848 189.996C157.194 189.823 157.541 189.649 158.06 189.649C158.579 189.649 158.926 189.823 159.272 189.996L161.35 186.359C160.311 185.84 159.272 185.494 158.06 185.494C156.848 185.494 155.809 185.84 154.77 186.359C153.731 187.052 152.692 187.918 152.173 189.13C151.653 190.342 151.307 191.554 151.307 192.94C151.307 194.844 151.999 196.749 153.038 198.308C154.251 199.866 155.636 201.078 157.367 201.944Z" fill="#0A0803"/>
<path d="M146.622 195.718L148.181 191.908L147.315 193.813L148.181 191.908C147.142 191.389 146.276 190.696 145.756 189.83C145.064 188.964 144.717 187.925 144.717 186.886C144.717 186.367 144.718 185.674 145.064 185.155C145.237 184.635 145.757 184.116 146.103 183.943C146.449 183.769 146.969 183.596 147.315 183.596C147.661 183.596 148.181 183.769 148.527 183.943L150.605 180.306C149.566 179.787 148.527 179.44 147.315 179.44C146.103 179.44 145.064 179.787 144.025 180.306C142.986 180.999 141.947 181.865 141.427 183.077C140.908 184.289 140.562 185.501 140.562 186.886C140.562 188.791 141.254 190.523 142.293 192.081C143.505 193.813 145.064 195.025 146.622 195.718Z" fill="#0A0803"/>
<path d="M135.891 189.654L137.449 185.844L136.583 187.749L137.449 185.844C136.41 185.325 135.544 184.632 135.025 183.766C134.332 182.901 133.986 181.862 133.986 180.823C133.986 180.303 133.986 179.61 134.332 179.091C134.505 178.572 135.025 178.052 135.371 177.879C135.718 177.706 136.237 177.533 136.583 177.533C136.93 177.533 137.449 177.706 137.795 177.879L139.874 174.243C138.835 173.723 137.796 173.377 136.583 173.377C135.371 173.377 134.332 173.723 133.293 174.243C132.254 174.935 131.215 175.801 130.696 177.013C130.176 178.225 129.83 179.437 129.83 180.823C129.83 182.727 130.523 184.459 131.562 186.017C132.774 187.576 134.332 188.788 135.891 189.654Z" fill="#0A0803"/>
<path d="M125.327 183.425L126.886 179.442C125.847 178.923 124.981 178.23 124.462 177.364C123.769 176.499 123.423 175.46 123.423 174.421C123.423 173.901 123.423 173.209 123.769 172.689C123.942 172.17 124.462 171.65 124.808 171.477C125.154 171.304 125.674 171.131 126.02 171.131C126.366 171.131 126.886 171.304 127.232 171.477L129.31 167.841C128.271 167.321 127.232 166.975 126.02 166.975C124.808 166.975 123.769 167.321 122.73 167.841C121.691 168.533 120.652 169.399 120.133 170.611C119.613 171.823 119.267 173.035 119.267 174.421C119.267 176.326 119.96 178.23 120.998 179.789C122.037 181.347 123.596 182.732 125.327 183.425Z" fill="#0A0803"/>
<path d="M114.6 177.361L116.159 173.551C115.12 173.032 114.254 172.339 113.734 171.473C113.042 170.607 112.696 169.568 112.696 168.529C112.696 168.01 112.696 167.317 113.042 166.798C113.388 166.278 113.735 165.759 114.081 165.586C114.427 165.413 114.947 165.239 115.293 165.239C115.639 165.239 116.159 165.413 116.505 165.586L118.583 161.949C117.544 161.43 116.505 161.083 115.293 161.083C114.081 161.083 113.042 161.43 112.003 161.949C110.964 162.642 109.925 163.681 109.405 164.72C108.886 165.932 108.54 167.144 108.54 168.529C108.54 170.434 109.232 172.166 110.271 173.724C111.31 175.283 112.869 176.495 114.6 177.361Z" fill="#0A0803"/>
<path d="M174.852 184.974L176.756 183.935C177.795 183.07 179.007 182.723 180.393 182.377C181.778 182.204 182.99 182.377 184.202 182.723H184.549L186.973 184.109L248.445 220.472V220.646L242.038 251.122L225.761 313.806C225.761 313.806 225.761 313.979 225.414 313.806L162.211 276.576V209.217C162.384 204.542 163.596 199.866 165.674 195.71C167.752 191.381 171.042 187.745 174.852 184.974Z" fill="#E6E6E6"/>
<path d="M225.243 316.237L226.282 315.89C226.628 315.717 226.974 315.544 227.147 315.371C227.321 315.198 227.494 314.851 227.667 314.505L243.944 251.648L250.697 219.786L249.312 218.747L187.667 182.384L184.723 180.825C183.165 180.306 181.606 180.132 180.048 180.306C178.489 180.479 176.931 181.171 175.546 182.037L173.641 183.076C169.485 186.02 166.022 190.003 163.597 194.505C161.173 199.007 159.961 204.029 159.961 209.223V277.795L161 278.661L225.243 316.237ZM239.961 250.609L224.204 310.869L164.117 275.198V208.877C164.29 204.548 165.329 200.219 167.407 196.236C169.485 192.254 172.429 188.964 176.065 186.366L177.97 185.327C181.087 183.596 182.472 183.942 183.511 184.288H183.857L186.108 185.674L246.368 221.345L239.961 250.609Z" fill="#0A0803"/>
<path d="M234.075 256.149L232.516 288.703V290.954L225.59 313.465C225.59 313.465 225.59 313.465 225.417 313.465C225.417 313.465 225.417 313.465 225.243 313.465L162.04 276.235V209.049C162.04 209.049 162.04 209.049 162.386 209.049L225.59 246.279L234.075 256.149Z" fill="#0A0803"/>
<path d="M225.242 316.061L227.32 315.368L227.666 314.329L234.592 291.472V288.875L236.151 255.628L235.631 254.935L226.627 244.719L162.384 206.796L160.133 208.009V209.394V277.619L161.172 278.312L225.242 316.061ZM230.436 290.779L224.376 310.52L164.116 274.849V211.991L224.376 247.835L232.341 256.84L230.783 288.701L230.436 290.779Z" fill="#0A0803"/>
<path d="M225.939 313.984L244.294 303.421C246.892 301.862 249.143 299.784 250.701 297.014C252.26 294.416 252.952 291.3 252.952 288.356V230.867C252.952 221.516 247.238 217.187 240.138 221.17L238.233 222.208C234.424 224.979 231.134 228.615 229.056 232.771C226.805 236.927 225.593 241.602 225.593 246.451V313.637C225.593 313.637 225.593 313.637 225.593 313.81C225.766 313.984 225.766 313.984 225.939 313.984Z" fill="#E6E6E6"/>
<path d="M225.936 316.064C226.282 316.064 226.801 315.891 226.974 315.718L245.33 305.155C248.273 303.423 250.698 300.999 252.429 298.055C254.161 295.111 255.027 291.821 255.027 288.358V230.869C255.2 228.618 254.853 226.193 253.988 224.116C253.122 222.038 251.563 220.133 249.659 218.748C248.1 217.882 246.195 217.535 244.291 217.709C242.386 217.882 240.654 218.401 239.269 219.44L237.364 220.479C233.208 223.423 229.745 227.232 227.321 231.908C224.897 236.41 223.684 241.432 223.684 246.626V315.025L224.897 315.718C225.07 315.891 225.416 316.064 225.936 316.064ZM245.33 221.691C246.195 221.691 246.888 221.864 247.581 222.211C248.793 223.25 249.832 224.462 250.351 226.02C250.871 227.579 251.217 229.137 250.871 230.696V288.185C250.871 290.956 250.005 293.553 248.62 295.977C247.234 298.228 245.33 300.306 242.905 301.518L227.494 310.523V246.453C227.667 242.124 228.706 237.795 230.784 233.812C232.862 229.83 235.806 226.54 239.442 223.942L241.347 222.903C242.559 222.211 243.944 221.691 245.33 221.691Z" fill="#0A0803"/>
<path d="M165.678 221.51L223.167 255.104L221.089 258.567L163.6 224.801L165.678 221.51Z" fill="#E6E6E6"/>
<path d="M172.419 185.674L236.662 223.423L234.584 226.886L170.341 189.137L172.419 185.674Z" fill="#0A0803"/>
<path d="M232.167 200.215L276.323 174.76C284.807 169.912 292.427 169.566 298.314 173.029L359.267 208.007L347.838 245.756L260.046 360.042C260.046 360.042 260.046 360.042 259.872 360.042C259.872 360.042 259.872 360.042 259.699 360.042C259.699 360.042 259.699 360.042 259.526 360.042C259.526 360.042 259.526 360.042 259.353 360.042L198.4 325.237V264.458C198.573 239.696 213.638 210.951 232.167 200.215Z" fill="#FCFCFC"/>
<path d="M259.693 362.122C260.039 362.122 260.385 361.949 260.732 361.949C261.078 361.776 261.251 361.603 261.598 361.257L349.563 246.451L361.511 206.624L297.788 170.087C294.152 168.529 290.169 168.009 286.186 168.356C282.204 168.702 278.394 170.087 275.104 172.338L230.948 197.793C211.9 208.875 196.316 238.313 196.316 263.767V326.105L258.308 361.776C258.654 361.949 259.173 362.122 259.693 362.122ZM345.927 244.72L259.346 357.447L200.645 323.854V264.114C200.645 240.044 215.191 212.165 233.199 201.776L277.355 176.321C284.801 171.992 291.901 171.473 297.095 174.589L298.481 175.282L356.663 208.702L345.927 244.72Z" fill="#0A0803"/>
<path d="M198.575 324.716V263.937C198.575 256.837 199.787 249.565 201.865 242.811L262.817 278.482L286.887 299.088L282.038 330.95L259.874 359.695C259.874 359.695 259.874 359.695 259.7 359.695C259.7 359.695 259.701 359.695 259.527 359.695C259.527 359.695 259.527 359.695 259.354 359.695C259.354 359.695 259.354 359.695 259.181 359.695L198.575 324.716Z" fill="#0A0803"/>
<path d="M259.695 361.779C260.042 361.779 260.388 361.779 260.734 361.605C261.08 361.432 261.427 361.259 261.6 360.913L284.111 331.649L289.306 298.229L264.024 276.757L200.821 239.874L200.128 242.471C197.877 249.571 196.838 256.843 196.665 264.116V326.108L258.656 361.779C258.829 361.779 259.176 361.779 259.695 361.779ZM280.128 330.09L259.176 357.276L200.474 323.683V264.116C200.474 258.055 201.34 251.995 203.072 246.107L261.6 280.22L284.63 299.96L280.128 330.09Z" fill="#0A0803"/>
<path d="M354.763 221.688L345.932 210.259C343.681 208.527 340.217 211.125 337.966 209.393L276.148 174.588L282.035 171.817C284.633 170.778 287.403 170.432 290.001 170.605C292.771 170.778 295.369 171.471 297.793 172.856L358.746 207.662L354.59 221.341C354.59 221.514 354.763 221.861 354.763 221.688Z" fill="#E6E6E6"/>
<path d="M353.895 224.113L356.493 223.594L357.012 222.209L361.688 206.97L360.129 205.932L297.964 170.26C292.769 168.009 286.882 167.836 281.514 169.741C280.302 170.087 274.241 172.338 274.241 174.243V175.628L336.925 211.126C337.791 211.646 338.657 211.992 339.523 212.165C340.389 212.338 341.428 212.165 342.293 211.992C342.986 211.819 343.852 211.819 344.545 211.992L353.895 224.113ZM356.666 208.875L354.068 217.533L347.142 208.702C346.276 208.183 345.41 207.836 344.545 207.663C343.679 207.49 342.64 207.49 341.774 207.836C340.735 207.836 339.696 208.183 339.35 207.836H339.003L280.821 175.109L283.073 174.07C285.324 173.204 287.748 172.858 290.345 173.031C292.77 173.204 295.194 173.897 297.272 174.936L298.657 175.628L356.666 208.875Z" fill="#0A0803"/>
<path d="M212.075 220.477L272.854 256.148L278.915 268.096L263.157 278.313L202.204 242.642C204.455 234.676 207.746 227.404 212.075 220.477Z" fill="#E6E6E6"/>
<path d="M262.816 280.389L281.518 268.441L274.418 254.415L211.388 217.532L210.349 219.263C205.846 226.363 202.556 233.982 200.132 241.774L199.613 243.333L262.816 280.389ZM276.15 267.229L262.816 275.714L204.461 241.601C206.539 235.194 209.31 229.134 212.773 223.246L271.301 257.532L276.15 267.229Z" fill="#0A0803"/>
<path d="M260.216 360.04L371.039 296.144V235.192C371.039 210.43 355.974 199.174 337.446 209.91L293.29 235.365C274.762 246.101 259.697 274.845 259.697 299.607V359.867V360.04C259.697 360.04 259.697 360.214 259.87 360.214C260.043 360.04 260.043 360.04 260.216 360.04C260.043 360.04 260.216 360.04 260.216 360.04Z" fill="#E6E6E6"/>
<path d="M260.047 362.126C260.566 362.126 260.913 361.953 261.259 361.78L372.948 297.364V235.373C372.948 221.693 368.445 211.13 360.307 206.455C353.554 202.472 345.069 203.165 336.238 208.187L292.082 233.641C273.034 244.723 257.45 274.161 257.45 299.615V359.875C257.45 360.222 257.623 360.741 257.796 361.087C257.969 361.434 258.315 361.78 258.662 361.953C259.181 361.953 259.701 362.126 260.047 362.126ZM368.792 294.767L261.605 356.585V299.269C261.605 275.2 276.151 247.321 294.16 236.931L338.316 211.477C345.762 207.148 352.861 206.628 358.056 209.745C364.809 213.728 368.619 222.905 368.619 235.026L368.792 294.767Z" fill="#0A0803"/>
<path d="M246.36 337.186C247.225 337.186 247.918 337.013 248.611 336.666C249.476 335.974 250.169 335.108 250.689 334.242C251.208 333.376 251.381 332.164 251.208 331.125V295.8C251.208 293.722 250.689 291.471 249.65 289.567C248.611 287.662 247.225 286.103 245.494 284.891L213.459 266.363C212.766 265.844 211.727 265.497 210.862 265.497C209.996 265.497 208.957 265.67 208.264 266.017C207.398 266.709 206.706 267.575 206.186 268.441C205.667 269.48 205.494 270.519 205.667 271.558V306.883C205.667 308.961 206.186 311.212 207.225 313.117C208.264 315.021 209.649 316.58 211.381 317.792L243.416 336.32C244.282 336.84 245.321 337.013 246.36 337.186ZM210.515 269.48C210.862 269.48 211.035 269.653 211.381 269.826L243.416 288.181C244.628 289.047 245.494 290.086 246.186 291.471C246.879 292.684 247.225 294.242 247.225 295.627V330.952C247.225 332.337 246.879 332.857 246.533 333.03C246.36 333.203 246.013 333.03 245.494 332.857L213.459 314.329C212.247 313.463 211.381 312.424 210.688 311.039C209.996 309.826 209.649 308.268 209.649 306.883V271.558C209.649 270.173 209.996 269.653 210.515 269.48Z" fill="#E6E6E6"/>
<path d="M247.236 327.137L251.218 326.444C251.218 325.925 248.794 313.63 241.868 308.955C240.656 308.089 239.443 307.57 238.058 307.397C236.673 307.05 235.287 307.223 233.902 307.397C231.651 307.57 229.227 307.223 227.149 306.184C225.071 305.145 223.339 303.414 222.301 301.336C218.318 295.448 216.932 285.578 224.205 275.015L220.742 272.764C212.257 285.059 214.162 296.834 218.664 303.76C220.223 306.531 222.474 308.782 225.417 310.167C228.188 311.552 231.478 312.072 234.595 311.726C235.461 311.552 236.326 311.552 237.192 311.726C238.058 311.899 238.751 312.245 239.443 312.765C244.119 315.362 246.543 324.193 247.236 327.137Z" fill="#E6E6E6"/>
<path d="M196.499 256.664H200.655V291.989H196.499V256.664Z" fill="#E6E6E6"/>
<path d="M-1.9487 197.971L21.0815 210.785L19.1768 214.422L-3.85342 201.608L-1.9487 197.971Z" fill="#E6E6E6"/>
<path d="M164.98 237.278H169.136V254.941H164.98V237.278Z" fill="#E6E6E6"/>
<path d="M349.226 232.599C353.555 230.002 357.537 230.868 359.096 234.331C360.828 237.102 361.693 240.218 361.693 243.508C361.866 245.76 361.52 248.011 360.481 250.089C359.442 252.167 357.884 253.898 356.152 255.11C353.382 257.534 349.572 258.92 345.936 258.747C341.953 259.266 339.182 256.496 339.009 251.301C339.182 247.664 340.221 244.028 341.953 240.738C343.685 237.448 346.109 234.677 349.226 232.599Z" fill="#0A0803"/>
<path d="M344.894 260.645H345.932C350.088 260.818 354.244 259.433 357.361 256.662C359.439 255.277 361.171 253.199 362.383 250.948C363.422 248.697 363.941 246.099 363.768 243.502C363.768 239.866 362.729 236.402 360.824 233.459C360.305 232.593 359.785 231.727 358.919 231.034C358.054 230.342 357.188 229.822 356.149 229.476C354.764 229.13 353.378 229.13 351.993 229.303C350.608 229.476 349.223 230.169 348.01 230.861C344.72 233.112 341.777 236.229 339.872 239.692C337.967 243.329 336.755 247.138 336.755 251.294C336.755 252.679 336.928 254.238 337.448 255.623C337.967 257.008 338.833 258.221 339.872 259.26C341.43 260.298 343.162 260.818 344.894 260.645ZM345.586 256.489C345.067 256.489 344.547 256.489 344.028 256.489C343.508 256.316 343.162 256.143 342.642 255.796C342.123 255.104 341.603 254.411 341.257 253.545C340.911 252.679 340.911 251.814 340.911 250.948C341.084 247.658 341.95 244.368 343.681 241.424C345.24 238.48 347.491 236.056 350.261 234.151C350.954 233.632 351.647 233.285 352.513 233.112C353.378 232.939 354.244 232.939 355.11 233.112C355.629 233.285 355.976 233.459 356.322 233.805C356.668 234.151 357.015 234.498 357.188 235.017C358.746 237.441 359.439 240.385 359.612 243.156V243.675C359.612 245.58 359.266 247.485 358.4 249.043C357.534 250.775 356.322 252.16 354.764 253.199C352.339 255.277 349.049 256.489 345.932 256.316L345.586 256.489Z" fill="#0A0803"/>
<path d="M355.805 246.625C353.034 249.05 349.225 250.435 345.588 250.262C344.376 250.435 342.991 250.262 341.952 249.569C340.913 248.876 340.047 247.838 339.528 246.625C340.913 240.911 344.376 235.889 349.225 232.599C353.554 230.002 357.537 230.868 359.095 234.331C359.961 235.889 360.653 237.448 361.173 239.353C360.134 242.123 358.229 244.721 355.805 246.625Z" fill="#E6E6E6"/>
<path d="M344.544 252.333H345.583C349.739 252.506 353.895 251.121 357.012 248.35C359.782 246.272 361.86 243.329 362.899 240.039V239.519V239C362.379 237.095 361.687 235.19 360.648 233.459C360.128 232.593 359.609 231.727 358.743 231.034C357.877 230.342 357.011 229.822 355.973 229.476C354.587 229.13 353.202 229.13 351.817 229.303C350.431 229.476 349.046 230.169 347.834 230.861C342.466 234.498 338.656 239.866 337.271 246.272V246.965L337.444 247.485C337.964 248.87 339.003 250.082 340.215 250.948C341.6 251.814 343.159 252.333 344.544 252.333ZM345.41 248.177C344.717 248.35 344.024 248.177 343.332 247.831C342.639 247.485 342.12 246.965 341.773 246.272C343.159 241.424 346.102 237.095 350.431 234.151C351.124 233.632 351.817 233.285 352.683 233.112C353.548 232.939 354.414 232.939 355.28 233.112C355.799 233.285 356.146 233.459 356.492 233.805C356.838 234.151 357.185 234.498 357.358 235.017C358.051 236.229 358.743 237.614 359.089 239C358.224 241.251 356.665 243.329 354.76 244.887C352.336 246.965 349.046 248.177 345.929 248.004L345.41 248.177Z" fill="#0A0803"/>
<path d="M342.645 239.348C344.203 236.577 346.454 234.326 349.225 232.421C353.554 229.824 357.537 230.69 359.095 234.153C359.961 235.711 360.653 237.27 361.173 239.174C360.653 240.906 359.788 242.464 358.575 243.85L351.13 244.716L342.645 239.348Z" fill="#FCFCFC"/>
<path d="M350.614 246.978L359.618 245.939L360.138 245.246C361.523 243.688 362.389 241.783 363.082 239.878V239.359V238.84C362.562 236.935 361.869 235.03 360.83 233.298C360.311 232.433 359.791 231.567 358.926 230.874C358.06 230.182 357.194 229.662 356.155 229.316C354.77 228.969 353.385 228.969 351.999 229.143C350.614 229.316 349.229 230.008 348.017 230.701C345.073 232.606 342.475 235.203 340.744 238.32L339.705 240.052L350.614 246.978ZM357.367 241.956L351.48 242.649L345.419 238.666C346.631 236.935 348.363 235.376 350.094 234.164C350.787 233.645 351.48 233.298 352.346 233.125C353.211 232.952 354.077 232.952 354.943 233.125C355.462 233.298 355.809 233.472 356.155 233.818C356.501 234.164 356.848 234.511 357.021 235.03C357.714 236.242 358.406 237.627 358.753 239.013C358.579 240.052 358.06 241.091 357.367 241.956Z" fill="#0A0803"/>
<path d="M359.616 232.426C366.543 228.27 372.43 229.655 375.028 235.196C377.625 239.525 379.01 244.374 379.01 249.395C379.01 249.395 380.915 258.573 370.179 267.404C365.677 271.214 359.963 273.292 354.075 273.118C348.015 273.984 343.512 269.655 343.339 261.517C343.512 255.802 345.244 250.088 348.015 245.066C350.958 240.045 354.941 235.716 359.616 232.426Z" fill="#E6E6E6"/>
<path d="M352.861 275.372C353.381 275.372 353.9 275.372 354.42 275.372C360.827 275.545 366.887 273.294 371.736 269.138C382.472 260.307 381.606 250.956 381.26 249.398C381.26 244.03 379.701 238.835 376.931 234.16C376.411 232.774 375.372 231.562 374.333 230.697C373.294 229.658 371.909 228.965 370.524 228.619C368.446 228.099 366.368 228.099 364.29 228.445C362.212 228.792 360.307 229.658 358.575 230.87C353.554 234.333 349.225 238.835 346.281 244.203C343.337 249.571 341.779 255.632 341.433 261.692C341.259 263.77 341.606 265.848 342.472 267.753C343.164 269.658 344.376 271.389 345.935 272.948C347.84 274.506 350.264 275.372 352.861 275.372ZM354.073 271.043C353.208 271.216 352.169 271.216 351.303 271.043C350.437 270.87 349.571 270.35 348.879 269.658C347.84 268.619 346.974 267.233 346.454 265.848C345.935 264.463 345.762 262.904 345.762 261.346C345.935 255.978 347.493 250.61 350.091 245.935C352.688 241.259 356.498 237.103 360.827 233.987C362.039 233.121 363.424 232.428 364.982 232.255C366.368 231.909 367.926 231.909 369.485 232.255C370.35 232.601 371.216 232.948 371.909 233.64C372.602 234.333 373.121 235.026 373.467 235.891C375.892 239.874 377.277 244.549 377.45 249.225V249.744C377.45 250.091 378.835 257.883 369.485 265.502C365.329 268.965 360.134 270.87 354.766 270.697L354.073 271.043Z" fill="#0A0803"/>
<path d="M350.962 240.564C353.213 237.274 356.156 234.504 359.62 232.426C366.546 228.27 372.433 229.655 375.031 235.196C377.628 239.525 379.014 244.374 379.014 249.395C379.36 251.646 379.014 253.898 378.321 256.149L363.256 249.395L350.962 240.564Z" fill="#FCFCFC"/>
<path d="M379.873 258.745L380.566 256.493C381.432 254.069 381.605 251.645 381.259 249.048C381.259 243.68 379.7 238.485 376.93 233.809C376.41 232.424 375.371 231.212 374.332 230.346C373.293 229.307 371.908 228.615 370.523 228.268C368.445 227.749 366.367 227.749 364.289 228.095C362.211 228.441 360.306 229.307 358.574 230.519C354.938 232.77 351.821 235.714 349.397 239.177L348.185 240.909L362.73 251.125L379.873 258.745ZM367.232 231.905C367.925 231.905 368.618 231.905 369.31 232.251C370.176 232.597 371.042 233.117 371.735 233.636C372.427 234.329 372.947 235.022 373.293 235.887C375.717 239.87 377.103 244.545 377.276 249.221V249.74C377.449 250.779 377.449 251.991 377.276 253.03L364.635 247.489L354.072 240.043C355.977 237.619 358.228 235.714 360.826 233.983C362.73 232.77 364.981 232.078 367.232 231.905Z" fill="#0A0803"/>
<path d="M360.31 255.112L375.375 262.212C373.989 264.117 372.258 265.848 370.526 267.407C366.024 271.216 360.31 273.294 354.422 273.121C348.361 273.987 343.859 269.658 343.686 261.519C343.686 256.844 344.725 252.342 346.803 248.186L360.31 255.112Z" fill="#0A0803"/>
<path d="M352.857 275.371C353.376 275.371 353.896 275.371 354.415 275.371C360.822 275.544 366.883 273.293 371.731 269.137C373.636 267.579 375.541 265.674 376.926 263.596L378.484 261.691L361.168 253.38L345.584 245.414L344.718 247.319C342.64 251.821 341.428 256.67 341.428 261.691C341.255 263.769 341.601 265.847 342.467 267.752C343.16 269.657 344.372 271.388 345.93 272.947C347.835 274.505 350.259 275.371 352.857 275.371ZM354.069 271.042C353.203 271.215 352.164 271.215 351.298 271.042C350.432 270.869 349.567 270.349 348.874 269.657C347.835 268.618 346.969 267.233 346.45 265.847C345.93 264.462 345.757 262.904 345.757 261.345C345.757 257.709 346.45 254.245 347.835 250.782L359.783 256.843L372.424 262.904C371.558 263.942 370.519 264.808 369.48 265.674C365.324 269.137 360.129 271.042 354.761 270.869H354.069V271.042Z" fill="#0A0803"/>
<path d="M358.739 262.553C358.739 269.133 363.587 271.731 369.128 268.267C372.072 266.19 374.496 263.592 376.228 260.475C377.96 257.358 378.999 253.895 378.999 250.259C378.999 243.679 374.15 241.081 368.609 244.544C365.665 246.622 363.241 249.22 361.509 252.337C359.951 255.454 358.912 258.917 358.739 262.553Z" fill="#E6E6E6"/>
<path d="M364.465 271.733C366.543 271.733 368.447 271.041 370.179 270.002C373.469 267.75 376.067 264.807 377.971 261.517C379.876 258.053 380.915 254.244 381.088 250.261C381.261 248.53 380.915 246.971 380.222 245.413C379.53 243.854 378.318 242.642 376.932 241.776C375.374 241.084 373.816 240.737 372.084 240.911C370.352 241.084 368.794 241.603 367.582 242.642C364.292 244.893 361.694 247.837 359.789 251.127C357.885 254.59 356.846 258.4 356.673 262.382C356.499 264.114 356.846 265.673 357.712 267.231C358.404 268.789 359.616 270.002 361.002 270.867C362.041 271.56 363.253 271.733 364.465 271.733ZM373.469 245.066C373.989 245.066 374.508 245.24 375.028 245.413C375.72 245.932 376.413 246.798 376.759 247.664C377.106 248.53 377.279 249.395 377.106 250.434C376.932 253.724 376.067 256.841 374.508 259.612C372.95 262.383 370.699 264.807 368.101 266.712C367.409 267.231 366.543 267.577 365.677 267.75C364.811 267.924 363.772 267.75 362.906 267.404C362.214 266.885 361.521 266.192 361.175 265.326C360.828 264.46 360.655 263.595 360.828 262.729C361.002 259.439 361.867 256.322 363.426 253.551C364.984 250.781 367.235 248.356 369.833 246.452C370.872 245.413 372.257 245.066 373.469 245.066Z" fill="#0A0803"/>
<path d="M153.211 406.798C153.558 413.898 155.636 420.651 159.099 426.712C162.562 432.772 167.584 437.967 173.471 441.777C184.727 448.184 193.731 442.989 193.731 429.828C193.385 422.729 191.307 415.976 187.843 409.915C184.38 403.854 179.359 398.66 173.471 394.85C162.216 388.789 153.211 393.984 153.211 406.798Z" fill="#0A0803"/>
<path d="M182.647 446.802C184.898 446.802 186.976 446.282 188.88 445.243C191.305 443.685 193.209 441.434 194.422 438.836C195.634 436.239 196.153 433.295 195.807 430.524C195.46 423.079 193.209 415.979 189.573 409.572C185.937 403.165 180.742 397.797 174.508 393.641C172.257 391.91 169.486 390.871 166.543 390.698C163.599 390.524 160.828 391.044 158.231 392.256C155.807 393.814 153.902 396.065 152.69 398.663C151.478 401.26 150.958 404.204 151.305 406.975C151.651 414.421 153.902 421.52 157.538 427.927C161.175 434.334 166.37 439.702 172.603 443.858C175.547 445.589 179.01 446.628 182.647 446.802ZM164.465 394.507C167.235 394.68 170.006 395.546 172.43 396.931C177.971 400.568 182.647 405.416 186.11 411.304C189.4 417.018 191.305 423.598 191.651 430.178C191.824 432.256 191.651 434.507 190.785 436.412C189.919 438.317 188.534 440.048 186.803 441.434C184.898 442.299 182.647 442.646 180.396 442.299C178.318 442.126 176.24 441.26 174.508 439.875C168.967 436.239 164.292 431.39 161.002 425.503C157.711 419.789 155.807 413.208 155.46 406.628C155.287 404.55 155.46 402.299 156.326 400.395C157.192 398.49 158.577 396.758 160.309 395.373C161.521 394.853 162.906 394.507 164.465 394.507Z" fill="#E6E6E6"/>
<path d="M168.786 415.799C168.786 417.531 169.306 419.089 170.172 420.475C171.038 421.86 172.25 423.072 173.635 424.111C176.232 425.669 178.483 424.457 178.483 421.34C178.483 419.609 177.964 418.05 177.098 416.665C176.232 415.28 175.02 414.068 173.635 413.029C170.864 411.47 168.786 412.682 168.786 415.799Z" fill="#0A0803"/>
<path d="M175.718 426.707C176.584 426.707 177.277 426.534 177.969 426.187C178.835 425.668 179.355 424.975 179.874 424.109C180.394 423.244 180.567 422.378 180.394 421.339C180.394 419.261 179.701 417.356 178.662 415.625C177.623 413.893 176.238 412.334 174.506 411.295C173.64 410.776 172.774 410.43 171.736 410.43C170.87 410.43 169.831 410.603 168.965 410.949C168.099 411.469 167.58 412.161 167.06 413.027C166.541 413.893 166.368 414.759 166.541 415.798C166.541 417.876 167.233 419.78 168.272 421.512C169.311 423.244 170.696 424.802 172.428 425.841C173.467 426.36 174.506 426.707 175.718 426.707ZM171.389 414.412C171.736 414.412 172.255 414.586 172.428 414.759C173.467 415.451 174.506 416.49 175.199 417.529C175.891 418.741 176.238 419.954 176.411 421.339C176.411 422.205 176.411 422.551 176.065 422.724C175.718 422.724 175.372 422.724 174.679 422.378C173.64 421.685 172.775 420.646 172.082 419.607C171.389 418.395 171.043 417.183 171.043 415.971C171.043 414.932 171.043 414.586 171.389 414.412Z" fill="#E6E6E6"/>
<path d="M-1.77402 284.892C-1.4277 291.992 0.650265 298.745 4.11348 304.806C7.57669 310.867 12.5982 316.061 18.4857 319.871C29.7411 326.278 38.7456 321.083 38.7456 307.923C38.3993 300.823 36.3213 294.07 32.8581 288.009C29.3949 281.949 24.3731 276.754 18.4857 272.944C7.4034 266.711 -1.77402 271.905 -1.77402 284.892Z" fill="#0A0803"/>
<path d="M27.6617 324.716C29.9128 324.716 31.9907 324.197 33.8955 322.985C36.3197 321.426 38.2246 319.175 39.4367 316.578C40.6489 313.98 41.1682 311.036 40.8219 308.266C40.4756 300.82 38.2245 293.72 34.5882 287.313C30.9518 280.907 25.7571 275.539 19.5233 271.383C17.2722 269.651 14.5015 268.612 11.5577 268.439C8.61399 268.266 5.84355 268.785 3.24614 269.997C0.821892 271.556 -1.083 273.98 -2.29513 276.578C-3.50725 279.175 -4.02661 282.119 -3.68029 285.062C-3.33397 292.508 -1.08292 299.608 2.55346 306.015C6.18983 312.422 11.3846 317.79 17.6183 321.946C20.5621 323.677 24.0254 324.716 27.6617 324.716ZM9.47988 272.422C12.2504 272.595 15.021 273.461 17.4452 274.846C22.9864 278.482 27.6618 283.331 30.9518 289.218C34.2419 294.933 36.3197 301.513 36.666 308.093C36.8392 310.171 36.666 312.422 35.8002 314.327C34.9344 316.231 33.5492 317.963 31.8176 319.348C29.9129 320.214 27.6617 320.56 25.4106 320.214C23.3326 320.041 21.2549 319.175 19.5233 317.79C13.9821 314.153 9.30672 309.305 6.01667 303.417C2.72662 297.703 0.821934 291.123 0.475613 284.543C0.302452 282.465 0.475613 280.214 1.34142 278.309C2.20722 276.404 3.59238 274.673 5.32398 273.287C6.53611 272.768 7.92143 272.422 9.47988 272.422Z" fill="#E6E6E6"/>
<path d="M13.8106 293.723C13.8106 295.455 14.3302 297.013 15.196 298.399C16.0618 299.784 17.1006 300.996 18.4859 302.035C21.0833 303.594 23.3345 302.381 23.3345 299.264C23.3345 297.533 22.8149 295.974 21.9491 294.589C21.0833 293.204 19.8712 291.992 18.4859 290.953C15.8885 289.394 13.8106 290.606 13.8106 293.723Z" fill="#0A0803"/>
<path d="M20.731 304.809C21.5968 304.809 22.2895 304.636 22.9822 304.29C23.848 303.77 24.3674 303.078 24.8869 302.212C25.4064 301.346 25.5794 300.307 25.4062 299.441C25.4062 297.363 24.7136 295.459 23.6746 293.727C22.6357 291.995 21.2506 290.437 19.5189 289.398C18.6531 288.879 17.7872 288.532 16.7482 288.532C15.8824 288.532 14.8435 288.705 13.9777 289.052C13.1119 289.571 12.5924 290.264 12.073 291.13C11.5535 291.995 11.3802 293.034 11.5534 293.9C11.5534 295.978 12.246 297.883 13.285 299.614C14.324 301.346 15.7093 302.905 17.4409 303.944C18.4799 304.29 19.5189 304.636 20.731 304.809ZM16.402 292.342C16.7483 292.342 17.2677 292.515 17.4409 292.688C18.4799 293.381 19.3457 294.42 20.0383 295.459C20.7309 296.671 21.0772 297.883 21.0772 299.095C21.0772 299.961 21.0773 300.307 20.731 300.48C20.3847 300.48 20.0383 300.48 19.3456 300.134C18.3067 299.441 17.2677 298.402 16.5751 297.363C15.8824 296.151 15.5362 294.939 15.363 293.554C15.363 292.688 15.363 292.342 15.7093 292.169L16.402 292.342Z" fill="#E6E6E6"/>
<path d="M315.284 178.749V188.446C315.284 190.87 314.591 193.294 313.206 195.372C311.821 197.45 309.916 199.008 307.665 200.047C301.95 202.991 295.543 204.55 289.136 204.723C282.73 204.723 276.323 203.338 270.435 200.394C268.184 199.528 266.279 197.97 264.894 195.892C263.509 193.814 262.643 191.563 262.643 188.965V179.961V179.788V179.615L297.621 173.727L314.764 178.402C314.764 178.402 314.764 178.229 314.937 178.229H315.111L315.284 178.402C315.284 178.576 315.284 178.749 315.284 178.749Z" fill="#E6E6E6"/>
<path d="M288.618 206.629C295.545 206.802 302.471 205.071 308.705 201.781C311.302 200.569 313.38 198.664 314.939 196.24C316.497 193.815 317.19 191.045 317.19 188.274V178.923C317.19 178.404 317.017 177.885 316.67 177.538C316.324 177.192 315.978 176.846 315.458 176.672L297.969 171.997H297.45L262.471 177.885C261.952 177.885 261.432 178.231 261.086 178.577C260.74 178.924 260.566 179.443 260.566 179.962V188.967C260.566 191.737 261.432 194.508 262.991 196.759C264.549 199.01 266.8 200.915 269.398 202.127C275.285 205.244 281.865 206.802 288.618 206.629ZM313.207 180.136V188.447C313.207 190.525 312.515 192.603 311.476 194.335C310.264 196.066 308.705 197.452 306.8 198.317C301.432 201.088 295.372 202.646 289.311 202.646C283.25 202.646 277.19 201.261 271.649 198.664C269.744 197.971 268.012 196.586 266.973 195.027C265.761 193.296 265.069 191.391 265.069 189.313V181.694L298.142 176.153L313.207 180.136Z" fill="#0A0803"/>
<path d="M262.822 179.959L284.986 176.323V204.721C279.792 204.548 274.77 203.162 270.268 200.738C268.017 199.872 266.112 198.314 264.727 196.236C263.341 194.158 262.475 191.907 262.475 189.483V180.478V180.305C262.475 180.305 262.476 180.132 262.649 180.132L262.822 179.959C262.822 179.786 262.822 179.786 262.822 179.959Z" fill="#0A0803"/>
<path d="M307.49 168.18C301.603 165.236 295.369 163.851 288.789 163.851C282.382 163.851 275.975 165.582 270.261 168.526C260.044 174.587 260.217 184.284 270.434 189.998C276.321 192.942 282.555 194.327 289.135 194.327C295.542 194.327 301.949 192.595 307.663 189.652C317.88 183.591 317.88 173.894 307.49 168.18Z" fill="#FCFCFC"/>
<path d="M288.62 196.233C295.546 196.406 302.472 194.675 308.706 191.385C311.13 190.172 313.208 188.441 314.767 186.19C316.325 183.939 317.191 181.341 317.364 178.744C317.191 176.147 316.152 173.549 314.594 171.298C313.035 169.047 310.957 167.315 308.533 166.276C302.472 163.333 295.719 161.774 288.793 161.774C281.866 161.774 275.286 163.506 269.226 166.623C266.801 167.835 264.723 169.566 263.165 171.817C261.607 174.069 260.741 176.666 260.568 179.263C260.741 181.861 261.78 184.458 263.338 186.709C264.897 188.96 266.974 190.692 269.399 191.731C275.459 194.848 282.04 196.406 288.62 196.233ZM289.312 165.93C295.2 165.757 301.26 167.142 306.455 169.913C308.36 170.605 309.918 171.991 310.957 173.549C312.169 175.108 312.862 177.012 313.208 178.917C313.035 180.822 312.343 182.727 311.131 184.285C309.918 185.843 308.36 187.056 306.628 187.921C301.26 190.692 295.2 192.25 289.139 192.25C283.078 192.25 277.018 190.865 271.477 188.268C269.572 187.575 268.187 186.363 266.975 184.805C265.762 183.246 265.07 181.341 264.723 179.437C264.897 177.532 265.589 175.627 266.801 174.069C268.013 172.51 269.572 171.298 271.304 170.432C276.845 167.315 283.078 165.757 289.312 165.93Z" fill="#0A0803"/>
<path d="M292.077 177.183C291.038 176.664 289.999 176.49 288.96 176.49C287.921 176.49 286.709 176.837 285.67 177.183C285.324 177.356 284.977 177.529 284.804 177.876C284.631 178.222 284.458 178.568 284.458 179.088C284.458 179.434 284.631 179.954 284.804 180.3C284.977 180.646 285.324 180.819 285.67 180.993C286.709 181.512 287.748 181.685 288.96 181.685C289.999 181.685 291.211 181.512 292.077 180.993C293.982 179.781 293.982 178.222 292.077 177.183Z" fill="#FCFCFC"/>
<path d="M288.788 183.764C290.346 183.764 291.731 183.418 293.117 182.726C293.809 182.379 294.329 181.86 294.848 181.167C295.195 180.474 295.541 179.782 295.541 179.089C295.541 178.397 295.195 177.531 294.848 177.011C294.329 176.319 293.809 175.799 293.117 175.453C291.731 174.76 290.346 174.414 288.961 174.414C287.576 174.414 286.017 174.76 284.805 175.453C284.112 175.799 283.593 176.319 283.073 177.011C282.727 177.704 282.554 178.397 282.554 179.089C282.554 179.782 282.9 180.648 283.247 181.167C283.766 181.86 284.286 182.379 284.978 182.552C286.017 183.245 287.402 183.764 288.788 183.764ZM291.212 179.089C290.519 179.435 289.827 179.609 289.134 179.609C288.441 179.609 287.749 179.435 287.056 179.089C287.749 178.743 288.441 178.57 289.134 178.57C289.827 178.57 290.519 178.743 291.212 179.089Z" fill="#0A0803"/>
<path d="M305.757 271.903H308.874V307.748H305.757V271.903Z" fill="#0A0803"/>
<path d="M297.973 276.407H301.09V312.251H297.973V276.407Z" fill="#0A0803"/>
<path d="M290.176 280.911H293.292V316.755H290.176V280.911Z" fill="#0A0803"/>
<path d="M282.394 285.416H285.511V321.261H282.394V285.416Z" fill="#0A0803"/>
<path d="M327.575 422.9L349.047 396.233C351.298 394.502 353.203 392.424 354.588 389.826C355.973 387.229 356.666 384.458 356.666 381.515L368.614 352.077C368.614 346.363 353.203 338.744 348.874 341.168L316.666 359.696C314.415 361.428 312.51 363.506 311.125 366.103C309.74 368.701 309.047 371.471 309.047 374.415V408.874C309.047 414.761 323.246 425.324 327.575 422.9Z" fill="#FCFCFC"/>
<path d="M326.018 425.323C326.884 425.323 327.75 425.15 328.616 424.63L329.135 424.111L350.261 397.79C352.685 395.886 354.763 393.634 356.148 390.864C357.533 388.093 358.399 385.15 358.572 382.033L370.521 352.249C370.521 347.747 364.633 343.937 362.209 342.552C357.707 339.955 351.3 337.704 347.837 339.608L315.629 358.137C313.031 360.041 310.78 362.465 309.222 365.409C307.663 368.353 306.971 371.47 306.797 374.76V409.219C306.797 414.241 314.07 420.301 318.745 422.899C320.997 424.284 323.421 424.976 326.018 425.323ZM326.191 421.167C324.287 420.994 322.382 420.474 320.823 419.262C315.282 416.145 311.126 411.297 311.126 409.046V374.587C311.126 371.989 311.819 369.565 313.031 367.314C314.243 365.063 315.802 363.158 317.88 361.6L350.088 342.898C353.724 342.725 357.36 343.764 360.304 345.842C362.901 347.054 365.153 349.132 366.538 351.73L354.59 381.513C354.59 384.111 353.897 386.535 352.685 388.786C351.473 391.037 349.914 392.942 347.837 394.5L347.317 395.02L326.191 421.167Z" fill="#0A0803"/>
<path d="M350.091 380.31L342.472 404.379L327.58 422.907C323.424 425.331 309.052 414.769 309.052 409.054V374.595C309.052 371.132 310.091 367.842 311.822 365.072L324.117 372.171L350.091 380.31Z" fill="#0A0803"/>
<path d="M326.015 425.325C326.881 425.325 327.747 425.152 328.613 424.633L329.132 424.113L344.37 405.066L352.682 378.918L324.976 370.087L311.124 362.122L310.085 363.853C308.18 367.143 306.968 370.78 306.968 374.416V408.875C306.968 413.897 314.24 419.957 318.916 422.555C320.994 424.286 323.418 424.979 326.015 425.325ZM326.189 421.17C324.284 420.996 322.379 420.477 320.821 419.265C315.279 416.148 311.124 411.299 311.124 409.048V374.589C311.124 372.338 311.643 369.914 312.682 367.836L323.591 374.07L347.314 381.689L340.388 403.507L326.189 421.17Z" fill="#0A0803"/>
<path d="M328.964 422.207L361.171 403.679C363.423 401.947 365.5 399.869 366.713 397.272C368.098 394.675 368.791 391.904 368.791 388.96V354.501C368.791 348.787 365.327 346.19 361.171 348.614L328.964 367.142C326.712 368.874 324.808 370.952 323.422 373.549C322.037 376.146 321.344 378.917 321.344 381.861V416.32C321.171 422.034 324.461 424.631 328.964 422.207Z" fill="#E6E6E6"/>
<path d="M325.854 425.148C327.239 425.148 328.625 424.629 329.837 423.936L362.045 405.408C364.642 403.503 366.893 401.079 368.452 398.135C370.01 395.192 370.703 392.075 370.876 388.785V354.326C371.049 352.767 370.703 351.209 370.01 349.823C369.317 348.438 368.452 347.226 367.066 346.36C366.027 345.841 364.815 345.494 363.43 345.668C362.218 345.668 361.006 346.187 359.967 346.88L327.759 365.408C325.161 367.313 322.91 369.737 321.352 372.681C319.793 375.624 319.101 378.741 319.101 382.031V416.49C318.928 418.049 319.274 419.607 319.967 420.992C320.659 422.378 321.698 423.59 322.91 424.456C323.603 424.975 324.815 425.148 325.854 425.148ZM327.932 420.473C327.412 420.819 327.066 420.992 326.547 420.992C326.027 420.992 325.508 420.992 324.988 420.819C323.949 420.3 323.43 418.568 323.43 416.317V381.858C323.43 379.261 324.122 376.837 325.335 374.585C326.547 372.334 328.105 370.43 330.183 368.871L362.218 350.343C362.737 349.997 363.084 349.823 363.603 349.823C364.123 349.823 364.642 349.823 365.162 349.997C366.2 350.516 366.72 352.248 366.72 354.499V388.958C366.72 391.555 366.027 393.979 364.815 396.231C363.603 398.482 362.045 400.386 359.967 401.945L327.932 420.473Z" fill="#0A0803"/>
<path d="M333.123 401.251C333.123 404.715 335.72 406.1 338.664 404.368C340.222 403.329 341.607 401.944 342.473 400.212C343.339 398.481 343.859 396.576 344.032 394.671C344.032 391.208 341.434 389.823 338.491 391.554C336.932 392.593 335.547 394.152 334.681 395.71C333.815 397.442 333.296 399.347 333.123 401.251Z" fill="#E6E6E6"/>
<path d="M336.238 407.322C337.45 407.322 338.662 406.976 339.875 406.283C341.779 405.071 343.338 403.34 344.377 401.262C345.416 399.184 346.108 397.106 346.108 394.682C346.108 393.643 345.935 392.604 345.416 391.738C344.896 390.872 344.204 390.006 343.338 389.487C342.472 388.967 341.433 388.794 340.221 388.967C339.182 389.14 338.143 389.487 337.277 390.006C335.372 391.218 333.814 392.95 332.775 395.028C331.736 396.933 331.043 399.184 331.043 401.435C331.043 402.474 331.216 403.513 331.736 404.552C332.255 405.418 332.948 406.283 333.814 406.803C334.68 407.149 335.546 407.322 336.238 407.322ZM341.087 392.95H341.433C341.779 392.95 341.953 393.643 341.953 394.682C341.953 396.24 341.433 397.798 340.74 399.184C340.048 400.569 338.836 401.781 337.623 402.647C336.758 403.166 336.065 403.166 335.719 402.993C335.372 402.82 335.199 402.301 335.026 401.262C335.026 399.703 335.546 398.145 336.238 396.76C336.931 395.374 338.143 394.162 339.355 393.296C340.048 393.123 340.567 392.95 341.087 392.95Z" fill="#0A0803"/>
<path d="M112.346 201.255L141.784 218.225L139.706 221.861L110.268 204.892L112.346 201.255Z" fill="#0A0803"/>
<path d="M107.493 188.097L124.462 197.794L122.384 201.431L105.415 191.734L107.493 188.097Z" fill="#0A0803"/>
<path d="M279.962 205.236V215.28C279.962 216.838 279.442 218.396 278.577 219.609C277.711 220.821 276.499 221.86 275.113 222.552C271.477 224.457 267.321 225.496 263.338 225.496C259.183 225.496 255.027 224.63 251.39 222.725C250.005 222.206 248.793 221.167 247.927 219.955C247.061 218.743 246.542 217.184 246.542 215.626V205.929L268.706 202.292L279.442 205.236C279.442 205.236 279.962 205.063 279.962 205.236Z" fill="#E6E6E6"/>
<path d="M262.994 227.576C267.496 227.576 272.172 226.537 276.154 224.286C277.886 223.42 279.444 222.208 280.31 220.477C281.176 218.745 281.869 217.013 281.869 214.936V203.507L280.137 202.987L268.882 200.044H268.362L244.639 204.026L244.466 205.931V215.628C244.466 217.533 245.159 219.438 246.198 220.996C247.237 222.555 248.795 223.767 250.527 224.633C254.336 226.537 258.665 227.576 262.994 227.576ZM277.886 206.624V215.282C277.886 216.494 277.366 217.706 276.674 218.572C275.981 219.611 274.942 220.303 273.903 220.823C270.613 222.555 266.977 223.42 263.167 223.42C259.531 223.42 255.721 222.555 252.431 220.996C249.834 219.611 248.449 217.706 248.449 215.801V207.663L268.535 204.373L277.886 206.624Z" fill="#0A0803"/>
<path d="M246.886 205.759L260.912 203.508V225.673C257.622 225.5 254.505 224.634 251.561 223.075C250.176 222.556 248.964 221.517 248.098 220.305C247.232 219.093 246.713 217.534 246.713 215.976V206.279C246.713 206.106 246.713 205.759 246.886 205.759Z" fill="#0A0803"/>
<path d="M275.114 198.311C271.478 196.406 267.322 195.54 263.166 195.54C259.01 195.54 255.027 196.579 251.391 198.484C244.984 202.467 244.984 208.354 251.391 212.164C255.027 214.068 259.183 214.934 263.339 214.934C267.495 214.934 271.478 213.895 275.114 211.991C281.694 208.181 281.521 202.12 275.114 198.311Z" fill="#FCFCFC"/>
<path d="M263.163 217.017C267.665 217.017 272.341 215.978 276.323 213.727C278.055 212.861 279.44 211.649 280.479 210.264C281.518 208.705 282.038 206.974 282.211 205.069C282.038 203.164 281.345 201.433 280.306 200.047C279.267 198.489 277.882 197.45 276.15 196.584C272.168 194.506 267.839 193.467 263.336 193.64C258.834 193.64 254.505 194.853 250.523 196.931C248.791 197.796 247.406 199.008 246.367 200.394C245.328 201.952 244.808 203.684 244.635 205.415C244.808 207.32 245.501 209.052 246.54 210.437C247.579 211.995 248.964 213.034 250.696 213.9C254.505 216.151 258.834 217.19 263.163 217.017ZM263.51 197.796C267.146 197.623 270.782 198.489 274.072 200.221C275.111 200.567 275.977 201.26 276.67 202.125C277.362 202.991 277.882 204.03 278.055 205.069C277.882 206.108 277.536 207.32 276.67 208.186C275.977 209.052 275.111 209.744 274.072 210.264C270.782 211.995 267.146 212.861 263.336 212.861C259.7 212.861 255.891 211.995 252.601 210.437C250.176 209.052 248.618 207.147 248.618 205.415C248.618 203.684 250.003 201.779 252.601 200.394C255.891 198.662 259.7 197.796 263.51 197.796Z" fill="#0A0803"/>
<path d="M271.297 184.979V200.39C271.297 201.083 271.124 201.775 270.604 202.468C270.258 203.16 269.738 203.507 269.046 203.853C267.314 204.719 265.409 205.238 263.505 205.238C261.6 205.238 259.695 204.719 257.963 203.853C257.271 203.507 256.751 203.16 256.232 202.468C255.886 201.948 255.539 201.083 255.539 200.39V185.325L266.102 183.593L271.124 184.979H271.297Z" fill="#E6E6E6"/>
<path d="M263.162 207.14C265.586 207.14 267.837 206.621 269.915 205.409C270.954 204.889 271.82 204.197 272.339 203.158C272.859 202.119 273.205 201.08 273.205 200.041V183.244L271.647 182.725L266.106 181.166L253.465 183.244V200.214C253.465 201.253 253.811 202.465 254.331 203.331C254.85 204.197 255.716 204.889 256.755 205.409C258.833 206.794 261.084 207.314 263.162 207.14ZM269.222 186.534V200.387C269.222 201.08 268.703 201.599 268.01 202.119C266.625 202.811 265.067 203.158 263.508 203.158C261.95 203.158 260.391 202.811 259.006 202.119C258.14 201.599 257.621 201.08 257.621 200.56V187.054L266.106 185.668L269.222 186.534Z" fill="#0A0803"/>
<path d="M255.541 185.325L262.122 184.286V205.239C260.563 205.239 259.005 204.719 257.619 204.027C256.927 203.68 256.407 203.334 255.888 202.641C255.541 202.122 255.195 201.256 255.195 200.563L255.541 185.325Z" fill="#0A0803"/>
<path d="M269.047 181.861C267.315 180.995 265.411 180.476 263.506 180.476C261.601 180.476 259.696 180.995 257.965 181.861C257.272 182.034 256.753 182.554 256.233 183.073C255.714 183.592 255.54 184.285 255.54 184.978C255.54 185.67 255.714 186.363 256.233 186.883C256.579 187.402 257.272 187.921 257.965 188.095C259.696 188.96 261.601 189.48 263.506 189.48C265.411 189.48 267.315 188.96 269.047 188.095C269.74 187.921 270.259 187.402 270.779 186.883C271.125 186.363 271.471 185.67 271.471 184.978C271.471 184.285 271.298 183.592 270.779 183.073C270.259 182.38 269.74 182.034 269.047 181.861Z" fill="#FCFCFC"/>
<path d="M263.335 191.736C265.759 191.736 268.01 191.217 270.088 190.005C270.954 189.485 271.82 188.792 272.339 187.927C272.859 187.061 273.205 186.022 273.205 184.983C273.205 183.944 272.686 182.905 272.166 182.039C271.647 181.173 270.781 180.481 269.742 179.961C267.664 178.922 265.413 178.403 263.162 178.403C260.911 178.403 258.66 178.922 256.582 179.961C255.716 180.481 254.85 181.173 254.331 182.039C253.811 182.905 253.465 183.944 253.465 184.983C253.465 186.022 253.811 187.061 254.504 187.927C255.023 188.792 255.889 189.485 256.928 190.005C258.833 191.044 261.084 191.736 263.335 191.736ZM267.837 183.771C268.703 184.29 269.222 184.81 269.222 185.156C269.222 185.502 268.876 186.022 268.01 186.541C266.625 187.234 265.067 187.58 263.508 187.58C261.95 187.58 260.391 187.234 259.006 186.541C258.14 186.022 257.621 185.502 257.621 185.156C257.621 184.81 257.967 184.29 258.833 183.771C260.218 183.078 261.776 182.732 263.335 182.732C264.893 182.732 266.452 183.078 267.837 183.771Z" fill="#0A0803"/>
<path d="M107.664 280.222L124.634 289.919L122.556 293.555L105.587 283.858L107.664 280.222Z" fill="#0A0803"/>
</g>
</g>
<defs>
<clipPath id="clip0_33897_71316">
<rect width="633" height="424" fill="white"/>
</clipPath>
</defs>
</svg>
