<svg width="633" height="424" viewBox="0 0 633 424" fill="none" xmlns="http://www.w3.org/2000/svg">
<g clip-path="url(#clip0_33897_74079)">
<g opacity="0.08">
<path d="M387.895 141.47H380.135V80.1704C380.135 74.894 381.377 69.7727 384.015 65.2722C386.498 60.7718 390.222 56.892 394.723 54.0986L408.535 45.5632L412.57 52.0812L398.603 60.6166C395.344 62.634 392.55 65.5826 390.688 68.8416C388.826 72.2557 387.739 76.1355 387.739 80.0152L387.895 141.47Z" fill="#0A0803"/>
<path d="M485.98 250.108L449.045 228.537L485.98 211.777V250.108Z" fill="#E6E6E6"/>
<path d="M506.781 198.275L485.365 210.69L446.257 228.536L485.986 251.66L506.781 239.71V198.275ZM451.844 228.692L484.744 213.794V248.09L451.844 228.692Z" fill="#0A0803"/>
<path d="M397.682 301.319L360.748 279.748L397.682 262.988V301.319Z" fill="#E6E6E6"/>
<path d="M418.472 249.489L397.056 261.904L357.949 279.751L397.677 302.874L418.472 290.924V249.489ZM363.536 279.906L396.436 265.008V299.149L363.536 279.906Z" fill="#0A0803"/>
<path d="M309.377 352.688L272.442 331.117L309.377 314.356V352.688Z" fill="#E6E6E6"/>
<path d="M330.019 300.854L308.603 313.269L269.496 331.116L309.224 354.239L330.019 342.289V300.854ZM275.238 331.271L308.138 316.373V350.514L275.238 331.271Z" fill="#0A0803"/>
<path d="M220.924 403.282L183.989 381.711L220.924 364.95V403.282Z" fill="#E6E6E6"/>
<path d="M220.453 364.014L181.345 381.86L221.074 404.984L241.869 393.034V351.754L220.453 364.014ZM219.832 401.259L186.932 382.016L219.832 367.118V401.259Z" fill="#0A0803"/>
<path d="M551.157 42.4642L404.193 127.197L427.937 30.9802L522.602 -8.43774L551.157 42.4642Z" fill="#0A0803"/>
<path d="M402.339 129.833L427.014 30.0464L523.386 -10.1475L552.872 42.772L402.339 129.833ZM429.187 32.0639L406.219 124.867L549.458 41.996L522.145 -6.88849L429.187 32.0639Z" fill="#0A0803"/>
<path d="M477.292 71.0145C476.051 70.3937 474.654 70.0833 473.257 70.2385C471.861 70.3937 470.464 70.8593 469.378 71.6353L30.5036 324.593C23.8304 328.473 18.2437 338.87 18.2437 347.871C18.2437 352.993 19.9507 356.562 22.7441 357.959L123.927 415.689L233.025 338.87L563.112 151.402L579.251 129.521L477.292 71.0145Z" fill="#E6E6E6"/>
<path d="M124.08 417.093L22.1213 359.052C18.8623 357.345 17 353.31 17 347.879C17 338.412 22.742 327.549 29.8807 323.359L468.755 70.556C470.151 69.6249 471.548 69.1593 473.255 69.0041C474.807 68.8489 476.514 69.1593 477.911 69.9353L581.112 128.907L563.73 152.341L233.799 339.809L124.08 417.093ZM474.186 71.4872C472.634 71.4872 471.238 71.9527 469.996 72.7287L31.1222 325.687C24.7595 329.411 19.483 339.343 19.483 347.879C19.483 352.224 20.8797 355.638 23.3628 356.724L123.925 413.989L232.402 337.636L562.178 150.168L577.232 129.528L476.514 71.9527C475.738 71.6423 474.962 71.4872 474.186 71.4872Z" fill="#0A0803"/>
<path d="M571.799 162.894L132.925 415.697C126.252 419.577 120.665 415.542 120.665 406.541C120.665 397.54 126.097 387.142 132.925 383.262L571.799 130.305C578.472 126.425 584.059 130.46 584.059 139.461C584.059 148.462 578.627 159.015 571.799 162.894Z" fill="#0A0803"/>
<path d="M128.114 418.486C126.718 418.486 125.476 418.175 124.39 417.554C121.286 415.847 119.579 411.812 119.579 406.536C119.579 397.069 125.321 386.206 132.46 382.016L571.334 129.213C572.731 128.282 574.282 127.662 575.834 127.662C577.386 127.506 579.093 127.817 580.49 128.593C583.594 130.455 585.301 134.335 585.301 139.611C585.301 148.922 579.559 159.941 572.42 164.131L133.546 416.778C131.994 417.865 129.977 418.33 128.114 418.486ZM576.765 130.145C575.214 130.145 573.817 130.61 572.575 131.386L133.546 384.189C127.183 387.913 121.907 397.845 121.907 406.381C121.907 410.571 123.148 413.83 125.476 415.071C126.563 415.537 127.804 415.692 128.89 415.692C130.132 415.537 131.218 415.227 132.149 414.451L571.024 161.648C577.386 157.923 582.663 147.991 582.663 139.456C582.663 135.266 581.421 132.007 579.093 130.765C578.473 130.3 577.541 130.145 576.765 130.145Z" fill="#0A0803"/>
<path d="M717.215 167.077L570.251 251.965V81.5675L717.215 -3.3208V167.077Z" fill="#0A0803"/>
<path d="M404.193 -13.5573L570.245 81.5735L717.209 -3.3148L551.312 -98.4456L404.193 -13.5573Z" fill="#FCFCFC"/>
<path d="M570.245 251.965L533.31 231.015V110.123L436.783 52.7027V90.5688L404.193 109.347V-13.563L570.245 81.5678V251.965Z" fill="#E6E6E6"/>
<path d="M718.451 -4.0933L717.21 -4.86924L551.313 -100L404.504 -15.1117L403.263 -14.3358V111.522L438.335 91.3479V55.0337L532.38 110.746V231.794L569.315 252.744L570.556 253.52L571.798 252.744L717.986 168.166L718.606 167.856L718.451 -4.0933ZM406.832 -13.5598L551.158 -96.8962L714.572 -3.31735L570.246 80.0191L529.431 56.5856L406.832 -13.5598ZM534.553 230.242V109.35L435.387 50.6884V90.1064L405.591 107.332V-11.3871L528.19 58.9134L569.004 82.3469V249.796L534.553 230.242ZM715.813 166.304L571.487 249.641V82.1917L625.648 50.9987L715.813 -1.14471V166.304Z" fill="#0A0803"/>
<path d="M594.301 174.996C593.214 174.996 592.283 174.686 591.352 174.22C590.11 173.289 589.024 172.048 588.248 170.496C587.627 168.944 587.317 167.392 587.472 165.685C587.472 158.546 591.817 150.166 597.249 147.218L600.042 145.511C601.129 144.735 602.37 144.424 603.612 144.269C604.853 144.114 606.095 144.424 607.336 145.045C608.578 145.976 609.664 147.218 610.44 148.77C611.061 150.321 611.371 151.873 611.216 153.58C611.216 160.719 606.871 169.099 601.439 172.203L598.646 173.755C597.249 174.531 595.852 174.841 594.301 174.996ZM604.233 146.752C603.146 146.752 602.215 147.062 601.284 147.683L598.491 149.235C593.835 151.873 589.955 159.322 589.955 165.53C589.8 166.771 589.955 167.858 590.421 168.944C590.886 170.03 591.662 170.962 592.593 171.737C593.369 172.048 594.145 172.203 594.921 172.203C595.697 172.048 596.473 171.893 597.249 171.272L600.042 169.72C604.698 167.082 608.578 159.633 608.578 153.425C608.733 152.184 608.578 151.097 608.112 150.011C607.647 148.925 606.871 147.994 605.94 147.218C605.474 146.907 605.008 146.752 604.233 146.752Z" fill="#E6E6E6"/>
<path d="M617.427 222.169V184.924C617.271 179.802 616.03 174.681 613.702 170.026C611.374 165.37 608.115 161.335 604.08 158.076C603.615 157.766 603.149 157.455 602.684 157.455C602.218 157.3 601.597 157.3 601.132 157.455C600.666 157.61 600.045 157.766 599.735 158.076C599.27 158.386 598.959 158.852 598.649 159.318C598.183 160.093 598.028 161.025 598.183 161.956C598.338 162.887 598.804 163.663 599.58 164.284C602.684 166.767 605.167 169.87 607.029 173.44C608.736 177.009 609.822 180.889 609.978 184.924V226.67L617.427 222.169Z" fill="#E6E6E6"/>
<path d="M675.464 172.505L626.114 144.105V74.5803L637.598 81.0982L675.464 149.847V172.505Z" fill="#E6E6E6"/>
<path d="M676.71 174.837L624.722 145.041V72.5674L638.378 80.482L676.71 149.851V174.837ZM627.36 143.334L674.072 170.336V150.317L636.516 82.1891L627.36 76.9127V143.334Z" fill="#0A0803"/>
<path d="M626.114 74.5895L682.137 42.155L693.621 48.6729L637.598 81.1074L626.114 74.5895Z" fill="#E6E6E6"/>
<path d="M627.362 75.3654V73.8135L682.143 42.155L693.627 48.6729L637.604 81.1074L627.362 75.3654Z" fill="#FCFCFC"/>
<path d="M637.445 82.6538L623.478 74.584L682.139 40.5977L696.106 48.6674L637.445 82.6538ZM628.599 74.584L637.445 79.7052L690.985 48.8226L682.139 43.7014L628.599 74.584Z" fill="#0A0803"/>
<path d="M584.37 142.714C583.594 142.714 582.973 142.404 582.352 141.938C581.731 141.162 581.266 140.231 581.111 139.145C580.955 138.059 581.266 137.127 581.731 136.196L594.612 104.538C594.922 103.451 595.698 102.365 596.63 101.434C597.561 100.658 598.647 100.037 599.733 99.7269C600.199 99.5717 600.82 99.7269 601.285 99.8821C601.751 100.037 602.216 100.503 602.527 100.813L615.097 117.884C615.407 118.505 615.718 119.126 615.718 119.746C615.873 120.367 615.718 121.143 615.563 121.764C615.407 122.85 614.942 123.936 614.166 125.023C613.545 125.954 612.614 126.73 611.683 127.506L586.232 142.093C585.922 142.404 585.146 142.714 584.37 142.714ZM600.354 102.365C599.578 102.675 598.957 102.986 598.492 103.607C598.026 104.227 597.561 104.848 597.25 105.469L584.37 137.127C583.749 138.679 583.904 139.766 584.37 140.076C584.835 140.386 585.146 140.076 585.456 139.921L610.907 125.333C612.304 124.402 613.235 123.005 613.545 121.453C613.7 120.833 613.7 120.212 613.39 119.746L600.82 102.831V102.676C600.82 102.676 600.82 102.675 600.664 102.52C600.664 102.21 600.509 102.21 600.354 102.365C600.509 102.21 600.354 102.365 600.354 102.365Z" fill="#E6E6E6"/>
<path d="M133.391 408.24C132.615 408.24 131.684 408.085 131.063 407.619C130.132 406.998 129.512 406.223 129.046 405.291C128.58 404.36 128.425 403.274 128.425 402.188C128.58 399.549 129.201 397.066 130.598 394.894C131.839 392.721 133.702 390.704 135.874 389.307L517.484 168.163C518.415 167.542 519.346 167.232 520.432 167.077C521.519 166.921 522.605 167.232 523.536 167.697C524.467 168.318 525.088 169.094 525.553 170.025C526.019 170.956 526.174 172.043 526.174 173.129C526.019 175.767 525.398 178.25 524.002 180.423C522.76 182.595 520.898 184.613 518.725 186.01L136.961 407.154C135.874 407.774 134.633 408.085 133.391 408.24ZM518.725 170.335L136.961 391.48C135.254 392.721 133.702 394.273 132.615 395.98C131.529 397.842 130.908 399.86 130.753 402.032C130.753 402.653 130.753 403.274 131.063 403.895C131.219 404.515 131.684 404.981 132.15 405.291C132.771 405.447 133.391 405.602 134.012 405.447C134.633 405.291 135.254 405.136 135.719 404.826L517.328 183.526C519.036 182.285 520.587 180.733 521.674 179.026C522.76 177.164 523.381 175.146 523.536 172.974C523.691 172.353 523.536 171.732 523.381 171.111C523.226 170.491 522.76 170.025 522.295 169.715C521.674 169.559 521.053 169.404 520.432 169.559C519.812 169.715 519.191 169.87 518.725 170.335Z" fill="#E6E6E6"/>
<path d="M133.391 408.246C132.615 408.246 131.684 408.091 131.063 407.625C130.132 407.004 129.512 406.228 129.046 405.297C128.58 404.366 128.425 403.28 128.425 402.193C128.58 399.555 129.201 397.072 130.598 394.9C131.839 392.727 133.702 390.709 135.874 389.313C136.805 388.692 137.737 388.382 138.823 388.226C139.909 388.071 140.996 388.382 141.927 388.847C142.858 389.468 143.479 390.244 143.944 391.175C144.41 392.106 144.565 393.192 144.41 394.279C144.255 396.917 143.634 399.4 142.237 401.573C140.996 403.745 139.133 405.763 136.961 407.159C135.874 407.78 134.633 408.091 133.391 408.246ZM139.444 390.865C138.668 390.865 137.737 391.175 137.116 391.641C135.409 392.882 133.857 394.434 132.771 396.141C131.684 398.003 131.063 400.021 130.908 402.193C130.908 402.814 130.908 403.435 131.219 404.056C131.374 404.676 131.839 405.142 132.305 405.452C132.926 405.608 133.546 405.763 134.167 405.608C134.788 405.452 135.409 405.297 135.874 404.987C137.581 403.745 139.133 402.193 140.22 400.486C141.306 398.624 141.927 396.607 142.082 394.434C142.082 393.813 142.082 393.192 141.771 392.572C141.616 391.951 141.151 391.485 140.685 391.175C140.22 390.865 139.754 390.865 139.444 390.865Z" fill="#E6E6E6"/>
<path d="M515.003 186.949C514.227 186.949 513.296 186.793 512.675 186.328C511.744 185.707 511.123 184.931 510.657 184C510.192 183.069 510.037 181.983 510.037 180.896C510.192 178.258 510.813 175.775 512.209 173.602C513.451 171.43 515.313 169.412 517.486 168.016C518.417 167.395 519.348 167.084 520.434 166.929C521.521 166.774 522.607 167.084 523.538 167.55C524.469 168.171 525.09 168.947 525.556 169.878C526.021 170.809 526.176 171.895 526.176 172.982C526.021 175.62 525.4 178.103 524.004 180.276C522.762 182.448 520.9 184.466 518.727 185.862C517.641 186.638 516.244 186.949 515.003 186.949ZM521.055 169.567C520.279 169.567 519.348 169.878 518.727 170.343C517.02 171.585 515.468 173.137 514.382 174.844C513.296 176.706 512.675 178.724 512.52 180.896C512.52 181.517 512.52 182.138 512.83 182.759C512.985 183.379 513.451 183.845 513.916 184.155C514.537 184.31 515.158 184.466 515.779 184.31C516.399 184.155 517.02 184 517.486 183.69C519.193 182.448 520.745 180.896 521.831 179.189C522.917 177.327 523.538 175.309 523.693 173.137C523.849 172.516 523.693 171.895 523.538 171.275C523.383 170.654 522.917 170.188 522.452 169.878C521.831 169.723 521.365 169.567 521.055 169.567Z" fill="#E6E6E6"/>
<path d="M18.7068 346.788L17.4653 348.961L120.045 407.467L121.287 405.294L18.7068 346.788Z" fill="#0A0803"/>
<path d="M25.224 328.944L23.9824 331.117L125.942 390.399L127.183 388.226L25.224 328.944Z" fill="#0A0803"/>
<path d="M429.02 94.6057L427.778 96.7783L529.737 155.595L530.979 153.422L429.02 94.6057Z" fill="#0A0803"/>
<path d="M533.314 123.316L457.271 78.9319L458.513 76.7593L533.314 120.367V123.316Z" fill="#0A0803"/>
<path d="M359.656 134.179L358.414 136.352L459.597 195.634L460.839 193.462L359.656 134.179Z" fill="#0A0803"/>
<path d="M64.0208 304.265L62.7793 306.438L163.962 365.72L165.204 363.548L64.0208 304.265Z" fill="#0A0803"/>
<path d="M451.682 -24.7323L563.418 39.8263L645.357 -7.50636L533.621 -72.0649L451.682 -24.7323Z" fill="#FCFCFC"/>
<path d="M563.424 39.6698V55.1887L645.364 7.85604V-7.66284L563.424 39.6698Z" fill="#0A0803"/>
<path d="M451.682 -24.7356V-9.21671L563.418 55.3419V39.823L451.682 -24.7356Z" fill="#E6E6E6"/>
<path d="M646.759 -8.44006L533.781 -73.6194L450.445 -25.5108V-8.44006L563.422 56.7393L646.759 8.63071V-8.44006ZM454.325 -24.7349L533.781 -70.5156L642.879 -7.50892L563.422 38.2718L536.109 22.5977L454.325 -24.7349ZM453.083 -9.99195V-22.4071L534.868 24.7703L562.181 40.4444V53.0147L453.083 -9.99195ZM644.12 7.07882L564.664 53.0147V40.4444L644.12 -5.33629V7.07882Z" fill="#0A0803"/>
<path d="M123.309 295.111L176.073 325.528L214.87 303.181L162.106 272.764L123.309 295.111Z" fill="#FCFCFC"/>
<path d="M176.069 325.528V332.821L214.866 310.474V303.18L176.069 325.528Z" fill="#0A0803"/>
<path d="M123.309 295.109V302.403L176.073 332.82V325.526L123.309 295.109Z" fill="#E6E6E6"/>
<path d="M215.484 302.871L162.099 271.989L122.681 294.801V302.871L176.066 333.754L215.484 311.096V302.871ZM124.543 295.112L162.099 273.385L213.621 303.182L176.066 324.908L163.185 317.459L124.543 295.112ZM123.922 302.095V296.198L162.564 318.545L175.445 325.994V331.891L123.922 302.095ZM214.242 310.165L176.686 331.736V325.839L214.242 304.113V310.165Z" fill="#0A0803"/>
<path d="M219.212 236.916L271.976 267.333L310.773 244.985L258.009 214.568L219.212 236.916Z" fill="#FCFCFC"/>
<path d="M271.977 267.331V274.625L310.774 252.278V244.984L271.977 267.331Z" fill="#0A0803"/>
<path d="M219.212 236.917V244.211L271.976 274.628V267.334L219.212 236.917Z" fill="#E6E6E6"/>
<path d="M311.391 244.675L258.006 213.638L218.588 236.295V244.365L271.973 275.248L311.391 252.59V244.675ZM220.45 236.916L258.006 215.19L309.529 244.986L272.128 266.557L259.247 259.108L220.45 236.916ZM219.829 243.9V238.002L258.471 260.35L271.352 267.799V273.696L219.829 243.9ZM310.149 251.969L272.594 273.696V267.799L310.149 246.072V251.969Z" fill="#0A0803"/>
<path d="M306.576 184.154L359.34 214.571L398.137 192.224L345.373 161.652L306.576 184.154Z" fill="#FCFCFC"/>
<path d="M359.503 214.567V221.861L398.3 199.513V192.219L359.503 214.567Z" fill="#0A0803"/>
<path d="M306.576 184.152V191.446L359.34 221.863V214.569L306.576 184.152Z" fill="#E6E6E6"/>
<path d="M398.762 191.907L345.377 161.024L305.959 183.682V191.752L359.344 222.634L398.762 199.977V191.907ZM307.822 184.148L345.377 162.421L396.9 192.217L359.344 213.944L346.464 206.495L307.822 184.148ZM307.201 191.131V185.234L345.843 207.581L358.724 215.03V220.927L307.201 191.131ZM397.521 199.201L359.965 220.927V215.03L397.521 193.304V199.201Z" fill="#0A0803"/>
<path d="M396.901 132.32L449.666 162.737L488.463 140.39L435.699 109.973L396.901 132.32Z" fill="#FCFCFC"/>
<path d="M449.82 162.737V170.031L488.618 147.684V140.39L449.82 162.737Z" fill="#0A0803"/>
<path d="M396.901 132.314V139.608L449.666 170.025V162.731L396.901 132.314Z" fill="#E6E6E6"/>
<path d="M489.083 140.076L435.698 109.194L396.28 132.162V140.231L449.665 170.804L489.083 148.146V140.076ZM398.143 132.317L435.698 110.59L487.221 140.387L449.82 162.113L436.94 154.664L398.143 132.317ZM397.522 139.3V133.403L436.164 155.75L449.044 163.199V169.097L397.522 139.3ZM487.842 147.37L450.286 169.097V163.199L487.842 141.473V147.37Z" fill="#0A0803"/>
<path d="M657.933 199.825L650.173 204.326V213.016C650.173 217.517 648.932 222.017 646.604 226.052C644.276 229.932 641.017 233.191 636.982 235.519L631.085 238.933C629.533 239.864 627.826 240.174 626.119 240.174C624.412 240.019 622.705 239.554 621.308 238.467C620.067 237.536 618.98 236.295 618.36 234.898C617.739 233.501 617.273 231.949 617.428 230.397V223.259L609.669 227.759V230.397C609.669 233.501 610.445 236.605 611.842 239.243C613.394 241.881 615.566 244.209 618.204 245.761C620.687 247.158 623.636 247.934 626.585 247.934C629.533 247.934 632.482 247.158 635.12 245.606L641.017 242.192C646.138 239.243 650.484 235.053 653.432 229.932C656.381 224.811 657.933 219.069 657.933 213.016V199.825Z" fill="#0A0803"/>
<path d="M259.719 204.014V202.773L262.667 202.152V203.394L259.719 204.014Z" fill="#E6E6E6"/>
<path d="M520.276 70.5557L519.034 72.5731L543.088 86.3849L544.33 84.3675L520.276 70.5557Z" fill="#0A0803"/>
<path d="M425.147 15.9265L423.905 17.944L513.294 69.3115L514.536 67.294L425.147 15.9265Z" fill="#0A0803"/>
<path d="M68.8408 237.534C68.8408 237.379 68.8408 237.224 68.8408 237.224V230.706L77.3762 231.017L109.035 213.325C110.431 212.549 111.983 212.083 113.535 212.083C115.087 212.083 116.639 212.394 118.036 213.015L153.884 234.12L163.816 234.431V241.88C163.506 242.811 162.73 243.742 161.799 244.208L123.933 265.468C122.536 266.244 120.984 266.71 119.432 266.71C117.881 266.71 116.329 266.4 114.932 265.779L70.8583 239.707C70.3927 239.552 70.0823 239.242 69.772 238.776C69.1512 238.466 68.996 238 68.8408 237.534Z" fill="#E6E6E6"/>
<path d="M118.343 267.327C116.791 267.327 115.394 267.017 114.153 266.396L70.0791 240.325C69.6135 240.014 69.1479 239.704 68.8375 239.238C68.5272 238.773 68.372 238.152 68.2168 237.686C68.2168 237.531 68.2168 237.376 68.2168 237.376V230.237L77.2178 230.548L108.721 212.856C110.118 212.08 111.825 211.615 113.532 211.459C115.239 211.459 116.946 211.77 118.343 212.391L154.036 233.496L164.279 233.962V241.721L163.968 242.652C163.503 243.584 162.727 244.515 161.796 244.98L123.93 266.241C122.067 267.017 120.205 267.483 118.343 267.327ZM69.4583 231.324V237.531C69.4583 237.842 69.6135 238.152 69.9239 238.462C70.0791 238.773 70.3895 238.928 70.6998 239.083L114.773 265.155C116.17 265.776 117.567 266.086 118.964 265.931C120.36 265.931 121.912 265.465 123.154 264.689L161.02 243.428C161.796 242.963 162.416 242.342 162.882 241.566V241.256V234.893L153.26 234.427L117.412 213.322C116.015 212.701 114.618 212.391 113.222 212.546C111.825 212.546 110.273 213.011 109.031 213.632L77.2178 231.479L69.4583 231.324Z" fill="#0A0803"/>
<path d="M70.3871 232.877L114.461 258.948C115.857 259.569 117.409 259.879 118.961 259.879C120.513 259.879 122.065 259.414 123.462 258.638L161.328 237.377C163.966 235.825 164.276 233.497 161.948 232.256L117.875 206.184C116.478 205.563 114.926 205.253 113.374 205.253C111.822 205.253 110.271 205.719 108.874 206.494L71.0078 227.6C68.3696 229.152 68.0592 231.48 70.3871 232.877Z" fill="#FCFCFC"/>
<path d="M118.343 260.497C116.791 260.497 115.394 260.187 114.153 259.566L70.079 233.494C69.6134 233.184 69.1479 232.873 68.6823 232.408C68.3719 231.942 68.2167 231.322 68.0615 230.701C68.2167 229.925 68.3719 229.149 68.8375 228.528C69.303 227.907 69.9238 227.442 70.5446 227.131L108.411 205.871C109.807 205.095 111.514 204.629 113.221 204.474C114.929 204.474 116.636 204.784 118.032 205.405L162.106 231.477C162.572 231.787 163.037 232.098 163.503 232.563C163.813 233.029 163.968 233.649 163.968 234.27C163.968 235.046 163.658 235.822 163.192 236.443C162.727 237.064 162.106 237.529 161.485 237.839L123.619 259.1C122.222 260.032 120.36 260.497 118.343 260.497ZM113.997 205.715C112.29 205.715 110.738 206.026 109.187 206.957L71.3205 228.218C70.079 228.839 69.4583 229.77 69.4583 230.546C69.4583 230.856 69.6134 231.322 69.9238 231.632C70.079 231.942 70.3894 232.253 70.6998 232.408L114.773 258.48C116.17 259.1 117.567 259.411 118.964 259.256C120.36 259.256 121.757 258.79 123.154 258.014L161.02 236.753C161.485 236.598 161.951 236.288 162.261 235.822C162.572 235.356 162.882 234.891 162.882 234.425C162.882 234.115 162.727 233.649 162.572 233.339C162.416 233.029 162.106 232.873 161.64 232.718L117.567 206.491C116.48 205.871 115.239 205.56 113.997 205.715Z" fill="#0A0803"/>
<path d="M116.169 147.836C117.1 147.371 118.187 147.216 119.273 147.371C120.359 147.526 121.291 147.836 122.222 148.457L146.586 162.734C151.707 165.683 155.898 173.753 155.898 180.581V234.121L119.118 255.382C119.118 255.382 89.0112 191.91 88.7008 190.668C88.3905 189.427 79.0791 169.252 79.0791 169.252L116.169 147.836Z" fill="#E6E6E6"/>
<path d="M116.177 147.372C117.108 146.906 118.194 146.751 119.28 146.906C120.367 147.061 121.298 147.372 122.229 147.992L146.594 162.27C151.715 165.218 155.905 173.288 155.905 180.117V226.673L117.573 248.71C117.573 248.71 89.1738 191.445 88.8634 190.204C88.5531 188.962 79.2417 168.788 79.2417 168.788L116.177 147.372Z" fill="#FCFCFC"/>
<path d="M119.122 256.155L118.656 255.845V255.69C113.535 245.137 88.5497 192.062 88.2394 190.821C87.929 189.579 82.3422 177.63 78.6177 169.56L78.928 168.784L116.018 147.213C117.105 146.747 118.191 146.592 119.432 146.592C120.519 146.747 121.76 147.057 122.691 147.833L147.056 162.111C152.332 165.214 156.678 173.439 156.678 180.578V234.584L156.367 234.739L119.122 256.155ZM79.8592 169.56C81.5662 173.129 89.0153 189.269 89.3257 190.51C89.4809 191.752 109.035 232.722 119.277 254.448L155.126 233.653V180.578C155.126 173.905 151.091 166.146 146.125 163.197L121.76 148.92C120.984 148.454 120.053 147.988 119.122 147.988C118.191 147.833 117.26 147.989 116.329 148.454L79.8592 169.56Z" fill="#0A0803"/>
<path d="M75.9814 230.239L118.969 255.379V201.839C118.969 195.011 114.779 186.941 109.657 183.992L85.2928 169.715C80.1715 166.766 75.9814 169.87 75.9814 176.698V230.239Z" fill="#E6E6E6"/>
<path d="M119.583 255.847L118.962 256.158L75.1987 230.707V176.701C75.0435 175.149 75.3539 173.597 75.9747 172.201C76.5954 170.804 77.5266 169.563 78.7681 168.631C79.8544 168.166 80.9407 167.855 82.1822 168.011C83.4237 168.166 84.5101 168.476 85.4412 169.252L109.806 183.529C115.082 186.633 119.428 194.858 119.428 201.997L119.583 255.847ZM76.5954 230.086L118.341 254.451V201.997C118.341 195.324 114.306 187.564 109.34 184.616L84.9757 170.338C84.1997 169.718 83.2686 169.407 82.3374 169.407C81.4063 169.252 80.4752 169.407 79.544 169.873C78.4577 170.649 77.6818 171.735 77.2162 172.977C76.7506 174.218 76.4402 175.615 76.5954 176.856V230.086Z" fill="#0A0803"/>
<path d="M118.342 259.882V267.021L123.153 265.624L162.726 243.277L163.657 241.88V235.207L159.932 238.466L121.446 259.882H118.342Z" fill="#0A0803"/>
<path d="M118.183 196.095L124.235 192.681L124.701 194.854V233.961L130.287 237.686L150.152 226.202L155.583 229.616V234.117L119.579 255.067L118.959 252.584L118.803 199.199L118.183 196.095Z" fill="#0A0803"/>
<path d="M151.863 179.959L155.588 177.942L155.898 182.753V195.323L150.932 192.374L151.243 180.425L151.863 179.959Z" fill="#0A0803"/>
<path d="M252.271 222.48V217.98H249.943L241.097 213.014C240.632 212.859 240.321 212.704 239.856 212.704C239.39 212.704 238.925 212.859 238.614 213.014L230.234 217.98H227.286V222.791C227.441 223.101 227.596 223.256 227.906 223.412L238.459 229.309C238.925 229.464 239.235 229.619 239.701 229.619C240.166 229.619 240.632 229.464 240.942 229.309L251.65 222.946C251.805 222.946 251.805 222.791 251.961 222.636C252.116 222.636 252.116 222.48 252.271 222.48Z" fill="#E6E6E6"/>
<path d="M240.007 230.396C239.387 230.396 238.766 230.241 238.3 229.93L227.748 224.033C227.437 223.878 227.282 223.567 227.127 223.412L226.972 223.102V217.981L230.231 217.205L238.456 212.394C238.921 212.083 239.542 211.928 240.007 211.928C240.473 211.928 241.094 212.083 241.559 212.394L250.25 217.205L253.199 217.67V222.326C253.199 222.636 253.199 222.791 253.043 222.947C252.888 223.102 252.733 223.257 252.578 223.412L241.87 229.775C241.094 230.241 240.473 230.396 240.007 230.396ZM228.058 222.636C228.058 222.791 228.213 222.791 228.368 222.947L238.921 228.844C239.232 228.999 239.542 228.999 239.852 228.999C240.163 228.999 240.473 228.999 240.783 228.844L251.647 222.481V218.601H249.784H249.629L240.783 213.635C240.473 213.48 240.163 213.48 239.852 213.48C239.542 213.48 239.232 213.48 238.921 213.635L230.231 218.601H228.058V222.636Z" fill="#0A0803"/>
<path d="M251.802 218.447L241.094 224.809C240.629 224.964 240.318 225.12 239.853 225.12C239.387 225.12 238.922 224.964 238.611 224.809L228.059 218.912C227.283 218.447 227.283 217.826 227.903 217.515L238.611 211.153C239.077 210.997 239.387 210.842 239.853 210.842C240.318 210.842 240.784 210.997 241.094 211.153L251.647 217.05C252.423 217.515 252.423 218.136 251.802 218.447Z" fill="#FCFCFC"/>
<path d="M240.012 225.738C239.391 225.738 238.77 225.583 238.305 225.272L227.752 219.375C227.442 219.22 227.286 219.065 227.131 218.754C226.976 218.444 226.821 218.289 226.821 217.978C226.821 217.668 226.821 217.513 226.976 217.202C227.131 217.047 227.286 216.892 227.597 216.737L238.305 210.374C238.77 210.064 239.391 209.908 239.857 209.908C240.477 209.908 240.943 210.064 241.409 210.374L251.961 216.271C252.272 216.426 252.427 216.582 252.582 216.892C252.737 217.202 252.893 217.358 252.893 217.668C252.893 217.978 252.737 218.133 252.737 218.289C252.582 218.444 252.427 218.599 252.117 218.754L241.409 225.117C241.098 225.583 240.477 225.738 240.012 225.738ZM239.546 211.46C239.236 211.46 239.081 211.46 238.77 211.616L227.907 217.978C228.062 218.133 228.062 218.133 228.218 218.133L238.77 224.031C239.081 224.186 239.391 224.341 239.702 224.341C240.012 224.341 240.322 224.341 240.633 224.186L251.341 217.823H251.496C251.341 217.668 251.341 217.668 251.185 217.513L240.633 211.305C240.322 211.46 240.012 211.305 239.546 211.46Z" fill="#0A0803"/>
<path d="M243.578 215.5C243.578 216.431 242.026 217.362 240.008 217.362C237.991 217.362 236.439 216.586 236.439 215.5C236.439 214.413 237.991 213.637 240.008 213.637C242.026 213.637 243.578 214.413 243.578 215.5Z" fill="#E6E6E6"/>
<path d="M240.171 217.98C237.843 217.98 235.981 216.894 235.981 215.342C235.981 213.79 237.688 212.704 240.171 212.704C242.654 212.704 244.361 213.79 244.361 215.342C244.361 216.894 242.499 217.98 240.171 217.98ZM240.171 214.256C238.464 214.256 237.378 215.031 237.378 215.497C237.378 215.963 238.464 216.739 240.171 216.739C241.878 216.739 242.964 216.118 242.964 215.497C242.964 214.876 241.878 214.256 240.171 214.256Z" fill="#0A0803"/>
<path d="M240.161 215.496C239.696 215.496 239.23 215.341 238.765 214.875C238.454 214.565 238.144 214.099 238.144 213.478V205.564C238.144 205.098 238.299 204.633 238.765 204.322C239.075 204.012 239.541 203.857 240.161 203.857C240.627 203.857 241.093 204.012 241.403 204.477C241.713 204.788 242.024 205.253 242.024 205.719V213.634C242.024 213.944 242.024 214.099 241.869 214.41C241.713 214.565 241.713 214.875 241.403 215.03C241.248 215.185 241.093 215.341 240.782 215.496C240.627 215.341 240.317 215.496 240.161 215.496Z" fill="#0A0803"/>
<path d="M240.166 216.118C239.545 216.118 238.769 215.808 238.304 215.342C237.838 214.877 237.528 214.256 237.528 213.48V205.565C237.528 204.945 237.838 204.169 238.304 203.703C238.769 203.238 239.39 202.927 240.166 202.927C240.942 202.927 241.563 203.238 242.028 203.703C242.494 204.169 242.804 204.79 242.804 205.565V213.48C242.804 214.101 242.494 214.877 242.028 215.342C241.408 215.808 240.787 216.118 240.166 216.118ZM240.166 204.479C240.011 204.479 239.856 204.479 239.701 204.634C239.545 204.634 239.39 204.79 239.235 204.945C239.08 205.1 239.08 205.255 238.925 205.41C238.925 205.565 238.769 205.721 238.769 205.876V213.79C238.769 213.946 238.769 214.101 238.925 214.256C238.925 214.411 239.08 214.566 239.235 214.722C239.39 214.877 239.545 214.877 239.701 215.032C239.856 215.032 240.011 215.187 240.166 215.187C240.321 215.187 240.476 215.187 240.632 215.032C240.787 215.032 240.942 214.877 241.097 214.722C241.252 214.566 241.252 214.411 241.408 214.256C241.563 214.101 241.563 213.946 241.563 213.79V205.876C241.563 205.565 241.408 205.255 241.252 204.945C240.787 204.479 240.476 204.479 240.166 204.479Z" fill="#0A0803"/>
<path d="M130.451 237.684L151.091 225.734V175.453L130.451 187.403V237.684Z" fill="#0A0803"/>
<path d="M140.846 169.87L151.243 175.612L130.603 187.562L120.826 181.664L140.846 169.87Z" fill="#FCFCFC"/>
<path d="M120.675 181.509V186.164C123.158 188.802 124.71 192.372 124.865 196.096V233.962L130.452 237.687V187.406L120.675 181.509Z" fill="#E6E6E6"/>
<path d="M151.861 175.147L140.842 169.095L120.202 181.199V186.321L120.357 186.476C122.685 188.959 124.237 192.373 124.392 195.942V234.119L130.6 238.309L152.016 225.894L151.861 175.147ZM140.842 170.647L149.843 175.613L130.445 186.786L129.203 186.01L122.064 181.665L140.842 170.647ZM125.479 233.653V196.098C125.323 192.373 123.927 188.804 121.288 186.01V182.751L128.272 186.941L129.669 187.873V236.602L125.479 233.653ZM150.464 225.428L131.065 236.602V187.873L150.464 176.699V225.428Z" fill="#0A0803"/>
<path d="M151.867 181.357L150.625 182.133V225.12L131.227 236.294V237.845L151.867 225.896V181.357Z" fill="#E6E6E6"/>
<path d="M148.441 183.993C148.131 183.993 132.612 192.839 132.612 192.839V228.222L148.286 219.532L148.441 183.993Z" fill="#E6E6E6"/>
<path d="M132.002 229.309V192.529L132.312 192.374C147.986 183.373 148.142 183.373 148.452 183.373H149.073V219.843L132.002 229.309ZM133.243 193.305V227.137L147.676 219.067V185.08C145.348 186.322 138.365 190.357 133.243 193.305Z" fill="#0A0803"/>
<path d="M162.891 203.702L138.681 189.27V206.496L162.891 220.618V203.702Z" fill="#E6E6E6"/>
<path d="M163.66 221.859L138.209 206.961V188.959L138.83 188.649L163.66 203.392V221.859ZM139.45 206.185L162.418 219.531V204.012L139.45 190.356V206.185Z" fill="#0A0803"/>
<path d="M138.821 189.422L142.546 187.405L166.445 201.682L163.031 203.855L138.821 189.422Z" fill="#E6E6E6"/>
<path d="M139.136 189.425L142.084 187.718L165.983 201.996L162.569 204.168L139.136 190.201V189.425Z" fill="#FCFCFC"/>
<path d="M163.04 204.48L162.729 204.325L137.589 189.426L142.555 186.633L142.865 186.788L167.695 201.686L163.04 204.48ZM140.072 189.426L162.885 203.083L165.057 201.686L142.4 188.03L140.072 189.426Z" fill="#0A0803"/>
<path d="M162.88 220.771L166.294 218.598V201.683L162.88 203.855V220.771Z" fill="#E6E6E6"/>
<path d="M162.26 221.857V203.39L166.915 200.441V218.909L162.26 221.857ZM163.657 204.01V219.529L165.674 218.288V202.769L163.657 204.01Z" fill="#0A0803"/>
<path d="M156.518 207.896L132.774 193.773L132.929 210.999L156.673 224.811V207.896H156.518Z" fill="#E6E6E6"/>
<path d="M157.132 226.047L132.147 211.459V192.681L157.288 207.579L157.132 226.047ZM133.388 210.683L155.736 223.874V208.355L133.233 195.009L133.388 210.683Z" fill="#0A0803"/>
<path d="M132.612 193.768V192.837L135.405 191.285L159.77 205.873L156.356 208.045L132.612 193.768Z" fill="#E6E6E6"/>
<path d="M132.316 193.458L135.109 191.285L159.474 205.873L156.836 208.201L132.316 193.458Z" fill="#FCFCFC"/>
<path d="M156.512 208.663L156.201 208.508L132.147 194.231V192.524L135.561 190.506L161.167 205.715L156.512 208.663ZM133.233 193.455L156.356 207.267L158.529 205.87L135.406 192.058L133.233 193.3V193.455Z" fill="#0A0803"/>
<path d="M156.515 224.965L159.929 222.792V205.721L156.515 207.894V224.965Z" fill="#E6E6E6"/>
<path d="M155.744 226.207V207.739L160.399 204.791V223.258L155.744 226.207ZM157.14 208.36V223.879L159.158 222.482V206.963L157.14 208.36Z" fill="#0A0803"/>
<path d="M142.854 217.05L132.612 223.102V228.223L147.665 219.843L142.854 217.05Z" fill="#E6E6E6"/>
<path d="M143.009 216.894L132.612 223.102C132.612 224.809 132.612 226.516 132.612 228.223L147.355 219.687L143.009 216.894Z" fill="#E6E6E6"/>
<path d="M132.002 229.31V222.637L142.865 216.119L149.073 219.688L132.002 229.31ZM133.243 223.413V226.982L146.434 219.688L142.865 217.515L133.243 223.413Z" fill="#0A0803"/>
<path d="M198.108 127.504L168.156 199.977L171.26 201.994L200.746 129.831L198.108 127.504Z" fill="#E6E6E6"/>
<path d="M171.575 202.771L167.229 200.132L167.385 199.667L197.646 126.418L201.371 129.522L171.575 202.771ZM169.092 199.667L171.109 200.908L200.13 129.987L198.422 128.59L169.092 199.667Z" fill="#0A0803"/>
<path d="M204.782 129.212L175.451 204.479L171.261 201.841L200.747 129.678L204.782 129.212Z" fill="#0A0803"/>
<path d="M175.914 205.562L170.482 202.148L200.433 129.209L205.865 128.433L175.914 205.562ZM172.034 201.683L175.138 203.545L203.692 129.985L201.054 130.296L172.034 201.683Z" fill="#0A0803"/>
<path d="M202.922 132.466L173.591 203.387L176.695 205.405L205.56 134.794L202.922 132.466Z" fill="#E6E6E6"/>
<path d="M177.161 206.344L172.815 203.706L172.971 203.24L202.612 131.543L206.336 134.647L206.181 135.112L177.161 206.344ZM174.523 203.085L176.54 204.326L204.94 134.957L203.233 133.56L174.523 203.085Z" fill="#0A0803"/>
<path d="M209.433 132.466L178.706 211.147L176.844 205.249L206.33 133.087L209.433 132.466Z" fill="#0A0803"/>
<path d="M178.559 213.172L175.921 205.257V205.102L205.562 132.629L210.218 131.543L178.559 213.172ZM177.473 205.413L178.714 209.292L208.355 133.405L206.804 133.715L177.473 205.413Z" fill="#0A0803"/>
<path d="M166.762 195.014H167.072C167.383 195.014 167.693 195.014 167.848 195.17L174.366 199.049C177.004 200.912 179.022 203.395 180.574 206.188C181.97 208.981 182.746 212.085 182.902 215.344C183.057 216.586 182.902 217.672 182.436 218.758C181.97 219.845 181.35 220.931 180.574 221.707C180.263 222.017 179.798 222.328 179.332 222.483L163.658 231.329L154.968 214.413L150.001 204.791L166.762 195.014Z" fill="#E6E6E6"/>
<path d="M167.379 195.162H167.689C167.844 195.162 167.999 195.162 168.154 195.162C168.31 195.162 168.465 195.318 168.62 195.318L175.138 199.197C179.794 201.835 181.966 206.181 181.966 212.388C182.122 213.63 181.966 214.716 181.501 215.802C181.035 216.889 180.414 217.975 179.638 218.751C179.173 219.061 178.863 219.372 178.397 219.527L163.188 226.2L155.584 214.251L150.618 204.629L167.379 195.162Z" fill="#FCFCFC"/>
<path d="M163.349 231.791L149.071 204.167L166.297 194.546L166.452 194.391L166.763 194.235H167.694C167.849 194.235 167.849 194.235 168.16 194.391L174.677 198.27C177.316 200.132 179.488 202.616 181.04 205.564C182.592 208.513 183.368 211.616 183.368 215.031C183.523 216.272 183.368 217.358 182.902 218.6C182.592 219.686 181.971 220.773 181.195 221.704L180.73 222.014C180.264 222.325 179.799 222.635 179.333 222.79L163.349 231.791ZM150.934 204.633L163.969 230.084L179.023 221.704C179.488 221.549 179.799 221.238 180.264 221.083C181.04 220.307 181.661 219.376 181.971 218.29C182.282 217.203 182.437 216.117 182.437 215.031C182.437 211.927 181.661 208.978 180.264 206.34C178.868 203.702 176.85 201.219 174.367 199.512L167.849 195.632H167.694H167.539H167.384L150.934 204.633Z" fill="#0A0803"/>
<path d="M151.395 226.829L157.913 230.708C162.569 233.347 166.293 230.553 166.293 224.346C166.293 221.242 165.517 218.138 163.965 215.189C162.569 212.396 160.396 209.913 157.913 208.051L151.395 204.171C150.464 203.705 149.688 204.171 149.688 205.412V223.414C149.688 224.035 149.843 224.656 150.154 225.277C150.309 226.053 150.774 226.518 151.395 226.829Z" fill="#E6E6E6"/>
<path d="M161.176 232.416C159.934 232.416 158.693 231.95 157.452 231.33L150.934 227.45C150.313 226.984 149.847 226.519 149.537 225.743C149.226 225.122 149.071 224.346 149.071 223.57V205.568C149.071 205.258 149.071 204.792 149.226 204.482C149.382 204.171 149.692 203.861 150.002 203.706C150.313 203.551 150.623 203.396 150.934 203.396C151.244 203.396 151.554 203.551 151.865 203.706L158.383 207.586C161.021 209.448 163.193 211.931 164.745 214.879C166.297 217.828 167.073 220.932 167.073 224.346C167.228 225.743 167.073 227.139 166.452 228.536C165.832 229.778 165.056 231.019 163.814 231.795C162.883 232.105 162.107 232.416 161.176 232.416ZM151.71 226.363L158.227 230.243C158.848 230.709 159.779 231.019 160.555 231.174C161.331 231.174 162.262 231.174 163.038 230.709C163.969 229.933 164.745 229.002 165.211 227.915C165.677 226.829 165.832 225.588 165.677 224.501C165.677 221.397 164.901 218.449 163.504 215.811C162.107 213.172 160.09 210.689 157.607 208.982L151.089 205.103C151.089 205.103 150.778 204.947 150.623 205.103C150.468 205.258 150.468 205.258 150.468 205.413C150.468 205.568 150.468 205.723 150.468 205.879V223.88C150.468 224.346 150.623 224.812 150.778 225.277C150.934 225.588 151.244 225.898 151.71 226.363Z" fill="#0A0803"/>
<path d="M150.931 211.773H151.241L154.19 213.48C155.276 214.256 156.207 215.342 156.828 216.584C157.449 217.825 157.759 219.222 157.759 220.618C157.759 221.084 157.759 221.705 157.604 222.17C157.449 222.636 157.138 223.101 156.828 223.412C156.673 223.567 156.518 223.722 156.207 223.722L153.259 225.429L149.844 218.601L147.517 213.48L150.931 211.773Z" fill="#E6E6E6"/>
<path d="M150.776 212.393H151.086L154.035 214.1C155.121 214.876 156.052 215.962 156.673 217.204C157.294 218.445 157.604 219.842 157.759 221.239C157.759 222.48 155.586 220.928 154.966 221.394C154.811 221.549 154.655 221.704 154.345 221.704L151.396 223.411L149.845 219.221L147.672 214.1L150.776 212.393Z" fill="#E6E6E6"/>
<path d="M153.1 226.357L149.376 218.908L147.358 213.166L151.083 210.994L151.238 211.149C151.393 211.149 151.548 211.304 151.548 211.304L154.497 213.011C155.739 213.942 156.67 215.029 157.446 216.425C158.066 217.822 158.532 219.219 158.532 220.771C158.532 221.702 158.377 222.788 157.756 223.564L157.135 224.185C156.98 224.34 156.67 224.495 156.515 224.495L153.1 226.357ZM148.6 213.787L150.617 218.288L153.721 224.495L156.204 223.098C156.359 223.098 156.515 222.943 156.67 222.788C156.98 222.478 157.135 222.167 157.29 221.702C157.446 221.236 157.446 220.926 157.446 220.46C157.446 219.219 157.135 217.977 156.515 216.736C155.894 215.649 155.118 214.563 154.032 213.787L151.238 212.235L148.6 213.787Z" fill="#0A0803"/>
<path d="M148.293 223.565L151.241 225.272C153.259 226.513 154.966 225.272 154.966 222.478C154.966 221.082 154.655 219.685 153.879 218.444C153.259 217.202 152.327 216.116 151.241 215.34L148.293 213.633C147.827 213.322 147.517 213.633 147.517 214.098V222.168C147.517 222.479 147.517 222.634 147.672 222.944C147.827 223.254 147.982 223.41 148.293 223.565Z" fill="#E6E6E6"/>
<path d="M152.642 226.36C152.022 226.36 151.401 226.205 150.78 225.894L147.831 224.187C147.521 224.032 147.211 223.722 147.056 223.411C146.9 223.101 146.745 222.635 146.745 222.325V214.255C146.745 214.1 146.745 213.79 146.9 213.634C147.056 213.479 147.211 213.324 147.366 213.169C147.521 213.014 147.676 213.014 147.987 213.014C148.142 213.014 148.297 213.014 148.607 213.169L151.556 214.876C152.797 215.807 153.884 216.893 154.505 218.29C155.281 219.687 155.591 221.084 155.591 222.635C155.591 223.256 155.591 224.032 155.281 224.653C154.97 225.274 154.505 225.894 154.039 226.205C153.418 226.205 153.108 226.36 152.642 226.36ZM148.607 223.101L151.556 224.808C151.866 224.963 152.177 225.118 152.487 225.118C152.798 225.118 153.108 225.118 153.418 224.963C153.729 224.653 154.039 224.342 154.194 223.877C154.349 223.411 154.349 222.946 154.349 222.48C154.349 221.239 154.039 219.997 153.418 218.756C152.797 217.669 152.022 216.583 150.935 215.807L148.297 214.255V222.015C148.297 222.17 148.297 222.325 148.452 222.48C148.452 222.791 148.452 222.791 148.607 223.101Z" fill="#0A0803"/>
<path d="M218.287 125.023C218.287 125.023 215.183 113.384 209.751 115.401C207.113 116.333 206.492 115.712 204.165 116.643C202.613 117.109 201.216 117.884 199.974 118.971C198.733 120.057 197.802 121.454 197.181 122.851C196.56 124.402 196.25 125.954 196.25 127.661C196.25 129.368 196.716 130.92 197.491 132.317C197.802 132.783 198.112 133.248 198.423 133.559C198.888 133.869 199.354 134.179 199.819 134.334C200.285 134.49 200.906 134.645 201.371 134.49C201.992 134.49 202.458 134.334 202.923 134.024L218.908 126.109L218.287 125.023Z" fill="#E6E6E6"/>
<path d="M201.05 135.417C200.585 135.417 199.964 135.262 199.498 135.106C198.878 134.951 198.412 134.641 197.946 134.175C197.481 133.71 197.015 133.244 196.86 132.623C196.084 131.072 195.774 129.52 195.619 127.813C195.463 126.105 195.774 124.554 196.395 122.847C197.015 121.295 198.102 119.743 199.498 118.656C200.74 117.415 202.292 116.639 203.999 116.018C204.93 115.708 205.861 115.397 206.792 115.397C207.723 115.397 208.655 115.087 209.586 114.777C210.051 114.622 210.672 114.466 211.293 114.466C211.913 114.466 212.379 114.622 213 114.932C216.724 116.794 218.742 123.933 219.052 124.709L219.983 126.571L203.533 134.796C202.602 135.262 201.826 135.417 201.05 135.417ZM210.982 115.863C210.672 115.863 210.206 115.863 209.896 116.018C208.965 116.329 207.879 116.639 206.792 116.794C205.861 116.794 205.085 116.949 204.154 117.415C202.602 117.881 201.205 118.656 200.119 119.743C198.878 120.829 197.946 122.071 197.326 123.622C196.86 125.019 196.55 126.571 196.705 127.968C196.705 129.52 197.171 130.916 197.791 132.313C197.947 132.779 198.257 133.089 198.567 133.399C198.878 133.71 199.343 134.02 199.809 134.02C200.585 134.33 201.516 134.175 202.447 133.865L217.966 126.105L217.5 125.174C217.5 125.174 215.483 117.88 212.069 116.173C211.758 115.863 211.448 115.863 210.982 115.863Z" fill="#0A0803"/>
<path d="M222.626 122.852C222.626 122.852 218.591 112.609 208.814 115.092C198.882 117.73 199.968 126.421 201.83 130.146L203.693 133.87L223.402 124.093L222.626 122.852Z" fill="#FCFCFC"/>
<path d="M203.234 134.799L201.062 130.453C200.286 128.902 199.82 127.194 199.82 125.487C199.82 123.78 200.131 122.073 200.751 120.366C201.527 118.814 202.614 117.573 204.01 116.642C205.407 115.71 206.959 114.934 208.511 114.624C218.598 111.986 222.788 122.073 223.099 122.694L224.03 124.711L203.234 134.799ZM211.77 115.4C210.839 115.4 209.752 115.555 208.821 115.71C207.425 116.021 206.028 116.642 204.786 117.418C203.545 118.349 202.614 119.435 201.993 120.832C201.372 122.228 201.062 123.78 201.217 125.332C201.217 126.884 201.683 128.436 202.303 129.833L203.855 133.092L222.323 123.935L222.012 123.004C221.857 122.694 218.909 115.4 211.77 115.4Z" fill="#0A0803"/>
<path d="M201.831 127.968L202.141 127.658L204.78 124.864C204.78 124.864 206.331 125.795 207.418 126.571L231.938 123.778C232.558 123.778 233.024 123.933 233.49 124.243C233.955 124.554 234.266 125.019 234.421 125.64L236.128 133.4C236.283 134.331 236.283 135.262 236.128 136.193L237.214 136.348L234.576 139.297C234.421 139.607 234.11 139.762 233.955 140.073C233.024 141.004 231.783 141.625 230.386 141.78L211.142 144.728C209.28 145.039 207.418 144.573 206.021 143.487C204.469 142.401 203.538 140.693 203.228 138.986L201.831 129.985C201.521 129.054 201.676 128.434 201.831 127.968Z" fill="#E6E6E6"/>
<path d="M209.902 145.044C208.04 145.044 206.333 144.423 204.936 143.182C203.539 141.94 202.608 140.388 202.298 138.526L200.901 129.525C200.746 128.905 200.901 128.439 201.056 127.973V127.818L201.367 127.508L201.677 127.042L204.471 123.938L204.936 124.249L207.574 125.801L231.939 123.007C232.715 122.852 233.336 123.163 233.956 123.473C234.577 123.939 234.888 124.559 235.043 125.18L236.75 132.939C236.905 133.715 236.905 134.491 236.905 135.267L238.457 135.578L235.198 139.302C235.043 139.613 234.732 139.768 234.577 140.078L234.422 140.233C233.336 141.164 231.939 141.785 230.542 141.94L211.299 144.734C210.678 145.044 210.368 145.044 209.902 145.044ZM202.608 128.129C202.453 128.594 202.298 128.905 202.453 129.215L203.85 138.216C204.16 139.923 205.091 141.32 206.333 142.251C207.73 143.182 209.281 143.647 210.988 143.492L230.232 140.544C231.318 140.389 232.405 139.923 233.18 139.147L233.025 138.371C233.18 138.216 233.956 138.371 234.267 138.216L236.129 136.198L235.508 136.043V135.422C235.663 134.647 235.663 133.715 235.508 132.784L233.956 125.025C233.801 124.714 233.646 124.249 233.336 124.094C233.025 123.938 232.56 123.783 232.249 123.783L207.419 126.577L207.264 126.422C206.488 125.956 205.557 125.335 205.091 125.025L203.074 127.353L202.608 128.129Z" fill="#0A0803"/>
<path d="M234.731 120.524L206.332 123.783C206.021 123.783 205.711 123.938 205.556 124.094C205.245 124.249 205.09 124.404 204.935 124.714C204.78 125.025 204.625 125.18 204.625 125.49C204.625 125.801 204.469 126.111 204.625 126.421L206.021 135.422C206.332 137.285 207.263 138.837 208.815 139.923C210.367 141.009 212.229 141.475 213.936 141.164L233.179 138.216C234.111 138.061 235.042 137.75 235.818 137.285C236.594 136.819 237.37 136.043 237.835 135.267C238.456 134.491 238.766 133.56 238.921 132.629C239.077 131.698 239.077 130.767 238.921 129.836L237.214 122.076C237.059 121.611 236.749 121.145 236.283 120.835C235.818 120.524 235.352 120.369 234.731 120.524Z" fill="#FCFCFC"/>
<path d="M212.698 141.936C210.835 141.936 209.128 141.315 207.732 140.074C206.335 138.832 205.404 137.28 205.093 135.418L203.697 126.417C203.697 126.107 203.697 125.641 203.697 125.331C203.852 125.02 204.007 124.555 204.162 124.245C204.318 123.934 204.628 123.624 204.938 123.469C205.249 123.313 205.714 123.158 206.025 123.158L234.424 119.899C235.2 119.744 235.821 120.054 236.442 120.365C237.062 120.83 237.373 121.451 237.528 122.072L239.235 129.831C239.39 130.918 239.39 131.849 239.235 132.935C239.08 134.021 238.614 134.953 237.993 135.728C237.373 136.66 236.597 137.28 235.821 137.901C234.89 138.522 233.959 138.832 232.872 138.987L213.629 141.781C213.318 141.936 213.008 142.091 212.698 141.936ZM234.735 121.296L206.335 124.555C206.18 124.555 205.869 124.71 205.714 124.71C205.559 124.865 205.404 125.02 205.249 125.176C205.093 125.331 205.093 125.486 204.938 125.796C204.938 125.952 204.938 126.262 204.938 126.417L206.335 135.418C206.645 137.125 207.421 138.522 208.818 139.608C210.215 140.539 211.922 141.005 213.474 140.85L232.717 137.901C233.493 137.746 234.424 137.436 235.045 137.125C235.821 136.66 236.442 136.039 236.907 135.418C237.373 134.642 237.683 133.866 237.993 133.09C238.149 132.159 238.149 131.383 237.993 130.452L236.442 122.693C236.286 122.382 236.131 121.917 235.821 121.761C235.666 121.296 235.355 121.296 234.735 121.296Z" fill="#0A0803"/>
<path d="M215.957 141.005L217.819 136.505L218.44 137.901C219.526 137.125 220.923 136.66 222.475 136.815C224.492 137.125 226.51 138.057 227.907 139.608C229.459 141.005 230.39 143.023 230.7 145.04L237.994 182.441L242.65 192.993L241.253 196.718L241.098 197.184V197.494C240.787 198.115 240.322 198.58 239.856 198.891C239.391 199.201 238.615 199.511 237.994 199.511C237.063 199.511 236.132 199.046 235.356 198.425C234.58 197.804 234.114 196.873 233.959 195.942L216.888 149.851C216.578 149.075 216.268 148.299 216.112 147.368L215.957 146.902C215.957 146.592 215.802 146.282 215.802 145.971C215.181 144.109 215.336 142.402 215.957 141.005Z" fill="#0A0803"/>
<path d="M237.684 199.823C236.597 199.823 235.511 199.357 234.735 198.581C233.959 197.805 233.338 196.874 233.028 195.788L215.957 149.697C215.647 148.921 215.336 147.99 215.026 147.059L214.871 145.817C214.871 145.817 214.871 145.662 214.871 145.507C214.716 143.8 214.871 142.093 215.492 140.541L217.819 134.488L218.751 136.506C219.837 135.885 221.234 135.575 222.475 135.73C224.648 136.04 226.51 136.971 228.062 138.523C229.614 139.92 230.7 141.937 231.166 143.955V144.42L238.46 181.821L243.115 192.374L241.719 196.409C241.719 196.564 241.563 196.719 241.563 196.874L241.408 197.185C241.098 197.961 240.632 198.581 240.011 199.047C239.235 199.512 238.46 199.823 237.684 199.823ZM216.268 147.059C216.423 147.834 216.733 148.61 217.044 149.231L234.27 195.322C234.425 196.098 234.89 196.874 235.511 197.495C236.132 198.116 236.908 198.426 237.839 198.426C238.46 198.426 238.925 198.271 239.391 197.961C239.856 197.65 240.167 197.185 240.477 196.719V196.564C240.477 196.409 240.632 196.253 240.632 196.098L241.874 192.529L237.373 182.286L230.079 144.731C229.769 142.868 228.838 141.006 227.441 139.609C226.044 138.213 224.337 137.282 222.32 136.971C221.078 136.816 219.837 137.282 218.751 137.902L218.13 138.368L217.819 137.747L216.578 140.851C216.112 142.248 215.802 143.8 216.112 145.352C216.112 145.507 216.112 145.662 216.112 145.817L216.268 147.059Z" fill="#0A0803"/>
<path d="M217.502 141.317C217.502 141.007 217.346 140.697 217.346 140.386C216.726 135.265 219.985 131.075 224.33 131.385C226.347 131.696 228.365 132.627 229.762 134.179C231.313 135.575 232.245 137.593 232.555 139.61L242.332 190.512C242.332 190.667 242.487 190.978 242.487 191.133C242.642 191.599 242.487 192.219 242.487 192.685C242.332 193.151 242.177 193.616 241.711 194.082C241.401 194.547 240.935 194.858 240.47 195.168C240.004 195.478 239.539 195.634 238.918 195.634C237.987 195.634 237.056 195.168 236.28 194.547C235.504 193.926 235.038 192.995 234.883 192.064L218.433 144.421C218.122 143.645 217.812 142.714 217.657 141.783L217.502 141.317Z" fill="#FCFCFC"/>
<path d="M239.076 196.098C237.989 196.098 236.903 195.632 236.127 194.856C235.351 194.081 234.731 193.149 234.42 192.063L217.97 144.575C217.66 143.799 217.349 142.868 217.039 141.937L216.884 140.696C216.884 140.696 216.884 140.54 216.884 140.385C216.729 138.989 216.729 137.592 217.194 136.195C217.66 134.798 218.281 133.557 219.212 132.626C219.832 131.85 220.764 131.384 221.695 130.919C222.626 130.608 223.557 130.453 224.643 130.453C226.816 130.764 228.678 131.695 230.23 133.247C231.782 134.643 232.868 136.661 233.334 138.678V139.144L243.266 190.511C243.266 190.511 243.266 190.666 243.266 190.822C243.266 191.442 243.266 192.218 243.111 192.839C242.955 193.46 242.49 194.081 242.18 194.546C241.869 195.012 241.404 195.322 240.938 195.477C240.162 195.943 239.541 196.098 239.076 196.098ZM218.436 141.782C218.591 142.558 218.901 143.334 219.212 144.11L235.662 191.908C235.817 192.684 236.282 193.46 236.903 194.081C237.524 194.701 238.3 195.012 239.076 195.012C239.386 195.012 239.852 194.856 240.162 194.701C240.473 194.546 240.783 194.391 241.093 194.081C241.404 193.615 241.714 193.305 241.869 192.684C242.024 192.218 242.024 191.753 242.024 191.132C242.024 190.977 242.024 190.666 242.024 190.511V190.046L232.247 139.764C231.937 137.902 231.006 136.04 229.609 134.643C228.213 133.246 226.505 132.315 224.488 132.005C223.712 132.005 222.936 132.005 222.16 132.315C221.384 132.626 220.764 133.091 220.143 133.712C219.367 134.643 218.746 135.73 218.436 136.816C218.125 137.902 217.97 139.144 218.28 140.385C218.28 140.54 218.28 140.696 218.28 140.851L218.436 141.782Z" fill="#0A0803"/>
<path d="M245.135 196.247H245.601C247.308 196.247 248.86 197.799 249.481 200.437C249.946 202.92 248.394 203.386 246.687 203.852L234.893 206.024L233.496 199.196L245.135 196.247Z" fill="#FCFCFC"/>
<path d="M234.266 208.361L232.559 198.118L245.905 195.014C246.991 195.325 247.922 195.946 248.543 196.877C249.319 197.653 249.629 198.739 249.785 199.825C250.405 202.929 249.319 205.722 247.146 206.343L235.197 209.137C235.042 209.137 235.042 209.137 234.886 209.137C234.731 209.137 234.731 209.137 234.576 208.981C234.421 208.981 234.421 208.826 234.421 208.671C234.421 208.516 234.421 208.516 234.266 208.361ZM234.11 199.049L235.507 207.585L246.991 204.946C248.388 204.636 249.164 202.308 248.698 199.98C248.233 197.653 246.991 196.411 245.75 196.411H245.284L234.11 199.049Z" fill="#0A0803"/>
<path d="M230.849 204.324C231.47 206.962 233.488 208.824 235.04 208.359C236.591 207.893 237.678 205.41 237.212 202.617C236.591 199.979 234.729 198.116 233.022 198.427C231.315 199.048 230.384 201.531 230.849 204.324Z" fill="#E6E6E6"/>
<path d="M234.419 208.98C233.798 208.98 233.177 208.825 232.712 208.514C231.315 207.583 230.384 206.031 230.074 204.324C229.453 201.221 230.539 198.427 232.712 197.806C233.177 197.651 233.488 197.651 233.953 197.806C234.419 197.806 234.729 198.117 235.04 198.272C235.66 198.737 236.281 199.358 236.747 200.134C237.212 200.91 237.523 201.686 237.678 202.462C238.299 205.566 237.212 208.359 235.04 208.98C234.884 208.98 234.729 208.98 234.419 208.98ZM231.47 204.014C231.625 205.411 232.401 206.497 233.488 207.273C233.643 207.428 233.953 207.428 234.108 207.583C234.419 207.583 234.574 207.583 234.884 207.583C236.281 207.273 237.057 204.945 236.592 202.617C236.436 201.22 235.66 200.134 234.574 199.203C234.108 198.893 233.643 198.893 233.177 198.893C231.781 199.513 231.005 201.686 231.47 204.014Z" fill="#0A0803"/>
<path d="M101.739 203.237H102.049C102.205 203.237 102.36 203.237 102.36 203.237C102.515 203.237 102.67 203.237 102.67 203.237L108.567 206.651C110.895 208.358 112.757 210.375 113.999 212.858C115.24 215.341 116.016 218.135 116.016 220.928C116.172 222.014 116.016 222.946 115.551 224.032C115.24 224.963 114.62 225.894 113.844 226.67C113.533 226.98 113.068 227.136 112.757 227.291L107.171 230.395L99.4112 215.341L95.0659 206.806L101.739 203.237Z" fill="#E6E6E6"/>
<path d="M101.739 203.237H102.049C102.205 203.237 102.36 203.237 102.36 203.237C102.515 203.237 102.67 203.237 102.67 203.392L108.567 206.806C110.895 208.513 112.757 210.53 113.999 213.013C115.24 215.496 116.016 218.29 116.016 221.083C116.016 223.722 113.844 223.256 112.602 224.342C112.292 224.653 111.826 224.808 111.361 224.963L105.929 227.912L99.4112 215.341L95.0659 206.806L101.739 203.237Z" fill="#FCFCFC"/>
<path d="M107.015 231.171L94.9106 207.583C94.7554 207.272 94.7554 206.962 94.7554 206.651C94.9106 206.341 95.0657 206.031 95.3761 206.031L102.049 202.306L102.67 202.461C102.825 202.461 102.825 202.461 103.136 202.617L109.033 206.031C111.361 207.738 113.378 209.91 114.62 212.549C115.861 215.187 116.637 217.98 116.792 220.929C116.792 222.015 116.792 223.101 116.327 224.033C116.016 225.119 115.395 226.05 114.775 226.826L114.309 227.136C113.999 227.447 113.533 227.757 113.068 227.912L107.015 231.171ZM96.1521 207.117L107.636 229.464L112.602 226.826C112.912 226.671 113.378 226.516 113.533 226.36C114.154 225.74 114.775 224.809 115.085 224.033C115.396 223.101 115.551 222.17 115.395 221.239C115.395 218.601 114.62 215.963 113.378 213.48C112.137 211.152 110.429 208.979 108.257 207.427L102.36 204.013H102.204H102.049H101.894L96.1521 207.117Z" fill="#0A0803"/>
<path d="M96.4626 226.67L102.36 230.085C106.55 232.412 109.809 229.929 109.809 224.498C109.809 221.704 109.033 218.911 107.791 216.428C106.55 213.945 104.688 211.772 102.36 210.22L96.4626 206.806C95.6867 206.341 95.0659 206.806 95.0659 207.893V224.032C95.0659 224.653 95.2211 225.119 95.5315 225.584C95.5315 225.894 95.997 226.36 96.4626 226.67Z" fill="#E6E6E6"/>
<path d="M105.157 231.634C103.916 231.634 102.829 231.324 101.898 230.703L96.001 227.289C95.3802 226.979 95.0699 226.358 94.7595 225.893C94.4491 225.272 94.2939 224.651 94.2939 224.03V207.891C94.2939 207.58 94.2939 207.27 94.4491 206.959C94.6043 206.649 94.7595 206.339 95.0699 206.184C95.3803 206.028 95.5355 206.028 95.8458 206.028C96.1562 206.028 96.4666 206.184 96.6218 206.184L102.519 209.598C104.847 211.305 106.864 213.477 108.106 216.116C109.502 218.754 110.123 221.547 110.278 224.496C110.434 225.737 110.278 226.979 109.658 228.22C109.192 229.462 108.261 230.393 107.33 231.169C106.709 231.324 105.933 231.479 105.157 231.634ZM95.8458 207.115C95.8458 207.115 95.6906 207.27 95.6906 207.735V223.72C95.6906 224.185 95.8458 224.651 96.001 224.961C96.1562 225.427 96.4666 225.737 96.7769 225.893L102.674 229.307C103.295 229.772 104.071 230.083 104.692 230.083C105.468 230.083 106.243 230.083 106.864 229.772C107.64 229.151 108.261 228.22 108.726 227.289C109.192 226.358 109.192 225.272 109.192 224.185C109.192 221.547 108.416 218.909 107.175 216.426C105.933 214.098 104.226 211.926 102.053 210.374L96.1562 206.959L95.8458 207.115Z" fill="#0A0803"/>
<path d="M240.013 224.963V229.929L241.565 229.463L252.893 221.859L252.118 218.6L240.013 224.963Z" fill="#0A0803"/>
<path d="M237.222 203.235L249.172 200.441L248.862 203.855L247.62 205.407L235.981 208.045L237.067 205.562L237.222 203.235Z" fill="#0A0803"/>
<path d="M206.492 143.641L208.82 139.917L211.769 141.158L215.338 140.537L214.717 143.641L210.837 144.262H208.354L206.492 143.641Z" fill="#0A0803"/>
<path d="M215.642 143.799H214.4L214.866 141.005H216.108L215.642 143.799Z" fill="#E6E6E6"/>
<path d="M154.188 219.069L157.292 217.362L158.068 220.311L157.603 222.639L155.43 224.656H154.654L154.499 220.156L154.188 219.069Z" fill="#0A0803"/>
<path d="M164.585 216.273L181.346 207.272L182.587 211.307L183.208 215.497L182.432 219.221L181.191 221.084L164.896 230.395L166.137 227.912L166.292 223.256L165.361 217.98L164.585 216.273Z" fill="#0A0803"/>
<path d="M107.789 216.586L114.152 213.172L115.704 217.828L116.169 222.173L115.393 225.121L113.841 227.294L108.099 229.932L109.807 226.984L109.651 220.621L107.789 216.586Z" fill="#0A0803"/>
</g>
</g>
<defs>
<clipPath id="clip0_33897_74079">
<rect width="633" height="424" fill="white"/>
</clipPath>
</defs>
</svg>
