<svg width="633" height="424" viewBox="0 0 633 424" fill="none" xmlns="http://www.w3.org/2000/svg">
<g clip-path="url(#clip0_33897_74423)">
<g opacity="0.08">
<path d="M246.876 218.616V113.681L277.525 110.564V121.646L359.604 74.2003C373.803 66.0617 395.275 65.0228 407.742 72.2955L388.868 62.2522L387.829 56.3647H425.232V159.742C425.405 165.283 421.249 171.343 413.283 175.846L312.331 234.028C298.132 242.339 276.66 243.205 264.192 236.105L255.015 230.218C252.764 229.179 250.859 227.621 249.474 225.543C248.088 223.465 247.049 221.041 246.876 218.616Z" fill="#E6E6E6"/>
<path d="M285.133 243.034C295.004 243.208 304.701 240.783 313.359 235.935L414.311 177.58C422.796 172.731 427.471 166.151 427.125 159.571V54.1162H385.22L386.952 63.4669L390.934 65.5448C379.679 64.679 368.597 67.1033 358.727 72.4713L279.592 118.186V108.316L244.96 111.779V218.619C245.307 221.389 246.345 224.16 247.904 226.411C249.462 228.662 251.713 230.567 254.311 231.779L263.142 238.013C269.895 241.649 277.514 243.381 285.133 243.034ZM423.142 58.4452V159.744C423.142 164.939 419.506 170.134 412.406 174.117L311.454 232.472C297.774 240.437 277.168 241.303 265.393 234.55L256.216 228.489C254.311 227.623 252.579 226.238 251.194 224.506C249.982 222.775 249.116 220.697 248.77 218.619H246.692H248.77V115.761L275.263 113.164V125.458L360.458 76.2808C373.618 68.6617 393.012 67.6227 404.96 73.5102L406.519 74.376L408.424 70.7396L406.865 69.8738L390.415 61.2158L389.896 58.7915L423.142 58.4452Z" fill="#0A0803"/>
<path d="M304.018 238.009C300.554 239.221 296.918 239.914 293.455 240.433V92.554H304.018V238.009Z" fill="#0A0803"/>
<path d="M291.202 242.859L293.453 242.512C297.262 241.993 300.899 241.127 304.535 239.915L305.92 239.395V90.4773H291.202V242.859ZM301.938 236.452C299.86 237.144 297.609 237.664 295.358 238.01V94.46H301.938V236.452Z" fill="#0A0803"/>
<path d="M413.629 56.0164H425.231V159.393C425.404 164.934 421.595 170.822 413.803 175.151L413.629 56.0164Z" fill="#0A0803"/>
<path d="M411.54 178.962L414.657 177.057C422.969 172.209 427.471 165.629 427.124 159.222V53.9399H411.367L411.54 178.962ZM423.142 58.0958V159.395C422.969 161.819 422.276 164.243 420.891 166.321C419.679 168.399 417.774 170.304 415.696 171.516V57.9226L423.142 58.0958Z" fill="#0A0803"/>
<path d="M277.346 121.816L282.194 123.547L282.541 240.95C276.134 240.777 269.9 239.219 264.186 236.275L255.008 230.041C252.757 229.002 250.852 227.444 249.467 225.366C248.082 223.288 247.043 221.037 246.696 218.613V113.677L277.346 110.56V121.816Z" fill="#0A0803"/>
<path d="M284.622 243.203L284.275 122.164L279.427 120.432V108.484L244.795 111.947V218.787C245.141 221.558 246.18 224.328 247.738 226.579C249.297 228.831 251.548 230.735 254.145 231.947L263.15 238.008C269.037 241.298 275.79 243.03 282.544 243.03L284.622 243.203ZM280.119 124.934L280.466 238.701C275.098 238.354 269.903 236.969 265.228 234.372L256.05 228.311C254.145 227.445 252.414 226.06 251.029 224.328C249.816 222.597 248.951 220.519 248.604 218.441V115.583L275.098 112.986V123.203L280.119 124.934Z" fill="#0A0803"/>
<path d="M256.226 131.687H260.381V229.523H256.226V131.687Z" fill="#E6E6E6"/>
<path d="M333.112 229.35V146.059L357.354 143.635V152.466L422.636 114.89C433.891 108.31 451.034 107.618 460.731 113.332L498.48 134.804L497.614 130.129H527.398V212.207C527.398 216.709 524.454 221.384 518.047 225.021L437.874 271.254C426.618 277.835 409.475 278.527 399.778 272.813L339.692 238.527C337.96 237.661 336.402 236.449 335.19 234.891C333.978 233.159 333.285 231.254 333.112 229.35Z" fill="#E6E6E6"/>
<path d="M416.221 278.528C424.187 278.528 431.806 276.623 438.905 272.987L519.079 226.753C526.005 222.77 529.641 217.402 529.468 212.034V128.051H495.182L495.702 130.822L461.762 111.601C451.373 105.714 433.364 106.406 421.589 113.16L359.425 149.004V141.558L331.026 144.328V229.697C331.372 231.948 332.065 234.199 333.45 236.104C334.836 238.008 336.567 239.567 338.645 240.433L398.732 274.718C404.1 277.316 410.16 278.701 416.221 278.528ZM525.312 132.207V212.207C525.312 216.19 522.542 220.173 517.001 223.29L436.827 269.524C426.091 275.757 409.814 276.45 400.637 271.082L340.55 236.796C339.165 236.104 337.779 235.065 336.914 233.853C335.875 232.64 335.355 231.082 335.009 229.524V148.138L355.096 146.06V156.103L423.321 116.623C434.057 110.389 450.161 109.696 459.511 115.064L501.243 138.787L500.031 132.207H525.312Z" fill="#0A0803"/>
<path d="M518.22 129.784H527.398V211.689C527.398 216.018 524.454 220.694 518.22 224.33V129.784Z" fill="#0A0803"/>
<path d="M516.135 228.145L519.252 226.24C526.005 222.257 529.641 217.063 529.468 211.695V127.712H516.135V228.145ZM525.312 131.694V211.695C525.312 213.426 524.793 215.158 523.927 216.716C523.061 218.275 521.849 219.487 520.291 220.526V131.694H525.312Z" fill="#0A0803"/>
<path d="M357.356 152.469L422.638 114.893C433.893 108.486 451.036 107.62 460.733 113.335L413.633 136.538L414.326 276.625C409.304 276.452 404.282 275.067 399.78 272.643L339.694 238.357C337.962 237.491 336.404 236.279 335.191 234.72C333.979 233.162 333.287 231.257 333.113 229.352V145.889L357.356 143.465V152.469Z" fill="#0A0803"/>
<path d="M416.223 278.698L415.53 137.572L465.054 113.33L461.764 111.425C451.374 105.537 433.366 106.23 421.591 112.983L359.426 148.828V141.382L331.028 144.152V229.52C331.374 231.771 332.067 234.023 333.452 235.927C334.837 237.832 336.569 239.391 338.647 240.256L398.734 274.542C403.582 277.14 408.777 278.352 414.145 278.525L416.223 278.698ZM455.877 113.33L411.548 135.148V136.36L412.24 274.369C408.258 274.023 404.275 272.984 400.812 271.079L340.725 236.793C339.34 236.101 337.954 235.062 337.088 233.849C336.049 232.637 335.53 231.079 335.184 229.52L333.106 229.347H335.184V148.308L355.27 146.23V156.273L423.496 116.793C428.344 114.195 433.712 112.464 439.426 111.944C444.967 111.079 450.509 111.598 455.877 113.33Z" fill="#0A0803"/>
<path d="M340.038 160.262H344.194V238.011H340.038V160.262Z" fill="#E6E6E6"/>
<path d="M402.369 194.541H406.525V272.29H402.369V194.541Z" fill="#E6E6E6"/>
<path d="M425.222 322.338C425.222 322.164 425.222 321.991 425.222 321.818V217.402L455.871 214.285V225.368L537.949 177.922C552.148 169.783 573.62 168.744 586.088 176.017L633.534 203.03L632.495 197.142H669.898V300.519C670.071 306.061 665.915 312.121 657.95 316.623L556.997 374.978C542.798 383.29 521.326 384.156 508.858 377.056L433.187 333.766C430.936 332.727 429.031 331.169 427.646 329.091C426.261 327.013 425.395 324.762 425.222 322.338Z" fill="#E6E6E6"/>
<path d="M529.99 383.988C539.86 384.161 549.557 381.737 558.215 376.889L659.168 318.534C667.653 313.685 672.328 307.105 671.982 300.525V195.07H630.077L630.77 199.053L586.96 174.118C574.146 166.672 551.635 167.537 536.743 176.022L457.609 221.737V211.867L422.977 215.33V321.65C422.977 321.824 422.977 321.997 422.977 322.17C423.323 324.94 424.362 327.711 425.921 329.962C427.652 332.213 429.73 334.118 432.328 335.33L508.172 378.62C514.925 382.43 522.544 384.161 529.99 383.988ZM667.999 199.399V300.698C668.172 305.893 664.363 311.088 657.263 315.07L556.311 373.425C542.631 381.391 522.025 382.257 510.25 375.503L434.579 332.213C432.674 331.347 430.942 329.962 429.73 328.231C428.518 326.499 427.652 324.594 427.306 322.343H425.228H427.306V219.486L453.8 216.888V229.183L538.995 180.005C552.674 172.04 573.28 171.347 585.055 178.1L636.484 207.364L634.926 199.399H667.999Z" fill="#0A0803"/>
<path d="M548.866 378.792C545.403 380.004 541.767 380.697 538.13 381.216V233.337H548.866V378.792Z" fill="#0A0803"/>
<path d="M535.882 383.634L538.133 383.288C541.943 382.768 545.579 381.902 549.215 380.69L550.601 380.171V231.253H535.882V383.634ZM546.618 377.4C544.54 378.093 542.289 378.612 540.038 378.959V235.409H546.618V377.4Z" fill="#0A0803"/>
<path d="M455.702 225.542L537.78 178.096C551.979 169.957 573.451 168.918 585.918 176.191L526.524 205.455L527.39 382.079C520.983 381.906 514.749 380.347 509.035 377.404L433.364 334.113C431.113 333.074 429.208 331.516 427.823 329.438C426.438 327.36 425.572 325.109 425.225 322.685C425.225 322.512 425.225 322.339 425.225 322.165V217.75L455.875 214.633L455.702 225.542Z" fill="#0A0803"/>
<path d="M529.468 383.987L528.602 206.498L590.248 176.194L586.957 174.29C574.144 166.844 551.633 167.71 536.741 176.194L457.606 221.909V212.039L422.974 215.502V321.823C422.974 321.996 422.974 322.169 422.974 322.515C423.321 325.286 424.36 328.056 425.918 330.307C427.477 332.559 429.728 334.463 432.325 335.675L508.169 378.966C514.057 382.082 520.637 383.814 527.39 383.987H529.468ZM581.243 176.021L524.447 204.073V205.285L525.312 379.658C519.944 379.312 514.75 377.927 510.074 375.329L434.403 332.039C432.498 331.173 430.767 329.788 429.555 328.056C428.342 326.325 427.477 324.42 427.13 322.169V219.311L453.624 216.714V229.008L538.992 180.004C545.399 176.541 552.498 174.29 559.771 173.597C567.044 172.904 574.317 173.77 581.243 176.021Z" fill="#0A0803"/>
<path d="M434.578 235.41H438.733V333.246H434.578V235.41Z" fill="#E6E6E6"/>
<path d="M513.017 278.536H517.173V376.371H513.017V278.536Z" fill="#E6E6E6"/>
<path d="M246.871 115.409V80.2575L277.52 77.1406V88.2229L359.599 40.7769C373.798 32.6383 395.27 31.5994 407.737 38.8721L633.712 169.435L632.673 163.548H670.076V197.141C670.249 202.682 666.266 208.743 658.128 213.245L557.175 271.6C542.976 279.912 521.504 280.778 509.036 273.505L255.183 127.011C252.932 125.972 251.027 124.413 249.642 122.336C248.256 120.258 247.217 118.007 246.871 115.409Z" fill="#E6E6E6"/>
<path d="M529.99 280.439C539.86 280.612 549.557 278.188 558.215 273.339L659.168 215.157C667.653 210.309 672.328 203.729 671.982 197.149V161.478H630.077L630.77 165.46L408.778 37.3214C395.964 29.8755 373.453 30.7413 358.561 39.2262L279.427 84.9406V75.0704L244.795 78.5337V117.668H245.141C245.834 120.092 246.873 122.343 248.431 124.248C249.99 126.153 251.894 127.711 254.145 128.75L507.999 275.244C514.752 278.881 522.371 280.612 529.99 280.439ZM667.826 165.633V197.322C667.999 202.344 664.19 207.712 657.09 211.694L556.138 269.53C542.458 277.495 521.852 278.361 510.077 271.435L256.223 125.114C254.319 124.248 252.587 122.863 251.375 121.131C250.163 119.4 249.297 117.495 248.951 115.244V115.071V81.9969L275.444 79.3995V91.6938L360.639 42.5162C374.319 34.5508 394.925 33.685 406.7 40.4383L636.484 173.079L634.926 165.114L667.826 165.633Z" fill="#0A0803"/>
<path d="M548.692 275.412C545.229 276.624 541.593 277.316 537.956 277.836V199.567H548.692V275.412Z" fill="#0A0803"/>
<path d="M535.882 280.262L538.133 279.916C541.943 279.397 545.579 278.531 549.215 277.319L550.601 276.799V197.665H535.882V280.262ZM546.618 273.855C544.367 274.548 542.289 275.068 540.038 275.414V201.647H546.618V273.855Z" fill="#0A0803"/>
<path d="M277.527 88.3992L359.605 40.9532C373.804 32.8146 395.276 31.7756 407.744 39.0484L527.398 108.139V278.53C520.991 278.356 514.757 276.798 509.043 273.854L255.016 127.533C252.765 126.495 250.86 124.936 249.475 122.858C248.09 120.78 247.051 118.529 246.705 116.105V80.7801L277.354 77.6632L277.527 88.3992Z" fill="#0A0803"/>
<path d="M529.47 280.439V106.932L408.777 37.3214C395.963 29.8755 373.453 30.7413 358.561 39.2262L279.426 84.9406V75.0704L244.794 78.5336V115.763L244.967 117.668C245.66 120.092 246.699 122.343 248.257 124.248C249.816 126.153 251.894 127.711 253.972 128.923L507.825 275.244C513.713 278.361 520.293 280.093 527.046 280.266L529.47 280.439ZM525.488 109.183V276.11C520.12 275.764 514.925 274.378 510.249 271.781L256.396 125.287C254.491 124.421 252.76 123.036 251.547 121.304C250.335 119.573 249.469 117.668 249.123 115.417V115.244V82.17L275.617 79.5726V91.867L360.812 42.6894C374.491 34.724 395.098 33.8582 406.873 40.6115L525.488 109.183Z" fill="#0A0803"/>
<path d="M255.183 93.0742L509.036 239.395C521.331 246.495 542.976 245.629 557.175 237.49L658.127 179.135C672.327 170.823 673.885 158.529 661.591 151.429L407.737 5.10863C395.443 -1.99095 373.798 -1.12514 359.599 7.01341L258.646 65.3685C244.447 73.5071 242.888 85.9747 255.183 93.0742Z" fill="#FCFCFC"/>
<path d="M529.988 246.495C539.858 246.495 549.555 244.071 558.213 239.396L659.166 181.041C667.304 176.365 671.979 169.958 671.979 163.551C671.806 160.608 670.767 157.837 669.209 155.413C667.477 152.989 665.226 151.084 662.629 149.699L408.775 3.20472C395.961 -4.24119 373.451 -3.3754 358.559 5.10947L257.606 63.4646C249.467 68.14 244.792 74.5469 244.792 80.9538C244.965 83.8976 246.004 86.6681 247.563 89.0924C249.294 91.5166 251.545 93.4214 254.143 94.8067L507.996 241.301C514.75 244.937 522.369 246.669 529.988 246.495ZM386.784 2.16575C393.71 1.99259 400.464 3.55104 406.524 6.66793L660.378 153.335C662.456 154.201 664.187 155.586 665.399 157.491C666.785 159.222 667.477 161.474 667.65 163.551C667.65 168.4 663.668 173.595 656.914 177.404L555.962 235.759C542.282 243.725 521.676 244.591 509.901 237.664L256.047 91.1703C253.97 90.3045 252.238 88.7461 251.026 87.0145C249.814 85.2828 248.948 83.0318 248.775 80.9538C248.775 76.1053 252.757 70.9105 259.511 67.101L360.637 8.57268C368.775 4.24367 377.606 2.16575 386.784 2.16575Z" fill="#0A0803"/>
<path d="M256.226 98.2671H260.381V126.319H256.226V98.2671Z" fill="#E6E6E6"/>
<path d="M513.017 244.766H517.173V272.818H513.017V244.766Z" fill="#E6E6E6"/>
<path d="M277.351 128.4C278.217 128.4 278.91 128.227 279.602 127.881C280.468 127.361 280.988 126.669 281.507 125.803C282.026 124.937 282.2 123.898 282.026 123.032C282.026 120.955 281.334 119.05 280.295 117.145C279.256 115.413 277.871 113.855 276.139 112.816C275.273 112.297 274.407 111.95 273.368 111.95C272.503 111.95 271.464 112.123 270.598 112.47C269.732 112.989 269.213 113.682 268.693 114.548C268.174 115.413 268 116.452 268.174 117.318C268.174 119.396 268.866 121.301 269.905 123.206C270.944 124.937 272.329 126.496 274.061 127.535C275.1 128.054 276.139 128.227 277.351 128.4ZM273.022 115.76C273.368 115.76 273.888 115.933 274.061 116.106C275.1 116.799 276.139 117.838 276.832 118.877C277.524 120.089 277.871 121.301 278.044 122.686C278.044 123.552 277.697 123.898 277.697 124.071C277.697 124.245 277.178 124.071 276.312 123.725C275.273 123.032 274.234 121.993 273.542 120.781C272.849 119.569 272.503 118.357 272.329 116.972C272.329 116.106 272.503 115.76 272.676 115.587L273.022 115.76Z" fill="#E6E6E6"/>
<path d="M289.299 128.227C289.299 129.959 289.818 131.517 290.684 133.076C291.55 134.461 292.762 135.846 294.147 136.712C296.744 138.27 298.996 137.058 298.996 133.941C298.996 132.21 298.476 130.651 297.61 129.093C296.744 127.708 295.532 126.322 294.147 125.456C291.376 123.898 289.299 125.11 289.299 128.227Z" fill="#E6E6E6"/>
<path d="M494.667 254.118C495.533 254.118 496.226 253.945 496.918 253.598C497.784 253.079 498.304 252.386 498.823 251.521C499.343 250.655 499.516 249.616 499.343 248.75C499.343 246.672 498.65 244.767 497.611 243.036C496.572 241.304 495.187 239.746 493.455 238.707C492.589 238.187 491.724 237.841 490.685 237.841C489.646 237.841 488.78 238.014 487.914 238.36C487.048 238.88 486.529 239.572 486.009 240.438C485.49 241.304 485.317 242.343 485.49 243.209C485.49 245.287 486.183 247.191 487.222 249.096C488.26 250.828 489.646 252.386 491.377 253.425C492.243 253.598 493.455 253.945 494.667 254.118ZM490.165 241.477C490.512 241.477 491.031 241.65 491.377 241.824C492.416 242.516 493.455 243.555 494.148 244.594C494.841 245.806 495.187 247.018 495.36 248.404C495.36 249.269 495.187 249.789 495.014 249.789C494.841 249.789 494.494 249.789 493.628 249.443C492.59 248.75 491.551 247.711 490.858 246.672C490.165 245.46 489.819 244.248 489.646 242.863C489.646 241.997 489.992 241.65 490.165 241.477Z" fill="#E6E6E6"/>
<path d="M265.394 131.168L509.724 272.294L507.646 275.93L263.316 134.804L265.394 131.168Z" fill="#E6E6E6"/>
<path d="M301.938 -28.4816L346.094 -53.9362C354.579 -58.7847 362.198 -59.131 368.085 -55.6678L398.562 -38.3517L387.133 -0.602722L299.167 94.8088C299.167 94.8088 299.167 94.8088 298.994 94.8088L268.345 77.3196V35.4147C268.345 10.8259 283.41 -17.9188 301.938 -28.4816Z" fill="#FCFCFC"/>
<path d="M299.52 97.5695L300.905 96.1842L389.044 0.772659L400.992 -39.0543L367.919 -57.9288C364.282 -59.4872 360.126 -60.0067 356.317 -59.6604C352.334 -59.3141 348.524 -57.9288 345.234 -55.6777L301.252 -30.2231C282.204 -19.1408 266.62 10.4697 266.62 35.7511V78.8681L299.52 97.5695ZM385.235 -1.65158L298.654 92.2015L270.429 76.0975V35.4048C270.429 11.3355 284.975 -16.5434 302.983 -26.933L346.966 -52.3876C354.412 -56.7167 361.511 -57.2361 366.706 -54.1193L368.092 -53.4266L395.797 -37.669L385.235 -1.65158Z" fill="#0A0803"/>
<path d="M268.346 76.9626V35.0577C268.346 27.9581 269.558 20.8586 271.636 13.9321L302.112 31.9408L326.181 33.4993L321.333 65.3608L299.168 94.2787C299.168 94.2787 299.168 94.2787 298.995 94.2787L268.346 76.9626Z" fill="#0A0803"/>
<path d="M299.508 97.0615L300.894 95.503L323.405 66.2389L328.772 31.6067L302.972 29.8751L270.591 10.6543L269.898 13.2517C267.82 20.3513 266.608 27.624 266.608 34.8968V78.0138L299.508 97.0615ZM319.249 64.6804L298.643 91.6935L270.591 75.9359V35.2431C270.591 29.1825 271.456 23.1218 273.015 17.2344L301.759 34.2041L324.097 35.5894L319.249 64.6804Z" fill="#0A0803"/>
<path d="M281.854 -8.21948L312.157 9.96239L318.217 21.9105L302.46 31.9538L271.983 13.9451C274.235 6.15286 277.698 -1.46622 281.854 -8.21948Z" fill="#E6E6E6"/>
<path d="M302.281 34.1986L320.982 22.2506L313.883 8.22455L281.329 -11.1694L280.29 -9.43783C275.787 -2.33824 272.324 5.28083 269.9 13.0731L269.381 14.6315L302.281 34.1986ZM315.614 20.8653L302.281 29.3501L274.402 12.8999C276.48 6.49294 279.251 0.259173 282.714 -5.45513L310.766 11.3414L315.614 20.8653Z" fill="#0A0803"/>
<path d="M299.339 94.8118L410.162 30.7423V-11.1625C410.162 -35.9245 395.097 -47.18 376.569 -36.6172L332.413 -11.1625C313.885 -0.42659 298.82 28.3181 298.82 52.9069V94.4654C298.993 94.4654 299.339 94.8118 299.339 94.8118Z" fill="#E6E6E6"/>
<path d="M299.166 97.2271L300.378 96.7076L412.413 32.1187V-10.9983C412.413 -24.678 407.737 -35.2408 399.772 -39.9161C393.019 -43.8988 384.534 -43.2062 375.703 -38.1845L331.547 -12.7299C312.499 -1.6476 296.915 27.7897 296.915 53.2443V95.6687L299.166 97.2271ZM408.257 29.5213L301.244 91.3396V53.0712C301.244 29.0018 315.789 1.12297 333.798 -9.26667L377.78 -34.7213C385.226 -39.0503 392.326 -39.5698 397.521 -36.4529C404.274 -32.4702 408.084 -23.2927 408.084 -10.9983L408.257 29.5213Z" fill="#0A0803"/>
<path d="M350.08 3.03213C354.582 0.434721 358.391 1.4737 359.95 4.93691C361.508 7.70748 362.374 10.8244 362.374 14.1144C362.547 16.3655 362.028 18.6166 360.989 20.5214C359.95 22.5993 358.391 24.1577 356.486 25.3699C353.543 27.7941 349.906 29.0062 346.097 28.8331C342.114 29.3526 339.344 26.582 339.344 21.3872C339.517 17.7508 340.556 14.1144 342.46 10.9975C344.365 7.88064 346.963 5.11006 350.08 3.03213Z" fill="#0A0803"/>
<path d="M345.225 31.087H346.091C350.247 31.2602 354.403 29.8749 357.693 27.1043C359.771 25.719 361.502 23.6411 362.714 21.39C363.927 19.1389 364.446 16.5415 364.273 13.9441C364.273 10.4809 363.407 6.84451 361.502 3.90078C361.156 3.03497 360.463 2.16918 359.771 1.47654C359.078 0.783896 358.039 0.264398 357.173 -0.0819232C355.788 -0.428244 354.403 -0.601389 353.017 -0.255068C351.632 -0.0819074 350.247 0.437564 349.035 1.30337C345.571 3.38129 342.628 6.49819 340.55 9.9614C338.472 13.4246 337.26 17.4073 337.087 21.5632C336.913 22.9484 337.087 24.5069 337.606 25.8922C338.126 27.2775 338.991 28.4896 340.03 29.5286C340.723 30.2212 341.589 30.5675 342.455 30.9138C343.32 31.087 344.359 31.2602 345.225 31.087ZM346.091 26.9311C345.571 26.9311 345.052 26.9311 344.533 26.9311C344.013 26.758 343.667 26.5848 343.147 26.2385C342.628 25.5459 342.108 24.8532 341.935 23.9874C341.589 23.1216 341.589 22.2558 341.589 21.39C341.762 18.1 342.801 14.8099 344.359 11.8662C346.091 8.92244 348.342 6.49819 351.113 4.76658C351.805 4.2471 352.671 3.90079 353.364 3.72763C354.23 3.55447 355.095 3.55447 355.961 3.72763C356.481 3.90079 356.827 4.07394 357.173 4.42026C357.519 4.76658 357.866 5.1129 358.039 5.63238C359.424 8.22979 360.29 11.0004 360.29 13.9441V14.4636C360.29 16.3684 359.944 18.2731 359.078 19.8315C358.212 21.5632 356.827 22.9484 355.268 23.8142C352.671 25.8922 349.554 26.9311 346.264 26.758L346.091 26.9311Z" fill="#0A0803"/>
<path d="M356.304 17.2305C353.36 19.6547 349.724 20.8669 345.914 20.6937C344.529 20.8669 343.317 20.6937 342.278 20.0011C341.239 19.3084 340.373 18.2695 340.027 17.0574C341.412 11.3431 345.049 6.32139 350.07 3.2045C354.572 0.607093 358.382 1.64604 359.94 5.10925C360.806 6.6677 361.499 8.39932 361.845 10.1309C360.633 12.9015 358.901 15.4989 356.304 17.2305Z" fill="#E6E6E6"/>
<path d="M345.226 22.7753H346.091C350.247 22.9485 354.403 21.5632 357.693 18.7926C360.464 16.7147 362.542 13.7709 363.754 10.4809V9.9614V9.44191C363.234 7.53714 362.542 5.63238 361.503 3.90078C361.156 3.03497 360.464 2.16918 359.771 1.47654C359.078 0.783896 358.04 0.264398 357.174 -0.0819232C355.788 -0.428244 354.403 -0.601389 353.018 -0.255068C351.633 -0.0819073 350.247 0.437564 349.035 1.30337C343.667 4.76658 339.858 10.3077 338.299 16.3683V17.061L338.472 17.7536C338.992 19.1389 339.858 20.351 341.07 21.39C342.282 22.2558 343.667 22.7753 345.226 22.7753ZM345.918 18.6194C345.226 18.7926 344.533 18.6194 343.84 18.2731C343.148 17.9268 342.628 17.4073 342.282 16.7147C343.667 11.8662 346.784 7.71031 351.113 4.76658C351.806 4.2471 352.672 3.90079 353.364 3.72763C354.23 3.55447 355.096 3.55447 355.962 3.72763C356.481 3.90079 356.827 4.07394 357.174 4.42026C357.52 4.76659 357.866 5.1129 358.04 5.63238C358.732 6.84451 359.425 8.2298 359.771 9.61508C358.732 11.8662 357.174 13.9441 355.269 15.3294C352.672 17.4073 349.555 18.4463 346.265 18.2731H345.918V18.6194Z" fill="#0A0803"/>
<path d="M343.317 9.78541C345.049 7.01484 347.3 4.76374 350.07 3.03213C354.572 0.434721 358.382 1.4737 359.94 4.93691C360.806 6.49535 361.499 8.22695 361.845 9.95856C361.326 11.6902 360.46 13.2486 359.248 14.4607L351.802 15.3265L343.317 9.78541Z" fill="#FCFCFC"/>
<path d="M351.118 17.5753L360.123 16.7095L360.642 16.0168C362.027 14.4584 362.893 12.7268 363.586 10.6489V10.1294V9.6099C363.066 7.70513 362.374 5.80037 361.335 4.06876C360.988 3.20296 360.296 2.33714 359.603 1.6445C358.911 0.951856 357.872 0.432385 357.006 0.0860633C355.62 -0.260258 354.235 -0.433429 352.85 -0.0871079C351.465 0.0860527 350.079 0.60555 348.867 1.47135C345.924 3.37612 343.326 5.80037 341.421 8.91726L340.382 10.6489L351.118 17.5753ZM358.045 12.5536L352.157 13.0731L346.097 9.09041C347.482 7.3588 349.04 5.80036 350.945 4.76139C351.638 4.24191 352.504 3.89561 353.196 3.72245C354.062 3.54929 354.928 3.54929 355.794 3.72245C356.313 3.89561 356.659 4.06876 357.006 4.41508C357.352 4.7614 357.698 5.10772 357.872 5.6272C358.564 6.83932 359.257 8.22461 359.603 9.6099C359.084 10.6489 358.564 11.6878 358.045 12.5536Z" fill="#0A0803"/>
<path d="M360.465 3.20809C367.391 -0.774608 373.279 0.610683 375.876 6.32498C378.474 10.654 379.859 15.6756 379.859 20.6973C379.859 20.6973 381.591 29.8748 370.682 38.5328C366.179 42.3424 360.465 44.2472 354.578 43.9008C348.344 44.5935 344.015 40.2644 344.015 31.9527C344.361 26.2384 345.92 20.5241 348.863 15.6756C351.634 10.654 355.617 6.32498 360.465 3.20809Z" fill="#E6E6E6"/>
<path d="M353.02 45.9754H354.406C360.813 46.3218 366.873 44.0707 371.895 40.088C382.804 31.43 381.938 22.2524 381.765 20.5208C381.765 15.1529 380.38 9.95803 377.782 5.2827C377.263 3.89741 376.397 2.68528 375.185 1.64631C374.146 0.607347 372.761 -0.0852739 371.376 -0.604756C369.298 -1.12424 367.22 -1.12425 365.315 -0.777927C363.237 -0.431606 361.332 0.261042 359.601 1.47317C354.406 4.76322 350.077 9.26538 347.133 14.6334C344.016 20.0013 342.285 25.8888 341.938 32.1226C341.765 34.2005 342.111 36.2785 342.804 38.1832C343.497 40.088 344.709 41.9928 346.094 43.378C348.172 45.1096 350.596 45.9754 353.02 45.9754ZM354.233 41.8196C353.367 41.9928 352.328 41.9928 351.462 41.6464C350.596 41.4733 349.73 40.9538 349.038 40.2611C347.999 39.2222 347.133 37.8369 346.787 36.4516C346.267 35.0663 346.094 33.5079 346.267 31.9494C346.614 26.5814 348.172 21.2135 350.943 16.5381C353.713 11.8628 357.523 7.88011 362.025 4.93638C363.237 4.07058 364.622 3.55109 366.181 3.20477C367.566 2.85845 369.124 2.85845 370.683 3.20477C371.549 3.55109 372.415 4.07057 373.107 4.76321C373.8 5.45585 374.319 6.32167 374.665 7.18747C377.09 11.3433 378.302 15.8455 378.302 20.694V21.2135C378.302 21.5598 379.687 29.352 369.99 36.9711C365.834 40.4343 360.466 42.1659 355.098 41.9927L354.233 41.8196Z" fill="#0A0803"/>
<path d="M351.637 10.995C354.062 7.87813 357.005 5.10755 360.469 3.02962C367.395 -0.953074 373.456 0.432216 375.88 6.14652C378.477 10.4755 379.863 15.4972 379.863 20.5189C380.036 22.7699 379.863 25.021 378.997 27.099L364.105 20.1725L351.637 10.995Z" fill="#FCFCFC"/>
<path d="M380.039 29.87L380.731 27.6189C381.597 25.3678 381.77 22.7704 381.597 20.3461C381.597 14.9781 380.212 9.78332 377.614 5.10798C377.095 3.7227 376.229 2.51057 375.017 1.64477C373.978 0.605804 372.593 -0.0868174 371.207 -0.606299C369.129 -1.12578 367.051 -1.29896 364.974 -0.952642C362.896 -0.606321 360.991 0.259488 359.259 1.29845C355.623 3.54954 352.333 6.32013 349.909 9.78334L348.696 11.5149L362.896 22.0777L380.039 29.87ZM367.917 2.85691C368.61 2.85691 369.303 3.03007 370.168 3.20323C371.034 3.54955 371.9 4.06902 372.593 4.76166C373.285 5.45431 373.805 6.32013 374.151 7.18593C376.575 11.1686 377.787 15.844 377.787 20.5193V21.0388C377.961 22.0777 377.961 23.2899 377.787 24.3288L365.32 18.4414L354.93 10.8223C356.835 8.5712 359.259 6.49328 361.857 4.93484C363.588 3.72271 365.666 3.03007 367.917 2.85691Z" fill="#0A0803"/>
<path d="M360.641 25.8856L375.533 33.3315C374.147 35.2363 372.416 36.9679 370.511 38.3532C366.009 42.1627 360.295 44.0675 354.407 43.7211C348.173 44.4138 343.844 40.0848 343.844 31.7731C344.018 27.0977 345.057 22.5956 347.135 18.4397L360.641 25.8856Z" fill="#0A0803"/>
<path d="M353.015 45.9742H354.401C360.808 46.3205 366.868 44.0694 371.89 40.0867C373.795 38.5283 375.699 36.7967 377.258 34.7187L378.816 32.814L361.673 24.1559L346.262 15.8442L345.397 17.749C343.145 22.2512 341.933 27.0997 341.933 31.9482C341.76 34.0261 342.106 36.104 342.799 38.0088C343.492 39.9135 344.704 41.8183 346.089 43.2036C347.994 45.1084 350.418 45.9742 353.015 45.9742ZM354.228 41.8183C353.362 41.9915 352.323 41.9915 351.457 41.6452C350.591 41.472 349.726 40.9525 349.033 40.2599C347.994 39.2209 347.128 37.8356 346.782 36.4503C346.262 35.0651 346.089 33.5066 346.262 31.9482C346.262 28.3118 347.128 24.8486 348.513 21.3854L360.115 27.6191L372.583 33.8529C371.717 34.8919 370.678 35.7577 369.639 36.6235C365.483 40.0867 360.115 41.8183 354.747 41.6452H354.228V41.8183Z" fill="#0A0803"/>
<path d="M359.079 33.1598C359.079 39.7399 363.755 42.3373 369.469 39.0473C372.413 37.1425 375.01 34.3719 376.742 31.2551C378.474 28.1382 379.512 24.675 379.686 21.0386C379.686 14.4585 375.183 11.8611 369.469 15.1511C366.525 17.0559 363.928 19.8264 362.196 22.9433C360.292 26.0602 359.253 29.6966 359.079 33.1598Z" fill="#E6E6E6"/>
<path d="M364.8 42.6878C366.705 42.6878 368.783 41.9951 370.515 40.9562C373.805 38.8782 376.575 35.9345 378.653 32.4713C380.558 29.0081 381.77 25.1985 381.943 21.2158C382.116 19.6574 381.77 17.9258 381.077 16.3673C380.385 14.8089 379.346 13.5968 377.96 12.731C376.575 12.0383 374.844 11.692 373.285 11.8652C371.554 12.0383 369.995 12.5578 368.783 13.4236C365.493 15.5015 362.722 18.4453 360.644 21.9085C358.74 25.3717 357.527 29.1812 357.354 33.1639C357.181 34.7224 357.527 36.454 358.22 38.0124C358.913 39.5709 359.952 40.783 361.337 41.6488C362.203 42.3414 363.415 42.6878 364.8 42.6878ZM373.978 16.021C374.497 16.021 375.19 16.1942 375.709 16.3673C376.402 16.8868 376.921 17.7526 377.268 18.6184C377.614 19.4842 377.787 20.35 377.614 21.389C377.441 24.6791 376.402 27.796 374.844 30.5665C373.285 33.3371 371.034 35.7613 368.263 37.493C367.571 38.0124 366.705 38.3587 365.666 38.5319C364.8 38.7051 363.761 38.5319 362.896 38.1856C362.203 37.6661 361.683 36.8003 361.337 35.9345C360.991 35.0687 360.818 34.2029 360.991 33.1639C361.164 29.8739 362.203 26.757 363.761 23.9864C365.32 21.2158 367.571 18.7916 370.341 17.06C371.38 16.3673 372.592 16.021 373.631 15.8479L373.978 16.021Z" fill="#0A0803"/>
<path d="M370.677 34.2021L445.829 77.4923C446.695 78.0118 447.734 78.185 448.6 78.185C449.639 78.185 450.504 78.0118 451.37 77.4923C452.236 76.9728 452.929 76.2802 453.448 75.4144C453.968 74.5486 454.141 73.5096 454.141 72.6438C454.141 71.6048 453.794 70.739 453.448 69.8732C452.929 69.0074 452.236 68.3148 451.37 67.7953L376.218 24.5052C375.353 23.9857 374.314 23.8125 373.448 23.8125C372.409 23.8125 371.543 24.1588 370.677 24.5052C369.811 25.0246 369.119 25.7173 368.599 26.5831C368.08 27.4489 367.907 28.3147 367.907 29.3536C367.907 30.3926 368.08 31.2584 368.599 32.1242C369.119 32.99 369.811 33.6827 370.677 34.2021Z" fill="#FCFCFC"/>
<path d="M448.774 80.2641C450.16 80.2641 451.545 79.9178 452.757 79.2252C453.969 78.5325 455.008 77.6667 455.701 76.4546C456.393 75.2425 456.74 74.0303 456.74 72.6451C456.74 71.2598 456.393 69.8745 455.701 68.8355C455.008 67.6234 453.969 66.7576 452.757 66.065L377.605 22.7748C376.393 22.0822 375.181 21.7358 373.796 21.7358C372.41 21.7358 371.025 22.0822 369.986 22.7748C368.774 23.4675 367.735 24.3332 367.043 25.5454C366.35 26.7575 366.004 27.9696 366.004 29.3549C366.004 30.7402 366.35 32.1255 367.043 33.1645C367.735 34.3766 368.774 35.2424 369.986 35.935L445.138 79.2252C446.177 79.9178 447.389 80.2641 448.774 80.2641ZM373.623 25.7185C374.315 25.7185 374.835 25.8917 375.354 26.238L450.506 69.5282C451.025 69.8745 451.545 70.2208 451.891 70.9134C452.238 71.4329 452.411 72.1256 452.411 72.6451C452.411 73.3377 452.238 73.8572 451.891 74.3767C451.545 74.8961 451.199 75.4156 450.506 75.762C449.987 76.1083 449.294 76.2814 448.774 76.2814C448.082 76.2814 447.562 76.1083 447.043 75.762L371.891 32.2986C371.372 31.9523 370.852 31.606 370.506 31.0865C370.16 30.567 369.986 29.8744 369.986 29.3549C369.986 28.6623 370.16 28.1428 370.506 27.6233C370.852 27.1038 371.198 26.5843 371.891 26.238C372.411 25.8917 372.93 25.7185 373.623 25.7185Z" fill="#0A0803"/>
<path d="M432.159 71.9439L433.718 67.9612L432.852 69.866L433.718 67.9612C432.679 67.4417 431.813 66.7491 431.294 65.8833C430.601 65.0175 430.255 63.9785 430.255 62.9396C430.255 62.4201 430.255 61.7274 430.601 61.208C430.774 60.6885 431.294 60.169 431.64 59.9958C431.986 59.8227 432.333 59.6495 432.852 59.6495C433.371 59.6495 433.718 59.8227 434.064 59.9958L436.142 56.3595C435.103 55.84 434.064 55.4937 432.852 55.4937C431.64 55.4937 430.601 55.84 429.562 56.3595C428.523 57.0521 427.484 57.9179 426.965 59.13C426.445 60.3422 426.099 61.5543 426.099 62.9396C426.099 64.8443 426.791 66.7491 427.83 68.3075C429.043 69.866 430.428 71.0781 432.159 71.9439Z" fill="#0A0803"/>
<path d="M421.414 65.7175L422.973 61.908L422.107 63.8128L422.973 61.908C421.934 61.3885 421.068 60.6959 420.548 59.8301C419.856 58.9643 419.509 57.9253 419.509 56.8863C419.509 56.3669 419.51 55.6742 419.856 55.1547C420.029 54.6353 420.549 54.1158 420.895 53.9426C421.241 53.7695 421.761 53.5963 422.107 53.5963C422.453 53.5963 422.973 53.7695 423.319 53.9426L425.397 50.3062C424.358 49.7868 423.319 49.4404 422.107 49.4404C420.895 49.4404 419.856 49.7868 418.817 50.3062C417.778 50.9989 416.739 51.8647 416.219 53.0768C415.7 54.2889 415.354 55.5011 415.354 56.8863C415.354 58.7911 416.046 60.5227 417.085 62.0812C418.297 63.8128 419.856 65.0249 421.414 65.7175Z" fill="#0A0803"/>
<path d="M410.683 59.6538L412.241 55.8443L411.375 57.749L412.241 55.8443C411.202 55.3248 410.336 54.6322 409.817 53.7663C409.124 52.9005 408.778 51.8616 408.778 50.8226C408.778 50.3031 408.778 49.6105 409.124 49.091C409.297 48.5715 409.817 48.0521 410.163 47.8789C410.51 47.7057 411.029 47.5326 411.375 47.5326C411.722 47.5326 412.241 47.7057 412.587 47.8789L414.666 44.2425C413.627 43.723 412.588 43.3767 411.375 43.3767C410.163 43.3767 409.124 43.723 408.085 44.2425C407.046 44.9352 406.007 45.801 405.488 47.0131C404.968 48.2252 404.622 49.4373 404.622 50.8226C404.622 52.7274 405.315 54.459 406.354 56.0174C407.566 57.5759 409.124 58.788 410.683 59.6538Z" fill="#0A0803"/>
<path d="M400.119 53.4251L401.678 49.4424C400.639 48.9229 399.773 48.2303 399.254 47.3645C398.561 46.4987 398.215 45.4597 398.215 44.4208C398.215 43.9013 398.215 43.2086 398.561 42.6892C398.734 42.1697 399.254 41.6502 399.6 41.477C399.946 41.3039 400.466 41.1307 400.812 41.1307C401.158 41.1307 401.678 41.3039 402.024 41.477L404.102 37.8407C403.063 37.3212 402.024 36.9749 400.812 36.9749C399.6 36.9749 398.561 37.3212 397.522 37.8407C396.483 38.5333 395.444 39.3991 394.925 40.6112C394.405 41.8233 394.059 43.0355 394.059 44.4208C394.059 46.3255 394.752 48.2303 395.79 49.7887C396.829 51.3472 398.388 52.7325 400.119 53.4251Z" fill="#0A0803"/>
<path d="M389.392 47.3606L390.951 43.5511C389.912 43.0316 389.046 42.3389 388.526 41.4731C387.834 40.6073 387.487 39.5684 387.487 38.5294C387.487 38.0099 387.488 37.3173 387.834 36.7978C388.18 36.2783 388.527 35.7588 388.873 35.5857C389.219 35.4125 389.739 35.2394 390.085 35.2394C390.431 35.2394 390.951 35.4125 391.297 35.5857L393.375 31.9493C392.336 31.4298 391.297 31.0835 390.085 31.0835C388.873 31.0835 387.834 31.4298 386.795 31.9493C385.756 32.6419 384.717 33.6809 384.197 34.7199C383.678 35.932 383.332 37.1441 383.332 38.5294C383.332 40.4342 384.024 42.1658 385.063 43.7242C386.102 45.2827 387.661 46.4948 389.392 47.3606Z" fill="#0A0803"/>
<path d="M449.644 54.9744L451.548 53.9355C452.587 53.0697 453.799 52.7233 455.185 52.377C456.57 52.2039 457.782 52.377 458.994 52.7233H459.341L461.765 54.1086L523.237 90.4724V90.6455L516.83 121.122L500.553 183.806C500.553 183.806 500.553 183.979 500.206 183.806L437.003 146.576V79.2169C437.176 74.5416 438.388 69.8662 440.466 65.7104C442.544 61.3814 445.834 57.745 449.644 54.9744Z" fill="#E6E6E6"/>
<path d="M500.035 186.237L501.074 185.89C501.42 185.717 501.766 185.544 501.939 185.371C502.113 185.198 502.286 184.851 502.459 184.505L518.736 121.648L525.489 89.7863L524.104 88.7473L462.459 52.3836L459.515 50.8251C457.957 50.3057 456.398 50.1325 454.84 50.3057C453.281 50.4788 451.723 51.1715 450.338 52.0373L448.433 53.0762C444.277 56.02 440.814 60.0026 438.389 64.5048C435.965 69.007 434.753 74.0287 434.753 79.2235V147.795L435.792 148.661L500.035 186.237ZM514.753 120.609L498.996 180.869L438.909 145.198V78.8772C439.082 74.5481 440.121 70.2191 442.199 66.2364C444.277 62.2537 447.221 58.9637 450.857 56.3663L452.762 55.3273C455.879 53.5957 457.264 53.942 458.303 54.2884H458.649L460.9 55.6736L521.16 91.3447L514.753 120.609Z" fill="#0A0803"/>
<path d="M508.867 126.149L507.308 158.703V160.954L500.382 183.465C500.382 183.465 500.382 183.465 500.209 183.465C500.209 183.465 500.209 183.465 500.035 183.465L436.832 146.235V79.0491C436.832 79.0491 436.832 79.0491 437.178 79.0491L500.382 116.279L508.867 126.149Z" fill="#0A0803"/>
<path d="M500.034 186.061L502.112 185.368L502.458 184.329L509.384 161.472V158.875L510.943 125.628L510.423 124.935L501.419 114.719L437.176 76.7964L434.925 78.0085V79.3938V147.619L435.964 148.312L500.034 186.061ZM505.228 160.779L499.168 180.52L438.908 144.849V81.9912L499.168 117.835L507.133 126.84L505.575 158.701L505.228 160.779Z" fill="#0A0803"/>
<path d="M500.731 183.984L519.086 173.421C521.684 171.862 523.935 169.784 525.493 167.014C527.052 164.416 527.744 161.3 527.744 158.356V100.867C527.744 91.5158 522.03 87.1868 514.93 91.1695L513.025 92.2085C509.216 94.9791 505.926 98.6154 503.848 102.771C501.597 106.927 500.385 111.602 500.385 116.451V183.637C500.385 183.637 500.385 183.637 500.385 183.81C500.558 183.984 500.558 183.984 500.731 183.984Z" fill="#E6E6E6"/>
<path d="M500.728 186.064C501.074 186.064 501.593 185.891 501.766 185.718L520.122 175.155C523.065 173.423 525.49 170.999 527.221 168.055C528.953 165.111 529.819 161.821 529.819 158.358V100.869C529.992 98.6177 529.645 96.1934 528.78 94.1155C527.914 92.0376 526.355 90.1328 524.451 88.7475C522.892 87.8817 520.987 87.5354 519.083 87.7086C517.178 87.8817 515.446 88.4012 514.061 89.4402L512.156 90.4791C508 93.4229 504.537 97.2324 502.113 101.908C499.689 106.41 498.476 111.432 498.476 116.626V185.025L499.689 185.718C499.862 185.891 500.208 186.064 500.728 186.064ZM520.122 91.6912C520.987 91.6912 521.68 91.8644 522.373 92.2107C523.585 93.2497 524.624 94.4618 525.143 96.0203C525.663 97.5787 526.009 99.1372 525.663 100.696V158.185C525.663 160.956 524.797 163.553 523.412 165.977C522.026 168.228 520.122 170.306 517.697 171.518L502.286 180.523V116.453C502.459 112.124 503.498 107.795 505.576 103.812C507.654 99.8298 510.598 96.5398 514.234 93.9423L516.139 92.9034C517.351 92.2108 518.736 91.6912 520.122 91.6912Z" fill="#0A0803"/>
<path d="M440.47 91.5105L497.959 125.104L495.881 128.567L438.392 94.8005L440.47 91.5105Z" fill="#E6E6E6"/>
<path d="M447.211 55.6741L511.454 93.4231L509.376 96.8863L445.133 59.1373L447.211 55.6741Z" fill="#0A0803"/>
<path d="M506.959 70.2149L551.115 44.7603C559.599 39.9118 567.219 39.5655 573.106 43.0287L634.059 78.0072L622.63 115.756L534.838 230.042C534.838 230.042 534.838 230.042 534.664 230.042C534.664 230.042 534.664 230.042 534.491 230.042C534.491 230.042 534.491 230.042 534.318 230.042C534.318 230.042 534.318 230.042 534.145 230.042L473.192 195.237V134.458C473.365 109.696 488.43 80.9509 506.959 70.2149Z" fill="#FCFCFC"/>
<path d="M534.485 232.122C534.831 232.122 535.177 231.949 535.524 231.949C535.87 231.776 536.043 231.603 536.39 231.257L624.355 116.451L636.303 76.6242L572.58 40.0873C568.944 38.5289 564.961 38.0094 560.978 38.3557C556.996 38.702 553.186 40.0873 549.896 42.3384L505.74 67.793C486.692 78.8753 471.108 108.313 471.108 133.767V196.105L533.1 231.776C533.446 231.949 533.965 232.122 534.485 232.122ZM620.719 114.72L534.138 227.447L475.437 193.854V134.114C475.437 110.044 489.983 82.1653 507.991 71.7757L552.147 46.3211C559.593 41.9921 566.693 41.4726 571.887 44.5895L573.273 45.2821L631.455 78.7021L620.719 114.72Z" fill="#0A0803"/>
<path d="M473.367 194.716V133.937C473.367 126.837 474.579 119.565 476.657 112.811L537.609 148.482L561.679 169.088L556.83 200.95L534.666 229.695C534.666 229.695 534.666 229.695 534.492 229.695C534.492 229.695 534.493 229.695 534.319 229.695C534.319 229.695 534.319 229.695 534.146 229.695C534.146 229.695 534.146 229.695 533.973 229.695L473.367 194.716Z" fill="#0A0803"/>
<path d="M534.487 231.779C534.834 231.779 535.18 231.779 535.526 231.605C535.872 231.432 536.219 231.259 536.392 230.913L558.903 201.649L564.098 168.229L538.816 146.757L475.613 109.874L474.92 112.471C472.669 119.571 471.63 126.843 471.457 134.116V196.108L533.448 231.779C533.621 231.779 533.968 231.779 534.487 231.779ZM554.92 200.09L533.968 227.276L475.266 193.683V134.116C475.266 128.055 476.132 121.995 477.864 116.107L536.392 150.22L559.422 169.96L554.92 200.09Z" fill="#0A0803"/>
<path d="M629.555 91.6877L620.724 80.2591C618.473 78.5275 615.009 81.1249 612.758 79.3933L550.94 44.588L556.827 41.8174C559.425 40.7784 562.195 40.4321 564.793 40.6053C567.563 40.7784 570.161 41.4711 572.585 42.8564L633.538 77.6617L629.382 91.3413C629.382 91.5145 629.555 91.8608 629.555 91.6877Z" fill="#E6E6E6"/>
<path d="M628.687 94.1134L631.285 93.5939L631.804 92.2086L636.479 76.9705L634.921 75.9315L572.756 40.2604C567.561 38.0093 561.674 37.8362 556.306 39.7409C555.094 40.0872 549.033 42.3383 549.033 44.2431V45.6284L611.717 81.1263C612.583 81.6458 613.449 81.9921 614.315 82.1653C615.181 82.3384 616.22 82.1653 617.085 81.9921C617.778 81.819 618.644 81.819 619.337 81.9921L628.687 94.1134ZM631.458 78.8752L628.86 87.5333L621.934 78.7021C621.068 78.1826 620.202 77.8363 619.337 77.6631C618.471 77.49 617.432 77.4899 616.566 77.8363C615.527 77.8363 614.488 78.1826 614.142 77.8363H613.795L555.613 45.1089L557.865 44.0699C560.116 43.2041 562.54 42.8578 565.137 43.031C567.562 43.2042 569.986 43.8968 572.064 44.9357L573.449 45.6284L631.458 78.8752Z" fill="#0A0803"/>
<path d="M486.867 90.4773L547.646 126.148L553.707 138.096L537.949 148.313L476.996 112.642C479.247 104.676 482.538 97.4037 486.867 90.4773Z" fill="#E6E6E6"/>
<path d="M537.608 150.389L556.31 138.441L549.21 124.415L486.18 87.5317L485.141 89.2633C480.638 96.3629 477.348 103.982 474.924 111.774L474.405 113.333L537.608 150.389ZM550.942 137.229L537.608 145.714L479.253 111.601C481.331 105.194 484.102 99.1335 487.565 93.246L546.093 127.532L550.942 137.229Z" fill="#0A0803"/>
<path d="M535.008 230.04L645.831 166.144V105.192C645.831 80.4296 630.766 69.1742 612.238 79.9101L568.082 105.365C549.554 116.101 534.489 144.845 534.489 169.607V229.867V230.04C534.489 230.04 534.489 230.214 534.662 230.214C534.835 230.04 534.835 230.04 535.008 230.04C534.835 230.04 535.008 230.04 535.008 230.04Z" fill="#E6E6E6"/>
<path d="M534.839 232.126C535.358 232.126 535.705 231.953 536.051 231.78L647.74 167.364V105.373C647.74 91.6931 643.237 81.1303 635.099 76.455C628.346 72.4723 619.861 73.1649 611.03 78.1866L566.874 103.641C547.826 114.723 532.242 144.161 532.242 169.615V229.875C532.242 230.222 532.415 230.741 532.588 231.087C532.761 231.434 533.107 231.78 533.454 231.953C533.973 231.953 534.493 232.126 534.839 232.126ZM643.584 164.767L536.397 226.585V169.269C536.397 145.2 550.943 117.321 568.952 106.931L613.108 81.4766C620.554 77.1476 627.653 76.6281 632.848 79.745C639.601 83.7277 643.411 92.9052 643.411 105.026L643.584 164.767Z" fill="#0A0803"/>
<path d="M521.152 207.186C522.017 207.186 522.71 207.013 523.403 206.666C524.268 205.974 524.961 205.108 525.481 204.242C526 203.376 526.173 202.164 526 201.125V165.8C526 163.722 525.481 161.471 524.442 159.567C523.403 157.662 522.017 156.103 520.286 154.891L488.251 136.363C487.558 135.844 486.519 135.497 485.654 135.497C484.788 135.497 483.749 135.67 483.056 136.017C482.19 136.709 481.498 137.575 480.978 138.441C480.459 139.48 480.286 140.519 480.459 141.558V176.883C480.459 178.961 480.978 181.212 482.017 183.117C483.056 185.021 484.441 186.58 486.173 187.792L518.208 206.32C519.074 206.84 520.113 207.013 521.152 207.186ZM485.307 139.48C485.654 139.48 485.827 139.653 486.173 139.826L518.208 158.181C519.42 159.047 520.286 160.086 520.978 161.471C521.671 162.684 522.017 164.242 522.017 165.627V200.952C522.017 202.337 521.671 202.857 521.325 203.03C521.152 203.203 520.805 203.03 520.286 202.857L488.251 184.329C487.039 183.463 486.173 182.424 485.48 181.039C484.788 179.826 484.441 178.268 484.441 176.883V141.558C484.441 140.173 484.788 139.653 485.307 139.48Z" fill="#E6E6E6"/>
<path d="M522.028 197.137L526.01 196.444C526.01 195.925 523.586 183.63 516.66 178.955C515.448 178.089 514.235 177.57 512.85 177.397C511.465 177.05 510.079 177.223 508.694 177.397C506.443 177.57 504.019 177.223 501.941 176.184C499.863 175.145 498.131 173.414 497.093 171.336C493.11 165.448 491.724 155.578 498.997 145.015L495.534 142.764C487.049 155.059 488.954 166.834 493.456 173.76C495.015 176.531 497.266 178.782 500.209 180.167C502.98 181.552 506.27 182.072 509.387 181.726C510.253 181.552 511.118 181.552 511.984 181.726C512.85 181.899 513.543 182.245 514.235 182.765C518.911 185.362 521.335 194.193 522.028 197.137Z" fill="#E6E6E6"/>
<path d="M471.291 126.664H475.447V161.989H471.291V126.664Z" fill="#E6E6E6"/>
<path d="M272.843 67.9714L295.874 80.7853L293.969 84.4217L270.939 71.6078L272.843 67.9714Z" fill="#E6E6E6"/>
<path d="M439.772 107.278H443.928V124.941H439.772V107.278Z" fill="#E6E6E6"/>
<path d="M624.018 102.599C628.347 100.002 632.329 100.868 633.888 104.331C635.62 107.102 636.485 110.218 636.485 113.508C636.658 115.76 636.312 118.011 635.273 120.089C634.234 122.167 632.676 123.898 630.944 125.11C628.174 127.534 624.364 128.92 620.728 128.747C616.745 129.266 613.974 126.496 613.801 121.301C613.974 117.664 615.013 114.028 616.745 110.738C618.477 107.448 620.901 104.677 624.018 102.599Z" fill="#0A0803"/>
<path d="M619.686 130.645H620.724C624.88 130.818 629.036 129.433 632.153 126.662C634.231 125.277 635.963 123.199 637.175 120.948C638.214 118.697 638.733 116.099 638.56 113.502C638.56 109.866 637.521 106.402 635.616 103.459C635.097 102.593 634.577 101.727 633.711 101.034C632.846 100.342 631.98 99.8222 630.941 99.4759C629.556 99.1295 628.17 99.1296 626.785 99.3027C625.4 99.4759 624.015 100.169 622.802 100.861C619.512 103.112 616.569 106.229 614.664 109.692C612.759 113.329 611.547 117.138 611.547 121.294C611.547 122.679 611.72 124.238 612.24 125.623C612.759 127.008 613.625 128.221 614.664 129.26C616.222 130.298 617.954 130.818 619.686 130.645ZM620.378 126.489C619.859 126.489 619.339 126.489 618.82 126.489C618.3 126.316 617.954 126.143 617.434 125.796C616.915 125.104 616.395 124.411 616.049 123.545C615.703 122.679 615.703 121.814 615.703 120.948C615.876 117.658 616.742 114.368 618.473 111.424C620.032 108.48 622.283 106.056 625.053 104.151C625.746 103.632 626.439 103.285 627.305 103.112C628.17 102.939 629.036 102.939 629.902 103.112C630.421 103.285 630.768 103.459 631.114 103.805C631.46 104.151 631.807 104.498 631.98 105.017C633.538 107.441 634.231 110.385 634.404 113.156V113.675C634.404 115.58 634.058 117.485 633.192 119.043C632.326 120.775 631.114 122.16 629.556 123.199C627.131 125.277 623.841 126.489 620.724 126.316L620.378 126.489Z" fill="#0A0803"/>
<path d="M630.597 116.625C627.826 119.05 624.017 120.435 620.38 120.262C619.168 120.435 617.783 120.262 616.744 119.569C615.705 118.876 614.839 117.838 614.32 116.625C615.705 110.911 619.168 105.889 624.017 102.599C628.346 100.002 632.329 100.868 633.887 104.331C634.753 105.889 635.445 107.448 635.965 109.353C634.926 112.123 633.021 114.721 630.597 116.625Z" fill="#E6E6E6"/>
<path d="M619.336 122.333H620.375C624.531 122.506 628.687 121.121 631.804 118.35C634.574 116.272 636.652 113.329 637.691 110.039V109.519V109C637.171 107.095 636.479 105.19 635.44 103.459C634.92 102.593 634.401 101.727 633.535 101.034C632.669 100.342 631.803 99.8222 630.764 99.4759C629.379 99.1295 627.994 99.1296 626.609 99.3027C625.223 99.4759 623.838 100.169 622.626 100.861C617.258 104.498 613.448 109.866 612.063 116.272V116.965L612.236 117.485C612.756 118.87 613.795 120.082 615.007 120.948C616.392 121.814 617.951 122.333 619.336 122.333ZM620.202 118.177C619.509 118.35 618.816 118.177 618.124 117.831C617.431 117.485 616.912 116.965 616.565 116.272C617.951 111.424 620.894 107.095 625.223 104.151C625.916 103.632 626.609 103.285 627.475 103.112C628.34 102.939 629.206 102.939 630.072 103.112C630.591 103.285 630.938 103.459 631.284 103.805C631.63 104.151 631.977 104.498 632.15 105.017C632.843 106.229 633.535 107.614 633.881 109C633.016 111.251 631.457 113.329 629.552 114.887C627.128 116.965 623.838 118.177 620.721 118.004L620.202 118.177Z" fill="#0A0803"/>
<path d="M617.437 109.348C618.995 106.577 621.246 104.326 624.017 102.421C628.346 99.8237 632.329 100.69 633.887 104.153C634.753 105.711 635.445 107.27 635.965 109.174C635.445 110.906 634.58 112.464 633.367 113.85L625.922 114.716L617.437 109.348Z" fill="#FCFCFC"/>
<path d="M625.406 116.978L634.41 115.939L634.93 115.246C636.315 113.688 637.181 111.783 637.874 109.878V109.359V108.84C637.354 106.935 636.661 105.03 635.622 103.298C635.103 102.433 634.583 101.567 633.718 100.874C632.852 100.182 631.986 99.662 630.947 99.3157C629.562 98.9694 628.176 98.9694 626.791 99.1425C625.406 99.3157 624.021 100.008 622.809 100.701C619.865 102.606 617.267 105.203 615.536 108.32L614.497 110.052L625.406 116.978ZM632.159 111.956L626.272 112.649L620.211 108.666C621.423 106.935 623.155 105.376 624.886 104.164C625.579 103.645 626.272 103.298 627.138 103.125C628.003 102.952 628.869 102.952 629.735 103.125C630.254 103.298 630.601 103.472 630.947 103.818C631.293 104.164 631.64 104.511 631.813 105.03C632.506 106.242 633.198 107.627 633.545 109.013C633.371 110.052 632.852 111.091 632.159 111.956Z" fill="#0A0803"/>
<path d="M634.408 102.426C641.335 98.2698 647.222 99.6551 649.82 105.196C652.417 109.525 653.802 114.374 653.802 119.395C653.802 119.395 655.707 128.573 644.971 137.404C640.469 141.214 634.755 143.292 628.867 143.118C622.807 143.984 618.304 139.655 618.131 131.517C618.304 125.802 620.036 120.088 622.807 115.066C625.75 110.045 629.733 105.716 634.408 102.426Z" fill="#E6E6E6"/>
<path d="M627.653 145.372C628.173 145.372 628.692 145.372 629.212 145.372C635.619 145.545 641.679 143.294 646.528 139.138C657.264 130.307 656.398 120.956 656.052 119.398C656.052 114.03 654.493 108.835 651.723 104.16C651.203 102.774 650.164 101.562 649.125 100.697C648.086 99.6576 646.701 98.9649 645.316 98.6186C643.238 98.0991 641.16 98.0992 639.082 98.4455C637.004 98.7918 635.099 99.6576 633.367 100.87C628.346 104.333 624.017 108.835 621.073 114.203C618.129 119.571 616.571 125.632 616.225 131.692C616.051 133.77 616.398 135.848 617.264 137.753C617.956 139.658 619.168 141.389 620.727 142.948C622.632 144.506 625.056 145.372 627.653 145.372ZM628.865 141.043C628 141.216 626.961 141.216 626.095 141.043C625.229 140.87 624.363 140.35 623.671 139.658C622.632 138.619 621.766 137.233 621.246 135.848C620.727 134.463 620.554 132.904 620.554 131.346C620.727 125.978 622.285 120.61 624.883 115.935C627.48 111.259 631.29 107.103 635.619 103.987C636.831 103.121 638.216 102.428 639.774 102.255C641.16 101.909 642.718 101.909 644.277 102.255C645.142 102.601 646.008 102.948 646.701 103.64C647.394 104.333 647.913 105.026 648.259 105.891C650.684 109.874 652.069 114.549 652.242 119.225V119.744C652.242 120.091 653.627 127.883 644.277 135.502C640.121 138.965 634.926 140.87 629.558 140.697L628.865 141.043Z" fill="#0A0803"/>
<path d="M625.754 110.564C628.005 107.274 630.948 104.504 634.412 102.426C641.338 98.2698 647.225 99.6551 649.823 105.196C652.42 109.525 653.806 114.374 653.806 119.395C654.152 121.646 653.806 123.898 653.113 126.149L638.048 119.395L625.754 110.564Z" fill="#FCFCFC"/>
<path d="M654.665 128.745L655.358 126.493C656.224 124.069 656.397 121.645 656.051 119.048C656.051 113.68 654.492 108.485 651.722 103.809C651.202 102.424 650.163 101.212 649.124 100.346C648.085 99.3072 646.7 98.6146 645.315 98.2683C643.237 97.7488 641.159 97.7488 639.081 98.0951C637.003 98.4415 635.098 99.3072 633.366 100.519C629.73 102.77 626.613 105.714 624.189 109.177L622.977 110.909L637.522 121.125L654.665 128.745ZM642.024 101.905C642.717 101.905 643.41 101.905 644.102 102.251C644.968 102.597 645.834 103.117 646.527 103.636C647.219 104.329 647.739 105.022 648.085 105.887C650.509 109.87 651.895 114.545 652.068 119.221V119.74C652.241 120.779 652.241 121.991 652.068 123.03L639.427 117.489L628.864 110.043C630.769 107.619 633.02 105.714 635.618 103.983C637.522 102.77 639.773 102.078 642.024 101.905Z" fill="#0A0803"/>
<path d="M635.102 125.112L650.167 132.212C648.781 134.117 647.05 135.848 645.318 137.407C640.816 141.216 635.102 143.294 629.214 143.121C623.153 143.987 618.651 139.658 618.478 131.519C618.478 126.844 619.517 122.342 621.595 118.186L635.102 125.112Z" fill="#0A0803"/>
<path d="M627.649 145.371C628.168 145.371 628.688 145.371 629.207 145.371C635.614 145.544 641.675 143.293 646.523 139.137C648.428 137.579 650.333 135.674 651.718 133.596L653.276 131.691L635.96 123.38L620.376 115.414L619.51 117.319C617.432 121.821 616.22 126.67 616.22 131.691C616.047 133.769 616.393 135.847 617.259 137.752C617.952 139.657 619.164 141.388 620.722 142.947C622.627 144.505 625.051 145.371 627.649 145.371ZM628.861 141.042C627.995 141.215 626.956 141.215 626.09 141.042C625.224 140.869 624.359 140.349 623.666 139.657C622.627 138.618 621.761 137.233 621.242 135.847C620.722 134.462 620.549 132.904 620.549 131.345C620.549 127.709 621.242 124.245 622.627 120.782L634.575 126.843L647.216 132.904C646.35 133.942 645.311 134.808 644.272 135.674C640.116 139.137 634.921 141.042 629.553 140.869H628.861V141.042Z" fill="#0A0803"/>
<path d="M639.257 141.733C641.335 141.733 643.239 141.041 644.971 140.002C648.261 137.75 650.859 134.807 652.763 131.517C654.668 128.053 655.707 124.244 655.88 120.261C656.053 118.53 655.707 116.971 655.014 115.413C654.322 113.854 653.11 112.642 651.724 111.776C650.166 111.084 648.608 110.737 646.876 110.911C645.144 111.084 643.586 111.603 642.374 112.642C639.084 114.893 636.486 117.837 634.581 121.127C632.677 124.59 631.638 128.4 631.465 132.382C631.291 134.114 631.638 135.673 632.504 137.231C633.196 138.789 634.408 140.002 635.794 140.867C636.833 141.56 638.045 141.733 639.257 141.733ZM648.261 115.066C648.781 115.066 649.3 115.24 649.82 115.413C650.512 115.932 651.205 116.798 651.551 117.664C651.897 118.53 652.071 119.395 651.898 120.434C651.724 123.724 650.859 126.841 649.3 129.612C647.742 132.383 645.491 134.807 642.893 136.712C642.2 137.231 641.335 137.577 640.469 137.75C639.603 137.924 638.564 137.75 637.698 137.404C637.006 136.885 636.313 136.192 635.967 135.326C635.62 134.46 635.447 133.595 635.62 132.729C635.794 129.439 636.659 126.322 638.218 123.551C639.776 120.781 642.027 118.356 644.625 116.452C645.664 115.413 647.049 115.066 648.261 115.066Z" fill="#0A0803"/>
<path d="M428.003 276.798C428.35 283.898 430.428 290.651 433.891 296.712C437.354 302.772 442.376 307.967 448.263 311.777C459.519 318.184 468.523 312.989 468.523 299.828C468.177 292.729 466.099 285.976 462.635 279.915C459.172 273.854 454.151 268.66 448.263 264.85C437.008 258.789 428.003 263.984 428.003 276.798Z" fill="#0A0803"/>
<path d="M457.439 316.802C459.69 316.802 461.768 316.282 463.672 315.243C466.097 313.685 468.001 311.434 469.214 308.836C470.426 306.239 470.945 303.295 470.599 300.524C470.252 293.079 468.001 285.979 464.365 279.572C460.729 273.165 455.534 267.797 449.3 263.641C447.049 261.91 444.278 260.871 441.335 260.698C438.391 260.524 435.62 261.044 433.023 262.256C430.599 263.814 428.694 266.065 427.482 268.663C426.27 271.26 425.75 274.204 426.097 276.975C426.443 284.421 428.694 291.52 432.33 297.927C435.967 304.334 441.162 309.702 447.395 313.858C450.339 315.589 453.802 316.628 457.439 316.802ZM439.257 264.507C442.027 264.68 444.798 265.546 447.222 266.931C452.763 270.568 457.439 275.416 460.902 281.304C464.192 287.018 466.097 293.598 466.443 300.178C466.616 302.256 466.443 304.507 465.577 306.412C464.711 308.317 463.326 310.048 461.595 311.434C459.69 312.299 457.439 312.646 455.188 312.299C453.11 312.126 451.032 311.26 449.3 309.875C443.759 306.239 439.084 301.39 435.794 295.503C432.503 289.789 430.599 283.208 430.252 276.628C430.079 274.55 430.252 272.299 431.118 270.395C431.984 268.49 433.369 266.758 435.101 265.373C436.313 264.853 437.698 264.507 439.257 264.507Z" fill="#E6E6E6"/>
<path d="M443.578 285.799C443.578 287.531 444.098 289.089 444.964 290.475C445.83 291.86 447.042 293.072 448.427 294.111C451.024 295.669 453.275 294.457 453.275 291.34C453.275 289.609 452.756 288.05 451.89 286.665C451.024 285.28 449.812 284.068 448.427 283.029C445.656 281.47 443.578 282.682 443.578 285.799Z" fill="#0A0803"/>
<path d="M450.51 296.707C451.376 296.707 452.069 296.534 452.761 296.187C453.627 295.668 454.147 294.975 454.666 294.109C455.186 293.244 455.359 292.378 455.186 291.339C455.186 289.261 454.493 287.356 453.454 285.625C452.415 283.893 451.03 282.334 449.298 281.295C448.432 280.776 447.566 280.43 446.528 280.43C445.662 280.43 444.623 280.603 443.757 280.949C442.891 281.469 442.372 282.161 441.852 283.027C441.333 283.893 441.16 284.759 441.333 285.798C441.333 287.876 442.025 289.78 443.064 291.512C444.103 293.244 445.488 294.802 447.22 295.841C448.259 296.36 449.298 296.707 450.51 296.707ZM446.181 284.412C446.527 284.412 447.047 284.586 447.22 284.759C448.259 285.451 449.298 286.49 449.991 287.529C450.683 288.741 451.03 289.954 451.203 291.339C451.203 292.205 451.203 292.551 450.857 292.724C450.51 292.724 450.164 292.724 449.471 292.378C448.432 291.685 447.567 290.646 446.874 289.607C446.181 288.395 445.835 287.183 445.835 285.971C445.835 284.932 445.835 284.586 446.181 284.412Z" fill="#E6E6E6"/>
<path d="M273.018 154.892C273.364 161.992 275.442 168.745 278.905 174.806C282.369 180.867 287.39 186.061 293.278 189.871C304.533 196.278 313.538 191.083 313.538 177.923C313.191 170.823 311.113 164.07 307.65 158.009C304.187 151.949 299.165 146.754 293.278 142.944C282.195 136.711 273.018 141.905 273.018 154.892Z" fill="#0A0803"/>
<path d="M302.454 194.716C304.705 194.716 306.783 194.197 308.687 192.985C311.112 191.426 313.017 189.175 314.229 186.578C315.441 183.98 315.96 181.036 315.614 178.266C315.268 170.82 313.017 163.72 309.38 157.313C305.744 150.907 300.549 145.539 294.315 141.383C292.064 139.651 289.293 138.612 286.35 138.439C283.406 138.266 280.636 138.785 278.038 139.997C275.614 141.556 273.709 143.98 272.497 146.578C271.285 149.175 270.765 152.119 271.112 155.062C271.458 162.508 273.709 169.608 277.345 176.015C280.982 182.422 286.177 187.79 292.41 191.946C295.354 193.677 298.817 194.716 302.454 194.716ZM284.272 142.422C287.042 142.595 289.813 143.461 292.237 144.846C297.778 148.482 302.454 153.331 305.744 159.218C309.034 164.933 311.112 171.513 311.458 178.093C311.631 180.171 311.458 182.422 310.592 184.327C309.726 186.231 308.341 187.963 306.61 189.348C304.705 190.214 302.454 190.56 300.203 190.214C298.125 190.041 296.047 189.175 294.315 187.79C288.774 184.153 284.099 179.305 280.809 173.417C277.519 167.703 275.614 161.123 275.268 154.543C275.094 152.465 275.268 150.214 276.133 148.309C276.999 146.404 278.384 144.673 280.116 143.287C281.328 142.768 282.713 142.422 284.272 142.422Z" fill="#E6E6E6"/>
<path d="M288.603 163.723C288.603 165.455 289.122 167.013 289.988 168.399C290.854 169.784 291.893 170.996 293.278 172.035C295.875 173.594 298.126 172.381 298.126 169.264C298.126 167.533 297.607 165.974 296.741 164.589C295.875 163.204 294.663 161.992 293.278 160.953C290.68 159.394 288.603 160.606 288.603 163.723Z" fill="#0A0803"/>
<path d="M295.523 174.809C296.389 174.809 297.082 174.636 297.774 174.29C298.64 173.77 299.159 173.078 299.679 172.212C300.198 171.346 300.371 170.307 300.198 169.441C300.198 167.363 299.506 165.459 298.467 163.727C297.428 161.995 296.043 160.437 294.311 159.398C293.445 158.879 292.579 158.532 291.54 158.532C290.674 158.532 289.635 158.705 288.77 159.052C287.904 159.571 287.384 160.264 286.865 161.13C286.345 161.995 286.172 163.034 286.345 163.9C286.345 165.978 287.038 167.883 288.077 169.614C289.116 171.346 290.501 172.905 292.233 173.944C293.272 174.29 294.311 174.636 295.523 174.809ZM291.194 162.342C291.54 162.342 292.06 162.515 292.233 162.688C293.272 163.381 294.138 164.42 294.83 165.459C295.523 166.671 295.869 167.883 295.869 169.095C295.869 169.961 295.869 170.307 295.523 170.48C295.177 170.48 294.83 170.48 294.138 170.134C293.099 169.441 292.06 168.402 291.367 167.363C290.674 166.151 290.328 164.939 290.155 163.554C290.155 162.688 290.155 162.342 290.501 162.169L291.194 162.342Z" fill="#E6E6E6"/>
<path d="M590.076 48.7487V58.4457C590.076 60.87 589.383 63.2942 587.998 65.3721C586.613 67.4501 584.708 69.0085 582.457 70.0475C576.742 72.9912 570.335 74.5497 563.928 74.7228C557.522 74.7228 551.115 73.3375 545.227 70.3938C542.976 69.528 541.071 67.9695 539.686 65.8916C538.301 63.8137 537.435 61.5626 537.435 58.9652V49.9608V49.7877V49.6145L572.413 43.7271L589.556 48.4024C589.556 48.4024 589.556 48.2292 589.729 48.2292H589.903L590.076 48.4024C590.076 48.5755 590.076 48.7487 590.076 48.7487Z" fill="#E6E6E6"/>
<path d="M563.41 76.6292C570.337 76.8024 577.263 75.0707 583.497 71.7807C586.094 70.5686 588.172 68.6638 589.731 66.2396C591.289 63.8153 591.982 61.0448 591.982 58.2742V48.9235C591.982 48.404 591.809 47.8845 591.462 47.5382C591.116 47.1919 590.77 46.8456 590.25 46.6724L572.761 41.9971H572.242L537.263 47.8845C536.744 47.8845 536.224 48.2309 535.878 48.5772C535.532 48.9235 535.358 49.443 535.358 49.9625V58.9668C535.358 61.7374 536.224 64.508 537.783 66.759C539.341 69.0101 541.592 70.9149 544.19 72.127C550.077 75.2439 556.657 76.8024 563.41 76.6292ZM587.999 50.1356V58.4473C587.999 60.5253 587.307 62.6032 586.268 64.3348C585.056 66.0664 583.497 67.4517 581.592 68.3175C576.224 71.0881 570.164 72.6465 564.103 72.6465C558.042 72.6465 551.982 71.2612 546.441 68.6638C544.536 67.9712 542.804 66.5859 541.765 65.0274C540.553 63.2958 539.861 61.3911 539.861 59.3131V51.6941L572.934 46.1529L587.999 50.1356Z" fill="#0A0803"/>
<path d="M537.614 49.9589L559.778 46.3225V74.7209C554.584 74.5477 549.562 73.1624 545.06 70.7382C542.809 69.8724 540.904 68.3139 539.519 66.236C538.133 64.1581 537.267 61.907 537.267 59.4827V50.4784V50.3052C537.267 50.3052 537.268 50.132 537.441 50.132L537.614 49.9589C537.614 49.7857 537.614 49.7857 537.614 49.9589Z" fill="#0A0803"/>
<path d="M582.282 38.1798C576.395 35.2361 570.161 33.8508 563.581 33.8508C557.174 33.8508 550.767 35.5824 545.053 38.5262C534.836 44.5868 535.009 54.2838 545.226 59.9981C551.113 62.9418 557.347 64.3271 563.927 64.3271C570.334 64.3271 576.741 62.5955 582.455 59.6518C592.672 53.5911 592.672 43.8941 582.282 38.1798Z" fill="#FCFCFC"/>
<path d="M563.412 66.2331C570.338 66.4063 577.264 64.6747 583.498 61.3846C585.922 60.1725 588 58.4409 589.559 56.1898C591.117 53.9387 591.983 51.3413 592.156 48.7439C591.983 46.1465 590.944 43.5491 589.386 41.298C587.827 39.0469 585.749 37.3153 583.325 36.2763C577.264 33.3326 570.511 31.7742 563.585 31.7742C556.658 31.7742 550.078 33.5058 544.018 36.6227C541.593 37.8348 539.515 39.5664 537.957 41.8175C536.399 44.0686 535.533 46.666 535.36 49.2634C535.533 51.8608 536.572 54.4582 538.13 56.7093C539.689 58.9604 541.766 60.692 544.191 61.731C550.251 64.8479 556.832 66.4063 563.412 66.2331ZM564.104 35.93C569.992 35.7569 576.052 37.1421 581.247 39.9127C583.152 40.6054 584.71 41.9907 585.749 43.5491C586.961 45.1075 587.654 47.0123 588 48.9171C587.827 50.8218 587.135 52.7266 585.923 54.2851C584.71 55.8435 583.152 57.0556 581.42 57.9214C576.052 60.692 569.992 62.2504 563.931 62.2504C557.87 62.2504 551.81 60.8652 546.269 58.2678C544.364 57.5751 542.979 56.363 541.767 54.8045C540.554 53.2461 539.862 51.3413 539.515 49.4366C539.689 47.5318 540.381 45.627 541.593 44.0686C542.805 42.5101 544.364 41.298 546.096 40.4322C551.637 37.3153 557.87 35.7569 564.104 35.93Z" fill="#0A0803"/>
<path d="M566.869 47.1831C565.83 46.6636 564.791 46.4905 563.752 46.4905C562.713 46.4905 561.501 46.8368 560.462 47.1831C560.116 47.3563 559.769 47.5294 559.596 47.8758C559.423 48.2221 559.25 48.5684 559.25 49.0879C559.25 49.4342 559.423 49.9537 559.596 50.3C559.769 50.6463 560.116 50.8195 560.462 50.9926C561.501 51.5121 562.54 51.6853 563.752 51.6853C564.791 51.6853 566.003 51.5121 566.869 50.9926C568.774 49.7805 568.774 48.2221 566.869 47.1831Z" fill="#FCFCFC"/>
<path d="M563.58 53.7645C565.138 53.7645 566.523 53.4181 567.909 52.7255C568.601 52.3792 569.121 51.8597 569.64 51.1671C569.987 50.4744 570.333 49.7818 570.333 49.0891C570.333 48.3965 569.987 47.5307 569.64 47.0112C569.121 46.3186 568.601 45.7991 567.909 45.4528C566.523 44.7601 565.138 44.4138 563.753 44.4138C562.368 44.4138 560.809 44.7601 559.597 45.4528C558.904 45.7991 558.385 46.3186 557.865 47.0112C557.519 47.7039 557.346 48.3965 557.346 49.0891C557.346 49.7818 557.692 50.6476 558.039 51.1671C558.558 51.8597 559.078 52.3792 559.77 52.5524C560.809 53.245 562.194 53.7645 563.58 53.7645ZM566.004 49.0891C565.311 49.4355 564.619 49.6086 563.926 49.6086C563.233 49.6086 562.541 49.4355 561.848 49.0891C562.541 48.7428 563.233 48.5697 563.926 48.5697C564.619 48.5697 565.311 48.7428 566.004 49.0891Z" fill="#0A0803"/>
<path d="M580.549 141.903H583.666V177.748H580.549V141.903Z" fill="#0A0803"/>
<path d="M572.765 146.407H575.882V182.251H572.765V146.407Z" fill="#0A0803"/>
<path d="M564.967 150.911H568.084V186.755H564.967V150.911Z" fill="#0A0803"/>
<path d="M557.186 155.416H560.303V191.261H557.186V155.416Z" fill="#0A0803"/>
<path d="M602.367 292.9L623.839 266.233C626.09 264.502 627.995 262.424 629.38 259.826C630.765 257.229 631.458 254.458 631.458 251.515L643.406 222.077C643.406 216.363 627.995 208.744 623.666 211.168L591.458 229.696C589.207 231.428 587.302 233.506 585.917 236.103C584.532 238.701 583.839 241.471 583.839 244.415V278.874C583.839 284.761 598.038 295.324 602.367 292.9Z" fill="#FCFCFC"/>
<path d="M600.81 295.323C601.676 295.323 602.542 295.15 603.408 294.63L603.927 294.111L625.053 267.79C627.477 265.886 629.555 263.634 630.94 260.864C632.325 258.093 633.191 255.15 633.364 252.033L645.312 222.249C645.312 217.747 639.425 213.937 637.001 212.552C632.499 209.955 626.092 207.704 622.628 209.608L590.421 228.137C587.823 230.041 585.572 232.465 584.014 235.409C582.455 238.353 581.763 241.47 581.589 244.76V279.219C581.589 284.241 588.862 290.301 593.537 292.899C595.789 294.284 598.213 294.976 600.81 295.323ZM600.983 291.167C599.079 290.994 597.174 290.474 595.615 289.262C590.074 286.145 585.918 281.297 585.918 279.046V244.587C585.918 241.989 586.611 239.565 587.823 237.314C589.035 235.063 590.594 233.158 592.672 231.6L624.88 212.898C628.516 212.725 632.152 213.764 635.096 215.842C637.693 217.054 639.945 219.132 641.33 221.73L629.382 251.513C629.382 254.111 628.689 256.535 627.477 258.786C626.265 261.037 624.706 262.942 622.628 264.5L622.109 265.02L600.983 291.167Z" fill="#0A0803"/>
<path d="M624.883 250.31L617.264 274.379L602.372 292.907C598.216 295.331 583.844 284.769 583.844 279.054V244.595C583.844 241.132 584.883 237.842 586.614 235.072L598.909 242.171L624.883 250.31Z" fill="#0A0803"/>
<path d="M600.807 295.325C601.673 295.325 602.539 295.152 603.405 294.633L603.924 294.113L619.162 275.066L627.474 248.918L599.768 240.087L585.916 232.122L584.877 233.853C582.972 237.143 581.76 240.78 581.76 244.416V278.875C581.76 283.897 589.032 289.957 593.708 292.555C595.786 294.286 598.21 294.979 600.807 295.325ZM600.981 291.17C599.076 290.996 597.171 290.477 595.613 289.265C590.071 286.148 585.916 281.299 585.916 279.048V244.589C585.916 242.338 586.435 239.914 587.474 237.836L598.383 244.07L622.106 251.689L615.18 273.507L600.981 291.17Z" fill="#0A0803"/>
<path d="M603.756 292.207L635.963 273.679C638.214 271.947 640.292 269.869 641.505 267.272C642.89 264.675 643.583 261.904 643.583 258.96V224.501C643.583 218.787 640.119 216.19 635.963 218.614L603.756 237.142C601.504 238.874 599.6 240.952 598.214 243.549C596.829 246.146 596.136 248.917 596.136 251.861V286.32C595.963 292.034 599.253 294.631 603.756 292.207Z" fill="#E6E6E6"/>
<path d="M600.646 295.148C602.031 295.148 603.417 294.629 604.629 293.936L636.837 275.408C639.434 273.503 641.685 271.079 643.243 268.135C644.802 265.192 645.495 262.075 645.668 258.785V224.326C645.841 222.767 645.495 221.209 644.802 219.823C644.109 218.438 643.244 217.226 641.858 216.36C640.819 215.841 639.607 215.494 638.222 215.668C637.01 215.668 635.798 216.187 634.759 216.88L602.551 235.408C599.953 237.313 597.702 239.737 596.144 242.681C594.585 245.624 593.893 248.741 593.893 252.031V286.49C593.72 288.049 594.066 289.607 594.759 290.992C595.451 292.378 596.49 293.59 597.702 294.456C598.395 294.975 599.607 295.148 600.646 295.148ZM602.724 290.473C602.204 290.819 601.858 290.992 601.339 290.992C600.819 290.992 600.3 290.992 599.78 290.819C598.741 290.3 598.222 288.568 598.222 286.317V251.858C598.222 249.261 598.914 246.837 600.127 244.585C601.339 242.334 602.897 240.43 604.975 238.871L637.01 220.343C637.529 219.997 637.876 219.823 638.395 219.823C638.915 219.823 639.434 219.823 639.954 219.997C640.992 220.516 641.512 222.248 641.512 224.499V258.958C641.512 261.555 640.819 263.979 639.607 266.231C638.395 268.482 636.837 270.386 634.759 271.945L602.724 290.473Z" fill="#0A0803"/>
<path d="M607.915 271.251C607.915 274.715 610.512 276.1 613.456 274.368C615.014 273.329 616.399 271.944 617.265 270.212C618.131 268.481 618.651 266.576 618.824 264.671C618.824 261.208 616.226 259.823 613.283 261.554C611.724 262.593 610.339 264.152 609.473 265.71C608.607 267.442 608.088 269.347 607.915 271.251Z" fill="#E6E6E6"/>
<path d="M611.03 277.322C612.242 277.322 613.454 276.976 614.667 276.283C616.571 275.071 618.13 273.34 619.169 271.262C620.208 269.184 620.9 267.106 620.9 264.682C620.9 263.643 620.727 262.604 620.208 261.738C619.688 260.872 618.996 260.006 618.13 259.487C617.264 258.967 616.225 258.794 615.013 258.967C613.974 259.14 612.935 259.487 612.069 260.006C610.164 261.218 608.606 262.95 607.567 265.028C606.528 266.933 605.835 269.184 605.835 271.435C605.835 272.474 606.008 273.513 606.528 274.552C607.047 275.418 607.74 276.283 608.606 276.803C609.472 277.149 610.338 277.322 611.03 277.322ZM615.879 262.95H616.225C616.571 262.95 616.744 263.643 616.744 264.682C616.744 266.24 616.225 267.798 615.532 269.184C614.84 270.569 613.628 271.781 612.415 272.647C611.55 273.166 610.857 273.166 610.511 272.993C610.164 272.82 609.991 272.301 609.818 271.262C609.818 269.703 610.338 268.145 611.03 266.76C611.723 265.374 612.935 264.162 614.147 263.296C614.84 263.123 615.359 262.95 615.879 262.95Z" fill="#0A0803"/>
<path d="M387.138 71.2554L416.576 88.2251L414.498 91.8615L385.06 74.8917L387.138 71.2554Z" fill="#0A0803"/>
<path d="M382.285 58.0972L399.254 67.7942L397.176 71.4305L380.207 61.7336L382.285 58.0972Z" fill="#0A0803"/>
<path d="M554.754 75.2362V85.2795C554.754 86.838 554.234 88.3964 553.369 89.6085C552.503 90.8207 551.291 91.8596 549.905 92.5523C546.269 94.457 542.113 95.496 538.13 95.496C533.975 95.496 529.819 94.6302 526.182 92.7254C524.797 92.206 523.585 91.167 522.719 89.9549C521.853 88.7427 521.334 87.1843 521.334 85.6258V75.9289L543.498 72.2925L554.234 75.2362C554.234 75.2362 554.754 75.063 554.754 75.2362Z" fill="#E6E6E6"/>
<path d="M537.786 97.5763C542.288 97.5763 546.964 96.5373 550.946 94.2862C552.678 93.4204 554.236 92.2083 555.102 90.4767C555.968 88.7451 556.661 87.0135 556.661 84.9355V73.5069L554.929 72.9875L543.674 70.0437H543.154L519.431 74.0264L519.258 75.9312V85.6282C519.258 87.5329 519.951 89.4377 520.99 90.9961C522.029 92.5546 523.587 93.7667 525.319 94.6325C529.128 96.5373 533.457 97.5763 537.786 97.5763ZM552.678 76.6238V85.2818C552.678 86.494 552.158 87.7061 551.466 88.5719C550.773 89.6109 549.734 90.3035 548.695 90.823C545.405 92.5546 541.769 93.4204 537.959 93.4204C534.323 93.4204 530.513 92.5546 527.223 90.9961C524.626 89.6109 523.241 87.7061 523.241 85.8013V77.6628L543.327 74.3727L552.678 76.6238Z" fill="#0A0803"/>
<path d="M521.678 75.7594L535.704 73.5083V95.6729C532.414 95.4997 529.297 94.6339 526.353 93.0755C524.968 92.556 523.756 91.517 522.89 90.3049C522.024 89.0928 521.505 87.5343 521.505 85.9759V76.2789C521.505 76.1057 521.505 75.7594 521.678 75.7594Z" fill="#0A0803"/>
<path d="M549.906 68.3108C546.27 66.4061 542.114 65.5403 537.958 65.5403C533.802 65.5403 529.819 66.5792 526.183 68.484C519.776 72.4667 519.776 78.3542 526.183 82.1637C529.819 84.0685 533.975 84.9343 538.131 84.9343C542.287 84.9343 546.27 83.8953 549.906 81.9905C556.486 78.181 556.313 72.1204 549.906 68.3108Z" fill="#FCFCFC"/>
<path d="M537.955 87.0171C542.457 87.0171 547.133 85.9782 551.115 83.7271C552.847 82.8613 554.232 81.6492 555.271 80.2639C556.31 78.7054 556.83 76.9738 557.003 75.0691C556.83 73.1643 556.137 71.4327 555.098 70.0474C554.059 68.4889 552.674 67.45 550.942 66.5842C546.96 64.5062 542.631 63.4673 538.128 63.6404C533.626 63.6404 529.297 64.8526 525.315 66.9305C523.583 67.7963 522.198 69.0084 521.159 70.3937C520.12 71.9522 519.6 73.6838 519.427 75.4154C519.6 77.3201 520.293 79.0517 521.332 80.437C522.371 81.9955 523.756 83.0344 525.488 83.9002C529.297 86.1513 533.626 87.1903 537.955 87.0171ZM538.302 67.7963C541.938 67.6232 545.574 68.4889 548.864 70.2206C549.903 70.5669 550.769 71.2595 551.462 72.1253C552.154 72.9911 552.674 74.0301 552.847 75.0691C552.674 76.108 552.328 77.3201 551.462 78.186C550.769 79.0518 549.903 79.7444 548.864 80.2639C545.574 81.9955 541.938 82.8613 538.128 82.8613C534.492 82.8613 530.683 81.9955 527.393 80.437C524.968 79.0517 523.41 77.147 523.41 75.4154C523.41 73.6838 524.795 71.779 527.393 70.3937C530.683 68.6621 534.492 67.7963 538.302 67.7963Z" fill="#0A0803"/>
<path d="M546.089 54.9786V70.3899C546.089 71.0825 545.916 71.7751 545.396 72.4678C545.05 73.1604 544.53 73.5068 543.838 73.8531C542.106 74.7189 540.201 75.2383 538.297 75.2383C536.392 75.2383 534.487 74.7189 532.755 73.8531C532.063 73.5068 531.543 73.1604 531.024 72.4678C530.678 71.9483 530.331 71.0825 530.331 70.3899V55.3249L540.894 53.5933L545.916 54.9786H546.089Z" fill="#E6E6E6"/>
<path d="M537.954 77.1404C540.378 77.1404 542.629 76.6209 544.707 75.4087C545.746 74.8893 546.612 74.1966 547.131 73.1577C547.651 72.1187 547.997 71.0797 547.997 70.0408V53.2442L546.439 52.7247L540.898 51.1663L528.257 53.2442V70.2139C528.257 71.2529 528.603 72.465 529.123 73.3308C529.642 74.1966 530.508 74.8893 531.547 75.4087C533.625 76.794 535.876 77.3135 537.954 77.1404ZM544.014 56.5342V70.3871C544.014 71.0797 543.495 71.5992 542.802 72.1187C541.417 72.8113 539.859 73.1577 538.3 73.1577C536.742 73.1577 535.183 72.8113 533.798 72.1187C532.932 71.5992 532.413 71.0797 532.413 70.5602V57.0537L540.898 55.6684L544.014 56.5342Z" fill="#0A0803"/>
<path d="M530.333 55.3253L536.914 54.2864V75.2388C535.355 75.2388 533.797 74.7193 532.411 74.0267C531.719 73.6804 531.199 73.334 530.68 72.6414C530.333 72.1219 529.987 71.2561 529.987 70.5635L530.333 55.3253Z" fill="#0A0803"/>
<path d="M543.839 51.8608C542.107 50.995 540.203 50.4756 538.298 50.4756C536.393 50.4756 534.488 50.995 532.757 51.8608C532.064 52.034 531.545 52.5535 531.025 53.073C530.506 53.5925 530.332 54.2851 530.332 54.9777C530.332 55.6704 530.506 56.363 531.025 56.8825C531.371 57.402 532.064 57.9215 532.757 58.0946C534.488 58.9604 536.393 59.4799 538.298 59.4799C540.203 59.4799 542.107 58.9604 543.839 58.0946C544.532 57.9215 545.051 57.402 545.571 56.8825C545.917 56.363 546.263 55.6704 546.263 54.9777C546.263 54.2851 546.09 53.5925 545.571 53.073C545.051 52.3804 544.532 52.034 543.839 51.8608Z" fill="#FCFCFC"/>
<path d="M538.127 61.7362C540.551 61.7362 542.802 61.2167 544.88 60.0046C545.746 59.4851 546.612 58.7925 547.131 57.9267C547.651 57.0609 547.997 56.0219 547.997 54.9829C547.997 53.944 547.478 52.905 546.958 52.0392C546.439 51.1734 545.573 50.4808 544.534 49.9613C542.456 48.9223 540.205 48.4028 537.954 48.4028C535.703 48.4028 533.452 48.9223 531.374 49.9613C530.508 50.4808 529.642 51.1734 529.123 52.0392C528.603 52.905 528.257 53.944 528.257 54.9829C528.257 56.0219 528.603 57.0609 529.296 57.9267C529.815 58.7925 530.681 59.4851 531.72 60.0046C533.625 61.0436 535.876 61.7362 538.127 61.7362ZM542.629 53.7708C543.495 54.2903 544.014 54.8098 544.014 55.1561C544.014 55.5024 543.668 56.0219 542.802 56.5414C541.417 57.234 539.859 57.5804 538.3 57.5804C536.742 57.5804 535.183 57.234 533.798 56.5414C532.932 56.0219 532.413 55.5024 532.413 55.1561C532.413 54.8098 532.759 54.2903 533.625 53.7708C535.01 53.0782 536.568 52.7318 538.127 52.7318C539.685 52.7318 541.244 53.0782 542.629 53.7708Z" fill="#0A0803"/>
<path d="M382.456 150.222L399.426 159.919L397.348 163.555L380.379 153.858L382.456 150.222Z" fill="#0A0803"/>
</g>
</g>
<defs>
<clipPath id="clip0_33897_74423">
<rect width="633" height="424" fill="white"/>
</clipPath>
</defs>
</svg>
