<svg width="633" height="424" viewBox="0 0 633 424" fill="none" xmlns="http://www.w3.org/2000/svg">
<g clip-path="url(#clip0_33897_74245)">
<g opacity="0.08">
<path d="M271.928 117.595C268.507 115.661 266.424 112.09 266.424 108.073V69.2446H274.606V108.073C274.606 109.561 275.499 110.156 276.094 110.454C276.689 110.751 277.73 111.197 278.92 110.454L323.253 84.8654L327.27 91.8575L282.937 117.446C281.152 118.338 279.367 118.933 277.433 118.933C275.499 118.933 273.713 118.487 271.928 117.595Z" fill="#0A0803"/>
<path d="M620.191 296.564C618.406 292.398 614.836 289.125 610.373 288.233C596.388 284.96 585.231 275.29 580.172 261.901L578.982 259.223L581.511 258.33L582.702 261.157C587.313 273.504 597.727 282.877 610.819 285.704C616.175 287.042 620.638 290.613 622.721 295.671C625.547 302.366 632.986 305.787 639.829 303.705L643.102 302.812C651.284 300.432 657.384 294.035 659.466 285.852C661.103 279.753 657.83 273.504 652.028 271.273C647.267 269.339 643.697 265.173 642.655 260.264L632.837 213.551L635.515 212.956L645.333 259.669C646.077 263.686 649.052 267.107 652.92 268.595C660.21 271.422 663.929 279.158 662.144 286.596C659.913 295.82 652.92 302.961 643.994 305.639L640.721 306.531C639.085 306.977 637.3 307.275 635.812 307.275C629.266 307.126 623.018 303.258 620.191 296.564Z" fill="#0A0803"/>
<path d="M295.137 163.714C285.616 150.028 308.676 118.786 309.568 117.447L311.8 119.084C311.502 119.381 289.038 150.028 297.369 162.078C299.154 164.607 300.939 165.797 302.725 165.648C307.039 165.202 311.205 156.722 312.544 153.449L315.073 154.342C314.477 155.681 309.717 167.434 302.874 168.326C302.576 168.326 302.427 168.326 302.13 168.326C299.452 168.475 297.071 166.839 295.137 163.714Z" fill="#0A0803"/>
<path d="M290.228 161.63C280.707 147.943 303.766 116.702 304.659 115.363L306.89 117C306.593 117.297 284.129 147.943 292.46 159.994C294.245 162.523 296.03 163.713 297.815 163.564C302.13 163.118 306.295 154.638 307.634 151.365L310.163 152.258C309.568 153.597 304.808 165.349 297.964 166.242C297.667 166.242 297.518 166.242 297.22 166.242C294.543 166.391 292.162 164.754 290.228 161.63Z" fill="#0A0803"/>
<path d="M608.445 138.428C608.892 138.13 648.911 111.649 650.398 65.6796C650.845 50.3564 647.572 39.7938 640.133 33.9918C630.463 26.2558 617.223 29.975 617.074 29.975L616.33 27.2972C616.925 27.1484 631.207 23.2804 642.067 31.7603C650.101 38.0085 653.969 49.4638 653.522 65.6796C652.035 112.988 610.826 140.362 610.379 140.659L608.445 138.428Z" fill="#0A0803"/>
<path d="M605.918 128.461C606.364 128.163 646.383 101.683 647.871 55.713C648.317 40.3898 645.044 29.8272 637.606 24.0252C627.936 16.2893 614.695 20.0085 614.547 20.0085L613.803 17.3306C614.398 17.1819 628.68 13.3139 639.54 21.7937C647.573 28.042 651.441 39.4972 650.995 55.713C649.507 103.021 608.298 130.395 607.852 130.692L605.918 128.461Z" fill="#0A0803"/>
<path d="M615.879 190.943L644.889 142.742C653.369 128.758 657.684 112.691 657.684 96.4747V78.92C657.684 71.3328 653.518 64.1919 646.972 60.1751L643.848 58.3899C634.922 52.8855 623.467 52.8855 614.541 58.5387L604.424 64.787L600.11 57.9436L610.226 51.6953C621.979 44.4056 636.41 44.2569 648.162 51.3978L651.286 53.183C660.51 58.6875 666.015 68.5062 666.015 79.0688V96.6235C666.015 114.327 661.254 131.733 652.03 147.056L623.02 195.257L615.879 190.943Z" fill="#0A0803"/>
<path d="M266.424 34.2841V-18.5288C266.424 -29.984 272.523 -40.5466 282.342 -46.3486C292.458 -52.1505 304.955 -52.1506 314.922 -46.1998L393.77 0.513622L389.604 7.35698L310.757 -39.3564C303.318 -43.8195 294.095 -43.8195 286.508 -39.5052C279.069 -35.1909 274.606 -27.3062 274.606 -18.8263V34.1354L266.424 34.2841Z" fill="#0A0803"/>
<path d="M254.962 6.46004C254.962 6.75758 255.111 7.0551 255.111 7.35264V58.0828C255.111 61.207 257.045 64.6287 259.276 65.9676L260.615 66.2651C260.764 66.4139 260.913 66.5627 261.061 66.7114L268.054 76.0839C268.054 76.2326 268.054 76.3814 268.202 76.3814L274.6 82.3321C275.046 82.9272 276.087 82.9272 276.682 82.6297L283.377 78.9105C283.526 78.9105 283.823 78.7617 283.972 78.6129C284.567 78.1666 285.162 76.9765 285.162 75.4888V11.8157C285.162 8.69156 283.228 5.26989 280.996 3.93097L258.83 -8.41685C258.086 -8.86315 257.342 -9.01193 256.747 -8.86316L249.755 -5.29271C248.862 -4.84641 248.416 -3.65624 249.011 -2.76363L254.962 6.46004Z" fill="#FCFCFC"/>
<path d="M273.416 83.9712L267.018 78.0205C266.87 77.8717 266.721 77.723 266.572 77.5742L259.58 67.9042L258.39 67.6067L258.092 67.4579C255.414 65.8215 253.332 61.8047 253.332 58.2342V7.50406V7.35529L247.827 -2.16591C247.381 -2.90975 247.232 -3.95113 247.53 -4.69498C247.679 -5.43882 248.274 -6.33144 249.166 -6.62898L256.158 -10.1994L256.456 -10.3482C257.349 -10.497 258.539 -10.3482 259.58 -9.75313L281.747 2.59469C284.424 4.23115 286.507 8.2479 286.507 11.8184V75.4914C286.507 77.2767 286.061 78.7643 284.871 79.657C284.573 79.9545 284.276 80.1032 283.978 80.252L277.432 83.9712C276.986 84.2688 276.242 84.4176 275.796 84.4176C274.903 84.5663 274.011 84.2688 273.416 83.9712ZM250.208 -3.6536C250.059 -3.50483 250.059 -3.35607 250.059 -3.35607C250.059 -3.35607 250.059 -3.2073 250.059 -3.05853L255.563 6.46269C255.861 6.90899 256.01 7.35529 256.01 8.09913V58.8293C256.01 61.2096 257.646 64.3338 259.431 65.3751L260.621 65.6727L260.919 65.8214C261.217 65.9702 261.514 66.2678 261.812 66.5653L268.804 75.9377L275.201 81.8885C275.35 81.8885 275.498 82.0373 275.647 81.8885L282.342 78.1693L282.639 78.0205C282.639 78.0205 282.639 77.8717 282.788 77.8717C283.234 77.5742 283.383 76.6816 283.383 75.789V12.1159C283.383 9.58684 281.895 6.46269 279.961 5.42131L257.795 -6.92651C257.497 -7.07528 257.2 -7.22404 256.902 -7.22404L250.208 -3.6536Z" fill="#0A0803"/>
<path d="M246.49 63.1453V-0.527752C246.49 -3.35436 248.424 -4.84206 250.655 -3.65191L272.822 8.69591C275.053 10.0348 276.987 13.4565 276.987 16.5807V80.2537C276.987 83.0803 275.053 84.568 272.822 83.3779L250.655 71.0301C248.424 69.5424 246.49 65.9719 246.49 63.1453Z" fill="#0A0803"/>
<path d="M271.927 84.569L249.761 72.2212C247.083 70.5847 245 66.568 245 62.9975V-0.675582C245 -2.75835 245.744 -4.3948 247.083 -5.13865C248.422 -5.88249 249.761 -5.73371 251.248 -4.98987L273.415 7.35793C276.093 8.99439 278.175 13.0112 278.175 16.5816V80.2547C278.175 82.3374 277.432 83.9739 276.093 84.7177C275.646 85.0153 274.902 85.1641 274.307 85.1641C273.712 85.1641 272.969 85.0153 271.927 84.569ZM248.719 -2.75834C248.273 -2.60957 247.975 -2.0145 247.975 -0.675582V62.9975C247.975 65.5266 249.463 68.6507 251.397 69.6921L273.564 82.0399C273.861 82.1887 274.456 82.3375 274.903 82.1887C275.349 82.0399 275.646 81.4448 275.646 80.1059V16.4328C275.646 13.9038 274.159 10.7796 272.225 9.73824L250.058 -2.60958C249.761 -2.75835 249.463 -2.90712 249.165 -2.90712C248.868 -2.90712 248.719 -2.90711 248.719 -2.75834Z" fill="#0A0803"/>
<path d="M246.637 50.0554V-1.26989C246.637 -4.0965 248.274 -5.28666 250.357 -4.09651L273.267 8.69762C275.35 10.0365 276.986 13.1607 276.986 15.9873V67.3125C276.986 70.1391 275.35 71.3293 273.267 70.1392L250.357 57.345C248.125 56.1549 246.489 53.0307 246.637 50.0554Z" fill="#E6E6E6"/>
<path d="M272.374 71.4767L249.463 58.6826C246.934 57.1949 245 53.4757 245 50.3515V-1.12249C245 -3.05649 245.595 -4.54418 246.934 -5.28803C248.124 -5.8831 249.463 -5.88309 250.802 -5.13925L273.712 7.65488C276.241 9.14257 278.175 12.8618 278.175 15.9859V67.3112C278.175 69.2452 277.58 70.7329 276.241 71.4767C275.795 71.7742 275.349 71.923 274.605 71.923C273.861 71.923 273.266 71.7742 272.374 71.4767ZM248.422 -3.05649C248.124 -2.90772 247.827 -2.4614 247.827 -1.27125V50.054C247.827 52.2855 249.314 54.9634 250.951 56.0048L273.861 68.7989C274.159 68.9477 274.605 69.0964 275.051 68.9476C275.498 68.7989 275.646 68.3526 275.646 67.1624V15.8372C275.646 13.6056 274.159 10.9278 272.522 9.88642L249.612 -2.90772C249.463 -3.05648 249.165 -3.20525 248.868 -3.20525C248.719 -3.20525 248.57 -3.05649 248.422 -3.05649Z" fill="#0A0803"/>
<path d="M257.346 68.9489L264.784 73.2632L266.123 70.8829L258.685 66.5686L257.346 68.9489Z" fill="#E6E6E6"/>
<path d="M249.611 64.4826L253.182 66.5654L254.521 64.1851L250.95 62.1023L249.611 64.4826Z" fill="#E6E6E6"/>
<path d="M276.239 15.3915L277.578 17.7718L285.761 13.3088L284.422 10.9285L276.239 15.3915Z" fill="#0A0803"/>
<path d="M272.226 7.80047L273.565 10.1808L281.747 5.71771L280.408 3.3374L272.226 7.80047Z" fill="#0A0803"/>
<path d="M276.239 67.9033L277.578 70.2836L285.761 65.8205L284.422 63.4402L276.239 67.9033Z" fill="#0A0803"/>
<path d="M255.707 -1.27522L257.046 1.10507L265.228 -3.35799L263.889 -5.73828L255.707 -1.27522Z" fill="#0A0803"/>
<path d="M253.335 12.5618V10.479C253.335 9.14009 254.079 8.54502 255.121 9.14009L268.064 16.7273C268.956 17.1736 269.849 18.8101 269.849 20.149V22.2317C269.849 23.5707 269.105 24.1657 268.064 23.5707L255.121 15.9834C254.079 15.3884 253.335 13.9007 253.335 12.5618Z" fill="#E6E6E6"/>
<path d="M267.469 24.6143L254.526 17.0271C253.187 16.2832 252.146 14.2005 252.146 12.4152V10.3325C252.146 8.99354 252.592 8.10094 253.484 7.65464C254.228 7.3571 255.27 7.35709 256.014 7.80339L268.956 15.3906C270.295 16.1345 271.337 18.2172 271.337 20.0024V22.0852C271.337 23.4241 270.89 24.3167 269.998 24.7631C269.7 24.9118 269.403 25.0606 268.808 25.0606C268.213 25.0606 267.915 24.9118 267.469 24.6143ZM254.823 12.564C254.823 13.4566 255.419 14.498 256.014 14.7955L268.659 22.234V20.1512C268.659 19.2586 268.064 18.2172 267.469 17.9197L254.823 10.4812V12.564Z" fill="#0A0803"/>
<path d="M253.335 45.4405V23.7202C253.335 22.3813 254.079 21.7862 255.121 22.3813L268.064 29.9685C268.956 30.4148 269.849 32.0513 269.849 33.3902V55.1105C269.849 56.4494 269.105 57.0444 268.064 56.4494L255.121 48.8622C254.079 48.1183 253.335 46.7794 253.335 45.4405Z" fill="#E6E6E6"/>
<path d="M267.469 57.642L254.526 50.0548C253.187 49.3109 252.146 47.2282 252.146 45.4429V23.5739C252.146 22.235 252.592 21.3424 253.484 20.8961C254.228 20.5985 255.27 20.5986 256.014 21.0449L268.956 28.6321C270.295 29.3759 271.337 31.4587 271.337 33.2439V54.9641C271.337 56.3031 270.89 57.1957 269.998 57.642C269.7 57.7908 269.403 57.9395 268.808 57.9395C268.213 57.9395 267.915 57.7908 267.469 57.642ZM254.823 45.4429C254.823 46.3356 255.419 47.3769 256.014 47.6745L268.659 55.1129V33.3927C268.659 32.5 268.064 31.4587 267.469 31.1611L254.823 23.7227V45.4429Z" fill="#0A0803"/>
<path d="M518.734 -5.14308V-4.9943C517.247 0.361378 516.503 6.31212 516.503 13.0067C516.503 52.728 544.323 100.78 578.688 120.567C585.68 124.583 592.673 127.112 598.921 128.303C599.07 128.303 599.07 128.451 599.07 128.6L596.392 139.014C596.243 139.311 596.541 139.46 596.689 139.311L623.319 124.435C634.179 117.889 640.874 104.202 640.874 84.7133C640.874 44.992 613.054 -3.06031 578.688 -22.8466C562.77 -32.0702 548.191 -33.4092 537.331 -28.4998C535.992 -27.9047 514.271 -15.7057 511.593 -14.218C511.593 -14.218 511.445 -14.0692 511.593 -13.9204L518.734 -5.14308Z" fill="#FCFCFC"/>
<path d="M595.8 140.502C595.205 140.056 595.056 139.312 595.205 138.717L597.585 129.344C591.337 128.005 584.791 125.476 578.096 121.608C543.433 101.525 515.316 52.7284 515.316 12.7096C515.316 6.3125 516.06 0.361752 517.547 -5.1427L510.555 -13.1762C510.258 -13.4737 510.109 -13.9201 510.258 -14.5151L510.406 -15.259L511.001 -15.5565C518.44 -19.5733 535.548 -29.392 536.887 -29.8383C548.789 -35.3428 563.814 -33.4088 579.584 -24.1851C614.247 -4.10132 642.364 44.6949 642.364 84.7137C642.364 103.31 636.265 117.592 625.256 125.03V125.179L597.585 140.651C597.287 140.8 597.139 140.8 596.841 140.8C596.246 140.8 595.948 140.651 595.8 140.502ZM622.727 123.096C633.438 116.401 639.389 102.715 639.389 84.5649C639.389 45.5875 611.867 -2.16733 578.096 -21.656C563.368 -30.1359 549.086 -32.0699 537.929 -27.1605C537.185 -26.863 527.812 -21.656 513.531 -13.6225L519.928 -6.18407C520.225 -5.73777 520.374 -4.99394 520.225 -4.54763C518.737 0.808048 517.994 6.75882 517.994 13.1559C517.994 52.1333 545.516 99.8881 579.286 119.377C585.981 123.245 592.824 125.774 599.073 126.964C599.519 127.113 599.816 127.41 600.263 127.708L600.56 128.303L598.478 136.783L622.281 123.394L622.727 123.096Z" fill="#0A0803"/>
<path d="M469.785 154.045L524.086 185.287L532.12 197.783L567.824 323.195L638.192 282.73V131.135C638.192 69.3957 594.9 -5.73254 541.343 -36.6765C515.606 -51.4046 492.398 -53.3386 474.992 -44.5612L403.435 -3.501L469.785 100.191V154.045Z" fill="#FCFCFC"/>
<path d="M530.786 198.676L523.05 186.476L468.452 154.937V100.934L401.655 -3.50134L474.552 -45.4542C492.999 -54.9754 516.951 -52 542.093 -37.5694C595.798 -6.62551 639.536 69.2466 639.536 131.283V283.623L566.937 325.427L530.786 198.676ZM637.007 281.986V131.134C637.007 69.9905 593.864 -4.69151 540.903 -35.3379C516.653 -49.3222 493.594 -52.1488 476.039 -43.2226L405.672 -2.7575L471.279 100.042V153.003L524.984 184.096L533.315 197.039L568.574 320.964L636.71 281.837L637.007 281.986Z" fill="#0A0803"/>
<path d="M415.187 102.421V163.714L476.926 199.418L486.149 213.7L526.912 356.221L607.247 309.953V137.679C607.247 67.1626 557.856 -18.3794 496.861 -53.4889C467.702 -70.2998 440.924 -72.5313 421.286 -62.415L339.761 -15.5528L415.187 102.421Z" fill="#FCFCFC"/>
<path d="M484.812 214.443L476.035 200.459L413.701 164.457V103.016L337.68 -16.1483L420.693 -63.7544C441.52 -74.4657 469.043 -71.3416 497.606 -54.8282C558.899 -19.57 608.737 66.7159 608.737 137.53V310.697L526.17 358.154L484.812 214.443ZM605.613 309.209V137.679C605.613 67.9061 556.519 -17.3385 495.97 -52.2992C468.15 -68.3662 441.818 -71.4904 421.734 -61.2253L341.399 -15.107L416.378 102.272V162.969L477.82 198.376L487.341 213.104L527.658 354.286L605.613 309.209Z" fill="#0A0803"/>
<path d="M306.292 56.6013V228.727L522.305 353.395C524.388 354.585 526.917 353.098 526.917 350.717V183.65C526.917 113.431 477.823 28.0377 416.976 -7.22048C356.13 -42.6275 306.144 -13.9151 306.292 56.6013Z" fill="#E6E6E6"/>
<path d="M521.561 354.88L305.549 230.212L304.954 229.765V56.5983C304.954 21.9352 316.706 -3.95058 338.129 -16.2984C359.552 -28.6462 387.967 -25.8196 417.72 -8.41364C478.716 26.9933 528.256 113.279 528.256 183.796V350.714C528.256 352.5 527.512 353.987 526.024 354.731C525.429 355.177 524.537 355.326 523.793 355.326C523.049 355.326 522.156 355.177 521.561 354.88ZM416.53 -5.88457C387.52 -22.6955 360.147 -25.6708 339.617 -13.7693C319.087 -2.01659 307.78 22.9766 307.78 56.5983V227.98L523.049 352.202C523.793 352.648 524.537 352.351 524.834 352.202C524.983 352.053 525.578 351.756 525.578 350.714V183.796C525.578 114.172 476.484 29.0761 416.233 -5.88457L416.828 -7.22349L416.53 -5.88457Z" fill="#0A0803"/>
<path d="M318.935 62.8487V222.478L514.268 335.096V175.467C514.268 113.133 470.53 37.558 416.676 6.46535C362.821 -24.6273 318.935 0.51458 318.935 62.8487Z" fill="#E6E6E6"/>
<path d="M318.348 223.517L317.753 223.071V62.698C317.753 32.0516 328.018 9.28998 346.912 -1.71892C365.806 -12.579 390.948 -10.05 417.429 5.12443C471.58 36.2171 515.616 112.684 515.616 175.316V337.474L318.348 223.517ZM416.09 7.80228C390.501 -7.07461 366.55 -9.60366 348.548 0.958925C330.547 11.3727 320.58 33.3905 320.58 62.9955V221.732L512.938 332.862V175.465C512.938 113.874 469.498 38.5974 416.09 7.80228L416.536 6.31459L416.09 7.80228Z" fill="#0A0803"/>
<path d="M318.935 63.0005V222.629L514.119 335.396V325.28L328.307 218.018V58.2399C328.307 29.0812 337.977 7.95602 353.895 -2.90411C354.044 -3.05288 353.895 -3.35041 353.747 -3.20164C332.473 5.12941 318.935 28.3374 318.935 63.0005Z" fill="#0A0803"/>
<path d="M318.348 223.815L317.753 223.369V62.8472C317.753 28.9279 330.696 4.38103 353.458 -4.5451C354.053 -4.69387 355.094 -4.39633 355.392 -3.80125C355.838 -3.05741 355.541 -2.16478 354.946 -1.71847C338.879 9.29042 330.101 30.7131 330.101 58.3841V217.269L515.17 324.085L515.765 324.532V337.921L318.348 223.815ZM327.87 219.65L327.274 219.203V58.6817C327.274 35.0274 333.523 15.985 345.127 3.48843C329.357 14.3486 320.58 35.6225 320.58 63.1447V221.881L512.938 333.011V326.168L327.87 219.65Z" fill="#0A0803"/>
<path d="M335.901 45.1446C335.901 45.2934 335.901 45.2934 335.901 45.4421C333.819 52.4343 332.629 60.7653 332.629 69.8402C332.629 123.546 370.416 189.004 416.981 215.782C426.502 221.436 435.725 224.709 444.205 226.345C444.503 226.494 444.503 226.643 444.503 226.791L440.784 240.924C440.784 241.073 440.932 241.371 441.23 241.222L477.381 220.989C491.96 211.766 501.035 193.318 501.035 166.986C501.035 113.281 463.248 47.8224 416.683 21.0441C395.112 8.69623 375.474 6.61346 360.448 13.4568H360.3C358.663 14.2007 329.058 30.8628 325.488 32.9456C325.19 32.9456 325.19 33.2431 325.339 33.3918L335.901 45.1446Z" fill="#FCFCFC"/>
<path d="M439.738 242.262C439.143 241.965 438.994 241.072 439.143 240.477L442.564 227.386C433.936 225.749 425.01 222.179 415.935 216.972C369.073 190.045 330.988 123.991 330.988 69.9881C330.988 61.3595 331.88 53.1773 334.112 45.7388L324.442 34.7299C324.144 34.2836 323.996 33.8373 324.144 33.2422C324.144 32.6472 324.442 32.3496 324.888 31.9033C330.393 28.7792 358.064 13.3072 359.849 12.4146C375.767 5.12492 396.148 7.95152 417.274 20.1506C464.136 47.0777 502.221 113.131 502.221 167.134C502.221 192.425 493.89 211.765 478.715 221.732V221.881L441.672 242.56C441.523 242.709 441.225 242.709 440.928 242.709C440.63 242.709 440.184 242.56 439.738 242.262ZM476.484 219.947C491.212 210.723 499.394 192.127 499.394 167.283C499.394 114.172 462.053 49.3093 415.935 22.6796C395.553 10.9269 375.916 8.24907 360.89 15.0924C359.551 15.5387 339.765 26.8452 327.268 33.6885L336.492 44.2511C336.79 44.6974 336.938 45.4413 336.79 45.8876C334.707 53.1773 333.666 61.3595 333.666 69.9881C333.666 123.099 371.006 187.962 417.125 214.592C426.497 220.096 435.423 223.369 444.052 225.005C444.498 225.154 444.796 225.303 445.242 225.749C445.391 226.047 445.54 226.493 445.391 227.088L442.267 238.841L475.591 220.245L476.484 219.947Z" fill="#0A0803"/>
<path d="M442.567 240.623C475.445 221.581 475.445 160.139 442.567 103.161C409.689 46.1823 356.429 15.3872 323.552 34.4296C290.674 53.472 290.674 114.914 323.552 171.892C356.429 228.87 409.689 259.666 442.567 240.623Z" fill="#E6E6E6"/>
<path d="M382.317 235.867C335.454 208.94 297.37 142.887 297.37 88.8837C297.37 62.4029 306.296 42.6166 322.66 33.2442C339.025 23.723 360.745 25.8057 383.656 39.1949C430.518 66.1221 468.603 132.175 468.603 186.179C468.603 212.659 459.676 232.446 443.312 241.818C436.617 245.686 428.881 247.62 420.699 247.62C408.946 247.62 395.706 243.752 382.317 235.867ZM324.148 35.4757C308.676 44.2531 300.196 63.2955 300.196 88.735C300.196 141.845 337.537 206.709 383.656 233.338C405.673 246.132 426.352 248.215 441.824 239.289C457.296 230.512 465.776 211.469 465.776 186.03C465.776 132.919 428.435 68.0561 382.317 41.4265C369.374 33.8392 356.58 29.9713 345.422 29.9713C337.686 30.12 330.396 31.7565 324.148 35.4757Z" fill="#0A0803"/>
<path d="M434.979 227.537C463.691 211.023 463.691 157.169 434.979 107.48C406.266 57.7915 359.702 30.8643 330.989 47.3777C302.277 63.891 302.277 117.745 330.989 167.434C359.702 217.272 406.266 244.199 434.979 227.537Z" fill="#E6E6E6"/>
<path d="M382.315 223.516C341.403 199.862 308.079 142.14 308.079 94.98C308.079 71.9208 316.113 54.5149 330.394 46.1838C344.825 37.8528 363.719 39.7868 383.802 51.3907C424.714 75.045 458.038 132.767 458.038 179.927C458.038 202.986 450.004 220.392 435.723 228.723C429.772 232.145 423.077 233.93 415.788 233.93C405.523 233.781 394.067 230.211 382.315 223.516ZM331.733 48.7129C318.195 56.4489 310.906 72.9622 310.906 95.1288C310.906 141.545 343.635 198.226 383.802 221.285C402.845 232.294 420.846 234.079 434.384 226.492C447.922 218.756 455.211 202.242 455.211 180.076C455.211 133.66 422.482 76.979 382.315 53.9198C370.859 47.374 359.999 43.9523 350.181 43.9523C343.337 43.8035 337.089 45.44 331.733 48.7129Z" fill="#0A0803"/>
<path d="M544.024 194.509L550.273 220.693L552.207 237.503L557.414 334.203L565.893 359.345L617.814 329.591V232.892C617.814 210.576 609.78 188.112 595.796 164.607L544.024 194.509Z" fill="#FCFCFC"/>
<path d="M564.404 360.536L555.626 334.651V334.502L550.419 237.653L548.485 220.991L542.237 194.808L541.939 193.618L594.752 163.418L595.348 163.12L596.538 163.418L596.835 163.864C611.712 188.708 619.002 211.321 619.002 232.744V329.444V330.188L566.486 360.239L565.891 360.536H564.404ZM616.324 232.893C616.324 212.363 609.481 190.642 595.348 166.542L545.51 194.957L551.609 220.247L553.543 237.058L558.75 333.609L566.635 357.115L616.473 328.7V232.893H616.324Z" fill="#0A0803"/>
<path d="M558.157 201.054C566.191 215.782 571.249 230.064 572.885 244.197L609.334 223.369C607.549 209.236 602.639 194.954 594.606 180.375L558.157 201.054Z" fill="#E6E6E6"/>
<path d="M571.548 244.199C569.912 230.512 565.151 216.677 556.969 201.502L556.374 200.163L595.202 178.146L595.797 179.484C604.128 194.956 609.186 209.238 610.674 222.925L610.823 223.818L571.697 246.133L571.548 244.199ZM594.012 182.162L559.944 201.353C567.531 215.486 572.143 228.876 573.928 241.67L607.848 222.479C606.211 209.684 601.748 196.593 594.012 182.162Z" fill="#0A0803"/>
<path d="M572.145 238.692C572.443 240.478 572.74 242.412 572.889 244.197L609.337 223.369C607.552 209.236 602.643 194.954 594.609 180.375L591.336 182.16C597.882 195.252 602.196 208.046 603.684 220.691L572.145 238.692Z" fill="#0A0803"/>
<path d="M571.554 244.05C571.405 242.414 571.107 240.48 570.81 238.694L570.661 237.802L602.498 219.652C600.861 207.751 596.844 195.7 590.299 182.609L589.703 181.418L595.357 178.146L595.952 179.484C604.283 194.956 609.341 209.238 610.829 222.925L610.977 223.818L571.851 246.133L571.554 244.05ZM594.018 182.162L593.274 182.609C599.82 195.998 603.688 208.346 605.175 220.396L605.324 221.288L573.637 239.289C573.785 240.033 573.785 240.926 573.934 241.67L607.853 222.479C606.217 209.684 601.754 196.593 594.018 182.162Z" fill="#0A0803"/>
<path d="M565.744 265.916C565.744 243.75 558.008 218.013 544.172 194.805C544.172 194.656 543.875 194.805 543.875 194.954V346.549L565.744 359.194V265.916Z" fill="#E6E6E6"/>
<path d="M543.133 347.741L542.538 347.294V194.955C542.538 194.36 542.984 193.616 543.728 193.467L545.067 193.319L545.513 194.211C559.497 217.717 567.382 243.751 567.382 265.918V359.047V359.791L565.894 360.535L543.133 347.741ZM545.364 345.509L564.407 356.518V265.769C564.407 245.388 557.563 221.436 545.364 199.418V345.509Z" fill="#0A0803"/>
<path d="M335.004 110.007C335.004 140.356 356.427 177.251 382.61 192.574C390.048 196.74 397.041 198.822 403.289 198.971C404.033 198.971 404.777 199.566 404.777 200.459C404.628 201.649 405.967 202.393 406.859 201.798L418.463 194.508C418.612 194.359 418.612 194.359 418.612 194.359C425.902 188.855 430.365 178.739 430.365 165.052C430.365 134.703 408.942 97.8083 382.759 82.4851C369.816 74.8979 358.063 74.1541 349.434 78.9147C348.839 79.2122 337.831 86.2043 337.831 86.2043L339.318 86.6507C340.211 86.9482 340.657 87.9896 340.062 88.7334C336.938 94.2379 335.301 101.379 335.004 110.007Z" fill="#FCFCFC"/>
<path d="M405.375 202.845C404.482 202.399 403.887 201.357 403.887 200.316C397.193 200.167 389.903 197.936 382.465 193.621C355.835 178.149 334.115 140.66 334.115 109.864C334.115 101.236 335.751 93.9463 338.875 87.9955L334.71 86.5078L337.09 84.8713C338.28 84.2763 347.95 78.028 348.694 77.5817L350.033 76.8378V76.9866C359.405 72.5235 371.009 73.8625 383.655 81.1521C410.284 96.6241 432.005 134.114 432.005 164.909C432.005 178.744 427.69 189.456 419.657 195.407L407.904 202.845C407.458 203.143 407.011 203.291 406.416 203.291C405.821 203.291 405.524 203.143 405.375 202.845ZM350.182 80.1107C349.438 80.4083 344.677 83.3837 340.66 85.9127C340.958 86.0615 341.107 86.5078 341.256 86.8053C341.553 87.5492 341.553 88.4418 341.107 89.1856C338.28 94.6901 336.644 101.533 336.644 109.716C336.644 139.767 357.62 176.215 383.506 191.092C390.498 195.109 397.341 197.192 403.59 197.341C404.334 197.341 405.226 197.638 405.673 198.233C406.119 198.828 406.268 199.572 406.268 200.316L417.871 192.878C425.161 187.522 429.178 177.406 429.178 164.611C429.178 134.56 408.201 98.1118 382.316 83.2349C375.026 79.0694 368.034 76.9866 361.786 76.9866C357.471 77.2842 353.603 78.1767 350.182 80.1107Z" fill="#0A0803"/>
<path d="M404.776 203.133C423.372 192.422 423.372 157.61 404.776 125.327C386.18 93.0439 355.98 75.638 337.384 86.3493C318.787 97.0607 318.787 131.873 337.384 164.155C356.128 196.438 386.329 213.844 404.776 203.133Z" fill="#E6E6E6"/>
<path d="M370.558 201.052C343.929 185.58 322.208 148.09 322.208 117.295C322.208 101.972 327.415 90.6656 336.788 85.1612C346.309 79.6567 358.805 80.9956 371.897 88.5828C398.527 104.055 420.247 141.545 420.247 172.34C420.247 187.663 415.04 198.969 405.668 204.474C401.651 206.705 397.337 207.895 392.576 207.895C385.733 207.747 378.294 205.515 370.558 201.052ZM338.275 87.5414C329.647 92.4508 324.886 103.162 324.886 117.295C324.886 147.347 345.863 183.795 371.748 198.672C383.947 205.664 395.552 207.003 404.031 202.093C412.66 197.184 417.421 186.473 417.421 172.34C417.421 142.288 396.444 105.84 370.558 90.9631C363.269 86.7976 356.276 84.7148 350.028 84.7148C345.565 84.5661 341.548 85.6074 338.275 87.5414Z" fill="#0A0803"/>
<path d="M398.08 191.535C412.957 182.906 412.957 155.086 398.08 129.201C383.203 103.464 359.103 89.4793 344.077 98.1079C329.2 106.736 329.2 134.556 344.077 160.442C359.103 186.179 383.203 200.015 398.08 191.535Z" fill="#0A0803"/>
<path d="M370.558 189.898C349.136 177.55 331.729 147.35 331.729 122.654C331.729 110.455 335.895 101.232 343.631 96.7684C351.367 92.4541 361.483 93.3467 372.046 99.4463C393.469 111.794 410.875 141.994 410.875 166.69C410.875 178.889 406.709 188.113 398.973 192.576C395.7 194.361 392.279 195.253 388.411 195.253C382.757 195.402 376.807 193.617 370.558 189.898ZM344.97 99.1487C338.275 103.017 334.556 111.348 334.556 122.654C334.556 146.457 351.218 175.616 371.897 187.517C381.567 193.171 390.642 194.063 397.485 190.195C404.18 186.327 407.899 177.996 407.899 166.69C407.899 142.887 391.237 113.728 370.558 101.827C364.756 98.5537 359.103 96.9172 354.194 96.9172C350.772 96.7684 347.797 97.6611 344.97 99.1487Z" fill="#0A0803"/>
<path d="M378.599 185.286C387.079 190.195 394.964 191.534 401.212 189.749C406.568 185.286 409.543 177.55 409.543 167.136C409.543 142.738 392.435 113.133 371.31 100.934C362.83 96.0245 354.945 94.6856 348.697 96.4708C343.341 100.934 340.366 108.67 340.366 119.084C340.366 143.333 357.325 173.087 378.599 185.286Z" fill="#FCFCFC"/>
<path d="M377.705 186.476C356.282 174.128 338.876 143.928 338.876 119.232C338.876 108.67 342.001 100.487 347.654 95.4291L347.803 95.2803L348.1 95.1315C354.943 93.1975 363.126 94.834 371.754 99.7434C393.177 112.091 410.583 142.291 410.583 166.987C410.583 177.55 407.459 185.732 401.806 190.79L401.657 190.939L401.359 191.087C399.425 191.534 397.491 191.831 395.409 191.831C389.904 191.831 383.953 189.897 377.705 186.476ZM407.905 166.987C407.905 143.184 391.243 114.025 370.564 102.124C362.828 97.6606 355.539 96.0242 349.439 97.6606C344.678 101.975 341.852 109.711 341.852 119.083C341.852 142.886 358.514 172.045 379.193 183.947C386.929 188.41 394.219 190.046 400.318 188.41C405.227 183.947 407.905 176.508 407.905 166.987Z" fill="#0A0803"/>
<path d="M516.502 124.586L517.841 126.966L598.325 81.8889L596.986 79.5085L516.502 124.586Z" fill="#0A0803"/>
<path d="M479.904 50.053L481.243 52.4333L561.727 7.35636L560.388 4.97607L479.904 50.053Z" fill="#0A0803"/>
<path d="M437.36 6.31281L438.699 8.69312L519.183 -36.3838L517.844 -38.7642L437.36 6.31281Z" fill="#0A0803"/>
<path d="M605.617 120.422L606.955 122.803L636.412 105.992L635.073 103.612L605.617 120.422Z" fill="#0A0803"/>
<path d="M591.927 64.6329L593.266 67.0132L618.408 52.7314L617.069 50.3511L591.927 64.6329Z" fill="#0A0803"/>
<path d="M566.337 14.9488L567.676 17.3291L588.95 5.13004L587.611 2.74976L566.337 14.9488Z" fill="#0A0803"/>
<path d="M595.205 13.0094L596.543 15.3897L611.718 7.20746L610.379 4.82715L595.205 13.0094Z" fill="#0A0803"/>
<path d="M616.626 48.5699L625.255 67.7611L631.057 84.8695L636.413 108.673L639.537 98.8538L641.025 88.5887L640.429 73.7118L635.223 51.2477L629.272 35.9246L613.949 43.9581L616.626 48.5699Z" fill="#0A0803"/>
<path d="M418.166 69.6911L419.505 72.0714L452.829 52.5827L451.49 50.2024L418.166 69.6911Z" fill="#0A0803"/>
<path d="M379.187 37.114L380.526 39.4943L413.85 20.0055L412.511 17.6252L379.187 37.114Z" fill="#0A0803"/>
<path d="M348.995 28.4819L350.333 30.8622L383.658 11.3735L382.319 8.99316L348.995 28.4819Z" fill="#0A0803"/>
<path d="M461.014 142.886L462.353 145.267L495.677 125.778L494.338 123.397L461.014 142.886Z" fill="#0A0803"/>
<path d="M409.094 133.217L410.433 135.597L422.483 128.903L421.145 126.522L409.094 133.217Z" fill="#0A0803"/>
<path d="M383.653 97.6604L384.992 100.041L397.042 93.3461L395.703 90.9658L383.653 97.6604Z" fill="#0A0803"/>
<path d="M360.743 83.8247L362.082 86.205L374.132 79.5104L372.793 77.1301L360.743 83.8247Z" fill="#0A0803"/>
<path d="M565.147 282.582L566.486 284.962L618.407 253.87L617.068 251.49L565.147 282.582Z" fill="#0A0803"/>
<path d="M565.445 261.452L566.784 263.832L618.704 232.739L617.365 230.359L565.445 261.452Z" fill="#0A0803"/>
<path d="M617.811 329.595L565.742 359.2V335.1L617.96 304.304L617.811 329.595Z" fill="#0A0803"/>
<path d="M637.746 282.134L617.662 292.845V256.546L638.043 244.644L637.746 282.134Z" fill="#0A0803"/>
<path d="M543.581 346.993L527.068 356.366L526.324 319.769L544.027 309.652L543.581 346.993Z" fill="#0A0803"/>
<path d="M405.226 144.826L408.648 157.174L409.392 168.183L406.863 180.679L402.995 187.523L396.449 191.093L393.028 190.349L401.061 179.489L366.695 159.703L402.995 138.875L405.226 144.826Z" fill="#0A0803"/>
<path d="M339.623 137.384L340.962 139.764L386.783 113.432L385.444 111.052L339.623 137.384Z" fill="#0A0803"/>
<path d="M338.876 113.581L340.215 115.961L368.035 100.043L366.696 97.6626L338.876 113.581Z" fill="#0A0803"/>
<path d="M500.882 177.997L496.716 194.957L489.129 209.685L480.5 218.611L452.978 234.53L449.557 235.125L459.375 222.182L463.987 210.132L466.07 200.759L466.963 189.006L466.814 177.997L500.733 158.211V177.997H500.882Z" fill="#0A0803"/>
<path d="M427.837 144.814L430.366 158.501L430.664 172.485L426.944 185.577L421.589 192.42L411.473 197.181L417.274 184.684L418.762 172.188L417.87 160.584L416.531 154.633L415.043 148.682L426.944 141.392L427.837 144.814Z" fill="#0A0803"/>
<path d="M631.498 77.4272L632.241 78.7661L639.829 74.303L639.085 72.9641L631.498 77.4272Z" fill="#E6E6E6"/>
<path d="M620.642 47.8222L621.535 49.1611L631.651 43.0616L630.758 41.7227L620.642 47.8222Z" fill="#E6E6E6"/>
<path d="M387.522 166.543L388.266 167.881L403.738 158.955L402.994 157.616L387.522 166.543Z" fill="#E6E6E6"/>
<path d="M393.022 188.114L393.766 189.452L403.733 183.65L402.989 182.312L393.022 188.114Z" fill="#E6E6E6"/>
<path d="M486.894 317.389L487.638 318.728L494.332 314.86L493.589 313.521L486.894 317.389Z" fill="#E6E6E6"/>
<path d="M475.887 310.844L476.631 312.183L483.325 308.315L482.581 306.976L475.887 310.844Z" fill="#E6E6E6"/>
<path d="M331.585 228.132L332.329 229.471L339.023 225.603L338.28 224.264L331.585 228.132Z" fill="#E6E6E6"/>
<path d="M325.932 25.9568L326.676 27.2958L333.371 23.4278L332.627 22.0889L325.932 25.9568Z" fill="#E6E6E6"/>
<path d="M603.384 221.285L603.979 219.798L609.632 222.475L608.888 223.963L603.384 221.285Z" fill="#E6E6E6"/>
<path d="M580.771 340.602L581.514 341.941L614.541 322.452L613.797 321.113L580.771 340.602Z" fill="#E6E6E6"/>
<path d="M620.642 281.835L621.386 283.174L634.775 275.289L634.031 273.95L620.642 281.835Z" fill="#E6E6E6"/>
<path d="M499.106 23.1266C498.808 23.2754 498.808 23.5729 498.957 23.7217L511.305 38.1523L533.174 58.3848C533.323 58.3848 533.323 58.5336 533.323 58.5336L549.241 117C549.39 117.297 549.539 117.446 549.836 117.297L593.277 93.048C593.872 92.8992 594.615 92.6017 595.062 92.1554C595.359 91.7091 595.657 90.9652 595.657 90.3702V58.2361C595.657 38.0035 584.945 19.4074 567.391 9.29113L548.795 -1.42022C547.158 -2.31284 545.224 -2.16407 543.885 -1.42022L499.106 23.1266Z" fill="#FCFCFC"/>
<path d="M549.08 118.786C548.484 118.488 548.187 118.042 547.889 117.447L532.12 59.278L510.4 39.1942L497.903 24.6148C497.457 24.3173 497.308 23.7222 497.457 23.1272C497.605 22.6808 497.903 22.2346 498.349 21.7882L542.98 -2.90739L544.468 -3.65124V-3.50246C546.104 -3.94877 547.889 -3.65124 549.228 -2.90739L567.824 7.80396C585.825 18.069 596.834 37.409 596.834 58.0878V90.2219C596.834 90.817 596.685 91.5608 596.388 92.1559L596.537 92.6022L595.793 93.0485C595.347 93.4948 594.454 93.9411 593.71 94.2386L550.567 118.488C550.27 118.637 549.972 118.637 549.674 118.637C549.526 118.786 549.228 118.786 549.08 118.786ZM594.305 90.2219V58.0878C594.305 38.3016 583.743 20.003 566.634 10.1843L548.038 -0.527083C546.848 -1.12216 545.658 -1.12216 544.468 -0.527083L542.98 0.365516L500.73 23.871L512.185 37.409L534.054 57.6415C534.203 57.7903 534.351 58.0878 534.5 58.3854L550.121 115.513L592.52 91.7096L592.966 91.5608C593.413 91.5608 593.71 91.4121 593.859 91.1145C594.305 90.817 594.305 90.6682 594.305 90.2219Z" fill="#0A0803"/>
<path d="M530.041 108.223L546.554 117.893C548.339 119.083 550.72 117.744 550.72 115.512V83.0807C550.72 62.9969 540.008 44.5496 522.602 34.4333L503.857 23.5731C500.584 21.6391 496.419 24.0194 496.419 27.8874V42.1692C510.701 62.4018 522.156 85.1635 530.041 108.223Z" fill="#E6E6E6"/>
<path d="M545.662 118.488L528.702 108.67L528.554 108.223C520.966 85.4616 509.511 62.8487 495.378 42.4674L495.081 42.1699V27.4417C495.081 25.2102 496.419 23.1274 498.353 21.9373C500.436 20.7471 502.817 20.7471 504.751 21.9373L523.495 32.7974C541.199 43.0625 552.208 62.1049 552.208 82.7838V115.215C552.208 116.852 551.464 118.042 550.125 118.935C549.53 119.381 548.786 119.53 548.042 119.53C547.298 119.53 546.406 119.232 545.662 118.488ZM499.841 24.7639C498.651 25.359 498.056 26.5491 498.056 27.888V41.8723C512.189 62.2537 523.644 84.8665 531.231 107.479L547.298 116.852C547.893 117.149 548.637 117.001 548.786 116.852C548.935 116.703 549.381 116.406 549.381 115.513V83.0813C549.381 63.4438 538.819 45.294 521.859 35.624L503.114 24.7639C502.668 24.4664 501.924 24.3176 501.329 24.3176C500.734 24.3176 500.287 24.3176 499.841 24.7639Z" fill="#0A0803"/>
<path d="M538.368 47.3796L539.707 49.7599L583.891 24.0229L582.553 21.6426L538.368 47.3796Z" fill="#0A0803"/>
<path d="M510.556 25.3602L511.895 27.7405L556.525 3.04486L555.186 0.664551L510.556 25.3602Z" fill="#0A0803"/>
<path d="M595.794 90.3722L593.414 93.05L550.866 115.217V95.5791L595.794 70.5859V90.3722Z" fill="#0A0803"/>
<path d="M535.245 90.2232L539.856 86.9502C541.047 86.3552 541.493 84.4212 540.6 81.7433C540.154 80.2556 539.41 79.0655 538.369 77.8753C536.435 75.7926 534.65 75.3463 533.459 75.9414C533.459 75.9414 533.311 76.0901 533.162 76.0901L528.699 79.2143C528.699 79.2143 528.699 79.363 528.699 79.5118L534.947 89.9256C534.947 90.0744 535.096 90.2232 535.245 90.2232Z" fill="#E6E6E6"/>
<path d="M534.056 91.2605L527.51 80.2516C527.064 79.5077 527.361 78.4663 527.956 78.02L532.27 75.1934C532.27 75.1934 532.568 74.8959 532.717 74.8959C534.651 74.152 537.031 74.8959 539.262 77.1274C540.453 78.4663 541.345 79.954 541.792 81.5905C542.684 84.7146 542.238 87.0949 540.453 88.2851L535.841 91.558L535.246 91.8556L534.056 91.2605ZM534.204 77.2762L530.336 79.8053L535.543 88.2851L539.114 85.9048C539.709 85.4585 540.006 84.2684 539.411 82.1856C539.114 80.8467 538.519 79.8053 537.477 78.7639C536.138 77.425 535.246 76.9787 534.651 76.9787C534.353 77.1275 534.204 77.1274 534.204 77.2762Z" fill="#0A0803"/>
<path d="M531.675 79.6586C534.055 81.1463 536.138 84.568 536.138 87.5434C536.138 90.5187 534.055 91.5601 531.675 90.0724C529.295 88.5848 527.212 85.1631 527.212 82.1877C527.212 79.3611 529.146 78.1709 531.675 79.6586Z" fill="#E6E6E6"/>
<path d="M530.932 91.2657C528.106 89.6292 525.726 85.6124 525.726 82.3395C525.726 80.4055 526.469 78.9179 527.808 78.174C529.147 77.4302 530.932 77.579 532.42 78.4716C535.247 80.108 537.627 84.1248 537.627 87.3977C537.627 89.3317 536.883 90.8194 535.544 91.5632C534.949 91.8607 534.205 92.0095 533.61 92.0095C532.867 92.0095 531.825 91.8607 530.932 91.2657ZM529.147 80.5543C528.701 80.8519 528.552 81.4469 528.552 82.3395C528.552 84.7198 530.337 87.844 532.42 88.8854C533.015 89.3317 533.908 89.3317 534.206 89.1829C534.652 88.8854 534.8 88.2903 534.8 87.3977C534.8 85.0174 533.015 81.8932 530.932 80.8518C530.486 80.5543 530.04 80.4055 529.594 80.4055C529.445 80.4055 529.296 80.4056 529.147 80.5543Z" fill="#0A0803"/>
<path d="M534.356 70.8804L538.968 67.6075C540.158 67.0124 540.605 65.0784 539.712 62.4006C539.266 60.9129 538.522 59.7227 537.481 58.5326C535.547 56.4498 533.761 56.0035 532.571 56.5986C532.571 56.5986 532.422 56.7474 532.274 56.7474L527.811 59.8715C527.811 59.8715 527.811 60.0202 527.811 60.169L534.059 70.5828C534.208 70.8804 534.356 70.8804 534.356 70.8804Z" fill="#E6E6E6"/>
<path d="M533.308 71.9208L526.763 60.9119C526.316 60.168 526.614 59.1267 527.209 58.6804L531.523 55.8538C531.523 55.8538 531.821 55.5562 531.97 55.5562C533.904 54.6636 536.284 55.4074 538.515 57.639C539.706 58.9779 540.598 60.4656 541.045 62.102C541.937 65.2262 541.491 67.6065 539.706 68.7967L535.094 72.0696L534.499 72.3671L533.308 71.9208ZM533.606 57.9365L529.738 60.4656L534.647 68.9454L538.218 66.5651C538.813 66.1188 539.11 64.9287 538.515 62.8459C538.218 61.507 537.623 60.4656 536.581 59.4242C535.243 58.0853 534.35 57.639 533.755 57.639C533.755 57.7877 533.606 57.7877 533.606 57.9365Z" fill="#0A0803"/>
<path d="M530.932 60.1723C533.313 61.66 535.395 65.0817 535.395 68.0571C535.395 70.8837 533.313 72.0739 530.932 70.5862C528.552 69.0985 526.469 65.6768 526.469 62.7014C526.469 60.0236 528.552 58.8334 530.932 60.1723Z" fill="#FCFCFC"/>
<path d="M530.186 71.9256C527.359 70.2891 524.979 66.2724 524.979 62.9995C524.979 61.0655 525.723 59.5778 527.062 58.8339C528.401 58.0901 530.186 58.2389 531.674 59.1315C534.5 60.7679 536.881 64.7847 536.881 68.0576C536.881 69.9916 536.137 71.4793 534.798 72.2231C534.203 72.5207 533.459 72.6694 532.864 72.6694C532.12 72.8182 531.227 72.3719 530.186 71.9256ZM528.549 61.2142C528.103 61.5118 527.954 62.1069 527.954 62.9995C527.954 65.3798 529.74 68.5039 531.822 69.5453C532.417 69.9916 533.31 69.9916 533.608 69.8428C534.054 69.5453 534.203 68.9502 534.203 68.0576C534.203 65.6773 532.417 62.5532 530.335 61.5118C529.888 61.2142 529.442 61.0655 528.996 61.0655C528.847 61.0655 528.698 61.0655 528.549 61.2142Z" fill="#0A0803"/>
<path d="M472.024 256.396C472.024 256.694 472.173 256.992 472.173 257.289V271.571C472.173 274.695 474.107 278.117 476.338 279.456L477.677 279.753C477.826 279.902 477.975 280.051 478.123 280.199L485.116 289.572C485.116 289.721 485.116 289.869 485.264 289.869L491.661 295.82C492.108 296.415 493.149 296.415 493.744 296.118L500.439 292.399C500.588 292.399 500.885 292.25 501.034 292.101C501.629 291.655 502.224 290.465 502.224 288.977V261.901C502.224 258.777 500.29 255.355 498.059 254.016L475.892 241.668C475.148 241.222 474.404 241.073 473.809 241.222L466.817 244.792C465.924 245.239 465.478 246.429 466.073 247.322L472.024 256.396Z" fill="#FCFCFC"/>
<path d="M490.62 297.459L484.074 291.508C483.925 291.359 483.776 291.21 483.627 291.062L476.635 281.689L475.445 281.392L475.148 281.243C472.47 279.606 470.387 275.59 470.387 272.019V257.737L464.882 248.216C464.436 247.472 464.287 246.431 464.585 245.687C464.734 244.943 465.329 244.051 466.221 243.753L473.214 240.183L473.511 240.034C474.404 239.885 475.594 240.034 476.635 240.629L498.802 252.977C501.48 254.613 503.562 258.63 503.562 262.2V289.276C503.562 291.062 503.116 292.549 501.926 293.442C501.628 293.739 501.331 293.888 501.033 294.037L494.487 297.756C494.041 298.054 493.297 298.203 492.851 298.203C491.958 298.351 491.066 298.054 490.62 297.459ZM467.263 246.282C467.263 246.431 467.114 246.58 467.114 246.58C467.114 246.58 467.114 246.728 467.114 246.877L472.619 256.398C472.916 256.845 473.065 257.291 473.065 258.035V272.317C473.065 274.697 474.701 277.821 476.487 278.863L477.677 279.16L477.974 279.309C478.272 279.458 478.569 279.755 478.867 280.053L485.859 289.425L492.256 295.376C492.405 295.376 492.554 295.525 492.702 295.376L499.397 291.657L499.694 291.508C499.694 291.508 499.694 291.359 499.843 291.359C500.289 291.062 500.438 290.169 500.438 289.276V262.2C500.438 259.671 498.951 256.547 497.017 255.506L474.85 243.158C474.553 243.009 474.255 242.861 473.958 242.861L467.263 246.282Z" fill="#0A0803"/>
<path d="M463.541 276.629V249.553C463.541 246.726 465.475 245.239 467.706 246.429L489.873 258.777C492.105 260.116 494.039 263.537 494.039 266.661V293.737C494.039 296.564 492.105 298.052 489.873 296.862L467.706 284.514C465.326 283.175 463.69 279.753 463.541 276.629Z" fill="#E6E6E6"/>
<path d="M489.131 298.202L466.965 285.854C464.287 284.217 462.204 280.201 462.204 276.63V249.554C462.204 247.471 462.948 245.835 464.287 245.091C465.626 244.347 466.965 244.496 468.452 245.24L490.619 257.588C493.297 259.224 495.379 263.241 495.379 266.811V293.887C495.379 295.97 494.636 297.606 493.297 298.35C492.851 298.648 492.107 298.797 491.511 298.797C490.768 298.797 490.024 298.648 489.131 298.202ZM465.775 247.323C465.328 247.471 465.031 248.066 465.031 249.405V276.63C465.031 279.159 466.518 282.283 468.452 283.325L490.619 295.673C490.916 295.821 491.363 295.97 491.958 295.821C492.553 295.672 492.702 295.077 492.702 293.738V266.663C492.702 264.134 491.214 261.009 489.28 259.968L467.113 247.62C466.816 247.471 466.518 247.323 466.221 247.323C465.923 247.323 465.923 247.323 465.775 247.323Z" fill="#0A0803"/>
<path d="M493.294 265.473L494.633 267.854L502.815 263.391L501.477 261.01L493.294 265.473Z" fill="#0A0803"/>
<path d="M489.277 257.736L490.616 260.116L498.798 255.653L497.459 253.273L489.277 257.736Z" fill="#0A0803"/>
<path d="M493.145 287.195L494.484 289.575L502.666 285.112L501.327 282.731L493.145 287.195Z" fill="#0A0803"/>
<path d="M472.914 248.806L474.253 251.186L482.435 246.723L481.096 244.343L472.914 248.806Z" fill="#0A0803"/>
<path d="M567.681 205.071L569.02 207.452L590.443 195.401L589.104 193.021L567.681 205.071Z" fill="#0A0803"/>
<path d="M570.063 211.471L571.402 213.851L592.825 201.801L591.486 199.421L570.063 211.471Z" fill="#0A0803"/>
<path d="M571.997 217.42L573.336 219.801L594.759 207.75L593.42 205.37L571.997 217.42Z" fill="#0A0803"/>
<path d="M573.628 223.961L574.967 226.342L596.39 214.291L595.051 211.911L573.628 223.961Z" fill="#0A0803"/>
<path d="M500.138 362.169L461.16 339.407C454.317 335.242 449.854 327.654 449.854 319.621V295.52C449.854 288.231 453.722 281.387 460.119 277.668L473.211 269.932C475.145 268.742 477.674 269.486 478.864 271.42C480.054 273.354 479.31 275.883 477.376 277.073L464.285 284.809C460.417 287.04 458.036 291.206 458.036 295.669V319.77C458.036 324.977 460.714 329.886 465.326 332.415L504.303 355.177C508.023 357.408 512.635 357.408 516.354 355.325L549.232 337.027C551.166 335.837 553.546 336.729 554.736 338.663C555.926 340.597 555.034 342.978 553.1 344.168L520.222 362.466C517.098 364.252 513.825 364.995 510.403 364.995C506.833 365.144 503.262 364.103 500.138 362.169Z" fill="#0A0803"/>
<path d="M446.43 270.376L451.041 267.104C452.232 266.508 452.678 264.574 451.785 261.897C451.339 260.409 450.595 259.219 449.554 258.029C447.62 255.946 445.834 255.5 444.644 256.095C444.644 256.095 444.496 256.243 444.347 256.243L439.884 259.368C439.884 259.368 439.884 259.516 439.884 259.665L446.132 270.079C446.132 270.376 446.281 270.376 446.43 270.376Z" fill="#E6E6E6"/>
<path d="M445.244 271.423L438.698 260.414C438.252 259.671 438.55 258.629 439.145 258.183L443.459 255.356C443.459 255.356 443.756 255.059 443.905 255.059C445.839 254.166 448.22 254.91 450.451 257.141C451.641 258.48 452.534 259.968 452.98 261.604C453.873 264.729 453.426 267.109 451.641 268.299L447.029 271.572L446.434 271.87L445.244 271.423ZM445.542 257.588L441.674 260.117L446.583 268.597L450.154 266.216C450.749 265.77 451.046 264.58 450.451 262.497C450.154 261.158 449.558 260.117 448.517 259.075C447.178 257.737 446.286 257.29 445.691 257.29C445.691 257.439 445.542 257.439 445.542 257.588Z" fill="#0A0803"/>
<path d="M442.711 259.964C445.091 261.451 447.174 264.873 447.174 267.848C447.174 270.675 445.091 271.865 442.711 270.377C440.331 268.89 438.248 265.468 438.248 262.493C438.248 259.666 440.331 258.476 442.711 259.964Z" fill="#E6E6E6"/>
<path d="M442.121 271.422C439.294 269.785 436.914 265.768 436.914 262.496C436.914 260.562 437.658 259.074 438.997 258.33C440.336 257.586 442.121 257.735 443.609 258.628C446.435 260.264 448.816 264.281 448.816 267.554C448.816 269.488 448.072 270.975 446.733 271.719C446.138 272.017 445.394 272.166 444.799 272.166C444.055 272.314 443.014 272.166 442.121 271.422ZM440.336 260.859C439.889 261.157 439.741 261.752 439.741 262.644C439.741 265.025 441.526 268.149 443.609 269.19C444.204 269.636 445.096 269.636 445.394 269.488C445.84 269.19 445.989 268.595 445.989 267.702C445.989 265.322 444.204 262.198 442.121 261.157C441.675 260.859 441.228 260.71 440.782 260.71C440.633 260.71 440.484 260.71 440.336 260.859Z" fill="#0A0803"/>
</g>
</g>
<defs>
<clipPath id="clip0_33897_74245">
<rect width="633" height="424" fill="white"/>
</clipPath>
</defs>
</svg>
