<svg width="1059" height="625" viewBox="0 0 1059 625" fill="none" xmlns="http://www.w3.org/2000/svg">
<path d="M615.957 432.207C614.707 432.386 613.635 432.564 612.742 433.099C610.421 434.168 610.421 436.129 612.742 437.198C615.064 438.267 618.994 438.267 621.315 437.198C623.637 436.129 623.637 434.168 621.315 433.099C620.601 432.742 619.708 432.564 618.636 432.386V408.859L846.001 298.891L844.036 298L615.957 408.325V432.207ZM619.351 433.99C620.601 434.703 620.601 435.594 619.351 436.307C618.101 437.02 615.957 437.02 614.707 436.307C613.457 435.594 613.457 434.703 614.707 433.99C615.957 433.277 618.101 433.277 619.351 433.99Z" fill="#484848"/>
<path d="M426.198 351.898C428.356 352.977 432.026 352.977 434.401 351.898C436.344 351.034 436.559 349.523 435.264 348.444L494.413 319.733V302.463L571.696 264.901C573.854 265.549 576.877 265.549 578.819 264.469C580.978 263.39 580.978 261.663 578.819 260.583C576.661 259.504 572.991 259.504 570.616 260.583C568.673 261.447 568.458 262.958 569.753 264.037L491.823 302.031V319.301L433.537 347.58C431.379 346.932 428.356 346.932 426.413 348.012C424.039 349.091 424.039 350.818 426.198 351.898ZM572.559 263.606C571.264 262.958 571.264 262.095 572.559 261.447C573.854 260.799 575.797 260.799 577.093 261.447C578.388 262.095 578.388 262.958 577.093 263.606C575.797 264.253 573.854 264.253 572.559 263.606ZM428.14 351.034C426.845 350.386 426.845 349.523 428.14 348.875C429.436 348.228 431.378 348.228 432.674 348.875C433.969 349.523 433.969 350.386 432.674 351.034C431.378 351.682 429.22 351.682 428.14 351.034Z" fill="#484848"/>
<path d="M554.211 338.082C556.37 339.161 560.039 339.161 562.414 338.082C564.357 337.218 564.573 335.707 563.277 334.628L622.427 305.917V288.647L699.709 251.085C701.868 251.733 704.89 251.733 706.833 250.653C708.991 249.574 708.991 247.847 706.833 246.768C704.674 245.688 701.004 245.688 698.63 246.768C696.687 247.631 696.471 249.142 697.766 250.222L619.62 288.215V305.485L561.335 333.764C559.176 333.117 556.154 333.117 554.211 334.196C552.052 335.275 552.052 337.002 554.211 338.082ZM700.572 249.79C699.277 249.142 699.277 248.279 700.572 247.631C701.868 246.983 703.811 246.983 705.106 247.631C706.401 248.279 706.401 249.142 705.106 249.79C703.811 250.437 701.652 250.437 700.572 249.79ZM556.154 337.218C554.858 336.571 554.858 335.707 556.154 335.059C557.449 334.412 559.392 334.412 560.687 335.059C561.982 335.707 561.982 336.571 560.687 337.218C559.392 337.866 557.233 337.866 556.154 337.218Z" fill="#484848"/>
<path d="M542.293 393.529C543.388 393.043 543.51 392.194 542.78 391.587L700.576 315.264V275.95L840.001 208.485L839.028 208L699.238 275.708V315.022L541.928 391.223C540.712 390.859 539.008 390.859 537.913 391.466C536.697 392.073 536.697 393.043 537.913 393.65C538.887 394.135 540.955 394.135 542.293 393.529ZM538.643 391.83C539.373 391.466 540.468 391.466 541.198 391.83C541.928 392.194 541.928 392.679 541.198 393.043C540.468 393.407 539.373 393.407 538.643 393.043C537.913 392.679 537.913 392.194 538.643 391.83Z" fill="#484848"/>
<path d="M432.293 308.318C433.934 307.59 434.116 306.316 433.022 305.406L759.614 147.092H846.001V146H758.703L431.382 304.678C429.56 304.132 427.008 304.132 425.368 305.042C423.545 305.952 423.545 307.408 425.368 308.318C427.19 309.227 430.289 309.227 432.293 308.318ZM426.826 305.77C427.919 305.224 429.56 305.224 430.653 305.77C431.747 306.316 431.747 307.044 430.653 307.59C429.56 308.136 427.919 308.136 426.826 307.59C425.732 307.044 425.732 306.134 426.826 305.77Z" fill="#484848"/>
<path d="M577.823 409.924C579.766 409.06 579.982 407.549 578.687 406.47L704.324 345.378V324.006L790.458 282.127C792.616 282.775 795.639 282.775 797.581 281.695C799.74 280.616 799.74 278.889 797.581 277.81C795.423 276.73 791.753 276.73 789.378 277.81C787.435 278.673 787.219 280.184 788.515 281.263L701.734 323.359V344.73L576.744 405.39C574.585 404.743 571.563 404.743 569.62 405.822C567.461 406.901 567.461 408.628 569.62 409.708C571.995 411.003 575.664 411.003 577.823 409.924ZM791.321 278.889C792.616 278.241 794.559 278.241 795.854 278.889C797.15 279.537 797.15 280.4 795.854 281.048C794.559 281.695 792.616 281.695 791.321 281.048C790.026 280.4 790.026 279.537 791.321 278.889ZM571.563 406.901C572.858 406.254 574.801 406.254 576.096 406.901C577.391 407.549 577.391 408.412 576.096 409.06C574.801 409.708 572.858 409.708 571.563 409.06C570.268 408.628 570.268 407.549 571.563 406.901Z" fill="#484848"/>
<path d="M562.414 284.545C564.357 283.682 564.573 282.171 563.277 281.091L688.915 219.999V198.628L775.049 156.749C777.207 157.396 780.229 157.396 782.172 156.317C784.331 155.237 784.331 153.51 782.172 152.431C780.014 151.352 776.344 151.352 773.969 152.431C772.026 153.295 771.81 154.806 773.106 155.885L686.325 197.98V219.352L561.335 280.012C559.176 279.364 556.154 279.364 554.211 280.444C552.052 281.523 552.052 283.25 554.211 284.329C556.585 285.625 560.039 285.624 562.414 284.545ZM775.696 153.295C776.991 152.647 778.934 152.647 780.229 153.295C781.525 153.942 781.525 154.806 780.229 155.453C778.934 156.101 776.991 156.101 775.696 155.453C774.617 154.806 774.617 153.942 775.696 153.295ZM556.154 281.307C557.449 280.659 559.392 280.659 560.687 281.307C561.982 281.955 561.982 282.818 560.687 283.466C559.392 284.113 557.449 284.113 556.154 283.466C554.858 283.034 554.858 281.955 556.154 281.307Z" fill="#484848"/>
<path d="M527.782 371.336C529.941 372.416 533.61 372.416 535.985 371.336C537.928 370.473 538.144 368.962 536.849 367.882L661.839 307.222H705.877L792.658 265.127C794.816 265.775 797.839 265.775 799.781 264.695C801.94 263.616 801.94 261.889 799.781 260.81C797.623 259.73 793.953 259.73 791.578 260.81C789.635 261.673 789.419 263.184 790.715 264.263L704.582 306.143H660.544L534.906 367.235C532.747 366.587 529.725 366.587 527.782 367.666C525.407 368.314 525.407 370.257 527.782 371.336ZM793.305 263.616C792.01 262.968 792.01 262.105 793.305 261.457C794.6 260.81 796.543 260.81 797.838 261.457C799.134 262.105 799.134 262.968 797.838 263.616C796.759 264.263 794.6 264.263 793.305 263.616ZM529.509 370.257C528.214 369.609 528.214 368.746 529.509 368.098C530.804 367.451 532.747 367.451 534.042 368.098C535.337 368.746 535.337 369.609 534.042 370.257C532.747 370.905 530.804 370.905 529.509 370.257Z" fill="#484848"/>
<path d="M300.344 518.552C298.185 517.472 294.515 517.472 292.14 518.552C290.198 519.415 289.982 520.926 291.277 522.006L232.128 550.717V567.987L154.845 605.548C152.687 604.901 149.664 604.901 147.722 605.98C145.563 607.059 145.563 608.786 147.722 609.866C149.88 610.945 153.55 610.945 155.925 609.866C157.868 609.002 158.083 607.491 156.788 606.412L234.934 568.418V551.148L293.22 522.869C295.378 523.517 298.401 523.517 300.344 522.437C302.502 521.358 302.502 519.631 300.344 518.552ZM153.982 606.628C155.277 607.275 155.277 608.139 153.982 608.786C152.687 609.434 150.744 609.434 149.449 608.786C148.153 608.139 148.153 607.275 149.449 606.628C150.744 605.98 152.687 605.98 153.982 606.628ZM298.401 519.415C299.696 520.063 299.696 520.926 298.401 521.574C297.105 522.222 295.163 522.222 293.867 521.574C292.572 520.926 292.572 520.063 293.867 519.415C295.163 518.768 297.105 518.768 298.401 519.415Z" fill="#484848"/>
<path d="M239.208 622.459C237.049 621.38 233.379 621.38 231.005 622.459C229.062 623.323 228.846 624.834 230.141 625.913L170.992 654.624V671.894L93.7097 709.456C91.551 708.808 88.5287 708.808 86.5858 709.888C84.4271 710.967 84.4271 712.694 86.5858 713.774C88.7446 714.853 92.4144 714.853 94.789 713.774C96.7319 712.91 96.9478 711.399 95.6525 710.32L173.798 672.326V655.056L232.084 626.777C234.243 627.424 237.265 627.425 239.208 626.345C241.367 625.266 241.367 623.539 239.208 622.459ZM92.8462 710.535C94.1414 711.183 94.1414 712.047 92.8462 712.694C91.551 713.342 89.6081 713.342 88.3129 712.694C87.0176 712.047 87.0176 711.183 88.3129 710.535C89.6081 709.888 91.551 709.888 92.8462 710.535ZM237.265 623.323C238.56 623.971 238.56 624.834 237.265 625.482C235.97 626.129 234.027 626.129 232.732 625.482C231.436 624.834 231.436 623.971 232.732 623.323C234.027 622.675 235.97 622.675 237.265 623.323Z" fill="#484848"/>
<path d="M207.303 516.393C205.145 515.313 201.475 515.313 199.1 516.393C197.157 517.256 196.942 518.767 198.237 519.847L139.088 548.558V565.827L61.8053 603.389C59.6466 602.742 56.6244 602.742 54.6815 603.821C52.5228 604.9 52.5228 606.627 54.6815 607.707C56.8403 608.786 60.5101 608.786 62.8847 607.707C64.8275 606.843 65.0434 605.332 63.7482 604.253L141.894 566.259V548.989L200.18 520.71C202.338 521.358 205.361 521.358 207.303 520.278C209.462 519.199 209.462 517.472 207.303 516.393ZM60.9418 604.684C62.2371 605.332 62.2371 606.196 60.9418 606.843C59.6466 607.491 57.7037 607.491 56.4085 606.843C55.1133 606.196 55.1133 605.332 56.4085 604.684C57.7037 604.037 59.6466 604.037 60.9418 604.684ZM205.361 517.256C206.656 517.904 206.656 518.767 205.361 519.415C204.065 520.062 202.122 520.062 200.827 519.415C199.532 518.767 199.532 517.904 200.827 517.256C202.122 516.608 204.281 516.608 205.361 517.256Z" fill="#484848"/>
<path d="M231.697 435.873C229.754 436.736 229.538 438.248 230.834 439.327L-49.153 575.111V645.269L-296.543 765.295L-294.816 766.158L-46.7784 645.701V575.758L232.345 440.19C234.504 440.838 237.526 440.838 239.469 439.759C241.627 438.679 241.627 436.952 239.469 435.873C237.742 434.794 234.072 434.794 231.697 435.873ZM238.173 439.111C236.878 439.759 234.935 439.759 233.64 439.111C232.345 438.463 232.345 437.6 233.64 436.952C234.935 436.305 236.878 436.305 238.173 436.952C239.253 437.384 239.253 438.463 238.173 439.111Z" fill="#484848"/>
<path d="M300.777 557.194C298.834 558.057 298.618 559.568 299.913 560.648L-86.9303 748.457H-189.254V749.752H-85.8509L301.856 561.511C304.015 562.159 307.037 562.159 308.98 561.079C311.139 560 311.139 558.273 308.98 557.194C306.605 556.114 302.936 556.114 300.777 557.194ZM307.037 560.432C305.742 561.08 303.799 561.08 302.504 560.432C301.209 559.784 301.209 558.921 302.504 558.273C303.799 557.626 305.742 557.626 307.037 558.273C308.332 558.705 308.332 559.784 307.037 560.432Z" fill="#484848"/>
<path d="M166.288 420.762C164.346 421.625 164.13 423.136 165.425 424.216L39.7871 485.308V506.679L-46.1302 548.342C-48.2889 547.695 -51.3111 547.695 -53.254 548.774C-55.4127 549.853 -55.4127 551.58 -53.254 552.66C-51.0953 553.739 -47.4254 553.739 -45.0508 552.66C-43.108 551.796 -42.8921 550.285 -44.1874 549.206L42.3776 507.111V485.739L167.368 425.079C169.526 425.727 172.549 425.727 174.492 424.647C176.65 423.568 176.65 421.841 174.492 420.762C172.333 419.682 168.663 419.682 166.288 420.762ZM-46.9937 551.796C-48.2889 552.444 -50.2318 552.444 -51.527 551.796C-52.8223 551.149 -52.8223 550.285 -51.527 549.638C-50.2318 548.99 -48.2889 548.99 -46.9937 549.638C-45.6984 550.285 -45.6984 551.365 -46.9937 551.796ZM172.765 423.784C171.469 424.431 169.526 424.431 168.231 423.784C166.936 423.136 166.936 422.273 168.231 421.625C169.526 420.978 171.469 420.978 172.765 421.625C174.06 422.273 174.06 423.136 172.765 423.784Z" fill="#484848"/>
<path d="M199.1 562.158C197.157 563.021 196.941 564.533 198.237 565.612L72.5986 626.704V648.075L-13.5345 689.955C-15.6932 689.307 -18.7154 689.307 -20.6583 690.386C-22.817 691.466 -22.817 693.193 -20.6583 694.272C-18.4996 695.351 -14.8297 695.351 -12.4551 694.272C-10.5123 693.408 -10.2964 691.897 -11.5917 690.818L75.1891 648.723V627.351L200.179 566.691C202.338 567.339 205.36 567.339 207.303 566.259C209.462 565.18 209.462 563.453 207.303 562.374C204.929 561.079 201.259 561.079 199.1 562.158ZM-14.398 693.193C-15.6932 693.84 -17.6361 693.84 -18.9313 693.193C-20.2265 692.545 -20.2265 691.681 -18.9313 691.034C-17.6361 690.386 -15.6932 690.386 -14.398 691.034C-13.1028 691.681 -13.1028 692.545 -14.398 693.193ZM205.36 565.18C204.065 565.828 202.122 565.828 200.827 565.18C199.532 564.532 199.532 563.669 200.827 563.021C202.122 562.374 204.065 562.374 205.36 563.021C206.656 563.669 206.656 564.532 205.36 565.18Z" fill="#484848"/>
<path d="M247.24 476.673C245.081 475.593 241.411 475.593 239.036 476.673C237.094 477.536 236.878 479.047 238.173 480.127L113.183 540.787H69.1447L-17.6361 582.882C-19.7948 582.235 -22.817 582.234 -24.7599 583.314C-26.9186 584.393 -26.9186 586.12 -24.7599 587.2C-22.6011 588.279 -18.9313 588.279 -16.5567 587.2C-14.6138 586.336 -14.398 584.825 -15.6932 583.746L70.44 541.866H114.478L240.116 480.774C242.275 481.422 245.297 481.422 247.24 480.343C249.398 479.479 249.398 477.752 247.24 476.673ZM-18.4995 584.177C-17.2043 584.825 -17.2043 585.689 -18.4995 586.336C-19.7948 586.984 -21.7376 586.984 -23.0329 586.336C-24.3281 585.689 -24.3281 584.825 -23.0329 584.177C-21.7376 583.53 -19.5789 583.53 -18.4995 584.177ZM245.513 477.536C246.808 478.184 246.808 479.047 245.513 479.695C244.217 480.343 242.275 480.343 240.979 479.695C239.684 479.047 239.684 478.184 240.979 477.536C242.275 476.889 244.217 476.889 245.513 477.536Z" fill="#484848"/>
<path d="M521.831 641.166L339.635 552.874C341.362 551.579 341.146 549.636 338.556 548.556C335.749 547.261 331 547.261 328.194 548.556C325.387 549.852 325.387 552.226 328.194 553.521C330.568 554.817 334.454 554.817 337.26 553.953L519.457 642.245L521.831 641.166ZM330.784 552.226C329.273 551.363 329.273 550.283 330.784 549.42C332.295 548.556 334.886 548.556 336.397 549.42C337.908 550.283 337.908 551.363 336.397 552.226C334.886 553.09 332.295 553.09 330.784 552.226Z" fill="#484848"/>
<path d="M417.997 523.084C415.406 521.789 411.52 521.789 408.714 522.652L354.746 496.316H243.787C243.572 495.668 242.924 495.02 241.845 494.589C239.038 493.293 234.289 493.293 231.483 494.589C228.676 495.884 228.676 498.258 231.483 499.554C234.289 500.849 239.038 500.849 241.845 499.554C242.924 499.122 243.356 498.474 243.787 497.827H353.235L406.555 523.731C404.828 525.027 405.26 526.969 407.635 528.049C410.441 529.344 415.19 529.344 417.997 528.049C421.019 526.754 421.019 524.595 417.997 523.084ZM233.857 498.69C232.346 497.827 232.346 496.747 233.857 495.884C235.368 495.02 237.959 495.02 239.47 495.884C240.981 496.747 240.981 497.827 239.47 498.69C237.959 499.338 235.368 499.338 233.857 498.69ZM410.009 527.185C408.498 526.322 408.498 525.242 410.009 524.379C411.52 523.516 414.111 523.516 415.622 524.379C417.133 525.242 417.133 526.322 415.622 527.185C414.111 527.833 411.52 527.833 410.009 527.185Z" fill="#484848"/>
<path d="M366.618 378.881C368.561 379.961 369.208 381.256 368.561 382.551L458.58 426.157V443.211L688.052 554.602C690.643 554.17 693.449 554.602 695.608 555.465C698.63 556.976 698.63 559.351 695.608 560.862C692.585 562.373 687.62 562.373 684.598 560.862C682.655 559.783 682.008 558.487 682.655 557.192L450.808 444.723V427.669L363.164 385.142C360.574 385.573 357.767 385.142 355.608 384.278C352.586 382.767 352.586 380.392 355.608 378.881C358.847 377.37 363.596 377.37 366.618 378.881Z" fill="#484848"/>
<path d="M301.424 403.491C296.891 405.649 296.891 409.319 301.424 411.478C305.094 413.205 310.491 413.637 314.809 412.557L430.3 468.684V494.157L928.534 735.934L933.931 733.344L438.288 492.646V467.173L320.421 409.967C322.58 407.808 321.932 405.218 318.262 403.491C313.513 401.332 306.174 401.332 301.424 403.491ZM307.037 406.081C308.548 405.218 311.139 405.218 312.866 406.081C314.377 406.945 314.377 408.024 312.866 408.887C311.355 409.751 308.764 409.751 307.037 408.887C305.31 408.24 305.31 406.945 307.037 406.081Z" fill="#484848"/>
<path d="M259.977 427.453C261.92 428.316 262.352 429.612 261.488 430.907L457.069 525.891H575.367L891.405 679.16L887.735 680.887L573.208 528.265H454.91L257.819 432.634C255.444 433.066 252.638 432.85 250.911 431.986C248.32 430.691 248.32 428.748 250.911 427.453C253.285 426.158 257.387 426.158 259.977 427.453Z" fill="#484848"/>
<path d="M390.364 594.538H282.428C281.78 593.891 280.917 593.027 279.837 592.596C275.088 590.437 267.533 590.437 262.999 592.596C258.25 594.754 258.25 598.64 262.999 600.799C267.749 602.957 275.304 602.957 279.837 600.799C281.133 600.151 281.996 599.504 282.644 598.64H387.126L602.567 703.122L608.611 700.316L390.364 594.538ZM268.828 597.777C267.533 597.129 267.533 596.05 268.828 595.402C270.123 594.754 272.498 594.754 273.793 595.402C275.088 596.05 275.088 597.129 273.793 597.777C272.498 598.424 270.123 598.424 268.828 597.777Z" fill="#484848"/>
<path d="M423.475 497.241L327.039 450.234V435.073L292.315 418.159" stroke="#484848" stroke-width="0.622361" stroke-miterlimit="10" stroke-linecap="round"/>
<path d="M654.934 519.422L468.568 428.531V396.024C445.554 384.703 422.379 373.544 399.365 362.223" stroke="#484848" stroke-width="0.622361" stroke-miterlimit="10" stroke-linecap="round"/>
<path d="M418.429 566.69L298.835 508.621V484.659C282.429 476.671 265.807 468.684 249.4 460.697" stroke="#484848" stroke-width="0.622361" stroke-miterlimit="10" stroke-linecap="round"/>
<path d="M603.432 469.548C601.273 470.627 601.273 472.354 603.432 473.433C605.374 474.297 608.397 474.513 610.555 473.865L917.094 622.601V670.093H919.685V622.17L612.282 473.002C613.578 471.922 613.362 470.411 611.419 469.548C609.26 468.468 605.59 468.468 603.432 469.548ZM605.158 470.411C606.454 469.764 608.397 469.764 609.692 470.411C610.987 471.059 610.987 471.922 609.692 472.57C608.397 473.218 606.454 473.218 605.158 472.57C603.863 472.138 603.863 471.059 605.158 470.411Z" fill="#484848"/>
<path d="M327.976 390.106C325.818 391.186 325.818 392.913 327.976 393.992C329.919 394.856 332.942 395.071 335.1 394.424L993.727 714.131L995.454 713.268L337.043 393.56C338.338 392.481 338.123 390.97 336.18 390.106C333.805 389.027 330.135 389.027 327.976 390.106ZM329.703 390.97C330.999 390.322 332.942 390.322 334.237 390.97C335.532 391.617 335.532 392.481 334.237 393.129C332.942 393.776 330.999 393.776 329.703 393.129C328.624 392.481 328.624 391.402 329.703 390.97Z" fill="#484848"/>
<path d="M375.901 367.008C373.743 368.088 373.743 369.815 375.901 370.894C377.844 371.757 380.866 371.973 383.025 371.326L663.228 507.325V537.332L900.256 652.392L901.983 651.528L665.818 536.9V506.894L384.752 370.462C386.047 369.383 385.831 367.872 383.889 367.008C381.73 365.929 378.06 365.929 375.901 367.008ZM377.628 368.088C378.923 367.44 380.866 367.44 382.162 368.088C383.457 368.735 383.457 369.599 382.162 370.246C380.866 370.894 378.923 370.894 377.628 370.246C376.549 369.599 376.549 368.519 377.628 368.088Z" fill="#484848"/>
<path d="M399 464.583C397.488 465.446 397.488 466.526 399 467.389C400.295 468.037 402.453 468.037 403.965 467.605L445.196 487.681H470.022L523.99 514.018C522.91 514.665 523.126 515.744 524.637 516.392C526.148 517.256 528.739 517.256 530.25 516.392C531.761 515.529 531.761 514.449 530.25 513.586C528.955 512.938 526.796 512.938 525.285 513.37L470.669 486.818H446.06L405.26 466.957C406.339 466.31 406.123 465.23 404.612 464.583C403.101 463.719 400.511 463.719 399 464.583ZM525.933 514.233C526.796 513.802 528.307 513.802 529.171 514.233C530.034 514.665 530.034 515.313 529.171 515.744C528.307 516.176 526.796 516.176 525.933 515.744C525.069 515.313 525.069 514.665 525.933 514.233ZM400.295 465.23C401.158 464.799 402.669 464.799 403.533 465.23C404.396 465.662 404.396 466.31 403.533 466.741C402.669 467.173 401.158 467.173 400.295 466.741C399.431 466.31 399.431 465.662 400.295 465.23Z" fill="#484848"/>
<path d="M335.75 508.405C333.591 509.484 333.591 511.211 335.75 512.29C337.693 513.154 340.715 513.37 342.874 512.722L730.581 700.963H833.984V699.668H731.66L344.817 511.859C346.112 510.779 345.896 509.268 343.953 508.405C341.579 507.325 337.909 507.325 335.75 508.405ZM337.477 509.268C338.772 508.621 340.715 508.621 342.01 509.268C343.305 509.916 343.305 510.779 342.01 511.427C340.715 512.075 338.772 512.075 337.477 511.427C336.182 510.779 336.182 509.7 337.477 509.268Z" fill="#484848"/>
<path d="M421.882 569.713C419.723 570.792 419.723 572.519 421.882 573.599C423.825 574.462 426.847 574.678 429.006 574.03L553.996 634.691V656.062L640.777 698.157C639.481 699.236 639.697 700.748 641.64 701.611C643.799 702.69 647.469 702.69 649.843 701.611C652.002 700.532 652.002 698.805 649.843 697.725C647.9 696.862 644.878 696.646 642.719 697.294L556.586 655.414V634.043L430.948 573.167C432.244 572.087 432.028 570.576 430.085 569.713C427.926 568.633 424.256 568.633 421.882 569.713ZM643.583 698.805C644.878 698.157 646.821 698.157 648.116 698.805C649.411 699.452 649.411 700.316 648.116 700.963C646.821 701.611 644.878 701.611 643.583 700.963C642.288 700.316 642.288 699.236 643.583 698.805ZM423.825 570.576C425.12 569.929 427.063 569.929 428.358 570.576C429.653 571.224 429.653 572.087 428.358 572.735C427.063 573.383 425.12 573.383 423.825 572.735C422.529 572.303 422.529 571.224 423.825 570.576Z" fill="#484848"/>
<path d="M219.826 461.56C217.883 462.424 217.667 463.935 218.962 465.014L93.3243 526.106V547.477L7.19109 589.357C5.03236 588.709 2.01014 588.709 0.0672865 589.788C-2.09144 590.868 -2.09144 592.595 0.0672865 593.674C2.22601 594.753 5.89585 594.753 8.27045 593.674C10.2133 592.811 10.4292 591.299 9.13396 590.22L95.9147 548.125V526.538L220.905 465.877C223.064 466.525 226.086 466.525 228.029 465.446C230.187 464.366 230.187 462.639 228.029 461.56C225.87 460.481 222.2 460.481 219.826 461.56ZM6.54346 592.811C5.24823 593.458 3.3054 593.458 2.01016 592.811C0.714924 592.163 0.714924 591.299 2.01016 590.652C3.3054 590.004 5.24823 590.004 6.54346 590.652C7.62283 591.084 7.62283 592.163 6.54346 592.811ZM226.302 464.798C225.007 465.446 223.064 465.446 221.768 464.798C220.473 464.15 220.473 463.287 221.768 462.639C223.064 461.992 225.007 461.992 226.302 462.639C227.381 463.071 227.381 464.15 226.302 464.798Z" fill="#484848"/>
<path d="M434.834 536.036C432.675 537.115 432.675 538.842 434.834 539.922C436.777 540.785 439.799 541.001 441.958 540.354L564.142 599.718H605.157L959.404 771.553L961.131 770.69L606.237 598.423H565.005L443.901 539.49C445.196 538.411 444.98 536.9 443.037 536.036C440.878 534.957 437.208 534.957 434.834 536.036ZM436.777 536.9C438.072 536.252 440.015 536.252 441.31 536.9C442.605 537.547 442.605 538.411 441.31 539.058C440.015 539.706 438.072 539.706 436.777 539.058C435.482 538.411 435.482 537.547 436.777 536.9Z" fill="#484848"/>
<path d="M429.87 360.532C427.711 361.611 427.711 363.338 429.87 364.418C431.813 365.281 434.835 365.497 436.994 364.85L576.016 432.202V448.176L825.78 569.281C824.269 570.36 824.701 571.871 826.644 572.735C828.803 573.814 832.472 573.814 834.847 572.735C837.006 571.655 837.006 569.929 834.847 568.849C832.904 567.986 829.882 567.77 827.723 568.417L578.822 447.529V431.554L439.153 363.77C440.448 362.691 440.232 361.18 438.289 360.316C435.699 359.453 432.029 359.453 429.87 360.532ZM828.155 569.929C829.45 569.281 831.393 569.281 832.688 569.929C833.983 570.576 833.983 571.44 832.688 572.087C831.393 572.735 829.45 572.735 828.155 572.087C826.86 571.44 826.86 570.576 828.155 569.929ZM431.597 361.611C432.892 360.964 434.835 360.964 436.13 361.611C437.426 362.259 437.426 363.123 436.13 363.77C434.835 364.418 432.892 364.418 431.597 363.77C430.302 363.123 430.302 362.043 431.597 361.611Z" fill="#484848"/>
<path d="M835.33 558.079L725.83 505.326L725.83 493.126L652 457.518L652 409.71L769.63 353L774.11 355.308L658.471 411.029L658.471 456.199L732.3 491.972L732.3 504.007L839.81 555.771L835.33 558.079Z" fill="#484848"/>
<path d="M-89.5908 2.75817L280.249 181.765C276.744 184.391 277.182 188.33 282.44 190.518C288.137 193.144 297.777 193.144 303.474 190.518C309.171 187.892 309.171 183.078 303.474 180.452C298.654 177.826 290.766 177.826 285.07 179.576L-84.7706 0.569824L-89.5908 2.75817ZM298.216 183.078C301.283 184.828 301.283 187.017 298.216 188.767C295.148 190.518 289.89 190.518 286.822 188.767C283.755 187.017 283.755 184.828 286.822 183.078C289.89 181.765 295.148 181.765 298.216 183.078Z" fill="#484848"/>
<path d="M255.876 261.017C258.466 262.312 262.352 262.312 265.158 261.448L319.342 287.785H430.301C430.517 288.432 431.164 289.08 432.244 289.512C435.05 290.807 439.799 290.807 442.606 289.512C445.412 288.217 445.412 285.842 442.606 284.547C439.799 283.251 435.05 283.251 432.244 284.547C431.164 284.978 430.733 285.626 430.301 286.274H320.854L267.533 260.369C269.26 259.074 268.828 257.131 266.454 256.052C263.647 254.756 258.898 254.756 256.092 256.052C253.285 257.347 253.07 259.505 255.876 261.017ZM440.231 285.626C441.742 286.49 441.742 287.569 440.231 288.432C438.72 289.296 436.13 289.296 434.618 288.432C433.107 287.569 433.107 286.49 434.618 285.626C436.13 284.763 438.504 284.763 440.231 285.626ZM263.863 257.131C265.374 257.994 265.374 259.074 263.863 259.937C262.352 260.801 259.762 260.801 258.251 259.937C256.739 259.074 256.739 257.994 258.251 257.131C259.762 256.267 262.352 256.267 263.863 257.131Z" fill="#484848"/>
<path d="M54.2485 375.695C52.3057 374.616 51.658 373.321 52.3056 372.026L-90.3861 302.73H-243.008L-262.221 293.448L-256.824 290.857L-239.77 299.061H-87.148L57.9183 369.435C60.5088 369.003 63.3151 369.435 65.4738 370.299C68.4961 371.81 68.4961 374.184 65.4738 375.695C62.2357 377.206 57.2707 377.206 54.2485 375.695Z" fill="#484848"/>
<path d="M304.352 409.356C302.409 408.277 301.762 406.982 302.409 405.686L212.39 362.08V345.026L-17.0821 233.636C-19.6726 234.068 -22.4789 233.636 -24.6376 232.772C-27.6599 231.261 -27.6599 228.887 -24.6376 227.376C-21.6154 225.864 -16.6503 225.864 -13.6281 227.376C-11.6853 228.455 -11.0377 229.75 -11.6853 231.045L220.162 343.515V360.569L307.806 403.096C310.397 402.664 313.203 403.096 315.362 403.959C318.384 405.47 318.384 407.845 315.362 409.356C312.339 410.867 307.374 410.867 304.352 409.356Z" fill="#484848"/>
<path d="M367.698 384.496C372.231 382.337 372.231 378.667 367.698 376.509C364.028 374.782 358.631 374.35 354.314 375.429L238.822 319.302V293.83L-259.412 52.0522L-264.809 54.6427L231.267 295.341V320.814L349.133 378.02C346.974 380.179 347.622 382.769 351.292 384.496C355.609 386.655 363.165 386.655 367.698 384.496ZM362.301 381.69C360.79 382.553 358.2 382.553 356.473 381.69C354.961 380.826 354.961 379.747 356.473 378.883C357.984 378.02 360.574 378.02 362.301 378.883C363.812 379.747 363.812 381.042 362.301 381.69Z" fill="#484848"/>
<path d="M404.18 356.432C402.237 355.568 401.806 354.273 402.669 352.978L207.089 257.994H88.7904L-227.247 104.725L-223.577 102.998L90.9491 255.619H209.247L406.339 351.251C408.714 350.819 411.52 351.035 413.247 351.899C415.837 353.194 415.837 355.137 413.247 356.432C410.872 357.727 406.771 357.727 404.18 356.432Z" fill="#484848"/>
<path d="M-124.492 245.257L17.9841 314.337V330.311L114.047 376.94V439.543L-39.0062 513.803L-44.8348 510.781L105.628 437.816V378.667L9.56512 331.822V316.064L-130.32 248.28L-124.492 245.257Z" fill="#484848"/>
<path d="M281.717 207.369H391.428C392.086 208.028 392.964 208.905 394.061 209.344C398.888 211.538 406.568 211.538 411.176 209.344C416.003 207.15 416.003 203.2 411.176 201.006C406.348 198.812 398.669 198.812 394.061 201.006C392.744 201.664 391.867 202.323 391.208 203.2H285.008L66.0247 97L59.8809 99.8525L281.717 207.369ZM405.471 204.078C406.787 204.736 406.787 205.833 405.471 206.492C404.154 207.15 401.741 207.15 400.424 206.492C399.108 205.833 399.108 204.736 400.424 204.078C401.741 203.42 403.935 203.42 405.471 204.078Z" fill="#484848"/>
<path d="M3.08887 143.366L277.679 276.775V319.734C309.844 335.276 342.009 351.035 374.39 366.578" stroke="#484848" stroke-width="0.622361" stroke-miterlimit="10" stroke-linecap="round"/>
<path d="M323.845 238.519C328.594 240.678 336.15 240.678 340.683 238.519C341.763 237.871 342.626 237.44 343.274 236.792H449.267L610.308 158.646L604.264 155.84L445.813 232.69H343.49C342.842 231.827 341.978 230.964 340.683 230.316C335.934 228.157 328.378 228.157 323.845 230.316C319.096 232.69 319.096 236.36 323.845 238.519ZM334.855 233.338C336.15 233.986 336.15 235.065 334.855 235.713C333.559 236.36 331.185 236.36 329.89 235.713C328.594 235.065 328.594 233.986 329.89 233.338C331.185 232.69 333.344 232.69 334.855 233.338Z" fill="#484848"/>
<path d="M101.526 143.149L377.196 276.99V307.213L441.957 338.73" stroke="#484848" stroke-width="0.622361" stroke-miterlimit="10" stroke-linecap="round"/>
<path d="M393.171 269.651H433.971L557.45 209.854" stroke="#484848" stroke-width="0.622361" stroke-miterlimit="10" stroke-linecap="round" stroke-linejoin="round"/>
<path d="M189.604 198.845L350.429 276.991V309.156L425.984 345.854" stroke="#484848" stroke-width="0.622361" stroke-miterlimit="10" stroke-linecap="round"/>
<path d="M336.18 393.994C338.339 392.915 338.339 391.188 336.18 390.108C334.237 389.245 331.215 389.029 329.056 389.677L-329.787 69.9692L-331.514 70.8327L327.114 390.54C325.818 391.619 326.034 393.131 327.977 393.994C330.136 395.073 333.806 395.073 336.18 393.994ZM334.237 393.131C332.942 393.778 330.999 393.778 329.704 393.131C328.409 392.483 328.409 391.619 329.704 390.972C330.999 390.324 332.942 390.324 334.237 390.972C335.533 391.404 335.533 392.483 334.237 393.131Z" fill="#484848"/>
<path d="M51.0126 386.654C53.1713 385.574 53.1713 383.847 51.0126 382.768C49.0697 381.904 46.0475 381.689 43.8888 382.336L-235.234 246.768V176.825L-483.272 56.5845L-484.999 57.4479L-237.609 177.473V247.416L42.3777 383.2C41.0825 384.279 41.2983 385.79 43.2411 386.654C45.184 387.733 48.8539 387.733 51.0126 386.654ZM49.2856 385.79C47.9904 386.438 46.0475 386.438 44.7523 385.79C43.457 385.143 43.457 384.279 44.7523 383.631C46.0475 382.984 47.9904 382.984 49.2856 383.631C50.5809 384.279 50.5809 385.143 49.2856 385.79Z" fill="#484848"/>
<path d="M288.257 416.876C290.416 415.797 290.416 414.07 288.257 412.991C286.314 412.127 283.292 411.911 281.133 412.559L0.930862 276.559V246.553L-236.097 131.493L-237.824 132.356L-1.65961 246.985V276.991L279.406 413.422C278.111 414.502 278.327 416.013 280.27 416.876C282.429 417.956 285.883 417.956 288.257 416.876ZM286.53 416.013C285.235 416.66 283.292 416.66 281.997 416.013C280.702 415.365 280.702 414.502 281.997 413.854C283.292 413.206 285.235 413.206 286.53 413.854C287.61 414.502 287.61 415.365 286.53 416.013Z" fill="#484848"/>
<path d="M397.272 361.828C399.431 360.749 399.431 359.022 397.272 357.943C395.329 357.079 392.307 356.863 390.148 357.511L296.46 311.962H184.638L-217.101 117.029L-218.828 117.892L183.558 313.257H295.38L388.421 358.374C387.126 359.454 387.342 360.965 389.285 361.828C391.444 362.908 395.114 362.908 397.272 361.828ZM395.545 360.965C394.25 361.612 392.307 361.612 391.012 360.965C389.717 360.317 389.717 359.454 391.012 358.806C392.307 358.158 394.25 358.158 395.545 358.806C396.625 359.238 396.625 360.317 395.545 360.965Z" fill="#484848"/>
<path d="M328.409 275.696C330.567 274.616 330.567 272.889 328.409 271.81C326.466 270.946 323.444 270.73 321.285 271.378L-66.4222 83.1372H-169.825V84.4324H-67.5016L319.342 272.242C318.047 273.321 318.263 274.832 320.206 275.696C322.58 276.775 326.25 276.775 328.409 275.696ZM326.682 274.832C325.387 275.48 323.444 275.48 322.148 274.832C320.853 274.184 320.853 273.321 322.148 272.673C323.444 272.026 325.387 272.026 326.682 272.673C327.977 273.321 327.977 274.184 326.682 274.832Z" fill="#484848"/>
<path d="M185.286 196.903C187.444 195.824 187.444 194.097 185.286 193.017C183.343 192.154 180.32 191.938 178.162 192.586L53.1715 131.925V110.554L-33.6092 68.4588C-32.314 67.3794 -32.5299 65.8683 -34.4727 65.0048C-36.6315 63.9255 -40.3013 63.9255 -42.6759 65.0048C-44.8346 66.0842 -44.8346 67.8112 -42.6759 68.8905C-40.733 69.754 -37.7108 69.9699 -35.5521 69.3223L50.581 111.202V132.573L176.219 193.665C174.924 194.744 175.14 196.255 177.082 197.119C179.457 197.982 183.127 197.982 185.286 196.903ZM-36.1997 68.0271C-37.4949 68.6747 -39.4378 68.6747 -40.733 68.0271C-42.0283 67.3794 -42.0283 66.5159 -40.733 65.8683C-39.4378 65.2207 -37.4949 65.2207 -36.1997 65.8683C-34.9045 66.3001 -34.9045 67.3794 -36.1997 68.0271ZM183.559 196.039C182.263 196.687 180.32 196.687 179.025 196.039C177.73 195.392 177.73 194.528 179.025 193.881C180.32 193.233 182.263 193.233 183.559 193.881C184.854 194.312 184.854 195.392 183.559 196.039Z" fill="#484848"/>
<path d="M462.467 278.501C464.41 277.638 464.625 276.127 463.33 275.047L588.968 213.955V192.584L675.101 150.705C677.26 151.352 680.282 151.352 682.225 150.273C684.384 149.194 684.384 147.467 682.225 146.387C680.066 145.308 676.396 145.308 674.022 146.387C672.079 147.251 671.863 148.762 673.158 149.841L586.378 191.936V213.308L461.387 273.968C459.229 273.32 456.206 273.32 454.264 274.4C452.105 275.479 452.105 277.206 454.264 278.285C456.422 279.581 460.092 279.581 462.467 278.501ZM675.749 147.251C677.044 146.603 678.987 146.603 680.282 147.251C681.577 147.898 681.577 148.762 680.282 149.409C678.987 150.057 677.044 150.057 675.749 149.409C674.67 148.978 674.67 147.898 675.749 147.251ZM455.991 275.263C457.286 274.616 459.229 274.616 460.524 275.263C461.819 275.911 461.819 276.774 460.524 277.422C459.229 278.069 457.286 278.069 455.991 277.422C454.911 276.99 454.911 275.911 455.991 275.263Z" fill="#484848"/>
<path d="M247.672 251.518C249.831 250.439 249.831 248.712 247.672 247.632C245.729 246.769 242.707 246.553 240.549 247.201L118.365 187.836H77.3489L-276.898 16.001L-278.625 16.8645L76.2695 189.131H117.501L238.822 248.064C237.526 249.143 237.742 250.654 239.685 251.518C241.844 252.597 245.514 252.597 247.672 251.518ZM245.945 250.654C244.65 251.302 242.707 251.302 241.412 250.654C240.117 250.007 240.117 249.143 241.412 248.496C242.707 247.848 244.65 247.848 245.945 248.496C247.241 248.927 247.241 250.007 245.945 250.654Z" fill="#484848"/>
<path d="M234.288 423.352C236.447 422.273 236.447 420.546 234.288 419.466C232.345 418.603 229.323 418.387 227.165 419.035L88.3585 351.682V335.708L-161.406 214.603C-159.895 213.524 -160.327 212.013 -162.27 211.149C-164.428 210.07 -168.098 210.07 -170.473 211.149C-172.631 212.229 -172.631 213.956 -170.473 215.035C-168.53 215.899 -165.508 216.114 -163.349 215.467L85.5521 336.355V352.33L225.222 420.114C223.926 421.193 224.142 422.704 226.085 423.568C228.46 424.431 232.13 424.432 234.288 423.352ZM-163.997 214.172C-165.292 214.819 -167.235 214.819 -168.53 214.172C-169.825 213.524 -169.825 212.66 -168.53 212.013C-167.235 211.365 -165.292 211.365 -163.997 212.013C-162.701 212.445 -162.701 213.524 -163.997 214.172ZM232.561 422.489C231.266 423.136 229.323 423.136 228.028 422.489C226.733 421.841 226.733 420.977 228.028 420.33C229.323 419.682 231.266 419.682 232.561 420.33C233.857 420.977 233.857 421.841 232.561 422.489Z" fill="#484848"/>
<path d="M68.067 385.359C69.1464 385.791 70.2258 386.223 71.521 386.223V432.204L-47.4248 489.842L-45.0502 490.921L74.7591 432.635V386.223C76.0543 386.007 77.3496 385.791 78.4289 385.359C81.2353 384.064 81.2353 381.69 78.4289 380.394C75.6226 379.099 70.8734 379.099 68.067 380.394C65.2607 381.69 65.2607 383.848 68.067 385.359ZM76.0543 381.474C77.5654 382.337 77.5654 383.417 76.0543 384.28C74.5432 385.143 71.9527 385.143 70.4416 384.28C68.9305 383.417 68.9305 382.337 70.4416 381.474C71.9527 380.61 74.5432 380.61 76.0543 381.474Z" fill="#484848"/>
</svg>
