<svg width="1059" height="625" viewBox="0 0 1059 625" fill="none" xmlns="http://www.w3.org/2000/svg">
<path d="M615.956 432.207C614.706 432.386 613.634 432.564 612.741 433.099C610.42 434.168 610.42 436.129 612.741 437.198C615.063 438.267 618.993 438.267 621.314 437.198C623.636 436.129 623.636 434.168 621.314 433.099C620.6 432.742 619.707 432.564 618.635 432.386V408.859L846 298.891L844.035 298L615.956 408.325V432.207ZM619.35 433.99C620.6 434.703 620.6 435.594 619.35 436.307C618.1 437.02 615.956 437.02 614.706 436.307C613.456 435.594 613.456 434.703 614.706 433.99C615.956 433.277 618.1 433.277 619.35 433.99Z" fill="#8CBFF8"/>
<path d="M426.197 351.898C428.356 352.977 432.026 352.977 434.4 351.898C436.343 351.034 436.559 349.523 435.264 348.444L494.413 319.733V302.463L571.695 264.901C573.854 265.549 576.876 265.549 578.819 264.469C580.978 263.39 580.978 261.663 578.819 260.583C576.66 259.504 572.99 259.504 570.616 260.583C568.673 261.447 568.457 262.958 569.752 264.037L491.822 302.031V319.301L433.537 347.58C431.378 346.932 428.356 346.932 426.413 348.012C424.038 349.091 424.038 350.818 426.197 351.898ZM572.559 263.606C571.263 262.958 571.263 262.095 572.559 261.447C573.854 260.799 575.797 260.799 577.092 261.447C578.387 262.095 578.387 262.958 577.092 263.606C575.797 264.253 573.854 264.253 572.559 263.606ZM428.14 351.034C426.845 350.386 426.845 349.523 428.14 348.875C429.435 348.228 431.378 348.228 432.673 348.875C433.968 349.523 433.968 350.386 432.673 351.034C431.378 351.682 429.219 351.682 428.14 351.034Z" fill="#8CBFF8"/>
<path d="M554.21 338.082C556.369 339.161 560.039 339.161 562.413 338.082C564.356 337.218 564.572 335.707 563.277 334.628L622.426 305.917V288.647L699.708 251.085C701.867 251.733 704.889 251.733 706.832 250.653C708.991 249.574 708.991 247.847 706.832 246.768C704.673 245.688 701.004 245.688 698.629 246.768C696.686 247.631 696.47 249.142 697.766 250.222L619.62 288.215V305.485L561.334 333.764C559.175 333.117 556.153 333.117 554.21 334.196C552.052 335.275 552.052 337.002 554.21 338.082ZM700.572 249.79C699.277 249.142 699.277 248.279 700.572 247.631C701.867 246.983 703.81 246.983 705.105 247.631C706.4 248.279 706.4 249.142 705.105 249.79C703.81 250.437 701.651 250.437 700.572 249.79ZM556.153 337.218C554.858 336.571 554.858 335.707 556.153 335.059C557.448 334.412 559.391 334.412 560.687 335.059C561.982 335.707 561.982 336.571 560.687 337.218C559.391 337.866 557.233 337.866 556.153 337.218Z" fill="#8CBFF8"/>
<path d="M542.292 393.529C543.387 393.043 543.509 392.194 542.779 391.587L700.575 315.264V275.95L840 208.485L839.027 208L699.237 275.708V315.022L541.927 391.223C540.711 390.859 539.007 390.859 537.912 391.466C536.696 392.073 536.696 393.043 537.912 393.65C538.886 394.135 540.954 394.135 542.292 393.529ZM538.642 391.83C539.372 391.466 540.467 391.466 541.197 391.83C541.927 392.194 541.927 392.679 541.197 393.043C540.467 393.407 539.372 393.407 538.642 393.043C537.912 392.679 537.912 392.194 538.642 391.83Z" fill="#8CBFF8"/>
<path d="M432.292 308.318C433.933 307.59 434.115 306.316 433.021 305.406L759.613 147.092H846V146H758.702L431.381 304.678C429.559 304.132 427.007 304.132 425.367 305.042C423.544 305.952 423.544 307.408 425.367 308.318C427.189 309.227 430.288 309.227 432.292 308.318ZM426.825 305.77C427.918 305.224 429.559 305.224 430.652 305.77C431.746 306.316 431.746 307.044 430.652 307.59C429.559 308.136 427.918 308.136 426.825 307.59C425.731 307.044 425.731 306.134 426.825 305.77Z" fill="#8CBFF8"/>
<path d="M577.822 409.924C579.765 409.06 579.981 407.549 578.686 406.47L704.323 345.378V324.006L790.457 282.127C792.615 282.775 795.638 282.775 797.58 281.695C799.739 280.616 799.739 278.889 797.58 277.81C795.422 276.73 791.752 276.73 789.377 277.81C787.434 278.673 787.219 280.184 788.514 281.263L701.733 323.359V344.73L576.743 405.39C574.584 404.743 571.562 404.743 569.619 405.822C567.46 406.901 567.46 408.628 569.619 409.708C571.994 411.003 575.663 411.003 577.822 409.924ZM791.32 278.889C792.615 278.241 794.558 278.241 795.853 278.889C797.149 279.537 797.149 280.4 795.853 281.048C794.558 281.695 792.615 281.695 791.32 281.048C790.025 280.4 790.025 279.537 791.32 278.889ZM571.562 406.901C572.857 406.254 574.8 406.254 576.095 406.901C577.39 407.549 577.39 408.412 576.095 409.06C574.8 409.708 572.857 409.708 571.562 409.06C570.267 408.628 570.267 407.549 571.562 406.901Z" fill="#8CBFF8"/>
<path d="M562.413 284.545C564.356 283.682 564.572 282.171 563.277 281.091L688.915 219.999V198.628L775.048 156.749C777.207 157.396 780.229 157.396 782.172 156.317C784.331 155.237 784.331 153.51 782.172 152.431C780.013 151.352 776.343 151.352 773.969 152.431C772.026 153.295 771.81 154.806 773.105 155.885L686.324 197.98V219.352L561.334 280.012C559.175 279.364 556.153 279.364 554.21 280.444C552.052 281.523 552.052 283.25 554.21 284.329C556.585 285.625 560.039 285.624 562.413 284.545ZM775.696 153.295C776.991 152.647 778.934 152.647 780.229 153.295C781.524 153.942 781.524 154.806 780.229 155.453C778.934 156.101 776.991 156.101 775.696 155.453C774.616 154.806 774.616 153.942 775.696 153.295ZM556.153 281.307C557.448 280.659 559.391 280.659 560.687 281.307C561.982 281.955 561.982 282.818 560.687 283.466C559.391 284.113 557.448 284.113 556.153 283.466C554.858 283.034 554.858 281.955 556.153 281.307Z" fill="#8CBFF8"/>
<path d="M527.781 371.336C529.94 372.416 533.609 372.416 535.984 371.336C537.927 370.473 538.143 368.962 536.848 367.882L661.838 307.222H705.876L792.657 265.127C794.815 265.775 797.838 265.775 799.78 264.695C801.939 263.616 801.939 261.889 799.78 260.81C797.622 259.73 793.952 259.73 791.577 260.81C789.634 261.673 789.418 263.184 790.714 264.263L704.581 306.143H660.543L534.905 367.235C532.746 366.587 529.724 366.587 527.781 367.666C525.406 368.314 525.406 370.257 527.781 371.336ZM793.304 263.616C792.009 262.968 792.009 262.105 793.304 261.457C794.599 260.81 796.542 260.81 797.837 261.457C799.133 262.105 799.133 262.968 797.837 263.616C796.758 264.263 794.599 264.263 793.304 263.616ZM529.508 370.257C528.213 369.609 528.213 368.746 529.508 368.098C530.803 367.451 532.746 367.451 534.041 368.098C535.336 368.746 535.336 369.609 534.041 370.257C532.746 370.905 530.803 370.905 529.508 370.257Z" fill="#8CBFF8"/>
<path d="M300.344 518.552C298.185 517.472 294.515 517.472 292.141 518.552C290.198 519.415 289.982 520.926 291.277 522.006L232.128 550.717V567.987L154.846 605.548C152.687 604.901 149.665 604.901 147.722 605.98C145.563 607.059 145.563 608.786 147.722 609.866C149.881 610.945 153.551 610.945 155.925 609.866C157.868 609.002 158.084 607.491 156.789 606.412L234.935 568.418V551.148L293.22 522.869C295.379 523.517 298.401 523.517 300.344 522.437C302.503 521.358 302.503 519.631 300.344 518.552ZM153.982 606.628C155.278 607.275 155.278 608.139 153.982 608.786C152.687 609.434 150.744 609.434 149.449 608.786C148.154 608.139 148.154 607.275 149.449 606.628C150.744 605.98 152.687 605.98 153.982 606.628ZM298.401 519.415C299.696 520.063 299.696 520.926 298.401 521.574C297.106 522.222 295.163 522.222 293.868 521.574C292.573 520.926 292.573 520.063 293.868 519.415C295.163 518.768 297.106 518.768 298.401 519.415Z" fill="#8CBFF8"/>
<path d="M239.208 622.459C237.05 621.38 233.38 621.38 231.005 622.459C229.062 623.323 228.846 624.834 230.142 625.913L170.993 654.624V671.894L93.7102 709.456C91.5514 708.808 88.5292 708.808 86.5863 709.888C84.4276 710.967 84.4276 712.694 86.5863 713.774C88.7451 714.853 92.4149 714.853 94.7895 713.774C96.7324 712.91 96.9482 711.399 95.653 710.32L173.799 672.326V655.056L232.085 626.777C234.243 627.424 237.265 627.425 239.208 626.345C241.367 625.266 241.367 623.539 239.208 622.459ZM92.8467 710.535C94.1419 711.183 94.1419 712.047 92.8467 712.694C91.5515 713.342 89.6086 713.342 88.3133 712.694C87.0181 712.047 87.0181 711.183 88.3133 710.535C89.6086 709.888 91.5515 709.888 92.8467 710.535ZM237.265 623.323C238.561 623.971 238.561 624.834 237.265 625.482C235.97 626.129 234.027 626.129 232.732 625.482C231.437 624.834 231.437 623.971 232.732 623.323C234.027 622.675 235.97 622.675 237.265 623.323Z" fill="#8CBFF8"/>
<path d="M207.303 516.393C205.145 515.313 201.475 515.313 199.1 516.393C197.157 517.256 196.942 518.767 198.237 519.847L139.088 548.558V565.827L61.8053 603.389C59.6466 602.742 56.6244 602.742 54.6815 603.821C52.5228 604.9 52.5228 606.627 54.6815 607.707C56.8403 608.786 60.5101 608.786 62.8847 607.707C64.8275 606.843 65.0434 605.332 63.7482 604.253L141.894 566.259V548.989L200.18 520.71C202.338 521.358 205.361 521.358 207.303 520.278C209.462 519.199 209.462 517.472 207.303 516.393ZM60.9418 604.684C62.2371 605.332 62.2371 606.196 60.9418 606.843C59.6466 607.491 57.7037 607.491 56.4085 606.843C55.1133 606.196 55.1133 605.332 56.4085 604.684C57.7037 604.037 59.6466 604.037 60.9418 604.684ZM205.361 517.256C206.656 517.904 206.656 518.767 205.361 519.415C204.065 520.062 202.122 520.062 200.827 519.415C199.532 518.767 199.532 517.904 200.827 517.256C202.122 516.608 204.281 516.608 205.361 517.256Z" fill="#8CBFF8"/>
<path d="M231.697 435.873C229.754 436.736 229.538 438.248 230.834 439.327L-49.153 575.111V645.269L-296.543 765.295L-294.816 766.158L-46.7784 645.701V575.758L232.345 440.19C234.504 440.838 237.526 440.838 239.469 439.759C241.627 438.679 241.627 436.952 239.469 435.873C237.742 434.794 234.072 434.794 231.697 435.873ZM238.173 439.111C236.878 439.759 234.935 439.759 233.64 439.111C232.345 438.463 232.345 437.6 233.64 436.952C234.935 436.305 236.878 436.305 238.173 436.952C239.253 437.384 239.253 438.463 238.173 439.111Z" fill="#8CBFF8"/>
<path d="M300.777 557.194C298.834 558.057 298.618 559.568 299.913 560.648L-86.9303 748.457H-189.254V749.752H-85.8509L301.856 561.511C304.015 562.159 307.037 562.159 308.98 561.079C311.139 560 311.139 558.273 308.98 557.194C306.605 556.114 302.936 556.114 300.777 557.194ZM307.037 560.432C305.742 561.08 303.799 561.08 302.504 560.432C301.209 559.784 301.209 558.921 302.504 558.273C303.799 557.626 305.742 557.626 307.037 558.273C308.332 558.705 308.332 559.784 307.037 560.432Z" fill="#8CBFF8"/>
<path d="M166.288 420.762C164.346 421.625 164.13 423.136 165.425 424.216L39.7871 485.308V506.679L-46.1302 548.342C-48.2889 547.695 -51.3111 547.695 -53.254 548.774C-55.4127 549.853 -55.4127 551.58 -53.254 552.66C-51.0953 553.739 -47.4254 553.739 -45.0508 552.66C-43.108 551.796 -42.8921 550.285 -44.1874 549.206L42.3776 507.111V485.739L167.368 425.079C169.526 425.727 172.549 425.727 174.492 424.647C176.65 423.568 176.65 421.841 174.492 420.762C172.333 419.682 168.663 419.682 166.288 420.762ZM-46.9937 551.796C-48.2889 552.444 -50.2318 552.444 -51.527 551.796C-52.8223 551.149 -52.8223 550.285 -51.527 549.638C-50.2318 548.99 -48.2889 548.99 -46.9937 549.638C-45.6984 550.285 -45.6984 551.365 -46.9937 551.796ZM172.765 423.784C171.469 424.431 169.526 424.431 168.231 423.784C166.936 423.136 166.936 422.273 168.231 421.625C169.526 420.978 171.469 420.978 172.765 421.625C174.06 422.273 174.06 423.136 172.765 423.784Z" fill="#8CBFF8"/>
<path d="M199.1 562.158C197.157 563.021 196.941 564.533 198.237 565.612L72.5986 626.704V648.075L-13.5345 689.955C-15.6932 689.307 -18.7154 689.307 -20.6583 690.386C-22.817 691.466 -22.817 693.193 -20.6583 694.272C-18.4996 695.351 -14.8297 695.351 -12.4551 694.272C-10.5123 693.408 -10.2964 691.897 -11.5917 690.818L75.1891 648.723V627.351L200.179 566.691C202.338 567.339 205.36 567.339 207.303 566.259C209.462 565.18 209.462 563.453 207.303 562.374C204.929 561.079 201.259 561.079 199.1 562.158ZM-14.398 693.193C-15.6932 693.84 -17.6361 693.84 -18.9313 693.193C-20.2265 692.545 -20.2265 691.681 -18.9313 691.034C-17.6361 690.386 -15.6932 690.386 -14.398 691.034C-13.1028 691.681 -13.1028 692.545 -14.398 693.193ZM205.36 565.18C204.065 565.828 202.122 565.828 200.827 565.18C199.532 564.532 199.532 563.669 200.827 563.021C202.122 562.374 204.065 562.374 205.36 563.021C206.656 563.669 206.656 564.532 205.36 565.18Z" fill="#8CBFF8"/>
<path d="M247.24 476.673C245.081 475.593 241.411 475.593 239.036 476.673C237.094 477.536 236.878 479.047 238.173 480.127L113.183 540.787H69.1447L-17.6361 582.882C-19.7948 582.235 -22.817 582.234 -24.7599 583.314C-26.9186 584.393 -26.9186 586.12 -24.7599 587.2C-22.6011 588.279 -18.9313 588.279 -16.5567 587.2C-14.6138 586.336 -14.398 584.825 -15.6932 583.746L70.44 541.866H114.478L240.116 480.774C242.275 481.422 245.297 481.422 247.24 480.343C249.398 479.479 249.398 477.752 247.24 476.673ZM-18.4995 584.177C-17.2043 584.825 -17.2043 585.689 -18.4995 586.336C-19.7948 586.984 -21.7376 586.984 -23.0329 586.336C-24.3281 585.689 -24.3281 584.825 -23.0329 584.177C-21.7376 583.53 -19.5789 583.53 -18.4995 584.177ZM245.513 477.536C246.808 478.184 246.808 479.047 245.513 479.695C244.217 480.343 242.275 480.343 240.979 479.695C239.684 479.047 239.684 478.184 240.979 477.536C242.275 476.889 244.217 476.889 245.513 477.536Z" fill="#8CBFF8"/>
<path d="M521.83 641.166L339.634 552.874C341.361 551.579 341.145 549.636 338.555 548.556C335.748 547.261 330.999 547.261 328.193 548.556C325.386 549.852 325.386 552.226 328.193 553.521C330.567 554.817 334.453 554.817 337.259 553.953L519.456 642.245L521.83 641.166ZM330.783 552.226C329.272 551.363 329.272 550.283 330.783 549.42C332.294 548.556 334.885 548.556 336.396 549.42C337.907 550.283 337.907 551.363 336.396 552.226C334.885 553.09 332.294 553.09 330.783 552.226Z" fill="#8CBFF8"/>
<path d="M417.996 523.084C415.406 521.789 411.52 521.789 408.714 522.652L354.745 496.316H243.787C243.571 495.668 242.923 495.02 241.844 494.589C239.038 493.293 234.289 493.293 231.482 494.589C228.676 495.884 228.676 498.258 231.482 499.554C234.289 500.849 239.038 500.849 241.844 499.554C242.923 499.122 243.355 498.474 243.787 497.827H353.234L406.555 523.731C404.828 525.027 405.26 526.969 407.634 528.049C410.441 529.344 415.19 529.344 417.996 528.049C421.018 526.754 421.018 524.595 417.996 523.084ZM233.857 498.69C232.346 497.827 232.346 496.747 233.857 495.884C235.368 495.02 237.958 495.02 239.469 495.884C240.981 496.747 240.981 497.827 239.469 498.69C237.958 499.338 235.368 499.338 233.857 498.69ZM410.009 527.185C408.498 526.322 408.498 525.242 410.009 524.379C411.52 523.516 414.11 523.516 415.621 524.379C417.133 525.242 417.133 526.322 415.621 527.185C414.11 527.833 411.52 527.833 410.009 527.185Z" fill="#8CBFF8"/>
<path d="M366.617 378.881C368.56 379.961 369.208 381.256 368.56 382.551L458.579 426.157V443.211L688.052 554.602C690.642 554.17 693.448 554.602 695.607 555.465C698.629 556.976 698.629 559.351 695.607 560.862C692.585 562.373 687.62 562.373 684.598 560.862C682.655 559.783 682.007 558.487 682.655 557.192L450.808 444.723V427.669L363.164 385.142C360.573 385.573 357.767 385.142 355.608 384.278C352.586 382.767 352.586 380.392 355.608 378.881C358.846 377.37 363.595 377.37 366.617 378.881Z" fill="#8CBFF8"/>
<path d="M301.424 403.491C296.891 405.649 296.891 409.319 301.424 411.478C305.094 413.205 310.491 413.637 314.809 412.557L430.3 468.684V494.157L928.534 735.934L933.931 733.344L438.288 492.646V467.173L320.421 409.967C322.58 407.808 321.932 405.218 318.262 403.491C313.513 401.332 306.174 401.332 301.424 403.491ZM307.037 406.081C308.548 405.218 311.139 405.218 312.866 406.081C314.377 406.945 314.377 408.024 312.866 408.887C311.355 409.751 308.764 409.751 307.037 408.887C305.31 408.24 305.31 406.945 307.037 406.081Z" fill="#8CBFF8"/>
<path d="M259.977 427.453C261.92 428.316 262.351 429.612 261.488 430.907L457.068 525.891H575.367L891.404 679.16L887.734 680.887L573.208 528.265H454.91L257.818 432.634C255.443 433.066 252.637 432.85 250.91 431.986C248.32 430.691 248.32 428.748 250.91 427.453C253.285 426.158 257.386 426.158 259.977 427.453Z" fill="#8CBFF8"/>
<path d="M390.364 594.538H282.428C281.78 593.891 280.917 593.027 279.837 592.596C275.088 590.437 267.533 590.437 262.999 592.596C258.25 594.754 258.25 598.64 262.999 600.799C267.749 602.957 275.304 602.957 279.837 600.799C281.133 600.151 281.996 599.504 282.644 598.64H387.126L602.567 703.122L608.611 700.316L390.364 594.538ZM268.828 597.777C267.533 597.129 267.533 596.05 268.828 595.402C270.123 594.754 272.498 594.754 273.793 595.402C275.088 596.05 275.088 597.129 273.793 597.777C272.498 598.424 270.123 598.424 268.828 597.777Z" fill="#8CBFF8"/>
<path d="M423.475 497.241L327.039 450.234V435.073L292.315 418.159" stroke="#8CBFF8" stroke-width="0.622361" stroke-miterlimit="10" stroke-linecap="round"/>
<path d="M654.934 519.422L468.568 428.531V396.024C445.554 384.703 422.379 373.544 399.365 362.223" stroke="#8CBFF8" stroke-width="0.622361" stroke-miterlimit="10" stroke-linecap="round"/>
<path d="M418.428 566.69L298.835 508.621V484.659C282.428 476.671 265.806 468.684 249.4 460.697" stroke="#8CBFF8" stroke-width="0.622361" stroke-miterlimit="10" stroke-linecap="round"/>
<path d="M603.431 469.548C601.272 470.627 601.272 472.354 603.431 473.433C605.374 474.297 608.396 474.513 610.555 473.865L917.094 622.601V670.093H919.684V622.17L612.282 473.002C613.577 471.922 613.361 470.411 611.418 469.548C609.26 468.468 605.59 468.468 603.431 469.548ZM605.158 470.411C606.453 469.764 608.396 469.764 609.691 470.411C610.987 471.059 610.987 471.922 609.691 472.57C608.396 473.218 606.453 473.218 605.158 472.57C603.863 472.138 603.863 471.059 605.158 470.411Z" fill="#8CBFF8"/>
<path d="M327.976 390.106C325.818 391.186 325.818 392.913 327.976 393.992C329.919 394.856 332.942 395.071 335.1 394.424L993.727 714.131L995.454 713.268L337.043 393.56C338.338 392.481 338.123 390.97 336.18 390.106C333.805 389.027 330.135 389.027 327.976 390.106ZM329.703 390.97C330.999 390.322 332.942 390.322 334.237 390.97C335.532 391.617 335.532 392.481 334.237 393.129C332.942 393.776 330.999 393.776 329.703 393.129C328.624 392.481 328.624 391.402 329.703 390.97Z" fill="#8CBFF8"/>
<path d="M375.901 367.008C373.742 368.088 373.742 369.815 375.901 370.894C377.844 371.757 380.866 371.973 383.025 371.326L663.227 507.325V537.332L900.255 652.392L901.982 651.528L665.818 536.9V506.894L384.752 370.462C386.047 369.383 385.831 367.872 383.888 367.008C381.729 365.929 378.06 365.929 375.901 367.008ZM377.628 368.088C378.923 367.44 380.866 367.44 382.161 368.088C383.456 368.735 383.456 369.599 382.161 370.246C380.866 370.894 378.923 370.894 377.628 370.246C376.548 369.599 376.548 368.519 377.628 368.088Z" fill="#8CBFF8"/>
<path d="M399 464.583C397.488 465.446 397.488 466.526 399 467.389C400.295 468.037 402.453 468.037 403.965 467.605L445.196 487.681H470.022L523.99 514.018C522.91 514.665 523.126 515.744 524.637 516.392C526.148 517.256 528.739 517.256 530.25 516.392C531.761 515.529 531.761 514.449 530.25 513.586C528.955 512.938 526.796 512.938 525.285 513.37L470.669 486.818H446.06L405.26 466.957C406.339 466.31 406.123 465.23 404.612 464.583C403.101 463.719 400.511 463.719 399 464.583ZM525.933 514.233C526.796 513.802 528.307 513.802 529.171 514.233C530.034 514.665 530.034 515.313 529.171 515.744C528.307 516.176 526.796 516.176 525.933 515.744C525.069 515.313 525.069 514.665 525.933 514.233ZM400.295 465.23C401.158 464.799 402.669 464.799 403.533 465.23C404.396 465.662 404.396 466.31 403.533 466.741C402.669 467.173 401.158 467.173 400.295 466.741C399.431 466.31 399.431 465.662 400.295 465.23Z" fill="#8CBFF8"/>
<path d="M335.749 508.405C333.59 509.484 333.59 511.211 335.749 512.29C337.692 513.154 340.714 513.37 342.873 512.722L730.58 700.963H833.983V699.668H731.659L344.816 511.859C346.111 510.779 345.895 509.268 343.952 508.405C341.578 507.325 337.908 507.325 335.749 508.405ZM337.476 509.268C338.771 508.621 340.714 508.621 342.009 509.268C343.304 509.916 343.304 510.779 342.009 511.427C340.714 512.075 338.771 512.075 337.476 511.427C336.181 510.779 336.181 509.7 337.476 509.268Z" fill="#8CBFF8"/>
<path d="M421.881 569.713C419.723 570.792 419.723 572.519 421.881 573.599C423.824 574.462 426.846 574.678 429.005 574.03L553.995 634.691V656.062L640.776 698.157C639.481 699.236 639.697 700.748 641.64 701.611C643.798 702.69 647.468 702.69 649.843 701.611C652.001 700.532 652.001 698.805 649.843 697.725C647.9 696.862 644.878 696.646 642.719 697.294L556.586 655.414V634.043L430.948 573.167C432.243 572.087 432.027 570.576 430.084 569.713C427.926 568.633 424.256 568.633 421.881 569.713ZM643.582 698.805C644.878 698.157 646.82 698.157 648.116 698.805C649.411 699.452 649.411 700.316 648.116 700.963C646.82 701.611 644.878 701.611 643.582 700.963C642.287 700.316 642.287 699.236 643.582 698.805ZM423.824 570.576C425.119 569.929 427.062 569.929 428.357 570.576C429.653 571.224 429.653 572.087 428.357 572.735C427.062 573.383 425.119 573.383 423.824 572.735C422.529 572.303 422.529 571.224 423.824 570.576Z" fill="#8CBFF8"/>
<path d="M219.825 461.56C217.882 462.424 217.666 463.935 218.962 465.014L93.3238 526.106V547.477L7.1906 589.357C5.03187 588.709 2.00965 588.709 0.0667982 589.788C-2.09193 590.868 -2.09193 592.595 0.0667982 593.674C2.22552 594.753 5.89536 594.753 8.26996 593.674C10.2128 592.811 10.4287 591.299 9.13347 590.22L95.9142 548.125V526.538L220.904 465.877C223.063 466.525 226.085 466.525 228.028 465.446C230.187 464.366 230.187 462.639 228.028 461.56C225.87 460.481 222.2 460.481 219.825 461.56ZM6.54298 592.811C5.24774 593.458 3.30491 593.458 2.00967 592.811C0.714436 592.163 0.714436 591.299 2.00967 590.652C3.30491 590.004 5.24774 590.004 6.54298 590.652C7.62234 591.084 7.62234 592.163 6.54298 592.811ZM226.301 464.798C225.006 465.446 223.063 465.446 221.768 464.798C220.473 464.15 220.473 463.287 221.768 462.639C223.063 461.992 225.006 461.992 226.301 462.639C227.381 463.071 227.381 464.15 226.301 464.798Z" fill="#8CBFF8"/>
<path d="M434.834 536.036C432.675 537.115 432.675 538.842 434.834 539.922C436.777 540.785 439.799 541.001 441.958 540.354L564.142 599.718H605.157L959.404 771.553L961.131 770.69L606.237 598.423H565.005L443.901 539.49C445.196 538.411 444.98 536.9 443.037 536.036C440.878 534.957 437.208 534.957 434.834 536.036ZM436.777 536.9C438.072 536.252 440.015 536.252 441.31 536.9C442.605 537.547 442.605 538.411 441.31 539.058C440.015 539.706 438.072 539.706 436.777 539.058C435.482 538.411 435.482 537.547 436.777 536.9Z" fill="#8CBFF8"/>
<path d="M429.869 360.532C427.71 361.611 427.71 363.338 429.869 364.418C431.812 365.281 434.834 365.497 436.993 364.85L576.015 432.202V448.176L825.779 569.281C824.268 570.36 824.7 571.871 826.643 572.735C828.802 573.814 832.471 573.814 834.846 572.735C837.005 571.655 837.005 569.929 834.846 568.849C832.903 567.986 829.881 567.77 827.722 568.417L578.821 447.529V431.554L439.152 363.77C440.447 362.691 440.231 361.18 438.288 360.316C435.698 359.453 432.028 359.453 429.869 360.532ZM828.154 569.929C829.449 569.281 831.392 569.281 832.687 569.929C833.982 570.576 833.982 571.44 832.687 572.087C831.392 572.735 829.449 572.735 828.154 572.087C826.859 571.44 826.859 570.576 828.154 569.929ZM431.596 361.611C432.891 360.964 434.834 360.964 436.129 361.611C437.425 362.259 437.425 363.123 436.129 363.77C434.834 364.418 432.891 364.418 431.596 363.77C430.301 363.123 430.301 362.043 431.596 361.611Z" fill="#8CBFF8"/>
<path d="M835.329 558.079L725.829 505.326L725.829 493.126L651.999 457.518L651.999 409.71L769.629 353L774.109 355.308L658.47 411.029L658.47 456.199L732.299 491.972L732.299 504.007L839.809 555.771L835.329 558.079Z" fill="#8CBFF8"/>
<path d="M-89.5913 2.75817L280.249 181.765C276.743 184.391 277.181 188.33 282.44 190.518C288.136 193.144 297.777 193.144 303.473 190.518C309.17 187.892 309.17 183.078 303.473 180.452C298.653 177.826 290.766 177.826 285.069 179.576L-84.7711 0.569824L-89.5913 2.75817ZM298.215 183.078C301.282 184.828 301.282 187.017 298.215 188.767C295.148 190.518 289.889 190.518 286.822 188.767C283.754 187.017 283.754 184.828 286.822 183.078C289.889 181.765 295.148 181.765 298.215 183.078Z" fill="#8CBFF8"/>
<path d="M255.875 261.017C258.466 262.312 262.352 262.312 265.158 261.448L319.342 287.785H430.3C430.516 288.432 431.164 289.08 432.243 289.512C435.05 290.807 439.799 290.807 442.605 289.512C445.412 288.217 445.412 285.842 442.605 284.547C439.799 283.251 435.05 283.251 432.243 284.547C431.164 284.978 430.732 285.626 430.3 286.274H320.853L267.533 260.369C269.259 259.074 268.828 257.131 266.453 256.052C263.647 254.756 258.898 254.756 256.091 256.052C253.285 257.347 253.069 259.505 255.875 261.017ZM440.231 285.626C441.742 286.49 441.742 287.569 440.231 288.432C438.719 289.296 436.129 289.296 434.618 288.432C433.107 287.569 433.107 286.49 434.618 285.626C436.129 284.763 438.504 284.763 440.231 285.626ZM263.863 257.131C265.374 257.994 265.374 259.074 263.863 259.937C262.352 260.801 259.761 260.801 258.25 259.937C256.739 259.074 256.739 257.994 258.25 257.131C259.761 256.267 262.352 256.267 263.863 257.131Z" fill="#8CBFF8"/>
<path d="M54.2485 375.695C52.3057 374.616 51.658 373.321 52.3056 372.026L-90.3861 302.73H-243.008L-262.221 293.448L-256.824 290.857L-239.77 299.061H-87.148L57.9183 369.435C60.5088 369.003 63.3151 369.435 65.4738 370.299C68.4961 371.81 68.4961 374.184 65.4738 375.695C62.2357 377.206 57.2707 377.206 54.2485 375.695Z" fill="#8CBFF8"/>
<path d="M304.352 409.356C302.409 408.277 301.761 406.982 302.409 405.686L212.39 362.08V345.026L-17.0826 233.636C-19.6731 234.068 -22.4794 233.636 -24.6381 232.772C-27.6603 231.261 -27.6603 228.887 -24.6381 227.376C-21.6159 225.864 -16.6508 225.864 -13.6286 227.376C-11.6858 228.455 -11.0382 229.75 -11.6858 231.045L220.161 343.515V360.569L307.806 403.096C310.396 402.664 313.202 403.096 315.361 403.959C318.383 405.47 318.383 407.845 315.361 409.356C312.339 410.867 307.374 410.867 304.352 409.356Z" fill="#8CBFF8"/>
<path d="M367.698 384.496C372.231 382.337 372.231 378.667 367.698 376.509C364.028 374.782 358.631 374.35 354.313 375.429L238.822 319.302V293.83L-259.412 52.0522L-264.809 54.6427L231.266 295.341V320.814L349.133 378.02C346.974 380.179 347.621 382.769 351.291 384.496C355.609 386.655 363.164 386.655 367.698 384.496ZM362.301 381.69C360.79 382.553 358.199 382.553 356.472 381.69C354.961 380.826 354.961 379.747 356.472 378.883C357.983 378.02 360.574 378.02 362.301 378.883C363.812 379.747 363.812 381.042 362.301 381.69Z" fill="#8CBFF8"/>
<path d="M404.179 356.432C402.236 355.568 401.805 354.273 402.668 352.978L207.088 257.994H88.7894L-227.248 104.725L-223.578 102.998L90.9482 255.619H209.246L406.338 351.251C408.713 350.819 411.519 351.035 413.246 351.899C415.836 353.194 415.836 355.137 413.246 356.432C410.871 357.727 406.77 357.727 404.179 356.432Z" fill="#8CBFF8"/>
<path d="M-124.492 245.257L17.9837 314.337V330.311L114.047 376.94V439.543L-39.0067 513.803L-44.8353 510.781L105.628 437.816V378.667L9.56464 331.822V316.064L-130.321 248.28L-124.492 245.257Z" fill="#8CBFF8"/>
<path d="M281.716 207.369H391.427C392.085 208.028 392.963 208.905 394.06 209.344C398.887 211.538 406.567 211.538 411.175 209.344C416.002 207.15 416.002 203.2 411.175 201.006C406.347 198.812 398.668 198.812 394.06 201.006C392.743 201.664 391.866 202.323 391.207 203.2H285.007L66.0237 97L59.8799 99.8525L281.716 207.369ZM405.47 204.078C406.786 204.736 406.786 205.833 405.47 206.492C404.153 207.15 401.74 207.15 400.423 206.492C399.107 205.833 399.107 204.736 400.423 204.078C401.74 203.42 403.934 203.42 405.47 204.078Z" fill="#8CBFF8"/>
<path d="M3.08838 143.366L277.678 276.775V319.734C309.843 335.276 342.008 351.035 374.389 366.578" stroke="#8CBFF8" stroke-width="0.622361" stroke-miterlimit="10" stroke-linecap="round"/>
<path d="M323.845 238.519C328.594 240.678 336.15 240.678 340.683 238.519C341.763 237.871 342.626 237.44 343.274 236.792H449.267L610.308 158.646L604.264 155.84L445.813 232.69H343.49C342.842 231.827 341.978 230.964 340.683 230.316C335.934 228.157 328.378 228.157 323.845 230.316C319.096 232.69 319.096 236.36 323.845 238.519ZM334.855 233.338C336.15 233.986 336.15 235.065 334.855 235.713C333.559 236.36 331.185 236.36 329.89 235.713C328.594 235.065 328.594 233.986 329.89 233.338C331.185 232.69 333.344 232.69 334.855 233.338Z" fill="#8CBFF8"/>
<path d="M101.526 143.149L377.196 276.99V307.213L441.957 338.73" stroke="#8CBFF8" stroke-width="0.622361" stroke-miterlimit="10" stroke-linecap="round"/>
<path d="M393.17 269.651H433.97L557.449 209.854" stroke="#8CBFF8" stroke-width="0.622361" stroke-miterlimit="10" stroke-linecap="round" stroke-linejoin="round"/>
<path d="M189.603 198.845L350.428 276.991V309.156L425.983 345.854" stroke="#8CBFF8" stroke-width="0.622361" stroke-miterlimit="10" stroke-linecap="round"/>
<path d="M336.18 393.994C338.339 392.915 338.339 391.188 336.18 390.108C334.237 389.245 331.215 389.029 329.056 389.677L-329.787 69.9692L-331.514 70.8327L327.114 390.54C325.818 391.619 326.034 393.131 327.977 393.994C330.136 395.073 333.806 395.073 336.18 393.994ZM334.237 393.131C332.942 393.778 330.999 393.778 329.704 393.131C328.409 392.483 328.409 391.619 329.704 390.972C330.999 390.324 332.942 390.324 334.237 390.972C335.533 391.404 335.533 392.483 334.237 393.131Z" fill="#8CBFF8"/>
<path d="M51.0121 386.654C53.1708 385.574 53.1708 383.847 51.0121 382.768C49.0692 381.904 46.0471 381.689 43.8883 382.336L-235.235 246.768V176.825L-483.273 56.5845L-485 57.4479L-237.61 177.473V247.416L42.3772 383.2C41.082 384.279 41.2978 385.79 43.2407 386.654C45.1835 387.733 48.8534 387.733 51.0121 386.654ZM49.2852 385.79C47.9899 386.438 46.0471 386.438 44.7518 385.79C43.4565 385.143 43.4565 384.279 44.7518 383.631C46.0471 382.984 47.9899 382.984 49.2852 383.631C50.5804 384.279 50.5804 385.143 49.2852 385.79Z" fill="#8CBFF8"/>
<path d="M288.257 416.876C290.415 415.797 290.415 414.07 288.257 412.991C286.314 412.127 283.292 411.911 281.133 412.559L0.930374 276.559V246.553L-236.098 131.493L-237.825 132.356L-1.6601 246.985V276.991L279.406 413.422C278.111 414.502 278.327 416.013 280.27 416.876C282.428 417.956 285.882 417.956 288.257 416.876ZM286.53 416.013C285.235 416.66 283.292 416.66 281.996 416.013C280.701 415.365 280.701 414.502 281.996 413.854C283.292 413.206 285.235 413.206 286.53 413.854C287.609 414.502 287.609 415.365 286.53 416.013Z" fill="#8CBFF8"/>
<path d="M397.272 361.828C399.43 360.749 399.43 359.022 397.272 357.943C395.329 357.079 392.307 356.863 390.148 357.511L296.459 311.962H184.637L-217.102 117.029L-218.829 117.892L183.558 313.257H295.38L388.421 358.374C387.126 359.454 387.342 360.965 389.285 361.828C391.443 362.908 395.113 362.908 397.272 361.828ZM395.545 360.965C394.25 361.612 392.307 361.612 391.011 360.965C389.716 360.317 389.716 359.454 391.011 358.806C392.307 358.158 394.25 358.158 395.545 358.806C396.624 359.238 396.624 360.317 395.545 360.965Z" fill="#8CBFF8"/>
<path d="M328.408 275.696C330.567 274.616 330.567 272.889 328.408 271.81C326.465 270.946 323.443 270.73 321.284 271.378L-66.4227 83.1372H-169.826V84.4324H-67.5021L319.342 272.242C318.046 273.321 318.262 274.832 320.205 275.696C322.58 276.775 326.25 276.775 328.408 275.696ZM326.681 274.832C325.386 275.48 323.443 275.48 322.148 274.832C320.853 274.184 320.853 273.321 322.148 272.673C323.443 272.026 325.386 272.026 326.681 272.673C327.977 273.321 327.977 274.184 326.681 274.832Z" fill="#8CBFF8"/>
<path d="M185.285 196.903C187.443 195.824 187.443 194.097 185.285 193.017C183.342 192.154 180.319 191.938 178.161 192.586L53.1706 131.925V110.554L-33.6102 68.4588C-32.315 67.3794 -32.5309 65.8683 -34.4737 65.0048C-36.6324 63.9255 -40.3023 63.9255 -42.6769 65.0048C-44.8356 66.0842 -44.8356 67.8112 -42.6769 68.8905C-40.734 69.754 -37.7118 69.9699 -35.5531 69.3223L50.5801 111.202V132.573L176.218 193.665C174.923 194.744 175.139 196.255 177.081 197.119C179.456 197.982 183.126 197.982 185.285 196.903ZM-36.2007 68.0271C-37.4959 68.6747 -39.4388 68.6747 -40.734 68.0271C-42.0292 67.3794 -42.0292 66.5159 -40.734 65.8683C-39.4388 65.2207 -37.4959 65.2207 -36.2007 65.8683C-34.9054 66.3001 -34.9054 67.3794 -36.2007 68.0271ZM183.558 196.039C182.262 196.687 180.319 196.687 179.024 196.039C177.729 195.392 177.729 194.528 179.024 193.881C180.319 193.233 182.262 193.233 183.558 193.881C184.853 194.312 184.853 195.392 183.558 196.039Z" fill="#8CBFF8"/>
<path d="M462.466 278.501C464.409 277.638 464.625 276.127 463.329 275.047L588.967 213.955V192.584L675.1 150.705C677.259 151.352 680.281 151.352 682.224 150.273C684.383 149.194 684.383 147.467 682.224 146.387C680.065 145.308 676.395 145.308 674.021 146.387C672.078 147.251 671.862 148.762 673.157 149.841L586.377 191.936V213.308L461.386 273.968C459.228 273.32 456.205 273.32 454.263 274.4C452.104 275.479 452.104 277.206 454.263 278.285C456.421 279.581 460.091 279.581 462.466 278.501ZM675.748 147.251C677.043 146.603 678.986 146.603 680.281 147.251C681.576 147.898 681.576 148.762 680.281 149.409C678.986 150.057 677.043 150.057 675.748 149.409C674.669 148.978 674.669 147.898 675.748 147.251ZM455.99 275.263C457.285 274.616 459.228 274.616 460.523 275.263C461.818 275.911 461.818 276.774 460.523 277.422C459.228 278.069 457.285 278.069 455.99 277.422C454.91 276.99 454.91 275.911 455.99 275.263Z" fill="#8CBFF8"/>
<path d="M247.672 251.518C249.831 250.439 249.831 248.712 247.672 247.632C245.729 246.769 242.707 246.553 240.548 247.201L118.364 187.836H77.3484L-276.899 16.001L-278.625 16.8645L76.269 189.131H117.501L238.821 248.064C237.526 249.143 237.742 250.654 239.685 251.518C241.843 252.597 245.513 252.597 247.672 251.518ZM245.945 250.654C244.65 251.302 242.707 251.302 241.412 250.654C240.116 250.007 240.116 249.143 241.412 248.496C242.707 247.848 244.65 247.848 245.945 248.496C247.24 248.927 247.24 250.007 245.945 250.654Z" fill="#8CBFF8"/>
<path d="M234.288 423.352C236.447 422.273 236.447 420.546 234.288 419.466C232.345 418.603 229.323 418.387 227.164 419.035L88.358 351.682V335.708L-161.407 214.603C-159.895 213.524 -160.327 212.013 -162.27 211.149C-164.429 210.07 -168.099 210.07 -170.473 211.149C-172.632 212.229 -172.632 213.956 -170.473 215.035C-168.53 215.899 -165.508 216.114 -163.349 215.467L85.5516 336.355V352.33L225.221 420.114C223.926 421.193 224.142 422.704 226.085 423.568C228.459 424.431 232.129 424.432 234.288 423.352ZM-163.997 214.172C-165.292 214.819 -167.235 214.819 -168.53 214.172C-169.826 213.524 -169.826 212.66 -168.53 212.013C-167.235 211.365 -165.292 211.365 -163.997 212.013C-162.702 212.445 -162.702 213.524 -163.997 214.172ZM232.561 422.489C231.266 423.136 229.323 423.136 228.028 422.489C226.732 421.841 226.732 420.977 228.028 420.33C229.323 419.682 231.266 419.682 232.561 420.33C233.856 420.977 233.856 421.841 232.561 422.489Z" fill="#8CBFF8"/>
<path d="M68.066 385.359C69.1454 385.791 70.2248 386.223 71.52 386.223V432.204L-47.4258 489.842L-45.0512 490.921L74.7581 432.635V386.223C76.0533 386.007 77.3486 385.791 78.428 385.359C81.2343 384.064 81.2343 381.69 78.428 380.394C75.6216 379.099 70.8724 379.099 68.066 380.394C65.2597 381.69 65.2597 383.848 68.066 385.359ZM76.0534 381.474C77.5645 382.337 77.5645 383.417 76.0534 384.28C74.5423 385.143 71.9518 385.143 70.4407 384.28C68.9296 383.417 68.9296 382.337 70.4407 381.474C71.9518 380.61 74.5423 380.61 76.0534 381.474Z" fill="#8CBFF8"/>
</svg>
