<svg width="14" height="14" viewBox="0 0 14 14" fill="none" xmlns="http://www.w3.org/2000/svg">
<path d="M5 1V13M9 1V13M1 1.66667C1 1.48986 1.07024 1.32029 1.19526 1.19526C1.32029 1.07024 1.48986 1 1.66667 1H12.3333C12.5101 1 12.6797 1.07024 12.8047 1.19526C12.9298 1.32029 13 1.48986 13 1.66667V12.3333C13 12.5101 12.9298 12.6797 12.8047 12.8047C12.6797 12.9298 12.5101 13 12.3333 13H1.66667C1.48986 13 1.32029 12.9298 1.19526 12.8047C1.07024 12.6797 1 12.5101 1 12.3333V1.66667Z" stroke="#646464" stroke-width="1.5" stroke-linecap="round" stroke-linejoin="round"/>
</svg>
