<svg width="16" height="16" viewBox="0 0 16 16" fill="none" xmlns="http://www.w3.org/2000/svg">
<path d="M4.66675 9.33366L6.66675 7.33366L8.00008 8.66699L10.0001 6.66699L11.3334 8.00033M2.66675 12.0003V4.00033C2.66675 3.6467 2.80722 3.30756 3.05727 3.05752C3.30732 2.80747 3.64646 2.66699 4.00008 2.66699H12.0001C12.3537 2.66699 12.6928 2.80747 12.9429 3.05752C13.1929 3.30756 13.3334 3.6467 13.3334 4.00033V12.0003C13.3334 12.3539 13.1929 12.6931 12.9429 12.9431C12.6928 13.1932 12.3537 13.3337 12.0001 13.3337H4.00008C3.64646 13.3337 3.30732 13.1932 3.05727 12.9431C2.80722 12.6931 2.66675 12.3539 2.66675 12.0003Z" stroke="current" stroke-width="1.5" stroke-linecap="round" stroke-linejoin="round"/>
</svg>