<svg width="16" height="16" viewBox="0 0 16 16" fill="none" xmlns="
http://www.w3.org/2000/svg">
<path d="M9.33325 2V4.66667C9.33325 4.84348 9.40349 5.01305 9.52851 5.13807C9.65354 5.2631 9.82311 5.33333 9.99992 5.33333H12.6666M9.33325 2H4.66659C4.31296 2 3.97382 2.14048 3.72378 2.39052C3.47373 2.64057 3.33325 2.97971 3.33325 3.33333V12.6667C3.33325 13.0203 3.47373 13.3594 3.72378 13.6095C3.97382 13.8595 4.31296 14 4.66659 14H11.3333C11.6869 14 12.026 13.8595 12.2761 13.6095C12.5261 13.3594 12.6666 13.0203 12.6666 12.6667V5.33333M9.33325 2L12.6666 5.33333M7.99992 7.33333V11.3333M7.99992 7.33333L6.33325 9M7.99992 7.33333L9.66659 9" stroke="#646464" stroke-width="1.5" stroke-linecap="round" stroke-linejoin="round"/>
</svg>