<svg width="100" height="100" viewBox="0 0 100 100" fill="none" xmlns="http://www.w3.org/2000/svg">
<path fill-rule="evenodd" clip-rule="evenodd" d="M49.5 84.0996L63.3096 41.5868H35.6904L49.5 84.0996Z" fill="#E24329"/>
<path fill-rule="evenodd" clip-rule="evenodd" d="M49.5 84.0996L35.6904 41.5868H16.3354L49.5 84.0996Z" fill="#FC6D26"/>
<path fill-rule="evenodd" clip-rule="evenodd" d="M16.3354 41.5868L12.14 54.5128C11.9534 55.087 11.9533 55.7056 12.1398 56.2799C12.3264 56.8542 12.6899 57.3547 13.1783 57.7097L49.5 84.0996L16.3354 41.5868Z" fill="#FCA326"/>
<path fill-rule="evenodd" clip-rule="evenodd" d="M16.3354 41.5867H35.6893L27.3723 15.9996C26.9446 14.6824 25.0813 14.6824 24.6535 15.9996L16.3354 41.5867Z" fill="#E24329"/>
<path fill-rule="evenodd" clip-rule="evenodd" d="M49.5 84.0996L63.3096 41.5868H82.6646L49.5 84.0996Z" fill="#FC6D26"/>
<path fill-rule="evenodd" clip-rule="evenodd" d="M82.6646 41.5868L86.86 54.5011C87.0466 55.0753 87.0467 55.6939 86.8602 56.2682C86.6736 56.8425 86.3101 57.343 85.8217 57.698L49.5 84.0996L82.6646 41.5868Z" fill="#FCA326"/>
<path fill-rule="evenodd" clip-rule="evenodd" d="M82.6646 41.5867H63.3096L71.6277 15.9879C72.0554 14.6707 73.9187 14.6707 74.3465 15.9879L82.6646 41.5867Z" fill="#E24329"/>
</svg>
