<svg width="100" height="100" viewBox="0 0 100 100" fill="none" xmlns="http://www.w3.org/2000/svg">
<path d="M49.5 84.7835C68.9866 84.7835 84.7835 68.9865 84.7835 49.4999C84.7835 30.0134 68.9866 14.2164 49.5 14.2164C30.0135 14.2164 14.2165 30.0134 14.2165 49.4999C14.2165 68.9865 30.0135 84.7835 49.5 84.7835Z" fill="#3888BD"/>
<path d="M49.5 12.5754C29.1398 12.5754 12.5754 29.1398 12.5754 49.5C12.5754 69.8603 29.1398 86.4247 49.5 86.4247C69.8602 86.4247 86.4246 69.8603 86.4246 49.5C86.4246 29.1398 69.8602 12.5754 49.5 12.5754ZM15.8994 51.1411H29.0438C29.1603 56.1654 29.8101 60.8974 30.8941 65.1692H19.7429C17.5077 60.9418 16.1431 56.1867 15.8994 51.1411ZM51.1411 30.5495V16.0217C56.2416 17.0179 60.7694 22.5919 63.6068 30.5495H51.1411ZM64.6432 33.8317C65.8207 38.0813 66.5444 42.8454 66.6749 47.859H51.1411V33.8317H64.6432ZM47.8589 16.0217V30.5495H35.394C38.2306 22.5919 42.7584 17.0179 47.8589 16.0217ZM47.8589 33.8317V47.859H32.3251C32.4556 42.8454 33.1793 38.0813 34.3568 33.8317H47.8589ZM29.0438 47.859H15.8994C16.1431 42.8134 17.5077 38.0583 19.7429 33.8317H30.8941C29.8093 38.1027 29.1595 42.8347 29.0438 47.859ZM32.3251 51.1411H47.8589V65.1692H34.3568C33.1801 60.9196 32.4556 56.1555 32.3251 51.1411ZM47.8589 68.4514V82.9784C42.7584 81.9822 38.2314 76.4082 35.394 68.4506H47.8589V68.4514ZM51.1411 82.9784V68.4514H63.6068C60.7694 76.4082 56.2416 81.9822 51.1411 82.9784ZM51.1411 65.1692V51.1411H66.6749C66.5444 56.1555 65.8207 60.9196 64.6432 65.1692H51.1411ZM69.957 51.1411H83.1006C82.8569 56.1867 81.4923 60.9418 79.2571 65.1692H68.1067C69.1907 60.8974 69.8405 56.1654 69.957 51.1411ZM69.957 47.859C69.8405 42.8347 69.1907 38.1027 68.1067 33.8317H79.2571C81.4923 38.0592 82.8569 42.8134 83.1006 47.859H69.957ZM77.2796 30.5495H67.1606C65.394 25.1232 62.8782 20.6316 59.8504 17.4938C67.0031 19.8127 73.1145 24.4627 77.2796 30.5495ZM39.1496 17.4938C36.1226 20.6316 33.6068 25.1232 31.8394 30.5495H21.7204C25.8855 24.4627 31.9969 19.8127 39.1496 17.4938ZM21.7212 68.4514H31.8402C33.6068 73.8769 36.1226 78.3685 39.1504 81.5071C31.9969 79.1874 25.8863 74.5374 21.7212 68.4514ZM59.8504 81.5063C62.8774 78.3685 65.394 73.8769 67.1606 68.4514H77.2796C73.1137 74.5374 67.0031 79.1874 59.8504 81.5063Z" fill="#17679C"/>
</svg>
