<svg width="63" height="24" viewBox="0 0 63 24" fill="none" xmlns="http://www.w3.org/2000/svg">
<path d="M12.0002 21C16.9708 21 21.0002 16.9706 21.0002 12C21.0002 7.02944 16.9708 3 12.0002 3C7.02968 3 3.00024 7.02944 3.00024 12C3.00024 16.9706 7.02968 21 12.0002 21Z" stroke="#737373" stroke-width="1.7" stroke-linecap="round" stroke-linejoin="round"/>
<path d="M12.0002 18C12.6216 18 13.1252 17.4963 13.1252 16.875C13.1252 16.2537 12.6216 15.75 12.0002 15.75C11.3789 15.75 10.8752 16.2537 10.8752 16.875C10.8752 17.4963 11.3789 18 12.0002 18Z" fill="#737373"/>
<path d="M12.0002 13.5005V12.7505C12.5194 12.7505 13.0269 12.5965 13.4586 12.3081C13.8903 12.0197 14.2267 11.6097 14.4254 11.13C14.6241 10.6504 14.6761 10.1226 14.5748 9.61338C14.4735 9.10418 14.2235 8.63645 13.8564 8.26933C13.4893 7.90222 13.0216 7.65221 12.5124 7.55093C12.0032 7.44964 11.4754 7.50163 10.9957 7.70031C10.516 7.89899 10.1061 8.23544 9.81764 8.66712C9.5292 9.0988 9.37524 9.60631 9.37524 10.1255" stroke="#737373" stroke-width="1.7" stroke-linecap="round" stroke-linejoin="round"/>
<path d="M33.233 17V6.81818H34.4659V11.3523H39.8949V6.81818H41.1278V17H39.8949V12.446H34.4659V17H33.233ZM46.6388 17.1591C45.9031 17.1591 45.2683 16.9967 44.7347 16.6719C44.2044 16.3438 43.7951 15.8864 43.5067 15.2997C43.2217 14.7098 43.0792 14.0237 43.0792 13.2415C43.0792 12.4593 43.2217 11.7699 43.5067 11.1733C43.7951 10.5734 44.1961 10.1061 44.7099 9.77131C45.2269 9.43324 45.8301 9.2642 46.5195 9.2642C46.9173 9.2642 47.31 9.33049 47.6978 9.46307C48.0856 9.59564 48.4386 9.81108 48.7567 10.1094C49.0749 10.4044 49.3285 10.7955 49.5174 11.2827C49.7063 11.7699 49.8008 12.3698 49.8008 13.0824V13.5795H43.9144V12.5653H48.6076C48.6076 12.1345 48.5214 11.75 48.3491 11.4119C48.18 11.0739 47.9381 10.8071 47.6232 10.6115C47.3117 10.416 46.9438 10.3182 46.5195 10.3182C46.0522 10.3182 45.6478 10.4342 45.3065 10.6662C44.9684 10.8949 44.7082 11.1932 44.5259 11.5611C44.3436 11.929 44.2525 12.3234 44.2525 12.7443V13.4205C44.2525 13.9972 44.3519 14.486 44.5508 14.8871C44.753 15.2848 45.033 15.5881 45.391 15.7969C45.7489 16.0024 46.1649 16.1051 46.6388 16.1051C46.9471 16.1051 47.2255 16.062 47.4741 15.9759C47.726 15.8864 47.9431 15.7538 48.1254 15.5781C48.3076 15.3991 48.4485 15.1771 48.5479 14.9119L49.6815 15.2301C49.5621 15.6146 49.3616 15.9527 49.0799 16.2443C48.7982 16.5327 48.4502 16.758 48.0359 16.9205C47.6216 17.0795 47.1559 17.1591 46.6388 17.1591ZM52.7589 6.81818V17H51.5856V6.81818H52.7589ZM54.9078 19.8636V9.36364H56.0414V10.5767H56.1806C56.2667 10.4441 56.3861 10.2751 56.5385 10.0696C56.6943 9.8608 56.9164 9.67519 57.2047 9.51278C57.4964 9.34706 57.8908 9.2642 58.388 9.2642C59.031 9.2642 59.5977 9.42495 60.0882 9.74645C60.5788 10.0679 60.9616 10.5237 61.2367 11.1136C61.5118 11.7036 61.6493 12.3996 61.6493 13.2017C61.6493 14.0104 61.5118 14.7114 61.2367 15.3047C60.9616 15.8946 60.5804 16.352 60.0932 16.6768C59.606 16.9983 59.0442 17.1591 58.4078 17.1591C57.9173 17.1591 57.5246 17.0779 57.2296 16.9155C56.9346 16.7498 56.7076 16.5625 56.5485 16.3537C56.3894 16.1416 56.2667 15.9659 56.1806 15.8267H56.0811V19.8636H54.9078ZM56.0613 13.1818C56.0613 13.7585 56.1458 14.2673 56.3148 14.7081C56.4838 15.1456 56.7308 15.4886 57.0556 15.7372C57.3804 15.9825 57.7781 16.1051 58.2488 16.1051C58.7393 16.1051 59.1486 15.9759 59.4767 15.7173C59.8082 15.4555 60.0568 15.1042 60.2225 14.6634C60.3915 14.2192 60.476 13.7254 60.476 13.1818C60.476 12.6449 60.3932 12.161 60.2275 11.7301C60.065 11.2959 59.8181 10.9529 59.4867 10.701C59.1586 10.4458 58.7459 10.3182 58.2488 10.3182C57.7715 10.3182 57.3704 10.4392 57.0456 10.6811C56.7208 10.9197 56.4756 11.2545 56.3098 11.6854C56.1441 12.1129 56.0613 12.6117 56.0613 13.1818Z" fill="#737373"/>
</svg>
