<svg width="16" height="16" viewBox="0 0 16 16" fill="none" xmlns="http://www.w3.org/2000/svg">
<path d="M8 5.33331V7.99998L9.33333 9.33331M2.03333 7.33332C2.18272 5.86669 2.86683 4.50639 3.95515 3.51196C5.04346 2.51753 6.45979 1.95857 7.93391 1.94174C9.40803 1.9249 10.8368 2.45136 11.9475 3.42067C13.0582 4.38999 13.7733 5.7343 13.9561 7.19714C14.139 8.65997 13.7769 10.1389 12.9389 11.3518C12.1009 12.5647 10.8458 13.4267 9.41285 13.7732C7.97994 14.1198 6.4696 13.9266 5.16999 13.2307C3.87038 12.5348 2.87247 11.3847 2.36666 9.99998M2.03333 13.3333V9.99998H5.36666" stroke="#646464" stroke-width="1.5" stroke-linecap="round" stroke-linejoin="round"/>
</svg>