<svg width="16" height="16" viewBox="0 0 16 16" fill="none" xmlns="http://www.w3.org/2000/svg">
<path d="M5.99984 2.66675V13.3334M9.99984 6.66675L8.6665 8.00008L9.99984 9.33341M2.6665 4.00008C2.6665 3.64646 2.80698 3.30732 3.05703 3.05727C3.30708 2.80722 3.64622 2.66675 3.99984 2.66675H11.9998C12.3535 2.66675 12.6926 2.80722 12.9426 3.05727C13.1927 3.30732 13.3332 3.64646 13.3332 4.00008V12.0001C13.3332 12.3537 13.1927 12.6928 12.9426 12.9429C12.6926 13.1929 12.3535 13.3334 11.9998 13.3334H3.99984C3.64622 13.3334 3.30708 13.1929 3.05703 12.9429C2.80698 12.6928 2.6665 12.3537 2.6665 12.0001V4.00008Z" stroke="#646464" stroke-width="1.5" stroke-linecap="round" stroke-linejoin="round"/>
</svg>
