<svg width="197" height="64" viewBox="0 0 197 64" fill="none" xmlns="http://www.w3.org/2000/svg">
<path d="M100.081 63.8461C99.8247 63.8461 99.6194 63.8461 99.3628 63.8461C92.1262 63.6408 84.2738 60.4074 78.3716 55.2238C71.443 49.1163 67.5938 40.8533 67.5938 31.923C67.5938 14.3192 81.9129 0 99.5168 0C109.525 0 119.071 4.77306 125.076 12.8308C126.41 14.6271 126.359 17.0906 124.973 18.8356L106.086 42.7522C104.29 45.0104 100.954 45.2671 98.7982 43.2655C96.9506 41.4691 96.848 38.5437 98.439 36.4908L112.502 18.733C113.836 17.0393 113.477 14.6784 111.68 13.498C107.626 10.7779 102.699 9.4948 97.5152 9.9567C86.1727 10.9318 77.4478 20.6319 77.4991 32.0257C77.5504 45.7803 90.6379 53.7354 99.6707 53.992C104.392 54.146 109.781 52.1957 113.425 49.0137C114.862 47.7819 118.096 43.2654 122.92 36.4908C123.998 34.9511 124.562 34.1299 125.23 33.2061C125.897 32.231 126.667 31.1532 128.155 29.0489C132.569 22.8388 134.776 19.7081 137.085 16.8853C142.936 9.64876 146.118 5.64555 151.558 2.97675C153.509 2.00161 158.744 -0.20529 164.954 0.0513263C178.247 0.513235 196.672 11.8557 196.672 31.9744C196.672 49.5782 182.352 63.8974 164.749 63.8974C159.924 63.8974 155.459 62.5116 155.254 62.4603C147.042 59.8942 141.704 54.6079 138.676 50.5534C137.188 48.5518 137.291 45.7803 139.036 43.984C141.243 41.7771 144.732 42.1363 146.529 44.4972C148.684 47.3713 152.431 51.2205 158.23 53.0169C158.282 53.0169 161.567 53.992 164.8 53.992C176.963 53.992 186.818 44.0866 186.818 31.9744C186.818 18.2711 173.679 10.2646 164.595 9.90538C160.386 9.75141 156.588 11.4964 155.87 11.8557C152.38 13.5493 150.019 16.5261 144.732 23.0954C142.628 25.7129 140.473 28.7923 136.162 34.7971C134.724 36.8501 133.955 37.9278 133.287 38.8517C132.62 39.7755 132.056 40.648 130.875 42.239C124.87 50.656 122.099 54.4539 119.789 56.4555C114.554 61.0746 107.061 63.8461 100.081 63.8461Z" fill="white"/>
<path d="M50.9639 6.41534C45.6263 2.41213 39.0056 0.0512695 31.8717 0.0512695C23.352 0.0512695 15.5509 3.4386 9.85405 8.93018V4.97829C9.85405 2.25816 7.64715 0.0512695 4.92703 0.0512695C2.2069 0.0512695 0 2.25816 0 4.97829V41.8797V42.2903V59.0729C0 61.7931 2.2069 64 4.92703 64C7.64715 64 9.85405 61.7931 9.85405 59.0729V42.2389V41.8284V31.923C9.85405 19.7594 19.7594 9.90532 31.8717 9.90532C44.0353 9.90532 53.8893 19.8107 53.8893 31.923V59.0216C53.8893 61.7417 56.0962 63.9486 58.8164 63.9486C61.5365 63.9486 63.7434 61.7417 63.7434 59.0216V41.7257V29.6134V29.2028C63.7434 29.2028 63.8974 16.0641 50.9639 6.41534Z" fill="white"/>
</svg>
