<svg width="197" height="64" viewBox="0 0 197 64" fill="none" xmlns="http://www.w3.org/2000/svg">
<path d="M100.079 63.846C99.8227 63.846 99.6175 63.846 99.3608 63.846C92.1243 63.6407 84.2718 60.4074 78.3697 55.2237C71.441 49.1163 67.5918 40.8532 67.5918 31.923C67.5918 14.3192 81.911 0 99.5148 0C109.523 0 119.069 4.77306 125.074 12.8308C126.408 14.6271 126.357 17.0906 124.971 18.8356L106.084 42.7522C104.288 45.0104 100.952 45.267 98.7963 43.2654C96.9486 41.4691 96.846 38.5437 98.437 36.4908L112.5 18.733C113.834 17.0393 113.475 14.6784 111.678 13.498C107.624 10.7779 102.697 9.49479 97.5132 9.9567C86.1708 10.9318 77.4458 20.6319 77.4972 32.0257C77.5485 45.7803 90.6359 53.7354 99.6688 53.992C104.391 54.146 109.779 52.1957 113.423 49.0136C114.86 47.7819 118.094 43.2654 122.918 36.4908C123.996 34.9511 124.561 34.1299 125.228 33.2061C125.895 32.231 126.665 31.1532 128.153 29.0489C132.567 22.8388 134.774 19.7081 137.083 16.8853C142.934 9.64876 146.116 5.64555 151.557 2.97675C153.507 2.00161 158.742 -0.20529 164.952 0.0513263C178.245 0.513235 196.67 11.8557 196.67 31.9743C196.67 49.5782 182.35 63.8974 164.747 63.8974C159.922 63.8974 155.457 62.5116 155.252 62.4603C147.04 59.8941 141.702 54.6079 138.674 50.5533C137.186 48.5517 137.289 45.7803 139.034 43.984C141.241 41.7771 144.731 42.1363 146.527 44.4972C148.682 47.3713 152.429 51.2205 158.229 53.0168C158.28 53.0168 161.565 53.992 164.798 53.992C176.961 53.992 186.816 44.0866 186.816 31.9743C186.816 18.2711 173.677 10.2646 164.593 9.90537C160.384 9.7514 156.586 11.4964 155.868 11.8557C152.378 13.5493 150.017 16.5261 144.731 23.0954C142.626 25.7129 140.471 28.7923 136.16 34.7971C134.723 36.85 133.953 37.9278 133.285 38.8516C132.618 39.7755 132.054 40.648 130.873 42.239C124.868 50.656 122.097 54.4539 119.787 56.4555C114.552 61.0746 107.059 63.846 100.079 63.846Z" fill="url(#paint0_linear_4706_16271)"/>
<path d="M50.9639 6.41534C45.6263 2.41213 39.0056 0.0512695 31.8717 0.0512695C23.352 0.0512695 15.5509 3.4386 9.85405 8.93018V4.97829C9.85405 2.25816 7.64715 0.0512695 4.92702 0.0512695C2.2069 0.0512695 0 2.25816 0 4.97829V41.8797V42.2902V59.0729C0 61.793 2.2069 63.9999 4.92702 63.9999C7.64715 63.9999 9.85405 61.793 9.85405 59.0729V42.2389V41.8283V31.923C9.85405 19.7594 19.7594 9.90532 31.8717 9.90532C44.0353 9.90532 53.8893 19.8107 53.8893 31.923V59.0216C53.8893 61.7417 56.0962 63.9486 58.8164 63.9486C61.5365 63.9486 63.7434 61.7417 63.7434 59.0216V41.7257V29.6134V29.2028C63.7434 29.2028 63.8974 16.0641 50.9639 6.41534Z" fill="url(#paint1_linear_4706_16271)"/>
<defs>
<linearGradient id="paint0_linear_4706_16271" x1="-1.38876" y1="31.9329" x2="193.833" y2="31.9329" gradientUnits="userSpaceOnUse">
<stop stop-color="#007FFF"/>
<stop offset="1" stop-color="#0253FC"/>
</linearGradient>
<linearGradient id="paint1_linear_4706_16271" x1="-1.38793" y1="31.9743" x2="193.833" y2="31.9743" gradientUnits="userSpaceOnUse">
<stop stop-color="#007FFF"/>
<stop offset="1" stop-color="#0253FC"/>
</linearGradient>
</defs>
</svg>
