<svg width="100" height="100" viewBox="0 0 100 100" fill="none" xmlns="http://www.w3.org/2000/svg">
<path d="M84.0708 76.285H14.9292C13.3117 76.285 12 74.9733 12 73.3558V25.9292C12 24.3117 13.3117 23 14.9292 23H84.0708C85.6883 23 87 24.3117 87 25.9292V73.3558C87 74.9733 85.6883 76.285 84.0708 76.285Z" fill="#F3AC47"/>
<path d="M49.5 43.7474L12.925 75.4824C13.4492 75.9766 14.1517 76.2849 14.9292 76.2849H84.0708C84.8483 76.2849 85.5508 75.9766 86.075 75.4824C84.315 73.9558 49.5 43.7474 49.5 43.7474Z" fill="#F19A3D"/>
<path d="M12.6317 24.1325L49.5 55.5375L86.075 23.8025C85.5508 23.3083 84.8483 23 84.0708 23H14.9292C13.9925 23 13.1675 23.4475 12.6317 24.1325Z" fill="#FFD15C"/>
</svg>
