<svg width="87" height="24" viewBox="0 0 87 24" fill="none" xmlns="http://www.w3.org/2000/svg">
<path d="M12 6V12M12 12V18M12 12H18M12 12H6" stroke="#0F6FFF" stroke-width="2" stroke-linecap="round" stroke-linejoin="round"/>
<path d="M36.9364 7.27273V16H35.7262L31.2901 9.59943H31.2092V16H29.8924V7.27273H31.1112L35.5515 13.6818H35.6325V7.27273H36.9364ZM41.576 16.1321C40.9311 16.1321 40.3757 15.9943 39.9098 15.7188C39.4467 15.4403 39.0888 15.0497 38.8359 14.5469C38.5859 14.0412 38.4609 13.4489 38.4609 12.7699C38.4609 12.0994 38.5859 11.5085 38.8359 10.9972C39.0888 10.4858 39.4411 10.0866 39.8928 9.79972C40.3473 9.51278 40.8786 9.36932 41.4865 9.36932C41.8558 9.36932 42.2138 9.4304 42.5604 9.55256C42.907 9.67472 43.218 9.86648 43.4936 10.1278C43.7692 10.3892 43.9865 10.7287 44.1456 11.1463C44.3047 11.5611 44.3842 12.0653 44.3842 12.6591V13.1108H39.1811V12.1562H43.1357C43.1357 11.821 43.0675 11.5241 42.9311 11.2656C42.7947 11.0043 42.603 10.7983 42.3558 10.6477C42.1115 10.4972 41.8246 10.4219 41.495 10.4219C41.1371 10.4219 40.8246 10.5099 40.5575 10.6861C40.2933 10.8594 40.0888 11.0866 39.9439 11.3679C39.8018 11.6463 39.7308 11.9489 39.7308 12.2756V13.0213C39.7308 13.4588 39.8075 13.831 39.9609 14.1378C40.1172 14.4446 40.3345 14.679 40.6129 14.8409C40.8913 15 41.2166 15.0795 41.5888 15.0795C41.8303 15.0795 42.0504 15.0455 42.2493 14.9773C42.4482 14.9062 42.62 14.8011 42.7649 14.6619C42.9098 14.5227 43.0206 14.3509 43.0973 14.1463L44.3033 14.3636C44.2067 14.7187 44.0334 15.0298 43.7834 15.2969C43.5362 15.5611 43.2251 15.767 42.8501 15.9148C42.478 16.0597 42.0533 16.1321 41.576 16.1321ZM47.2053 16L45.2791 9.45455H46.5959L47.8786 14.2614H47.9425L49.2294 9.45455H50.5462L51.8246 14.2401H51.8885L53.1626 9.45455H54.4794L52.5575 16H51.2578L49.9283 11.2741H49.8303L48.5007 16H47.2053ZM58.9666 16V7.27273H64.3786V8.40625H60.2834V11.0653H63.9908V12.1946H60.2834V16H58.9666ZM68.1722 16.1321C67.5586 16.1321 67.0231 15.9915 66.5657 15.7102C66.1083 15.429 65.7532 15.0355 65.5004 14.5298C65.2475 14.0241 65.1211 13.4332 65.1211 12.7571C65.1211 12.0781 65.2475 11.4844 65.5004 10.9759C65.7532 10.4673 66.1083 10.0724 66.5657 9.79119C67.0231 9.50994 67.5586 9.36932 68.1722 9.36932C68.7859 9.36932 69.3214 9.50994 69.7788 9.79119C70.2362 10.0724 70.5913 10.4673 70.8441 10.9759C71.0969 11.4844 71.2234 12.0781 71.2234 12.7571C71.2234 13.4332 71.0969 14.0241 70.8441 14.5298C70.5913 15.0355 70.2362 15.429 69.7788 15.7102C69.3214 15.9915 68.7859 16.1321 68.1722 16.1321ZM68.1765 15.0625C68.5742 15.0625 68.9038 14.9574 69.1651 14.7472C69.4265 14.5369 69.6197 14.2571 69.7447 13.9077C69.8725 13.5582 69.9364 13.1733 69.9364 12.7528C69.9364 12.3352 69.8725 11.9517 69.7447 11.6023C69.6197 11.25 69.4265 10.9673 69.1651 10.7543C68.9038 10.5412 68.5742 10.4347 68.1765 10.4347C67.7759 10.4347 67.4435 10.5412 67.1793 10.7543C66.918 10.9673 66.7234 11.25 66.5955 11.6023C66.4705 11.9517 66.408 12.3352 66.408 12.7528C66.408 13.1733 66.4705 13.5582 66.5955 13.9077C66.7234 14.2571 66.918 14.5369 67.1793 14.7472C67.4435 14.9574 67.7759 15.0625 68.1765 15.0625ZM72.6456 16V9.45455H73.8771V10.4943H73.9453C74.0646 10.142 74.2749 9.86506 74.576 9.66335C74.88 9.45881 75.2237 9.35653 75.6072 9.35653C75.6868 9.35653 75.7805 9.35937 75.8885 9.36506C75.9993 9.37074 76.0859 9.37784 76.1484 9.38636V10.6051C76.0973 10.5909 76.0064 10.5753 75.8757 10.5582C75.745 10.5384 75.6143 10.5284 75.4837 10.5284C75.1825 10.5284 74.9141 10.5923 74.6783 10.7202C74.4453 10.8452 74.2607 11.0199 74.1243 11.2443C73.9879 11.4659 73.9197 11.7187 73.9197 12.0028V16H72.6456ZM77.2511 16V9.45455H78.4741V10.5199H78.555C78.6914 10.1591 78.9144 9.87784 79.2241 9.67614C79.5337 9.47159 79.9045 9.36932 80.3363 9.36932C80.7738 9.36932 81.1403 9.47159 81.4357 9.67614C81.734 9.88068 81.9542 10.1619 82.0962 10.5199H82.1644C82.3207 10.1705 82.5692 9.89205 82.9102 9.68466C83.2511 9.47443 83.6573 9.36932 84.1289 9.36932C84.7227 9.36932 85.207 9.5554 85.582 9.92756C85.9599 10.2997 86.1488 10.8608 86.1488 11.6108V16H84.8746V11.7301C84.8746 11.2869 84.7539 10.9659 84.5124 10.767C84.271 10.5682 83.9826 10.4688 83.6474 10.4688C83.2326 10.4688 82.9102 10.5966 82.68 10.8523C82.4499 11.1051 82.3349 11.4304 82.3349 11.8281V16H81.065V11.6491C81.065 11.294 80.9542 11.0085 80.7326 10.7926C80.511 10.5767 80.2227 10.4688 79.8675 10.4688C79.6261 10.4688 79.4031 10.5327 79.1985 10.6605C78.9968 10.7855 78.8335 10.9602 78.7085 11.1847C78.5863 11.4091 78.5252 11.669 78.5252 11.9645V16H77.2511Z" fill="#0F6FFF"/>
</svg>
