<svg width="500" height="500" viewBox="0 0 500 500" fill="none" xmlns="http://www.w3.org/2000/svg">
<g opacity="0.05">
<circle cx="246.5" cy="249.5" r="153.5" fill="#0D0D0D"/>
<rect x="35" y="129" width="249" height="26" rx="13" fill="#0D0D0D"/>
<rect x="203" y="228" width="249" height="26" rx="13" fill="#0D0D0D"/>
<rect x="57" y="160" width="249" height="26" rx="13" fill="#0D0D0D"/>
<rect x="197" y="351" width="249" height="26" rx="13" fill="#0D0D0D"/>
<rect x="225" y="259" width="249" height="26" rx="13" fill="#0D0D0D"/>
<rect x="26" y="316" width="249" height="26" rx="13" fill="#0D0D0D"/>
</g>
<path d="M367.87 86.084L361.3 82.274L132.01 214.724V420.214C132.01 422.444 132.79 424.004 134.01 424.744L140.57 428.564C141.83 429.294 143.57 429.194 145.52 428.074L360.87 303.694C362.907 302.366 364.603 300.577 365.819 298.471C367.035 296.365 367.738 294.002 367.87 291.574V86.084Z" fill="#E6E6E6"/>
<path d="M142.44 428.214C143.404 428.167 144.341 427.875 145.16 427.364L360.51 302.994C362.427 301.741 364.023 300.054 365.167 298.07C366.312 296.087 366.974 293.861 367.1 291.574V87.4841L139.38 219.004V424.004C139.38 426.654 140.52 428.214 142.44 428.214Z" fill="#FAFAFA"/>
<path d="M200.951 212.937C200.925 212.684 200.817 212.539 200.628 212.502C200.438 212.463 200.199 212.528 199.912 212.696C199.706 212.816 199.527 212.958 199.377 213.122C199.227 213.284 199.11 213.455 199.026 213.634C198.944 213.811 198.904 213.981 198.904 214.146C198.904 214.284 198.931 214.387 198.987 214.455C199.044 214.522 199.119 214.563 199.21 214.578C199.303 214.589 199.403 214.587 199.509 214.57C199.616 214.552 199.718 214.528 199.816 214.499L200.306 214.36C200.467 214.312 200.631 214.277 200.799 214.256C200.968 214.236 201.124 214.247 201.268 214.289C201.412 214.332 201.528 214.422 201.616 214.557C201.706 214.692 201.751 214.89 201.751 215.152C201.751 215.481 201.677 215.817 201.53 216.159C201.385 216.499 201.173 216.825 200.895 217.135C200.619 217.444 200.284 217.714 199.892 217.943C199.516 218.163 199.191 218.284 198.916 218.306C198.641 218.329 198.426 218.258 198.271 218.095C198.116 217.931 198.03 217.678 198.013 217.337L198.774 216.892C198.788 217.094 198.847 217.235 198.95 217.315C199.055 217.392 199.188 217.417 199.35 217.391C199.513 217.361 199.693 217.29 199.887 217.176C200.101 217.051 200.292 216.901 200.459 216.726C200.627 216.548 200.759 216.36 200.856 216.164C200.952 215.965 201.001 215.771 201.001 215.582C201.001 215.41 200.958 215.293 200.873 215.233C200.79 215.172 200.676 215.148 200.532 215.16C200.39 215.171 200.229 215.202 200.049 215.252L199.455 215.411C199.053 215.52 198.734 215.52 198.499 215.411C198.265 215.301 198.148 215.044 198.148 214.639C198.148 214.304 198.227 213.965 198.384 213.623C198.541 213.282 198.753 212.963 199.021 212.668C199.289 212.371 199.592 212.124 199.929 211.927C200.269 211.729 200.569 211.622 200.829 211.609C201.09 211.594 201.296 211.664 201.447 211.818C201.597 211.971 201.676 212.201 201.682 212.51L200.951 212.937ZM204.221 215.404C203.85 215.621 203.531 215.716 203.262 215.689C202.996 215.659 202.79 215.519 202.644 215.269C202.5 215.016 202.429 214.663 202.429 214.21C202.429 213.763 202.5 213.327 202.644 212.902C202.79 212.476 202.993 212.092 203.253 211.748C203.514 211.404 203.82 211.13 204.17 210.925C204.382 210.801 204.588 210.721 204.788 210.686C204.987 210.651 205.166 210.674 205.325 210.756C205.484 210.837 205.609 210.99 205.7 211.215C205.792 211.438 205.838 211.748 205.838 212.143V212.445L202.843 214.195V213.559L205.119 212.228C205.119 212.005 205.08 211.83 205.001 211.703C204.923 211.575 204.812 211.502 204.67 211.485C204.53 211.467 204.364 211.513 204.175 211.624C203.969 211.745 203.789 211.908 203.635 212.116C203.483 212.32 203.365 212.54 203.282 212.777C203.2 213.01 203.159 213.236 203.159 213.453V213.951C203.159 214.242 203.204 214.465 203.292 214.618C203.382 214.77 203.507 214.853 203.667 214.867C203.827 214.879 204.015 214.823 204.229 214.698C204.368 214.616 204.494 214.52 204.609 214.407C204.723 214.293 204.822 214.165 204.906 214.024C204.989 213.882 205.053 213.73 205.097 213.568L205.791 213.307C205.735 213.576 205.636 213.842 205.492 214.104C205.35 214.363 205.17 214.605 204.955 214.83C204.74 215.052 204.496 215.243 204.221 215.404ZM207.385 207.648V213.466L206.651 213.895V208.077L207.385 207.648ZM209.995 212.029C209.623 212.245 209.304 212.341 209.036 212.314C208.769 212.284 208.563 212.144 208.418 211.894C208.274 211.641 208.202 211.288 208.202 210.835C208.202 210.388 208.274 209.952 208.418 209.527C208.563 209.101 208.766 208.717 209.026 208.373C209.287 208.029 209.593 207.755 209.943 207.55C210.156 207.426 210.362 207.346 210.561 207.311C210.761 207.276 210.94 207.299 211.098 207.38C211.257 207.462 211.382 207.615 211.474 207.84C211.565 208.063 211.611 208.372 211.611 208.768V209.069L208.616 210.82V210.184L210.892 208.853C210.892 208.63 210.853 208.455 210.775 208.328C210.696 208.2 210.586 208.127 210.443 208.11C210.303 208.092 210.138 208.138 209.948 208.249C209.742 208.369 209.562 208.533 209.408 208.741C209.256 208.945 209.139 209.165 209.055 209.402C208.974 209.635 208.933 209.861 208.933 210.078V210.575C208.933 210.867 208.977 211.089 209.065 211.242C209.155 211.394 209.28 211.477 209.44 211.492C209.601 211.504 209.788 211.448 210.002 211.323C210.141 211.241 210.268 211.144 210.382 211.032C210.497 210.918 210.596 210.79 210.679 210.648C210.762 210.507 210.826 210.355 210.87 210.193L211.564 209.932C211.509 210.201 211.409 210.467 211.265 210.729C211.123 210.988 210.944 211.23 210.728 211.455C210.514 211.677 210.269 211.868 209.995 212.029ZM214.011 209.68C213.647 209.893 213.333 209.981 213.07 209.944C212.808 209.904 212.607 209.755 212.466 209.498C212.326 209.242 212.255 208.894 212.255 208.457C212.255 208.014 212.327 207.581 212.471 207.157C212.615 206.732 212.818 206.348 213.079 206.004C213.341 205.659 213.649 205.384 214.004 205.176C214.29 205.009 214.545 204.921 214.769 204.913C214.993 204.904 215.174 204.968 215.311 205.108C215.45 205.246 215.533 205.455 215.559 205.733L214.845 206.15C214.806 205.969 214.716 205.845 214.575 205.78C214.436 205.713 214.25 205.748 214.016 205.885C213.812 206.004 213.633 206.171 213.479 206.386C213.327 206.598 213.208 206.844 213.123 207.123C213.038 207.4 212.996 207.693 212.996 208.004C212.996 208.322 213.038 208.572 213.121 208.755C213.204 208.937 213.322 209.047 213.474 209.085C213.628 209.122 213.809 209.08 214.016 208.959C214.155 208.877 214.281 208.774 214.394 208.65C214.508 208.522 214.604 208.38 214.681 208.224C214.759 208.066 214.814 207.899 214.845 207.724L215.559 207.307C215.533 207.604 215.453 207.903 215.321 208.202C215.189 208.501 215.011 208.779 214.789 209.035C214.568 209.291 214.309 209.506 214.011 209.68ZM218.102 202.837V203.519L216.044 204.722V204.04L218.102 202.837ZM216.596 202.672L217.329 202.244V206.371C217.329 206.536 217.35 206.648 217.393 206.706C217.435 206.763 217.49 206.787 217.557 206.778C217.626 206.766 217.7 206.737 217.78 206.69C217.839 206.656 217.891 206.621 217.935 206.585C217.979 206.55 218.013 206.523 218.038 206.503L218.17 207.127C218.128 207.171 218.067 207.225 217.989 207.29C217.91 207.356 217.812 207.425 217.694 207.496C217.501 207.612 217.322 207.678 217.155 207.692C216.988 207.706 216.853 207.656 216.75 207.542C216.647 207.428 216.596 207.24 216.596 206.976V202.672ZM221.837 205.114C221.598 205.254 221.382 205.329 221.189 205.339C220.996 205.348 220.843 205.286 220.731 205.155C220.619 205.024 220.564 204.815 220.564 204.529C220.564 204.282 220.605 204.056 220.687 203.849C220.768 203.642 220.879 203.452 221.018 203.277C221.157 203.103 221.312 202.943 221.484 202.795C221.655 202.647 221.83 202.509 222.008 202.38C222.234 202.218 222.417 202.086 222.558 201.985C222.698 201.882 222.801 201.789 222.864 201.706C222.928 201.624 222.96 201.531 222.96 201.429V201.409C222.96 201.161 222.9 201.004 222.779 200.938C222.659 200.872 222.481 200.908 222.244 201.046C221.997 201.191 221.802 201.368 221.66 201.578C221.52 201.785 221.422 201.981 221.368 202.166L220.679 202.387C220.761 202.074 220.88 201.791 221.037 201.536C221.196 201.278 221.378 201.053 221.584 200.858C221.79 200.662 222.007 200.497 222.234 200.365C222.384 200.277 222.544 200.204 222.712 200.148C222.882 200.088 223.041 200.069 223.188 200.091C223.337 200.112 223.459 200.195 223.554 200.34C223.648 200.484 223.696 200.715 223.696 201.033V203.931L222.98 204.349V203.753L222.95 203.77C222.903 203.907 222.832 204.057 222.737 204.218C222.642 204.38 222.52 204.539 222.371 204.696C222.223 204.853 222.044 204.993 221.837 205.114ZM221.996 204.339C222.199 204.22 222.372 204.073 222.516 203.896C222.662 203.718 222.772 203.532 222.847 203.339C222.924 203.142 222.962 202.958 222.962 202.785V202.223C222.936 202.268 222.886 202.327 222.81 202.397C222.737 202.465 222.653 202.536 222.558 202.61C222.463 202.683 222.371 202.753 222.281 202.82C222.191 202.886 222.116 202.942 222.055 202.986C221.913 203.09 221.783 203.201 221.665 203.319C221.549 203.437 221.456 203.562 221.385 203.696C221.317 203.827 221.282 203.968 221.282 204.12C221.282 204.33 221.35 204.45 221.484 204.48C221.618 204.507 221.789 204.46 221.996 204.339ZM226.559 202.257V196.438L227.317 195.995V201.058L229.593 199.727V200.483L226.559 202.257ZM230.399 200.012V195.648L231.132 195.22V199.583L230.399 200.012ZM230.769 194.759C230.641 194.833 230.532 194.848 230.44 194.803C230.35 194.755 230.305 194.662 230.305 194.524C230.305 194.384 230.35 194.238 230.44 194.087C230.532 193.933 230.641 193.819 230.769 193.744C230.896 193.67 231.005 193.656 231.095 193.704C231.187 193.749 231.232 193.842 231.232 193.982C231.232 194.12 231.187 194.266 231.095 194.42C231.005 194.571 230.896 194.684 230.769 194.759ZM232.852 195.987V198.578L232.118 199.007V194.643L232.822 194.231V194.942L232.869 194.914C232.956 194.633 233.091 194.368 233.276 194.12C233.462 193.87 233.697 193.663 233.98 193.498C234.237 193.348 234.461 193.279 234.654 193.291C234.847 193.301 234.997 193.398 235.103 193.58C235.209 193.762 235.263 194.033 235.263 194.393V197.168L234.529 197.597V194.924C234.529 194.608 234.458 194.402 234.316 194.307C234.174 194.21 233.978 194.235 233.73 194.38C233.56 194.479 233.408 194.61 233.276 194.773C233.145 194.935 233.041 195.12 232.965 195.33C232.889 195.537 232.852 195.756 232.852 195.987ZM237.87 195.732C237.499 195.949 237.179 196.044 236.911 196.017C236.644 195.988 236.438 195.848 236.293 195.597C236.149 195.344 236.077 194.992 236.077 194.539C236.077 194.092 236.149 193.656 236.293 193.231C236.438 192.805 236.641 192.42 236.901 192.077C237.163 191.733 237.468 191.458 237.818 191.254C238.031 191.13 238.237 191.05 238.436 191.015C238.636 190.98 238.815 191.003 238.973 191.084C239.132 191.166 239.257 191.319 239.349 191.544C239.44 191.767 239.486 192.076 239.486 192.472V192.773L236.491 194.524V193.888L238.767 192.557C238.767 192.334 238.728 192.159 238.65 192.032C238.571 191.904 238.461 191.831 238.318 191.814C238.178 191.796 238.013 191.842 237.823 191.953C237.617 192.073 237.437 192.237 237.284 192.444C237.131 192.649 237.014 192.869 236.93 193.105C236.849 193.339 236.808 193.564 236.808 193.782V194.279C236.808 194.571 236.852 194.793 236.94 194.946C237.03 195.098 237.155 195.181 237.315 195.196C237.476 195.208 237.663 195.152 237.877 195.026C238.016 194.945 238.143 194.848 238.257 194.736C238.372 194.622 238.471 194.494 238.554 194.352C238.637 194.211 238.701 194.059 238.745 193.897L239.439 193.636C239.384 193.905 239.284 194.171 239.14 194.433C238.998 194.692 238.819 194.934 238.603 195.159C238.389 195.381 238.144 195.572 237.87 195.732Z" fill="#242424"/>
<path d="M366.29 88.8841V291.574C366.158 293.718 365.531 295.802 364.457 297.662C363.382 299.523 361.891 301.108 360.1 302.294L144.76 426.674C144.062 427.113 143.264 427.368 142.44 427.414C140.44 427.414 140.18 425.054 140.18 424.034V219.474L366.29 88.8841ZM367.91 86.0841L138.57 218.544V424.034C138.57 427.204 140.14 429.034 142.44 429.034C143.553 428.98 144.632 428.635 145.57 428.034L360.87 303.694C362.908 302.366 364.603 300.577 365.819 298.471C367.036 296.365 367.738 294.002 367.87 291.574V86.0841H367.91Z" fill="#E0E0E0"/>
<path d="M138.57 218.544V240.414L367.9 107.954L367.91 86.0841L138.57 218.544Z" fill="#1A1A1A"/>
<path d="M293.01 138.394V142.894C293.01 143.814 293.66 144.194 294.46 143.734L352.33 110.294V102.434L294.46 135.874C294.037 136.15 293.685 136.523 293.433 136.961C293.181 137.398 293.036 137.89 293.01 138.394Z" fill="#FAFAFA"/>
<path d="M359.95 98.0341C360.75 97.5741 361.4 97.9541 361.4 98.8741V103.384C361.372 103.887 361.226 104.376 360.975 104.812C360.723 105.248 360.372 105.619 359.95 105.894L352.33 110.294V102.434L359.95 98.0341Z" fill="#808080"/>
<path d="M359.13 104.684L358.25 104.274C358.401 103.902 358.505 103.512 358.56 103.114C358.654 102.749 358.65 102.366 358.551 102.003C358.451 101.64 358.257 101.309 357.99 101.044C357.8 100.901 357.574 100.813 357.337 100.792C357.1 100.771 356.862 100.817 356.65 100.924C356.007 101.289 355.458 101.801 355.05 102.418C354.642 103.035 354.385 103.739 354.3 104.474C354.208 104.838 354.211 105.22 354.309 105.582C354.407 105.945 354.597 106.276 354.86 106.544C355.023 106.671 355.216 106.753 355.42 106.784C355.689 106.811 355.961 106.77 356.21 106.664C356.97 106.279 357.584 105.658 357.96 104.894L358.84 105.304H358.94C359.023 105.32 359.11 105.305 359.182 105.261C359.255 105.217 359.308 105.147 359.332 105.066C359.356 104.984 359.348 104.897 359.311 104.821C359.273 104.745 359.209 104.685 359.13 104.654V104.684ZM355.95 106.034C355.849 106.095 355.733 106.127 355.615 106.127C355.497 106.127 355.381 106.095 355.28 106.034C355.121 105.836 355.011 105.604 354.959 105.355C354.906 105.107 354.914 104.849 354.98 104.604C355.056 103.991 355.27 103.404 355.604 102.884C355.938 102.365 356.384 101.928 356.91 101.604C357.045 101.544 357.193 101.52 357.34 101.534C357.425 101.542 357.506 101.577 357.57 101.634C357.722 101.826 357.829 102.05 357.881 102.289C357.933 102.528 357.929 102.776 357.87 103.014C357.796 103.629 357.585 104.219 357.252 104.742C356.92 105.264 356.475 105.706 355.95 106.034V106.034Z" fill="#FAFAFA"/>
<path d="M359.36 71.5141C358.09 70.7341 356.31 70.8141 354.36 71.9541L139 196.334C136.962 197.661 135.266 199.451 134.05 201.557C132.834 203.663 132.131 206.026 132 208.454V214.724L138.56 218.544L367.87 86.0841V79.8141C367.87 77.5941 367.09 76.0341 365.87 75.3041C364.65 74.5741 360.5 72.2141 359.36 71.5141Z" fill="#404040"/>
<path d="M138.57 212.264C138.702 209.836 139.404 207.472 140.62 205.367C141.837 203.261 143.532 201.471 145.57 200.144L360.87 75.7741C364.73 73.5441 367.87 75.3541 367.87 79.7741V86.0441L138.57 218.544V212.264Z" fill="#333333"/>
<path d="M365.95 75.3441C364.67 74.5541 362.89 74.6341 360.95 75.7741L145.57 200.144C143.5 201.432 141.796 203.229 140.62 205.364L134.05 201.564C135.238 199.419 136.96 197.617 139.05 196.334L354.34 71.9441C356.34 70.8141 358.09 70.7341 359.34 71.5141C360.59 72.2941 364.69 74.6141 365.87 75.2941L365.95 75.3441Z" fill="#808080"/>
<path d="M343.47 90.6841C342.759 91.1473 342.168 91.7718 341.744 92.5069C341.32 93.2419 341.075 94.0667 341.03 94.9141C341.03 96.4741 342.12 97.1041 343.47 96.3241C344.174 95.8564 344.758 95.2299 345.174 94.4951C345.591 93.7604 345.83 92.9379 345.87 92.0941C345.87 90.5341 344.87 89.9041 343.47 90.6841Z" fill="#FAFAFA"/>
<path d="M352.02 85.7541C351.309 86.2195 350.717 86.8459 350.293 87.5825C349.87 88.3192 349.625 89.1453 349.58 89.9941C349.58 91.5541 350.67 92.1841 352.02 91.4041C352.725 90.9436 353.312 90.3251 353.736 89.5977C354.159 88.8703 354.407 88.0541 354.46 87.2141C354.46 85.6141 353.37 84.9841 352.02 85.7541Z" fill="#FAFAFA"/>
<path d="M360.57 80.8341C359.859 81.2973 359.267 81.9219 358.843 82.6569C358.419 83.392 358.175 84.2167 358.13 85.0641C358.13 86.6241 359.22 87.2541 360.57 86.4741C361.286 86.0084 361.882 85.3795 362.308 84.6389C362.733 83.8984 362.978 83.0673 363.02 82.2141C363.02 80.6841 361.92 80.0541 360.57 80.8341Z" fill="#FAFAFA"/>
<path d="M145.97 426.904C142.33 429.004 139.38 427.294 139.38 423.094V240.874L194.07 209.294V399.124L145.97 426.904Z" fill="#F5F5F5"/>
<path d="M140.18 241.344L193.26 210.684V398.684L146.37 425.744C143.02 427.674 140.18 426.044 140.18 422.164V241.344ZM138.57 240.414V424.034C138.57 428.494 141.7 430.304 145.57 428.034L194.87 399.594V207.884L138.57 240.414Z" fill="#E0E0E0"/>
<path d="M138.57 218.544L132.01 214.724V236.624L138.57 240.414V218.544Z" fill="#242424"/>
<path d="M159.64 241.034L183.97 226.974C184.87 226.454 185.6 226.874 185.6 227.914V230.034C185.566 230.598 185.4 231.147 185.118 231.637C184.835 232.126 184.442 232.543 183.97 232.854L159.64 246.914C158.74 247.434 158.02 247.014 158.02 245.974V243.854C158.052 243.29 158.215 242.742 158.496 242.252C158.777 241.763 159.169 241.346 159.64 241.034Z" fill="#E0E0E0"/>
<path d="M152.93 246.794V248.904C152.899 249.468 152.737 250.017 152.455 250.507C152.174 250.997 151.781 251.414 151.31 251.724L149.47 252.784C148.58 253.304 147.85 252.884 147.85 251.844V249.724C147.881 249.162 148.044 248.614 148.325 248.126C148.607 247.638 148.999 247.223 149.47 246.914L151.31 245.854C152.2 245.334 152.93 245.754 152.93 246.794Z" fill="#0084FF"/>
<path d="M159.64 252.734L183.97 238.674C184.87 238.154 185.6 238.574 185.6 239.614V241.734C185.566 242.297 185.402 242.845 185.118 243.333C184.835 243.821 184.442 244.236 183.97 244.544L159.64 258.614C158.74 259.124 158.02 258.704 158.02 257.674V255.554C158.05 254.99 158.213 254.441 158.494 253.951C158.775 253.462 159.168 253.045 159.64 252.734V252.734Z" fill="#E0E0E0"/>
<path d="M152.93 258.494V260.604C152.899 261.168 152.737 261.717 152.455 262.207C152.174 262.697 151.781 263.114 151.31 263.424L149.47 264.484C148.58 265.004 147.85 264.584 147.85 263.544V261.424C147.881 260.862 148.044 260.314 148.325 259.826C148.607 259.338 148.999 258.923 149.47 258.614L151.31 257.554C152.2 257.034 152.93 257.454 152.93 258.494Z" fill="#0084FF"/>
<path d="M159.64 264.434L183.97 250.374C184.87 249.854 185.6 250.274 185.6 251.314V253.434C185.562 253.992 185.395 254.534 185.112 255.016C184.829 255.498 184.438 255.909 183.97 256.214L159.64 270.314C158.74 270.824 158.02 270.404 158.02 269.374V267.214C158.056 266.657 158.222 266.116 158.503 265.634C158.784 265.151 159.173 264.741 159.64 264.434V264.434Z" fill="#E0E0E0"/>
<path d="M152.93 270.214V272.324C152.899 272.888 152.737 273.437 152.455 273.927C152.174 274.417 151.781 274.833 151.31 275.144L149.47 276.214C148.58 276.734 147.85 276.314 147.85 275.274V273.154C147.879 272.591 148.042 272.043 148.323 271.555C148.605 271.067 148.997 270.652 149.47 270.344L151.31 269.284C152.2 268.734 152.93 269.154 152.93 270.214Z" fill="#0084FF"/>
<path d="M159.45 275.177L183.78 261.177C184.68 260.657 185.41 261.077 185.41 262.117V264.177C185.378 264.742 185.213 265.291 184.93 265.781C184.647 266.271 184.253 266.687 183.78 266.997L159.45 281.057C158.55 281.577 157.83 281.157 157.83 280.117V278.007C157.859 277.441 158.021 276.89 158.302 276.399C158.584 275.907 158.977 275.489 159.45 275.177V275.177Z" fill="#E0E0E0"/>
<path d="M152.74 280.947V283.067C152.709 283.63 152.546 284.177 152.265 284.665C151.983 285.153 151.591 285.568 151.12 285.877L149.28 286.937C148.39 287.457 147.66 287.037 147.66 285.997V283.887C147.691 283.323 147.853 282.774 148.135 282.284C148.416 281.795 148.808 281.378 149.28 281.067L151.12 280.007C152.01 279.487 152.74 279.907 152.74 280.947Z" fill="#0084FF"/>
<path d="M289.332 307.437C325.258 286.696 354.381 267.918 354.381 265.496C354.381 263.074 325.258 277.925 289.332 298.667C253.407 319.408 224.284 338.186 224.284 340.608C224.284 343.03 253.407 328.179 289.332 307.437Z" fill="#F5F5F5"/>
<path d="M270.048 315.34C305.973 294.599 335.097 275.821 335.097 273.399C335.097 270.977 305.973 285.828 270.048 306.569C234.123 327.311 205 346.088 205 348.51C205 350.932 234.123 336.081 270.048 315.34Z" fill="#F5F5F5"/>
<path d="M275.641 238.875V210.824L259.843 219.945V247.996C259.843 260.513 257.76 274.117 253.707 288.066L281.778 271.859C277.725 262.59 275.642 251.392 275.641 238.875V238.875Z" fill="#0084FF"/>
<path opacity="0.4" d="M281.781 271.861L253.707 288.07C257.76 274.118 259.843 260.512 259.843 247.992V219.949L275.641 210.828V238.871C275.639 251.393 277.723 262.594 281.781 271.861V271.861Z" fill="white"/>
<path opacity="0.4" d="M271.669 277.699L253.707 288.07C257.76 274.118 259.843 260.512 259.843 247.992V219.949L267.741 215.389V243.433C267.745 249.646 268.081 255.662 268.747 261.446C269.386 267.124 270.362 272.553 271.669 277.699V277.699Z" fill="white"/>
<path d="M276.058 209.22L259.428 218.822V220.956L276.058 211.355V209.22Z" fill="#0084FF"/>
<path opacity="0.2" d="M268.432 213.623L259.428 218.822V220.956L268.432 215.757V213.623Z" fill="white"/>
<path opacity="0.2" d="M275.642 215.55L259.844 224.671V225.345L275.642 216.224V215.55Z" fill="black"/>
<path opacity="0.2" d="M275.642 221.76L259.844 230.881V231.555L275.642 222.434V221.76Z" fill="black"/>
<path opacity="0.2" d="M275.642 227.974L259.844 237.095V237.769L275.642 228.648V227.974Z" fill="black"/>
<path opacity="0.2" d="M275.642 234.188L259.844 243.309V243.987L275.642 234.866V234.188Z" fill="black"/>
<path opacity="0.2" d="M275.661 241.064L259.819 250.21C259.819 249.989 259.819 249.765 259.819 249.536L275.638 240.403C275.651 240.624 275.658 240.845 275.661 241.064Z" fill="black"/>
<path opacity="0.2" d="M275.954 247.113L259.515 256.604C259.515 256.375 259.548 256.131 259.562 255.899L275.893 246.47C275.923 246.677 275.937 246.894 275.954 247.113Z" fill="black"/>
<path opacity="0.2" d="M276.597 252.951L258.887 263.176C258.92 262.932 258.947 262.692 258.974 262.451L276.503 252.331C276.537 252.536 276.567 252.743 276.597 252.951Z" fill="black"/>
<path opacity="0.2" d="M277.587 258.605L257.897 269.973C257.938 269.725 257.978 269.477 258.022 269.223L277.48 257.989C277.51 258.188 277.544 258.394 277.587 258.605Z" fill="black"/>
<path opacity="0.2" d="M278.953 264.015L256.532 276.959C256.589 276.702 256.646 276.44 256.7 276.185L278.785 263.434C278.852 263.627 278.896 263.827 278.953 264.015Z" fill="black"/>
<path opacity="0.2" d="M280.7 269.223L254.787 284.184L254.995 283.39L280.492 268.669L280.7 269.223Z" fill="black"/>
<path d="M248.803 254.371V226.32L233.004 235.441V263.492C233.004 276.009 230.921 289.612 226.868 303.562L254.939 287.355C250.886 278.085 248.803 266.888 248.803 254.371V254.371Z" fill="#0084FF"/>
<path opacity="0.4" d="M254.942 287.357L226.868 303.565C230.921 289.613 233.004 276.008 233.004 263.488V235.445L248.803 226.323V254.367C248.8 266.889 250.884 278.089 254.942 287.357V287.357Z" fill="white"/>
<path opacity="0.4" d="M244.83 293.195L226.868 303.565C230.921 289.613 233.004 276.008 233.004 263.488V235.445L240.902 230.885V258.928C240.906 265.142 241.242 271.158 241.908 276.942C242.547 282.62 243.523 288.049 244.83 293.195V293.195Z" fill="white"/>
<path d="M249.218 224.716L232.588 234.317V236.452L249.218 226.85V224.716Z" fill="#0084FF"/>
<path opacity="0.2" d="M241.592 229.118L232.588 234.317V236.452L241.592 231.253V229.118Z" fill="white"/>
<path opacity="0.2" d="M248.802 231.046L233.004 240.167V240.841L248.802 231.72V231.046Z" fill="black"/>
<path opacity="0.2" d="M248.802 237.256L233.004 246.377V247.051L248.802 237.93V237.256Z" fill="black"/>
<path opacity="0.2" d="M248.802 243.469L233.004 252.591V253.265L248.802 244.144V243.469Z" fill="black"/>
<path opacity="0.2" d="M248.802 249.683L233.004 258.804V259.482L248.802 250.361V249.683Z" fill="black"/>
<path opacity="0.2" d="M248.822 256.559L232.98 265.706C232.98 265.485 232.98 265.26 232.98 265.031L248.799 255.899C248.812 256.12 248.819 256.34 248.822 256.559Z" fill="black"/>
<path opacity="0.2" d="M249.114 262.608L232.675 272.099C232.675 271.871 232.708 271.627 232.722 271.394L249.053 261.965C249.084 262.173 249.097 262.389 249.114 262.608Z" fill="black"/>
<path opacity="0.2" d="M249.758 268.446L232.048 278.672C232.081 278.428 232.108 278.187 232.135 277.947L249.664 267.827C249.698 268.032 249.728 268.239 249.758 268.446Z" fill="black"/>
<path opacity="0.2" d="M250.748 274.1L231.058 285.468C231.098 285.221 231.138 284.973 231.182 284.719L250.64 273.485C250.67 273.684 250.704 273.889 250.748 274.1Z" fill="black"/>
<path opacity="0.2" d="M252.113 279.51L229.692 292.455C229.749 292.197 229.806 291.936 229.86 291.68L251.945 278.929C252.013 279.123 252.056 279.322 252.113 279.51Z" fill="black"/>
<path opacity="0.2" d="M253.862 284.719L227.948 299.68L228.156 298.886L253.654 284.165L253.862 284.719Z" fill="black"/>
<path d="M254.925 277.209L243.005 284.091V291.212L254.925 284.33V277.209Z" fill="#0084FF"/>
<path d="M268.18 269.556L256.26 276.438V283.559L268.18 276.677V269.556Z" fill="#0084FF"/>
<path d="M241.669 284.862L229.749 291.744V298.864L241.669 291.982V284.862Z" fill="#0084FF"/>
<g opacity="0.2">
<path opacity="0.2" d="M254.924 277.209L243.004 284.091V291.211L254.924 284.329V277.209Z" fill="black"/>
<path opacity="0.2" d="M268.18 269.556L256.26 276.438V283.558L268.18 276.676V269.556Z" fill="black"/>
<path opacity="0.2" d="M241.669 284.862L229.749 291.744V298.864L241.669 291.982V284.862Z" fill="black"/>
</g>
<path d="M256.277 283.545V276.429L243.015 291.202V284.085L229.753 298.859V291.742L216.487 306.517V340.887L283.153 302.397V268.028L256.277 283.545Z" fill="#0084FF"/>
<path opacity="0.2" d="M283.156 268.026L263.778 279.214V313.583L283.156 302.395V268.026Z" fill="black"/>
<path d="M224.7 330.512L227.005 329.182V308.937C227.005 308.663 227.051 308.366 227.141 308.061C227.232 307.756 227.364 307.449 227.532 307.159C227.699 306.869 227.898 306.601 228.116 306.369C228.335 306.138 228.57 305.949 228.807 305.812L230.286 304.958C230.591 304.782 230.884 304.473 231.1 304.099C231.316 303.725 231.437 303.317 231.437 302.965V302.965C231.437 302.612 231.316 302.344 231.1 302.22C230.884 302.095 230.591 302.124 230.286 302.3L228.807 303.155C227.718 303.783 226.673 304.886 225.903 306.22C225.133 307.554 224.7 309.01 224.7 310.267V330.512Z" fill="#0084FF"/>
<g opacity="0.3">
<path opacity="0.3" d="M224.7 330.512L227.005 329.182V308.937C227.005 308.663 227.051 308.366 227.141 308.061C227.232 307.756 227.364 307.449 227.532 307.159C227.699 306.869 227.898 306.601 228.116 306.369C228.335 306.138 228.57 305.949 228.807 305.812L230.286 304.958C230.591 304.782 230.884 304.473 231.1 304.099C231.316 303.725 231.437 303.317 231.437 302.965V302.965C231.437 302.612 231.316 302.344 231.1 302.22C230.884 302.095 230.591 302.124 230.286 302.3L228.807 303.155C227.718 303.783 226.673 304.886 225.903 306.22C225.133 307.554 224.7 309.01 224.7 310.267V330.512Z" fill="white"/>
</g>
<path d="M217.99 334.386L220.295 333.055V312.81C220.295 312.537 220.341 312.24 220.431 311.935C220.522 311.63 220.654 311.323 220.822 311.033C220.989 310.743 221.188 310.474 221.406 310.243C221.625 310.012 221.86 309.823 222.097 309.686L223.576 308.832C223.881 308.656 224.174 308.347 224.39 307.973C224.606 307.599 224.727 307.191 224.727 306.839V306.839C224.727 306.486 224.606 306.218 224.39 306.094C224.174 305.969 223.881 305.998 223.576 306.174L222.097 307.029C221.008 307.657 219.963 308.76 219.193 310.094C218.423 311.428 217.99 312.884 217.99 314.141V334.386Z" fill="#0084FF"/>
<g opacity="0.3">
<path opacity="0.3" d="M217.99 334.386L220.295 333.055V312.81C220.295 312.537 220.341 312.24 220.431 311.935C220.522 311.63 220.654 311.323 220.822 311.033C220.989 310.743 221.188 310.474 221.406 310.243C221.625 310.012 221.86 309.823 222.097 309.686L223.576 308.832C223.881 308.656 224.174 308.347 224.39 307.973C224.606 307.599 224.727 307.191 224.727 306.839V306.839C224.727 306.486 224.606 306.218 224.39 306.094C224.174 305.969 223.881 305.998 223.576 306.174L222.097 307.029C221.008 307.657 219.963 308.76 219.193 310.094C218.423 311.428 217.99 312.884 217.99 314.141V334.386Z" fill="white"/>
</g>
<path d="M229.749 322.778V333.23L211.616 343.699V338.473L215.307 331.117L229.749 322.778Z" fill="#0084FF"/>
<path opacity="0.4" d="M229.749 322.778V333.23L211.616 343.699V338.473L215.307 331.117L229.749 322.778Z" fill="white"/>
<path opacity="0.2" d="M229.75 322.778V333.23L225.036 335.951V330.725L228.727 323.369L229.75 322.778Z" fill="black"/>
<path opacity="0.4" d="M211.616 338.473L225.036 330.726L228.726 323.369L215.307 331.117L211.616 338.473Z" fill="white"/>
<path opacity="0.2" d="M236.916 302.301L234.812 305.607V330.307L243.676 325.19V300.489V298.398L236.916 302.301Z" fill="white"/>
<path opacity="0.2" d="M241.576 301.702V326.402L243.676 325.19V300.49V298.398L241.576 301.702Z" fill="black"/>
<path opacity="0.4" d="M234.812 305.607L241.576 301.702L243.676 298.398L236.916 302.301L234.812 305.607Z" fill="white"/>
<path opacity="0.2" d="M250.336 294.553L248.235 297.857V322.557L257.096 317.442V292.742V290.65L250.336 294.553Z" fill="white"/>
<path opacity="0.2" d="M254.995 293.954V318.654L257.095 317.442V292.742V290.65L254.995 293.954Z" fill="black"/>
<path opacity="0.4" d="M248.235 297.857L254.995 293.954L257.096 290.65L250.336 294.553L248.235 297.857Z" fill="white"/>
<path d="M251.854 296.654V315.474C251.854 315.983 251.768 316.537 251.599 317.104C251.43 317.671 251.183 318.241 250.872 318.781C250.56 319.32 250.19 319.819 249.783 320.249C249.376 320.678 248.94 321.03 248.499 321.285L236.811 328.033C235.921 328.547 235.068 328.631 234.439 328.268C233.81 327.905 233.456 327.124 233.456 326.096V307.277C233.456 306.249 233.81 305.06 234.439 303.97C235.068 302.88 235.921 301.98 236.811 301.466L248.489 294.723C248.931 294.467 249.368 294.314 249.776 294.272C250.185 294.23 250.556 294.301 250.868 294.48C251.181 294.66 251.429 294.944 251.598 295.317C251.767 295.69 251.854 296.145 251.854 296.654V296.654Z" fill="#263238"/>
<path opacity="0.1" d="M245.48 300.335V319.154C245.48 320.182 245.127 321.371 244.497 322.461C243.868 323.551 243.015 324.451 242.125 324.965L236.811 328.033C235.921 328.547 235.068 328.631 234.439 328.268C233.81 327.905 233.456 327.124 233.456 326.096V307.277C233.456 306.249 233.81 305.06 234.439 303.97C235.068 302.88 235.921 301.98 236.811 301.466L242.115 298.404C242.556 298.147 242.994 297.994 243.402 297.952C243.81 297.91 244.181 297.981 244.494 298.161C244.806 298.34 245.054 298.624 245.224 298.998C245.393 299.371 245.48 299.825 245.48 300.335V300.335Z" fill="white"/>
<path d="M251.163 320.142L234.143 329.968C234.054 330.02 233.969 330.028 233.906 329.992C233.843 329.955 233.808 329.877 233.808 329.774C233.808 329.672 233.843 329.553 233.906 329.444C233.969 329.335 234.054 329.245 234.143 329.193L251.163 319.367C251.252 319.316 251.337 319.307 251.4 319.344C251.463 319.38 251.498 319.458 251.498 319.561C251.498 319.664 251.463 319.783 251.4 319.892C251.337 320.001 251.252 320.091 251.163 320.142Z" fill="#263238"/>
<path d="M250.438 324.771C250.354 324.82 250.272 324.83 250.21 324.798L246.882 323.121V326.437C246.882 326.513 246.863 326.599 246.826 326.683C246.79 326.767 246.738 326.847 246.677 326.912C246.617 326.976 246.551 327.023 246.487 327.047C246.422 327.071 246.363 327.071 246.315 327.047L242.987 325.37V328.686C242.987 328.761 242.968 328.846 242.933 328.93C242.897 329.014 242.846 329.094 242.786 329.158C242.726 329.223 242.659 329.27 242.595 329.294C242.531 329.318 242.471 329.318 242.423 329.294L239.095 327.617V330.933C239.096 331.008 239.077 331.093 239.041 331.177C239.005 331.261 238.954 331.34 238.894 331.405C238.834 331.471 238.767 331.519 238.702 331.543C238.637 331.568 238.576 331.568 238.528 331.543L235.2 329.865V333.182C235.2 333.284 235.165 333.403 235.102 333.512C235.039 333.621 234.954 333.711 234.865 333.763C234.776 333.814 234.69 333.822 234.628 333.786C234.565 333.75 234.529 333.672 234.529 333.569V329.358C234.529 329.282 234.549 329.196 234.585 329.112C234.622 329.028 234.673 328.948 234.734 328.883C234.794 328.819 234.86 328.772 234.925 328.748C234.989 328.724 235.049 328.724 235.096 328.748L238.424 330.414V327.098C238.424 327.022 238.443 326.937 238.479 326.853C238.515 326.769 238.566 326.69 238.626 326.625C238.686 326.56 238.752 326.513 238.816 326.489C238.881 326.465 238.94 326.465 238.988 326.489L242.316 328.167V324.851C242.316 324.775 242.335 324.69 242.371 324.606C242.406 324.522 242.457 324.443 242.517 324.378C242.578 324.312 242.645 324.264 242.71 324.24C242.775 324.216 242.835 324.216 242.883 324.241L246.211 325.918V322.602C246.211 322.526 246.23 322.441 246.266 322.357C246.301 322.273 246.352 322.194 246.412 322.129C246.472 322.065 246.539 322.018 246.603 321.993C246.667 321.969 246.727 321.969 246.775 321.994L250.103 323.671V320.355C250.103 320.252 250.138 320.133 250.201 320.024C250.264 319.915 250.349 319.825 250.438 319.774C250.527 319.723 250.613 319.714 250.675 319.75C250.738 319.787 250.774 319.865 250.774 319.968V324.179C250.774 324.254 250.755 324.339 250.719 324.423C250.684 324.507 250.632 324.586 250.572 324.651C250.53 324.699 250.485 324.74 250.438 324.771V324.771Z" fill="#263238"/>
<path d="M247.651 295.587L237.653 301.359C237.564 301.411 237.479 301.419 237.416 301.383C237.353 301.346 237.317 301.268 237.317 301.165C237.317 301.063 237.353 300.944 237.416 300.835C237.479 300.726 237.564 300.636 237.653 300.584L247.651 294.812C247.739 294.761 247.825 294.752 247.888 294.789C247.951 294.825 247.986 294.903 247.986 295.006C247.986 295.109 247.951 295.228 247.888 295.337C247.825 295.446 247.739 295.536 247.651 295.587Z" fill="#263238"/>
<path d="M246.225 294.531L239.083 298.655C238.994 298.707 238.908 298.715 238.845 298.679C238.782 298.642 238.747 298.564 238.747 298.461C238.747 298.359 238.782 298.24 238.845 298.131C238.908 298.022 238.994 297.932 239.083 297.88L246.225 293.757C246.314 293.705 246.399 293.697 246.462 293.733C246.525 293.769 246.561 293.848 246.561 293.95C246.561 294.053 246.525 294.172 246.462 294.281C246.399 294.39 246.314 294.48 246.225 294.531Z" fill="#263238"/>
<path d="M242.652 298.473C242.563 298.524 242.478 298.533 242.415 298.497C242.352 298.46 242.316 298.382 242.316 298.279V296.401C242.316 296.298 242.352 296.179 242.415 296.07C242.478 295.961 242.563 295.871 242.652 295.819C242.741 295.768 242.826 295.76 242.889 295.796C242.952 295.832 242.987 295.91 242.987 296.013V297.892C242.987 297.995 242.952 298.114 242.889 298.223C242.826 298.332 242.741 298.422 242.652 298.473Z" fill="#263238"/>
<path d="M240.605 299.655C240.536 299.695 240.468 299.708 240.412 299.695C240.355 299.681 240.313 299.64 240.29 299.577L239.713 298.032C239.698 297.992 239.692 297.945 239.694 297.893C239.696 297.84 239.707 297.784 239.726 297.727C239.745 297.67 239.772 297.613 239.805 297.56C239.837 297.507 239.876 297.459 239.917 297.418C239.959 297.377 240.003 297.344 240.047 297.321C240.091 297.298 240.135 297.286 240.174 297.285C240.214 297.284 240.25 297.294 240.28 297.315C240.309 297.335 240.332 297.366 240.347 297.406L240.92 298.958C240.949 299.037 240.944 299.146 240.906 299.261C240.868 299.375 240.799 299.485 240.716 299.568C240.68 299.603 240.643 299.633 240.605 299.655Z" fill="#263238"/>
<path d="M244.715 297.282C244.676 297.304 244.638 297.319 244.601 297.325C244.518 297.339 244.449 297.307 244.411 297.237C244.373 297.167 244.367 297.064 244.396 296.951L244.974 294.735C244.986 294.677 245.008 294.617 245.037 294.559C245.066 294.501 245.102 294.447 245.143 294.399C245.183 294.351 245.228 294.311 245.274 294.281C245.32 294.251 245.366 294.232 245.409 294.225C245.452 294.218 245.492 294.223 245.525 294.24C245.559 294.256 245.585 294.285 245.604 294.323C245.622 294.361 245.632 294.408 245.632 294.46C245.632 294.513 245.622 294.571 245.604 294.63L245.031 296.84C245.008 296.929 244.965 297.019 244.909 297.098C244.852 297.178 244.785 297.242 244.715 297.282Z" fill="#263238"/>
<path d="M275.339 283.096V301.915C275.339 302.942 274.985 304.132 274.356 305.222C273.727 306.311 272.874 307.212 271.984 307.726L260.295 314.474C259.406 314.988 258.552 315.072 257.923 314.709C257.294 314.346 256.94 313.565 256.94 312.537V293.718C256.94 292.69 257.294 291.501 257.923 290.411C258.552 289.321 259.406 288.421 260.295 287.907L271.974 281.164C272.415 280.908 272.853 280.755 273.261 280.713C273.669 280.671 274.04 280.742 274.353 280.922C274.665 281.101 274.913 281.385 275.082 281.758C275.252 282.131 275.339 282.586 275.339 283.096V283.096Z" fill="#263238"/>
<path opacity="0.1" d="M268.964 286.776V305.595C268.964 306.623 268.611 307.812 267.982 308.902C267.353 309.992 266.499 310.892 265.61 311.406L260.295 314.474C259.406 314.988 258.552 315.072 257.923 314.709C257.294 314.346 256.94 313.565 256.94 312.537V293.718C256.94 292.69 257.294 291.501 257.923 290.411C258.552 289.321 259.406 288.421 260.295 287.907L265.599 284.845C266.041 284.588 266.478 284.435 266.886 284.393C267.295 284.351 267.666 284.422 267.978 284.602C268.291 284.781 268.539 285.066 268.708 285.439C268.877 285.812 268.964 286.266 268.964 286.776V286.776Z" fill="white"/>
<path d="M274.647 306.583L257.627 316.409C257.539 316.461 257.453 316.469 257.39 316.433C257.327 316.396 257.292 316.318 257.292 316.216C257.292 316.113 257.327 315.994 257.39 315.885C257.453 315.776 257.539 315.686 257.627 315.634L274.647 305.808C274.736 305.757 274.821 305.748 274.884 305.785C274.947 305.821 274.982 305.899 274.982 306.002C274.982 306.105 274.947 306.224 274.884 306.333C274.821 306.442 274.736 306.532 274.647 306.583Z" fill="#263238"/>
<path d="M273.923 311.212C273.838 311.261 273.756 311.271 273.695 311.24L270.366 309.562V312.878C270.366 312.954 270.347 313.04 270.311 313.124C270.274 313.209 270.222 313.288 270.162 313.353C270.102 313.417 270.035 313.464 269.971 313.488C269.907 313.513 269.847 313.513 269.799 313.488L266.471 311.811V315.127C266.472 315.202 266.453 315.287 266.417 315.371C266.381 315.455 266.33 315.535 266.27 315.6C266.21 315.664 266.144 315.711 266.079 315.735C266.015 315.759 265.955 315.759 265.908 315.735L262.58 314.058V317.374C262.58 317.449 262.561 317.534 262.525 317.618C262.489 317.702 262.438 317.782 262.378 317.846C262.318 317.912 262.251 317.96 262.186 317.985C262.121 318.009 262.061 318.009 262.013 317.984L258.685 316.307V319.623C258.685 319.725 258.649 319.844 258.586 319.953C258.523 320.062 258.438 320.152 258.349 320.204C258.26 320.255 258.175 320.264 258.112 320.227C258.049 320.191 258.014 320.113 258.014 320.01V315.799C258.014 315.723 258.033 315.637 258.07 315.553C258.106 315.469 258.158 315.389 258.218 315.325C258.278 315.26 258.345 315.213 258.409 315.189C258.473 315.165 258.533 315.165 258.581 315.189L261.909 316.855V313.539C261.908 313.463 261.927 313.378 261.963 313.294C261.999 313.21 262.05 313.131 262.11 313.066C262.17 313.002 262.236 312.954 262.301 312.93C262.365 312.906 262.425 312.906 262.472 312.93L265.8 314.608V311.292C265.8 311.216 265.819 311.131 265.855 311.047C265.891 310.963 265.942 310.884 266.002 310.819C266.062 310.754 266.129 310.706 266.194 310.681C266.259 310.657 266.319 310.657 266.367 310.682L269.695 312.359V309.043C269.695 308.968 269.714 308.883 269.75 308.799C269.786 308.715 269.837 308.635 269.897 308.57C269.957 308.506 270.023 308.459 270.087 308.435C270.152 308.411 270.211 308.411 270.259 308.435L273.587 310.112V306.796C273.587 306.693 273.622 306.574 273.685 306.465C273.748 306.357 273.834 306.266 273.923 306.215C274.012 306.164 274.097 306.155 274.16 306.192C274.223 306.228 274.258 306.306 274.258 306.409V310.62C274.258 310.695 274.239 310.78 274.204 310.864C274.168 310.948 274.117 311.027 274.057 311.092C274.015 311.14 273.969 311.181 273.923 311.212V311.212Z" fill="#263238"/>
<path d="M271.135 282.028L261.137 287.8C261.048 287.852 260.963 287.86 260.9 287.824C260.837 287.787 260.802 287.709 260.802 287.607C260.802 287.504 260.837 287.385 260.9 287.276C260.963 287.167 261.048 287.077 261.137 287.026L271.135 281.253C271.224 281.202 271.309 281.194 271.372 281.23C271.435 281.266 271.47 281.344 271.47 281.447C271.47 281.55 271.435 281.669 271.372 281.778C271.309 281.887 271.224 281.977 271.135 282.028Z" fill="#263238"/>
<path d="M269.71 280.973L262.567 285.096C262.478 285.148 262.393 285.156 262.33 285.12C262.267 285.084 262.231 285.005 262.231 284.903C262.231 284.8 262.267 284.681 262.33 284.572C262.393 284.463 262.478 284.373 262.567 284.322L269.71 280.198C269.799 280.146 269.884 280.138 269.947 280.174C270.01 280.211 270.045 280.289 270.045 280.391C270.045 280.494 270.01 280.613 269.947 280.722C269.884 280.831 269.799 280.921 269.71 280.973Z" fill="#263238"/>
<path d="M266.136 284.914C266.047 284.966 265.962 284.974 265.899 284.938C265.836 284.902 265.801 284.823 265.801 284.721V282.842C265.801 282.739 265.836 282.62 265.899 282.511C265.962 282.402 266.047 282.312 266.136 282.261C266.225 282.209 266.311 282.201 266.374 282.237C266.436 282.274 266.472 282.352 266.472 282.454V284.333C266.472 284.436 266.436 284.555 266.374 284.664C266.311 284.773 266.225 284.863 266.136 284.914Z" fill="#263238"/>
<path d="M264.09 286.096C264.021 286.136 263.954 286.149 263.897 286.136C263.841 286.122 263.798 286.081 263.775 286.018L263.198 284.473C263.168 284.393 263.173 284.283 263.211 284.168C263.25 284.053 263.319 283.942 263.403 283.859C263.487 283.776 263.579 283.728 263.66 283.726C263.74 283.724 263.802 283.767 263.832 283.847L264.406 285.399C264.435 285.478 264.43 285.587 264.391 285.702C264.353 285.816 264.285 285.926 264.201 286.009C264.166 286.044 264.128 286.074 264.09 286.096Z" fill="#263238"/>
<path d="M268.2 283.723C268.161 283.745 268.122 283.76 268.085 283.766C268.002 283.78 267.934 283.748 267.895 283.678C267.857 283.608 267.852 283.505 267.881 283.392L268.458 281.176C268.47 281.118 268.492 281.058 268.521 281C268.55 280.942 268.586 280.888 268.627 280.84C268.668 280.792 268.712 280.752 268.758 280.722C268.804 280.692 268.85 280.673 268.893 280.666C268.936 280.659 268.976 280.664 269.009 280.681C269.043 280.697 269.07 280.726 269.088 280.764C269.106 280.802 269.116 280.849 269.116 280.902C269.116 280.954 269.107 281.012 269.089 281.071L268.515 283.281C268.492 283.37 268.449 283.46 268.393 283.54C268.336 283.619 268.269 283.683 268.2 283.723Z" fill="#263238"/>
<path d="M322.486 218.98L286.605 239.696V258.547L322.486 237.831V218.98Z" fill="#0084FF"/>
<path opacity="0.2" d="M322.486 218.98L286.605 239.696V258.547L322.486 237.831V218.98Z" fill="black"/>
<path opacity="0.2" d="M322.486 218.98L306.161 228.406V247.256L322.486 237.831V218.98Z" fill="black"/>
<path opacity="0.2" d="M313.062 227.873L286.605 243.148V249.121L313.062 233.846V227.873Z" fill="white"/>
<path opacity="0.2" d="M320.715 223.455L316.136 226.099V240.606L320.715 237.962V223.455Z" fill="black"/>
<path opacity="0.2" d="M320.249 224.235L316.136 226.61V240.606L320.249 238.232V224.235Z" fill="black"/>
<path opacity="0.2" d="M296.358 238.028L294.07 239.349V244.812L296.358 243.491V238.028Z" fill="white"/>
<path opacity="0.2" d="M298.878 236.574L296.59 237.895V243.357L298.878 242.036V236.574Z" fill="white"/>
<path opacity="0.2" d="M293.835 239.485L291.547 240.806V246.268L293.835 244.947V239.485Z" fill="white"/>
<path opacity="0.2" d="M291.315 240.939L289.027 242.26V247.723L291.315 246.402V240.939Z" fill="white"/>
<path opacity="0.2" d="M301.397 235.119L299.109 236.44V241.902L301.397 240.581V235.119Z" fill="white"/>
<path opacity="0.2" d="M312.619 228.64L310.583 229.816V235.278L312.619 234.102V228.64Z" fill="white"/>
<path opacity="0.2" d="M288.796 242.394L286.605 243.659V249.121L288.796 247.856V242.394Z" fill="white"/>
<path opacity="0.2" d="M303.917 233.664L301.629 234.985V240.448L303.917 239.127V233.664Z" fill="white"/>
<path opacity="0.2" d="M308.097 231.251L304.151 233.529V238.991L308.097 236.713V231.251Z" fill="white"/>
<path opacity="0.2" d="M310.351 229.949L308.328 231.117V236.579L310.351 235.411V229.949Z" fill="white"/>
<path d="M324.365 216.238L285.327 238.776V241.306L324.365 218.767V216.238Z" fill="#0084FF"/>
<path opacity="0.2" d="M324.365 216.238L307.229 226.132V228.661L324.365 218.767V216.238Z" fill="black"/>
<path d="M323.704 235.706L323.033 236.093V231.057C323.034 230.575 323.2 230.017 323.495 229.506C323.79 228.995 324.189 228.571 324.607 228.328L339.14 219.937C339.558 219.697 339.959 219.658 340.254 219.828C340.55 219.999 340.716 220.366 340.717 220.848V225.372L340.046 225.76V221.235C340.046 220.958 339.951 220.747 339.781 220.649C339.611 220.55 339.38 220.573 339.14 220.712L324.607 229.103C324.367 229.242 324.137 229.485 323.968 229.779C323.799 230.073 323.704 230.393 323.704 230.67V235.706Z" fill="#263238"/>
<path d="M325.596 228.144L324.925 228.531V234.997L325.596 234.61V228.144Z" fill="#263238"/>
<path d="M327.485 227.054L326.814 227.441V233.906L327.485 233.519V227.054Z" fill="#263238"/>
<path d="M329.374 225.963L328.703 226.35V232.816L329.374 232.429V225.963Z" fill="#263238"/>
<path d="M331.266 224.871L330.595 225.258V231.723L331.266 231.336V224.871Z" fill="#263238"/>
<path d="M333.155 223.78L332.484 224.167V230.633L333.155 230.246V223.78Z" fill="#263238"/>
<path d="M335.047 222.688L334.376 223.075V229.541L335.047 229.153V222.688Z" fill="#263238"/>
<path d="M336.936 221.597L336.265 221.984V228.45L336.936 228.063V221.597Z" fill="#263238"/>
<path d="M338.824 220.507L338.153 220.894V227.36L338.824 226.972V220.507Z" fill="#263238"/>
<path d="M340.382 225.841L281.426 259.879V306.494L340.382 272.456V225.841Z" fill="#0084FF"/>
<path d="M290.145 275.842L285.327 278.623V289.261L290.145 286.479V275.842Z" fill="#0084FF"/>
<path opacity="0.2" d="M290.145 275.842L285.327 278.623V289.261L290.145 286.479V275.842Z" fill="white"/>
<path d="M297.446 271.627L292.628 274.408V285.046L297.446 282.265V271.627Z" fill="#0084FF"/>
<path opacity="0.2" d="M297.446 271.627L292.628 274.408V285.046L297.446 282.265V271.627Z" fill="white"/>
<path d="M304.745 267.412L299.928 270.193V280.831L304.745 278.05V267.412Z" fill="#0084FF"/>
<path opacity="0.2" d="M304.745 267.412L299.928 270.193V280.831L304.745 278.05V267.412Z" fill="white"/>
<path d="M312.046 263.197L307.229 265.979V276.616L312.046 273.835V263.197Z" fill="#0084FF"/>
<path opacity="0.2" d="M312.046 263.197L307.229 265.979V276.616L312.046 273.835V263.197Z" fill="white"/>
<path d="M319.343 258.984L314.525 261.766V272.403L319.343 269.622V258.984Z" fill="#0084FF"/>
<path opacity="0.2" d="M319.343 258.984L314.525 261.766V272.403L319.343 269.622V258.984Z" fill="white"/>
<g opacity="0.4">
<path opacity="0.4" d="M290.145 276.411L285.811 278.914V281.358L290.145 278.855V276.411Z" fill="white"/>
<path opacity="0.4" d="M290.145 279.545L285.811 282.048V288.982L290.145 286.479V279.545Z" fill="white"/>
<path opacity="0.4" d="M297.442 272.198L293.107 274.701V277.145L297.442 274.643V272.198Z" fill="white"/>
<path opacity="0.4" d="M297.442 275.332L293.107 277.835V284.769L297.442 282.266V275.332Z" fill="white"/>
<path opacity="0.4" d="M304.742 267.983L300.407 270.486V272.93L304.742 270.428V267.983Z" fill="white"/>
<path opacity="0.4" d="M304.742 271.117L300.407 273.62V280.554L304.742 278.052V271.117Z" fill="white"/>
<path opacity="0.4" d="M312.043 263.769L307.708 266.271V268.716L312.043 266.213V263.769Z" fill="white"/>
<path opacity="0.4" d="M312.043 266.903L307.708 269.405V276.339L312.043 273.837V266.903Z" fill="white"/>
<path opacity="0.4" d="M319.342 259.554L315.008 262.056V264.501L319.342 261.998V259.554Z" fill="white"/>
<path opacity="0.4" d="M319.342 262.688L315.008 265.19V272.125L319.342 269.622V262.688Z" fill="white"/>
</g>
<path opacity="0.2" d="M340.378 225.843L323.368 235.663V282.278L340.378 272.458V225.843Z" fill="black"/>
<path d="M336.678 274.594L333.323 276.531V247.047C333.323 246.648 333.256 246.292 333.124 246C332.992 245.707 332.799 245.484 332.555 245.343C332.311 245.202 332.021 245.145 331.702 245.177C331.383 245.208 331.041 245.327 330.696 245.526L328.546 246.768C328.101 247.025 327.674 247.067 327.359 246.885C327.045 246.704 326.868 246.313 326.868 245.799V245.799C326.868 245.286 327.045 244.691 327.359 244.146C327.674 243.601 328.101 243.151 328.546 242.894L330.696 241.652C331.482 241.199 332.26 240.928 332.986 240.856C333.712 240.785 334.372 240.913 334.927 241.234C335.483 241.555 335.923 242.063 336.224 242.728C336.524 243.393 336.678 244.202 336.678 245.11V274.594Z" fill="#0084FF"/>
<g opacity="0.2">
<path opacity="0.2" d="M336.678 274.594L333.323 276.531V247.047C333.323 246.648 333.256 246.292 333.124 246C332.992 245.707 332.799 245.484 332.555 245.343C332.311 245.202 332.021 245.145 331.702 245.177C331.383 245.208 331.041 245.327 330.696 245.526L328.546 246.768C328.101 247.025 327.674 247.067 327.359 246.885C327.045 246.704 326.868 246.313 326.868 245.799V245.799C326.868 245.286 327.045 244.691 327.359 244.146C327.674 243.601 328.101 243.151 328.546 242.894L330.696 241.652C331.482 241.199 332.26 240.928 332.986 240.856C333.712 240.785 334.372 240.913 334.927 241.234C335.483 241.555 335.923 242.063 336.224 242.728C336.524 243.393 336.678 244.202 336.678 245.11V274.594Z" fill="white"/>
</g>
<path d="M345.736 269.364L342.381 271.301V241.817C342.381 241.418 342.313 241.062 342.182 240.77C342.05 240.478 341.856 240.254 341.612 240.113C341.368 239.972 341.079 239.915 340.76 239.947C340.441 239.978 340.099 240.097 339.754 240.297L337.603 241.538C337.158 241.795 336.732 241.837 336.417 241.656C336.103 241.474 335.926 241.083 335.926 240.57V240.57C335.926 240.056 336.103 239.461 336.417 238.916C336.732 238.371 337.158 237.921 337.603 237.664L339.754 236.423C340.54 235.969 341.318 235.698 342.044 235.627C342.77 235.555 343.429 235.683 343.985 236.004C344.54 236.325 344.981 236.833 345.281 237.498C345.582 238.163 345.736 238.972 345.736 239.88V269.364Z" fill="#0084FF"/>
<g opacity="0.2">
<path opacity="0.2" d="M345.736 269.364L342.381 271.301V241.817C342.381 241.418 342.313 241.062 342.182 240.77C342.05 240.478 341.856 240.254 341.612 240.113C341.368 239.972 341.079 239.915 340.76 239.947C340.441 239.978 340.099 240.097 339.754 240.297L337.603 241.538C337.158 241.795 336.732 241.837 336.417 241.656C336.103 241.474 335.926 241.083 335.926 240.57V240.57C335.926 240.056 336.103 239.461 336.417 238.916C336.732 238.371 337.158 237.921 337.603 237.664L339.754 236.423C340.54 235.969 341.318 235.698 342.044 235.627C342.77 235.555 343.429 235.683 343.985 236.004C344.54 236.325 344.981 236.833 345.281 237.498C345.582 238.163 345.736 238.972 345.736 239.88V269.364Z" fill="white"/>
</g>
<path d="M347.158 261.008L331.051 270.308V277.842L349.842 266.993V262.484L347.158 261.008Z" fill="#263238"/>
<path opacity="0.2" d="M349.842 262.484V266.994L340.113 272.611V268.102L337.429 266.626L347.158 261.008L349.842 262.484Z" fill="black"/>
<path opacity="0.2" d="M337.429 266.626L340.113 268.102L349.842 262.484L347.158 261.008L337.429 266.626Z" fill="white"/>
<path d="M343.397 223.069L280.295 259.501V262.031L343.397 225.599V223.069Z" fill="#0084FF"/>
<path opacity="0.1" d="M343.397 223.069L280.295 259.501V262.031L343.397 225.599V223.069Z" fill="white"/>
<path opacity="0.2" d="M343.401 223.067L324.365 234.058V236.587L343.401 225.597V223.067Z" fill="black"/>
<path d="M290.145 260.346L285.327 263.127V273.765L290.145 270.984V260.346Z" fill="#0084FF"/>
<path opacity="0.2" d="M290.145 260.346L285.327 263.127V273.765L290.145 270.984V260.346Z" fill="white"/>
<path d="M297.446 256.131L292.628 258.913V269.55L297.446 266.769V256.131Z" fill="#0084FF"/>
<path opacity="0.2" d="M297.446 256.131L292.628 258.913V269.55L297.446 266.769V256.131Z" fill="white"/>
<path d="M304.745 251.916L299.928 254.698V265.336L304.745 262.554V251.916Z" fill="#0084FF"/>
<path opacity="0.2" d="M304.745 251.916L299.928 254.698V265.336L304.745 262.554V251.916Z" fill="white"/>
<path d="M312.046 247.702L307.229 250.483V261.121L312.046 258.339V247.702Z" fill="#0084FF"/>
<path opacity="0.2" d="M312.046 247.702L307.229 250.483V261.121L312.046 258.339V247.702Z" fill="white"/>
<path d="M319.343 243.489L314.525 246.27V256.908L319.343 254.126V243.489Z" fill="#0084FF"/>
<path opacity="0.2" d="M319.343 243.489L314.525 246.27V256.908L319.343 254.126V243.489Z" fill="white"/>
<g opacity="0.4">
<path opacity="0.4" d="M290.145 260.915L285.811 263.418V265.862L290.145 263.36V260.915Z" fill="white"/>
<path opacity="0.4" d="M290.145 264.049L285.811 266.552V273.486L290.145 270.984V264.049Z" fill="white"/>
<path opacity="0.4" d="M297.442 256.702L293.107 259.205V261.649L297.442 259.147V256.702Z" fill="white"/>
<path opacity="0.4" d="M297.442 259.836L293.107 262.339V269.273L297.442 266.771V259.836Z" fill="white"/>
<path opacity="0.4" d="M304.742 252.488L300.407 254.99V257.435L304.742 254.932V252.488Z" fill="white"/>
<path opacity="0.4" d="M304.742 255.622L300.407 258.124V265.058L304.742 262.556V255.622Z" fill="white"/>
<path opacity="0.4" d="M312.043 248.273L307.708 250.775V253.22L312.043 250.717V248.273Z" fill="white"/>
<path opacity="0.4" d="M312.043 251.407L307.708 253.909V260.843L312.043 258.341V251.407Z" fill="white"/>
<path opacity="0.4" d="M319.342 244.058L315.008 246.561V249.005L319.342 246.502V244.058Z" fill="white"/>
<path opacity="0.4" d="M319.342 247.192L315.008 249.695V256.629L319.342 254.126V247.192Z" fill="white"/>
</g>
</svg>
