<svg width="91" height="39" viewBox="0 0 91 39" fill="none" xmlns="http://www.w3.org/2000/svg">
<path d="M4.75052 32.4951C3.5204 32.1222 2.98144 31.8856 2.98144 31.1819C2.98144 30.5523 3.81997 30.3289 4.53812 30.3289C5.16633 30.3289 5.84158 30.5157 6.30029 30.8159C6.40891 30.8865 6.54244 30.908 6.66697 30.8734C6.79151 30.8402 6.89667 30.7537 6.95478 30.6381L7.16373 30.2203C7.26612 30.0141 7.19901 29.7636 7.00598 29.637C6.34526 29.2053 5.40779 28.9375 4.55957 28.9375C2.77734 28.9375 1.57904 29.8529 1.57904 31.2151C1.57904 32.9849 3.07415 33.4326 4.27383 33.793C5.53025 34.1694 6.07958 34.4115 6.07266 35.1594C6.07266 35.9101 5.18916 36.1772 4.36239 36.1772C3.57021 36.1772 2.70816 35.7558 2.18442 35.2722C2.07995 35.176 1.94503 35.1207 1.80528 35.1366C1.66483 35.1525 1.53961 35.2335 1.46696 35.3552L1.22619 35.762C1.11896 35.9412 1.14871 36.1702 1.29746 36.3169C2.07441 37.0821 3.24435 37.5581 4.35132 37.5581C6.21934 37.5581 7.47437 36.5888 7.47437 35.1518C7.4889 33.326 5.97027 32.8652 4.75052 32.4951Z" fill="#FCFCFC"/>
<path d="M12.9807 29.224C12.9067 29.0628 12.7455 28.959 12.5677 28.959H12.0737C11.8952 28.959 11.734 29.0628 11.6606 29.2254L8.17782 36.9043C8.11417 37.0455 8.12593 37.2081 8.20895 37.3381C8.29336 37.4689 8.43657 37.5464 8.59086 37.5464H9.09591C9.27441 37.5464 9.43631 37.4419 9.50965 37.2793L10.3779 35.3601H14.2869L15.1656 37.2814C15.2396 37.4426 15.4008 37.5464 15.5779 37.5464H16.0837C16.2387 37.5464 16.3819 37.4675 16.4656 37.3374C16.5493 37.2081 16.5604 37.0448 16.496 36.903L12.9807 29.224ZM10.9861 33.9902L12.3172 31.0395L13.6636 33.9902H10.9861Z" fill="#FCFCFC"/>
<path d="M18.775 28.9597H18.3142C18.0638 28.9597 17.8604 29.1631 17.8604 29.4136V37.0925C17.8604 37.3437 18.0638 37.5464 18.3142 37.5464H18.775C19.0254 37.5464 19.2288 37.3437 19.2288 37.0925V29.4136C19.2288 29.1631 19.0254 28.9597 18.775 28.9597Z" fill="#FCFCFC"/>
<path d="M28.3556 28.9597H27.9052C27.6533 28.9597 27.4506 29.1631 27.4506 29.4136V35.0066L23.1403 29.1445C23.0546 29.0275 22.919 28.9597 22.7744 28.9597H22.2361C21.9849 28.9597 21.7822 29.1631 21.7822 29.4136V37.0925C21.7822 37.3437 21.9849 37.5464 22.2361 37.5464H22.6969C22.948 37.5464 23.1514 37.3437 23.1514 37.0925V31.5023L27.4506 37.3624C27.5357 37.4779 27.672 37.5464 27.8173 37.5464H28.3556C28.606 37.5464 28.8094 37.3437 28.8094 37.0925V29.4136C28.8094 29.1631 28.606 28.9597 28.3556 28.9597Z" fill="#FCFCFC"/>
<path d="M36.2756 28.9597H30.628C30.3775 28.9597 30.1748 29.1631 30.1748 29.4136V29.8647C30.1748 30.1144 30.3775 30.3178 30.628 30.3178H32.7679V37.0925C32.7679 37.3437 32.9713 37.5464 33.2218 37.5464H33.6818C33.9337 37.5464 34.1371 37.3437 34.1371 37.0925V30.3178H36.2756C36.5268 30.3178 36.7295 30.1144 36.7295 29.8647V29.4136C36.7295 29.1631 36.5268 28.9597 36.2756 28.9597Z" fill="#FCFCFC"/>
<path d="M39.653 33.1454H37.2024C36.9519 33.1454 36.7485 33.3482 36.7485 33.5993V33.9729C36.7485 34.224 36.9519 34.4268 37.2024 34.4268H39.653C39.9034 34.4268 40.1061 34.224 40.1061 33.9729V33.5993C40.1061 33.3482 39.9034 33.1454 39.653 33.1454Z" fill="#FCFCFC"/>
<path d="M49.1946 32.87H48.7767C48.7747 32.87 48.7719 32.8707 48.7691 32.8707H47.4062C47.155 32.8707 46.9516 33.0741 46.9516 33.3245V33.786C46.9516 34.0365 47.155 34.2399 47.4062 34.2399H48.3236V35.6437C47.7888 36.0103 47.146 36.2096 46.4922 36.2096C44.7979 36.2096 43.4197 34.8812 43.4197 33.2477C43.4197 31.6198 44.7979 30.2956 46.4922 30.2956C47.2789 30.2956 48.0531 30.5855 48.6169 31.0912C48.7096 31.1742 48.8328 31.2164 48.9566 31.2061C49.0812 31.1964 49.1953 31.1355 49.2735 31.0386L49.5482 30.6982C49.7004 30.508 49.6775 30.2312 49.4935 30.0707C48.6688 29.3477 47.602 28.9478 46.4922 28.9478C44.043 28.9478 42.0498 30.8761 42.0498 33.2477C42.0498 35.6243 44.0327 37.5566 46.4701 37.5566C47.5722 37.5566 48.6723 37.1526 49.4914 36.4476C49.5911 36.3618 49.6492 36.2359 49.6492 36.103V33.3238C49.6492 33.0741 49.4451 32.87 49.1946 32.87Z" fill="#FCFCFC"/>
<path d="M55.6323 28.9478C53.1894 28.9478 51.2017 30.8761 51.2017 33.2471C51.2017 35.6243 53.1894 37.5566 55.6323 37.5566C58.0753 37.5566 60.0637 35.6243 60.0637 33.2471C60.0637 30.8761 58.0753 28.9478 55.6323 28.9478ZM55.6323 36.1985C53.9497 36.1985 52.5812 34.8743 52.5812 33.2471C52.5812 31.6253 53.9497 30.3067 55.6323 30.3067C57.3142 30.3067 58.6827 31.6253 58.6827 33.2471C58.6827 34.8743 57.3142 36.1985 55.6323 36.1985Z" fill="#FCFCFC"/>
<path d="M67.3352 33.0099C67.7974 32.6121 68.054 32.026 68.054 31.3134C68.054 29.8612 66.9623 28.959 65.205 28.959H62.0625C61.8128 28.959 61.6094 29.1624 61.6094 29.4129V37.0925C61.6094 37.343 61.8128 37.5464 62.0625 37.5464H65.2271C67.2383 37.5464 68.438 36.6048 68.438 35.028C68.438 34.1355 68.0347 33.4257 67.3352 33.0099ZM65.1939 32.4419H62.9779V30.3178H65.1939C65.8733 30.3178 66.6849 30.4998 66.6849 31.3688C66.6849 32.0807 66.1833 32.4419 65.1939 32.4419ZM62.9779 33.8H65.1939C65.8941 33.8 67.0688 33.9522 67.0688 34.972C67.0688 35.9773 66.0497 36.1883 65.1939 36.1883H62.9779V33.8Z" fill="#FCFCFC"/>
<path d="M74.0111 29.224C73.937 29.0628 73.7758 28.959 73.598 28.959H73.104C72.9249 28.959 72.7636 29.0628 72.6896 29.2254L69.2075 36.9043C69.1438 37.0455 69.1556 37.2081 69.24 37.3381C69.3237 37.4689 69.4669 37.5464 69.6219 37.5464H70.127C70.3055 37.5464 70.4674 37.4419 70.5407 37.2793L71.409 35.3601H75.3166L76.1953 37.2814C76.2693 37.4426 76.4312 37.5464 76.6083 37.5464H77.1134C77.2676 37.5464 77.4122 37.4675 77.4953 37.3374C77.579 37.2081 77.5907 37.0448 77.5264 36.903L74.0111 29.224ZM72.0164 33.9902L73.3476 31.0395L74.6939 33.9902H72.0164Z" fill="#FCFCFC"/>
<path d="M79.8047 28.9597H79.3432C79.0928 28.9597 78.8887 29.1631 78.8887 29.4136V37.0925C78.8887 37.3437 79.0928 37.5464 79.3432 37.5464H79.8047C80.0551 37.5464 80.2599 37.3437 80.2599 37.0925V29.4136C80.2599 29.1631 80.0551 28.9597 79.8047 28.9597Z" fill="#FCFCFC"/>
<path d="M89.3846 28.9597H88.9335C88.683 28.9597 88.4803 29.1631 88.4803 29.4136V35.0066L84.1694 29.1445C84.0843 29.0275 83.948 28.9597 83.8034 28.9597H83.2651C83.014 28.9597 82.8105 29.1631 82.8105 29.4136V37.0925C82.8105 37.3437 83.014 37.5464 83.2651 37.5464H83.7266C83.977 37.5464 84.1797 37.3437 84.1797 37.0925V31.5023L88.4803 37.3624C88.5654 37.4779 88.701 37.5464 88.8456 37.5464H89.3846C89.635 37.5464 89.8378 37.3437 89.8378 37.0925V29.4136C89.8378 29.1631 89.635 28.9597 89.3846 28.9597Z" fill="#FCFCFC"/>
<path d="M51.0117 16.9104V24.46H49.6218V15.8719L51.0117 16.9104ZM77.9575 24.435H72.4898L72.451 24.397L67.6419 19.6405C67.4461 19.4467 67.1445 19.3872 66.8892 19.4938C66.6304 19.6017 66.463 19.8522 66.463 20.1324V24.46H65.0343V13.7507C65.0343 13.5611 64.9548 13.3778 64.8171 13.2477L60.8216 9.47429C60.6929 9.35253 60.5234 9.28541 60.3463 9.28541H58.3489C57.967 9.28541 57.6563 9.59605 57.6563 9.97727V24.46H56.2387V1.20934C56.2387 0.927061 56.0699 0.675924 55.8091 0.569378C55.5531 0.464216 55.2459 0.527861 55.0536 0.723658L48.4366 7.43815C48.3079 7.56822 48.2374 7.74118 48.2374 7.92383V13.1107L45.528 11.0877C45.2817 10.9044 44.9206 10.9106 44.6812 11.1022L38.5209 16.0407C38.3562 16.1729 38.2622 16.37 38.2622 16.5811V24.46H36.866V20.1172C36.866 18.5923 35.8157 16.9713 33.8709 16.9713C31.9254 16.9713 30.8759 18.5999 30.8759 20.1324V24.46L29.4638 24.4593V21.5133C29.4638 20.3192 28.6419 19.051 27.1184 19.051C25.5949 19.051 24.773 20.3206 24.773 21.5161V24.4606L23.3664 24.4613L23.3657 24.3306C23.3637 23.737 23.3616 22.9766 23.3616 22.6715C23.3616 21.6572 22.4041 20.7682 21.3123 20.7682C20.2206 20.7682 19.263 21.6531 19.263 22.6625V24.46L13.0944 24.4593C12.7125 24.4593 12.4025 24.7699 12.4019 25.1511C12.4019 25.3365 12.4738 25.5102 12.6046 25.641C12.7353 25.7717 12.909 25.8437 13.0937 25.8437L19.9549 25.8444C20.1396 25.8444 20.314 25.7724 20.444 25.6416C20.5748 25.5109 20.6474 25.3372 20.6474 25.1525V22.7877C20.6474 22.5317 20.9262 22.1519 21.3123 22.1519C21.6928 22.1519 21.9779 22.4992 21.9779 22.8099C21.9779 22.9877 21.9848 25.1567 21.9848 25.1567C21.9869 25.5372 22.2968 25.8464 22.6767 25.8464L25.4655 25.8444C25.8467 25.8444 26.1574 25.5337 26.1574 25.1525V21.5161C26.1574 21.1418 26.358 20.4347 27.1184 20.4347C27.8787 20.4347 28.0801 21.1397 28.0801 21.5133V25.1504C28.0801 25.5323 28.39 25.843 28.7712 25.843L31.567 25.8444C31.7497 25.8444 31.9282 25.7703 32.0569 25.6416C32.1856 25.513 32.2596 25.3345 32.2596 25.1525V20.1324C32.2596 19.518 32.5965 18.355 33.8709 18.355C35.0526 18.355 35.4816 19.4087 35.4816 20.1172V25.1525C35.4816 25.5337 35.7922 25.8444 36.1734 25.8444H38.954C39.3359 25.8444 39.6459 25.5337 39.6459 25.1525V16.9132L39.6957 16.873L45.1288 12.5171L48.2374 14.8383V25.1525C48.2374 25.5337 48.548 25.8444 48.9292 25.8444H51.7043C52.0855 25.8444 52.3961 25.5337 52.3961 25.1525V16.5631C52.3961 16.3465 52.2917 16.139 52.118 16.0089L49.6218 14.1443V8.20749L49.6598 8.16875L54.8543 2.89748V25.1525C54.8543 25.5337 55.1649 25.8444 55.5462 25.8444H58.3489C58.7301 25.8444 59.0407 25.5337 59.0407 25.1525V10.6691H60.0709L60.109 10.7051L63.6499 14.0489V25.1525C63.6499 25.5337 63.9605 25.8444 64.3418 25.8444H67.1549C67.5368 25.8444 67.8474 25.5337 67.8474 25.1525V21.7901L71.7184 25.6188C71.8491 25.7475 72.0221 25.8188 72.2047 25.8188H77.9575C78.3394 25.8188 78.6501 25.5081 78.6501 25.1269C78.6501 24.745 78.3394 24.435 77.9575 24.435Z" fill="#FCFCFC"/>
</svg>
