<svg width="24" height="24" viewBox="0 0 24 24" fill="none" xmlns="http://www.w3.org/2000/svg">
<path d="M14.5788 15.6227L9.42851 13.0476M9.4212 10.9561L14.5764 8.37849M19 16.6667C19 17.9553 17.9553 19 16.6667 19C15.378 19 14.3333 17.9553 14.3333 16.6667C14.3333 15.378 15.378 14.3333 16.6667 14.3333C17.9553 14.3333 19 15.378 19 16.6667ZM19 7.33333C19 8.622 17.9553 9.66667 16.6667 9.66667C15.378 9.66667 14.3333 8.622 14.3333 7.33333C14.3333 6.04467 15.378 5 16.6667 5C17.9553 5 19 6.04467 19 7.33333ZM9.66667 12C9.66667 13.2887 8.622 14.3333 7.33333 14.3333C6.04467 14.3333 5 13.2887 5 12C5 10.7113 6.04467 9.66667 7.33333 9.66667C8.622 9.66667 9.66667 10.7113 9.66667 12Z" stroke="#0084FF" stroke-width="1.5"/>
</svg>
