<svg width="75" height="75" viewBox="0 0 75 75" fill="none" xmlns="http://www.w3.org/2000/svg">
<g clip-path="url(#clip0_176_748)">
<path d="M62.8161 62.8221L61.5383 59.065C59.1388 51.9978 52.6411 47.1814 45.2383 46.8653C44.5867 47.3715 43.8999 47.8065 43.188 48.1869C42.1267 50.9736 38.5609 51.7286 36.4717 49.5944C34.0001 49.3761 31.7373 48.3997 29.7612 46.8654C22.3584 47.1805 15.8624 51.9969 13.4611 59.0652L12.1854 62.8221C11.8166 63.9028 11.9942 65.0937 12.6595 66.0214C13.3226 66.9498 14.3956 67.5 15.5368 67.5H59.463C60.604 67.5 61.6771 66.9499 62.3403 66.0214C63.0053 65.0937 63.1828 63.9028 62.8161 62.8221Z" fill="#4D93FF"/>
<path d="M42.3902 44.0057C46.6877 40.9851 49.6935 34.3145 49.6935 27.8655C49.6935 9.53757 25.3078 9.55704 25.3078 27.8655C25.3078 35.7034 29.7457 43.8565 35.5511 45.3956C36.1108 43.8096 37.6089 42.6626 39.3842 42.6626C40.578 42.6625 41.6431 43.1862 42.3902 44.0057Z" fill="#4D93FF"/>
<path d="M19.957 35.5171C20.5616 37.892 23.8565 37.2385 23.8565 35.0392C23.8565 26.2238 24.2779 25.4007 23.0977 24.4439C25.7993 7.79657 49.0714 7.92143 51.9038 24.4458C50.7254 25.4056 51.147 26.2248 51.147 35.0392C51.147 35.7287 51.5176 36.3072 52.05 36.6661C52.05 43.5239 49.2683 43.1229 40.9036 45.34C39.6104 43.9364 37.3006 44.8502 37.3006 46.7435C37.3006 49.1145 40.6988 49.6694 41.3582 47.2859C48.1114 45.4951 54.0474 44.9304 54.0474 38.1809V36.7957C54.5487 36.5362 54.9037 36.0761 55.0462 35.5171C61.5557 35.3845 61.5577 25.6289 55.0462 25.4963C54.9115 24.9637 54.58 24.5287 54.1137 24.2634C54.2816 22.2659 53.8701 19.6402 52.7248 17.1053C44.7603 0.670624 21.2365 7.10104 20.8681 23.0286C20.8173 23.568 20.8583 23.9504 20.8894 24.2634C20.4231 24.5287 20.0917 24.9637 19.957 25.4963C17.2299 25.5489 15.0314 27.7679 15.0314 30.5068C15.0314 33.2455 17.2299 35.4644 19.957 35.5171Z" fill="#0F6FFF"/>
</g>
<defs>
<clipPath id="clip0_176_748">
<rect width="60" height="60" fill="white" transform="translate(7.5 7.5)"/>
</clipPath>
</defs>
</svg>
