<svg width="341" height="241" viewBox="0 0 341 241" fill="none" xmlns="http://www.w3.org/2000/svg">
<path d="M120.306 160.408V200.51M120.306 200.51H160.408M120.306 200.51H80.2041M50.1276 160.408H190.485C196.022 160.408 200.51 155.92 200.51 150.383V60.153C200.51 54.6161 196.022 50.1275 190.485 50.1275H50.1276C44.5906 50.1275 40.1021 54.6161 40.1021 60.153V150.383C40.1021 155.92 44.5906 160.408 50.1276 160.408Z" stroke="white" stroke-width="1.5" stroke-linecap="round" stroke-linejoin="round"/>
<path d="M235.035 180.107C234.621 180.107 234.285 180.443 234.285 180.857C234.285 181.272 234.621 181.607 235.035 181.607V180.107ZM235.122 181.607C235.536 181.607 235.872 181.272 235.872 180.857C235.872 180.443 235.536 180.107 235.122 180.107V181.607ZM235.035 181.607H235.122V180.107H235.035V181.607ZM200.245 87.9918H269.826V86.4918H200.245V87.9918ZM286.471 99.7239V187.098H287.971V99.7239H286.471ZM269.826 198.831H200.245V200.331H269.826V198.831ZM183.599 187.098V99.7239H182.099V187.098H183.599ZM200.245 198.831C195.58 198.831 191.388 197.473 188.382 195.315C185.374 193.157 183.599 190.242 183.599 187.098H182.099C182.099 190.849 184.219 194.175 187.507 196.534C190.796 198.894 195.302 200.331 200.245 200.331V198.831ZM286.471 187.098C286.471 190.242 284.697 193.157 281.689 195.315C278.682 197.473 274.49 198.831 269.826 198.831V200.331C274.768 200.331 279.274 198.894 282.563 196.534C285.851 194.175 287.971 190.849 287.971 187.098H286.471ZM269.826 87.9918C274.49 87.9918 278.682 89.3496 281.689 91.5071C284.697 93.6655 286.471 96.5806 286.471 99.7239H287.971C287.971 95.9735 285.851 92.6476 282.563 90.2884C279.274 87.9282 274.768 86.4918 269.826 86.4918V87.9918ZM200.245 86.4918C195.302 86.4918 190.796 87.9282 187.507 90.2884C184.219 92.6476 182.099 95.9735 182.099 99.7239H183.599C183.599 96.5806 185.374 93.6655 188.382 91.5071C191.388 89.3496 195.58 87.9918 200.245 87.9918V86.4918Z" fill="white"/>
<path d="M297.636 185.286C297.221 185.286 296.886 185.622 296.886 186.036C296.886 186.45 297.221 186.786 297.636 186.786V185.286ZM297.671 186.786C298.086 186.786 298.421 186.45 298.421 186.036C298.421 185.622 298.086 185.286 297.671 185.286V186.786ZM297.636 186.786H297.671V185.286H297.636V186.786ZM283.294 122.052H311.977V120.552H283.294V122.052ZM318.397 129.933V190.352H319.897V129.933H318.397ZM311.977 198.233H283.294V199.733H311.977V198.233ZM276.874 190.352V129.933H275.374V190.352H276.874ZM283.294 198.233C279.873 198.233 276.874 194.841 276.874 190.352H275.374C275.374 195.397 278.796 199.733 283.294 199.733V198.233ZM318.397 190.352C318.397 194.841 315.398 198.233 311.977 198.233V199.733C316.475 199.733 319.897 195.397 319.897 190.352H318.397ZM311.977 122.052C315.398 122.052 318.397 125.444 318.397 129.933H319.897C319.897 124.888 316.475 120.552 311.977 120.552V122.052ZM283.294 120.552C278.796 120.552 275.374 124.888 275.374 129.933H276.874C276.874 125.444 279.873 122.052 283.294 122.052V120.552Z" fill="white"/>
</svg>
