<svg width="16" height="16" viewBox="0 0 16 16" fill="none" xmlns="http://www.w3.org/2000/svg">
<path d="M5.66667 6.33341C6.03486 6.33341 6.33334 6.03494 6.33334 5.66675C6.33334 5.29856 6.03486 5.00008 5.66667 5.00008C5.29848 5.00008 5 5.29856 5 5.66675C5 6.03494 5.29848 6.33341 5.66667 6.33341Z" stroke="current" stroke-width="1.5" stroke-linecap="round" stroke-linejoin="round"/>
<path d="M2.66667 4.66675V7.23941C2.66667 7.59741 2.80867 7.94075 3.06201 8.19408L8.47267 13.6047C8.59803 13.7301 8.74687 13.8296 8.91067 13.8974C9.07447 13.9653 9.25004 14.0002 9.42734 14.0002C9.60464 14.0002 9.78021 13.9653 9.94401 13.8974C10.1078 13.8296 10.2566 13.7301 10.382 13.6047L13.6047 10.3821C13.7301 10.2567 13.8295 10.1079 13.8974 9.94408C13.9652 9.78028 14.0001 9.60472 14.0001 9.42741C14.0001 9.25011 13.9652 9.07455 13.8974 8.91074C13.8295 8.74694 13.7301 8.59811 13.6047 8.47275L8.19334 3.06208C7.9403 2.80908 7.59716 2.66689 7.23934 2.66675H4.66667C4.13624 2.66675 3.62753 2.87746 3.25246 3.25253C2.87739 3.62761 2.66667 4.13631 2.66667 4.66675Z" stroke="current" stroke-width="1.5" stroke-linecap="round" stroke-linejoin="round"/>
</svg>
