<svg width="75" height="75" viewBox="0 0 75 75" fill="none" xmlns="http://www.w3.org/2000/svg">
<path fill-rule="evenodd" clip-rule="evenodd" d="M15.8353 31.5788H69.5953C71.7628 31.5788 73.5359 33.3519 73.5359 35.5151V43.4212C70.8618 43.4212 68.6943 45.5887 68.6943 48.2628C68.6943 50.9369 70.8618 53.1003 73.5359 53.1003V61.0063C73.5359 63.1739 71.7628 64.9469 69.5953 64.9469H15.8353C13.6679 64.9469 11.8948 63.1739 11.8948 61.0063V53.1003C14.5689 53.1003 16.7322 50.9328 16.7322 48.2628C16.7322 45.5928 14.5688 43.4212 11.8948 43.4212V35.5151C11.8948 33.3517 13.6679 31.5788 15.8353 31.5788Z" fill="#F7B84E"/>
<path fill-rule="evenodd" clip-rule="evenodd" d="M22.9564 31.5788H69.5953C71.7628 31.5788 73.5359 33.3519 73.5359 35.5151V43.4212C70.8618 43.4212 68.6943 45.5887 68.6943 48.2628C68.6943 50.9369 70.8618 53.1003 73.5359 53.1003V61.0063C73.5359 63.1739 71.7628 64.9469 69.5953 64.9469H22.9564C20.793 64.9469 19.0201 63.1739 19.0201 61.0063V35.5151C19.0201 33.3517 20.7932 31.5788 22.9564 31.5788Z" fill="#FFCB5B"/>
<path fill-rule="evenodd" clip-rule="evenodd" d="M5.40469 43.4212H59.1646C61.328 43.4212 63.1011 41.6481 63.1011 39.4849V31.5788C60.4311 31.5788 58.2637 29.4113 58.2637 26.7372C58.2637 24.0631 60.4312 21.8999 63.1011 21.8999V13.9938C63.1011 11.8263 61.328 10.0532 59.1646 10.0532H5.40469C3.23716 10.0532 1.46411 11.8263 1.46411 13.9938V21.8999C4.13818 21.8999 6.30161 24.0674 6.30161 26.7372C6.30161 29.407 4.13818 31.5788 1.46411 31.5788V39.4849C1.46411 41.6481 3.23716 43.4212 5.40469 43.4212Z" fill="#00ADE6"/>
<path fill-rule="evenodd" clip-rule="evenodd" d="M12.5259 43.4212H59.1646C61.328 43.4212 63.1011 41.6481 63.1011 39.4849V31.5788C60.4311 31.5788 58.2637 29.4113 58.2637 26.7372C58.2637 24.0631 60.4312 21.8999 63.1011 21.8999V13.9938C63.1011 11.8263 61.328 10.0532 59.1646 10.0532H12.5259C10.3584 10.0532 8.5853 11.8263 8.5853 13.9938V39.4849C8.5853 41.6481 10.3584 43.4212 12.5259 43.4212Z" fill="#11BEF7"/>
<path fill-rule="evenodd" clip-rule="evenodd" d="M50.2497 26.7372C50.2497 33.4806 44.7812 38.9492 38.0377 38.9492C31.2943 38.9492 25.8299 33.4806 25.8299 26.7372C25.8299 19.9938 31.2943 14.5293 38.0377 14.5293C44.7812 14.5293 50.2497 19.9938 50.2497 26.7372Z" fill="#F7B84E"/>
<path fill-rule="evenodd" clip-rule="evenodd" d="M50.2497 26.7372C50.2497 32.8827 45.7071 37.9692 39.7942 38.8204C33.8855 37.9692 29.3429 32.8825 29.3429 26.7372C29.3429 20.5919 33.8855 15.5052 39.7942 14.654C45.7072 15.5052 50.2497 20.5919 50.2497 26.7372Z" fill="#FFCB5B"/>
<path fill-rule="evenodd" clip-rule="evenodd" d="M31.8923 37.2924L35.5463 33.6384C36.2272 32.9574 37.0702 32.6251 38.0335 32.6584C39.6737 32.7165 41.3386 32.1227 42.5928 30.8645C44.179 29.2784 44.7147 27.0403 44.2039 25.014L40.579 28.6348L38.8308 28.1656L37.0786 27.6964L36.6094 25.9482L36.1402 24.196L39.7652 20.5711C37.7348 20.0603 35.4967 20.596 33.9105 22.1821C32.6565 23.4362 32.0585 25.1013 32.1167 26.7455C32.15 27.7088 31.8177 28.5518 31.1369 29.2327L27.4869 32.8827C28.5519 34.7069 30.0693 36.2257 31.8926 37.2924H31.8923Z" fill="#1B6FAB"/>
<path fill-rule="evenodd" clip-rule="evenodd" d="M33.3788 35.8059L35.5463 33.6384C36.2272 32.9574 37.0702 32.6251 38.0335 32.6584C39.6737 32.7165 41.3386 32.1227 42.5928 30.8645C44.179 29.2784 44.7147 27.0403 44.2039 25.014L40.579 28.6348L38.8308 28.1656L37.0786 27.6964L36.6094 25.9482L36.1402 24.196L39.7652 20.5711C37.7348 20.0603 35.4967 20.596 33.9105 22.1821C32.6565 23.4362 32.0585 25.1013 32.1167 26.7455C32.15 27.7088 31.8177 28.5518 31.1369 29.2327L29.9202 30.4494C30.5846 32.5339 31.7928 34.3733 33.3791 35.8059H33.3788Z" fill="#3589C9"/>
<path d="M18.6879 10.0532V12.881C18.6882 12.9961 18.6658 13.1102 18.6219 13.2166C18.578 13.3231 18.5134 13.4198 18.432 13.5012C18.3506 13.5826 18.2539 13.6471 18.1474 13.6911C18.041 13.735 17.9269 13.7574 17.8118 13.7571C17.3301 13.7571 16.9397 13.3667 16.9397 12.881V10.0532H18.6879ZM16.9397 43.4212H18.6879V40.5935C18.6878 40.3611 18.5955 40.1383 18.4312 39.974C18.2669 39.8097 18.0441 39.7174 17.8118 39.7173C17.3301 39.7173 16.9397 40.1118 16.9397 40.5935V43.4212ZM16.9397 32.9574C16.9397 32.4757 17.3301 32.0812 17.8118 32.0812C18.0441 32.0813 18.2669 32.1737 18.4312 32.3379C18.5955 32.5022 18.6878 32.725 18.6879 32.9574V35.7894C18.6879 36.271 18.2975 36.6614 17.8118 36.6614C17.5805 36.6614 17.3587 36.5695 17.1952 36.406C17.0316 36.2424 16.9397 36.0206 16.9397 35.7894V32.9574ZM16.9356 25.3254C16.9356 24.8395 17.326 24.445 17.8118 24.445C18.2975 24.445 18.692 24.8395 18.692 25.3254V28.1531C18.692 28.639 18.2975 29.0335 17.8118 29.0335C17.326 29.0335 16.9356 28.639 16.9356 28.1531V25.3254ZM16.9397 17.6893C16.9397 17.2036 17.3301 16.8132 17.8118 16.8132C17.9269 16.8129 18.041 16.8353 18.1474 16.8792C18.2538 16.9232 18.3506 16.9877 18.432 17.0691C18.5134 17.1505 18.5779 17.2472 18.6218 17.3537C18.6658 17.4601 18.6882 17.5742 18.6879 17.6893V20.517C18.6882 20.6322 18.6658 20.7462 18.6218 20.8527C18.5779 20.9591 18.5134 21.0558 18.432 21.1372C18.3506 21.2187 18.2538 21.2832 18.1474 21.3271C18.041 21.371 17.9269 21.3935 17.8118 21.3932C17.3301 21.3932 16.9397 21.0028 16.9397 20.517V17.6893ZM27.3705 62.1149C27.3705 61.6333 27.7608 61.2429 28.2466 61.2429C28.4779 61.2429 28.6997 61.3348 28.8632 61.4983C29.0267 61.6619 29.1186 61.8837 29.1186 62.1149V64.9469H27.3705V62.1149ZM27.3705 54.483C27.3701 54.3678 27.3926 54.2537 27.4365 54.1473C27.4804 54.0408 27.5449 53.9441 27.6263 53.8627C27.7078 53.7813 27.8045 53.7168 27.9109 53.6729C28.0174 53.6289 28.1314 53.6065 28.2466 53.6068C28.7282 53.6068 29.1186 53.9972 29.1186 54.483V57.3107C29.1186 57.7923 28.7282 58.1868 28.2466 58.1868C28.0142 58.1868 27.7914 58.0945 27.6271 57.9302C27.4628 57.7659 27.3705 57.543 27.3705 57.3107V54.483ZM27.3664 46.8469C27.3665 46.6134 27.4593 46.3896 27.6244 46.2246C27.7895 46.0595 28.0133 45.9668 28.2467 45.9667C28.7284 45.9667 29.1229 46.3611 29.1229 46.8469V49.6746C29.1229 50.1604 28.7284 50.5548 28.2467 50.5548C28.0133 50.5547 27.7895 50.4619 27.6244 50.2969C27.4593 50.1319 27.3665 49.908 27.3664 49.6746V46.8469Z" fill="#E2E5E7"/>
</svg>
