<svg width="4" height="14" viewBox="0 0 4 14" fill="none" xmlns="http://www.w3.org/2000/svg">
<path d="M1.33301 7.00008C1.33301 7.17689 1.40325 7.34646 1.52827 7.47149C1.65329 7.59651 1.82286 7.66675 1.99967 7.66675C2.17649 7.66675 2.34605 7.59651 2.47108 7.47149C2.5961 7.34646 2.66634 7.17689 2.66634 7.00008C2.66634 6.82327 2.5961 6.6537 2.47108 6.52868C2.34605 6.40365 2.17649 6.33341 1.99967 6.33341C1.82286 6.33341 1.65329 6.40365 1.52827 6.52868C1.40325 6.6537 1.33301 6.82327 1.33301 7.00008Z" stroke="#646464" stroke-width="1.5" stroke-linecap="round" stroke-linejoin="round"/>
<path d="M1.33301 11.6667C1.33301 11.8436 1.40325 12.0131 1.52827 12.1382C1.65329 12.2632 1.82286 12.3334 1.99967 12.3334C2.17649 12.3334 2.34605 12.2632 2.47108 12.1382C2.5961 12.0131 2.66634 11.8436 2.66634 11.6667C2.66634 11.4899 2.5961 11.3204 2.47108 11.1953C2.34605 11.0703 2.17649 11.0001 1.99967 11.0001C1.82286 11.0001 1.65329 11.0703 1.52827 11.1953C1.40325 11.3204 1.33301 11.4899 1.33301 11.6667Z" stroke="#646464" stroke-width="1.5" stroke-linecap="round" stroke-linejoin="round"/>
<path d="M1.33301 2.33341C1.33301 2.51023 1.40325 2.67979 1.52827 2.80482C1.65329 2.92984 1.82286 3.00008 1.99967 3.00008C2.17649 3.00008 2.34605 2.92984 2.47108 2.80482C2.5961 2.67979 2.66634 2.51023 2.66634 2.33341C2.66634 2.1566 2.5961 1.98703 2.47108 1.86201C2.34605 1.73699 2.17649 1.66675 1.99967 1.66675C1.82286 1.66675 1.65329 1.73699 1.52827 1.86201C1.40325 1.98703 1.33301 2.1566 1.33301 2.33341Z" stroke="#646464" stroke-width="1.5" stroke-linecap="round" stroke-linejoin="round"/>
</svg>
