<svg width="16" height="16" viewBox="0 0 16 16" fill="none" xmlns="http://www.w3.org/2000/svg">
<path d="M15.0001 7.49984C15.0001 6.70419 14.684 5.94112 14.1214 5.37852C13.5588 4.81591 12.7957 4.49984 12.0001 4.49984H9.50009C9.46884 4.49984 6.22509 4.45609 3.14384 1.86859C2.99778 1.74532 2.81927 1.66679 2.62972 1.6424C2.44016 1.61801 2.24759 1.64881 2.07509 1.73109C1.90158 1.80998 1.75481 1.93769 1.6527 2.09863C1.55059 2.25956 1.49756 2.44676 1.50009 2.63734V12.3623C1.49756 12.5529 1.55059 12.7401 1.6527 12.901C1.75481 13.062 1.90158 13.1897 2.07509 13.2686C2.20841 13.3299 2.35334 13.3619 2.50009 13.3623C2.73527 13.3639 2.96338 13.2819 3.14384 13.1311C5.51259 11.1436 7.96884 10.6561 9.00009 10.5373V12.7311C8.99949 12.8955 9.03973 13.0576 9.11717 13.2027C9.19462 13.3477 9.30686 13.4713 9.44384 13.5623L10.1313 14.0248C10.2667 14.1105 10.4199 14.164 10.5791 14.1814C10.7384 14.1987 10.8995 14.1794 11.0501 14.1248C11.1996 14.0667 11.3329 13.9733 11.4385 13.8525C11.544 13.7317 11.6188 13.5871 11.6563 13.4311L12.4001 10.4748C13.1192 10.3754 13.7782 10.0197 14.2559 9.4731C14.7336 8.9265 14.9979 8.22577 15.0001 7.49984ZM10.6876 13.1873L10.0001 12.7311V10.4998H11.3626L10.6876 13.1873ZM12.0001 9.49984H10.0001V5.49984H12.0001C12.5305 5.49984 13.0392 5.71055 13.4143 6.08562C13.7894 6.46069 14.0001 6.9694 14.0001 7.49984C14.0001 8.03027 13.7894 8.53898 13.4143 8.91405C13.0392 9.28912 12.5305 9.49984 12.0001 9.49984Z" fill="#646464"/>
</svg>
