<svg width="16" height="16" viewBox="0 0 16 16" fill="none" xmlns="http://www.w3.org/2000/svg">
<path d="M7.99946 9.77785C8.9813 9.77785 9.77724 8.98191 9.77724 8.00007C9.77724 7.01823 8.9813 6.22229 7.99946 6.22229C7.01762 6.22229 6.22168 7.01823 6.22168 8.00007C6.22168 8.98191 7.01762 9.77785 7.99946 9.77785Z" stroke="#0D0D0D" stroke-width="1.00741" stroke-linecap="round" stroke-linejoin="round"/>
<path d="M5.17006 10.8285C4.79822 10.4573 4.50322 10.0164 4.30195 9.53106C4.10067 9.04573 3.99707 8.52547 3.99707 8.00006C3.99707 7.47464 4.10067 6.95439 4.30195 6.46905C4.50322 5.98372 4.79822 5.54284 5.17006 5.17163" stroke="#0D0D0D" stroke-width="1.00741" stroke-linecap="round" stroke-linejoin="round"/>
<path d="M10.8281 5.17163C11.2 5.54284 11.495 5.98372 11.6962 6.46905C11.8975 6.95439 12.0011 7.47464 12.0011 8.00006C12.0011 8.52547 11.8975 9.04573 11.6962 9.53106C11.495 10.0164 11.2 10.4573 10.8281 10.8285" stroke="#0D0D0D" stroke-width="1.00741" stroke-linecap="round" stroke-linejoin="round"/>
<path d="M3.60004 12.3999C3.02162 11.8225 2.56274 11.1366 2.24964 10.3817C1.93655 9.62672 1.77539 8.81743 1.77539 8.00012C1.77539 7.18281 1.93655 6.37352 2.24964 5.61855C2.56274 4.86359 3.02162 4.17777 3.60004 3.60034" stroke="#0D0D0D" stroke-width="1.00741" stroke-linecap="round" stroke-linejoin="round"/>
<path d="M12.4004 3.60034C12.9788 4.17777 13.4377 4.86359 13.7508 5.61855C14.0639 6.37352 14.225 7.18281 14.225 8.00012C14.225 8.81743 14.0639 9.62672 13.7508 10.3817C13.4377 11.1366 12.9788 11.8225 12.4004 12.3999" stroke="#0D0D0D" stroke-width="1.00741" stroke-linecap="round" stroke-linejoin="round"/>
</svg>
