<svg width="16" height="16" viewBox="0 0 16 16" fill="none" xmlns="http://www.w3.org/2000/svg">
<path d="M7.99995 9.77785C8.98179 9.77785 9.77772 8.98191 9.77772 8.00007C9.77772 7.01823 8.98179 6.22229 7.99995 6.22229C7.01811 6.22229 6.22217 7.01823 6.22217 8.00007C6.22217 8.98191 7.01811 9.77785 7.99995 9.77785Z" stroke="white" stroke-width="1.00741" stroke-linecap="round" stroke-linejoin="round"/>
<path d="M5.17152 10.8281C4.79968 10.4569 4.50469 10.016 4.30341 9.5307C4.10214 9.04536 3.99854 8.52511 3.99854 7.99969C3.99854 7.47428 4.10214 6.95402 4.30341 6.46869C4.50469 5.98335 4.79968 5.54247 5.17152 5.17126" stroke="white" stroke-width="1.00741" stroke-linecap="round" stroke-linejoin="round"/>
<path d="M10.8281 5.17126C11.2 5.54247 11.495 5.98335 11.6962 6.46869C11.8975 6.95402 12.0011 7.47428 12.0011 7.99969C12.0011 8.52511 11.8975 9.04536 11.6962 9.5307C11.495 10.016 11.2 10.4569 10.8281 10.8281" stroke="white" stroke-width="1.00741" stroke-linecap="round" stroke-linejoin="round"/>
<path d="M3.60004 12.4003C3.02162 11.8228 2.56274 11.137 2.24964 10.382C1.93655 9.62708 1.77539 8.81779 1.77539 8.00048C1.77539 7.18317 1.93655 6.37388 2.24964 5.61892C2.56274 4.86396 3.02162 4.17814 3.60004 3.60071" stroke="white" stroke-width="1.00741" stroke-linecap="round" stroke-linejoin="round"/>
<path d="M12.3994 3.60071C12.9778 4.17814 13.4367 4.86396 13.7498 5.61892C14.0629 6.37388 14.2241 7.18317 14.2241 8.00048C14.2241 8.81779 14.0629 9.62708 13.7498 10.382C13.4367 11.137 12.9778 11.8228 12.3994 12.4003" stroke="white" stroke-width="1.00741" stroke-linecap="round" stroke-linejoin="round"/>
</svg>
