<svg width="24" height="24" viewBox="0 0 24 24" fill="none" xmlns="http://www.w3.org/2000/svg">
<path d="M20.929 13.131C21.1588 11.3173 20.8307 9.47654 19.9884 7.85385C19.1462 6.23116 17.8297 4.90346 16.2143 4.04745C14.5988 3.19145 12.7609 2.84774 10.9453 3.06207C9.12964 3.2764 7.42233 4.0386 6.05058 5.24723C4.67882 6.45587 3.7077 8.05361 3.26644 9.82781C2.82518 11.602 2.93472 13.4685 3.58048 15.1789C4.22624 16.8893 5.3776 18.3625 6.88131 19.4024C8.38502 20.4423 10.1698 20.9995 11.998 21M3.59998 9H20.4M3.59998 15H13.5M11.5 3C9.81538 5.69961 8.92224 8.81787 8.92224 12C8.92224 15.1821 9.81538 18.3004 11.5 21M12.5 3C14.4697 6.15517 15.3497 9.86949 15.005 13.573M22 22L17 17M17 22L22 17" stroke="#CE2C31" stroke-width="1.5" stroke-linecap="round" stroke-linejoin="round"/>
</svg>
