<svg width="24" height="24" viewBox="0 0 24 24" fill="none" xmlns="http://www.w3.org/2000/svg">
<path d="M10.7484 3.00008C10.649 2.99867 10.5503 3.01703 10.4581 3.05409C10.3659 3.09115 10.2819 3.14617 10.2111 3.21595C10.1404 3.28574 10.0842 3.36889 10.0458 3.46059C10.0074 3.55228 9.98769 3.65068 9.98769 3.75007C9.98769 3.84947 10.0074 3.94787 10.0458 4.03956C10.0842 4.13126 10.1404 4.21441 10.2111 4.28419C10.2819 4.35398 10.3659 4.409 10.4581 4.44606C10.5503 4.48312 10.649 4.50148 10.7484 4.50007H16.2484C16.3478 4.50148 16.4464 4.48312 16.5387 4.44606C16.6309 4.409 16.7148 4.35398 16.7856 4.28419C16.8564 4.21441 16.9126 4.13126 16.9509 4.03956C16.9893 3.94787 17.0091 3.84947 17.0091 3.75007C17.0091 3.65068 16.9893 3.55228 16.9509 3.46059C16.9126 3.36889 16.8564 3.28574 16.7856 3.21595C16.7148 3.14617 16.6309 3.09115 16.5387 3.05409C16.4464 3.01703 16.3478 2.99867 16.2484 3.00008H10.7484ZM9.99056 5.50007C8.99644 5.50007 8.04252 5.89503 7.33919 6.59773C7.33919 6.5974 7.33919 6.59806 7.33919 6.59773L5.43782 8.50007H4.24837C4.04946 8.50009 3.85871 8.57912 3.71806 8.71976C3.57741 8.86041 3.49839 9.05117 3.49837 9.25007V16.7501C3.49839 16.949 3.57741 17.1397 3.71806 17.2804C3.85871 17.421 4.04946 17.5 4.24837 17.5001H5.39681L7.07259 19.5108C7.59485 20.1375 8.3694 20.5001 9.18489 20.5001H15.0062C16.0003 20.5001 16.9542 20.1051 17.6575 19.4024C17.6575 19.4021 17.6575 19.4027 17.6575 19.4024L19.6937 17.3663C20.2092 16.8508 20.4993 16.151 20.4993 15.4219V8.25007C20.4987 6.74037 19.2583 5.50007 17.7484 5.50007H9.99056ZM9.99056 7.00007H17.7484C18.4475 7.00007 18.999 7.55078 18.9993 8.25007V15.4219C18.9993 15.7529 18.8667 16.0712 18.6322 16.3057L16.597 18.3409C16.1743 18.7632 15.6031 19.0001 15.0062 19.0001H9.18489C8.81338 19.0001 8.46266 18.8361 8.22493 18.5508L6.32454 16.2696C6.25412 16.1852 6.16601 16.1173 6.06644 16.0707C5.96688 16.0242 5.85829 16 5.74837 16.0001H4.99837V10.0001H5.74837C5.94727 10 6.13801 9.921 6.27864 9.78035L8.39974 7.65925C8.82241 7.23696 9.39367 7.00007 9.99056 7.00007ZM12.7249 9.00007C12.7114 9.00007 12.6979 9.00103 12.6849 9.00203C12.5914 9.00953 12.5054 9.04135 12.4339 9.09285C12.4009 9.11635 12.3706 9.14435 12.3441 9.17585C12.3351 9.18685 12.3262 9.19803 12.3177 9.21003L9.59505 12.9385C9.49455 13.076 9.47105 13.2547 9.53255 13.4132C9.59405 13.5717 9.73176 13.6887 9.89876 13.7227L11.7699 14.1075L11.765 16.4991C11.7645 16.7156 11.9037 16.9077 12.1097 16.9747C12.1607 16.9917 12.213 17.0001 12.265 17.0001C12.4215 17.0001 12.5733 16.926 12.6693 16.795L15.3949 13.0616C15.4944 12.9241 15.5179 12.7455 15.4564 12.587C15.3949 12.4285 15.2572 12.3114 15.0902 12.2774L13.22 11.8926L13.224 9.5362C13.225 9.5242 13.2259 9.51257 13.2259 9.50007C13.2259 9.22557 13.0062 9.00307 12.7327 9.00007H12.7249ZM22.2367 9.48933C22.0379 9.49243 21.8485 9.5743 21.7101 9.71694C21.5717 9.85958 21.4955 10.0513 21.4984 10.2501V15.2501C21.497 15.3495 21.5153 15.4481 21.5524 15.5404C21.5894 15.6326 21.6445 15.7165 21.7142 15.7873C21.784 15.8581 21.8672 15.9143 21.9589 15.9526C22.0506 15.991 22.149 16.0108 22.2484 16.0108C22.3478 16.0108 22.4462 15.991 22.5379 15.9526C22.6296 15.9143 22.7127 15.8581 22.7825 15.7873C22.8523 15.7165 22.9073 15.6326 22.9444 15.5404C22.9814 15.4481 22.9998 15.3495 22.9984 15.2501V10.2501C22.9998 10.1497 22.9811 10.05 22.9433 9.95703C22.9055 9.86401 22.8494 9.77953 22.7784 9.70859C22.7074 9.63765 22.6228 9.58169 22.5298 9.54402C22.4367 9.50636 22.337 9.48776 22.2367 9.48933ZM1.73665 9.98933C1.53791 9.99243 1.34852 10.0743 1.2101 10.2169C1.07167 10.3596 0.995517 10.5513 0.998368 10.7501V15.2501C0.996963 15.3495 1.01532 15.4481 1.05238 15.5404C1.08944 15.6326 1.14446 15.7165 1.21425 15.7873C1.28403 15.8581 1.36719 15.9143 1.45888 15.9526C1.55057 15.991 1.64897 16.0108 1.74837 16.0108C1.84776 16.0108 1.94616 15.991 2.03786 15.9526C2.12955 15.9143 2.21271 15.8581 2.28249 15.7873C2.35227 15.7165 2.40729 15.6326 2.44435 15.5404C2.48141 15.4481 2.49977 15.3495 2.49837 15.2501V10.7501C2.49981 10.6497 2.48108 10.55 2.4433 10.457C2.40552 10.364 2.34945 10.2795 2.27841 10.2086C2.20738 10.1376 2.12283 10.0817 2.02977 10.044C1.9367 10.0064 1.83703 9.98776 1.73665 9.98933Z" fill="white"/>
</svg>
