<svg width="16" height="16" viewBox="0 0 16 16" fill="none" xmlns="http://www.w3.org/2000/svg">
<path d="M4.81864 11.1822C4.40031 10.7646 4.06844 10.2686 3.84201 9.72259C3.61557 9.17659 3.49902 8.5913 3.49902 8.00021C3.49902 7.40912 3.61557 6.82383 3.84201 6.27783" stroke="#CE2C31" stroke-width="1.13333" stroke-linecap="round" stroke-linejoin="round"/>
<path d="M11.1826 4.81787C11.6009 5.23548 11.9328 5.73147 12.1592 6.27747C12.3857 6.82347 12.5022 7.40876 12.5022 7.99985C12.5022 8.59094 12.3857 9.17623 12.1592 9.72223" stroke="#CE2C31" stroke-width="1.13333" stroke-linecap="round" stroke-linejoin="round"/>
<path d="M3.0498 12.9498C2.39908 12.3002 1.88283 11.5286 1.5306 10.6793C1.17837 9.82997 0.99707 8.91952 0.99707 8.00004C0.99707 7.08057 1.17837 6.17012 1.5306 5.32078C1.88283 4.47145 2.39908 3.6999 3.0498 3.05029" stroke="#CE2C31" stroke-width="1.13333" stroke-linecap="round" stroke-linejoin="round"/>
<path d="M12.9502 3.05029C13.6009 3.6999 14.1172 4.47145 14.4694 5.32078C14.8216 6.17012 15.0029 7.08057 15.0029 8.00004C15.0029 8.91952 14.8216 9.82997 14.4694 10.6793C14.1172 11.5286 13.6009 12.3002 12.9502 12.9498" stroke="#CE2C31" stroke-width="1.13333" stroke-linecap="round" stroke-linejoin="round"/>
<path d="M8 1.3335L8 6.00016" stroke="#CE2C31" stroke-width="1.13333" stroke-linecap="round"/>
<path d="M8 10L8 14.6667" stroke="#CE2C31" stroke-width="1.13333" stroke-linecap="round"/>
<path d="M4.36426 4L11.637 12" stroke="#CE2C31" stroke-width="1.13333" stroke-linecap="round" stroke-linejoin="round"/>
</svg>