<svg width="40" height="40" viewBox="0 0 40 40" fill="none" xmlns="http://www.w3.org/2000/svg">
<path d="M20 31.6667C20.4082 31.6667 20.8022 31.8166 21.1073 32.0879C21.4124 32.3591 21.6072 32.7329 21.655 33.1383L21.6667 33.3333V35C21.6662 35.4248 21.5035 35.8334 21.2119 36.1423C20.9203 36.4512 20.5218 36.6371 20.0977 36.662C19.6736 36.6869 19.256 36.5489 18.9303 36.2762C18.6045 36.0036 18.3952 35.6168 18.345 35.195L18.3333 35V33.3333C18.3333 32.8913 18.5089 32.4674 18.8215 32.1548C19.1341 31.8423 19.558 31.6667 20 31.6667Z" fill="#202020"/>
<path d="M30.5217 28.1834L30.6783 28.3217L31.845 29.4884C32.1439 29.7883 32.3175 30.1907 32.3304 30.614C32.3433 31.0372 32.1947 31.4495 31.9146 31.7671C31.6345 32.0848 31.2441 32.2839 30.8226 32.324C30.401 32.3642 29.98 32.2424 29.645 31.9834L29.4883 31.845L28.3217 30.6784C28.0341 30.3912 27.8613 30.0089 27.8358 29.6034C27.8103 29.1978 27.9339 28.7968 28.1833 28.476C28.4327 28.1551 28.7907 27.9364 29.19 27.8611C29.5894 27.7857 30.0025 27.8588 30.3517 28.0667L30.5217 28.1834Z" fill="#202020"/>
<path d="M11.6784 28.3216C11.9653 28.6086 12.1377 28.9905 12.1632 29.3955C12.1886 29.8006 12.0654 30.201 11.8167 30.5216L11.6784 30.6783L10.5117 31.845C10.2118 32.1439 9.80931 32.3174 9.38606 32.3304C8.96281 32.3433 8.55051 32.1946 8.2329 31.9146C7.91529 31.6345 7.71619 31.2441 7.67603 30.8225C7.63588 30.401 7.75768 29.98 8.0167 29.645L8.15503 29.4883L9.3217 28.3216C9.63424 28.0092 10.0581 27.8337 10.5 27.8337C10.942 27.8337 11.3658 28.0092 11.6784 28.3216Z" fill="#202020"/>
<path d="M6.66666 18.3333C7.09146 18.3338 7.50005 18.4965 7.80894 18.7881C8.11784 19.0797 8.30372 19.4783 8.32861 19.9023C8.35351 20.3264 8.21554 20.744 7.94289 21.0697C7.67024 21.3955 7.28349 21.6048 6.86166 21.655L6.66666 21.6667H4.99999C4.5752 21.6662 4.16661 21.5035 3.85771 21.2119C3.54882 20.9203 3.36294 20.5218 3.33804 20.0977C3.31315 19.6736 3.45112 19.256 3.72377 18.9303C3.99642 18.6045 4.38317 18.3952 4.80499 18.345L4.99999 18.3333H6.66666Z" fill="#202020"/>
<path d="M35 18.3333C35.4248 18.3338 35.8334 18.4965 36.1423 18.7881C36.4512 19.0797 36.6371 19.4783 36.6619 19.9023C36.6868 20.3264 36.5489 20.744 36.2762 21.0697C36.0036 21.3955 35.6168 21.6048 35.195 21.655L35 21.6667H33.3333C32.9085 21.6662 32.4999 21.5035 32.191 21.2119C31.8822 20.9203 31.6963 20.5218 31.6714 20.0977C31.6465 19.6736 31.7845 19.256 32.0571 18.9303C32.3298 18.6045 32.7165 18.3952 33.1383 18.345L33.3333 18.3333H35Z" fill="#202020"/>
<path d="M10.355 8.01663L10.5117 8.15497L11.6784 9.32163C11.9773 9.62156 12.1508 10.024 12.1637 10.4473C12.1767 10.8705 12.028 11.2828 11.7479 11.6004C11.4679 11.918 11.0774 12.1171 10.6559 12.1573C10.2344 12.1975 9.81334 12.0757 9.47835 11.8166L9.32168 11.6783L8.15502 10.5116C7.8685 10.2244 7.69657 9.84259 7.67146 9.43769C7.64635 9.03278 7.76978 8.63263 8.01862 8.31222C8.26746 7.99182 8.62461 7.77318 9.02313 7.69729C9.42165 7.62139 9.83417 7.69345 10.1834 7.89997L10.355 8.01663Z" fill="#202020"/>
<path d="M31.845 8.15502C32.132 8.44201 32.3043 8.82384 32.3298 9.22888C32.3553 9.63393 32.2321 10.0343 31.9833 10.355L31.845 10.5117L30.6783 11.6784C30.3784 11.9773 29.9759 12.1508 29.5527 12.1637C29.1294 12.1767 28.7171 12.028 28.3995 11.7479C28.0819 11.4679 27.8828 11.0774 27.8427 10.6559C27.8025 10.2344 27.9243 9.81334 28.1833 9.47835L28.3217 9.32169L29.4883 8.15502C29.8009 7.84257 30.2247 7.66704 30.6667 7.66704C31.1086 7.66704 31.5324 7.84257 31.845 8.15502Z" fill="#202020"/>
<path d="M20 3.33334C20.4082 3.3334 20.8022 3.48327 21.1073 3.75454C21.4124 4.0258 21.6072 4.39959 21.655 4.80501L21.6667 5.00001V6.66668C21.6662 7.09148 21.5035 7.50006 21.2119 7.80896C20.9203 8.11785 20.5218 8.30373 20.0977 8.32863C19.6736 8.35353 19.256 8.21555 18.9303 7.9429C18.6045 7.67025 18.3952 7.2835 18.345 6.86168L18.3333 6.66668V5.00001C18.3333 4.55798 18.5089 4.13406 18.8215 3.8215C19.1341 3.50894 19.558 3.33334 20 3.33334Z" fill="#202020"/>
<path d="M20 11.6667C21.6328 11.6666 23.2297 12.1462 24.5922 13.0458C25.9548 13.9455 27.023 15.2257 27.6643 16.7273C28.3055 18.2289 28.4915 19.8858 28.1991 21.4922C27.9068 23.0986 27.1489 24.5837 26.0197 25.7631C24.8905 26.9425 23.4397 27.7642 21.8476 28.1261C20.2554 28.488 18.592 28.3742 17.0639 27.7988C15.5358 27.2234 14.2105 26.2118 13.2524 24.8896C12.2944 23.5674 11.7459 21.9929 11.675 20.3617L11.6667 20L11.675 19.6383C11.7682 17.4929 12.686 15.4663 14.237 13.9811C15.7881 12.4959 17.8526 11.6668 20 11.6667Z" fill="#202020"/>
<path d="M20 31.6667C20.4082 31.6667 20.8022 31.8166 21.1073 32.0879C21.4124 32.3591 21.6072 32.7329 21.655 33.1383L21.6667 33.3333V35C21.6662 35.4248 21.5035 35.8334 21.2119 36.1423C20.9203 36.4512 20.5218 36.6371 20.0977 36.662C19.6736 36.6869 19.256 36.5489 18.9303 36.2762C18.6045 36.0036 18.3952 35.6168 18.345 35.195L18.3333 35V33.3333C18.3333 32.8913 18.5089 32.4674 18.8215 32.1548C19.1341 31.8423 19.558 31.6667 20 31.6667Z" stroke="#646464"/>
<path d="M30.5217 28.1834L30.6783 28.3217L31.845 29.4884C32.1439 29.7883 32.3175 30.1907 32.3304 30.614C32.3433 31.0372 32.1947 31.4495 31.9146 31.7671C31.6345 32.0848 31.2441 32.2839 30.8226 32.324C30.401 32.3642 29.98 32.2424 29.645 31.9834L29.4883 31.845L28.3217 30.6784C28.0341 30.3912 27.8613 30.0089 27.8358 29.6034C27.8103 29.1978 27.9339 28.7968 28.1833 28.476C28.4327 28.1551 28.7907 27.9364 29.19 27.8611C29.5894 27.7857 30.0025 27.8588 30.3517 28.0667L30.5217 28.1834Z" stroke="#646464"/>
<path d="M11.6784 28.3216C11.9653 28.6086 12.1377 28.9905 12.1632 29.3955C12.1886 29.8006 12.0654 30.201 11.8167 30.5216L11.6784 30.6783L10.5117 31.845C10.2118 32.1439 9.80931 32.3174 9.38606 32.3304C8.96281 32.3433 8.55051 32.1946 8.2329 31.9146C7.91529 31.6345 7.71619 31.2441 7.67603 30.8225C7.63588 30.401 7.75768 29.98 8.0167 29.645L8.15503 29.4883L9.3217 28.3216C9.63424 28.0092 10.0581 27.8337 10.5 27.8337C10.942 27.8337 11.3658 28.0092 11.6784 28.3216Z" stroke="#646464"/>
<path d="M6.66666 18.3333C7.09146 18.3338 7.50005 18.4965 7.80894 18.7881C8.11784 19.0797 8.30372 19.4783 8.32861 19.9023C8.35351 20.3264 8.21554 20.744 7.94289 21.0697C7.67024 21.3955 7.28349 21.6048 6.86166 21.655L6.66666 21.6667H4.99999C4.5752 21.6662 4.16661 21.5035 3.85771 21.2119C3.54882 20.9203 3.36294 20.5218 3.33804 20.0977C3.31315 19.6736 3.45112 19.256 3.72377 18.9303C3.99642 18.6045 4.38317 18.3952 4.80499 18.345L4.99999 18.3333H6.66666Z" stroke="#646464"/>
<path d="M35 18.3333C35.4248 18.3338 35.8334 18.4965 36.1423 18.7881C36.4512 19.0797 36.6371 19.4783 36.6619 19.9023C36.6868 20.3264 36.5489 20.744 36.2762 21.0697C36.0036 21.3955 35.6168 21.6048 35.195 21.655L35 21.6667H33.3333C32.9085 21.6662 32.4999 21.5035 32.191 21.2119C31.8822 20.9203 31.6963 20.5218 31.6714 20.0977C31.6465 19.6736 31.7845 19.256 32.0571 18.9303C32.3298 18.6045 32.7165 18.3952 33.1383 18.345L33.3333 18.3333H35Z" stroke="#646464"/>
<path d="M10.355 8.01663L10.5117 8.15497L11.6784 9.32163C11.9773 9.62156 12.1508 10.024 12.1637 10.4473C12.1767 10.8705 12.028 11.2828 11.7479 11.6004C11.4679 11.918 11.0774 12.1171 10.6559 12.1573C10.2344 12.1975 9.81334 12.0757 9.47835 11.8166L9.32168 11.6783L8.15502 10.5116C7.8685 10.2244 7.69657 9.84259 7.67146 9.43769C7.64635 9.03278 7.76978 8.63263 8.01862 8.31222C8.26746 7.99182 8.62461 7.77318 9.02313 7.69729C9.42165 7.62139 9.83417 7.69345 10.1834 7.89997L10.355 8.01663Z" stroke="#646464"/>
<path d="M31.845 8.15502C32.132 8.44201 32.3043 8.82384 32.3298 9.22888C32.3553 9.63393 32.2321 10.0343 31.9833 10.355L31.845 10.5117L30.6783 11.6784C30.3784 11.9773 29.9759 12.1508 29.5527 12.1637C29.1294 12.1767 28.7171 12.028 28.3995 11.7479C28.0819 11.4679 27.8828 11.0774 27.8427 10.6559C27.8025 10.2344 27.9243 9.81334 28.1833 9.47835L28.3217 9.32169L29.4883 8.15502C29.8009 7.84257 30.2247 7.66704 30.6667 7.66704C31.1086 7.66704 31.5324 7.84257 31.845 8.15502Z" stroke="#646464"/>
<path d="M20 3.33334C20.4082 3.3334 20.8022 3.48327 21.1073 3.75454C21.4124 4.0258 21.6072 4.39959 21.655 4.80501L21.6667 5.00001V6.66668C21.6662 7.09148 21.5035 7.50006 21.2119 7.80896C20.9203 8.11785 20.5218 8.30373 20.0977 8.32863C19.6736 8.35353 19.256 8.21555 18.9303 7.9429C18.6045 7.67025 18.3952 7.2835 18.345 6.86168L18.3333 6.66668V5.00001C18.3333 4.55798 18.5089 4.13406 18.8215 3.8215C19.1341 3.50894 19.558 3.33334 20 3.33334Z" stroke="#646464"/>
<path d="M20 11.6667C21.6328 11.6666 23.2297 12.1462 24.5922 13.0458C25.9548 13.9455 27.023 15.2257 27.6643 16.7273C28.3055 18.2289 28.4915 19.8858 28.1991 21.4922C27.9068 23.0986 27.1489 24.5837 26.0197 25.7631C24.8905 26.9425 23.4397 27.7642 21.8476 28.1261C20.2554 28.488 18.592 28.3742 17.0639 27.7988C15.5358 27.2234 14.2105 26.2118 13.2524 24.8896C12.2944 23.5674 11.7459 21.9929 11.675 20.3617L11.6667 20L11.675 19.6383C11.7682 17.4929 12.686 15.4663 14.237 13.9811C15.7881 12.4959 17.8526 11.6668 20 11.6667Z" stroke="#646464"/>
</svg>
