<svg style="margin:0 5px" width="24" height="24" viewBox="0 0 24 24" fill="none" xmlns="http://www.w3.org/2000/svg">
<path d="M17.5323 9.1943C16.9891 9.1943 16.5429 9.6405 16.5429 10.1837V14.3062C16.5429 14.8493 16.9891 15.2955 17.5323 15.2955C18.0755 15.2955 18.5217 14.8493 18.5217 14.3062V10.1837C18.5217 9.63565 18.0755 9.1943 17.5323 9.1943ZM5.98939 9.1943C5.4462 9.1943 5 9.6405 5 10.1837V14.3062C5 14.8493 5.4462 15.2955 5.98939 15.2955C6.53259 15.2955 6.97878 14.8493 6.97878 14.3062V10.1837C6.97878 9.63565 6.53259 9.1943 5.98939 9.1943ZM16.1743 9.36405V15.7611C16.1743 16.3528 15.699 16.8281 15.1073 16.8281H14.3992V19.0106C14.3992 19.5538 13.953 20 13.4098 20C12.8666 20 12.4204 19.5538 12.4204 19.0106V16.8281H11.1012V19.0106C11.1012 19.5538 10.655 20 10.1119 20C9.56866 20 9.12246 19.5538 9.12246 19.0106V16.8281H8.41437C7.82267 16.8281 7.34738 16.3528 7.34738 15.7611V9.36405H16.1743ZM13.9239 5.46954L14.6223 4.20855C14.6611 4.14065 14.6369 4.05335 14.569 4.0194C14.5496 4.0097 14.5253 4 14.5011 4C14.4526 4 14.4041 4.02425 14.3798 4.07275L13.6717 5.34344C13.0946 5.08639 12.4447 4.94089 11.7608 4.94089C11.077 4.94089 10.4271 5.08639 9.84995 5.34344L9.14671 4.07275C9.10791 4.00485 9.02546 3.9806 8.95756 4.0194C8.88966 4.0582 8.86541 4.14065 8.90421 4.20855L9.60261 5.46954C8.25917 6.16793 7.35708 7.49197 7.35223 9.01485H16.1791C16.1743 7.49197 15.2674 6.16793 13.9239 5.46954ZM9.72386 7.39982C9.52016 7.39982 9.35526 7.23492 9.35526 7.03122C9.35526 6.82752 9.52016 6.66263 9.72386 6.66263C9.92755 6.66263 10.0925 6.82752 10.0925 7.03122C10.0925 7.23492 9.92755 7.39982 9.72386 7.39982ZM13.7978 7.39982C13.5941 7.39982 13.4292 7.23492 13.4292 7.03122C13.4292 6.82752 13.5941 6.66263 13.7978 6.66263C14.0015 6.66263 14.1664 6.82752 14.1664 7.03122C14.1664 7.23492 14.0015 7.39982 13.7978 7.39982Z" fill="#77C159"/>
</svg>
