<svg style="margin:0 5px" width="24" height="24" viewBox="0 0 24 24" fill="none" xmlns="http://www.w3.org/2000/svg">
<path d="M12.2046 8.30985C11.6121 8.30985 10.695 7.63618 9.7291 7.66053C8.45481 7.67676 7.28604 8.39913 6.62861 9.54355C5.30562 11.8405 6.28771 15.2332 7.57823 17.1C8.21132 18.009 8.95803 19.0317 9.94824 18.9992C10.8979 18.9587 11.255 18.3824 12.4075 18.3824C13.552 18.3824 13.8766 18.9992 14.8831 18.9749C15.9057 18.9587 16.5551 18.0496 17.18 17.1325C17.9024 16.0773 18.2027 15.0546 18.2189 14.9978C18.1946 14.9897 16.2304 14.2349 16.206 11.9623C16.1898 10.063 17.7563 9.15396 17.8293 9.11338C16.9365 7.80663 15.5648 7.66053 15.086 7.62806C13.836 7.53067 12.789 8.30985 12.2046 8.30985ZM14.3149 6.39436C14.8425 5.76128 15.1915 4.87658 15.0941 4C14.3393 4.03247 13.4302 4.50322 12.8864 5.13631C12.3994 5.69634 11.9774 6.59727 12.091 7.45762C12.927 7.52255 13.7873 7.02745 14.3149 6.39436Z" fill="#888888"/>
</svg>
