<svg style="margin:0 5px" width="24" height="24" viewBox="0 0 24 24" fill="none" xmlns="http://www.w3.org/2000/svg">
<path d="M17.2041 2H6.59184C4.05584 2 2 4.05584 2 6.59184V17.2041C2 19.7401 4.05584 21.7959 6.59184 21.7959H17.2041C19.7401 21.7959 21.7959 19.7401 21.7959 17.2041V6.59184C21.7959 4.05584 19.7401 2 17.2041 2Z" fill="url(#paint0_linear_37148_74788)" stroke="#D9D9D9"/>
<path fill-rule="evenodd" clip-rule="evenodd" d="M5.25323 15.9327H4.78759V9.71031H5.25323V15.9327ZM5.01378 8.18501C4.81742 8.18501 4.65503 8.02924 4.65503 7.83288C4.65503 7.63071 4.81659 7.47412 5.01378 7.47412C5.21595 7.47412 5.37668 7.62989 5.37668 7.83288C5.37668 8.02924 5.21595 8.18501 5.01378 8.18501Z" fill="url(#paint1_linear_37148_74788)"/>
<path fill-rule="evenodd" clip-rule="evenodd" d="M9.776 16.0541C7.49916 16.0541 6.06079 14.3961 6.06079 11.7606C6.06079 9.13824 7.50579 7.47375 9.776 7.47375C12.0462 7.47375 13.4904 9.13835 13.4904 11.7606C13.4904 14.3962 12.052 16.0541 9.776 16.0541ZM9.776 7.90202C7.79416 7.90202 6.52895 9.39835 6.52895 11.7605C6.52895 14.1244 7.79997 15.6265 9.776 15.6265C11.7578 15.6265 13.023 14.1244 13.023 11.7605C13.023 9.39753 11.7578 7.90202 9.776 7.90202Z" fill="url(#paint2_linear_37148_74788)"/>
<path fill-rule="evenodd" clip-rule="evenodd" d="M16.806 16.0541C15.0968 16.0541 13.8713 15.0888 13.8018 13.7085H14.2583C14.3279 14.8403 15.3909 15.6324 16.8408 15.6324C18.2559 15.6324 19.2436 14.8287 19.2436 13.7433C19.2436 12.87 18.6545 12.3679 17.2568 12.0157L16.2691 11.773C14.7272 11.3794 14.0271 10.7555 14.0271 9.71071C14.0271 8.41071 15.2409 7.47449 16.7605 7.47449C18.3314 7.47449 19.5045 8.39914 19.5568 9.62377H19.1003C19.0365 8.62455 18.0605 7.89622 16.7488 7.89622C15.4944 7.89622 14.4952 8.64771 14.4952 9.69908C14.4952 10.5318 15.1075 11.0107 16.4472 11.3454L17.3776 11.5824C18.9892 11.9809 19.7116 12.5998 19.7116 13.7084C19.7116 15.0887 18.5508 16.054 16.8059 16.054L16.806 16.0541Z" fill="url(#paint3_linear_37148_74788)"/>
<defs>
<linearGradient id="paint0_linear_37148_74788" x1="11.898" y1="11.898" x2="11.898" y2="21.7959" gradientUnits="userSpaceOnUse">
<stop stop-color="white"/>
<stop offset="1" stop-color="#E9E5E5"/>
</linearGradient>
<linearGradient id="paint1_linear_37148_74788" x1="5.01586" y1="7.47412" x2="5.01586" y2="14.8374" gradientUnits="userSpaceOnUse">
<stop stop-color="#0339F1"/>
<stop offset="1" stop-color="#01ADE5"/>
</linearGradient>
<linearGradient id="paint2_linear_37148_74788" x1="7.10175" y1="8.29186" x2="12.2349" y2="13.2001" gradientUnits="userSpaceOnUse">
<stop stop-color="#0756EE"/>
<stop offset="0.37448" stop-color="#00A3F5"/>
<stop offset="0.71708" stop-color="#18B5B6"/>
<stop offset="1" stop-color="#80DF43"/>
</linearGradient>
<linearGradient id="paint3_linear_37148_74788" x1="14.571" y1="7.73812" x2="20.8617" y2="12.8993" gradientUnits="userSpaceOnUse">
<stop stop-color="#20BBA6"/>
<stop offset="0.4988" stop-color="#9BEC23"/>
<stop offset="1" stop-color="#D9EF35"/>
</linearGradient>
</defs>
</svg>
