<svg style="margin:0 5px" width="24" height="24" viewBox="0 0 24 24" fill="none" xmlns="http://www.w3.org/2000/svg">
<path fill-rule="evenodd" clip-rule="evenodd" d="M17.7378 16.6227L17.7374 16.6221C17.6249 16.4951 17.5709 16.2603 17.5133 16.0096L17.5133 16.0096L17.5123 16.0051C17.4544 15.7529 17.3897 15.481 17.1827 15.3047L17.1814 15.3036C17.1404 15.2678 17.0982 15.2376 17.0559 15.2124C17.0134 15.1872 16.9703 15.1667 16.9272 15.1504C17.215 14.2969 17.1021 13.447 16.8115 12.679C16.4551 11.7363 15.8327 10.9151 15.3572 10.3533L15.3261 10.3141C14.805 9.65707 14.3049 9.02652 14.3149 8.10367C14.3156 8.04653 14.3164 7.98745 14.3173 7.92667C14.3379 6.45956 14.3724 4.00341 11.9452 4.00001C11.8424 3.99982 11.7351 4.00411 11.6234 4.01306C9.25914 4.20337 9.39869 6.32516 9.48239 7.5977C9.49869 7.84551 9.51287 8.06111 9.50603 8.22398C9.45436 8.95477 9.30626 9.53075 8.80358 10.2451C8.21324 10.9472 7.38173 12.0837 6.98798 13.2668C6.80221 13.825 6.71379 14.3941 6.7953 14.9328C6.76975 14.9557 6.7455 14.9798 6.72219 15.0044C6.63214 15.1007 6.55429 15.2074 6.48024 15.309L6.48024 15.309C6.4118 15.4028 6.34662 15.4922 6.27808 15.5647C6.16437 15.6783 6.00957 15.7318 5.83692 15.7914L5.83691 15.7914L5.8369 15.7914C5.80707 15.8017 5.77671 15.8122 5.74593 15.8232C5.53703 15.8982 5.30779 16.0086 5.16865 16.2757C5.16865 16.2757 5.16865 16.2759 5.16846 16.2759L5.16833 16.2762C5.16818 16.2766 5.168 16.2769 5.16772 16.2772C5.10225 16.3994 5.08098 16.5313 5.08098 16.665C5.08098 16.7887 5.09926 16.914 5.11773 17.0347L5.12147 17.0591C5.15859 17.3011 5.19345 17.5284 5.14347 17.684C4.97821 18.1359 4.95695 18.4483 5.07334 18.6752C5.1901 18.9023 5.42978 19.0025 5.70079 19.0592C5.87212 19.0949 6.06262 19.1166 6.26132 19.1391C6.69126 19.188 7.15961 19.2412 7.55519 19.4509L7.605 19.3571L7.55575 19.4511C8.17501 19.7749 8.80284 19.8898 9.30365 19.7755C9.66699 19.6927 9.9617 19.4763 10.1132 19.1435C10.2966 19.1426 10.4885 19.1058 10.7115 19.0629C10.9644 19.0142 11.2574 18.9579 11.6234 18.9378C11.8428 18.9201 12.0878 18.9556 12.3554 18.9944L12.3555 18.9944L12.3555 18.9944H12.3555C12.658 19.0382 12.9894 19.0863 13.3456 19.0665C13.3631 19.1392 13.3885 19.2094 13.4232 19.276L13.4243 19.2778C13.6845 19.7982 14.1679 20.0362 14.6833 19.9956C15.1992 19.9549 15.7478 19.6507 16.1914 19.123L16.11 19.0547L16.1919 19.1223C16.4896 18.7613 16.9256 18.5491 17.32 18.3572L17.32 18.3572L17.3201 18.3572L17.3201 18.3572C17.4857 18.2766 17.6439 18.1997 17.7815 18.1167C18.0141 17.9765 18.2026 17.8008 18.2174 17.5456C18.2319 17.2906 18.0821 17.0049 17.7378 16.6227ZM13.0535 8.32153C13.0044 8.22547 12.9043 8.13407 12.7338 8.06413L12.7334 8.06394L12.7329 8.06376C12.587 8.00129 12.4751 7.96269 12.3801 7.92993C12.2442 7.88307 12.143 7.84816 12.0265 7.77241C11.7044 7.56537 11.4382 7.49281 11.217 7.49375C11.1012 7.49412 10.9976 7.51464 10.9049 7.54672C10.6643 7.62948 10.4959 7.79254 10.3828 7.90207L10.3828 7.90212L10.3827 7.90214C10.3692 7.91526 10.3564 7.92762 10.3444 7.93897L10.3443 7.93916L10.3441 7.93953C10.3274 7.95536 10.3071 7.97011 10.2684 7.99824L10.2251 8.02981C10.1559 8.08036 10.0522 8.15646 9.90294 8.26837C9.77033 8.36779 9.72724 8.49723 9.77312 8.64887C9.81882 8.80052 9.96505 8.97547 10.2325 9.12674L10.2329 9.12712L10.2335 9.1273C10.3431 9.19171 10.4297 9.27092 10.5135 9.34743C10.5565 9.38679 10.5988 9.42544 10.6431 9.46099C10.7082 9.51322 10.7766 9.55985 10.8591 9.5951C10.9415 9.63035 11.0377 9.65423 11.1582 9.66131C11.441 9.67773 11.6492 9.59286 11.8329 9.48766C11.8933 9.45321 11.9507 9.41622 12.0068 9.38003L12.0068 9.38003L12.0068 9.38002L12.0068 9.38002L12.0068 9.38002L12.0068 9.38002C12.1218 9.3059 12.2316 9.2351 12.3518 9.19613L12.3522 9.19594L12.3526 9.19576C12.7192 9.08123 12.9808 8.8505 13.0626 8.63134C13.1037 8.52167 13.1024 8.41759 13.0535 8.32153ZM10.008 18.697L10.0078 18.6981V18.6994C9.96972 19.1982 9.68844 19.4697 9.25646 19.5684C8.82485 19.6671 8.23936 19.5688 7.6548 19.2631L7.65424 19.2629C7.20128 19.023 6.68824 18.9678 6.25184 18.9208L6.25181 18.9208C6.065 18.9007 5.89225 18.8822 5.74425 18.8512C5.49749 18.7998 5.33633 18.7222 5.26247 18.5782C5.18861 18.434 5.18693 18.1827 5.34398 17.7543L5.34472 17.7524L5.34528 17.7506C5.414 17.5388 5.37702 17.3094 5.34148 17.089C5.3368 17.06 5.33214 17.0311 5.32775 17.0024C5.29007 16.7564 5.27161 16.5324 5.35573 16.3765L5.35648 16.375C5.4641 16.1675 5.6219 16.0933 5.81774 16.0232C5.84878 16.012 5.88072 16.0013 5.91323 15.9903C6.08608 15.9322 6.27503 15.8685 6.42935 15.7137L6.43047 15.7128L6.4314 15.7119C6.51976 15.6187 6.59667 15.5131 6.67116 15.4108L6.67116 15.4108L6.67117 15.4108C6.73961 15.3168 6.80601 15.2257 6.87737 15.1495C7.00309 15.0152 7.12899 14.9262 7.31868 14.9249C7.32092 14.9251 7.32297 14.9251 7.32521 14.9249C7.35841 14.9251 7.39367 14.9279 7.43097 14.9337C7.68278 14.9718 7.90231 15.1478 8.11383 15.4347L8.7245 16.5477L8.72469 16.5482L8.72506 16.5486C8.8427 16.7943 9.05512 17.0578 9.27379 17.329L9.2738 17.329C9.3571 17.4324 9.4413 17.5368 9.52151 17.6418C9.81229 18.0223 10.0372 18.4045 10.008 18.697ZM16.4711 15.0878C16.5099 15.0869 16.5498 15.0867 16.5903 15.0882C16.713 14.689 16.4577 14.3965 15.767 14.0603C15.7206 14.0382 15.6747 14.0179 15.6297 13.9992C15.7219 13.6245 15.7036 13.2448 15.6176 12.8837C15.4292 12.0917 14.9113 11.3902 14.517 11.0412C14.444 11.0382 14.4511 11.102 14.5979 11.2445C14.9616 11.5791 15.7568 12.7805 15.3265 13.8961C15.2035 13.8646 15.0886 13.8495 14.9844 13.8527C14.8198 12.9434 14.439 12.1887 14.2474 11.8336C13.8872 11.1641 13.3269 9.79227 13.0859 8.8425C12.9457 9.04245 12.6993 9.21405 12.3891 9.31104C12.3889 9.31104 12.3887 9.31104 12.3886 9.31123C12.2924 9.34251 12.1928 9.40597 12.081 9.47717L12.081 9.47717C12.0222 9.51466 11.96 9.55429 11.8931 9.5925C11.7148 9.69453 11.5007 9.78406 11.2261 9.78406C11.2017 9.78406 11.1767 9.78332 11.1511 9.78182C10.8848 9.76634 10.7085 9.66842 10.5673 9.55501C10.5167 9.51427 10.4701 9.47206 10.4246 9.43073L10.4246 9.43073C10.3436 9.35721 10.2657 9.28652 10.173 9.23196L10.1727 9.23177C10.1232 9.20361 10.0122 9.12863 9.97979 9.10512C9.92775 10.0868 9.37469 11.2763 8.97254 12.1412L8.97253 12.1412L8.97247 12.1413C8.89038 12.3179 8.81458 12.4809 8.75061 12.6259C8.49153 13.2424 8.33728 13.9013 8.319 14.5475C7.63801 13.6395 8.13546 12.4763 8.40144 11.9723C8.69839 11.421 8.74464 11.2695 8.67265 11.3225C8.4048 11.7593 7.98513 12.4554 7.82173 13.1711C7.73649 13.544 7.72101 13.9217 7.83162 14.271C7.94204 14.6202 8.1778 14.9418 8.59972 15.2042V15.2044C9.17383 15.5565 9.56459 15.9089 9.79532 16.2211C10.026 16.5335 10.0984 16.807 10.0264 17.0008C9.99024 17.0978 9.91749 17.1731 9.81379 17.2203C9.73041 17.258 9.62726 17.278 9.50602 17.2778C9.56758 17.3554 9.62969 17.4339 9.69012 17.513C9.78469 17.6368 9.87664 17.7623 9.95666 17.889C11.1388 18.6959 12.531 18.3859 13.5341 17.6702L13.555 17.5987C13.6471 17.283 13.7333 16.9876 13.747 16.7654V16.765C13.7708 16.2896 13.796 15.8667 13.8831 15.5168C13.9704 15.1665 14.1275 14.8811 14.4149 14.7237C14.4612 14.6985 14.507 14.6784 14.5529 14.6623C14.5561 14.6329 14.5604 14.6036 14.5656 14.575C14.6481 14.0285 15.136 14.0019 15.7483 14.2712C16.3389 14.5383 16.5605 14.7716 16.4603 15.088L16.4673 15.0879L16.4711 15.0878ZM18.0051 17.5335C17.9961 17.6909 17.8822 17.8078 17.6716 17.9347C17.5538 18.0057 17.4107 18.0741 17.2551 18.1485C16.8545 18.34 16.3716 18.5708 16.0287 18.9863C15.615 19.4785 15.1106 19.7488 14.6665 19.7838C14.2224 19.8189 13.8393 19.6346 13.6132 19.1812L13.6128 19.1803L13.6123 19.1791C13.472 18.9124 13.5304 18.4918 13.6485 18.0479C13.6819 17.9222 13.7195 17.7954 13.7568 17.67C13.8509 17.3527 13.9427 17.0434 13.959 16.7781V16.7769C13.9829 16.3024 14.0096 15.888 14.0892 15.5681C14.169 15.2482 14.2946 15.0318 14.5169 14.91C14.5274 14.9044 14.5376 14.899 14.5479 14.894C14.5731 15.3049 14.7766 15.7242 15.1361 15.8148C15.5297 15.9186 16.0969 15.5809 16.3364 15.3054L16.382 15.3035C16.414 15.3022 16.4455 15.3008 16.4763 15.3C16.6865 15.295 16.8626 15.3071 17.0428 15.4645L17.0433 15.4651L17.0439 15.4655C17.1823 15.5828 17.2481 15.8044 17.3052 16.0525C17.3111 16.0781 17.3169 16.1041 17.3227 16.1301C17.3731 16.3558 17.4255 16.5909 17.579 16.7637L17.5792 16.7639L17.5794 16.7642C17.9085 17.1293 18.0142 17.3759 18.0051 17.5335ZM13.0859 7.2274C13.0874 7.4156 13.055 7.57582 12.9835 7.7394C12.9429 7.83266 12.8961 7.911 12.8399 7.9789C12.8209 7.96976 12.8011 7.96099 12.7806 7.9526C12.7095 7.92219 12.6467 7.8972 12.5904 7.87594C12.5459 7.85915 12.5091 7.84657 12.4733 7.8343L12.4447 7.82448C12.4551 7.81186 12.4688 7.79852 12.4833 7.78432L12.4833 7.78431C12.5146 7.7538 12.5499 7.71927 12.5663 7.67918C12.6029 7.59058 12.6208 7.50403 12.6242 7.40089C12.6242 7.39892 12.6245 7.39708 12.6248 7.39517C12.6251 7.39309 12.6255 7.39091 12.6255 7.38839C12.6275 7.28953 12.6145 7.20504 12.5856 7.11849C12.5553 7.02766 12.5169 6.96237 12.4613 6.9081C12.4056 6.85382 12.35 6.8292 12.2832 6.82696C12.28 6.82677 12.2771 6.82677 12.2739 6.82677C12.2112 6.82696 12.1567 6.84859 12.1004 6.8956C12.0413 6.94503 11.9974 7.00826 11.9609 7.0963C11.9245 7.18433 11.9066 7.27163 11.9031 7.37533C11.9025 7.37944 11.9025 7.38298 11.9025 7.38708C11.9012 7.44416 11.9049 7.49639 11.9137 7.54712C11.7854 7.48314 11.6212 7.43649 11.5078 7.40945C11.5013 7.36039 11.4975 7.30984 11.4964 7.25687V7.24251C11.4944 7.05487 11.5251 6.8939 11.5973 6.73051C11.6695 6.56693 11.7589 6.44942 11.8846 6.35373C12.0105 6.25823 12.1341 6.2144 12.2805 6.21291H12.2874C12.4307 6.21291 12.5532 6.25506 12.6791 6.34627C12.8069 6.43916 12.899 6.55518 12.9733 6.71745C13.046 6.87562 13.0811 7.03025 13.0847 7.2136C13.0846 7.21845 13.0846 7.22255 13.0859 7.2274ZM10.9208 7.41485C10.902 7.42026 10.8837 7.42605 10.8656 7.4322C10.763 7.46764 10.6815 7.50675 10.6028 7.55879C10.6105 7.50433 10.6116 7.44912 10.6056 7.38738C10.6051 7.38402 10.6051 7.38122 10.6051 7.37786C10.5969 7.29598 10.5795 7.22734 10.5506 7.15796C10.5198 7.08577 10.4853 7.03485 10.44 6.99568C10.399 6.96024 10.3602 6.94383 10.3173 6.9442C10.313 6.9442 10.3085 6.94439 10.304 6.94476C10.2559 6.94886 10.216 6.97237 10.1781 7.01844C10.1404 7.06432 10.1156 7.1214 10.0977 7.19713C10.0798 7.27267 10.0752 7.3469 10.0826 7.43214C10.0826 7.43382 10.0828 7.43535 10.083 7.43689L10.083 7.4369C10.0832 7.43844 10.0834 7.43998 10.0834 7.44166C10.0916 7.52428 10.1082 7.59292 10.1376 7.66231C10.1679 7.73375 10.2029 7.78467 10.2483 7.82384C10.2559 7.83037 10.2634 7.83634 10.2708 7.84156L10.2286 7.87452C10.2022 7.8952 10.1795 7.91306 10.1534 7.93208C10.1286 7.95017 10.0992 7.97181 10.0648 7.99718C9.99005 7.92704 9.93167 7.839 9.88056 7.7228C9.82013 7.58552 9.78786 7.44806 9.77816 7.28578V7.28448C9.76921 7.1222 9.78506 6.98268 9.82964 6.83832C9.87441 6.69395 9.93409 6.5895 10.0208 6.5037C10.1074 6.41771 10.1947 6.37444 10.2999 6.36903C10.3081 6.36865 10.3161 6.36847 10.3241 6.36847C10.4194 6.36865 10.5045 6.40036 10.5925 6.47068C10.688 6.54697 10.7602 6.64452 10.8206 6.78199C10.8813 6.91945 10.9135 7.05692 10.9225 7.21919V7.2205C10.9268 7.28858 10.9262 7.35274 10.9208 7.41485Z" fill="#2C1D00"/>
<path d="M12.1232 8.86283C11.8315 9.01489 11.4907 9.19931 11.1281 9.19931C10.7657 9.19931 10.4794 9.03181 10.2735 8.86861C10.1705 8.7871 10.0869 8.70596 10.0239 8.64702C9.91452 8.56068 9.92763 8.43958 9.97257 8.44315C10.0479 8.45256 10.0593 8.55174 10.1067 8.5961C10.1709 8.65616 10.2513 8.73394 10.3486 8.81116C10.5434 8.96541 10.803 9.11556 11.1281 9.11556C11.4527 9.11556 11.8315 8.92503 12.0628 8.79531C12.1938 8.72181 12.3605 8.59007 12.4966 8.4902C12.6007 8.4138 12.5969 8.32179 12.6828 8.33181C12.7688 8.34182 12.7052 8.43364 12.5848 8.53869C12.4644 8.64373 12.2762 8.78311 12.1232 8.86283Z" fill="#2C1D00"/>
<path d="M11.3994 7.80296C11.4115 7.84169 11.4739 7.83527 11.51 7.85385C11.5416 7.87014 11.567 7.90586 11.6026 7.90689C11.6366 7.90787 11.6894 7.89513 11.6938 7.86145C11.6997 7.81695 11.6347 7.78868 11.5929 7.77238C11.5391 7.7514 11.4701 7.74075 11.4197 7.76882C11.4081 7.77525 11.3955 7.79033 11.3994 7.80296V7.80296Z" fill="#2C1D00"/>
<path d="M11.0306 7.80296C11.0186 7.84169 10.9562 7.83527 10.9201 7.85385C10.8885 7.87014 10.863 7.90586 10.8274 7.90689C10.7935 7.90787 10.7406 7.89513 10.7362 7.86145C10.7304 7.81695 10.7954 7.78868 10.8372 7.77238C10.891 7.7514 10.9599 7.74075 11.0104 7.76882C11.0219 7.77525 11.0346 7.79033 11.0306 7.80296V7.80296Z" fill="#2C1D00"/>
</svg>
