<svg style="margin:0 5px" width="24" height="24" viewBox="0 0 24 24" fill="none" xmlns="http://www.w3.org/2000/svg">
<path d="M5.47776 10.525C4.65863 10.525 4 11.1892 4 12.0028C4 12.8164 4.66416 13.4805 5.47776 13.4805C6.29136 13.4805 6.95552 12.8164 6.95552 12.0028C6.95552 11.1836 6.29136 10.525 5.47776 10.525ZM16.0324 17.2386C15.324 17.6481 15.086 18.5503 15.49 19.2587C15.8996 19.9672 16.8017 20.2107 17.5102 19.8011C18.2186 19.3916 18.4566 18.4894 18.0526 17.781C17.6375 17.0781 16.7353 16.8345 16.0324 17.2386ZM8.68787 12.0028C8.68787 10.5416 9.41292 9.25203 10.5254 8.47164L9.44613 6.6618C8.15101 7.52521 7.19351 8.848 6.78948 10.3922C7.25439 10.7741 7.55326 11.3552 7.55326 12.0028C7.55326 12.6503 7.25439 13.2315 6.78948 13.6134C7.18798 15.1575 8.15101 16.4803 9.44613 17.3437L10.5254 15.5339C9.41292 14.7535 8.68787 13.4639 8.68787 12.0028ZM13.0049 7.68572C15.2631 7.68572 17.1117 9.41254 17.3054 11.6209L19.4141 11.5877C19.3089 9.96047 18.6005 8.49932 17.5046 7.42559C16.9401 7.63591 16.2925 7.6027 15.7335 7.28169C15.169 6.95514 14.8203 6.41274 14.7207 5.815C14.1727 5.66556 13.5971 5.58254 13.0049 5.58254C11.981 5.58254 11.018 5.82053 10.1601 6.2467L11.1895 8.08421C11.7375 7.82962 12.3574 7.68572 13.0049 7.68572ZM13.0049 16.3198C12.3574 16.3198 11.7375 16.1759 11.184 15.9213L10.1546 17.7588C11.0124 18.185 11.981 18.423 12.9994 18.423C13.5916 18.423 14.1672 18.34 14.7151 18.1905C14.8092 17.5983 15.1634 17.0504 15.728 16.7239C16.287 16.3973 16.9401 16.3696 17.4991 16.5799C18.5894 15.5062 19.3034 14.0451 19.4085 12.4179L17.2998 12.3847C17.1117 14.5875 15.2631 16.3198 13.0049 16.3198ZM16.0269 6.76143C16.7353 7.17099 17.6375 6.92747 18.047 6.21903C18.4566 5.51059 18.2131 4.60844 17.5046 4.19887C16.7962 3.7893 15.894 4.03283 15.4845 4.74127C15.0804 5.44971 15.324 6.35186 16.0269 6.76143Z" fill="#E95420"/>
</svg>
