<svg width="40" height="40" viewBox="0 0 40 40" fill="none" xmlns="http://www.w3.org/2000/svg">
<path d="M20 31.6667C20.4083 31.6668 20.8023 31.8166 21.1073 32.0879C21.4124 32.3592 21.6073 32.733 21.655 33.1384L21.6667 33.3334V35C21.6662 35.4248 21.5036 35.8334 21.212 36.1423C20.9203 36.4512 20.5218 36.6371 20.0977 36.662C19.6736 36.6869 19.2561 36.5489 18.9303 36.2763C18.6046 36.0036 18.3952 35.6169 18.345 35.195L18.3334 35V33.3334C18.3334 32.8913 18.509 32.4674 18.8215 32.1549C19.1341 31.8423 19.558 31.6667 20 31.6667Z" fill="#202020"/>
<path d="M30.5217 28.1834L30.6784 28.3217L31.845 29.4884C32.144 29.7883 32.3175 30.1908 32.3304 30.614C32.3433 31.0373 32.1947 31.4496 31.9146 31.7672C31.6346 32.0848 31.2441 32.2839 30.8226 32.324C30.401 32.3642 29.98 32.2424 29.645 31.9834L29.4884 31.8451L28.3217 30.6784C28.0341 30.3913 27.8613 30.009 27.8358 29.6034C27.8103 29.1978 27.9339 28.7969 28.1833 28.476C28.4327 28.1552 28.7907 27.9365 29.1901 27.8611C29.5894 27.7857 30.0025 27.8588 30.3517 28.0667L30.5217 28.1834Z" fill="#202020"/>
<path d="M11.6784 28.3217C11.9654 28.6087 12.1377 28.9905 12.1632 29.3955C12.1887 29.8006 12.0655 30.201 11.8167 30.5217L11.6784 30.6783L10.5117 31.845C10.2118 32.1439 9.80934 32.3175 9.38609 32.3304C8.96284 32.3433 8.55054 32.1946 8.23293 31.9146C7.91532 31.6345 7.71622 31.2441 7.67606 30.8225C7.63591 30.401 7.75771 29.98 8.01673 29.645L8.15506 29.4883L9.32173 28.3217C9.63427 28.0092 10.0581 27.8337 10.5001 27.8337C10.942 27.8337 11.3658 28.0092 11.6784 28.3217Z" fill="#202020"/>
<path d="M6.66669 18.3334C7.09149 18.3338 7.50008 18.4965 7.80897 18.7881C8.11787 19.0797 8.30375 19.4783 8.32864 19.9024C8.35354 20.3264 8.21557 20.744 7.94292 21.0698C7.67027 21.3955 7.28352 21.6049 6.86169 21.655L6.66669 21.6667H5.00003C4.57523 21.6662 4.16664 21.5036 3.85774 21.212C3.54885 20.9203 3.36297 20.5218 3.33807 20.0977C3.31318 19.6736 3.45115 19.2561 3.7238 18.9303C3.99645 18.6046 4.3832 18.3952 4.80503 18.345L5.00003 18.3334H6.66669Z" fill="#202020"/>
<path d="M35 18.3334C35.4248 18.3338 35.8334 18.4965 36.1423 18.7881C36.4512 19.0797 36.6371 19.4783 36.662 19.9024C36.6869 20.3264 36.5489 20.744 36.2762 21.0698C36.0036 21.3955 35.6169 21.6049 35.195 21.655L35 21.6667H33.3334C32.9086 21.6662 32.5 21.5036 32.1911 21.212C31.8822 20.9203 31.6963 20.5218 31.6714 20.0977C31.6465 19.6736 31.7845 19.2561 32.0571 18.9303C32.3298 18.6046 32.7165 18.3952 33.1384 18.345L33.3334 18.3334H35Z" fill="#202020"/>
<path d="M10.355 8.01666L10.5117 8.155L11.6784 9.32166C11.9773 9.62159 12.1508 10.0241 12.1638 10.4473C12.1767 10.8706 12.028 11.2829 11.748 11.6005C11.4679 11.9181 11.0775 12.1172 10.6559 12.1573C10.2344 12.1975 9.81337 12.0757 9.47838 11.8167L9.32171 11.6783L8.15505 10.5117C7.86853 10.2245 7.6966 9.84262 7.67149 9.43772C7.64638 9.03281 7.76981 8.63266 8.01865 8.31225C8.26749 7.99185 8.62464 7.77321 9.02316 7.69732C9.42168 7.62142 9.8342 7.69349 10.1834 7.9L10.355 8.01666Z" fill="#202020"/>
<path d="M31.845 8.15505C32.132 8.44204 32.3044 8.82387 32.3298 9.22892C32.3553 9.63396 32.2321 10.0344 31.9834 10.3551L31.845 10.5117L30.6784 11.6784C30.3784 11.9773 29.976 12.1508 29.5527 12.1638C29.1295 12.1767 28.7172 12.028 28.3996 11.748C28.0819 11.4679 27.8828 11.0775 27.8427 10.6559C27.8025 10.2344 27.9243 9.81337 28.1834 9.47838L28.3217 9.32172L29.4884 8.15505C29.8009 7.8426 30.2247 7.66707 30.6667 7.66707C31.1086 7.66707 31.5325 7.8426 31.845 8.15505Z" fill="#202020"/>
<path d="M20 3.33337C20.4083 3.33343 20.8023 3.4833 21.1073 3.75457C21.4124 4.02583 21.6073 4.39962 21.655 4.80504L21.6667 5.00004V6.66671C21.6662 7.09151 21.5036 7.50009 21.212 7.80899C20.9203 8.11788 20.5218 8.30377 20.0977 8.32866C19.6736 8.35356 19.2561 8.21558 18.9303 7.94293C18.6046 7.67028 18.3952 7.28353 18.345 6.86171L18.3334 6.66671V5.00004C18.3334 4.55801 18.509 4.13409 18.8215 3.82153C19.1341 3.50897 19.558 3.33337 20 3.33337Z" fill="#202020"/>
<path d="M20 11.6667C21.6328 11.6666 23.2297 12.1462 24.5923 13.0459C25.9548 13.9456 27.0231 15.2257 27.6643 16.7273C28.3056 18.2289 28.4915 19.8858 28.1992 21.4922C27.9068 23.0986 27.1489 24.5838 26.0198 25.7631C24.8906 26.9425 23.4398 27.7642 21.8476 28.1261C20.2554 28.488 18.592 28.3742 17.0639 27.7988C15.5359 27.2234 14.2105 26.2118 13.2525 24.8896C12.2944 23.5675 11.7459 21.993 11.675 20.3617L11.6667 20L11.675 19.6384C11.7682 17.493 12.6861 15.4663 14.2371 13.9811C15.7881 12.4959 17.8526 11.6668 20 11.6667Z" fill="#202020"/>
<path d="M20 31.6667C20.4083 31.6668 20.8023 31.8166 21.1073 32.0879C21.4124 32.3592 21.6073 32.733 21.655 33.1384L21.6667 33.3334V35C21.6662 35.4248 21.5036 35.8334 21.212 36.1423C20.9203 36.4512 20.5218 36.6371 20.0977 36.662C19.6736 36.6869 19.2561 36.5489 18.9303 36.2763C18.6046 36.0036 18.3952 35.6169 18.345 35.195L18.3334 35V33.3334C18.3334 32.8913 18.509 32.4674 18.8215 32.1549C19.1341 31.8423 19.558 31.6667 20 31.6667Z" stroke="#646464"/>
<path d="M30.5217 28.1834L30.6784 28.3217L31.845 29.4884C32.144 29.7883 32.3175 30.1908 32.3304 30.614C32.3433 31.0373 32.1947 31.4496 31.9146 31.7672C31.6346 32.0848 31.2441 32.2839 30.8226 32.324C30.401 32.3642 29.98 32.2424 29.645 31.9834L29.4884 31.8451L28.3217 30.6784C28.0341 30.3913 27.8613 30.009 27.8358 29.6034C27.8103 29.1978 27.9339 28.7969 28.1833 28.476C28.4327 28.1552 28.7907 27.9365 29.1901 27.8611C29.5894 27.7857 30.0025 27.8588 30.3517 28.0667L30.5217 28.1834Z" stroke="#646464"/>
<path d="M11.6784 28.3217C11.9654 28.6087 12.1377 28.9905 12.1632 29.3955C12.1887 29.8006 12.0655 30.201 11.8167 30.5217L11.6784 30.6783L10.5117 31.845C10.2118 32.1439 9.80934 32.3175 9.38609 32.3304C8.96284 32.3433 8.55054 32.1946 8.23293 31.9146C7.91532 31.6345 7.71622 31.2441 7.67606 30.8225C7.63591 30.401 7.75771 29.98 8.01673 29.645L8.15506 29.4883L9.32173 28.3217C9.63427 28.0092 10.0581 27.8337 10.5001 27.8337C10.942 27.8337 11.3658 28.0092 11.6784 28.3217Z" stroke="#646464"/>
<path d="M6.66669 18.3334C7.09149 18.3338 7.50008 18.4965 7.80897 18.7881C8.11787 19.0797 8.30375 19.4783 8.32864 19.9024C8.35354 20.3264 8.21557 20.744 7.94292 21.0698C7.67027 21.3955 7.28352 21.6049 6.86169 21.655L6.66669 21.6667H5.00003C4.57523 21.6662 4.16664 21.5036 3.85774 21.212C3.54885 20.9203 3.36297 20.5218 3.33807 20.0977C3.31318 19.6736 3.45115 19.2561 3.7238 18.9303C3.99645 18.6046 4.3832 18.3952 4.80503 18.345L5.00003 18.3334H6.66669Z" stroke="#646464"/>
<path d="M35 18.3334C35.4248 18.3338 35.8334 18.4965 36.1423 18.7881C36.4512 19.0797 36.6371 19.4783 36.662 19.9024C36.6869 20.3264 36.5489 20.744 36.2762 21.0698C36.0036 21.3955 35.6169 21.6049 35.195 21.655L35 21.6667H33.3334C32.9086 21.6662 32.5 21.5036 32.1911 21.212C31.8822 20.9203 31.6963 20.5218 31.6714 20.0977C31.6465 19.6736 31.7845 19.2561 32.0571 18.9303C32.3298 18.6046 32.7165 18.3952 33.1384 18.345L33.3334 18.3334H35Z" stroke="#646464"/>
<path d="M10.355 8.01666L10.5117 8.155L11.6784 9.32166C11.9773 9.62159 12.1508 10.0241 12.1638 10.4473C12.1767 10.8706 12.028 11.2829 11.748 11.6005C11.4679 11.9181 11.0775 12.1172 10.6559 12.1573C10.2344 12.1975 9.81337 12.0757 9.47838 11.8167L9.32171 11.6783L8.15505 10.5117C7.86853 10.2245 7.6966 9.84262 7.67149 9.43772C7.64638 9.03281 7.76981 8.63266 8.01865 8.31225C8.26749 7.99185 8.62464 7.77321 9.02316 7.69732C9.42168 7.62142 9.8342 7.69349 10.1834 7.9L10.355 8.01666Z" stroke="#646464"/>
<path d="M31.845 8.15505C32.132 8.44204 32.3044 8.82387 32.3298 9.22892C32.3553 9.63396 32.2321 10.0344 31.9834 10.3551L31.845 10.5117L30.6784 11.6784C30.3784 11.9773 29.976 12.1508 29.5527 12.1638C29.1295 12.1767 28.7172 12.028 28.3996 11.748C28.0819 11.4679 27.8828 11.0775 27.8427 10.6559C27.8025 10.2344 27.9243 9.81337 28.1834 9.47838L28.3217 9.32172L29.4884 8.15505C29.8009 7.8426 30.2247 7.66707 30.6667 7.66707C31.1086 7.66707 31.5325 7.8426 31.845 8.15505Z" stroke="#646464"/>
<path d="M20 3.33337C20.4083 3.33343 20.8023 3.4833 21.1073 3.75457C21.4124 4.02583 21.6073 4.39962 21.655 4.80504L21.6667 5.00004V6.66671C21.6662 7.09151 21.5036 7.50009 21.212 7.80899C20.9203 8.11788 20.5218 8.30377 20.0977 8.32866C19.6736 8.35356 19.2561 8.21558 18.9303 7.94293C18.6046 7.67028 18.3952 7.28353 18.345 6.86171L18.3334 6.66671V5.00004C18.3334 4.55801 18.509 4.13409 18.8215 3.82153C19.1341 3.50897 19.558 3.33337 20 3.33337Z" stroke="#646464"/>
<path d="M20 11.6667C21.6328 11.6666 23.2297 12.1462 24.5923 13.0459C25.9548 13.9456 27.0231 15.2257 27.6643 16.7273C28.3056 18.2289 28.4915 19.8858 28.1992 21.4922C27.9068 23.0986 27.1489 24.5838 26.0198 25.7631C24.8906 26.9425 23.4398 27.7642 21.8476 28.1261C20.2554 28.488 18.592 28.3742 17.0639 27.7988C15.5359 27.2234 14.2105 26.2118 13.2525 24.8896C12.2944 23.5675 11.7459 21.993 11.675 20.3617L11.6667 20L11.675 19.6384C11.7682 17.493 12.6861 15.4663 14.2371 13.9811C15.7881 12.4959 17.8526 11.6668 20 11.6667Z" stroke="#646464"/>
</svg>
