<svg width="16" height="16" viewBox="0 0 16 16" fill="none" xmlns="http://www.w3.org/2000/svg">
<path d="M14.5834 4.28927L12.4584 2.16427C12.4129 2.11408 12.3577 2.07365 12.2962 2.04544C12.2346 2.01723 12.1679 2.00182 12.1002 2.00015C12.0325 1.99848 11.9651 2.01059 11.9022 2.03574C11.8394 2.06089 11.7822 2.09855 11.7343 2.14645C11.6864 2.19434 11.6488 2.25147 11.6236 2.31436C11.5985 2.37725 11.5864 2.44459 11.588 2.51231C11.5897 2.58002 11.6051 2.64669 11.6333 2.70826C11.6615 2.76984 11.702 2.82504 11.7522 2.87052L13.8772 4.99552C13.9705 5.08744 14.0962 5.13905 14.2272 5.13927C14.3599 5.13871 14.4874 5.08727 14.5834 4.99552C14.6769 4.90179 14.7294 4.7748 14.7294 4.6424C14.7294 4.51 14.6769 4.38301 14.5834 4.28927V4.28927Z" fill="#646464"/>
<path d="M3.97727 2.16433C3.88354 2.07082 3.75654 2.01831 3.62414 2.01831C3.49175 2.01831 3.36475 2.07082 3.27102 2.16433L1.14602 4.28933C1.05251 4.38306 1 4.51006 1 4.64245C1 4.77485 1.05251 4.90185 1.14602 4.99558C1.242 5.08732 1.3695 5.13877 1.50227 5.13933C1.63326 5.13911 1.75894 5.08749 1.85227 4.99558L3.97727 2.87058C4.07078 2.77685 4.12329 2.64985 4.12329 2.51745C4.12329 2.38506 4.07078 2.25806 3.97727 2.16433Z" fill="#646464"/>
<path d="M13.8647 8.70815C13.8596 8.66461 13.8575 8.62075 13.8585 8.5769V8.5769C13.7832 7.09393 13.1606 5.69158 12.1112 4.64103C11.0618 3.59048 9.66013 2.96638 8.17725 2.8894H7.55225C6.07038 2.96624 4.66955 3.58947 3.62031 4.63871C2.57106 5.68796 1.94784 7.08879 1.871 8.57065V8.57065C1.87203 8.6145 1.86994 8.65836 1.86475 8.7019V9.0519C1.86994 9.09545 1.87203 9.13931 1.871 9.18315V9.18315C1.94484 10.6672 2.56674 12.0711 3.61628 13.123C4.66582 14.1748 6.06834 14.7998 7.55225 14.8769H8.17725C9.65911 14.8001 11.0599 14.1768 12.1092 13.1276C13.1584 12.0784 13.7817 10.6775 13.8585 9.19565V9.19565C13.8575 9.15181 13.8596 9.10795 13.8647 9.0644V8.7144V8.70815ZM11.3647 9.38315H7.86475C7.73214 9.38315 7.60496 9.33048 7.51119 9.23671C7.41742 9.14294 7.36475 9.01576 7.36475 8.88315V5.38315C7.36475 5.25055 7.41742 5.12337 7.51119 5.0296C7.60496 4.93583 7.73214 4.88315 7.86475 4.88315C7.99735 4.88315 8.12453 4.93583 8.2183 5.0296C8.31207 5.12337 8.36475 5.25055 8.36475 5.38315V8.38315H11.3647C11.4974 8.38315 11.6245 8.43583 11.7183 8.5296C11.8121 8.62337 11.8647 8.75055 11.8647 8.88315C11.8647 9.01576 11.8121 9.14294 11.7183 9.23671C11.6245 9.33048 11.4974 9.38315 11.3647 9.38315Z" fill="#646464"/>
</svg>
