<svg width="24" height="60" viewBox="0 0 24 60" fill="none" xmlns="http://www.w3.org/2000/svg">
<g clip-path="url(#clip0_113_1913)">
<mask id="mask0_113_1913" style="mask-type:luminance" maskUnits="userSpaceOnUse" x="4" y="4" width="16" height="52">
<path d="M4 4.3117L4 56H20L20 4.3117H4Z" fill="white"/>
</mask>
<g mask="url(#mask0_113_1913)">
<path fill-rule="evenodd" clip-rule="evenodd" d="M6.91661 19.5223C6.91661 20.0057 7.10866 20.4694 7.45051 20.8112C7.79236 21.1531 8.25601 21.3451 8.73946 21.3451C9.22292 21.3451 9.68657 21.1531 10.0284 20.8112C10.3703 20.4694 10.5623 20.0057 10.5623 19.5223V15.6412C10.5558 15.027 10.6712 14.4177 10.9017 13.8484C11.1323 13.2791 11.4734 12.7611 11.9054 12.3245C12.3374 11.8879 12.8518 11.5413 13.4186 11.3047C13.9854 11.0682 14.5936 10.9464 15.2078 10.9464C15.822 10.9464 16.4301 11.0682 16.997 11.3047C17.5638 11.5413 18.0781 11.8879 18.5101 12.3245C18.9421 12.7611 19.2833 13.2791 19.5138 13.8484C19.7444 14.4177 19.8597 15.027 19.8532 15.6412V26.4984C19.8533 27.3521 19.6421 28.1926 19.2385 28.9449C18.8349 29.6973 18.2514 30.338 17.54 30.8101L8.0231 37.128L14.6569 41.7062C14.959 41.9212 15.1643 42.2464 15.2286 42.6116C15.2928 42.9768 15.2108 43.3526 15.0002 43.6578C14.7896 43.963 14.4673 44.173 14.1031 44.2425C13.7389 44.3121 13.362 44.2355 13.0538 44.0293L5.84752 39.0563C5.53114 38.8379 5.27312 38.5452 5.09602 38.204C4.91892 37.8628 4.82814 37.4833 4.83162 37.0989C4.83511 36.7144 4.93275 36.3367 5.11601 35.9987C5.29927 35.6608 5.56256 35.3729 5.88284 35.1602L15.9795 28.4589C16.3028 28.2444 16.568 27.9532 16.7514 27.6113C16.9349 27.2694 17.0309 26.8874 17.0309 26.4994V15.6423C17.0309 15.1588 16.8388 14.6952 16.497 14.3533C16.1551 14.0115 15.6915 13.8194 15.208 13.8194C14.7246 13.8194 14.2609 14.0115 13.9191 14.3533C13.5772 14.6952 13.3852 15.1588 13.3852 15.6423V19.5223C13.3852 20.7544 12.8957 21.936 12.0245 22.8073C11.1532 23.6785 9.97158 24.168 8.73946 24.168C7.50734 24.168 6.32569 23.6785 5.45445 22.8073C4.58321 21.936 4.09375 20.7544 4.09375 19.5223V13.7005C4.09375 13.3261 4.24245 12.9671 4.50715 12.7024C4.77184 12.4377 5.13085 12.289 5.50518 12.289C5.87951 12.289 6.23851 12.4377 6.50321 12.7024C6.7679 12.9671 6.91661 13.3261 6.91661 13.7005L6.91661 19.5223ZM4.89842 51.1067C4.30075 49.6634 4.14462 48.0753 4.44977 46.5432C4.75492 45.0112 5.50765 43.6041 6.61271 42.4999C6.87869 42.2417 7.2356 42.0985 7.60632 42.1012C7.97704 42.1039 8.33179 42.2524 8.59394 42.5146C8.85608 42.7767 9.00456 43.1315 9.0073 43.5022C9.01003 43.8729 8.8668 44.2298 8.60856 44.4958C7.72183 45.3872 7.19757 46.576 7.13737 47.8318C7.07717 49.0877 7.48532 50.3212 8.28272 51.2933C9.08011 52.2654 10.21 52.9069 11.4534 53.0934C12.6968 53.28 13.9651 52.9983 15.0127 52.3031C15.4657 52.0002 15.9618 51.6173 16.3675 50.9285C16.7732 50.2397 17.1587 49.1186 17.1587 47.2599V45.4542C17.1587 44.5108 17.1587 43.6698 17.1587 41.8085C17.1566 41.4284 17.0604 41.0547 16.8788 40.7207C16.6971 40.3868 16.4356 40.103 16.1176 39.8947L13.181 37.9893C13.0234 37.8894 12.8872 37.7592 12.7803 37.6063C12.6734 37.4533 12.5978 37.2807 12.558 37.0984C12.5182 36.9161 12.5149 36.7278 12.5484 36.5442C12.5819 36.3606 12.6514 36.1855 12.753 36.029C12.8546 35.8725 12.9862 35.7377 13.1402 35.6323C13.2942 35.527 13.4676 35.4532 13.6503 35.4153C13.833 35.3774 14.0214 35.3762 14.2046 35.4115C14.3878 35.4469 14.5622 35.5183 14.7176 35.6215L17.6584 37.5295L17.6657 37.5342C18.3752 37.9988 18.9583 38.6323 19.3628 39.3777C19.7672 40.1231 19.9804 40.9573 19.9831 41.8054C19.9867 43.6703 19.9857 44.5181 19.9831 45.4641C19.9831 45.9758 19.9831 46.5166 19.9831 47.262C19.9831 49.5197 19.5156 51.1545 18.8013 52.3633C18.087 53.5721 17.1945 54.2402 16.5831 54.648C15.6123 55.2972 14.5096 55.723 13.3545 55.8947C12.1993 56.0664 11.0204 55.9797 9.90282 55.6409C8.78519 55.302 7.75664 54.7195 6.89128 53.9353C6.02591 53.1511 5.34528 52.1846 4.89842 51.1057V51.1067ZM5.55817 33.0376C5.23175 32.8257 4.963 32.5361 4.77601 32.1948C4.58902 31.8536 4.48963 31.4712 4.48675 31.0821C4.48387 30.6929 4.57758 30.3091 4.75949 29.9651C4.9414 29.6211 5.20583 29.3275 5.52907 29.1108L13.0719 24.0532C13.2258 23.9472 13.3992 23.8729 13.582 23.8344C13.7648 23.796 13.9535 23.7942 14.137 23.8293C14.3205 23.8643 14.4952 23.9354 14.651 24.0384C14.8068 24.1415 14.9407 24.2745 15.0447 24.4296C15.1487 24.5848 15.2209 24.7591 15.2571 24.9424C15.2933 25.1257 15.2927 25.3143 15.2554 25.4974C15.2181 25.6804 15.1449 25.8543 15.0399 26.0088C14.9349 26.1633 14.8003 26.2955 14.6439 26.3976L7.647 31.088C7.87811 31.3422 8.00859 31.6719 8.01397 32.0154C8.01934 32.3589 7.89924 32.6926 7.67619 32.9539C7.45314 33.2152 7.14245 33.3862 6.80235 33.4347C6.46226 33.4833 6.11612 33.4062 5.82881 33.2179L5.55817 33.0376Z" fill="#ffffff"/>
<path d="M8.6208 6.65838C8.6208 5.38448 7.58815 4.35188 6.31431 4.35188C5.04046 4.35188 4.00781 5.38448 4.00781 6.65838C4.00781 7.93218 5.04046 8.96478 6.31431 8.96478C7.58815 8.96478 8.6208 7.93218 8.6208 6.65838Z" fill="#14B14B"/>
<path d="M14.195 6.65838C14.195 5.38448 13.1624 4.35188 11.8885 4.35188C10.6147 4.35188 9.58203 5.38448 9.58203 6.65838C9.58203 7.93218 10.6147 8.96478 11.8885 8.96478C13.1624 8.96478 14.195 7.93218 14.195 6.65838Z" fill="#F5851F"/>
<path d="M19.7692 6.65838C19.7692 5.38448 18.7366 4.35188 17.4627 4.35188C16.1889 4.35188 15.1562 5.38448 15.1562 6.65838C15.1562 7.93218 16.1889 8.96478 17.4627 8.96478C18.7366 8.96478 19.7692 7.93218 19.7692 6.65838Z" fill="#CF2027"/>
</g>
</g>
<defs>
<clipPath id="clip0_113_1913">
<rect width="60" height="24" fill="white" transform="matrix(0 -1 1 0 0 60)"/>
</clipPath>
</defs>
</svg>
