<svg width="24" height="151" viewBox="0 0 24 151" fill="none" xmlns="http://www.w3.org/2000/svg">
<g clip-path="url(#clip0_113_1922)">
<path d="M14.5396 136.812C14.5396 136.656 14.4721 136.552 14.3363 136.499L12.5689 135.749V138.063L10.3011 137.094V131.745L14.696 133.606C16.4062 134.336 17.2611 135.347 17.2611 136.64V143.788C17.2611 144.205 17.1152 144.497 16.8231 144.664C16.5313 144.831 16.1768 144.825 15.7596 144.648L8.565 141.598C7.80397 141.275 7.18616 140.803 6.71163 140.183C6.23742 139.562 6 138.919 6 138.251L6 130.697L8.72144 131.854V138.392C8.72144 138.528 8.78929 138.626 8.92473 138.689L14.4145 141.02C14.498 141.051 14.5396 141.025 14.5396 140.941V136.812Z" fill="#636466"/>
<path d="M6 128.084L6 120.264C6 119.545 6.25025 119.044 6.75074 118.763C7.25122 118.481 7.85617 118.492 8.565 118.794L11.0049 119.826C11.7037 120.129 12.3058 120.59 12.8114 121.21C13.3172 121.831 13.5699 122.584 13.5699 123.47V123.533L17.2611 122.172V125.691L13.5699 126.755V128.241L17.2611 129.805V132.87L6 128.084ZM10.9736 123.079C10.9736 122.944 10.9061 122.85 10.7703 122.798L8.92473 122.016C8.78929 121.953 8.72144 121.99 8.72144 122.125V126.176L10.9736 127.13V123.079Z" fill="#636466"/>
<path d="M6 115.87L6 112.805L17.2611 117.591V120.656L6 115.87Z" fill="#636466"/>
<path d="M6 110.866L6 107.8L12.6941 106.158L6 103.311V100.246L17.2611 105.032V107.941L10.567 109.739L17.2611 112.586V115.651L6 110.866Z" fill="#636466"/>
<path d="M17.2611 103.093L6 98.3069L6 90.8933C6 90.1739 6.24775 89.6734 6.74292 89.3919C7.2384 89.1103 7.84553 89.121 8.565 89.4232L14.696 92.0195C15.4155 92.3323 16.0229 92.7886 16.5181 93.388C17.0136 93.9876 17.2611 94.647 17.2611 95.3665V103.093ZM8.92473 92.645C8.78929 92.5825 8.72144 92.6191 8.72144 92.7546V96.3987L14.5396 98.8699V95.2257C14.5396 95.0903 14.4721 94.9964 14.3363 94.9442L8.92473 92.645Z" fill="#636466"/>
<path d="M13.6951 65.3522L14.3363 65.634C14.4721 65.6862 14.5396 65.6444 14.5396 65.5087V61.7705C14.5396 61.6355 14.4721 61.5415 14.3363 61.4893L13.0851 60.9576C12.9496 60.895 12.8817 60.9315 12.8817 61.0666V65.5087C12.8817 66.2283 12.6343 66.7313 12.1388 67.0177C11.6437 67.3048 11.0362 67.2917 10.3167 66.9786L8.565 66.244C7.84553 65.9413 7.2384 65.4879 6.74292 64.8831C6.24775 64.2783 6 63.6161 6 62.8966L6 57.4386C6 56.719 6.24775 56.2186 6.74292 55.9368C7.2384 55.6556 7.84553 55.666 8.565 55.9681L9.56597 56.3902V59.4558L8.92473 59.1903C8.78929 59.1277 8.72144 59.1642 8.72144 59.2992V63.0375C8.72144 63.1732 8.78929 63.2723 8.92473 63.335L10.176 63.8667C10.3117 63.9189 10.3793 63.8771 10.3793 63.7414V59.2992C10.3793 58.5803 10.627 58.0773 11.1222 57.7902C11.6177 57.5038 12.2249 57.5162 12.9443 57.8294L14.696 58.5646C15.4155 58.8771 16.0229 59.3201 16.5181 59.8936C17.0136 60.4677 17.2611 61.1135 17.2611 61.8331V67.37C17.2611 68.0896 17.0136 68.5926 16.5181 68.879C16.0229 69.1661 15.4155 69.153 14.696 68.8399L13.6951 68.4178V65.3522Z" fill="#636466"/>
<path d="M6 53.0431L6 50.447L12.5689 49.774L6 43.799V40.89L17.2611 45.676V48.742L12.7722 46.834L16.0411 50.04V52.4488L12.7879 52.8709L17.2611 54.7635V57.8291L6 53.0431Z" fill="#636466"/>
<path d="M8.565 40.096C6.85521 39.365 6 38.406 6 37.217L6 31.04C6 30.32 6.24775 29.82 6.74292 29.538C7.2384 29.257 7.84553 29.267 8.565 29.569L17.2611 33.26V36.326L14.5396 35.169V39.563L17.2611 40.721V43.786L8.565 40.096ZM12.2561 34.199L9.11242 32.87C8.85185 32.755 8.72144 32.828 8.72144 33.088V36.701C8.72144 36.962 8.85185 37.15 9.11242 37.264L12.2561 38.594V34.199Z" fill="#636466"/>
<path d="M6 26.58L6 18.76C6 18.041 6.25025 17.54 6.75074 17.259C7.25122 16.977 7.85617 16.988 8.565 17.29L11.0049 18.322C11.7037 18.625 12.3058 19.086 12.8114 19.707C13.3172 20.327 13.5699 21.081 13.5699 21.966V22.029L17.2611 20.668V24.187L13.5699 25.251V26.737L17.2611 28.301V31.366L6 26.58ZM10.9736 21.576C10.9736 21.44 10.9061 21.346 10.7703 21.294L8.92473 20.512C8.78929 20.45 8.72144 20.486 8.72144 20.621V24.672L10.9736 25.626V21.576Z" fill="#636466"/>
<path d="M17.2611 16.728L8.72144 13.1V16.885L6 15.727L6 5.09201L8.72144 6.24901V10.034L17.2611 13.663V16.728Z" fill="#636466"/>
<path d="M6.12672 85.0458L7.20245 83.97C8.30386 85.0713 9.82531 85.7524 11.5058 85.7524C13.1861 85.7524 14.7082 85.0713 15.809 83.97L16.8838 85.0445C15.5077 86.4223 13.6059 87.2734 11.5054 87.2734C9.40491 87.2734 7.5037 86.4219 6.12672 85.0458ZM6.12672 72.7664C7.50369 71.3892 9.40523 70.5378 11.5058 70.5378C13.6062 70.5378 15.5087 71.3899 16.8848 72.7664L15.809 73.8416C14.7076 72.7403 13.1861 72.0592 11.5058 72.0592C9.82531 72.0592 8.30477 72.7403 7.20308 73.8409L6.12672 72.7664ZM6.18083 78.1454H10.745V75.8627L16.8306 79.6668H12.2664V81.9489L6.18083 78.1454ZM8.27822 82.8942L9.35454 81.8178C9.90445 82.3684 10.6652 82.7096 11.5058 82.7096C12.3462 82.7096 13.107 82.3684 13.6569 81.8178L14.7333 82.8942C13.9072 83.7195 12.7661 84.231 11.5054 84.231C10.2448 84.231 9.10468 83.7195 8.27822 82.8942ZM8.2788 74.9167C9.10493 74.0914 10.246 73.5806 11.5058 73.5806C12.7654 73.5806 13.9072 74.0921 14.7336 74.9174L13.6572 75.9938C13.1073 75.4426 12.3466 75.102 11.506 75.102C10.6655 75.102 9.90542 75.4419 9.35552 75.9919L8.2788 74.9167Z" fill="#0F6FFF"/>
</g>
<defs>
<clipPath id="clip0_113_1922">
<rect width="151" height="24" fill="white" transform="matrix(0 -1 1 0 0 151)"/>
</clipPath>
</defs>
</svg>
