<svg width="16" height="16" viewBox="0 0 16 16" fill="none" xmlns="http://www.w3.org/2000/svg">
<g clip-path="url(#clip0_618_9225)">
<path d="M6.42627 4.24867C6.36548 4.05512 6.07897 4.05512 6.01818 4.24867C5.04632 7.34286 3.73982 8.60951 0.683164 9.57484C0.490412 9.63572 0.490412 9.92005 0.683163 9.98093C3.73982 10.9463 5.04632 12.2129 6.01818 15.3071C6.07897 15.5007 6.36548 15.5007 6.42627 15.3071C7.39812 12.2129 8.70462 10.9463 11.7613 9.98093C11.954 9.92006 11.954 9.63572 11.7613 9.57484C8.70462 8.60952 7.39812 7.34286 6.42627 4.24867Z" fill="#646464"/>
<path d="M9.56938 3.34289C11.0163 2.83461 11.7164 2.15243 12.2298 0.690958C12.2971 0.499525 12.5914 0.499525 12.6586 0.690958C13.172 2.15243 13.8721 2.83461 15.3191 3.34289C15.5098 3.40987 15.5098 3.70124 15.3191 3.76822C13.8721 4.2765 13.172 4.95869 12.6586 6.42015C12.5914 6.61159 12.2971 6.61159 12.2298 6.42015C11.7164 4.95869 11.0163 4.2765 9.56938 3.76822C9.37868 3.70124 9.37868 3.40987 9.56938 3.34289Z" fill="#646464"/>
</g>
<defs>
<clipPath id="clip0_618_9225">
<rect width="16" height="16" fill="white"/>
</clipPath>
</defs>
</svg>
