<svg width="24" height="70" viewBox="0 0 24 70" fill="none" xmlns="http://www.w3.org/2000/svg">
<path d="M16.1544 20.541L17.9419 18.9541C19.1626 17.7317 19.9926 16.1745 20.3291 14.48C20.6647 12.7854 20.4911 11.0291 19.8289 9.43407C19.1676 7.83821 18.0472 6.47433 16.6109 5.51516C15.1746 4.556 13.4858 4.04352 11.7584 4.04352C10.0309 4.04352 8.34208 4.55518 6.90581 5.51516C5.46954 6.47433 4.34915 7.83821 3.68777 9.43407C3.0264 11.0299 2.85201 12.7854 3.18763 14.48C3.52325 16.1745 4.35408 17.7309 5.57483 18.9541L17.9419 29.9352C19.1626 31.1576 19.9926 32.7148 20.3291 34.4093C20.6647 36.1039 20.4911 37.8602 19.8289 39.4552C19.1676 41.0511 18.0472 42.4142 16.6109 43.3741C15.1746 44.3333 13.4858 44.8458 11.7584 44.8458C10.0309 44.8458 8.34208 44.3341 6.90581 43.3741C5.46954 42.415 4.34915 41.0511 3.68777 39.4552C3.0264 37.8594 2.85201 36.1039 3.18763 34.4093C3.52325 32.7148 4.35408 31.1584 5.57483 29.9352L7.36235 28.3483C9.49948 30.2453 11.6358 32.1422 13.7729 34.04M20.496 49.4656C17.4244 49.4656 14.3528 49.4656 11.2812 49.4656C6.72147 49.4656 3.0255 53.1616 3.0255 57.7213C2.98848 58.1466 2.76391 61.4099 5.32386 63.8777C7.76453 66.2304 10.8246 66.0173 11.2812 65.977C11.3667 65.977 20.496 65.977 20.496 65.977C20.496 65.977 3.16205 65.977 3 65.977" stroke="url(#paint0_linear_110_1907)" stroke-width="3.34884" stroke-linecap="round" stroke-linejoin="round"/>
<defs>
<linearGradient id="paint0_linear_110_1907" x1="2.99956" y1="66.0005" x2="21.3067" y2="6.21915" gradientUnits="userSpaceOnUse">
<stop stop-color="#0863DF"/>
<stop offset="1" stop-color="#0381FA"/>
</linearGradient>
</defs>
</svg>
