<svg width="16" height="16" viewBox="0 0 16 16" fill="none" xmlns="http://www.w3.org/2000/svg">
<path fill-rule="evenodd" clip-rule="evenodd" d="M11.6334 2.53863L9.68332 4.48872C9.16262 5.00942 9.16262 5.85364 9.68332 6.37434L10.6261 7.31715C11.1468 7.83785 11.991 7.83785 12.5117 7.31715L14.4618 5.36706C14.823 6.69675 14.4866 8.17069 13.4499 9.20738C12.2305 10.4269 10.4059 10.6772 8.9229 9.96318L5.50515 13.3809C4.98445 13.9016 4.14023 13.9016 3.61953 13.3809C3.09883 12.8602 3.09883 12.016 3.61953 11.4953L7.03728 8.07757C6.32322 6.59452 6.57361 4.77 7.79309 3.55052C8.82978 2.51383 10.3037 2.17749 11.6334 2.53863Z" fill="#646464"/>
<path fill-rule="evenodd" clip-rule="evenodd" d="M12.1047 3.95259L13.0475 4.8954C13.3079 5.15575 13.3079 5.57786 13.0475 5.8382L12.1278 6.75799C11.8674 7.01834 11.4453 7.01834 11.1849 6.75799L10.2421 5.81518C9.98179 5.55483 9.98179 5.13272 10.2421 4.87237L11.1619 3.95259C11.4223 3.69224 11.8444 3.69224 12.1047 3.95259Z" fill="#646464"/>
<path fill-rule="evenodd" clip-rule="evenodd" d="M3.34725 5.67635L3.79634 4.3291H4.20366L4.65275 5.67635L6 6.12544V6.53276L4.65275 6.98185L4.20366 8.3291H3.79634L3.34725 6.98185L2 6.53276V6.12544L3.34725 5.67635Z" fill="#646464"/>
<path fill-rule="evenodd" clip-rule="evenodd" d="M5.34453 2.67363L5.56907 2H5.77273L5.99727 2.67363L6.6709 2.89817V3.10183L5.99727 3.32637L5.77273 4H5.56907L5.34453 3.32637L4.6709 3.10183V2.89817L5.34453 2.67363Z" fill="#646464"/>
</svg>
