<svg width="16" height="16" viewBox="0 0 16 16" fill="none" xmlns="http://www.w3.org/2000/svg">
<path d="M10.5034 8.00094C10.1262 8.00094 9.77128 7.80004 9.57932 7.47861L8.14403 5.09912L6.71098 7.47861C6.51678 7.80227 6.16187 8.00317 5.78463 8.00317C5.68419 8.00317 5.58374 7.98978 5.48776 7.96076L2.42969 7.08575V11.059C2.42969 11.3871 2.6529 11.6729 2.96987 11.751L7.79582 12.9586C8.0235 13.0144 8.26234 13.0144 8.48779 12.9586L13.3182 11.751C13.6352 11.6706 13.8584 11.3849 13.8584 11.059V7.08575L10.8003 7.95853C10.7043 7.98754 10.6039 8.00094 10.5034 8.00094Z" fill="#646464"/>
<path d="M15.2489 5.49639L14.0993 3.20172C14.0301 3.06333 13.8805 2.98297 13.7265 3.00306L8.14388 3.71512L10.1908 7.11024C10.2756 7.25087 10.4452 7.31784 10.6037 7.27319L15.0212 6.01202C15.2422 5.94728 15.3493 5.70175 15.2489 5.49639ZM2.18846 3.20172L1.03889 5.49639C0.936212 5.70175 1.04559 5.94729 1.26434 6.00979L5.6818 7.27096C5.84028 7.3156 6.00993 7.24864 6.09475 7.10801L8.14388 3.71512L2.559 3.00306C2.40498 2.9852 2.25765 3.06333 2.18846 3.20172Z" fill="#646464"/>
</svg>
