<svg width="16" height="16" viewBox="0 0 16 16" fill="none" xmlns="http://www.w3.org/2000/svg">
<path fill-rule="evenodd" clip-rule="evenodd" d="M6.79314 1.25844C6.7218 1.30213 6.6745 1.37307 6.6429 1.45152C6.5338 1.72219 6.26584 2.4111 6.1075 3.02588C5.60224 3.22558 5.135 3.5029 4.71984 3.84347C4.11784 3.6756 3.3974 3.56743 3.11258 3.52833C3.03009 3.51703 2.94616 3.52327 2.87335 3.56437C2.70956 3.65687 2.39049 3.8997 2.05035 4.5C1.71021 5.10027 1.66338 5.50323 1.66666 5.69403C1.66812 5.77883 1.70477 5.85603 1.75564 5.92313C1.93122 6.15487 2.38308 6.73617 2.82661 7.18337C2.78647 7.4496 2.76564 7.72233 2.76564 8C2.76564 8.27767 2.78647 8.55037 2.82661 8.8166C2.38308 9.2638 1.93122 9.8451 1.75564 10.0768C1.70477 10.144 1.66812 10.2211 1.66666 10.3059C1.66338 10.4967 1.71021 10.8997 2.05035 11.5C2.39049 12.1003 2.70956 12.3431 2.87335 12.4356C2.94616 12.4767 3.03009 12.4829 3.11258 12.4716C3.3974 12.4325 4.11784 12.3244 4.7198 12.1565C5.13497 12.4971 5.60224 12.7744 6.1075 12.9741C6.26584 13.5889 6.5338 14.2778 6.6429 14.5485C6.6745 14.6269 6.7218 14.6979 6.79314 14.7416C6.95364 14.8398 7.31957 15 7.99984 15C8.6801 15 9.04604 14.8398 9.20654 14.7416C9.27787 14.6979 9.32514 14.6269 9.35677 14.5485C9.46587 14.2778 9.73384 13.5889 9.89217 12.9741C10.3974 12.7744 10.8647 12.4971 11.2799 12.1565C11.8818 12.3244 12.6023 12.4325 12.8871 12.4716C12.9696 12.4829 13.0535 12.4767 13.1263 12.4356C13.2901 12.3431 13.6092 12.1003 13.9493 11.5C14.2895 10.8997 14.3363 10.4967 14.333 10.3059C14.3316 10.2211 14.2949 10.144 14.244 10.0768C14.0685 9.8451 13.6166 9.2638 13.1731 8.8166C13.2132 8.55037 13.234 8.27767 13.234 8C13.234 7.72233 13.2132 7.4496 13.1731 7.18337C13.6166 6.73617 14.0685 6.15487 14.244 5.92313C14.2949 5.85603 14.3316 5.77883 14.333 5.69403C14.3363 5.50323 14.2895 5.10027 13.9493 4.5C13.6092 3.8997 13.2901 3.65687 13.1263 3.56437C13.0535 3.52327 12.9696 3.51703 12.8871 3.52833C12.6023 3.56743 11.8818 3.6756 11.2798 3.84347C10.8647 3.5029 10.3974 3.22558 9.89217 3.02588C9.73384 2.4111 9.46587 1.72219 9.35677 1.45152C9.32514 1.37307 9.27787 1.30213 9.20654 1.25844C9.04604 1.16016 8.6801 1 7.99984 1C7.31957 1 6.95364 1.16016 6.79314 1.25844ZM7.99967 10.6668C9.47244 10.6668 10.6663 9.47293 10.6663 8.00016C10.6663 6.5274 9.47244 5.3335 7.99967 5.3335C6.52691 5.3335 5.33301 6.5274 5.33301 8.00016C5.33301 9.47293 6.52691 10.6668 7.99967 10.6668Z" fill="#646464"/>
</svg>
