<svg width="16" height="16" viewBox="0 0 16 16" fill="none" xmlns="http://www.w3.org/2000/svg">
<path d="M5.66666 6.33332C6.03485 6.33332 6.33332 6.03485 6.33332 5.66666C6.33332 5.29847 6.03485 4.99999 5.66666 4.99999C5.29847 4.99999 4.99999 5.29847 4.99999 5.66666C4.99999 6.03485 5.29847 6.33332 5.66666 6.33332Z" stroke="current" stroke-width="1.5" stroke-linecap="round" stroke-linejoin="round"/>
<path d="M2.66666 4.66666V7.23932C2.66666 7.59732 2.80866 7.94066 3.06199 8.19399L8.47266 13.6047C8.59802 13.73 8.74685 13.8295 8.91065 13.8974C9.07446 13.9652 9.25002 14.0001 9.42732 14.0001C9.60462 14.0001 9.78019 13.9652 9.94399 13.8974C10.1078 13.8295 10.2566 13.73 10.382 13.6047L13.6047 10.382C13.73 10.2566 13.8295 10.1078 13.8974 9.94399C13.9652 9.78019 14.0001 9.60462 14.0001 9.42732C14.0001 9.25002 13.9652 9.07446 13.8974 8.91065C13.8295 8.74685 13.73 8.59802 13.6047 8.47266L8.19332 3.06199C7.94028 2.80899 7.59715 2.66679 7.23932 2.66666H4.66666C4.13622 2.66666 3.62752 2.87737 3.25244 3.25244C2.87737 3.62752 2.66666 4.13622 2.66666 4.66666Z" stroke="current" stroke-width="1.5" stroke-linecap="round" stroke-linejoin="round"/>
</svg>
