<svg width="16" height="16" viewBox="0 0 16 16" fill="none" xmlns="http://www.w3.org/2000/svg">
<path d="M12.5 1.9999H10.2312C9.95098 1.68512 9.60728 1.4332 9.22272 1.2607C8.83817 1.0882 8.42147 0.999023 8 0.999023C7.57853 0.999023 7.16183 1.0882 6.77728 1.2607C6.39272 1.4332 6.04902 1.68512 5.76875 1.9999H3.5C3.23478 1.9999 2.98043 2.10525 2.79289 2.29279C2.60536 2.48033 2.5 2.73468 2.5 2.9999V13.4999C2.5 13.7651 2.60536 14.0195 2.79289 14.207C2.98043 14.3945 3.23478 14.4999 3.5 14.4999H12.5C12.7652 14.4999 13.0196 14.3945 13.2071 14.207C13.3946 14.0195 13.5 13.7651 13.5 13.4999V2.9999C13.5 2.73468 13.3946 2.48033 13.2071 2.29279C13.0196 2.10525 12.7652 1.9999 12.5 1.9999V1.9999ZM8 1.9999C8.52993 2.00155 9.03768 2.21279 9.41239 2.58751C9.78711 2.96222 9.99835 3.46997 10 3.9999H6C6.00165 3.46997 6.21289 2.96222 6.58761 2.58751C6.96232 2.21279 7.47007 2.00155 8 1.9999ZM10 9.9999H6C5.86739 9.9999 5.74021 9.94722 5.64645 9.85345C5.55268 9.75968 5.5 9.63251 5.5 9.4999C5.5 9.36729 5.55268 9.24011 5.64645 9.14634C5.74021 9.05258 5.86739 8.9999 6 8.9999H10C10.1326 8.9999 10.2598 9.05258 10.3536 9.14634C10.4473 9.24011 10.5 9.36729 10.5 9.4999C10.5 9.63251 10.4473 9.75968 10.3536 9.85345C10.2598 9.94722 10.1326 9.9999 10 9.9999ZM10 7.9999H6C5.86739 7.9999 5.74021 7.94722 5.64645 7.85345C5.55268 7.75968 5.5 7.63251 5.5 7.4999C5.5 7.36729 5.55268 7.24011 5.64645 7.14635C5.74021 7.05258 5.86739 6.9999 6 6.9999H10C10.1326 6.9999 10.2598 7.05258 10.3536 7.14635C10.4473 7.24011 10.5 7.36729 10.5 7.4999C10.5 7.63251 10.4473 7.75968 10.3536 7.85345C10.2598 7.94722 10.1326 7.9999 10 7.9999Z" fill="#646464"/>
</svg>
