<svg width="16" height="16" viewBox="0 0 16 16" fill="none" xmlns="http://www.w3.org/2000/svg">
<path d="M0.999914 7.49984C0.999914 6.70419 1.31598 5.94112 1.87859 5.37852C2.4412 4.81591 3.20426 4.49984 3.99991 4.49984H6.49991C6.53116 4.49984 9.77491 4.45609 12.8562 1.86859C13.0022 1.74532 13.1807 1.66679 13.3703 1.6424C13.5598 1.61801 13.7524 1.64881 13.9249 1.73109C14.0984 1.80998 14.2452 1.93769 14.3473 2.09863C14.4494 2.25956 14.5024 2.44676 14.4999 2.63734V12.3623C14.5024 12.5529 14.4494 12.7401 14.3473 12.901C14.2452 13.062 14.0984 13.1897 13.9249 13.2686C13.7916 13.3299 13.6467 13.3619 13.4999 13.3623C13.2647 13.3639 13.0366 13.2819 12.8562 13.1311C10.4874 11.1436 8.03116 10.6561 6.99991 10.5373V12.7311C7.00051 12.8955 6.96027 13.0576 6.88283 13.2027C6.80538 13.3477 6.69314 13.4713 6.55616 13.5623L5.86866 14.0248C5.7333 14.1105 5.58013 14.164 5.42088 14.1814C5.26164 14.1987 5.10054 14.1794 4.94991 14.1248C4.80036 14.0667 4.66711 13.9733 4.56153 13.8525C4.45596 13.7317 4.38121 13.5871 4.34366 13.4311L3.59991 10.4748C2.88081 10.3754 2.22179 10.0197 1.74408 9.4731C1.26637 8.9265 1.00211 8.22577 0.999914 7.49984V7.49984ZM5.31241 13.1873L5.99991 12.7311V10.4998H4.63741L5.31241 13.1873ZM3.99991 9.49984H5.99991V5.49984H3.99991C3.46948 5.49984 2.96077 5.71055 2.5857 6.08562C2.21063 6.46069 1.99991 6.9694 1.99991 7.49984C1.99991 8.03027 2.21063 8.53898 2.5857 8.91405C2.96077 9.28912 3.46948 9.49984 3.99991 9.49984Z" fill="#646464"/>
</svg>
