<svg version="1.1" id="Layer_1" xmlns="http://www.w3.org/2000/svg" xmlns:xlink="http://www.w3.org/1999/xlink" x="0px" y="0px" viewBox="0 0 100 100" xml:space="preserve"><desc>Copyright Opto 22</desc> 
<g>
	<g id="shape">
		<path fill="#999999" d="M96.863,49.156H71.618c-0.909,0-1.781,0.361-2.423,1.004l-9.805,9.805
			c-2.818-3.928-7.417-6.492-12.62-6.492c-5.496,0-10.322,2.858-13.082,7.167H1.147l-1.071,1.616l1.071,1.026l-1.071,1.142
			l1.071,1.571l-1.071,1.428l1.071,1.571L0.076,70.42l1.071,1.428l-1.071,1.285l1.071,1.285l-1.071,1.329l1.071,1.616h32.541
			c2.76,4.309,7.586,7.167,13.082,7.167c5.496,0,10.322-2.858,13.082-7.167h34.682l-1.071-1.616l1.203-1.107l-1.129-1.511
			l0.997-1.227l-1.071-1.374l1.071-1.357l-1.071-1.25l1.071-1.392l-1.071-1.481l0.803-1.571l-0.803-1.222l1.071-1.616H74.766
			c0.508-0.285,1.078-0.453,1.672-0.453h20.426c1.774,0,3.213-1.438,3.213-3.213v-4.604C100.076,50.594,98.638,49.156,96.863,49.156z
			"></path>
	</g>
	<g id="shadow">
		<path fill="#C1272D" d="M96.863,49.156H71.618c-0.909,0-1.781,0.361-2.423,1.004l-9.805,9.805c0.159,0.221,0.315,0.445,0.462,0.675
			h14.914c0.508-0.285,1.078-0.453,1.672-0.453h20.426c1.774,0,3.213-1.438,3.213-3.213v-4.604
			C100.076,50.594,98.638,49.156,96.863,49.156z"></path>
	</g>
	<g id="light">
		<polygon fill="#0071BC" points="93.464,75.748 94.666,74.64 93.538,73.129 94.535,71.902 93.464,70.527 94.535,69.171 
			93.464,67.921 94.535,66.529 93.464,65.047 94.267,63.477 93.464,62.255 0.076,62.255 1.147,63.28 0.076,64.423 1.147,65.993 
			0.076,67.421 1.147,68.992 0.076,70.42 1.147,71.848 0.076,73.133 1.147,74.418 0.076,75.748 	"></polygon>
	</g>
	<g id="dark">
		<path fill="#CCCCCC" d="M46.77,82.754c5.143,0,9.624-2.825,11.983-7.006H34.787C37.146,79.929,41.627,82.754,46.77,82.754z"></path>
		<path fill="#CCCCCC" d="M46.77,55.249c-5.143,0-9.624,2.825-11.983,7.006h23.965C56.393,58.074,51.913,55.249,46.77,55.249z"></path>
	</g>
	<g id="hlight">
		<path fill="#FF7A7F" d="M60.525,60.4c-0.128,0-0.256-0.049-0.354-0.146c-0.195-0.195-0.195-0.512,0-0.707l9.205-9.205
			c0.741-0.742,1.727-1.15,2.777-1.15h25.245c0.276,0,0.5,0.224,0.5,0.5s-0.224,0.5-0.5,0.5H72.154c-0.783,0-1.518,0.305-2.069,0.857
			l-9.206,9.205C60.781,60.352,60.653,60.4,60.525,60.4z"></path>
	</g>
</g>
</svg>