<svg version="1.1" id="Layer_1" xmlns="http://www.w3.org/2000/svg" xmlns:xlink="http://www.w3.org/1999/xlink" x="0px" y="0px" viewBox="0 0 100 100" xml:space="preserve"><desc>Copyright Opto 22</desc> 
<g>
	<g id="shape">
		<path fill="#999999" d="M94.667,74.64l-1.129-1.511l0.997-1.227l-1.071-1.374l1.071-1.357l-1.071-1.25l1.071-1.392l-1.071-1.481
			l0.803-1.571l-0.803-1.222l1.071-1.616H59.852c-1.749-2.731-4.33-4.876-7.384-6.083L40.199,42.288
			c-0.643-0.643-1.004-1.514-1.004-2.423V19.439c0-1.774-1.438-3.213-3.213-3.213h-4.605c-1.774,0-3.213,1.438-3.213,3.213v25.245
			c0,0.909,0.361,1.781,1.004,2.423l8.984,8.984c-1.782,1.193-3.307,2.74-4.465,4.548H1.147l-1.071,1.616l1.071,1.026l-1.071,1.142
			l1.071,1.571l-1.071,1.428l1.071,1.571L0.076,70.42l1.071,1.428l-1.071,1.285l1.071,1.285l-1.071,1.329l1.071,1.616h32.541
			c2.76,4.309,7.586,7.167,13.082,7.167c5.496,0,10.322-2.858,13.082-7.167h34.682l-1.071-1.616L94.667,74.64z"></path>
	</g>
	<g id="light">
		<path fill="#0071BC" d="M33.017,69.001c0-2.45,0.647-4.745,1.77-6.737v-0.01H0.076l1.071,1.026l-1.071,1.142l1.071,1.571
			l-1.071,1.428l1.071,1.571L0.076,70.42l1.071,1.428l-1.071,1.285l1.071,1.285l-1.071,1.329h34.711v-0.01
			C33.664,73.746,33.017,71.451,33.017,69.001z"></path>
	</g>
	<g id="dark">
		<path fill="#CCCCCC" d="M60.522,69.001c0-5.143-2.825-9.624-7.006-11.983v23.965C57.697,78.625,60.522,74.144,60.522,69.001z"></path>
		<path fill="#CCCCCC" d="M33.017,69.001c0,5.143,2.825,9.624,7.006,11.983V57.018C35.842,59.378,33.017,63.858,33.017,69.001z"></path>
		<path fill="#CCCCCC" d="M93.538,73.129l0.997-1.227l-1.071-1.374l1.071-1.357l-1.071-1.25l1.071-1.392l-1.071-1.481l0.803-1.571
			l-0.803-1.222H60.758c0.987,2.04,1.541,4.328,1.541,6.747s-0.554,4.707-1.541,6.747h32.706l1.203-1.107L93.538,73.129z"></path>
	</g>
	<g id="shadow">
		<path fill="#C1272D" d="M38.153,56.091c2.466-1.651,5.427-2.619,8.617-2.619c2.013,0,3.934,0.387,5.698,1.084L40.199,42.288
			c-0.643-0.643-1.004-1.514-1.004-2.423V19.439c0-1.774-1.438-3.213-3.213-3.213h-4.605c-1.774,0-3.213,1.438-3.213,3.213v25.245
			c0,0.909,0.361,1.781,1.004,2.423L38.153,56.091z"></path>
	</g>
	<g id="hlight">
		<path fill="#FF7A7F" d="M28.519,45.184c-0.276,0-0.5-0.224-0.5-0.5V19.771c0-2.024,1.646-3.671,3.67-3.671h4.544
			c0.276,0,0.5,0.224,0.5,0.5s-0.224,0.5-0.5,0.5h-4.544c-1.473,0-2.67,1.198-2.67,2.671v24.912
			C29.019,44.96,28.795,45.184,28.519,45.184z"></path>
	</g>
</g>
</svg>