<svg width="500" height="500" viewBox="0 0 500 500" fill="none" xmlns="http://www.w3.org/2000/svg">
<path d="M249.78 462.02C382.759 462.02 490.56 399.783 490.56 323.01C490.56 246.237 382.759 184 249.78 184C116.801 184 9 246.237 9 323.01C9 399.783 116.801 462.02 249.78 462.02Z" fill="#242424"/>
<path d="M367.87 86.084L361.3 82.274L132.01 214.724V420.214C132.01 422.444 132.79 424.004 134.01 424.744L140.57 428.564C141.83 429.294 143.57 429.194 145.52 428.074L360.87 303.694C362.907 302.366 364.603 300.577 365.819 298.471C367.035 296.365 367.738 294.002 367.87 291.574V86.084Z" fill="#E6E6E6"/>
<path d="M142.44 428.214C143.404 428.167 144.341 427.875 145.16 427.364L360.51 302.994C362.427 301.741 364.023 300.054 365.167 298.07C366.312 296.087 366.974 293.861 367.1 291.574V87.4841L139.38 219.004V424.004C139.38 426.654 140.52 428.214 142.44 428.214Z" fill="#FAFAFA"/>
<path d="M202.384 212.464L201.619 212.911C201.589 212.739 201.534 212.604 201.454 212.507C201.374 212.41 201.276 212.345 201.16 212.313C201.044 212.28 200.914 212.28 200.77 212.313C200.628 212.345 200.476 212.408 200.316 212.502C200.027 212.671 199.768 212.907 199.539 213.209C199.312 213.511 199.132 213.863 198.999 214.266C198.868 214.668 198.803 215.104 198.803 215.574C198.803 216.048 198.868 216.409 198.999 216.658C199.132 216.907 199.312 217.047 199.541 217.08C199.77 217.113 200.028 217.046 200.314 216.878C200.472 216.786 200.623 216.673 200.765 216.541C200.909 216.405 201.039 216.255 201.155 216.088C201.271 215.922 201.369 215.744 201.449 215.555C201.531 215.364 201.588 215.166 201.619 214.962L202.384 214.518C202.343 214.828 202.264 215.137 202.146 215.447C202.03 215.753 201.88 216.047 201.697 216.328C201.516 216.607 201.308 216.862 201.074 217.093C200.84 217.324 200.585 217.521 200.309 217.682C199.874 217.937 199.486 218.044 199.146 218.004C198.806 217.962 198.538 217.775 198.342 217.443C198.147 217.11 198.05 216.634 198.05 216.014C198.05 215.393 198.148 214.803 198.344 214.243C198.541 213.681 198.809 213.182 199.149 212.744C199.489 212.305 199.876 211.958 200.309 211.705C200.575 211.549 200.824 211.449 201.054 211.403C201.287 211.354 201.495 211.361 201.68 211.424C201.865 211.484 202.018 211.601 202.139 211.775C202.26 211.946 202.341 212.176 202.384 212.464ZM203.232 215.894V211.531L203.941 211.116V211.809L203.98 211.786C204.048 211.511 204.169 211.256 204.343 211.02C204.518 210.782 204.716 210.598 204.936 210.469C204.982 210.442 205.036 210.412 205.098 210.38C205.162 210.346 205.212 210.322 205.248 210.306V211.119C205.218 211.127 205.166 211.147 205.091 211.179C205.016 211.21 204.94 211.248 204.865 211.292C204.692 211.393 204.537 211.526 204.402 211.69C204.268 211.852 204.161 212.031 204.083 212.226C204.004 212.42 203.965 212.611 203.965 212.801V215.465L203.232 215.894ZM207.371 213.562C207 213.779 206.68 213.874 206.412 213.847C206.146 213.818 205.94 213.678 205.794 213.427C205.65 213.174 205.578 212.822 205.578 212.369C205.578 211.922 205.65 211.486 205.794 211.061C205.94 210.635 206.142 210.25 206.402 209.907C206.664 209.563 206.97 209.288 207.32 209.084C207.532 208.96 207.738 208.88 207.938 208.845C208.137 208.81 208.316 208.833 208.475 208.914C208.633 208.996 208.758 209.149 208.85 209.374C208.941 209.597 208.987 209.906 208.987 210.302V210.603L205.993 212.354V211.718L208.269 210.387C208.269 210.163 208.229 209.989 208.151 209.862C208.072 209.734 207.962 209.661 207.82 209.644C207.679 209.626 207.514 209.672 207.324 209.783C207.118 209.903 206.939 210.067 206.785 210.274C206.633 210.479 206.515 210.699 206.432 210.935C206.35 211.169 206.309 211.394 206.309 211.612V212.109C206.309 212.401 206.353 212.623 206.442 212.776C206.531 212.928 206.657 213.011 206.817 213.026C206.977 213.038 207.164 212.982 207.378 212.856C207.517 212.775 207.644 212.678 207.759 212.566C207.873 212.452 207.972 212.324 208.055 212.182C208.139 212.041 208.202 211.889 208.247 211.727L208.941 211.466C208.885 211.735 208.785 212.001 208.641 212.263C208.499 212.522 208.32 212.764 208.104 212.989C207.89 213.211 207.646 213.402 207.371 213.562ZM210.897 211.509C210.658 211.649 210.443 211.724 210.25 211.735C210.057 211.743 209.904 211.682 209.791 211.551C209.68 211.419 209.624 211.21 209.624 210.924C209.624 210.678 209.665 210.451 209.747 210.244C209.829 210.037 209.939 209.847 210.078 209.673C210.217 209.499 210.372 209.338 210.544 209.19C210.716 209.043 210.891 208.904 211.069 208.776C211.294 208.613 211.478 208.482 211.618 208.38C211.759 208.277 211.861 208.185 211.925 208.102C211.989 208.019 212.02 207.927 212.02 207.824V207.804C212.02 207.556 211.96 207.399 211.839 207.334C211.72 207.267 211.541 207.303 211.304 207.442C211.057 207.586 210.863 207.763 210.721 207.973C210.58 208.181 210.483 208.377 210.429 208.562L209.74 208.783C209.821 208.47 209.941 208.186 210.098 207.931C210.256 207.674 210.439 207.448 210.645 207.254C210.851 207.057 211.067 206.893 211.294 206.76C211.445 206.672 211.604 206.6 211.773 206.543C211.943 206.483 212.101 206.464 212.249 206.486C212.397 206.507 212.519 206.591 212.614 206.736C212.709 206.879 212.756 207.11 212.756 207.428V210.326L212.04 210.745V210.148L212.011 210.165C211.963 210.303 211.892 210.452 211.797 210.614C211.702 210.775 211.581 210.935 211.432 211.092C211.283 211.249 211.105 211.388 210.897 211.509ZM211.057 210.734C211.259 210.616 211.433 210.468 211.577 210.291C211.722 210.113 211.832 209.928 211.908 209.734C211.984 209.538 212.023 209.353 212.023 209.181V208.618C211.997 208.664 211.946 208.722 211.871 208.792C211.797 208.86 211.713 208.931 211.618 209.005C211.523 209.078 211.431 209.148 211.341 209.216C211.251 209.282 211.176 209.337 211.115 209.382C210.973 209.486 210.843 209.597 210.725 209.715C210.609 209.832 210.516 209.957 210.446 210.091C210.377 210.222 210.343 210.364 210.343 210.515C210.343 210.725 210.41 210.845 210.544 210.875C210.678 210.903 210.849 210.856 211.057 210.734ZM215.491 204.363V205.045L213.434 206.248V205.566L215.491 204.363ZM213.986 204.198L214.719 203.77V207.897C214.719 208.062 214.74 208.174 214.783 208.232C214.825 208.289 214.88 208.313 214.947 208.304C215.016 208.292 215.09 208.263 215.17 208.216C215.229 208.181 215.28 208.147 215.325 208.111C215.369 208.076 215.403 208.048 215.428 208.028L215.56 208.653C215.518 208.697 215.457 208.751 215.379 208.816C215.3 208.882 215.202 208.951 215.084 209.022C214.891 209.138 214.711 209.204 214.545 209.218C214.378 209.232 214.243 209.182 214.14 209.068C214.037 208.954 213.986 208.765 213.986 208.502V204.198ZM217.886 207.415C217.515 207.632 217.195 207.727 216.927 207.7C216.66 207.671 216.454 207.531 216.309 207.28C216.165 207.027 216.093 206.675 216.093 206.222C216.093 205.775 216.165 205.339 216.309 204.914C216.454 204.488 216.657 204.103 216.917 203.76C217.179 203.416 217.484 203.141 217.834 202.937C218.047 202.813 218.253 202.733 218.452 202.698C218.652 202.663 218.831 202.686 218.989 202.767C219.148 202.849 219.273 203.002 219.365 203.227C219.456 203.45 219.502 203.759 219.502 204.155V204.456L216.507 206.207V205.57L218.783 204.24C218.783 204.016 218.744 203.841 218.666 203.715C218.587 203.587 218.477 203.514 218.335 203.497C218.194 203.478 218.029 203.525 217.839 203.636C217.633 203.756 217.453 203.92 217.3 204.127C217.147 204.332 217.03 204.552 216.946 204.788C216.865 205.022 216.824 205.247 216.824 205.465V205.962C216.824 206.254 216.868 206.476 216.956 206.629C217.046 206.781 217.171 206.864 217.331 206.879C217.492 206.891 217.679 206.834 217.893 206.709C218.032 206.628 218.159 206.531 218.273 206.419C218.388 206.305 218.487 206.177 218.57 206.035C218.653 205.894 218.717 205.742 218.761 205.58L219.455 205.319C219.4 205.588 219.3 205.854 219.156 206.116C219.014 206.375 218.835 206.617 218.619 206.842C218.405 207.063 218.16 207.255 217.886 207.415ZM226.256 196.615V202.434L225.56 202.841L223.007 200.066L222.96 200.094V204.361L222.202 204.804V198.986L222.904 198.575L225.459 201.354L225.506 201.327V197.054L226.256 196.615ZM228.926 200.961C228.555 201.178 228.236 201.273 227.968 201.246C227.701 201.216 227.495 201.076 227.349 200.826C227.206 200.573 227.134 200.22 227.134 199.767C227.134 199.32 227.206 198.884 227.349 198.459C227.495 198.033 227.698 197.649 227.958 197.305C228.219 196.961 228.525 196.687 228.875 196.482C229.088 196.358 229.294 196.278 229.493 196.243C229.692 196.208 229.872 196.231 230.03 196.313C230.189 196.394 230.314 196.547 230.405 196.772C230.497 196.995 230.543 197.305 230.543 197.7V198.002L227.548 199.752V199.116L229.824 197.785C229.824 197.562 229.785 197.387 229.706 197.26C229.628 197.132 229.518 197.059 229.375 197.042C229.235 197.024 229.07 197.07 228.88 197.181C228.674 197.302 228.494 197.465 228.34 197.673C228.188 197.877 228.071 198.097 227.987 198.334C227.905 198.567 227.865 198.793 227.865 199.01V199.508C227.865 199.799 227.909 200.022 227.997 200.175C228.087 200.327 228.212 200.41 228.372 200.424C228.532 200.436 228.72 200.38 228.934 200.255C229.073 200.173 229.2 200.077 229.314 199.964C229.428 199.85 229.527 199.722 229.611 199.581C229.694 199.439 229.758 199.287 229.802 199.125L230.496 198.864C230.441 199.133 230.341 199.399 230.197 199.661C230.055 199.92 229.876 200.162 229.66 200.387C229.446 200.609 229.201 200.8 228.926 200.961ZM232.166 198.979L231.058 195.263L231.816 194.82L232.554 197.593L232.591 197.571L233.331 193.934L234.089 193.491L234.825 196.251L234.862 196.23L235.595 192.61L236.353 192.167L235.247 197.178L234.499 197.615L233.733 194.912L233.677 194.945L232.912 198.543L232.166 198.979ZM238.935 195.021V189.203L242.05 187.382V188.138L239.693 189.516V191.288L241.827 190.041V190.794L239.693 192.041V194.578L238.935 195.021ZM244.233 192.012C243.88 192.218 243.572 192.305 243.309 192.271C243.046 192.238 242.841 192.095 242.696 191.843C242.55 191.591 242.477 191.239 242.477 190.789C242.477 190.336 242.55 189.898 242.696 189.473C242.841 189.049 243.046 188.667 243.309 188.325C243.572 187.984 243.88 187.71 244.233 187.503C244.587 187.297 244.895 187.211 245.158 187.244C245.421 187.278 245.626 187.422 245.771 187.676C245.917 187.929 245.989 188.283 245.989 188.735C245.989 189.186 245.917 189.623 245.771 190.045C245.626 190.467 245.421 190.849 245.158 191.19C244.895 191.532 244.587 191.806 244.233 192.012ZM244.236 191.297C244.465 191.164 244.654 190.983 244.805 190.755C244.955 190.527 245.066 190.275 245.138 190C245.212 189.724 245.249 189.446 245.249 189.166C245.249 188.887 245.212 188.653 245.138 188.463C245.066 188.27 244.955 188.147 244.805 188.093C244.654 188.039 244.465 188.078 244.236 188.212C244.005 188.347 243.814 188.53 243.662 188.761C243.512 188.991 243.4 189.245 243.326 189.523C243.254 189.798 243.218 190.074 243.218 190.353C243.218 190.633 243.254 190.869 243.326 191.06C243.4 191.249 243.512 191.371 243.662 191.423C243.814 191.474 244.005 191.432 244.236 191.297ZM246.808 190.419V186.055L247.517 185.641V186.334L247.556 186.311C247.625 186.036 247.746 185.781 247.919 185.545C248.094 185.306 248.292 185.122 248.513 184.993C248.558 184.967 248.612 184.937 248.674 184.904C248.738 184.871 248.788 184.846 248.824 184.831V185.644C248.795 185.651 248.742 185.672 248.667 185.704C248.592 185.735 248.517 185.772 248.441 185.816C248.268 185.917 248.114 186.05 247.978 186.215C247.844 186.377 247.738 186.555 247.659 186.751C247.581 186.944 247.541 187.136 247.541 187.325V189.99L246.808 190.419ZM249.459 188.869V184.506L250.162 184.094V184.804L250.209 184.777C250.288 184.491 250.416 184.228 250.594 183.989C250.772 183.749 250.986 183.556 251.234 183.411C251.486 183.263 251.697 183.208 251.867 183.245C252.039 183.281 252.165 183.395 252.247 183.586L252.286 183.563C252.376 183.277 252.519 183.008 252.716 182.755C252.912 182.5 253.146 182.293 253.417 182.135C253.759 181.935 254.037 181.896 254.253 182.018C254.471 182.139 254.58 182.449 254.58 182.949V185.875L253.846 186.304V183.458C253.846 183.162 253.777 182.989 253.638 182.937C253.499 182.886 253.333 182.917 253.14 183.03C252.901 183.169 252.716 183.363 252.583 183.611C252.451 183.857 252.384 184.112 252.384 184.377V187.159L251.654 187.586V184.685C251.654 184.449 251.59 184.296 251.462 184.226C251.335 184.157 251.169 184.182 250.964 184.301C250.825 184.383 250.697 184.5 250.579 184.654C250.463 184.806 250.369 184.977 250.297 185.169C250.227 185.359 250.192 185.553 250.192 185.75V188.441L249.459 188.869Z" fill="#242424"/>
<path d="M366.29 88.8841V291.574C366.158 293.718 365.53 295.802 364.456 297.662C363.382 299.523 361.891 301.108 360.1 302.294L144.76 426.674C144.062 427.113 143.264 427.368 142.44 427.414C140.44 427.414 140.18 425.054 140.18 424.034V219.474L366.29 88.8841ZM367.91 86.0841L138.57 218.544V424.034C138.57 427.204 140.14 429.034 142.44 429.034C143.553 428.98 144.632 428.635 145.57 428.034L360.87 303.694C362.907 302.366 364.603 300.577 365.819 298.471C367.035 296.365 367.738 294.002 367.87 291.574V86.0841H367.91Z" fill="#E0E0E0"/>
<path d="M138.57 218.544V240.414L367.9 107.954L367.91 86.0841L138.57 218.544Z" fill="#1A1A1A"/>
<path d="M171.064 205.39C170.228 205.835 169.524 206.582 169.259 206.887C168.525 207.728 168.103 208.578 167.333 210.126C167.032 210.732 166.743 211.366 166.171 212.632C165.979 213.05 165.883 213.273 165.798 213.461L165.792 213.472C165.708 213.66 165.636 213.821 165.491 214.134C164.89 215.452 164.456 216.407 164.288 216.672C163.842 217.375 163.186 218.031 162.615 218.337C161.507 218.937 159.9 218.725 159.894 216.777C159.888 215.164 160.966 213.168 162.344 212.238C162.97 211.816 163.566 211.649 164.077 211.748C164.155 211.759 164.203 211.822 164.216 211.913C164.228 212.004 164.203 212.123 164.149 212.238L162.332 215.946C162.073 216.472 162.103 217.008 162.392 217.164C162.554 217.246 162.771 217.212 162.994 217.071C163.216 216.922 163.421 216.679 163.553 216.407L166.003 211.413C166.226 210.957 166.232 210.498 166.015 210.287C165.209 209.497 163.933 209.487 162.591 210.256C160.231 211.609 158.318 214.938 158.318 217.674C158.318 219.066 158.829 220.06 159.762 220.477C160.55 220.829 161.604 220.729 162.567 220.205C162.597 220.188 162.633 220.167 162.663 220.15C163.59 219.619 164.607 218.595 165.317 217.474C165.63 216.98 165.985 216.195 166.773 214.47C166.918 214.149 166.996 213.971 167.08 213.79L167.086 213.773C167.17 213.584 167.267 213.368 167.453 212.96C168.007 211.74 168.284 211.127 168.561 210.569C169.223 209.231 169.53 208.614 169.945 208.138C170.035 208.038 170.493 207.53 171.004 207.258C172.117 206.669 173.73 206.884 173.73 208.829C173.73 210.558 172.521 212.658 171.034 213.51C170.643 213.734 170.234 213.829 170.234 213.829C169.524 213.977 169.06 213.697 168.795 213.436C168.657 213.299 168.446 213.287 168.218 213.397C167.989 213.507 167.766 213.732 167.598 214.025C167.327 214.495 167.297 215.037 167.538 215.27C167.941 215.661 168.651 216.08 169.758 215.851C169.782 215.844 170.384 215.716 171.028 215.347C173.387 213.994 175.301 210.665 175.301 207.929C175.307 204.798 172.84 204.449 171.064 205.39Z" fill="white"/>
<path d="M156.151 215.001C156.043 214.972 155.904 214.933 155.73 214.921C155.567 214.903 155.29 214.894 154.935 214.958C154.388 215.063 153.9 215.3 153.587 215.48C152.594 216.049 151.649 216.981 150.891 218.141V217.932C150.891 217.43 150.536 217.222 150.103 217.47C149.669 217.718 149.32 218.33 149.32 218.832V226.929C149.32 227.431 149.675 227.639 150.109 227.391C150.542 227.143 150.897 226.528 150.897 226.026V221.973C150.897 220.251 152.107 218.156 153.593 217.303C155.08 216.451 156.289 217.16 156.289 218.883V222.935C156.289 223.437 156.645 223.645 157.078 223.397C157.511 223.148 157.866 222.533 157.866 222.031V217.567C157.866 217.491 157.866 215.496 156.151 215.001Z" fill="white"/>
<path d="M293.01 138.394V142.894C293.01 143.814 293.66 144.194 294.46 143.734L352.33 110.294V102.434L294.46 135.874C294.037 136.15 293.685 136.523 293.433 136.961C293.181 137.398 293.036 137.89 293.01 138.394Z" fill="#FAFAFA"/>
<path d="M359.95 98.0341C360.75 97.5741 361.4 97.9541 361.4 98.8741V103.384C361.372 103.887 361.226 104.376 360.975 104.812C360.723 105.248 360.372 105.619 359.95 105.894L352.33 110.294V102.434L359.95 98.0341Z" fill="#808080"/>
<path d="M359.13 104.684L358.25 104.274C358.401 103.902 358.505 103.512 358.56 103.114C358.654 102.749 358.65 102.366 358.551 102.003C358.451 101.64 358.257 101.309 357.99 101.044C357.8 100.901 357.574 100.813 357.337 100.792C357.1 100.771 356.862 100.817 356.65 100.924C356.007 101.289 355.458 101.801 355.05 102.418C354.642 103.035 354.385 103.739 354.3 104.474C354.208 104.838 354.211 105.22 354.309 105.582C354.407 105.945 354.597 106.276 354.86 106.544C355.023 106.671 355.216 106.753 355.42 106.784C355.689 106.811 355.961 106.77 356.21 106.664C356.97 106.279 357.584 105.658 357.96 104.894L358.84 105.304H358.94C359.023 105.32 359.11 105.305 359.182 105.261C359.255 105.217 359.308 105.147 359.332 105.066C359.356 104.984 359.348 104.897 359.311 104.821C359.273 104.745 359.209 104.685 359.13 104.654V104.684ZM355.95 106.034C355.849 106.095 355.733 106.127 355.615 106.127C355.497 106.127 355.381 106.095 355.28 106.034C355.121 105.836 355.011 105.604 354.959 105.355C354.906 105.107 354.914 104.849 354.98 104.604C355.056 103.991 355.27 103.404 355.604 102.884C355.938 102.365 356.384 101.928 356.91 101.604C357.045 101.544 357.193 101.52 357.34 101.534C357.425 101.542 357.506 101.577 357.57 101.634C357.722 101.826 357.829 102.05 357.881 102.289C357.933 102.528 357.929 102.776 357.87 103.014C357.796 103.629 357.585 104.219 357.252 104.742C356.92 105.264 356.475 105.706 355.95 106.034Z" fill="#FAFAFA"/>
<path d="M359.36 71.5141C358.09 70.7341 356.31 70.8141 354.36 71.9541L139 196.334C136.962 197.661 135.266 199.451 134.05 201.557C132.834 203.663 132.131 206.026 132 208.454V214.724L138.56 218.544L367.87 86.0841V79.8141C367.87 77.5941 367.09 76.0341 365.87 75.3041C364.65 74.5741 360.5 72.2141 359.36 71.5141Z" fill="#404040"/>
<path d="M138.57 212.264C138.701 209.836 139.404 207.472 140.62 205.367C141.836 203.261 143.532 201.471 145.57 200.144L360.87 75.7741C364.73 73.5441 367.87 75.3541 367.87 79.7741V86.0441L138.57 218.544V212.264Z" fill="#333333"/>
<path d="M365.95 75.3441C364.67 74.5541 362.89 74.6341 360.95 75.7741L145.57 200.144C143.5 201.432 141.796 203.229 140.62 205.364L134.05 201.564C135.238 199.419 136.96 197.617 139.05 196.334L354.34 71.9441C356.34 70.8141 358.09 70.7341 359.34 71.5141C360.59 72.2941 364.69 74.6141 365.87 75.2941L365.95 75.3441Z" fill="#242424"/>
<path d="M343.47 90.6841C342.759 91.1473 342.167 91.7718 341.743 92.5069C341.32 93.2419 341.075 94.0667 341.03 94.9141C341.03 96.4741 342.12 97.1041 343.47 96.3241C344.174 95.8564 344.757 95.2299 345.174 94.4951C345.591 93.7604 345.829 92.9379 345.87 92.0941C345.87 90.5341 344.87 89.9041 343.47 90.6841Z" fill="#FAFAFA"/>
<path d="M352.02 85.7541C351.309 86.2195 350.717 86.8459 350.293 87.5825C349.87 88.3192 349.625 89.1453 349.58 89.9941C349.58 91.5541 350.67 92.1841 352.02 91.4041C352.725 90.9436 353.312 90.3251 353.736 89.5977C354.159 88.8703 354.407 88.0541 354.46 87.2141C354.46 85.6141 353.37 84.9841 352.02 85.7541Z" fill="#FAFAFA"/>
<path d="M360.57 80.8341C359.859 81.2973 359.267 81.9219 358.843 82.6569C358.419 83.392 358.175 84.2167 358.13 85.0641C358.13 86.6241 359.22 87.2541 360.57 86.4741C361.286 86.0084 361.882 85.3795 362.308 84.6389C362.733 83.8984 362.978 83.0673 363.02 82.2141C363.02 80.6841 361.92 80.0541 360.57 80.8341Z" fill="#FAFAFA"/>
<path d="M145.97 426.904C142.33 429.004 139.38 427.294 139.38 423.094V240.874L194.07 209.294V399.124L145.97 426.904Z" fill="#F5F5F5"/>
<path d="M140.18 241.344L193.26 210.684V398.684L146.37 425.744C143.02 427.674 140.18 426.044 140.18 422.164V241.344ZM138.57 240.414V424.034C138.57 428.494 141.7 430.304 145.57 428.034L194.87 399.594V207.884L138.57 240.414Z" fill="#E0E0E0"/>
<path d="M138.57 218.544L132.01 214.724V236.624L138.57 240.414V218.544Z" fill="#242424"/>
<path d="M159.64 241.034L183.97 226.974C184.87 226.454 185.6 226.874 185.6 227.914V230.034C185.566 230.598 185.401 231.147 185.118 231.637C184.835 232.126 184.442 232.543 183.97 232.854L159.64 246.914C158.74 247.434 158.02 247.014 158.02 245.974V243.854C158.052 243.29 158.215 242.742 158.497 242.252C158.778 241.763 159.169 241.346 159.64 241.034Z" fill="#E0E0E0"/>
<path d="M152.93 246.794V248.904C152.9 249.468 152.737 250.017 152.456 250.507C152.174 250.997 151.782 251.414 151.31 251.724L149.47 252.784C148.58 253.304 147.85 252.884 147.85 251.844V249.724C147.881 249.162 148.044 248.614 148.326 248.126C148.607 247.638 148.999 247.223 149.47 246.914L151.31 245.854C152.2 245.334 152.93 245.754 152.93 246.794Z" fill="#0084FF"/>
<path d="M159.64 252.734L183.97 238.674C184.87 238.154 185.6 238.574 185.6 239.614V241.734C185.567 242.297 185.402 242.845 185.119 243.333C184.836 243.821 184.442 244.236 183.97 244.544L159.64 258.614C158.74 259.124 158.02 258.704 158.02 257.674V255.554C158.051 254.99 158.213 254.441 158.494 253.951C158.776 253.462 159.168 253.045 159.64 252.734Z" fill="#E0E0E0"/>
<path d="M152.93 258.494V260.604C152.9 261.168 152.737 261.717 152.456 262.207C152.174 262.697 151.782 263.114 151.31 263.424L149.47 264.484C148.58 265.004 147.85 264.584 147.85 263.544V261.424C147.881 260.862 148.044 260.314 148.326 259.826C148.607 259.338 148.999 258.923 149.47 258.614L151.31 257.554C152.2 257.034 152.93 257.454 152.93 258.494Z" fill="#0084FF"/>
<path d="M159.64 264.434L183.97 250.374C184.87 249.854 185.6 250.274 185.6 251.314V253.434C185.562 253.992 185.395 254.534 185.112 255.016C184.83 255.498 184.438 255.909 183.97 256.214L159.64 270.314C158.74 270.824 158.02 270.404 158.02 269.374V267.214C158.057 266.657 158.222 266.116 158.503 265.634C158.784 265.151 159.173 264.741 159.64 264.434Z" fill="#E0E0E0"/>
<path d="M152.93 270.214V272.324C152.9 272.888 152.737 273.437 152.456 273.927C152.174 274.417 151.782 274.833 151.31 275.144L149.47 276.214C148.58 276.734 147.85 276.314 147.85 275.274V273.154C147.88 272.591 148.042 272.043 148.324 271.555C148.605 271.067 148.998 270.652 149.47 270.344L151.31 269.284C152.2 268.734 152.93 269.154 152.93 270.214Z" fill="#0084FF"/>
<path d="M159.45 275.177L183.78 261.177C184.68 260.657 185.41 261.077 185.41 262.117V264.177C185.378 264.742 185.213 265.291 184.93 265.781C184.647 266.271 184.253 266.687 183.78 266.997L159.45 281.057C158.55 281.577 157.83 281.157 157.83 280.117V278.007C157.859 277.441 158.021 276.89 158.302 276.399C158.584 275.907 158.977 275.489 159.45 275.177Z" fill="#E0E0E0"/>
<path d="M152.74 280.947V283.067C152.709 283.63 152.546 284.177 152.265 284.665C151.983 285.153 151.591 285.568 151.12 285.877L149.28 286.937C148.39 287.457 147.66 287.037 147.66 285.997V283.887C147.691 283.323 147.853 282.774 148.135 282.284C148.416 281.795 148.808 281.378 149.28 281.067L151.12 280.007C152.01 279.487 152.74 279.907 152.74 280.947Z" fill="#0084FF"/>
<path d="M198.918 243.3C198.773 243.301 198.63 243.264 198.504 243.192C198.336 243.075 198.201 242.916 198.114 242.73C198.026 242.545 197.988 242.34 198.004 242.135V234.127C198.01 233.719 198.113 233.319 198.304 232.958C198.495 232.598 198.77 232.289 199.104 232.055L229.93 214.26C230.071 214.166 230.235 214.111 230.405 214.102C230.575 214.094 230.744 214.131 230.894 214.21C231.062 214.326 231.196 214.484 231.282 214.669C231.369 214.853 231.405 215.057 231.387 215.26V223.24C231.382 223.647 231.279 224.047 231.087 224.406C230.896 224.765 230.622 225.073 230.287 225.304L199.461 243.107C199.301 243.219 199.114 243.286 198.918 243.3ZM230.494 214.81C230.428 214.819 230.365 214.84 230.308 214.875L199.461 232.677C199.244 232.848 199.068 233.064 198.944 233.311C198.821 233.558 198.753 233.829 198.747 234.106V242.078C198.747 242.321 198.818 242.471 198.89 242.514C198.961 242.557 199.083 242.514 199.133 242.464L229.93 224.726C230.147 224.555 230.324 224.339 230.447 224.092C230.571 223.845 230.638 223.573 230.644 223.297V215.26C230.653 215.182 230.646 215.103 230.623 215.028C230.599 214.953 230.56 214.883 230.508 214.825L230.494 214.81Z" fill="#E0E0E0"/>
<path d="M198.918 257.937C198.773 257.939 198.63 257.902 198.504 257.83C198.336 257.713 198.201 257.553 198.114 257.368C198.026 257.182 197.988 256.977 198.004 256.773V248.793C198.011 248.387 198.115 247.988 198.306 247.629C198.497 247.27 198.771 246.961 199.104 246.729L229.93 228.926C230.072 228.834 230.236 228.782 230.406 228.775C230.575 228.767 230.744 228.805 230.894 228.884C231.062 228.999 231.196 229.157 231.282 229.342C231.369 229.526 231.405 229.731 231.387 229.934V237.913C231.382 238.32 231.279 238.72 231.087 239.079C230.896 239.438 230.622 239.746 230.287 239.978L199.461 257.78C199.296 257.877 199.11 257.931 198.918 257.937ZM230.494 229.484C230.426 229.491 230.36 229.513 230.301 229.548L199.461 247.35C199.244 247.521 199.068 247.738 198.944 247.985C198.821 248.232 198.753 248.503 198.747 248.779V256.759C198.747 257.001 198.818 257.151 198.89 257.194C198.961 257.237 199.083 257.194 199.133 257.144L229.958 239.349C230.176 239.179 230.353 238.962 230.476 238.715C230.6 238.468 230.667 238.197 230.672 237.92V229.934C230.682 229.856 230.675 229.776 230.651 229.701C230.628 229.626 230.589 229.557 230.537 229.498L230.494 229.484Z" fill="#E0E0E0"/>
<path d="M344.894 166.533C344.944 166.533 344.98 166.497 345.001 166.533C345.03 166.565 345.05 166.604 345.058 166.647L346.123 169.683C346.133 169.725 346.133 169.769 346.123 169.812C346.123 169.862 346.073 169.89 346.037 169.905L345.723 170.09C345.666 170.09 345.63 170.09 345.601 170.09C345.581 170.071 345.566 170.046 345.558 170.019L345.373 169.483L344.001 170.276L343.815 170.99C343.807 171.034 343.79 171.075 343.765 171.112C343.738 171.164 343.696 171.206 343.644 171.233L343.337 171.412C343.337 171.412 343.272 171.412 343.251 171.412C343.239 171.401 343.23 171.388 343.223 171.373C343.217 171.358 343.214 171.342 343.215 171.326C343.214 171.312 343.214 171.298 343.215 171.283L344.28 166.997C344.291 166.933 344.311 166.871 344.337 166.811C344.361 166.766 344.398 166.728 344.444 166.704L344.894 166.533ZM345.137 168.926L344.658 167.554L344.18 169.476L345.137 168.926Z" fill="#455A64"/>
<path d="M347.323 166.147C347.396 166.101 347.475 166.067 347.559 166.047C347.62 166.034 347.683 166.034 347.745 166.047C347.792 166.039 347.84 166.039 347.887 166.047L347.973 166.111V164.882C347.976 164.835 347.988 164.789 348.009 164.747C348.027 164.708 348.057 164.675 348.095 164.654L348.423 164.468C348.434 164.458 348.448 164.452 348.463 164.452C348.477 164.452 348.491 164.458 348.502 164.468C348.514 164.478 348.524 164.492 348.53 164.507C348.536 164.521 348.539 164.538 348.538 164.554V168.29C348.536 168.335 348.523 168.379 348.502 168.419C348.485 168.458 348.458 168.493 348.423 168.519L348.095 168.704C348.057 168.704 348.028 168.704 348.009 168.704C347.996 168.694 347.987 168.681 347.98 168.666C347.974 168.651 347.972 168.635 347.973 168.619V168.483C347.949 168.54 347.92 168.595 347.887 168.647C347.844 168.715 347.797 168.779 347.745 168.84C347.688 168.91 347.626 168.974 347.559 169.033C347.485 169.098 347.406 169.158 347.323 169.212C347.205 169.285 347.069 169.322 346.93 169.319C346.82 169.312 346.714 169.269 346.63 169.197C346.541 169.107 346.475 168.997 346.437 168.876C346.384 168.727 346.357 168.57 346.359 168.411C346.355 168.345 346.355 168.278 346.359 168.211C346.355 168.142 346.355 168.073 346.359 168.004C346.361 167.816 346.388 167.629 346.437 167.447C346.482 167.26 346.547 167.078 346.63 166.904C346.712 166.736 346.812 166.578 346.93 166.433C347.043 166.315 347.176 166.218 347.323 166.147ZM346.916 167.776C346.909 167.885 346.909 167.995 346.916 168.104C346.916 168.34 346.994 168.49 347.094 168.54C347.152 168.567 347.216 168.578 347.279 168.57C347.343 168.563 347.402 168.537 347.452 168.497C347.601 168.407 347.725 168.279 347.809 168.126C347.904 167.947 347.96 167.749 347.973 167.547C347.977 167.473 347.977 167.399 347.973 167.326C347.978 167.254 347.978 167.183 347.973 167.111C347.977 167.04 347.964 166.968 347.935 166.903C347.907 166.837 347.864 166.779 347.809 166.733C347.755 166.699 347.693 166.681 347.63 166.681C347.567 166.681 347.505 166.699 347.452 166.733C347.299 166.819 347.175 166.948 347.094 167.104C346.994 167.301 346.94 167.519 346.937 167.74L346.916 167.776Z" fill="#455A64"/>
<path d="M350.002 164.561C350.078 164.516 350.16 164.483 350.245 164.461C350.306 164.447 350.37 164.447 350.431 164.461C350.475 164.449 350.522 164.449 350.566 164.461C350.6 164.476 350.631 164.495 350.659 164.518V163.289C350.649 163.247 350.649 163.203 350.659 163.161C350.659 163.118 350.709 163.082 350.745 163.068L351.074 162.875C351.084 162.865 351.098 162.859 351.113 162.859C351.128 162.859 351.142 162.865 351.152 162.875C351.152 162.875 351.188 162.918 351.188 162.961V166.754C351.19 166.8 351.177 166.845 351.152 166.883C351.134 166.919 351.107 166.951 351.074 166.976L350.745 167.168C350.732 167.175 350.717 167.179 350.702 167.179C350.687 167.179 350.673 167.175 350.659 167.168C350.647 167.139 350.647 167.105 350.659 167.076V166.947C350.659 166.99 350.602 167.047 350.566 167.111C350.531 167.176 350.481 167.233 350.431 167.297C350.373 167.367 350.311 167.434 350.245 167.497C350.171 167.564 350.09 167.621 350.002 167.668C349.885 167.744 349.748 167.784 349.609 167.783C349.497 167.776 349.391 167.731 349.309 167.654C349.222 167.562 349.157 167.453 349.116 167.333C349.066 167.183 349.04 167.026 349.038 166.868C349.034 166.802 349.034 166.735 349.038 166.668C349.034 166.599 349.034 166.53 349.038 166.461C349.044 166.273 349.07 166.086 349.116 165.904C349.165 165.718 349.23 165.536 349.309 165.361C349.392 165.194 349.493 165.036 349.609 164.89C349.72 164.758 349.853 164.647 350.002 164.561ZM349.602 166.197C349.588 166.304 349.588 166.412 349.602 166.518C349.602 166.761 349.673 166.904 349.773 166.954C349.831 166.982 349.895 166.992 349.958 166.985C350.022 166.977 350.081 166.952 350.131 166.911C350.283 166.825 350.408 166.696 350.488 166.54C350.59 166.366 350.649 166.17 350.659 165.968C350.659 165.904 350.659 165.833 350.659 165.74C350.659 165.647 350.659 165.583 350.659 165.525C350.663 165.453 350.649 165.381 350.619 165.315C350.589 165.25 350.544 165.192 350.488 165.147C350.431 165.118 350.367 165.107 350.304 165.113C350.241 165.119 350.181 165.143 350.131 165.182C349.981 165.273 349.858 165.401 349.773 165.554C349.664 165.751 349.606 165.972 349.602 166.197Z" fill="#455A64"/>
<path d="M198.918 272.589C198.772 272.592 198.628 272.552 198.504 272.475C198.335 272.36 198.2 272.202 198.112 272.017C198.025 271.833 197.987 271.628 198.004 271.425V263.467C198.011 263.06 198.114 262.661 198.306 262.302C198.497 261.943 198.77 261.635 199.104 261.402L229.929 243.6C230.071 243.506 230.236 243.453 230.406 243.446C230.575 243.438 230.744 243.477 230.894 243.557C231.062 243.673 231.196 243.831 231.282 244.015C231.369 244.2 231.405 244.404 231.387 244.607V252.587C231.381 252.994 231.279 253.393 231.087 253.753C230.896 254.112 230.621 254.42 230.287 254.651L199.461 272.454C199.294 272.543 199.108 272.589 198.918 272.589ZM230.494 244.157C230.428 244.165 230.365 244.187 230.308 244.221L199.461 262.024C199.243 262.194 199.066 262.41 198.943 262.657C198.819 262.904 198.752 263.176 198.747 263.452V271.446C198.747 271.689 198.818 271.839 198.89 271.882C198.961 271.925 199.083 271.882 199.133 271.832L229.929 254.015C230.148 253.847 230.326 253.63 230.45 253.383C230.574 253.135 230.64 252.863 230.644 252.587V244.607C230.653 244.529 230.646 244.45 230.623 244.375C230.599 244.3 230.56 244.23 230.508 244.171L230.494 244.157Z" fill="#E0E0E0"/>
<path d="M237.052 235.92C236.906 235.922 236.763 235.885 236.637 235.813C236.468 235.697 236.332 235.538 236.244 235.352C236.156 235.166 236.119 234.961 236.137 234.756V226.783C236.143 226.376 236.246 225.975 236.437 225.615C236.629 225.255 236.903 224.945 237.237 224.712L302.496 187.035C302.636 186.942 302.799 186.888 302.968 186.88C303.136 186.871 303.304 186.907 303.453 186.985C303.621 187.103 303.756 187.262 303.843 187.448C303.931 187.633 303.969 187.838 303.953 188.043V196.015C303.947 196.423 303.844 196.823 303.653 197.184C303.462 197.544 303.187 197.853 302.853 198.087L237.595 235.763C237.431 235.863 237.243 235.917 237.052 235.92ZM303.039 187.578C302.972 187.584 302.909 187.606 302.853 187.643L237.595 225.319C237.378 225.49 237.201 225.706 237.077 225.953C236.954 226.2 236.887 226.472 236.88 226.748V234.727C236.88 234.97 236.952 235.12 237.023 235.163C237.095 235.206 237.216 235.163 237.266 235.113L302.524 197.437C302.741 197.266 302.918 197.049 303.042 196.802C303.165 196.555 303.232 196.284 303.239 196.008V188.043C303.239 187.8 303.167 187.65 303.096 187.607L303.039 187.578Z" fill="#E0E0E0"/>
<path d="M308.647 194.579C308.502 194.579 308.359 194.543 308.232 194.472C308.064 194.355 307.93 194.195 307.844 194.01C307.757 193.824 307.721 193.619 307.739 193.415V185.435C307.745 185.027 307.848 184.627 308.04 184.267C308.231 183.906 308.505 183.597 308.84 183.364L335.386 168.04C335.526 167.947 335.689 167.893 335.858 167.884C336.026 167.876 336.194 167.912 336.343 167.99C336.512 168.107 336.648 168.266 336.735 168.451C336.823 168.637 336.86 168.843 336.843 169.047V177.02C336.837 177.428 336.734 177.828 336.543 178.188C336.352 178.549 336.078 178.858 335.743 179.092L309.197 194.415C309.031 194.518 308.841 194.575 308.647 194.579ZM335.929 168.605C335.862 168.61 335.799 168.633 335.743 168.669L309.197 184.007C308.979 184.177 308.802 184.393 308.679 184.641C308.555 184.888 308.488 185.159 308.482 185.435V193.408C308.482 193.658 308.554 193.808 308.618 193.843C308.682 193.879 308.818 193.843 308.868 193.801L335.414 178.47C335.631 178.299 335.807 178.082 335.93 177.835C336.054 177.588 336.121 177.317 336.129 177.041V169.055C336.129 168.805 336.057 168.655 335.986 168.619C335.969 168.607 335.949 168.602 335.929 168.605Z" fill="#E0E0E0"/>
<path d="M341.537 175.591C341.394 175.592 341.253 175.555 341.129 175.484C340.959 175.368 340.823 175.209 340.735 175.023C340.647 174.838 340.611 174.631 340.629 174.427V166.454C340.635 166.046 340.738 165.646 340.929 165.286C341.121 164.925 341.395 164.616 341.729 164.382L352.517 158.153C352.658 158.061 352.821 158.008 352.989 158.001C353.158 157.993 353.325 158.031 353.474 158.11C353.642 158.225 353.778 158.383 353.865 158.568C353.953 158.752 353.991 158.957 353.974 159.16V167.14C353.967 167.546 353.863 167.946 353.672 168.305C353.481 168.663 353.207 168.972 352.874 169.204L342.087 175.434C341.921 175.535 341.731 175.589 341.537 175.591ZM353.06 158.71C352.993 158.716 352.929 158.738 352.874 158.775L342.087 165.004C341.87 165.175 341.694 165.392 341.571 165.639C341.447 165.886 341.38 166.157 341.372 166.433V174.405C341.372 174.655 341.444 174.805 341.515 174.841C341.587 174.877 341.708 174.841 341.758 174.791L352.545 168.569C352.762 168.397 352.938 168.181 353.061 167.934C353.185 167.687 353.252 167.416 353.26 167.14V159.16C353.26 158.917 353.188 158.767 353.117 158.725L353.06 158.71Z" fill="#0084FF"/>
<path d="M301.589 196.472L297.767 198.68C297.488 198.837 297.267 198.68 297.267 198.294V193.2C297.268 193.012 297.314 192.826 297.401 192.658C297.488 192.491 297.613 192.346 297.767 192.236L301.589 190.029C301.867 189.864 302.096 190.029 302.096 190.407V195.508C302.092 195.697 302.044 195.883 301.956 196.05C301.868 196.218 301.742 196.362 301.589 196.472Z" fill="#0084FF"/>
<path d="M237.052 265.267C236.906 265.269 236.762 265.23 236.637 265.152C236.468 265.038 236.332 264.88 236.244 264.696C236.156 264.511 236.119 264.306 236.137 264.102V256.158C236.144 255.752 236.248 255.353 236.439 254.994C236.63 254.635 236.904 254.327 237.238 254.094L361.539 182.313C361.68 182.22 361.843 182.166 362.011 182.158C362.179 182.149 362.347 182.185 362.496 182.263C362.665 182.381 362.799 182.54 362.887 182.725C362.975 182.911 363.012 183.116 362.996 183.321V191.3C362.989 191.707 362.886 192.106 362.695 192.465C362.504 192.824 362.23 193.132 361.896 193.365L237.595 265.145C237.426 265.23 237.24 265.271 237.052 265.267ZM362.104 182.835C362.037 182.841 361.974 182.863 361.918 182.899L237.616 254.673C237.4 254.844 237.224 255.061 237.1 255.308C236.977 255.554 236.909 255.825 236.902 256.101V264.081C236.902 264.324 236.973 264.474 237.045 264.517C237.116 264.56 237.238 264.517 237.288 264.467L361.589 192.686C361.806 192.515 361.983 192.299 362.106 192.052C362.23 191.805 362.297 191.533 362.304 191.257V183.292C362.304 183.049 362.232 182.899 362.161 182.856L362.104 182.835Z" fill="#E0E0E0"/>
<path d="M299.681 195.865C299.591 195.866 299.502 195.836 299.431 195.779L298.231 194.872C298.183 194.841 298.141 194.801 298.11 194.753C298.078 194.706 298.056 194.652 298.046 194.595C298.036 194.539 298.038 194.481 298.051 194.425C298.065 194.37 298.089 194.317 298.124 194.272C298.159 194.226 298.203 194.188 298.253 194.161C298.303 194.133 298.358 194.116 298.415 194.11C298.472 194.105 298.53 194.111 298.584 194.129C298.639 194.147 298.689 194.177 298.731 194.215L299.538 194.829L300.517 192.965C300.542 192.917 300.576 192.875 300.617 192.841C300.658 192.807 300.706 192.781 300.757 192.765C300.808 192.749 300.861 192.743 300.915 192.748C300.968 192.753 301.02 192.768 301.067 192.793C301.165 192.844 301.238 192.931 301.272 193.035C301.305 193.139 301.296 193.253 301.246 193.351L300.046 195.644C300.018 195.697 299.979 195.744 299.93 195.78C299.882 195.816 299.826 195.84 299.767 195.851L299.681 195.865Z" fill="#FAFAFA"/>
<path d="M237.052 250.594C236.906 250.595 236.763 250.558 236.637 250.486C236.468 250.37 236.332 250.211 236.244 250.026C236.156 249.84 236.119 249.634 236.137 249.429V241.449C236.144 241.043 236.248 240.644 236.439 240.285C236.63 239.926 236.904 239.618 237.237 239.385L285.615 211.453C285.756 211.36 285.918 211.306 286.087 211.297C286.255 211.288 286.423 211.325 286.572 211.403C286.742 211.519 286.878 211.678 286.966 211.864C287.054 212.049 287.09 212.255 287.072 212.46V220.44C287.066 220.847 286.964 221.248 286.772 221.608C286.581 221.968 286.307 222.278 285.972 222.511L237.595 250.443C237.429 250.538 237.242 250.589 237.052 250.594ZM286.158 212.017C286.092 212.024 286.028 212.046 285.972 212.081L237.595 240.014C237.378 240.184 237.201 240.401 237.077 240.648C236.954 240.895 236.887 241.166 236.88 241.442V249.422C236.88 249.665 236.952 249.815 237.023 249.858C237.095 249.901 237.216 249.858 237.266 249.808L285.615 221.868C285.832 221.698 286.009 221.481 286.132 221.234C286.256 220.987 286.323 220.716 286.329 220.44V212.46C286.329 212.217 286.258 212.067 286.187 212.024L286.158 212.017Z" fill="#E0E0E0"/>
<path d="M198.918 287.284C198.772 287.283 198.629 287.244 198.504 287.17C198.335 287.054 198.2 286.896 198.112 286.712C198.025 286.528 197.987 286.323 198.004 286.12V278.14C198.011 277.733 198.114 277.334 198.306 276.975C198.497 276.616 198.77 276.308 199.104 276.075L229.929 258.302C230.071 258.209 230.235 258.155 230.405 258.146C230.574 258.137 230.743 258.174 230.894 258.252C231.061 258.37 231.195 258.529 231.281 258.715C231.368 258.9 231.404 259.105 231.387 259.309V267.289C231.381 267.696 231.279 268.095 231.087 268.454C230.896 268.814 230.621 269.122 230.287 269.353L199.461 287.127C199.296 287.224 199.11 287.278 198.918 287.284ZM230.494 258.83C230.426 258.838 230.36 258.859 230.301 258.895L199.461 276.69C199.245 276.861 199.069 277.078 198.945 277.325C198.822 277.572 198.754 277.843 198.747 278.119V286.098C198.747 286.341 198.818 286.491 198.89 286.534C198.961 286.577 199.083 286.534 199.133 286.484L229.958 268.682C230.176 268.512 230.354 268.296 230.477 268.048C230.601 267.801 230.668 267.529 230.672 267.253V259.28C230.682 259.202 230.675 259.123 230.651 259.048C230.628 258.973 230.589 258.904 230.537 258.845L230.494 258.83Z" fill="#E0E0E0"/>
<path d="M284.715 220.89L280.893 223.097C280.615 223.254 280.386 223.097 280.386 222.711V217.618C280.389 217.429 280.436 217.243 280.525 217.075C280.613 216.908 280.739 216.763 280.893 216.653L284.715 214.446C284.994 214.282 285.215 214.446 285.215 214.825V219.918C285.214 220.108 285.167 220.295 285.081 220.463C284.994 220.632 284.869 220.778 284.715 220.89Z" fill="#0084FF"/>
<path d="M282.8 220.282C282.71 220.281 282.622 220.251 282.55 220.197L281.357 219.289C281.269 219.224 281.211 219.126 281.195 219.018C281.179 218.909 281.206 218.799 281.272 218.711C281.338 218.624 281.436 218.567 281.545 218.552C281.653 218.537 281.763 218.566 281.85 218.632L282.665 219.247L283.636 217.389C283.66 217.34 283.694 217.297 283.736 217.261C283.777 217.225 283.825 217.198 283.877 217.182C283.929 217.165 283.984 217.159 284.038 217.164C284.092 217.169 284.145 217.185 284.193 217.211C284.29 217.262 284.362 217.35 284.394 217.454C284.426 217.558 284.415 217.671 284.365 217.768L283.165 220.061C283.138 220.113 283.099 220.159 283.052 220.195C283.005 220.231 282.951 220.256 282.893 220.268L282.8 220.282Z" fill="#FAFAFA"/>
<path d="M242.141 257.474C242.543 256.527 242.436 255.576 241.902 255.349C241.369 255.123 240.611 255.708 240.209 256.655C239.807 257.603 239.914 258.554 240.448 258.78C240.982 259.006 241.74 258.422 242.141 257.474Z" fill="#E0E0E0"/>
<path d="M246.682 254.23C246.675 254.685 246.562 255.132 246.351 255.535C246.14 255.938 245.837 256.286 245.467 256.551C244.803 256.937 244.253 256.551 244.253 255.63C244.262 255.171 244.379 254.721 244.595 254.317C244.811 253.912 245.12 253.564 245.496 253.301C246.139 252.93 246.682 253.337 246.682 254.23Z" fill="#E0E0E0"/>
<path d="M250.825 251.872C250.818 252.326 250.705 252.773 250.494 253.175C250.283 253.577 249.98 253.924 249.61 254.187C248.939 254.573 248.396 254.187 248.396 253.273C248.403 252.818 248.516 252.37 248.727 251.967C248.938 251.564 249.24 251.216 249.61 250.951C250.282 250.537 250.825 250.951 250.825 251.872Z" fill="#E0E0E0"/>
<path d="M199.376 336.026C199.23 336.027 199.088 335.99 198.961 335.919C198.793 335.803 198.659 335.645 198.573 335.46C198.486 335.276 198.45 335.072 198.468 334.869V294.935C198.474 294.529 198.576 294.13 198.766 293.771C198.956 293.412 199.229 293.103 199.561 292.87L361.103 199.608C361.243 199.514 361.406 199.459 361.575 199.45C361.744 199.442 361.912 199.479 362.061 199.558C362.228 199.674 362.363 199.832 362.449 200.017C362.536 200.201 362.572 200.406 362.554 200.609V240.542C362.548 240.948 362.446 241.347 362.256 241.706C362.066 242.065 361.793 242.374 361.461 242.607L199.918 335.869C199.755 335.97 199.567 336.024 199.376 336.026ZM361.639 200.166C361.576 200.171 361.515 200.19 361.461 200.223L199.918 293.485C199.702 293.656 199.525 293.872 199.402 294.119C199.278 294.366 199.211 294.637 199.204 294.913V334.847C199.204 335.09 199.268 335.24 199.34 335.276C199.411 335.312 199.54 335.276 199.583 335.233L361.103 241.985C361.322 241.816 361.499 241.599 361.623 241.352C361.746 241.105 361.813 240.833 361.818 240.557V200.623C361.818 200.38 361.753 200.23 361.682 200.194C361.671 200.181 361.656 200.171 361.639 200.166Z" fill="#E0E0E0"/>
<path d="M205.233 299.435L201.412 301.643C201.133 301.807 200.904 301.643 200.904 301.264V296.164C200.907 295.973 200.955 295.786 201.043 295.618C201.131 295.449 201.257 295.303 201.412 295.192L205.233 292.992C205.512 292.827 205.741 292.992 205.741 293.37V298.464C205.739 298.654 205.692 298.842 205.604 299.011C205.515 299.179 205.389 299.325 205.233 299.435Z" fill="#E0E0E0"/>
<path d="M211.92 295.563L208.098 297.771C207.819 297.928 207.591 297.771 207.591 297.385V292.292C207.594 292.102 207.641 291.916 207.729 291.749C207.818 291.581 207.944 291.437 208.098 291.327L211.92 289.12C212.199 288.963 212.42 289.12 212.42 289.506V294.599C212.418 294.788 212.371 294.973 212.285 295.141C212.198 295.308 212.073 295.453 211.92 295.563Z" fill="#E0E0E0"/>
<path d="M218.657 291.692L214.835 293.892C214.556 294.056 214.327 293.892 214.327 293.513V288.42C214.33 288.231 214.378 288.045 214.466 287.877C214.554 287.71 214.68 287.565 214.835 287.455L218.657 285.248C218.935 285.084 219.164 285.248 219.164 285.627V290.72C219.16 290.91 219.112 291.097 219.024 291.266C218.936 291.434 218.81 291.58 218.657 291.692Z" fill="#E0E0E0"/>
<path d="M225.372 287.813L221.55 290.02C221.271 290.184 221.042 290.02 221.042 289.641V284.541C221.046 284.352 221.094 284.166 221.182 283.998C221.27 283.831 221.396 283.687 221.55 283.576L225.372 281.369C225.65 281.212 225.872 281.369 225.872 281.755V286.877C225.866 287.061 225.817 287.241 225.731 287.403C225.644 287.565 225.521 287.705 225.372 287.813Z" fill="#E0E0E0"/>
<path d="M232.08 283.941L228.258 286.162C227.979 286.32 227.75 286.162 227.75 285.777V280.683C227.754 280.494 227.801 280.308 227.889 280.14C227.977 279.973 228.103 279.828 228.258 279.719L232.08 277.511C232.358 277.347 232.587 277.511 232.587 277.89V282.991C232.581 283.177 232.532 283.36 232.444 283.525C232.356 283.69 232.232 283.832 232.08 283.941Z" fill="#E0E0E0"/>
<path d="M238.795 280.062L234.973 282.269C234.694 282.433 234.466 282.269 234.466 281.89V276.79C234.469 276.601 234.517 276.415 234.605 276.248C234.693 276.08 234.819 275.936 234.973 275.825L238.795 273.618C239.074 273.461 239.295 273.618 239.295 274.004V279.097C239.293 279.286 239.247 279.472 239.16 279.639C239.073 279.807 238.948 279.952 238.795 280.062Z" fill="#E0E0E0"/>
<path d="M245.496 276.161L241.674 278.369C241.395 278.526 241.167 278.369 241.167 277.983V272.889C241.17 272.7 241.217 272.514 241.305 272.347C241.393 272.179 241.519 272.035 241.674 271.925L245.496 269.732C245.774 269.567 246.003 269.732 246.003 270.11V275.211C245.997 275.398 245.948 275.581 245.86 275.745C245.772 275.91 245.648 276.052 245.496 276.161Z" fill="#E0E0E0"/>
<path d="M252.218 272.311L248.396 274.518C248.118 274.682 247.889 274.518 247.889 274.139V269.017C247.893 268.828 247.94 268.642 248.028 268.475C248.116 268.308 248.242 268.163 248.396 268.053L252.218 265.846C252.497 265.688 252.718 265.846 252.718 266.231V271.325C252.72 271.517 252.675 271.707 252.588 271.879C252.501 272.05 252.374 272.198 252.218 272.311Z" fill="#E0E0E0"/>
<path d="M258.926 268.439L255.104 270.646C254.825 270.803 254.604 270.646 254.604 270.26V265.167C254.606 264.978 254.652 264.792 254.739 264.625C254.826 264.457 254.951 264.313 255.104 264.202L258.926 261.995C259.205 261.831 259.433 261.995 259.433 262.374V267.474C259.43 267.663 259.382 267.849 259.294 268.017C259.206 268.184 259.08 268.329 258.926 268.439Z" fill="#E0E0E0"/>
<path d="M265.641 264.559L261.819 266.767C261.541 266.931 261.312 266.767 261.312 266.388V261.295C261.316 261.105 261.363 260.918 261.451 260.749C261.539 260.581 261.665 260.435 261.819 260.323L265.641 258.123C265.92 257.959 266.141 258.123 266.141 258.501V263.595C266.14 263.784 266.093 263.969 266.007 264.137C265.92 264.305 265.794 264.449 265.641 264.559Z" fill="#E0E0E0"/>
<path d="M272.349 260.688L268.527 262.895C268.249 263.052 268.027 262.895 268.027 262.509V257.416C268.029 257.227 268.076 257.042 268.163 256.874C268.249 256.707 268.374 256.562 268.527 256.451L272.349 254.244C272.628 254.087 272.856 254.244 272.856 254.63V259.73C272.852 259.918 272.803 260.103 272.715 260.269C272.627 260.435 272.502 260.578 272.349 260.688Z" fill="#E0E0E0"/>
<path d="M279.071 256.816L275.242 259.016C274.964 259.18 274.735 259.016 274.735 258.637V253.544C274.738 253.355 274.786 253.169 274.874 253.001C274.962 252.834 275.088 252.689 275.242 252.579L279.071 250.372C279.35 250.208 279.579 250.372 279.579 250.751V255.844C279.576 256.034 279.528 256.221 279.44 256.39C279.352 256.559 279.226 256.704 279.071 256.816Z" fill="#E0E0E0"/>
<path d="M285.772 252.937L281.929 255.144C281.65 255.308 281.429 255.144 281.429 254.765V249.665C281.431 249.476 281.478 249.291 281.564 249.123C281.651 248.956 281.776 248.811 281.929 248.7L285.751 246.493C286.03 246.336 286.258 246.493 286.258 246.879V251.972C286.258 252.16 286.213 252.344 286.129 252.512C286.045 252.679 285.923 252.825 285.772 252.937Z" fill="#E0E0E0"/>
<path d="M292.487 249.065L288.665 251.272C288.387 251.429 288.158 251.272 288.158 250.886V245.793C288.161 245.604 288.209 245.418 288.297 245.25C288.385 245.083 288.511 244.938 288.665 244.829L292.487 242.621C292.766 242.457 292.995 242.621 292.995 243V248.1C292.991 248.29 292.943 248.475 292.855 248.643C292.767 248.81 292.641 248.955 292.487 249.065Z" fill="#E0E0E0"/>
<path d="M295.174 247.815C295.065 247.815 294.959 247.785 294.866 247.729C294.75 247.651 294.657 247.544 294.595 247.419C294.534 247.293 294.507 247.154 294.516 247.014V241.914C294.519 241.663 294.582 241.417 294.701 241.195C294.819 240.974 294.988 240.784 295.195 240.642L316.541 228.298C316.647 228.229 316.771 228.192 316.898 228.192C317.025 228.192 317.149 228.229 317.255 228.298C317.373 228.374 317.469 228.48 317.532 228.606C317.595 228.731 317.623 228.872 317.612 229.012V234.106C317.606 234.361 317.538 234.611 317.413 234.833C317.289 235.056 317.112 235.245 316.898 235.384L295.552 247.7C295.439 247.773 295.308 247.813 295.174 247.815ZM316.862 228.962L295.552 241.264C295.455 241.342 295.375 241.441 295.32 241.553C295.264 241.666 295.234 241.789 295.231 241.914V247.064L316.541 234.763C316.64 234.684 316.721 234.584 316.778 234.471C316.834 234.357 316.866 234.233 316.869 234.106V229.012C316.869 229.012 316.862 229.012 316.862 228.962Z" fill="#E0E0E0"/>
<path d="M203.347 308.622C203.192 308.621 203.04 308.568 202.917 308.473C202.794 308.377 202.705 308.244 202.665 308.094C202.624 307.943 202.634 307.783 202.693 307.639C202.752 307.494 202.856 307.373 202.99 307.294L356.16 218.847C356.241 218.799 356.331 218.768 356.424 218.755C356.517 218.743 356.612 218.748 356.703 218.772C356.794 218.796 356.879 218.838 356.954 218.895C357.028 218.951 357.091 219.023 357.139 219.104C357.186 219.185 357.216 219.275 357.229 219.369C357.241 219.462 357.235 219.557 357.21 219.648C357.186 219.739 357.143 219.824 357.086 219.899C357.028 219.973 356.956 220.036 356.874 220.083L203.683 308.53C203.581 308.588 203.465 308.62 203.347 308.622Z" fill="#E6E6E6"/>
<path d="M203.348 313.494C203.189 313.496 203.035 313.444 202.909 313.348C202.784 313.252 202.693 313.117 202.652 312.965C202.612 312.812 202.623 312.65 202.684 312.504C202.745 312.358 202.853 312.237 202.99 312.159L356.16 223.712C356.242 223.665 356.332 223.634 356.425 223.622C356.518 223.61 356.613 223.616 356.704 223.641C356.795 223.666 356.88 223.708 356.955 223.765C357.029 223.823 357.092 223.894 357.139 223.976C357.186 224.057 357.216 224.148 357.228 224.241C357.24 224.334 357.234 224.429 357.209 224.52C357.185 224.611 357.142 224.696 357.085 224.771C357.028 224.845 356.956 224.908 356.874 224.955L203.683 313.402C203.581 313.46 203.465 313.492 203.348 313.494Z" fill="#E6E6E6"/>
<path d="M203.348 318.366C203.189 318.368 203.035 318.316 202.909 318.22C202.784 318.124 202.693 317.989 202.652 317.837C202.612 317.684 202.623 317.522 202.684 317.376C202.745 317.23 202.853 317.109 202.99 317.031L356.16 228.583C356.242 228.537 356.332 228.506 356.425 228.494C356.518 228.482 356.613 228.488 356.704 228.513C356.795 228.537 356.88 228.58 356.955 228.637C357.029 228.695 357.092 228.766 357.139 228.848C357.186 228.929 357.216 229.019 357.228 229.113C357.24 229.206 357.234 229.301 357.209 229.392C357.185 229.483 357.142 229.568 357.085 229.643C357.028 229.717 356.956 229.78 356.874 229.827L203.683 318.309C203.578 318.355 203.462 318.375 203.348 318.366Z" fill="#E6E6E6"/>
<path d="M203.348 323.239C203.189 323.24 203.035 323.188 202.909 323.092C202.784 322.996 202.693 322.862 202.652 322.709C202.612 322.556 202.623 322.394 202.684 322.248C202.745 322.102 202.853 321.981 202.99 321.903L256.09 291.249C256.253 291.163 256.443 291.144 256.62 291.196C256.797 291.247 256.947 291.365 257.04 291.524C257.132 291.684 257.159 291.873 257.115 292.052C257.071 292.231 256.96 292.386 256.804 292.485L203.683 323.146C203.581 323.204 203.465 323.236 203.348 323.239Z" fill="#E6E6E6"/>
<path d="M264.92 316.53L235.43 333.554C234.716 333.961 234.158 333.554 234.158 332.589V322.802C234.164 322.325 234.282 321.856 234.503 321.432C234.724 321.009 235.041 320.644 235.43 320.366L264.92 303.343C265.634 302.936 266.191 303.343 266.191 304.307V314.094C266.183 314.571 266.064 315.04 265.844 315.463C265.623 315.886 265.306 316.251 264.92 316.53Z" fill="#E6E6E6"/>
<path d="M243.853 323.395C243.855 323.351 243.866 323.307 243.887 323.267C243.908 323.228 243.938 323.193 243.974 323.167L244.324 322.967C244.337 322.959 244.352 322.954 244.367 322.954C244.382 322.954 244.397 322.959 244.41 322.967C244.41 322.967 244.41 323.017 244.41 323.06C244.394 323.238 244.363 323.415 244.317 323.588C244.262 323.782 244.186 323.969 244.088 324.146C243.979 324.341 243.847 324.524 243.695 324.688C243.525 324.865 243.33 325.017 243.117 325.139C242.957 325.24 242.776 325.304 242.588 325.324C242.452 325.342 242.313 325.306 242.202 325.224C242.083 325.132 241.995 325.005 241.952 324.86C241.883 324.675 241.846 324.479 241.845 324.281C241.845 324.138 241.845 323.981 241.845 323.803C241.845 323.624 241.845 323.46 241.845 323.31C241.851 323.068 241.887 322.828 241.952 322.595C242.007 322.369 242.091 322.15 242.202 321.945C242.305 321.745 242.435 321.56 242.588 321.395C242.739 321.224 242.918 321.079 243.117 320.967C243.291 320.853 243.489 320.782 243.695 320.759C243.832 320.741 243.972 320.771 244.088 320.845C244.194 320.916 244.274 321.019 244.317 321.138C244.367 321.274 244.398 321.415 244.41 321.56C244.423 321.601 244.423 321.646 244.41 321.688C244.393 321.728 244.363 321.761 244.324 321.781L243.974 321.981C243.962 321.987 243.948 321.991 243.935 321.991C243.921 321.991 243.908 321.987 243.895 321.981C243.881 321.972 243.869 321.959 243.86 321.944C243.851 321.929 243.846 321.913 243.845 321.895C243.838 321.828 243.819 321.763 243.788 321.702C243.754 321.651 243.707 321.61 243.653 321.581C243.584 321.565 243.514 321.565 243.445 321.581C243.342 321.602 243.243 321.64 243.153 321.695C243.043 321.761 242.944 321.843 242.86 321.938C242.774 322.03 242.702 322.133 242.645 322.245C242.591 322.357 242.548 322.475 242.517 322.595C242.487 322.717 242.47 322.842 242.467 322.967C242.467 323.117 242.467 323.281 242.467 323.46C242.467 323.638 242.467 323.796 242.467 323.938C242.467 324.045 242.484 324.151 242.517 324.253C242.543 324.329 242.587 324.397 242.645 324.453C242.707 324.498 242.784 324.518 242.86 324.51C242.964 324.501 243.064 324.467 243.153 324.41C243.26 324.35 243.359 324.276 243.445 324.188C243.527 324.109 243.599 324.02 243.66 323.924C243.714 323.839 243.757 323.748 243.788 323.653C243.818 323.569 243.84 323.483 243.853 323.395Z" fill="white"/>
<path d="M246.346 319.195C246.389 319.195 246.424 319.159 246.446 319.195C246.477 319.226 246.5 319.266 246.51 319.309L247.567 322.345C247.572 322.357 247.572 322.37 247.567 322.381C247.577 322.423 247.577 322.467 247.567 322.51C247.551 322.548 247.524 322.58 247.489 322.603L247.174 322.788C247.117 322.788 247.074 322.824 247.053 322.788C247.03 322.769 247.013 322.745 247.003 322.717L246.817 322.181L245.453 322.974L245.267 323.724L245.217 323.846C245.188 323.896 245.146 323.938 245.096 323.967L244.781 324.146C244.769 324.152 244.756 324.156 244.742 324.156C244.728 324.156 244.715 324.152 244.703 324.146C244.703 324.146 244.703 324.096 244.703 324.053C244.699 324.039 244.699 324.024 244.703 324.01L245.76 319.724C245.77 319.658 245.792 319.596 245.824 319.538C245.848 319.494 245.882 319.457 245.924 319.431L246.346 319.195ZM246.582 321.588L246.103 320.217L245.631 322.138L246.582 321.588Z" fill="white"/>
<path d="M249.932 321.159C249.882 321.159 249.846 321.195 249.825 321.159C249.803 321.146 249.783 321.129 249.768 321.109L248.553 319.409V321.788C248.563 321.83 248.563 321.874 248.553 321.917C248.537 321.955 248.509 321.987 248.475 322.009L248.117 322.217C248.105 322.224 248.092 322.227 248.078 322.227C248.064 322.227 248.051 322.224 248.039 322.217C248.026 322.187 248.026 322.154 248.039 322.124V318.409C248.029 318.367 248.029 318.323 248.039 318.28C248.055 318.242 248.082 318.21 248.117 318.188L248.425 318.009C248.475 318.009 248.51 318.009 248.539 318.009L248.596 318.052L249.803 319.759V317.409C249.794 317.364 249.794 317.318 249.803 317.273C249.822 317.234 249.852 317.202 249.889 317.18L250.239 316.98C250.25 316.97 250.264 316.965 250.278 316.965C250.293 316.965 250.307 316.97 250.318 316.98C250.318 316.98 250.318 317.023 250.318 317.066V320.795C250.317 320.839 250.306 320.883 250.286 320.922C250.266 320.962 250.238 320.996 250.203 321.024L249.932 321.159Z" fill="white"/>
<path d="M252.889 318.173C252.894 318.122 252.911 318.073 252.939 318.031C252.96 317.997 252.987 317.968 253.018 317.945L253.368 317.745C253.381 317.738 253.396 317.734 253.411 317.734C253.426 317.734 253.44 317.738 253.454 317.745C253.462 317.76 253.467 317.777 253.467 317.795C253.467 317.812 253.462 317.83 253.454 317.845C253.444 318.021 253.415 318.196 253.368 318.366C253.312 318.562 253.235 318.751 253.139 318.931C253.028 319.125 252.894 319.305 252.739 319.466C252.571 319.645 252.379 319.799 252.168 319.924C252.007 320.022 251.827 320.085 251.639 320.109C251.5 320.121 251.36 320.083 251.246 320.002C251.13 319.907 251.043 319.781 250.996 319.638C250.933 319.452 250.899 319.256 250.896 319.059C250.896 318.916 250.896 318.759 250.896 318.581C250.896 318.402 250.896 318.245 250.896 318.095C250.909 317.622 251.028 317.158 251.246 316.738C251.352 316.537 251.484 316.352 251.639 316.187C251.79 316.018 251.969 315.876 252.168 315.766C252.338 315.649 252.534 315.575 252.739 315.552C252.878 315.536 253.019 315.566 253.139 315.637C253.245 315.708 253.325 315.811 253.368 315.93C253.418 316.065 253.447 316.208 253.454 316.352C253.467 316.394 253.467 316.439 253.454 316.48C253.433 316.518 253.403 316.549 253.368 316.573L253.018 316.78C252.99 316.791 252.96 316.791 252.932 316.78C252.932 316.78 252.932 316.745 252.889 316.695C252.883 316.626 252.861 316.56 252.825 316.502C252.795 316.449 252.751 316.407 252.696 316.38C252.629 316.361 252.557 316.361 252.489 316.38C252.384 316.394 252.283 316.434 252.196 316.495C252.086 316.555 251.986 316.635 251.904 316.73C251.819 316.823 251.747 316.927 251.689 317.038C251.622 317.154 251.572 317.279 251.539 317.409C251.51 317.531 251.491 317.655 251.482 317.781C251.482 317.931 251.482 318.095 251.482 318.273C251.482 318.452 251.482 318.609 251.482 318.752C251.488 318.859 251.507 318.964 251.539 319.066C251.561 319.144 251.606 319.214 251.668 319.266C251.73 319.311 251.806 319.333 251.882 319.331C251.986 319.319 252.086 319.285 252.175 319.231C252.281 319.166 252.379 319.089 252.468 319.002C252.549 318.925 252.619 318.836 252.675 318.738C252.73 318.653 252.776 318.562 252.811 318.466C252.848 318.372 252.875 318.274 252.889 318.173Z" fill="white"/>
<path d="M256.011 316.93C256.022 316.922 256.036 316.917 256.05 316.917C256.065 316.917 256.079 316.922 256.09 316.93C256.097 316.943 256.101 316.958 256.101 316.973C256.101 316.988 256.097 317.003 256.09 317.016V317.409C256.103 317.451 256.103 317.496 256.09 317.538C256.073 317.576 256.046 317.608 256.011 317.63L254.111 318.731C254.098 318.738 254.083 318.741 254.068 318.741C254.053 318.741 254.038 318.738 254.025 318.731C254.019 318.716 254.015 318.7 254.015 318.684C254.015 318.668 254.019 318.652 254.025 318.638V314.909C254.016 314.866 254.016 314.822 254.025 314.78C254.046 314.743 254.075 314.711 254.111 314.687L255.975 313.609C256.011 313.609 256.033 313.609 256.054 313.609C256.076 313.609 256.09 313.659 256.09 313.701V314.109C256.091 314.154 256.079 314.199 256.054 314.237C256.04 314.277 256.012 314.31 255.975 314.33L254.547 315.137V316.059L255.854 315.302C255.866 315.295 255.88 315.291 255.893 315.291C255.907 315.291 255.921 315.295 255.933 315.302C255.945 315.331 255.945 315.365 255.933 315.394V315.802C255.942 315.844 255.942 315.888 255.933 315.93C255.916 315.968 255.889 316.001 255.854 316.023L254.547 316.78V317.738L256.011 316.93Z" fill="white"/>
<path d="M258.683 315.387C258.696 315.38 258.711 315.377 258.726 315.377C258.741 315.377 258.756 315.38 258.769 315.387C258.781 315.417 258.781 315.45 258.769 315.48V315.887C258.778 315.93 258.778 315.974 258.769 316.016C258.75 316.057 258.72 316.091 258.683 316.116L256.79 317.209C256.777 317.216 256.762 317.219 256.747 317.219C256.732 317.219 256.717 317.216 256.704 317.209C256.698 317.195 256.695 317.181 256.695 317.166C256.695 317.151 256.698 317.137 256.704 317.123V313.387C256.695 313.345 256.695 313.301 256.704 313.258C256.723 313.22 256.753 313.187 256.79 313.166L257.14 312.966C257.151 312.957 257.165 312.952 257.179 312.952C257.194 312.952 257.207 312.957 257.219 312.966C257.226 312.98 257.23 312.996 257.23 313.012C257.23 313.028 257.226 313.044 257.219 313.058V316.223L258.683 315.387Z" fill="white"/>
<path d="M229.536 337.769L200.047 354.8C199.333 355.207 198.775 354.8 198.775 353.835V344.027C198.783 343.551 198.902 343.083 199.123 342.661C199.344 342.24 199.66 341.876 200.047 341.598L229.536 324.574C230.251 324.167 230.808 324.574 230.808 325.532V335.326C230.805 335.805 230.688 336.276 230.467 336.701C230.246 337.125 229.927 337.492 229.536 337.769Z" fill="#0084FF"/>
<path d="M210.634 340.569C210.788 340.47 210.96 340.404 211.141 340.376C211.267 340.358 211.396 340.375 211.513 340.426C211.611 340.468 211.69 340.544 211.734 340.641C211.786 340.735 211.815 340.84 211.82 340.948C211.83 340.99 211.83 341.034 211.82 341.077C211.797 341.112 211.768 341.144 211.734 341.169L211.427 341.341C211.377 341.341 211.341 341.384 211.32 341.341C211.304 341.336 211.29 341.327 211.278 341.316C211.265 341.305 211.255 341.292 211.248 341.277C211.227 341.242 211.199 341.212 211.166 341.188C211.133 341.165 211.095 341.149 211.056 341.141C210.914 341.134 210.775 341.177 210.663 341.262C210.584 341.304 210.512 341.357 210.448 341.419C210.38 341.475 210.32 341.54 210.27 341.612C210.221 341.679 210.181 341.751 210.148 341.827C210.121 341.897 210.106 341.972 210.105 342.048C210.101 342.115 210.116 342.182 210.148 342.241C210.164 342.263 210.186 342.281 210.211 342.292C210.236 342.303 210.264 342.308 210.291 342.305C210.378 342.308 210.465 342.296 210.548 342.27L210.941 342.162C211.088 342.118 211.239 342.09 211.391 342.077C211.497 342.072 211.603 342.094 211.698 342.141C211.782 342.195 211.845 342.275 211.877 342.37C211.921 342.493 211.941 342.624 211.934 342.755C211.933 342.935 211.904 343.113 211.849 343.284C211.792 343.472 211.707 343.65 211.598 343.813C211.367 344.196 211.043 344.515 210.655 344.741C210.511 344.827 210.354 344.892 210.191 344.934C210.062 344.963 209.928 344.963 209.798 344.934C209.686 344.903 209.59 344.832 209.527 344.734C209.452 344.617 209.41 344.481 209.405 344.341C209.396 344.299 209.396 344.255 209.405 344.213C209.422 344.173 209.453 344.14 209.491 344.12L209.791 343.941C209.828 343.927 209.869 343.927 209.905 343.941C209.921 343.946 209.935 343.954 209.946 343.965C209.957 343.976 209.965 343.99 209.97 344.005C209.988 344.045 210.012 344.081 210.041 344.113C210.073 344.149 210.116 344.174 210.163 344.184C210.222 344.194 210.282 344.194 210.341 344.184C210.439 344.157 210.533 344.116 210.62 344.063C210.707 344.012 210.791 343.955 210.87 343.891C210.946 343.828 211.018 343.758 211.084 343.684C211.139 343.61 211.187 343.531 211.227 343.448C211.267 343.369 211.287 343.28 211.284 343.191C211.288 343.16 211.284 343.129 211.275 343.099C211.265 343.069 211.248 343.042 211.227 343.02C211.171 342.986 211.105 342.974 211.041 342.984C210.938 343.002 210.835 343.026 210.734 343.055L210.32 343.163C210.194 343.197 210.064 343.216 209.934 343.22C209.84 343.222 209.747 343.195 209.67 343.141C209.596 343.079 209.541 342.997 209.512 342.905C209.471 342.769 209.452 342.627 209.455 342.484C209.459 342.304 209.49 342.126 209.548 341.955C209.606 341.775 209.685 341.602 209.784 341.441C209.889 341.278 210.011 341.127 210.148 340.991C210.285 340.824 210.45 340.681 210.634 340.569Z" fill="white"/>
<path d="M213.784 338.805C213.827 338.805 213.863 338.805 213.884 338.805C213.913 338.838 213.935 338.877 213.949 338.919L215.006 341.955C215.01 341.967 215.01 341.98 215.006 341.991C215.016 342.033 215.016 342.077 215.006 342.12C214.99 342.158 214.962 342.19 214.927 342.213L214.613 342.398C214.556 342.398 214.513 342.434 214.492 342.398C214.468 342.384 214.45 342.361 214.442 342.334L214.256 341.798L212.863 342.598L212.67 343.348C212.66 343.39 212.646 343.431 212.627 343.47C212.6 343.52 212.557 343.56 212.506 343.584L212.191 343.77C212.179 343.777 212.166 343.78 212.152 343.78C212.138 343.78 212.125 343.777 212.113 343.77C212.105 343.756 212.101 343.74 212.101 343.723C212.101 343.707 212.105 343.691 212.113 343.677V343.634L213.177 339.348C213.189 339.284 213.208 339.222 213.234 339.162C213.261 339.118 213.297 339.081 213.341 339.055L213.784 338.805ZM214.02 341.205L213.542 339.834L213.07 341.755L214.02 341.205Z" fill="white"/>
<path d="M216.285 340.262L216.999 337.09C217.008 337.048 217.023 337.007 217.042 336.969C217.061 336.922 217.097 336.884 217.142 336.862L217.471 336.669C217.484 336.662 217.499 336.658 217.514 336.658C217.528 336.658 217.543 336.662 217.556 336.669C217.556 336.669 217.556 336.719 217.556 336.762C217.559 336.776 217.559 336.79 217.556 336.804L216.585 340.998C216.573 341.062 216.554 341.124 216.528 341.184C216.504 341.229 216.466 341.267 216.421 341.291L216.078 341.491C216.028 341.491 215.999 341.491 215.97 341.491C215.942 341.461 215.922 341.424 215.913 341.384L214.942 338.312C214.94 338.266 214.953 338.221 214.978 338.183C214.996 338.146 215.023 338.115 215.056 338.09L215.385 337.897C215.428 337.897 215.463 337.897 215.485 337.897C215.505 337.914 215.52 337.936 215.528 337.962L216.285 340.262Z" fill="white"/>
<path d="M220.078 338.491C220.091 338.484 220.106 338.48 220.121 338.48C220.136 338.48 220.15 338.484 220.164 338.491C220.176 338.52 220.176 338.554 220.164 338.583V339.026C220.174 339.069 220.174 339.113 220.164 339.155C220.164 339.198 220.114 339.233 220.078 339.248L218.178 340.348C218.166 340.358 218.151 340.364 218.135 340.364C218.119 340.364 218.104 340.358 218.092 340.348C218.092 340.348 218.092 340.305 218.092 340.262V336.533C218.083 336.488 218.083 336.442 218.092 336.397C218.115 336.362 218.144 336.33 218.178 336.305L220.042 335.226C220.056 335.219 220.07 335.215 220.085 335.215C220.1 335.215 220.115 335.219 220.128 335.226C220.14 335.256 220.14 335.289 220.128 335.319V335.726C220.138 335.768 220.138 335.812 220.128 335.854C220.111 335.894 220.081 335.927 220.042 335.947L218.614 336.755V337.676L219.921 336.926C219.932 336.917 219.946 336.913 219.96 336.913C219.974 336.913 219.988 336.917 219.999 336.926C220.013 336.937 220.023 336.951 220.03 336.968C220.036 336.984 220.038 337.002 220.035 337.019V337.426C220.037 337.472 220.024 337.517 219.999 337.555C219.983 337.595 219.956 337.629 219.921 337.655L218.614 338.405V339.362L220.078 338.491Z" fill="white"/>
</svg>
