<svg width="500" height="500" viewBox="0 0 500 500" fill="none" xmlns="http://www.w3.org/2000/svg">
<g opacity="0.05">
<circle cx="246.5" cy="249.5" r="153.5" fill="white"/>
<rect x="35" y="129" width="249" height="26" rx="13" fill="white"/>
<rect x="203" y="228" width="249" height="26" rx="13" fill="white"/>
<rect x="57" y="160" width="249" height="26" rx="13" fill="white"/>
<rect x="198" y="351" width="249" height="26" rx="13" fill="white"/>
<rect x="225" y="259" width="249" height="26" rx="13" fill="white"/>
<rect x="26" y="316" width="249" height="26" rx="13" fill="white"/>
</g>
<path d="M367.87 86.0841L361.3 82.2741L132.01 214.724V420.214C132.01 422.444 132.79 424.004 134.01 424.744L140.57 428.564C141.83 429.294 143.57 429.194 145.52 428.074L360.87 303.694C362.907 302.366 364.603 300.577 365.819 298.471C367.035 296.365 367.738 294.002 367.87 291.574V86.0841Z" fill="#E6E6E6"/>
<path d="M142.44 428.214C143.404 428.167 144.341 427.875 145.16 427.364L360.51 302.994C362.427 301.741 364.023 300.054 365.167 298.07C366.312 296.086 366.974 293.861 367.1 291.574V87.4841L139.38 219.004V424.004C139.38 426.654 140.52 428.214 142.44 428.214Z" fill="#FAFAFA"/>
<path d="M200.951 212.937C200.925 212.684 200.817 212.539 200.628 212.502C200.438 212.463 200.199 212.528 199.912 212.696C199.706 212.816 199.527 212.958 199.377 213.122C199.227 213.284 199.11 213.455 199.026 213.634C198.944 213.811 198.904 213.981 198.904 214.146C198.904 214.284 198.931 214.387 198.987 214.455C199.044 214.522 199.119 214.563 199.21 214.578C199.303 214.589 199.403 214.587 199.509 214.57C199.616 214.552 199.718 214.528 199.816 214.499L200.306 214.36C200.467 214.312 200.631 214.277 200.799 214.256C200.968 214.236 201.124 214.247 201.268 214.289C201.412 214.332 201.528 214.422 201.616 214.557C201.706 214.692 201.751 214.89 201.751 215.152C201.751 215.481 201.677 215.817 201.53 216.159C201.385 216.499 201.173 216.825 200.895 217.135C200.619 217.444 200.284 217.714 199.892 217.943C199.516 218.163 199.191 218.284 198.916 218.306C198.641 218.329 198.426 218.258 198.271 218.095C198.116 217.931 198.03 217.678 198.013 217.337L198.774 216.892C198.788 217.094 198.847 217.235 198.95 217.315C199.055 217.392 199.188 217.417 199.35 217.391C199.513 217.361 199.693 217.29 199.887 217.176C200.101 217.051 200.292 216.901 200.459 216.726C200.627 216.548 200.759 216.36 200.856 216.164C200.952 215.965 201.001 215.771 201.001 215.582C201.001 215.41 200.958 215.293 200.873 215.233C200.79 215.172 200.676 215.148 200.532 215.16C200.39 215.171 200.229 215.202 200.049 215.252L199.455 215.411C199.053 215.52 198.734 215.52 198.499 215.411C198.265 215.301 198.148 215.044 198.148 214.639C198.148 214.304 198.227 213.965 198.384 213.623C198.541 213.282 198.753 212.963 199.021 212.668C199.289 212.371 199.592 212.124 199.929 211.927C200.269 211.729 200.569 211.622 200.829 211.609C201.09 211.594 201.296 211.664 201.447 211.818C201.597 211.971 201.676 212.201 201.682 212.51L200.951 212.937ZM204.221 215.404C203.85 215.621 203.531 215.716 203.262 215.689C202.996 215.659 202.79 215.519 202.644 215.269C202.5 215.016 202.429 214.663 202.429 214.21C202.429 213.763 202.5 213.327 202.644 212.902C202.79 212.476 202.993 212.092 203.253 211.748C203.514 211.404 203.82 211.13 204.17 210.925C204.382 210.801 204.588 210.721 204.788 210.686C204.987 210.651 205.166 210.674 205.325 210.756C205.484 210.837 205.609 210.99 205.7 211.215C205.792 211.438 205.838 211.748 205.838 212.143V212.445L202.843 214.195V213.559L205.119 212.228C205.119 212.005 205.08 211.83 205.001 211.703C204.923 211.575 204.812 211.502 204.67 211.485C204.53 211.467 204.364 211.513 204.175 211.624C203.969 211.745 203.789 211.908 203.635 212.116C203.483 212.32 203.365 212.54 203.282 212.777C203.2 213.01 203.159 213.236 203.159 213.453V213.951C203.159 214.242 203.204 214.465 203.292 214.618C203.382 214.77 203.507 214.853 203.667 214.867C203.827 214.879 204.015 214.823 204.229 214.698C204.368 214.616 204.494 214.52 204.609 214.407C204.723 214.293 204.822 214.165 204.906 214.024C204.989 213.882 205.053 213.73 205.097 213.568L205.791 213.307C205.735 213.576 205.636 213.842 205.492 214.104C205.35 214.363 205.17 214.605 204.955 214.83C204.74 215.052 204.496 215.243 204.221 215.404ZM207.385 207.648V213.466L206.651 213.895V208.077L207.385 207.648ZM209.995 212.029C209.623 212.245 209.304 212.341 209.036 212.314C208.769 212.284 208.563 212.144 208.418 211.894C208.274 211.641 208.202 211.288 208.202 210.835C208.202 210.388 208.274 209.952 208.418 209.527C208.563 209.101 208.766 208.717 209.026 208.373C209.287 208.029 209.593 207.755 209.943 207.55C210.156 207.426 210.362 207.346 210.561 207.311C210.761 207.276 210.94 207.299 211.098 207.38C211.257 207.462 211.382 207.615 211.474 207.84C211.565 208.063 211.611 208.372 211.611 208.768V209.069L208.616 210.82V210.184L210.892 208.853C210.892 208.63 210.853 208.455 210.775 208.328C210.696 208.2 210.586 208.127 210.443 208.11C210.303 208.092 210.138 208.138 209.948 208.249C209.742 208.369 209.562 208.533 209.408 208.741C209.256 208.945 209.139 209.165 209.055 209.402C208.974 209.635 208.933 209.861 208.933 210.078V210.575C208.933 210.867 208.977 211.089 209.065 211.242C209.155 211.394 209.28 211.477 209.44 211.492C209.601 211.504 209.788 211.448 210.002 211.323C210.141 211.241 210.268 211.144 210.382 211.032C210.497 210.918 210.596 210.79 210.679 210.648C210.762 210.507 210.826 210.355 210.87 210.193L211.564 209.932C211.509 210.201 211.409 210.467 211.265 210.729C211.123 210.988 210.944 211.23 210.728 211.455C210.514 211.677 210.269 211.868 209.995 212.029ZM214.011 209.68C213.647 209.893 213.333 209.981 213.07 209.944C212.808 209.904 212.607 209.755 212.466 209.498C212.326 209.242 212.255 208.894 212.255 208.457C212.255 208.014 212.327 207.581 212.471 207.157C212.615 206.732 212.818 206.348 213.079 206.004C213.341 205.659 213.649 205.384 214.004 205.176C214.29 205.009 214.545 204.921 214.769 204.913C214.993 204.904 215.174 204.968 215.311 205.108C215.45 205.246 215.533 205.455 215.559 205.733L214.845 206.15C214.806 205.969 214.716 205.845 214.575 205.78C214.436 205.713 214.25 205.748 214.016 205.885C213.812 206.004 213.633 206.171 213.479 206.386C213.327 206.598 213.208 206.844 213.123 207.123C213.038 207.4 212.996 207.693 212.996 208.004C212.996 208.322 213.038 208.572 213.121 208.755C213.204 208.937 213.322 209.047 213.474 209.085C213.628 209.122 213.809 209.08 214.016 208.959C214.155 208.877 214.281 208.774 214.394 208.65C214.508 208.522 214.604 208.38 214.681 208.224C214.759 208.066 214.814 207.899 214.845 207.724L215.559 207.307C215.533 207.604 215.453 207.903 215.321 208.202C215.189 208.501 215.011 208.779 214.789 209.035C214.568 209.291 214.309 209.506 214.011 209.68ZM218.102 202.837V203.519L216.044 204.722V204.04L218.102 202.837ZM216.596 202.672L217.329 202.244V206.371C217.329 206.536 217.35 206.648 217.393 206.706C217.435 206.763 217.49 206.787 217.557 206.778C217.626 206.766 217.7 206.737 217.78 206.69C217.839 206.656 217.891 206.621 217.935 206.585C217.979 206.55 218.013 206.523 218.038 206.503L218.17 207.127C218.128 207.171 218.067 207.225 217.989 207.29C217.91 207.356 217.812 207.425 217.694 207.496C217.501 207.612 217.322 207.678 217.155 207.692C216.988 207.706 216.853 207.656 216.75 207.542C216.647 207.428 216.596 207.24 216.596 206.976V202.672ZM221.837 205.114C221.598 205.254 221.382 205.329 221.189 205.339C220.996 205.348 220.843 205.286 220.731 205.155C220.619 205.024 220.564 204.815 220.564 204.529C220.564 204.282 220.605 204.056 220.687 203.849C220.768 203.642 220.879 203.452 221.018 203.277C221.157 203.103 221.312 202.943 221.484 202.795C221.655 202.647 221.83 202.509 222.008 202.38C222.234 202.218 222.417 202.086 222.558 201.985C222.698 201.882 222.801 201.789 222.864 201.706C222.928 201.624 222.96 201.531 222.96 201.429V201.409C222.96 201.161 222.9 201.004 222.779 200.938C222.659 200.872 222.481 200.908 222.244 201.046C221.997 201.191 221.802 201.368 221.66 201.578C221.52 201.785 221.422 201.981 221.368 202.166L220.679 202.387C220.761 202.074 220.88 201.791 221.037 201.536C221.196 201.278 221.378 201.053 221.584 200.858C221.79 200.662 222.007 200.497 222.234 200.365C222.384 200.277 222.544 200.204 222.712 200.148C222.882 200.088 223.041 200.069 223.188 200.091C223.337 200.112 223.459 200.195 223.554 200.34C223.648 200.484 223.696 200.715 223.696 201.033V203.931L222.98 204.349V203.753L222.95 203.77C222.903 203.907 222.832 204.057 222.737 204.218C222.642 204.38 222.52 204.539 222.371 204.696C222.223 204.853 222.044 204.993 221.837 205.114ZM221.996 204.339C222.199 204.22 222.372 204.073 222.516 203.896C222.662 203.718 222.772 203.532 222.847 203.339C222.924 203.142 222.962 202.958 222.962 202.785V202.223C222.936 202.268 222.886 202.327 222.81 202.397C222.737 202.465 222.653 202.536 222.558 202.61C222.463 202.683 222.371 202.753 222.281 202.82C222.191 202.886 222.116 202.941 222.055 202.986C221.913 203.09 221.783 203.201 221.665 203.319C221.549 203.437 221.456 203.562 221.385 203.696C221.317 203.827 221.282 203.968 221.282 204.12C221.282 204.33 221.35 204.45 221.484 204.48C221.618 204.507 221.789 204.46 221.996 204.339ZM225.406 200.34V202.931L224.673 203.36V198.996L225.376 198.584V199.295L225.423 199.267C225.51 198.986 225.645 198.721 225.83 198.473C226.017 198.223 226.251 198.016 226.534 197.851C226.791 197.701 227.016 197.632 227.208 197.644C227.401 197.654 227.551 197.751 227.657 197.933C227.764 198.115 227.817 198.386 227.817 198.746V201.521L227.083 201.95V199.277C227.083 198.961 227.012 198.755 226.87 198.66C226.728 198.563 226.532 198.588 226.284 198.733C226.114 198.832 225.963 198.963 225.83 199.126C225.699 199.288 225.595 199.473 225.519 199.683C225.443 199.89 225.406 200.109 225.406 200.34ZM229.129 202.391C229.019 202.455 228.92 202.503 228.83 202.534C228.74 202.568 228.673 202.586 228.628 202.589L228.805 201.79C228.939 201.753 229.058 201.702 229.163 201.635C229.268 201.568 229.36 201.468 229.44 201.336C229.522 201.203 229.594 201.022 229.656 200.793L229.747 200.45L228.369 196.835L229.153 196.376L230.107 199.205L230.147 199.182L231.101 195.238L231.888 194.778L230.335 200.631C230.264 200.901 230.172 201.146 230.061 201.369C229.95 201.593 229.817 201.789 229.663 201.959C229.51 202.128 229.332 202.272 229.129 202.391ZM235.222 191.374V197.192L234.464 197.635V191.817L235.222 191.374ZM238.025 191.19V191.872L235.967 193.075V192.393L238.025 191.19ZM236.519 191.025L237.252 190.596V194.724C237.252 194.889 237.274 195 237.316 195.059C237.359 195.115 237.413 195.139 237.48 195.13C237.549 195.119 237.623 195.089 237.704 195.043C237.762 195.008 237.814 194.973 237.858 194.938C237.902 194.903 237.937 194.875 237.961 194.855L238.093 195.479C238.051 195.523 237.99 195.577 237.912 195.642C237.834 195.709 237.735 195.778 237.618 195.848C237.425 195.965 237.245 196.03 237.078 196.045C236.911 196.059 236.776 196.009 236.673 195.895C236.57 195.781 236.519 195.592 236.519 195.329V191.025ZM240.419 194.242C240.048 194.459 239.728 194.554 239.46 194.527C239.194 194.497 238.988 194.357 238.842 194.107C238.698 193.854 238.626 193.501 238.626 193.049C238.626 192.602 238.698 192.166 238.842 191.741C238.988 191.315 239.19 190.93 239.45 190.587C239.712 190.242 240.018 189.968 240.368 189.763C240.58 189.639 240.786 189.56 240.986 189.524C241.185 189.489 241.364 189.512 241.523 189.594C241.681 189.675 241.806 189.829 241.898 190.053C241.99 190.276 242.035 190.586 242.035 190.982V191.283L239.041 193.033V192.397L241.317 191.067C241.317 190.843 241.277 190.668 241.199 190.542C241.121 190.413 241.01 190.34 240.868 190.323C240.727 190.305 240.562 190.351 240.373 190.462C240.166 190.583 239.987 190.747 239.833 190.954C239.681 191.158 239.563 191.379 239.48 191.615C239.398 191.848 239.357 192.074 239.357 192.292V192.789C239.357 193.081 239.401 193.303 239.49 193.456C239.58 193.608 239.705 193.691 239.865 193.705C240.025 193.718 240.212 193.661 240.426 193.536C240.565 193.455 240.692 193.358 240.807 193.245C240.921 193.131 241.02 193.003 241.103 192.862C241.187 192.72 241.251 192.568 241.295 192.406L241.989 192.145C241.933 192.415 241.833 192.68 241.69 192.942C241.547 193.202 241.368 193.444 241.152 193.668C240.938 193.89 240.694 194.081 240.419 194.242ZM242.849 192.733V188.37L243.553 187.958V188.668L243.599 188.641C243.678 188.355 243.806 188.092 243.984 187.854C244.163 187.613 244.376 187.42 244.625 187.275C244.876 187.128 245.087 187.072 245.257 187.109C245.429 187.145 245.556 187.259 245.638 187.45L245.677 187.427C245.767 187.141 245.91 186.872 246.106 186.619C246.302 186.364 246.536 186.157 246.807 185.999C247.149 185.799 247.428 185.76 247.644 185.882C247.861 186.003 247.97 186.313 247.97 186.813V189.74L247.237 190.168V187.322C247.237 187.026 247.167 186.853 247.028 186.801C246.889 186.75 246.723 186.781 246.53 186.894C246.292 187.033 246.106 187.227 245.974 187.475C245.841 187.721 245.775 187.976 245.775 188.242V191.023L245.044 191.45V188.549C245.044 188.313 244.98 188.16 244.853 188.09C244.725 188.021 244.559 188.046 244.355 188.165C244.216 188.247 244.087 188.364 243.97 188.518C243.854 188.67 243.76 188.841 243.688 189.033C243.617 189.223 243.582 189.417 243.582 189.614V192.305L242.849 192.733Z" fill="#242424"/>
<path d="M366.29 88.8841V291.574C366.158 293.718 365.531 295.802 364.457 297.662C363.382 299.523 361.891 301.108 360.1 302.294L144.76 426.674C144.062 427.113 143.264 427.368 142.44 427.414C140.44 427.414 140.18 425.054 140.18 424.034V219.474L366.29 88.8841ZM367.91 86.0841L138.57 218.544V424.034C138.57 427.204 140.14 429.034 142.44 429.034C143.553 428.98 144.632 428.635 145.57 428.034L360.87 303.694C362.908 302.366 364.603 300.577 365.819 298.471C367.036 296.365 367.738 294.002 367.87 291.574V86.0841H367.91Z" fill="#E0E0E0"/>
<path d="M138.57 218.544V240.414L367.9 107.954L367.91 86.0841L138.57 218.544Z" fill="#1A1A1A"/>
<path d="M171.064 205.39C170.227 205.835 169.523 206.582 169.259 206.887C168.524 207.728 168.103 208.578 167.333 210.126C167.032 210.732 166.743 211.366 166.171 212.632C165.979 213.05 165.882 213.273 165.798 213.461L165.792 213.472C165.708 213.66 165.636 213.82 165.491 214.134C164.889 215.452 164.456 216.407 164.287 216.671C163.842 217.375 163.186 218.031 162.614 218.337C161.507 218.937 159.9 218.725 159.894 216.777C159.888 215.164 160.965 213.168 162.344 212.238C162.969 211.816 163.565 211.649 164.077 211.748C164.155 211.759 164.203 211.822 164.215 211.913C164.227 212.004 164.203 212.123 164.149 212.238L162.332 215.946C162.073 216.472 162.103 217.008 162.392 217.164C162.554 217.245 162.771 217.212 162.994 217.071C163.216 216.922 163.421 216.679 163.553 216.407L166.003 211.413C166.225 210.956 166.231 210.498 166.015 210.287C165.208 209.497 163.932 209.486 162.59 210.256C160.231 211.609 158.317 214.938 158.317 217.674C158.317 219.066 158.829 220.06 159.762 220.477C160.55 220.829 161.603 220.729 162.566 220.205C162.596 220.188 162.632 220.167 162.663 220.15C163.589 219.619 164.606 218.595 165.317 217.474C165.63 216.979 165.985 216.195 166.773 214.47C166.917 214.149 166.996 213.971 167.08 213.79L167.086 213.773C167.17 213.584 167.267 213.368 167.453 212.96C168.007 211.74 168.284 211.127 168.56 210.569C169.222 209.231 169.529 208.614 169.945 208.138C170.035 208.038 170.492 207.53 171.004 207.258C172.117 206.669 173.73 206.884 173.73 208.829C173.73 210.558 172.52 212.658 171.034 213.51C170.643 213.734 170.234 213.829 170.234 213.829C169.523 213.977 169.06 213.697 168.795 213.436C168.657 213.299 168.446 213.287 168.217 213.397C167.989 213.507 167.766 213.732 167.598 214.025C167.327 214.495 167.297 215.037 167.537 215.27C167.941 215.661 168.651 216.08 169.758 215.851C169.782 215.844 170.384 215.716 171.028 215.347C173.387 213.994 175.301 210.665 175.301 207.929C175.307 204.798 172.839 204.449 171.064 205.39Z" fill="white"/>
<path d="M156.151 215.001C156.043 214.972 155.904 214.933 155.73 214.921C155.567 214.903 155.29 214.894 154.935 214.958C154.388 215.063 153.9 215.3 153.587 215.48C152.594 216.049 151.649 216.981 150.891 218.141V217.932C150.891 217.43 150.536 217.222 150.103 217.47C149.669 217.718 149.32 218.33 149.32 218.832V226.929C149.32 227.431 149.675 227.639 150.109 227.391C150.542 227.143 150.897 226.528 150.897 226.026V221.973C150.897 220.251 152.107 218.156 153.593 217.303C155.08 216.451 156.289 217.16 156.289 218.883V222.935C156.289 223.437 156.645 223.645 157.078 223.397C157.511 223.148 157.866 222.533 157.866 222.031V217.567C157.866 217.491 157.866 215.496 156.151 215.001Z" fill="white"/>
<path d="M293.01 138.394V142.894C293.01 143.814 293.66 144.194 294.46 143.734L352.33 110.294V102.434L294.46 135.874C294.037 136.15 293.685 136.523 293.433 136.961C293.181 137.398 293.036 137.89 293.01 138.394Z" fill="#FAFAFA"/>
<path d="M359.95 98.0341C360.75 97.5741 361.4 97.9541 361.4 98.8741V103.384C361.372 103.887 361.226 104.376 360.975 104.812C360.723 105.248 360.372 105.619 359.95 105.894L352.33 110.294V102.434L359.95 98.0341Z" fill="#808080"/>
<path d="M359.13 104.684L358.25 104.274C358.401 103.902 358.505 103.512 358.56 103.114C358.654 102.749 358.65 102.366 358.551 102.003C358.451 101.64 358.257 101.309 357.99 101.044C357.8 100.901 357.574 100.813 357.337 100.792C357.1 100.771 356.862 100.817 356.65 100.924C356.007 101.289 355.458 101.801 355.05 102.418C354.642 103.035 354.385 103.739 354.3 104.474C354.208 104.838 354.211 105.22 354.309 105.582C354.407 105.945 354.597 106.276 354.86 106.544C355.023 106.671 355.216 106.753 355.42 106.784C355.689 106.811 355.961 106.77 356.21 106.664C356.97 106.279 357.584 105.658 357.96 104.894L358.84 105.304H358.94C359.023 105.32 359.11 105.305 359.182 105.261C359.255 105.217 359.308 105.147 359.332 105.066C359.356 104.984 359.348 104.897 359.311 104.821C359.273 104.745 359.209 104.685 359.13 104.654V104.684ZM355.95 106.034C355.849 106.095 355.733 106.127 355.615 106.127C355.497 106.127 355.381 106.095 355.28 106.034C355.121 105.836 355.011 105.604 354.959 105.355C354.906 105.107 354.914 104.849 354.98 104.604C355.056 103.991 355.27 103.404 355.604 102.884C355.938 102.365 356.384 101.928 356.91 101.604C357.045 101.544 357.193 101.52 357.34 101.534C357.425 101.542 357.506 101.577 357.57 101.634C357.722 101.826 357.829 102.05 357.881 102.289C357.933 102.528 357.929 102.776 357.87 103.014C357.796 103.629 357.585 104.219 357.252 104.742C356.92 105.264 356.475 105.706 355.95 106.034Z" fill="#FAFAFA"/>
<path d="M359.36 71.5141C358.09 70.7341 356.31 70.8141 354.36 71.9541L139 196.334C136.962 197.661 135.266 199.451 134.05 201.557C132.834 203.663 132.131 206.026 132 208.454V214.724L138.56 218.544L367.87 86.0841V79.8141C367.87 77.5941 367.09 76.0341 365.87 75.3041C364.65 74.5741 360.5 72.2141 359.36 71.5141Z" fill="#404040"/>
<path d="M138.57 212.264C138.702 209.836 139.404 207.472 140.62 205.367C141.837 203.261 143.532 201.471 145.57 200.144L360.87 75.7741C364.73 73.5441 367.87 75.3541 367.87 79.7741V86.0441L138.57 218.544V212.264Z" fill="#333333"/>
<path d="M365.95 75.3441C364.67 74.5541 362.89 74.6341 360.95 75.7741L145.57 200.144C143.5 201.432 141.796 203.229 140.62 205.364L134.05 201.564C135.238 199.419 136.96 197.617 139.05 196.334L354.34 71.9441C356.34 70.8141 358.09 70.7341 359.34 71.5141C360.59 72.2941 364.69 74.6141 365.87 75.2941L365.95 75.3441Z" fill="#808080"/>
<path d="M343.47 90.6841C342.759 91.1473 342.168 91.7719 341.744 92.5069C341.32 93.2419 341.075 94.0667 341.03 94.9141C341.03 96.4741 342.12 97.1041 343.47 96.3241C344.174 95.8564 344.758 95.2299 345.174 94.4951C345.591 93.7604 345.83 92.9379 345.87 92.0941C345.87 90.5341 344.87 89.9041 343.47 90.6841Z" fill="#FAFAFA"/>
<path d="M352.02 85.7541C351.309 86.2195 350.717 86.8459 350.293 87.5825C349.87 88.3192 349.625 89.1453 349.58 89.9941C349.58 91.5541 350.67 92.1841 352.02 91.4041C352.725 90.9436 353.312 90.3251 353.736 89.5977C354.159 88.8703 354.407 88.0541 354.46 87.2141C354.46 85.6141 353.37 84.9841 352.02 85.7541Z" fill="#FAFAFA"/>
<path d="M360.57 80.8341C359.859 81.2973 359.267 81.9219 358.843 82.6569C358.419 83.3919 358.175 84.2167 358.13 85.0641C358.13 86.6241 359.22 87.2541 360.57 86.4741C361.286 86.0084 361.882 85.3795 362.308 84.6389C362.733 83.8984 362.978 83.0673 363.02 82.2141C363.02 80.6841 361.92 80.0541 360.57 80.8341Z" fill="#FAFAFA"/>
<path d="M145.97 426.904C142.33 429.004 139.38 427.294 139.38 423.094V240.874L194.07 209.294V399.124L145.97 426.904Z" fill="#F5F5F5"/>
<path d="M140.18 241.344L193.26 210.684V398.684L146.37 425.744C143.02 427.674 140.18 426.044 140.18 422.164V241.344ZM138.57 240.414V424.034C138.57 428.494 141.7 430.304 145.57 428.034L194.87 399.594V207.884L138.57 240.414Z" fill="#E0E0E0"/>
<path d="M138.57 218.544L132.01 214.724V236.624L138.57 240.414V218.544Z" fill="#242424"/>
<path d="M159.64 241.034L183.97 226.974C184.87 226.454 185.6 226.874 185.6 227.914V230.034C185.566 230.598 185.4 231.147 185.118 231.637C184.835 232.126 184.442 232.543 183.97 232.854L159.64 246.914C158.74 247.434 158.02 247.014 158.02 245.974V243.854C158.052 243.29 158.215 242.742 158.496 242.253C158.777 241.763 159.169 241.346 159.64 241.034Z" fill="#E0E0E0"/>
<path d="M152.93 246.794V248.904C152.899 249.468 152.737 250.017 152.455 250.507C152.174 250.997 151.781 251.414 151.31 251.724L149.47 252.784C148.58 253.304 147.85 252.884 147.85 251.844V249.724C147.881 249.162 148.044 248.614 148.325 248.126C148.607 247.638 148.999 247.223 149.47 246.914L151.31 245.854C152.2 245.334 152.93 245.754 152.93 246.794Z" fill="#0084FF"/>
<path d="M159.64 252.734L183.97 238.674C184.87 238.154 185.6 238.574 185.6 239.614V241.734C185.566 242.297 185.402 242.845 185.118 243.333C184.835 243.821 184.442 244.236 183.97 244.544L159.64 258.614C158.74 259.124 158.02 258.704 158.02 257.674V255.554C158.05 254.99 158.213 254.441 158.494 253.951C158.775 253.462 159.168 253.045 159.64 252.734Z" fill="#E0E0E0"/>
<path d="M152.93 258.494V260.604C152.899 261.168 152.737 261.717 152.455 262.207C152.174 262.697 151.781 263.114 151.31 263.424L149.47 264.484C148.58 265.004 147.85 264.584 147.85 263.544V261.424C147.881 260.862 148.044 260.314 148.325 259.826C148.607 259.338 148.999 258.923 149.47 258.614L151.31 257.554C152.2 257.034 152.93 257.454 152.93 258.494Z" fill="#0084FF"/>
<path d="M159.64 264.434L183.97 250.374C184.87 249.854 185.6 250.274 185.6 251.314V253.434C185.562 253.992 185.395 254.534 185.112 255.016C184.829 255.498 184.438 255.909 183.97 256.214L159.64 270.314C158.74 270.824 158.02 270.404 158.02 269.374V267.214C158.056 266.657 158.222 266.116 158.503 265.634C158.784 265.151 159.173 264.741 159.64 264.434Z" fill="#E0E0E0"/>
<path d="M159.64 277.237L183.97 263.177C184.87 262.657 185.6 263.077 185.6 264.117V266.237C185.562 266.795 185.395 267.337 185.112 267.819C184.829 268.302 184.438 268.712 183.97 269.017L159.64 283.117C158.74 283.627 158.02 283.207 158.02 282.177V280.017C158.056 279.46 158.222 278.919 158.503 278.437C158.784 277.954 159.173 277.544 159.64 277.237Z" fill="#E0E0E0"/>
<path d="M152.93 270.214V272.324C152.899 272.888 152.737 273.437 152.455 273.927C152.174 274.417 151.781 274.834 151.31 275.144L149.47 276.214C148.58 276.734 147.85 276.314 147.85 275.274V273.154C147.879 272.591 148.042 272.043 148.323 271.555C148.605 271.067 148.997 270.652 149.47 270.344L151.31 269.284C152.2 268.734 152.93 269.154 152.93 270.214Z" fill="#0084FF"/>
<path d="M152.93 283.017V285.127C152.899 285.691 152.737 286.24 152.455 286.73C152.174 287.22 151.781 287.637 151.31 287.947L149.47 289.017C148.58 289.537 147.85 289.117 147.85 288.077V285.957C147.879 285.394 148.042 284.846 148.323 284.358C148.605 283.87 148.997 283.455 149.47 283.147L151.31 282.087C152.2 281.537 152.93 281.957 152.93 283.017Z" fill="#0084FF"/>
<path d="M286.64 328.904C286.416 328.902 286.196 328.844 286 328.734C285.805 328.623 285.643 328.461 285.53 328.266C285.418 328.071 285.359 327.849 285.36 327.624V274.724C285.37 274.191 285.522 273.669 285.8 273.214C286.06 272.751 286.432 272.359 286.88 272.074L302.46 263.074C302.707 262.917 302.991 262.829 303.283 262.82C303.576 262.812 303.865 262.882 304.12 263.024C304.507 263.241 304.793 263.6 304.92 264.024L306.18 268.224C306.196 268.322 306.237 268.413 306.299 268.49C306.361 268.567 306.442 268.626 306.533 268.662C306.625 268.699 306.724 268.711 306.822 268.697C306.92 268.683 307.012 268.644 307.09 268.584L340.87 249.134C341.062 249.009 341.281 248.931 341.509 248.907C341.736 248.883 341.966 248.912 342.18 248.994L342.35 249.084C342.546 249.224 342.702 249.411 342.805 249.628C342.908 249.845 342.955 250.085 342.94 250.324V294.844C342.915 295.376 342.763 295.894 342.497 296.355C342.231 296.816 341.858 297.206 341.41 297.494L287.31 328.734C287.106 328.849 286.875 328.908 286.64 328.904ZM303.35 263.904C303.222 263.906 303.098 263.944 302.99 264.014L287.42 273.014C287.126 273.207 286.882 273.467 286.71 273.774C286.527 274.076 286.427 274.421 286.42 274.774V327.674C286.419 327.713 286.429 327.751 286.449 327.785C286.468 327.818 286.496 327.846 286.53 327.864C286.563 327.887 286.601 327.899 286.64 327.899C286.68 327.899 286.718 327.887 286.75 327.864L340.87 296.574C341.158 296.381 341.398 296.125 341.571 295.825C341.744 295.525 341.847 295.19 341.87 294.844V250.324C341.883 250.204 341.851 250.083 341.78 249.984H341.71C341.597 249.996 341.487 250.034 341.39 250.094L307.64 269.574C307.421 269.706 307.176 269.787 306.921 269.811C306.667 269.835 306.41 269.802 306.17 269.714C305.928 269.618 305.712 269.467 305.538 269.272C305.365 269.078 305.239 268.846 305.17 268.594L303.91 264.394C303.863 264.234 303.761 264.095 303.62 264.004C303.543 263.943 303.449 263.904 303.35 263.894V263.904Z" fill="#0084FF"/>
<path d="M359.34 306.554L358.93 306.314L358.45 306.034L358.03 305.794C357.685 305.568 357.389 305.274 357.161 304.93C356.932 304.586 356.776 304.2 356.7 303.794L351.03 261.214C351.011 260.926 350.925 260.645 350.78 260.395C350.634 260.146 350.432 259.933 350.19 259.774L349.47 259.364C349.184 259.218 348.864 259.152 348.544 259.173C348.223 259.195 347.915 259.302 347.65 259.484L318.52 276.104C318.19 276.294 317.822 276.411 317.443 276.448C317.064 276.484 316.681 276.438 316.32 276.314C316.097 276.124 315.908 275.898 315.76 275.644L314.81 274.004C314.577 273.584 314.23 273.238 313.81 273.004L313.08 272.584C312.676 272.351 312.217 272.228 311.75 272.228C311.283 272.228 310.825 272.351 310.42 272.584L296.96 280.354C296.294 280.775 295.755 281.37 295.402 282.075C295.05 282.78 294.897 283.569 294.96 284.354L301.8 335.214C301.891 335.718 302.086 336.198 302.372 336.623C302.657 337.048 303.028 337.409 303.46 337.684L304.76 338.434C305.004 338.587 305.283 338.673 305.57 338.684C305.8 338.689 306.028 338.634 306.23 338.524L360.16 306.634C360.028 306.693 359.883 306.717 359.74 306.703C359.596 306.689 359.458 306.638 359.34 306.554Z" fill="#0084FF"/>
<path opacity="0.25" d="M359.341 306.554L358.031 305.794C357.687 305.566 357.392 305.272 357.164 304.928C356.936 304.585 356.778 304.199 356.701 303.794L351.031 261.214C351.029 260.905 350.942 260.602 350.778 260.34C350.613 260.078 350.379 259.867 350.102 259.731C349.824 259.595 349.514 259.539 349.207 259.57C348.899 259.6 348.606 259.716 348.361 259.904L319.411 276.614C319.106 276.789 318.769 276.902 318.42 276.946C318.071 276.99 317.717 276.965 317.378 276.873C317.039 276.78 316.721 276.621 316.444 276.405C316.166 276.189 315.934 275.92 315.761 275.614L314.811 273.974C314.637 273.668 314.405 273.4 314.128 273.184C313.85 272.968 313.533 272.809 313.193 272.716C312.854 272.623 312.5 272.598 312.151 272.642C311.802 272.687 311.466 272.799 311.161 272.974L297.711 280.744C297.042 281.163 296.501 281.757 296.148 282.463C295.795 283.169 295.644 283.958 295.711 284.744L302.411 335.064C302.488 335.47 302.647 335.857 302.877 336.201C303.107 336.544 303.404 336.838 303.751 337.064L305.051 337.824C305.169 337.908 305.306 337.959 305.45 337.973C305.594 337.987 305.739 337.963 305.871 337.904L360.121 306.584C359.998 306.644 359.863 306.672 359.727 306.667C359.591 306.661 359.458 306.623 359.341 306.554Z" fill="black"/>
<path opacity="0.25" d="M303.791 337.114L305.091 337.874C305.209 337.958 305.346 338.009 305.49 338.023C305.634 338.037 305.779 338.013 305.911 337.954L360.161 306.634C360.029 306.693 359.884 306.717 359.74 306.703C359.596 306.689 359.459 306.638 359.341 306.554L358.031 305.794C357.691 305.578 357.401 305.292 357.181 304.954L302.931 336.274C303.152 336.614 303.445 336.901 303.791 337.114Z" fill="black"/>
<path d="M304.101 288.784V332.954C304.107 333.06 304.137 333.162 304.189 333.254C304.241 333.346 304.313 333.425 304.401 333.484L304.741 333.674C304.835 333.723 304.939 333.749 305.046 333.749C305.152 333.749 305.256 333.723 305.351 333.674L354.291 305.424C354.379 305.366 354.453 305.288 354.505 305.196C354.558 305.104 354.587 305 354.591 304.894V260.724C354.586 260.62 354.556 260.518 354.504 260.428C354.452 260.337 354.379 260.26 354.291 260.204L353.951 260.004C353.856 259.955 353.752 259.93 353.646 259.93C353.539 259.93 353.435 259.955 353.341 260.004L304.401 288.264C304.314 288.322 304.241 288.398 304.189 288.489C304.137 288.579 304.107 288.68 304.101 288.784Z" fill="#FAFAFA"/>
<path d="M354.58 260.644C354.589 260.608 354.589 260.57 354.58 260.534C354.553 260.477 354.519 260.424 354.48 260.374C354.459 260.343 354.432 260.316 354.4 260.294H354.34L354 260.094C353.908 260.045 353.805 260.02 353.7 260.02C353.596 260.02 353.493 260.045 353.4 260.094L304.46 288.354C304.366 288.403 304.289 288.48 304.24 288.574L305.19 289.124C305.238 289.03 305.311 288.951 305.4 288.894L354.34 260.644C354.43 260.464 354.55 260.514 354.58 260.644Z" fill="#E0E0E0"/>
<path d="M305.261 333.714C305.141 333.714 305.051 333.664 305.051 333.504V289.324C305.053 289.223 305.081 289.123 305.131 289.034L304.191 288.484C304.138 288.576 304.107 288.679 304.101 288.784V332.954C304.107 333.06 304.137 333.162 304.189 333.254C304.241 333.346 304.313 333.425 304.401 333.484L304.741 333.674C304.82 333.715 304.907 333.74 304.997 333.747C305.086 333.754 305.176 333.743 305.261 333.714Z" fill="#E0E0E0"/>
<g opacity="0.1">
<path opacity="0.1" d="M305.261 333.714C305.141 333.714 305.051 333.664 305.051 333.504V289.324C305.053 289.223 305.081 289.123 305.131 289.034L304.191 288.484C304.138 288.576 304.107 288.679 304.101 288.784V332.954C304.107 333.06 304.137 333.162 304.189 333.254C304.241 333.346 304.313 333.425 304.401 333.484L304.741 333.674C304.82 333.715 304.907 333.74 304.997 333.747C305.086 333.754 305.176 333.743 305.261 333.714Z" fill="black"/>
</g>
<path d="M361.15 264.334C361.18 264.047 361.134 263.758 361.017 263.494C360.899 263.231 360.714 263.003 360.48 262.834L359.81 262.454C359.549 262.334 359.26 262.285 358.973 262.313C358.687 262.341 358.413 262.445 358.18 262.614L308.56 291.264C307.888 291.703 307.329 292.293 306.927 292.988C306.526 293.683 306.294 294.463 306.25 295.264V337.214C306.266 337.358 306.242 337.504 306.183 337.636C306.123 337.768 306.029 337.881 305.91 337.964L306.23 338.534L360.81 307.024C360.928 306.94 361.021 306.827 361.081 306.695C361.141 306.563 361.165 306.418 361.15 306.274V264.334Z" fill="#0084FF"/>
<path opacity="0.25" d="M306.23 338.524C306.445 338.383 306.617 338.187 306.73 337.957C306.843 337.726 306.891 337.47 306.87 337.214V295.654C306.916 294.852 307.15 294.072 307.553 293.377C307.956 292.683 308.517 292.092 309.19 291.654L358.87 262.994C360.14 262.254 361.18 262.854 361.18 264.334V306.264C361.195 306.408 361.171 306.553 361.111 306.685C361.052 306.817 360.958 306.93 360.84 307.014L306.23 338.524Z" fill="white"/>
<path d="M204.091 376.564C203.866 376.567 203.644 376.508 203.451 376.394C203.255 376.283 203.093 376.121 202.98 375.926C202.868 375.731 202.809 375.509 202.811 375.284V322.384C202.82 321.851 202.972 321.329 203.251 320.874C203.511 320.411 203.882 320.019 204.331 319.734L219.911 310.734C220.162 310.585 220.448 310.505 220.741 310.505C221.033 310.505 221.32 310.585 221.571 310.734C221.957 310.951 222.243 311.31 222.371 311.734L223.631 315.934C223.652 316.031 223.696 316.121 223.758 316.197C223.821 316.274 223.9 316.334 223.991 316.374C224.082 316.405 224.18 316.413 224.275 316.399C224.371 316.385 224.461 316.349 224.541 316.294L258.291 296.824C258.481 296.696 258.699 296.615 258.927 296.589C259.155 296.563 259.386 296.592 259.601 296.674L259.771 296.764C259.965 296.905 260.121 297.092 260.224 297.309C260.327 297.525 260.374 297.765 260.361 298.004V342.524C260.337 343.056 260.185 343.575 259.919 344.036C259.653 344.497 259.279 344.888 258.831 345.174L204.731 376.414C204.535 376.521 204.314 376.573 204.091 376.564ZM220.801 311.564C220.673 311.571 220.55 311.609 220.441 311.674L204.871 320.674C204.574 320.86 204.33 321.118 204.161 321.424C203.977 321.726 203.877 322.071 203.871 322.424V375.324C203.87 375.363 203.879 375.401 203.899 375.435C203.918 375.468 203.946 375.496 203.981 375.514C204.013 375.537 204.051 375.549 204.091 375.549C204.13 375.549 204.168 375.537 204.201 375.514L258.301 344.214C258.588 344.019 258.827 343.76 259 343.459C259.174 343.158 259.276 342.821 259.301 342.474V297.984C259.313 297.864 259.281 297.743 259.211 297.644H259.141C259.027 297.656 258.918 297.694 258.821 297.754L225.071 317.214C224.851 317.351 224.603 317.435 224.345 317.457C224.088 317.479 223.829 317.44 223.589 317.342C223.35 317.244 223.137 317.091 222.969 316.895C222.8 316.699 222.681 316.466 222.621 316.214L221.361 312.014C221.314 311.851 221.211 311.709 221.071 311.614C220.987 311.571 220.894 311.55 220.801 311.554V311.564Z" fill="#0084FF"/>
<path d="M276.791 354.534L276.381 354.294L275.901 354.014L275.481 353.774C275.135 353.548 274.84 353.254 274.611 352.91C274.383 352.566 274.226 352.18 274.151 351.774L268.481 309.214C268.463 308.927 268.378 308.647 268.232 308.399C268.086 308.15 267.883 307.94 267.641 307.784L266.921 307.364C266.634 307.222 266.314 307.159 265.995 307.18C265.675 307.201 265.367 307.306 265.101 307.484L235.971 324.114C235.64 324.304 235.273 324.421 234.893 324.458C234.514 324.494 234.131 324.448 233.771 324.324C233.548 324.134 233.358 323.908 233.211 323.654L232.211 322.014C231.977 321.594 231.631 321.248 231.211 321.014L230.481 320.594C230.076 320.361 229.618 320.238 229.151 320.238C228.684 320.238 228.225 320.361 227.821 320.594L214.361 328.364C213.694 328.785 213.155 329.38 212.803 330.085C212.45 330.79 212.297 331.578 212.361 332.364L219.251 383.214C219.342 383.718 219.536 384.198 219.822 384.623C220.108 385.048 220.478 385.409 220.911 385.684L222.211 386.444C222.457 386.589 222.735 386.671 223.021 386.684C223.251 386.694 223.48 386.639 223.681 386.524L277.611 354.634C277.477 354.691 277.331 354.711 277.187 354.693C277.043 354.676 276.907 354.621 276.791 354.534Z" fill="#0084FF"/>
<path opacity="0.25" d="M276.79 354.534L275.48 353.774C275.136 353.547 274.841 353.253 274.612 352.909C274.384 352.566 274.227 352.18 274.15 351.774L268.48 309.214C268.479 308.905 268.391 308.602 268.227 308.34C268.063 308.078 267.829 307.868 267.552 307.731C267.274 307.595 266.964 307.539 266.656 307.57C266.349 307.6 266.056 307.716 265.81 307.904L236.87 324.634C236.253 324.985 235.523 325.076 234.839 324.889C234.154 324.701 233.573 324.25 233.22 323.634L232.22 321.994C231.868 321.378 231.286 320.927 230.602 320.74C229.918 320.552 229.187 320.644 228.57 320.994L215.12 328.764C214.452 329.183 213.912 329.778 213.559 330.484C213.207 331.189 213.055 331.978 213.12 332.764L219.82 383.074C219.896 383.481 220.054 383.868 220.285 384.212C220.515 384.556 220.813 384.849 221.16 385.074L222.46 385.834C222.578 385.918 222.716 385.969 222.86 385.983C223.004 385.997 223.149 385.973 223.28 385.914L277.53 354.594C277.411 354.642 277.282 354.662 277.153 354.652C277.025 354.641 276.901 354.601 276.79 354.534Z" fill="black"/>
<path opacity="0.25" d="M221.241 385.094L222.541 385.854C222.659 385.938 222.796 385.989 222.94 386.003C223.084 386.017 223.229 385.993 223.361 385.934L277.611 354.614C277.479 354.673 277.334 354.697 277.19 354.683C277.046 354.669 276.909 354.618 276.791 354.534L275.481 353.774C275.141 353.558 274.851 353.272 274.631 352.934L220.381 384.214C220.597 384.569 220.891 384.87 221.241 385.094Z" fill="black"/>
<path d="M221.551 336.764V380.934C221.557 381.04 221.587 381.142 221.639 381.234C221.691 381.326 221.764 381.405 221.851 381.464L222.191 381.654C222.285 381.703 222.39 381.729 222.496 381.729C222.602 381.729 222.707 381.703 222.801 381.654L271.741 353.404C271.828 353.347 271.901 353.271 271.953 353.18C272.005 353.09 272.035 352.988 272.041 352.884V308.704C272.036 308.6 272.007 308.498 271.954 308.408C271.902 308.317 271.829 308.24 271.741 308.184L271.401 307.984C271.307 307.935 271.202 307.91 271.096 307.91C270.99 307.91 270.885 307.935 270.791 307.984L221.871 336.214C221.776 336.272 221.697 336.353 221.641 336.449C221.585 336.545 221.554 336.653 221.551 336.764Z" fill="#FAFAFA"/>
<path d="M272.03 308.624C272.038 308.588 272.038 308.55 272.03 308.514V308.464C272.003 308.407 271.969 308.354 271.93 308.304L271.85 308.224H271.79L271.45 308.024C271.358 307.975 271.255 307.95 271.15 307.95C271.046 307.95 270.943 307.975 270.85 308.024L221.87 336.214C221.778 336.266 221.702 336.342 221.65 336.434L222.6 336.984C222.649 336.89 222.721 336.811 222.81 336.754L271.75 308.504C271.87 308.444 272 308.494 272.03 308.624Z" fill="#E0E0E0"/>
<path d="M222.711 381.694C222.591 381.694 222.501 381.644 222.501 381.484V337.314C222.502 337.209 222.53 337.106 222.581 337.014L221.641 336.464C221.588 336.556 221.557 336.659 221.551 336.764V380.934C221.557 381.04 221.587 381.142 221.639 381.234C221.691 381.326 221.764 381.405 221.851 381.464L222.191 381.654C222.27 381.698 222.357 381.724 222.446 381.731C222.536 381.737 222.626 381.725 222.711 381.694Z" fill="#E0E0E0"/>
<g opacity="0.1">
<path opacity="0.1" d="M222.711 381.694C222.591 381.694 222.501 381.644 222.501 381.484V337.314C222.502 337.209 222.53 337.106 222.581 337.014L221.641 336.464C221.588 336.556 221.557 336.659 221.551 336.764V380.934C221.557 381.04 221.587 381.142 221.639 381.234C221.691 381.326 221.764 381.405 221.851 381.464L222.191 381.654C222.27 381.698 222.357 381.724 222.446 381.731C222.536 381.737 222.626 381.725 222.711 381.694Z" fill="black"/>
</g>
<path d="M278.6 312.314C278.629 312.027 278.583 311.738 278.465 311.475C278.348 311.212 278.163 310.984 277.93 310.814L277.26 310.434C276.998 310.316 276.71 310.268 276.424 310.296C276.138 310.324 275.864 310.427 275.63 310.594L226.01 339.214C225.338 339.653 224.779 340.243 224.378 340.938C223.976 341.633 223.744 342.413 223.7 343.214V385.214C223.716 385.358 223.693 385.504 223.633 385.636C223.573 385.768 223.479 385.881 223.36 385.964L223.68 386.534L278.26 355.024C278.379 354.941 278.473 354.828 278.533 354.696C278.593 354.564 278.616 354.418 278.6 354.274V312.314Z" fill="#0084FF"/>
<path opacity="0.25" d="M223.681 386.504C223.902 386.366 224.082 386.17 224.2 385.938C224.318 385.705 224.37 385.444 224.351 385.184V343.634C224.396 342.832 224.63 342.052 225.033 341.357C225.436 340.663 225.997 340.072 226.671 339.634L276.291 310.984C277.561 310.244 278.601 310.844 278.601 312.324V354.214C278.616 354.358 278.593 354.504 278.533 354.636C278.473 354.768 278.379 354.881 278.261 354.964L223.681 386.504Z" fill="white"/>
<path d="M286.64 243.454C286.416 243.452 286.196 243.394 286 243.284C285.805 243.17 285.643 243.007 285.53 242.81C285.418 242.613 285.359 242.391 285.36 242.164V189.274C285.37 188.741 285.522 188.219 285.8 187.764C286.06 187.301 286.432 186.909 286.88 186.624L302.46 177.624C302.707 177.468 302.991 177.381 303.282 177.37C303.574 177.36 303.863 177.427 304.12 177.564C304.503 177.785 304.789 178.142 304.92 178.564L306.18 182.764C306.199 182.86 306.241 182.95 306.303 183.025C306.366 183.1 306.446 183.158 306.537 183.194C306.627 183.23 306.726 183.242 306.822 183.23C306.919 183.218 307.011 183.182 307.09 183.124L340.87 163.684C341.061 163.557 341.28 163.477 341.508 163.453C341.736 163.429 341.967 163.46 342.18 163.544L342.35 163.624C342.545 163.767 342.701 163.956 342.804 164.174C342.907 164.393 342.954 164.633 342.94 164.874V209.394C342.915 209.926 342.763 210.444 342.497 210.905C342.231 211.366 341.858 211.756 341.41 212.044L287.31 243.284C287.106 243.399 286.875 243.458 286.64 243.454ZM303.35 178.454C303.224 178.457 303.1 178.491 302.99 178.554L287.42 187.554C287.124 187.744 286.88 188.005 286.71 188.314C286.527 188.616 286.427 188.961 286.42 189.314V242.214C286.419 242.254 286.428 242.294 286.447 242.33C286.467 242.365 286.496 242.394 286.53 242.414C286.564 242.432 286.602 242.441 286.64 242.441C286.679 242.441 286.716 242.432 286.75 242.414L340.87 211.124C341.157 210.931 341.397 210.674 341.57 210.375C341.743 210.075 341.846 209.74 341.87 209.394V164.874C341.88 164.751 341.848 164.628 341.78 164.524H341.71C341.597 164.536 341.487 164.574 341.39 164.634L307.64 184.114C307.421 184.246 307.176 184.327 306.921 184.351C306.667 184.375 306.41 184.342 306.17 184.254C305.928 184.158 305.712 184.007 305.538 183.812C305.365 183.618 305.239 183.386 305.17 183.134L303.91 178.934C303.866 178.773 303.762 178.633 303.62 178.544C303.542 178.486 303.448 178.451 303.35 178.444V178.454Z" fill="#0084FF"/>
<path d="M359.341 221.414L358.931 221.184L358.451 220.904L358.031 220.664C357.686 220.438 357.39 220.144 357.161 219.8C356.933 219.456 356.776 219.07 356.701 218.664L351.031 176.104C351.012 175.816 350.926 175.535 350.78 175.285C350.634 175.036 350.433 174.823 350.191 174.664L349.471 174.244C349.183 174.102 348.863 174.039 348.543 174.062C348.223 174.084 347.915 174.192 347.651 174.374L318.521 190.994C318.19 191.184 317.823 191.301 317.443 191.338C317.064 191.374 316.681 191.328 316.321 191.204C316.098 191.014 315.908 190.788 315.761 190.534L314.811 188.894C314.573 188.477 314.228 188.132 313.811 187.894L313.081 187.484C312.677 187.249 312.218 187.125 311.751 187.125C311.283 187.125 310.824 187.249 310.421 187.484L296.961 195.254C296.293 195.674 295.754 196.269 295.401 196.975C295.049 197.68 294.896 198.468 294.961 199.254L301.731 250.074C301.823 250.578 302.018 251.057 302.304 251.482C302.589 251.907 302.959 252.268 303.391 252.544L304.691 253.294C304.934 253.447 305.214 253.533 305.501 253.544C305.733 253.553 305.962 253.493 306.161 253.374L360.091 221.484C359.97 221.537 359.838 221.558 359.707 221.546C359.576 221.534 359.45 221.488 359.341 221.414Z" fill="#0084FF"/>
<path opacity="0.25" d="M359.341 221.414L358.031 220.664C357.687 220.436 357.392 220.142 357.164 219.798C356.936 219.455 356.778 219.069 356.701 218.664L351.031 176.104C351.031 175.794 350.945 175.49 350.781 175.227C350.618 174.963 350.384 174.751 350.106 174.614C349.828 174.476 349.518 174.419 349.209 174.449C348.901 174.48 348.607 174.596 348.361 174.784L319.411 191.514C319.106 191.689 318.769 191.802 318.42 191.846C318.071 191.891 317.717 191.865 317.378 191.773C317.039 191.68 316.721 191.521 316.444 191.305C316.166 191.089 315.934 190.82 315.761 190.514L314.811 188.874C314.637 188.568 314.405 188.3 314.128 188.084C313.85 187.868 313.533 187.709 313.193 187.616C312.854 187.523 312.5 187.498 312.151 187.542C311.802 187.587 311.466 187.699 311.161 187.874L297.711 195.644C297.042 196.063 296.501 196.657 296.148 197.363C295.795 198.069 295.644 198.858 295.711 199.644L302.411 249.964C302.488 250.37 302.647 250.757 302.877 251.101C303.107 251.444 303.404 251.738 303.751 251.964L305.051 252.714C305.167 252.801 305.304 252.856 305.448 252.871C305.593 252.887 305.738 252.864 305.871 252.804L360.121 221.474C359.997 221.534 359.86 221.56 359.723 221.549C359.586 221.539 359.454 221.492 359.341 221.414Z" fill="black"/>
<path opacity="0.25" d="M303.791 251.984L305.091 252.734C305.207 252.821 305.344 252.876 305.488 252.891C305.633 252.907 305.778 252.884 305.911 252.824L360.161 221.494C360.03 221.559 359.884 221.585 359.739 221.571C359.594 221.557 359.456 221.503 359.341 221.414L358.031 220.664C357.691 220.448 357.401 220.162 357.181 219.824L302.931 251.144C303.152 251.484 303.445 251.771 303.791 251.984Z" fill="black"/>
<path d="M304.101 203.654V247.824C304.107 247.928 304.137 248.029 304.189 248.12C304.241 248.21 304.314 248.287 304.401 248.344L304.741 248.544C304.835 248.593 304.939 248.619 305.046 248.619C305.152 248.619 305.256 248.593 305.351 248.544L354.291 220.294C354.378 220.235 354.451 220.157 354.503 220.065C354.555 219.973 354.585 219.87 354.591 219.764V175.594C354.585 175.489 354.555 175.386 354.503 175.294C354.451 175.202 354.378 175.123 354.291 175.064L353.951 174.874C353.856 174.825 353.752 174.799 353.646 174.799C353.539 174.799 353.435 174.825 353.341 174.874L304.401 203.124C304.313 203.184 304.241 203.262 304.189 203.354C304.137 203.446 304.107 203.549 304.101 203.654Z" fill="#FAFAFA"/>
<path d="M354.58 175.514C354.589 175.478 354.589 175.44 354.58 175.404V175.344C354.55 175.292 354.517 175.242 354.48 175.194C354.459 175.163 354.432 175.136 354.4 175.114L354.34 175.064L354 174.874C353.908 174.825 353.805 174.8 353.7 174.8C353.596 174.8 353.493 174.825 353.4 174.874L304.46 203.124C304.365 203.177 304.289 203.257 304.24 203.354L305.19 203.894C305.241 203.805 305.313 203.729 305.4 203.674L354.34 175.414C354.43 175.334 354.55 175.374 354.58 175.514Z" fill="#E0E0E0"/>
<path d="M305.261 248.584C305.141 248.584 305.051 248.534 305.051 248.374V204.214C305.055 204.11 305.082 204.007 305.131 203.914L304.191 203.374C304.137 203.465 304.106 203.568 304.101 203.674V247.844C304.107 247.948 304.137 248.049 304.189 248.14C304.241 248.23 304.314 248.307 304.401 248.364L304.741 248.564C304.822 248.602 304.909 248.623 304.999 248.627C305.088 248.63 305.177 248.616 305.261 248.584Z" fill="#E0E0E0"/>
<g opacity="0.1">
<path opacity="0.1" d="M305.261 248.584C305.141 248.584 305.051 248.534 305.051 248.374V204.214C305.055 204.11 305.082 204.007 305.131 203.914L304.191 203.374C304.137 203.465 304.106 203.568 304.101 203.674V247.844C304.107 247.948 304.137 248.049 304.189 248.14C304.241 248.23 304.314 248.307 304.401 248.364L304.741 248.564C304.822 248.602 304.909 248.623 304.999 248.627C305.088 248.63 305.177 248.616 305.261 248.584Z" fill="black"/>
</g>
<path d="M361.151 179.214C361.18 178.929 361.134 178.641 361.016 178.379C360.899 178.118 360.714 177.892 360.481 177.724L359.811 177.344C359.55 177.224 359.261 177.175 358.974 177.203C358.688 177.231 358.414 177.335 358.181 177.504L308.561 206.154C307.889 206.593 307.33 207.183 306.928 207.878C306.527 208.573 306.295 209.353 306.251 210.154V252.084C306.266 252.228 306.242 252.373 306.182 252.505C306.122 252.637 306.029 252.75 305.911 252.834L306.231 253.394L360.811 221.884C360.929 221.803 361.023 221.691 361.082 221.561C361.142 221.431 361.166 221.287 361.151 221.144V179.214Z" fill="#0084FF"/>
<path opacity="0.25" d="M306.23 253.384C306.453 253.25 306.633 253.056 306.751 252.824C306.87 252.593 306.921 252.333 306.9 252.074V210.524C306.946 209.722 307.18 208.942 307.583 208.247C307.986 207.553 308.547 206.962 309.22 206.524L358.87 177.864C360.14 177.124 361.18 177.724 361.18 179.194V221.134C361.195 221.277 361.172 221.421 361.112 221.551C361.052 221.681 360.958 221.793 360.84 221.874L306.23 253.384Z" fill="white"/>
<path d="M204.091 291.114C203.866 291.117 203.644 291.058 203.451 290.944C203.255 290.833 203.093 290.671 202.98 290.476C202.868 290.281 202.809 290.059 202.811 289.834V236.934C202.82 236.401 202.972 235.879 203.251 235.424C203.511 234.961 203.882 234.569 204.331 234.284L219.911 225.284C220.157 225.127 220.441 225.039 220.734 225.03C221.026 225.022 221.315 225.092 221.571 225.234C221.957 225.451 222.243 225.81 222.371 226.234L223.631 230.434C223.652 230.531 223.696 230.621 223.758 230.697C223.821 230.774 223.9 230.834 223.991 230.874C224.082 230.905 224.18 230.913 224.275 230.899C224.371 230.885 224.461 230.849 224.541 230.794L258.291 211.324C258.481 211.196 258.699 211.115 258.927 211.089C259.155 211.063 259.386 211.092 259.601 211.174L259.771 211.264C259.966 211.404 260.122 211.591 260.225 211.808C260.329 212.025 260.375 212.265 260.361 212.504V257.024C260.337 257.556 260.185 258.075 259.919 258.536C259.653 258.997 259.279 259.388 258.831 259.674L204.731 290.914C204.54 291.039 204.318 291.108 204.091 291.114ZM220.801 226.114C220.673 226.121 220.55 226.159 220.441 226.224L204.871 235.214C204.574 235.4 204.33 235.658 204.161 235.964C203.977 236.266 203.877 236.611 203.871 236.964V289.864C203.87 289.903 203.879 289.941 203.899 289.975C203.918 290.008 203.946 290.036 203.981 290.054C204.013 290.077 204.051 290.089 204.091 290.089C204.13 290.089 204.168 290.077 204.201 290.054L258.301 258.814C258.588 258.621 258.828 258.365 259.001 258.065C259.174 257.765 259.277 257.43 259.301 257.084V212.534C259.313 212.414 259.281 212.293 259.211 212.194H259.141C259.027 212.206 258.918 212.244 258.821 212.304L225.071 231.744C224.852 231.876 224.606 231.957 224.351 231.981C224.097 232.005 223.84 231.972 223.601 231.884C223.359 231.79 223.142 231.641 222.969 231.448C222.795 231.255 222.669 231.025 222.601 230.774L221.341 226.574C221.294 226.411 221.191 226.269 221.051 226.174C220.974 226.131 220.888 226.107 220.801 226.104V226.114Z" fill="#0084FF"/>
<path d="M276.791 268.764L276.381 268.524L275.871 268.214L275.451 267.974C275.105 267.748 274.81 267.454 274.581 267.11C274.353 266.766 274.196 266.38 274.121 265.974L268.451 223.414C268.433 223.127 268.348 222.847 268.202 222.599C268.056 222.35 267.853 222.14 267.611 221.984L266.891 221.564C266.604 221.422 266.284 221.359 265.965 221.38C265.645 221.401 265.337 221.506 265.071 221.684L235.971 238.344C235.641 238.536 235.273 238.654 234.894 238.691C234.514 238.727 234.131 238.68 233.771 238.554C233.548 238.364 233.358 238.138 233.211 237.884L232.211 236.244C231.977 235.824 231.631 235.478 231.211 235.244L230.481 234.824C230.076 234.591 229.618 234.468 229.151 234.468C228.684 234.468 228.225 234.591 227.821 234.824L214.361 242.594C213.694 243.015 213.155 243.61 212.803 244.315C212.45 245.02 212.297 245.808 212.361 246.594L219.131 297.414C219.222 297.918 219.416 298.398 219.702 298.823C219.988 299.248 220.358 299.609 220.791 299.884L222.091 300.644C222.337 300.789 222.615 300.871 222.901 300.884C223.131 300.894 223.36 300.839 223.561 300.724L277.491 268.834C277.376 268.875 277.254 268.889 277.133 268.877C277.012 268.865 276.895 268.826 276.791 268.764Z" fill="#0084FF"/>
<path opacity="0.25" d="M276.79 268.764L275.48 268.004C275.136 267.777 274.841 267.483 274.612 267.139C274.384 266.796 274.227 266.41 274.15 266.004L268.48 223.444C268.479 223.135 268.391 222.832 268.227 222.57C268.063 222.308 267.829 222.097 267.552 221.961C267.274 221.825 266.964 221.769 266.656 221.8C266.349 221.83 266.056 221.946 265.81 222.134L236.87 238.864C236.253 239.215 235.523 239.306 234.839 239.119C234.154 238.931 233.573 238.48 233.22 237.864L232.22 236.224C231.868 235.608 231.286 235.157 230.602 234.97C229.918 234.782 229.187 234.874 228.57 235.224L215.12 242.994C214.452 243.413 213.912 244.008 213.559 244.714C213.207 245.419 213.055 246.208 213.12 246.994L219.82 297.304C219.896 297.711 220.054 298.098 220.285 298.442C220.515 298.786 220.813 299.079 221.16 299.304L222.46 300.064C222.578 300.148 222.716 300.199 222.86 300.213C223.004 300.227 223.149 300.203 223.28 300.144L277.53 268.824C277.411 268.872 277.282 268.892 277.153 268.882C277.025 268.871 276.901 268.831 276.79 268.764Z" fill="black"/>
<path opacity="0.25" d="M221.241 299.324L222.541 300.084C222.659 300.168 222.796 300.219 222.94 300.233C223.084 300.247 223.229 300.223 223.361 300.164L277.611 268.844C277.479 268.903 277.334 268.927 277.19 268.913C277.046 268.899 276.909 268.848 276.791 268.764L275.481 268.004C275.141 267.788 274.851 267.502 274.631 267.164L220.381 298.484C220.599 298.827 220.893 299.114 221.241 299.324Z" fill="black"/>
<path d="M221.551 250.994V295.214C221.557 295.32 221.587 295.422 221.639 295.514C221.691 295.606 221.764 295.685 221.851 295.744L222.191 295.934C222.285 295.983 222.39 296.009 222.496 296.009C222.602 296.009 222.707 295.983 222.801 295.934L271.741 267.684C271.828 267.627 271.901 267.551 271.953 267.46C272.005 267.37 272.035 267.268 272.041 267.164V222.934C272.036 222.83 272.007 222.728 271.954 222.638C271.902 222.547 271.829 222.47 271.741 222.414L271.401 222.214C271.307 222.165 271.202 222.14 271.096 222.14C270.99 222.14 270.885 222.165 270.791 222.214L221.871 250.474C221.78 250.529 221.704 250.605 221.648 250.696C221.592 250.786 221.559 250.888 221.551 250.994Z" fill="#FAFAFA"/>
<path d="M272.03 222.854C272.038 222.818 272.038 222.78 272.03 222.744V222.694C272.003 222.637 271.969 222.584 271.93 222.534C271.909 222.503 271.882 222.476 271.85 222.454H271.79L271.45 222.254C271.357 222.208 271.255 222.183 271.15 222.183C271.046 222.183 270.944 222.208 270.85 222.254L221.87 250.474C221.778 250.526 221.702 250.602 221.65 250.694L222.6 251.244C222.649 251.15 222.721 251.071 222.81 251.014L271.75 222.764C271.87 222.674 272 222.724 272.03 222.854Z" fill="#E0E0E0"/>
<path d="M222.711 295.924C222.591 295.924 222.501 295.924 222.501 295.714V251.544C222.502 251.439 222.53 251.336 222.581 251.244L221.641 250.694C221.588 250.786 221.557 250.889 221.551 250.994V295.214C221.558 295.318 221.589 295.419 221.641 295.509C221.693 295.599 221.765 295.676 221.851 295.734L222.191 295.934C222.274 295.967 222.362 295.983 222.452 295.982C222.541 295.98 222.629 295.96 222.711 295.924Z" fill="#E0E0E0"/>
<g opacity="0.1">
<path opacity="0.1" d="M222.711 295.924C222.591 295.924 222.501 295.924 222.501 295.714V251.544C222.502 251.439 222.53 251.336 222.581 251.244L221.641 250.694C221.588 250.786 221.557 250.889 221.551 250.994V295.214C221.558 295.318 221.589 295.419 221.641 295.509C221.693 295.599 221.765 295.676 221.851 295.734L222.191 295.934C222.274 295.967 222.362 295.983 222.452 295.982C222.541 295.98 222.629 295.96 222.711 295.924Z" fill="black"/>
</g>
<path d="M278.6 226.544C278.629 226.257 278.583 225.968 278.465 225.705C278.348 225.442 278.163 225.214 277.93 225.044L277.26 224.664C276.998 224.546 276.71 224.498 276.424 224.526C276.138 224.554 275.864 224.657 275.63 224.824L226.01 253.474C225.338 253.913 224.779 254.503 224.378 255.198C223.976 255.893 223.744 256.673 223.7 257.474V299.414C223.716 299.558 223.693 299.704 223.633 299.836C223.573 299.968 223.479 300.081 223.36 300.164L223.68 300.734L278.26 269.214C278.379 269.131 278.473 269.018 278.533 268.886C278.593 268.754 278.616 268.608 278.6 268.464V226.544Z" fill="#0084FF"/>
<path opacity="0.25" d="M223.681 300.734C223.902 300.596 224.082 300.4 224.2 300.168C224.318 299.935 224.37 299.674 224.351 299.414V257.864C224.396 257.062 224.63 256.282 225.033 255.587C225.436 254.893 225.997 254.302 226.671 253.864L276.291 225.214C277.561 224.484 278.601 225.074 278.601 226.554V268.484C278.616 268.628 278.593 268.774 278.533 268.906C278.473 269.038 278.379 269.151 278.261 269.234L223.681 300.734Z" fill="white"/>
</svg>
