<svg width="500" height="500" viewBox="0 0 500 500" fill="none" xmlns="http://www.w3.org/2000/svg">
<path d="M249.78 462.02C382.759 462.02 490.56 399.783 490.56 323.01C490.56 246.237 382.759 184 249.78 184C116.801 184 9 246.237 9 323.01C9 399.783 116.801 462.02 249.78 462.02Z" fill="#D9D9D9"/>
<path d="M367.872 86.0842L361.302 82.2742L132.012 214.724V420.214C132.012 422.444 132.792 424.004 134.012 424.744L140.572 428.564C141.832 429.294 143.572 429.194 145.522 428.074L360.872 303.694C362.909 302.366 364.605 300.577 365.821 298.471C367.037 296.365 367.74 294.002 367.872 291.574V86.0842Z" fill="#E6E6E6"/>
<path d="M142.439 428.214C143.403 428.167 144.34 427.875 145.159 427.364L360.509 302.994C362.426 301.741 364.022 300.054 365.166 298.07C366.311 296.087 366.973 293.861 367.099 291.574V87.4841L139.379 219.004V424.004C139.379 426.654 140.519 428.214 142.439 428.214Z" fill="#FAFAFA"/>
<path d="M366.29 88.884V291.574C366.158 293.718 365.531 295.802 364.457 297.662C363.382 299.522 361.891 301.108 360.1 302.294L144.76 426.674C144.062 427.113 143.264 427.368 142.44 427.414C140.44 427.414 140.18 425.054 140.18 424.034V219.474L366.29 88.884ZM367.91 86.084L138.57 218.544V424.034C138.57 427.204 140.14 429.034 142.44 429.034C143.553 428.98 144.632 428.635 145.57 428.034L360.87 303.694C362.908 302.366 364.603 300.577 365.819 298.471C367.036 296.365 367.738 294.002 367.87 291.574V86.084H367.91Z" fill="#E0E0E0"/>
<path d="M138.57 218.544V240.414L367.9 107.954L367.91 86.084L138.57 218.544Z" fill="#1A1A1A"/>
<path d="M171.063 205.39C170.227 205.835 169.522 206.582 169.258 206.887C168.523 207.728 168.102 208.578 167.332 210.126C167.031 210.732 166.742 211.366 166.17 212.632C165.978 213.05 165.881 213.273 165.797 213.461L165.791 213.472C165.707 213.66 165.635 213.821 165.49 214.134C164.888 215.452 164.455 216.407 164.287 216.672C163.841 217.375 163.185 218.031 162.613 218.337C161.506 218.937 159.899 218.725 159.893 216.777C159.887 215.164 160.964 213.168 162.343 212.238C162.969 211.816 163.564 211.649 164.076 211.748C164.154 211.759 164.202 211.822 164.214 211.913C164.226 212.004 164.202 212.123 164.148 212.238L162.331 215.946C162.072 216.472 162.102 217.008 162.391 217.164C162.553 217.246 162.77 217.212 162.993 217.071C163.215 216.922 163.42 216.679 163.552 216.407L166.002 211.413C166.224 210.957 166.23 210.498 166.014 210.287C165.207 209.497 163.931 209.487 162.589 210.256C160.23 211.609 158.316 214.938 158.316 217.674C158.316 219.066 158.828 220.06 159.761 220.477C160.549 220.829 161.602 220.729 162.565 220.205C162.595 220.188 162.631 220.167 162.662 220.15C163.588 219.619 164.605 218.595 165.316 217.474C165.629 216.98 165.984 216.195 166.772 214.47C166.916 214.149 166.995 213.971 167.079 213.79L167.085 213.773C167.169 213.584 167.266 213.368 167.452 212.96C168.006 211.74 168.283 211.127 168.559 210.569C169.221 209.231 169.528 208.614 169.944 208.138C170.034 208.038 170.491 207.53 171.003 207.258C172.116 206.669 173.729 206.884 173.729 208.829C173.729 210.558 172.519 212.658 171.033 213.51C170.642 213.734 170.233 213.829 170.233 213.829C169.522 213.977 169.059 213.697 168.794 213.436C168.656 213.299 168.445 213.287 168.216 213.397C167.988 213.507 167.765 213.732 167.597 214.025C167.326 214.495 167.296 215.037 167.536 215.27C167.94 215.661 168.65 216.08 169.757 215.851C169.781 215.844 170.383 215.716 171.027 215.347C173.386 213.994 175.3 210.665 175.3 207.929C175.306 204.798 172.838 204.449 171.063 205.39Z" fill="white"/>
<path d="M156.151 215.001C156.043 214.972 155.904 214.933 155.73 214.921C155.567 214.903 155.29 214.894 154.935 214.958C154.388 215.063 153.9 215.3 153.587 215.48C152.594 216.049 151.649 216.981 150.891 218.141V217.932C150.891 217.43 150.536 217.222 150.103 217.47C149.669 217.718 149.32 218.33 149.32 218.832V226.929C149.32 227.432 149.675 227.64 150.109 227.391C150.542 227.143 150.897 226.528 150.897 226.026V221.973C150.897 220.251 152.107 218.156 153.593 217.304C155.08 216.452 156.289 217.16 156.289 218.883V222.935C156.289 223.437 156.645 223.645 157.078 223.397C157.511 223.148 157.866 222.533 157.866 222.031V217.568C157.866 217.491 157.866 215.496 156.151 215.001Z" fill="white"/>
<path d="M293.012 138.394V142.894C293.012 143.814 293.662 144.194 294.462 143.734L352.332 110.294V102.434L294.462 135.874C294.039 136.15 293.687 136.523 293.435 136.961C293.183 137.398 293.038 137.89 293.012 138.394Z" fill="#FAFAFA"/>
<path d="M359.948 98.034C360.748 97.574 361.398 97.954 361.398 98.874V103.384C361.37 103.887 361.224 104.376 360.973 104.812C360.721 105.248 360.37 105.619 359.948 105.894L352.328 110.294V102.434L359.948 98.034Z" fill="#808080"/>
<path d="M359.131 104.684L358.251 104.274C358.402 103.902 358.506 103.512 358.561 103.114C358.655 102.749 358.651 102.366 358.551 102.003C358.452 101.64 358.258 101.31 357.991 101.044C357.801 100.901 357.575 100.813 357.338 100.792C357.101 100.771 356.863 100.817 356.651 100.924C356.008 101.289 355.459 101.801 355.051 102.418C354.643 103.035 354.386 103.739 354.301 104.474C354.209 104.838 354.212 105.22 354.31 105.582C354.408 105.945 354.598 106.276 354.861 106.544C355.024 106.671 355.217 106.753 355.421 106.784C355.69 106.811 355.962 106.77 356.211 106.664C356.971 106.279 357.585 105.658 357.961 104.894L358.841 105.304H358.941C359.024 105.321 359.111 105.305 359.183 105.261C359.256 105.217 359.309 105.147 359.333 105.066C359.357 104.984 359.349 104.897 359.312 104.821C359.274 104.745 359.21 104.685 359.131 104.654V104.684ZM355.951 106.034C355.85 106.095 355.734 106.127 355.616 106.127C355.498 106.127 355.382 106.095 355.281 106.034C355.122 105.836 355.012 105.604 354.96 105.355C354.907 105.107 354.915 104.849 354.981 104.604C355.057 103.991 355.27 103.404 355.605 102.884C355.939 102.365 356.385 101.928 356.911 101.604C357.046 101.544 357.194 101.52 357.341 101.534C357.426 101.542 357.507 101.577 357.571 101.634C357.723 101.826 357.83 102.05 357.882 102.289C357.934 102.529 357.93 102.777 357.871 103.014C357.797 103.629 357.586 104.219 357.253 104.742C356.921 105.264 356.476 105.706 355.951 106.034Z" fill="#FAFAFA"/>
<path d="M359.36 71.514C358.09 70.734 356.31 70.814 354.36 71.954L139 196.334C136.962 197.661 135.266 199.451 134.05 201.556C132.834 203.662 132.131 206.026 132 208.454V214.724L138.56 218.544L367.87 86.084V79.814C367.87 77.594 367.09 76.034 365.87 75.304C364.65 74.574 360.5 72.214 359.36 71.514Z" fill="#404040"/>
<path d="M138.57 212.264C138.702 209.836 139.404 207.472 140.62 205.367C141.837 203.261 143.532 201.471 145.57 200.144L360.87 75.7741C364.73 73.5441 367.87 75.3541 367.87 79.7741V86.0441L138.57 218.544V212.264Z" fill="#333333"/>
<path d="M365.951 75.3441C364.671 74.5541 362.891 74.6341 360.951 75.7741L145.571 200.144C143.501 201.432 141.797 203.229 140.621 205.364L134.051 201.564C135.239 199.419 136.961 197.617 139.051 196.334L354.341 71.9441C356.341 70.8141 358.091 70.7341 359.341 71.5141C360.591 72.2941 364.691 74.6141 365.871 75.2941L365.951 75.3441Z" fill="#808080"/>
<path d="M343.471 90.6842C342.76 91.1474 342.169 91.772 341.745 92.507C341.321 93.242 341.076 94.0668 341.031 94.9142C341.031 96.4742 342.121 97.1042 343.471 96.3242C344.175 95.8565 344.759 95.23 345.175 94.4953C345.592 93.7605 345.831 92.938 345.871 92.0942C345.871 90.5342 344.871 89.9042 343.471 90.6842Z" fill="#FAFAFA"/>
<path d="M352.018 85.7542C351.307 86.2196 350.715 86.846 350.292 87.5826C349.868 88.3193 349.623 89.1455 349.578 89.9942C349.578 91.5542 350.668 92.1842 352.018 91.4042C352.723 90.9437 353.31 90.3252 353.734 89.5978C354.157 88.8705 354.405 88.0543 354.458 87.2142C354.458 85.6142 353.368 84.9842 352.018 85.7542Z" fill="#FAFAFA"/>
<path d="M360.569 80.8341C359.858 81.2973 359.266 81.9219 358.842 82.6569C358.418 83.392 358.174 84.2167 358.129 85.0641C358.129 86.6241 359.219 87.2541 360.569 86.4741C361.285 86.0084 361.881 85.3795 362.307 84.6389C362.732 83.8984 362.977 83.0673 363.019 82.2141C363.019 80.6841 361.919 80.0541 360.569 80.8341Z" fill="#FAFAFA"/>
<path d="M145.969 426.904C142.329 429.004 139.379 427.294 139.379 423.094V240.874L194.069 209.294V399.124L145.969 426.904Z" fill="#F5F5F5"/>
<path d="M140.18 241.344L193.26 210.684V398.684L146.37 425.744C143.02 427.674 140.18 426.044 140.18 422.164V241.344ZM138.57 240.414V424.034C138.57 428.494 141.7 430.304 145.57 428.034L194.87 399.594V207.884L138.57 240.414Z" fill="#E0E0E0"/>
<path d="M138.572 218.544L132.012 214.724V236.624L138.572 240.414V218.544Z" fill="#242424"/>
<path d="M159.64 241.034L183.97 226.974C184.87 226.454 185.6 226.874 185.6 227.914V230.034C185.566 230.598 185.4 231.147 185.118 231.637C184.835 232.126 184.442 232.543 183.97 232.854L159.64 246.914C158.74 247.434 158.02 247.014 158.02 245.974V243.854C158.052 243.29 158.215 242.742 158.496 242.252C158.777 241.763 159.169 241.346 159.64 241.034Z" fill="#E0E0E0"/>
<path d="M152.932 246.794V248.904C152.901 249.468 152.738 250.017 152.457 250.507C152.176 250.997 151.783 251.414 151.312 251.724L149.472 252.784C148.582 253.304 147.852 252.884 147.852 251.844V249.724C147.883 249.162 148.046 248.614 148.327 248.126C148.609 247.638 149.001 247.223 149.472 246.914L151.312 245.854C152.202 245.334 152.932 245.754 152.932 246.794Z" fill="#0084FF"/>
<path d="M159.64 252.734L183.97 238.674C184.87 238.154 185.6 238.574 185.6 239.614V241.734C185.566 242.297 185.402 242.845 185.118 243.333C184.835 243.821 184.442 244.236 183.97 244.544L159.64 258.614C158.74 259.124 158.02 258.704 158.02 257.674V255.554C158.05 254.99 158.213 254.441 158.494 253.951C158.775 253.461 159.168 253.045 159.64 252.734Z" fill="#E0E0E0"/>
<path d="M152.932 258.494V260.604C152.901 261.168 152.738 261.717 152.457 262.207C152.176 262.697 151.783 263.114 151.312 263.424L149.472 264.484C148.582 265.004 147.852 264.584 147.852 263.544V261.424C147.883 260.862 148.046 260.314 148.327 259.826C148.609 259.338 149.001 258.923 149.472 258.614L151.312 257.554C152.202 257.034 152.932 257.454 152.932 258.494Z" fill="#0084FF"/>
<path d="M159.64 264.434L183.97 250.374C184.87 249.854 185.6 250.274 185.6 251.314V253.434C185.562 253.992 185.395 254.534 185.112 255.016C184.829 255.499 184.438 255.909 183.97 256.214L159.64 270.314C158.74 270.824 158.02 270.404 158.02 269.374V267.214C158.056 266.657 158.222 266.116 158.503 265.634C158.784 265.151 159.173 264.741 159.64 264.434Z" fill="#E0E0E0"/>
<path d="M152.932 270.214V272.324C152.901 272.888 152.738 273.437 152.457 273.927C152.176 274.417 151.783 274.833 151.312 275.144L149.472 276.214C148.582 276.734 147.852 276.314 147.852 275.274V273.154C147.881 272.591 148.044 272.043 148.325 271.555C148.607 271.067 148.999 270.652 149.472 270.344L151.312 269.284C152.202 268.734 152.932 269.154 152.932 270.214Z" fill="#0084FF"/>
<path d="M159.448 275.177L183.778 261.177C184.678 260.657 185.408 261.077 185.408 262.117V264.177C185.376 264.742 185.211 265.291 184.928 265.781C184.645 266.271 184.251 266.687 183.778 266.997L159.448 281.057C158.548 281.577 157.828 281.157 157.828 280.117V278.007C157.857 277.441 158.019 276.89 158.3 276.399C158.582 275.907 158.975 275.489 159.448 275.177Z" fill="#E0E0E0"/>
<path d="M152.74 280.947V283.067C152.709 283.63 152.546 284.177 152.265 284.665C151.983 285.153 151.591 285.568 151.12 285.877L149.28 286.937C148.39 287.457 147.66 287.037 147.66 285.997V283.887C147.691 283.323 147.853 282.774 148.135 282.284C148.416 281.795 148.808 281.378 149.28 281.067L151.12 280.007C152.01 279.487 152.74 279.907 152.74 280.947Z" fill="#0084FF"/>
<path d="M215.725 314.472C210.59 314.472 207.017 310.451 207 304.684V298.386C207.128 295.184 208.032 292.062 209.636 289.288C211.24 286.514 213.495 284.172 216.207 282.465L343.97 208.662C345.622 207.625 347.522 207.051 349.471 207C354.606 207 358.196 211.038 358.196 216.805V223.153C358.068 226.355 357.164 229.477 355.56 232.251C353.956 235.025 351.701 237.366 348.989 239.074L221.226 312.877C219.567 313.89 217.668 314.441 215.725 314.472ZM349.471 209.393C347.94 209.43 346.445 209.865 345.134 210.656L217.37 284.459C215.002 285.956 213.033 288.005 211.632 290.431C210.231 292.857 209.44 295.587 209.327 298.386V304.684C209.327 309.154 211.902 312.146 215.725 312.146C217.257 312.117 218.754 311.681 220.062 310.883L347.843 237.08C350.22 235.589 352.199 233.542 353.609 231.116C355.019 228.69 355.817 225.957 355.936 223.153V216.871C355.936 212.401 353.293 209.393 349.471 209.393Z" fill="#E0E0E0"/>
<path d="M353.178 216.871C353.178 212.6 350.17 210.872 346.531 212.999L343.307 214.877L337.656 239.805L346.531 234.687C348.476 233.408 350.092 231.687 351.247 229.666C352.402 227.644 353.064 225.379 353.178 223.054V216.871Z" fill="#E0E0E0"/>
<path d="M305.615 236.615L299.965 261.609L316.052 252.303L321.702 227.325L305.615 236.615Z" fill="#E0E0E0"/>
<path d="M324.427 225.746L318.793 250.74L334.88 241.434L340.53 216.439L324.427 225.746Z" fill="#E0E0E0"/>
<path d="M218.718 286.802C216.775 288.084 215.161 289.805 214.006 291.826C212.852 293.847 212.188 296.111 212.07 298.435V304.734C212.07 308.988 215.078 310.717 218.718 308.589L222.041 306.711L227.692 281.784L218.718 286.802ZM230.351 280.155L224.7 305.083L240.787 295.793L246.438 270.865L230.351 280.155ZM286.854 247.549L281.22 272.477L297.307 263.187L302.957 238.26L286.854 247.549ZM249.146 269.22L243.513 294.148L259.55 284.925L265.2 259.997L249.146 269.22ZM267.975 258.351L262.325 283.279L278.412 274.006L284.062 249.078L267.975 258.351Z" fill="#0084FF"/>
<path d="M233.081 258.368V243.959L235.711 242.422V254.319L241.044 251.201V253.713L233.081 258.368ZM253.732 239.091C253.732 240.662 253.474 242.149 252.96 243.552C252.45 244.953 251.754 246.202 250.871 247.299C249.992 248.39 249.004 249.256 247.907 249.898C246.802 250.544 245.809 250.833 244.931 250.765C244.052 250.697 243.358 250.261 242.848 249.457C242.337 248.653 242.082 247.468 242.082 245.901C242.082 244.33 242.337 242.844 242.848 241.444C243.358 240.043 244.052 238.798 244.931 237.707C245.809 236.612 246.802 235.741 247.907 235.095C249.004 234.453 249.992 234.167 250.871 234.235C251.754 234.295 252.45 234.728 252.96 235.532C253.474 236.333 253.732 237.52 253.732 239.091ZM251.065 240.65C251.065 239.632 250.934 238.851 250.67 238.306C250.411 237.758 250.045 237.443 249.571 237.358C249.097 237.274 248.543 237.418 247.907 237.79C247.271 238.161 246.716 238.666 246.243 239.304C245.769 239.942 245.401 240.688 245.137 241.54C244.878 242.391 244.749 243.325 244.749 244.343C244.749 245.36 244.878 246.143 245.137 246.69C245.401 247.235 245.769 247.55 246.243 247.634C246.716 247.718 247.271 247.575 247.907 247.203C248.543 246.831 249.097 246.326 249.571 245.688C250.045 245.05 250.411 244.306 250.67 243.456C250.934 242.603 251.065 241.668 251.065 240.65ZM257.122 244.313L254.304 245.961L258.598 229.042L261.987 227.06L266.275 238.962L263.457 240.61L260.341 231.315L260.244 231.372L257.122 244.313ZM256.946 238.753L263.603 234.861V237.239L256.946 241.131V238.753ZM272.182 235.509L267.772 238.087V223.678L272.218 221.079C273.469 220.348 274.547 220.007 275.449 220.056C276.352 220.1 277.047 220.517 277.533 221.307C278.023 222.095 278.268 223.237 278.268 224.733C278.268 226.234 278.023 227.667 277.533 229.032C277.047 230.395 276.348 231.631 275.437 232.74C274.53 233.848 273.445 234.771 272.182 235.509ZM270.402 233.939L272.073 232.963C272.85 232.508 273.504 231.967 274.034 231.338C274.569 230.701 274.97 229.968 275.237 229.136C275.508 228.297 275.644 227.341 275.644 226.267C275.644 225.202 275.508 224.411 275.237 223.895C274.97 223.375 274.571 223.111 274.04 223.103C273.51 223.094 272.856 223.317 272.079 223.771L270.402 224.751V233.939ZM282.846 214.866V229.275L280.216 230.812V216.404L282.846 214.866ZM295.414 207.519V221.927L293.142 223.255L287.73 217.35L287.639 217.404V226.472L285.009 228.01V213.601L287.317 212.252L292.687 218.175L292.796 218.111V209.049L295.414 207.519ZM305.835 206.084C305.75 205.791 305.63 205.559 305.476 205.386C305.322 205.209 305.134 205.094 304.911 205.041C304.693 204.981 304.442 204.985 304.158 205.052C303.879 205.117 303.569 205.249 303.229 205.447C302.593 205.819 302.034 206.329 301.553 206.976C301.075 207.621 300.702 208.372 300.435 209.227C300.168 210.077 300.034 211.004 300.034 212.008C300.034 213.012 300.166 213.788 300.429 214.338C300.692 214.888 301.065 215.207 301.547 215.296C302.028 215.38 302.597 215.23 303.253 214.847C303.848 214.499 304.357 214.08 304.778 213.59C305.203 213.092 305.527 212.554 305.75 211.973C305.976 211.39 306.09 210.792 306.09 210.177L306.624 209.956L303.417 211.831V209.538L308.622 206.495V208.31C308.622 209.576 308.392 210.799 307.93 211.979C307.468 213.154 306.833 214.225 306.023 215.19C305.213 216.152 304.286 216.938 303.241 217.548C302.075 218.23 301.051 218.531 300.168 218.452C299.285 218.367 298.597 217.918 298.103 217.105C297.613 216.284 297.368 215.114 297.368 213.595C297.368 212.427 297.514 211.3 297.805 210.215C298.101 209.123 298.514 208.103 299.044 207.155C299.575 206.207 300.192 205.361 300.897 204.616C301.601 203.871 302.364 203.258 303.186 202.778C303.891 202.366 304.547 202.102 305.154 201.986C305.762 201.866 306.3 201.884 306.77 202.041C307.244 202.195 307.63 202.483 307.93 202.903C308.23 203.319 308.422 203.859 308.507 204.522L305.835 206.084Z" fill="#0083FD"/>
<path d="M324.867 188.63V191.793" stroke="#0084FF" stroke-width="2" stroke-linecap="round" stroke-linejoin="round"/>
<path opacity="0.4" d="M333.027 193.268L330.309 194.885" stroke="#0084FF" stroke-width="2" stroke-linecap="round" stroke-linejoin="round"/>
<path opacity="0.5" d="M330.641 201.397L328.719 200.304" stroke="#0084FF" stroke-width="2" stroke-linecap="round" stroke-linejoin="round"/>
<path opacity="0.6" d="M324.867 207.606V204.443" stroke="#0084FF" stroke-width="2" stroke-linecap="round" stroke-linejoin="round"/>
<path opacity="0.7" d="M319.109 208.258L321.031 204.878" stroke="#0084FF" stroke-width="2" stroke-linecap="round" stroke-linejoin="round"/>
<path opacity="0.8" d="M316.715 202.969L319.433 201.352" stroke="#0084FF" stroke-width="2" stroke-linecap="round" stroke-linejoin="round"/>
<path opacity="0.9" d="M319.109 194.84L321.031 195.933" stroke="#0084FF" stroke-width="2" stroke-linecap="round" stroke-linejoin="round"/>
</svg>
