<svg width="500" height="500" viewBox="0 0 500 500" fill="none" xmlns="http://www.w3.org/2000/svg">
<g opacity="0.05">
<circle cx="246.5" cy="249.5" r="153.5" fill="#0D0D0D"/>
<rect x="35" y="129" width="249" height="26" rx="13" fill="#0D0D0D"/>
<rect x="203" y="228" width="249" height="26" rx="13" fill="#0D0D0D"/>
<rect x="57" y="160" width="249" height="26" rx="13" fill="#0D0D0D"/>
<rect x="197" y="351" width="249" height="26" rx="13" fill="#0D0D0D"/>
<rect x="225" y="259" width="249" height="26" rx="13" fill="#0D0D0D"/>
<rect x="26" y="316" width="249" height="26" rx="13" fill="#0D0D0D"/>
</g>
<path d="M367.87 86.084L361.3 82.274L132.01 214.724V420.214C132.01 422.444 132.79 424.004 134.01 424.744L140.57 428.564C141.83 429.294 143.57 429.194 145.52 428.074L360.87 303.694C362.907 302.366 364.603 300.577 365.819 298.471C367.035 296.365 367.738 294.002 367.87 291.574V86.084Z" fill="#E6E6E6"/>
<path d="M142.44 428.214C143.404 428.167 144.341 427.875 145.16 427.364L360.51 302.994C362.427 301.741 364.023 300.054 365.167 298.07C366.312 296.087 366.974 293.861 367.1 291.574V87.4841L139.38 219.004V424.004C139.38 426.654 140.52 428.214 142.44 428.214Z" fill="#FAFAFA"/>
<path d="M199.838 217.878C201.368 216.983 202.254 215.366 202.254 213.548C202.254 211.739 201.368 211.165 199.89 212.03L198.212 213.011V218.829L199.838 217.878ZM198.97 217.619V213.335L199.843 212.824C200.942 212.182 201.508 212.612 201.508 213.984C201.508 215.362 200.942 216.466 199.796 217.135L198.97 217.619ZM204.234 215.405C204.857 215.041 205.207 214.469 205.347 214.061L205.376 214.044V214.64L206.093 214.222V211.324C206.093 210.054 205.229 210.306 204.631 210.656C203.949 211.054 203.321 211.74 203.076 212.678L203.765 212.457C203.873 212.085 204.148 211.626 204.641 211.337C205.114 211.061 205.357 211.206 205.357 211.7V211.72C205.357 212.03 205.082 212.184 204.405 212.671C203.692 213.185 202.961 213.828 202.961 214.82C202.961 215.678 203.517 215.824 204.234 215.405ZM204.393 214.63C203.979 214.872 203.679 214.831 203.679 214.411C203.679 213.956 204.028 213.591 204.452 213.277C204.69 213.101 205.254 212.698 205.359 212.514V213.076C205.359 213.594 205.004 214.273 204.393 214.63ZM209.892 208.702C209.74 208.112 209.282 207.937 208.467 208.413C207.616 208.91 207.013 209.783 207.013 210.556C207.013 211.175 207.337 211.398 208.043 211.167L208.681 210.956C209.044 210.837 209.213 210.926 209.213 211.199C209.213 211.537 208.901 211.983 208.421 212.264C207.982 212.521 207.7 212.467 207.611 212.089L206.903 212.629C207.025 213.33 207.579 213.44 208.426 212.946C209.336 212.414 209.966 211.486 209.966 210.696C209.966 210.079 209.627 209.897 208.936 210.116L208.337 210.307C207.923 210.436 207.744 210.378 207.746 210.082C207.744 209.748 208.058 209.326 208.475 209.082C208.931 208.815 209.142 208.985 209.228 209.227L209.892 208.702ZM211.505 208.466C211.505 207.77 211.886 207.15 212.408 206.845C212.913 206.55 213.215 206.745 213.215 207.385V210.058L213.948 209.629V206.854C213.948 205.766 213.433 205.51 212.658 205.963C212.072 206.306 211.719 206.807 211.542 207.382L211.496 207.41V205.245L210.772 205.668V211.486L211.505 211.057V208.466ZM214.986 209.023L215.702 208.604V207.925L215.763 207.889C215.895 208.09 216.165 208.418 216.852 208.017C217.764 207.483 218.426 206.25 218.426 204.838C218.426 203.423 217.754 202.983 216.845 203.515C216.146 203.924 215.893 204.566 215.763 204.912L215.719 204.938V202.776L214.986 203.204V209.023ZM215.704 206.421C215.704 205.509 216.048 204.703 216.688 204.329C217.352 203.94 217.686 204.396 217.686 205.262C217.686 206.137 217.342 207.006 216.688 207.388C216.057 207.757 215.704 207.338 215.704 206.421ZM220.837 205.69C221.899 205.069 222.593 203.763 222.593 202.413C222.593 201.056 221.899 200.561 220.837 201.182C219.775 201.802 219.081 203.109 219.081 204.467C219.081 205.816 219.775 206.311 220.837 205.69ZM220.839 204.976C220.145 205.381 219.821 204.869 219.821 204.031C219.821 203.196 220.145 202.296 220.839 201.89C221.528 201.487 221.852 202.008 221.852 202.844C221.852 203.682 221.528 204.573 220.839 204.976ZM224.508 203.553C225.131 203.188 225.481 202.617 225.621 202.208L225.65 202.191V202.788L226.367 202.369V199.471C226.367 198.202 225.503 198.453 224.905 198.803C224.223 199.202 223.595 199.887 223.35 200.826L224.039 200.605C224.147 200.232 224.422 199.773 224.915 199.485C225.388 199.208 225.631 199.353 225.631 199.848V199.867C225.631 200.177 225.356 200.332 224.679 200.819C223.966 201.332 223.235 201.976 223.235 202.967C223.235 203.825 223.791 203.971 224.508 203.553ZM224.667 202.778C224.253 203.02 223.953 202.979 223.953 202.558C223.953 202.104 224.302 201.738 224.726 201.425C224.964 201.249 225.528 200.845 225.633 200.661V201.224C225.633 201.741 225.278 202.421 224.667 202.778ZM227.343 201.798L228.077 201.369V198.705C228.077 198.134 228.457 197.499 228.977 197.195C229.129 197.107 229.3 197.037 229.359 197.023V196.21C229.286 196.242 229.141 196.318 229.048 196.373C228.606 196.631 228.229 197.141 228.091 197.69L228.052 197.713V197.02L227.343 197.434V201.798ZM231.269 199.588C231.956 199.187 232.226 198.543 232.358 198.187L232.42 198.152V198.831L233.136 198.412V192.594L232.402 193.022V195.184L232.358 195.21C232.226 195.018 231.976 194.67 231.274 195.08C230.364 195.612 229.695 196.835 229.695 198.25C229.695 199.662 230.354 200.123 231.269 199.588ZM231.431 198.769C230.776 199.152 230.435 198.684 230.435 197.809C230.435 196.942 230.769 196.097 231.431 195.709C232.071 195.335 232.415 195.74 232.415 196.652C232.415 197.569 232.064 198.399 231.431 198.769Z" fill="#242424"/>
<path d="M366.29 88.8841V291.574C366.158 293.718 365.531 295.802 364.457 297.662C363.382 299.523 361.891 301.108 360.1 302.294L144.76 426.674C144.062 427.113 143.264 427.368 142.44 427.414C140.44 427.414 140.18 425.054 140.18 424.034V219.474L366.29 88.8841ZM367.91 86.0841L138.57 218.544V424.034C138.57 427.204 140.14 429.034 142.44 429.034C143.553 428.98 144.632 428.635 145.57 428.034L360.87 303.694C362.908 302.366 364.603 300.577 365.819 298.471C367.036 296.365 367.738 294.002 367.87 291.574V86.0841H367.91Z" fill="#E0E0E0"/>
<path d="M138.57 218.544V240.414L367.9 107.954L367.91 86.0841L138.57 218.544Z" fill="#1A1A1A"/>
<path d="M171.064 205.39C170.227 205.835 169.523 206.582 169.259 206.887C168.524 207.728 168.103 208.578 167.333 210.126C167.032 210.732 166.743 211.366 166.171 212.632C165.979 213.05 165.882 213.273 165.798 213.461L165.792 213.472C165.708 213.66 165.636 213.821 165.491 214.134C164.889 215.452 164.456 216.407 164.287 216.672C163.842 217.375 163.186 218.031 162.614 218.337C161.507 218.937 159.9 218.725 159.894 216.777C159.888 215.164 160.965 213.168 162.344 212.238C162.969 211.816 163.565 211.649 164.077 211.748C164.155 211.759 164.203 211.822 164.215 211.913C164.227 212.004 164.203 212.123 164.149 212.238L162.332 215.946C162.073 216.472 162.103 217.008 162.392 217.164C162.554 217.246 162.771 217.212 162.994 217.071C163.216 216.922 163.421 216.679 163.553 216.407L166.003 211.413C166.225 210.957 166.231 210.498 166.015 210.287C165.208 209.497 163.932 209.487 162.59 210.256C160.231 211.609 158.317 214.938 158.317 217.674C158.317 219.066 158.829 220.06 159.762 220.477C160.55 220.829 161.603 220.729 162.566 220.205C162.596 220.188 162.632 220.167 162.663 220.15C163.589 219.619 164.606 218.595 165.317 217.474C165.63 216.98 165.985 216.195 166.773 214.47C166.917 214.149 166.996 213.971 167.08 213.79L167.086 213.773C167.17 213.584 167.267 213.368 167.453 212.96C168.007 211.74 168.284 211.127 168.56 210.569C169.222 209.231 169.529 208.614 169.945 208.138C170.035 208.038 170.492 207.53 171.004 207.258C172.117 206.669 173.73 206.884 173.73 208.829C173.73 210.558 172.52 212.658 171.034 213.51C170.643 213.734 170.234 213.829 170.234 213.829C169.523 213.977 169.06 213.697 168.795 213.436C168.657 213.299 168.446 213.287 168.217 213.397C167.989 213.507 167.766 213.732 167.598 214.025C167.327 214.495 167.297 215.037 167.537 215.27C167.941 215.661 168.651 216.08 169.758 215.851C169.782 215.844 170.384 215.716 171.028 215.347C173.387 213.994 175.301 210.665 175.301 207.929C175.307 204.798 172.839 204.449 171.064 205.39Z" fill="white"/>
<path d="M156.151 215.001C156.043 214.972 155.904 214.933 155.73 214.921C155.567 214.903 155.29 214.894 154.935 214.958C154.388 215.063 153.9 215.3 153.587 215.48C152.594 216.049 151.649 216.981 150.891 218.141V217.932C150.891 217.43 150.536 217.222 150.103 217.47C149.669 217.718 149.32 218.33 149.32 218.832V226.929C149.32 227.431 149.675 227.639 150.109 227.391C150.542 227.143 150.897 226.528 150.897 226.026V221.973C150.897 220.251 152.107 218.156 153.593 217.303C155.08 216.451 156.289 217.16 156.289 218.883V222.935C156.289 223.437 156.645 223.645 157.078 223.397C157.511 223.148 157.866 222.533 157.866 222.031V217.567C157.866 217.491 157.866 215.496 156.151 215.001Z" fill="white"/>
<path d="M293.01 138.394V142.894C293.01 143.814 293.66 144.194 294.46 143.734L352.33 110.294V102.434L294.46 135.874C294.037 136.15 293.685 136.523 293.433 136.961C293.181 137.398 293.036 137.89 293.01 138.394Z" fill="#FAFAFA"/>
<path d="M359.95 98.0341C360.75 97.5741 361.4 97.9541 361.4 98.8741V103.384C361.372 103.887 361.226 104.376 360.975 104.812C360.723 105.248 360.372 105.619 359.95 105.894L352.33 110.294V102.434L359.95 98.0341Z" fill="#808080"/>
<path d="M359.13 104.684L358.25 104.274C358.401 103.902 358.505 103.512 358.56 103.114C358.654 102.749 358.65 102.366 358.551 102.003C358.451 101.64 358.257 101.309 357.99 101.044C357.8 100.901 357.574 100.813 357.337 100.792C357.1 100.771 356.862 100.817 356.65 100.924C356.007 101.289 355.458 101.801 355.05 102.418C354.642 103.035 354.385 103.739 354.3 104.474C354.208 104.838 354.211 105.22 354.309 105.582C354.407 105.945 354.597 106.276 354.86 106.544C355.023 106.671 355.216 106.753 355.42 106.784C355.689 106.811 355.961 106.77 356.21 106.664C356.97 106.279 357.584 105.658 357.96 104.894L358.84 105.304H358.94C359.023 105.32 359.11 105.305 359.182 105.261C359.255 105.217 359.308 105.147 359.332 105.066C359.356 104.984 359.348 104.897 359.311 104.821C359.273 104.745 359.209 104.685 359.13 104.654V104.684ZM355.95 106.034C355.849 106.095 355.733 106.127 355.615 106.127C355.497 106.127 355.381 106.095 355.28 106.034C355.121 105.836 355.011 105.604 354.959 105.355C354.906 105.107 354.914 104.849 354.98 104.604C355.056 103.991 355.27 103.404 355.604 102.884C355.938 102.365 356.384 101.928 356.91 101.604C357.045 101.544 357.193 101.52 357.34 101.534C357.425 101.542 357.506 101.577 357.57 101.634C357.722 101.826 357.829 102.05 357.881 102.289C357.933 102.528 357.929 102.776 357.87 103.014C357.796 103.629 357.585 104.219 357.252 104.742C356.92 105.264 356.475 105.706 355.95 106.034Z" fill="#FAFAFA"/>
<path d="M359.36 71.5141C358.09 70.7341 356.31 70.8141 354.36 71.9541L139 196.334C136.962 197.661 135.266 199.451 134.05 201.557C132.834 203.663 132.131 206.026 132 208.454V214.724L138.56 218.544L367.87 86.0841V79.8141C367.87 77.5941 367.09 76.0341 365.87 75.3041C364.65 74.5741 360.5 72.2141 359.36 71.5141Z" fill="#404040"/>
<path d="M138.57 212.264C138.702 209.836 139.404 207.472 140.62 205.367C141.837 203.261 143.532 201.471 145.57 200.144L360.87 75.7741C364.73 73.5441 367.87 75.3541 367.87 79.7741V86.0441L138.57 218.544V212.264Z" fill="#333333"/>
<path d="M365.95 75.3441C364.67 74.5541 362.89 74.6341 360.95 75.7741L145.57 200.144C143.5 201.432 141.796 203.229 140.62 205.364L134.05 201.564C135.238 199.419 136.96 197.617 139.05 196.334L354.34 71.9441C356.34 70.8141 358.09 70.7341 359.34 71.5141C360.59 72.2941 364.69 74.6141 365.87 75.2941L365.95 75.3441Z" fill="#808080"/>
<path d="M343.47 90.6841C342.759 91.1473 342.168 91.7718 341.744 92.5069C341.32 93.2419 341.075 94.0667 341.03 94.9141C341.03 96.4741 342.12 97.1041 343.47 96.3241C344.174 95.8564 344.758 95.2299 345.174 94.4951C345.591 93.7604 345.83 92.9379 345.87 92.0941C345.87 90.5341 344.87 89.9041 343.47 90.6841Z" fill="#FAFAFA"/>
<path d="M352.02 85.7541C351.309 86.2195 350.717 86.8459 350.293 87.5825C349.87 88.3192 349.625 89.1453 349.58 89.9941C349.58 91.5541 350.67 92.1841 352.02 91.4041C352.725 90.9436 353.312 90.3251 353.736 89.5977C354.159 88.8703 354.407 88.0541 354.46 87.2141C354.46 85.6141 353.37 84.9841 352.02 85.7541Z" fill="#FAFAFA"/>
<path d="M360.57 80.8341C359.859 81.2973 359.267 81.9219 358.843 82.6569C358.419 83.392 358.175 84.2167 358.13 85.0641C358.13 86.6241 359.22 87.2541 360.57 86.4741C361.286 86.0084 361.882 85.3795 362.308 84.6389C362.733 83.8984 362.978 83.0673 363.02 82.2141C363.02 80.6841 361.92 80.0541 360.57 80.8341Z" fill="#FAFAFA"/>
<path d="M145.97 426.904C142.33 429.004 139.38 427.294 139.38 423.094V240.874L194.07 209.294V399.124L145.97 426.904Z" fill="#F5F5F5"/>
<path d="M140.18 241.344L193.26 210.684V398.684L146.37 425.744C143.02 427.674 140.18 426.044 140.18 422.164V241.344ZM138.57 240.414V424.034C138.57 428.494 141.7 430.304 145.57 428.034L194.87 399.594V207.884L138.57 240.414Z" fill="#E0E0E0"/>
<path d="M138.57 218.544L132.01 214.724V236.624L138.57 240.414V218.544Z" fill="#242424"/>
<path d="M159.64 241.034L183.97 226.974C184.87 226.454 185.6 226.874 185.6 227.914V230.034C185.566 230.598 185.4 231.147 185.118 231.637C184.835 232.126 184.442 232.543 183.97 232.854L159.64 246.914C158.74 247.434 158.02 247.014 158.02 245.974V243.854C158.052 243.29 158.215 242.742 158.496 242.252C158.777 241.763 159.169 241.346 159.64 241.034Z" fill="#E0E0E0"/>
<path d="M152.93 246.794V248.904C152.899 249.468 152.737 250.017 152.455 250.507C152.174 250.997 151.781 251.414 151.31 251.724L149.47 252.784C148.58 253.304 147.85 252.884 147.85 251.844V249.724C147.881 249.162 148.044 248.614 148.325 248.126C148.607 247.638 148.999 247.223 149.47 246.914L151.31 245.854C152.2 245.334 152.93 245.754 152.93 246.794Z" fill="#0084FF"/>
<path d="M159.64 252.734L183.97 238.674C184.87 238.154 185.6 238.574 185.6 239.614V241.734C185.566 242.297 185.402 242.845 185.118 243.333C184.835 243.821 184.442 244.236 183.97 244.544L159.64 258.614C158.74 259.124 158.02 258.704 158.02 257.674V255.554C158.05 254.99 158.213 254.441 158.494 253.951C158.775 253.461 159.168 253.045 159.64 252.734Z" fill="#E0E0E0"/>
<path d="M152.93 258.494V260.604C152.899 261.168 152.737 261.717 152.455 262.207C152.174 262.697 151.781 263.114 151.31 263.424L149.47 264.484C148.58 265.004 147.85 264.584 147.85 263.544V261.424C147.881 260.862 148.044 260.314 148.325 259.826C148.607 259.338 148.999 258.923 149.47 258.614L151.31 257.554C152.2 257.034 152.93 257.454 152.93 258.494Z" fill="#0084FF"/>
<path d="M159.64 264.434L183.97 250.374C184.87 249.854 185.6 250.274 185.6 251.314V253.434C185.562 253.992 185.395 254.534 185.112 255.016C184.829 255.499 184.438 255.909 183.97 256.214L159.64 270.314C158.74 270.824 158.02 270.404 158.02 269.374V267.214C158.056 266.657 158.222 266.116 158.503 265.634C158.784 265.151 159.173 264.741 159.64 264.434Z" fill="#E0E0E0"/>
<path d="M152.93 270.214V272.324C152.899 272.888 152.737 273.437 152.455 273.927C152.174 274.417 151.781 274.833 151.31 275.144L149.47 276.214C148.58 276.734 147.85 276.314 147.85 275.274V273.154C147.879 272.591 148.042 272.043 148.323 271.555C148.605 271.067 148.997 270.652 149.47 270.344L151.31 269.284C152.2 268.734 152.93 269.154 152.93 270.214Z" fill="#0084FF"/>
<path d="M159.45 275.177L183.78 261.177C184.68 260.657 185.41 261.077 185.41 262.117V264.177C185.378 264.742 185.213 265.291 184.93 265.781C184.647 266.271 184.253 266.687 183.78 266.997L159.45 281.057C158.55 281.577 157.83 281.157 157.83 280.117V278.007C157.859 277.441 158.021 276.89 158.302 276.399C158.584 275.907 158.977 275.489 159.45 275.177Z" fill="#E0E0E0"/>
<path d="M152.74 280.947V283.067C152.709 283.63 152.546 284.177 152.265 284.665C151.983 285.153 151.591 285.568 151.12 285.877L149.28 286.937C148.39 287.457 147.66 287.037 147.66 285.997V283.887C147.691 283.323 147.853 282.774 148.135 282.284C148.416 281.795 148.808 281.378 149.28 281.067L151.12 280.007C152.01 279.487 152.74 279.907 152.74 280.947Z" fill="#0084FF"/>
<path d="M198.825 246.602L276.862 201.555C277.198 201.336 277.478 201.04 277.678 200.693C277.879 200.346 277.995 199.956 278.017 199.556V179.662C278.017 178.924 277.493 178.593 276.862 178.999L198.825 224.036C198.487 224.253 198.205 224.548 198.002 224.895C197.8 225.243 197.683 225.633 197.66 226.035V245.94C197.66 246.677 198.184 246.977 198.825 246.602Z" fill="#F0F0F0"/>
<path d="M205.624 232.567L206.137 230.429L205.432 230.835C205.432 230.835 205.432 230.835 205.432 230.771V230.386C205.426 230.361 205.426 230.336 205.432 230.311C205.432 230.311 205.432 230.311 205.432 230.247L206.565 229.595C206.571 229.616 206.571 229.638 206.565 229.659V230.001C206.569 230.069 206.569 230.136 206.565 230.204L206.052 232.342C206.053 232.367 206.053 232.392 206.052 232.417C206.056 232.434 206.056 232.453 206.052 232.47L205.71 232.663C205.697 232.663 205.685 232.66 205.674 232.655C205.663 232.65 205.653 232.643 205.645 232.634C205.637 232.625 205.631 232.614 205.627 232.603C205.624 232.591 205.623 232.579 205.624 232.567Z" fill="#455A64"/>
<path d="M207.569 228.985C207.659 228.919 207.768 228.885 207.879 228.889C207.959 228.89 208.035 228.921 208.093 228.975C208.153 229.045 208.194 229.129 208.211 229.22C208.223 229.338 208.223 229.456 208.211 229.573V230.225C208.22 230.36 208.22 230.496 208.211 230.631C208.186 230.764 208.147 230.893 208.093 231.016C208.032 231.136 207.961 231.251 207.879 231.358C207.788 231.458 207.684 231.544 207.569 231.615C207.476 231.673 207.369 231.706 207.259 231.711C207.183 231.701 207.112 231.668 207.056 231.615C206.989 231.549 206.944 231.462 206.928 231.369C206.916 231.252 206.916 231.134 206.928 231.016V230.375C206.917 230.24 206.917 230.104 206.928 229.969C206.949 229.831 206.993 229.697 207.056 229.573C207.111 229.455 207.179 229.344 207.259 229.242C207.347 229.139 207.452 229.052 207.569 228.985ZM207.826 230.46V229.84C207.831 229.787 207.831 229.733 207.826 229.68C207.832 229.645 207.832 229.609 207.826 229.573C207.814 229.567 207.801 229.565 207.788 229.565C207.775 229.565 207.763 229.567 207.751 229.573H207.633C207.589 229.603 207.55 229.639 207.516 229.68C207.485 229.719 207.459 229.762 207.441 229.808C207.436 229.862 207.436 229.915 207.441 229.969C207.441 229.969 207.441 230.086 207.441 230.15V230.76C207.441 230.824 207.441 230.877 207.441 230.92C207.433 230.955 207.433 230.992 207.441 231.027C207.465 231.036 207.492 231.036 207.516 231.027C207.554 231.04 207.595 231.04 207.633 231.027C207.68 231 207.72 230.963 207.751 230.92C207.786 230.884 207.812 230.84 207.826 230.792C207.835 230.739 207.835 230.684 207.826 230.631C207.814 230.569 207.796 230.508 207.772 230.45L207.826 230.46Z" fill="#455A64"/>
<path d="M209.163 228.836V228.558C209.169 228.501 209.169 228.443 209.163 228.387L209.099 228.258C209.061 228.243 209.019 228.243 208.981 228.258C208.929 228.242 208.873 228.242 208.821 228.258C208.759 228.289 208.704 228.332 208.661 228.387C208.612 228.44 208.572 228.502 208.543 228.568C208.51 228.632 208.489 228.701 208.479 228.771C208.468 228.842 208.468 228.914 208.479 228.985V229.263C208.467 229.327 208.467 229.392 208.479 229.456C208.484 229.501 208.507 229.544 208.543 229.573C208.562 229.581 208.582 229.585 208.602 229.585C208.622 229.585 208.642 229.581 208.661 229.573C208.713 229.584 208.768 229.584 208.821 229.573C208.881 229.535 208.935 229.489 208.981 229.434C209.026 229.381 209.066 229.324 209.099 229.263C209.13 229.199 209.151 229.13 209.163 229.06C209.168 228.985 209.168 228.91 209.163 228.836Z" fill="#455A64"/>
<path d="M209.751 227.713V227.788L208.575 230.877L208.767 230.77C208.79 230.758 208.809 230.74 208.821 230.717V230.653L209.997 227.595L209.804 227.713C209.787 227.709 209.768 227.709 209.751 227.713Z" fill="#455A64"/>
<path d="M205.613 226.441L204.833 225.233C203.932 226.778 203.306 228.467 202.983 230.225L204.245 230.118C204.49 228.824 204.953 227.581 205.613 226.441Z" fill="#455A64"/>
<path d="M207.826 224.046V222.005C206.572 222.801 205.541 223.905 204.833 225.212L205.613 226.42C206.14 225.455 206.901 224.639 207.826 224.046Z" fill="#455A64"/>
<path d="M204.063 232.021C204.066 231.383 204.127 230.746 204.245 230.118L202.984 230.225C202.814 231.07 202.728 231.929 202.727 232.791C202.718 233.558 202.804 234.322 202.984 235.068L204.245 233.7C204.12 233.149 204.059 232.586 204.063 232.021Z" fill="#455A64"/>
<path d="M212.669 224.624C212.572 224.047 212.358 223.496 212.04 223.005C211.722 222.514 211.306 222.094 210.819 221.77C210.343 221.543 209.816 221.445 209.291 221.486C208.766 221.528 208.26 221.706 207.826 222.005V224.047C208.148 223.828 208.523 223.699 208.911 223.671C209.299 223.643 209.688 223.717 210.039 223.886C210.403 224.127 210.714 224.442 210.949 224.81C211.185 225.179 211.341 225.592 211.407 226.024C211.533 226.575 211.594 227.138 211.589 227.703C211.587 228.341 211.526 228.978 211.407 229.605C211.157 230.898 210.695 232.141 210.039 233.283C209.509 234.251 208.749 235.073 207.826 235.677C207.504 235.897 207.13 236.028 206.741 236.056C206.352 236.085 205.963 236.009 205.613 235.838C205.247 235.598 204.936 235.284 204.7 234.915C204.464 234.547 204.309 234.132 204.245 233.7L202.983 235.068C203.074 235.647 203.286 236.2 203.605 236.692C203.923 237.183 204.342 237.603 204.833 237.922C205.308 238.152 205.835 238.252 206.361 238.21C206.887 238.169 207.393 237.988 207.826 237.687C209.076 236.884 210.104 235.782 210.819 234.48C211.715 232.937 212.341 231.252 212.669 229.498C212.83 228.649 212.912 227.787 212.914 226.922C212.923 226.149 212.84 225.378 212.669 224.624Z" fill="#0084FF"/>
<path d="M211.289 364.198C210.741 365.171 210.399 366.246 210.283 367.357C210.181 368.341 210.258 369.335 210.511 370.29C210.576 370.535 210.668 370.772 210.792 370.992C211.222 371.755 211.822 372.41 212.548 372.907C213.143 373.314 213.807 373.604 214.505 373.764C215.024 373.884 215.546 373.645 215.88 373.23L216.401 372.584C216.993 371.85 216.505 370.655 215.73 370.117C215.119 369.694 214.631 369.117 214.313 368.445C214.06 367.65 213.976 366.811 214.067 365.981C214.159 365.152 214.422 364.35 214.842 363.629C215.315 362.661 215.899 361.751 216.583 360.918C217.351 359.972 218.205 359.098 219.133 358.308C221.054 356.687 223.23 355.395 225.573 354.484C227.52 353.681 229.635 353.37 231.731 353.578C232.472 353.637 233.185 353.891 233.797 354.315C234.408 354.739 234.896 355.318 235.21 355.992C235.467 356.787 235.553 357.627 235.461 358.457C235.352 359.454 236.158 360.589 237.15 360.442L237.535 360.385C237.952 360.323 238.325 360.077 238.504 359.696C238.883 358.888 239.125 358.021 239.218 357.13C239.334 356.018 239.215 354.893 238.868 353.83C238.438 352.919 237.774 352.139 236.942 351.57C236.111 351.001 235.144 350.664 234.139 350.592C231.321 350.288 228.471 350.693 225.849 351.77C222.668 352.988 219.72 354.742 217.131 356.955C215.874 358.024 214.718 359.207 213.678 360.489C212.739 361.627 211.937 362.872 211.289 364.198Z" fill="#0084FF"/>
<path d="M220.536 219.022L244.268 205.317C244.909 204.943 245.433 205.211 245.433 205.895C245.404 206.285 245.284 206.662 245.081 206.997C244.879 207.331 244.6 207.613 244.268 207.819L220.536 221.502C219.895 221.876 219.371 221.609 219.371 220.925C219.403 220.539 219.525 220.165 219.728 219.835C219.93 219.505 220.207 219.226 220.536 219.022Z" fill="#455A64"/>
<path d="M220.536 224.078L261.639 200.347C262.281 199.973 262.794 200.24 262.794 200.935C262.766 201.322 262.647 201.698 262.447 202.03C262.246 202.363 261.969 202.643 261.639 202.848L220.536 226.58C219.895 226.954 219.371 226.687 219.371 225.992C219.401 225.604 219.522 225.228 219.724 224.895C219.927 224.563 220.205 224.283 220.536 224.078Z" fill="#E0E0E0"/>
<path d="M283.469 197.717L361.506 152.67C361.843 152.449 362.122 152.152 362.323 151.802C362.524 151.453 362.639 151.062 362.66 150.66V130.766C362.66 130.028 362.147 129.697 361.506 130.103L283.469 175.14C283.132 175.361 282.852 175.658 282.652 176.007C282.451 176.356 282.336 176.747 282.314 177.15V197.044C282.336 197.781 282.849 198.081 283.469 197.717Z" fill="#F0F0F0"/>
<path d="M290.674 181.853C290.674 181.712 290.696 181.571 290.738 181.436C290.77 181.305 290.821 181.179 290.888 181.062C290.95 180.95 291.025 180.846 291.112 180.752C291.189 180.672 291.276 180.6 291.369 180.538C291.45 180.499 291.536 180.47 291.625 180.453C291.704 180.447 291.782 180.466 291.85 180.506C291.919 180.555 291.975 180.621 292.01 180.699C292.048 180.812 292.066 180.932 292.064 181.051C292.069 181.119 292.069 181.187 292.064 181.254C292.069 181.319 292.069 181.383 292.064 181.447C292.051 181.509 292.033 181.57 292.01 181.629L291.946 181.8L291.497 183.018C291.492 183.039 291.492 183.061 291.497 183.082C291.485 183.105 291.466 183.124 291.444 183.136L291.069 183.35C291.066 183.341 291.064 183.332 291.064 183.323C291.064 183.314 291.066 183.305 291.069 183.296L291.379 182.473C291.305 182.489 291.229 182.489 291.155 182.473C291.087 182.471 291.023 182.445 290.973 182.398C290.914 182.347 290.87 182.28 290.845 182.206C290.763 182.102 290.704 181.982 290.674 181.853ZM291.625 181.308C291.632 181.265 291.632 181.222 291.625 181.18C291.621 181.166 291.614 181.153 291.605 181.142C291.596 181.131 291.585 181.122 291.572 181.116H291.486C291.455 181.106 291.421 181.106 291.39 181.116L291.294 181.19L291.219 181.308C291.191 181.351 291.17 181.398 291.155 181.447C291.15 181.493 291.15 181.54 291.155 181.586C291.148 181.628 291.148 181.672 291.155 181.714C291.155 181.714 291.155 181.768 291.219 181.778H291.294C291.325 181.787 291.359 181.787 291.39 181.778C291.427 181.756 291.46 181.727 291.486 181.693C291.52 181.662 291.549 181.626 291.572 181.586C291.596 181.542 291.614 181.495 291.625 181.447C291.63 181.401 291.63 181.354 291.625 181.308Z" fill="#455A64"/>
<path d="M292.961 179.63C293.047 179.564 293.152 179.53 293.26 179.533C293.3 179.533 293.339 179.54 293.376 179.555C293.412 179.569 293.446 179.591 293.474 179.619C293.533 179.691 293.577 179.775 293.602 179.865C293.619 179.982 293.619 180.101 293.602 180.218C293.602 180.324 293.602 180.431 293.602 180.538C293.602 180.645 293.602 180.763 293.602 180.87C293.617 181.005 293.617 181.141 293.602 181.276C293.569 181.407 293.526 181.536 293.474 181.661C293.417 181.783 293.345 181.898 293.26 182.003C293.173 182.102 293.072 182.188 292.961 182.259C292.867 182.316 292.76 182.349 292.651 182.356C292.571 182.348 292.496 182.314 292.437 182.259C292.375 182.189 292.331 182.104 292.309 182.013C292.297 181.9 292.297 181.785 292.309 181.671C292.309 181.565 292.309 181.458 292.309 181.351C292.309 181.244 292.309 181.126 292.309 181.019C292.298 180.884 292.298 180.748 292.309 180.613C292.34 180.478 292.383 180.346 292.437 180.218C292.492 180.097 292.564 179.986 292.651 179.886C292.737 179.782 292.842 179.695 292.961 179.63ZM293.207 181.105C293.217 180.898 293.217 180.691 293.207 180.485C293.212 180.435 293.212 180.385 293.207 180.335C293.214 180.296 293.214 180.256 293.207 180.218C293.182 180.209 293.156 180.209 293.132 180.218H293.014C292.968 180.245 292.928 180.281 292.897 180.324C292.864 180.365 292.836 180.408 292.811 180.453C292.811 180.453 292.811 180.56 292.811 180.613C292.811 180.667 292.811 180.731 292.811 180.795C292.8 180.998 292.8 181.201 292.811 181.404C292.811 181.468 292.811 181.522 292.811 181.565C292.808 181.6 292.808 181.636 292.811 181.671C292.824 181.678 292.839 181.681 292.854 181.681C292.869 181.681 292.883 181.678 292.897 181.671C292.897 181.671 292.961 181.671 293.014 181.671L293.132 181.575C293.163 181.533 293.188 181.486 293.207 181.436C293.211 181.383 293.211 181.329 293.207 181.276C293.212 181.219 293.212 181.162 293.207 181.105Z" fill="#455A64"/>
<path d="M294.597 179.213C294.608 179.305 294.608 179.398 294.597 179.491C294.602 179.565 294.602 179.64 294.597 179.715C294.577 179.784 294.552 179.852 294.522 179.918C294.493 179.979 294.457 180.036 294.415 180.089C294.366 180.144 294.308 180.191 294.244 180.228C294.197 180.26 294.141 180.278 294.084 180.282C294.049 180.294 294.012 180.294 293.977 180.282C293.944 180.244 293.918 180.201 293.902 180.153C293.896 180.089 293.896 180.025 293.902 179.961C293.897 179.918 293.897 179.875 293.902 179.833C293.897 179.783 293.897 179.733 293.902 179.683C293.897 179.612 293.897 179.54 293.902 179.469C293.921 179.399 293.946 179.331 293.977 179.266C294.002 179.2 294.038 179.138 294.084 179.084C294.132 179.035 294.186 178.992 294.244 178.956C294.301 178.944 294.359 178.944 294.415 178.956C294.432 178.949 294.451 178.945 294.469 178.945C294.487 178.945 294.505 178.949 294.522 178.956C294.556 178.993 294.581 179.037 294.597 179.084C294.6 179.127 294.6 179.17 294.597 179.213ZM295.196 178.443V178.368H295.249L295.442 178.25L294.276 181.308C294.278 181.329 294.278 181.351 294.276 181.372V181.425L294.084 181.532L295.196 178.443ZM294.127 179.747C294.127 179.811 294.127 179.854 294.127 179.875C294.127 179.897 294.127 179.875 294.191 179.875C294.21 179.87 294.227 179.859 294.241 179.843C294.254 179.828 294.263 179.81 294.266 179.79V179.63V179.394C294.271 179.352 294.271 179.309 294.266 179.266C294.266 179.266 294.266 179.266 294.191 179.266C294.158 179.289 294.135 179.323 294.127 179.362C294.118 179.412 294.118 179.462 294.127 179.512V179.747ZM295.698 179.854C295.709 179.946 295.709 180.04 295.698 180.132C295.703 180.207 295.703 180.282 295.698 180.356C295.678 180.426 295.653 180.494 295.623 180.56C295.594 180.623 295.554 180.681 295.506 180.731C295.466 180.791 295.411 180.839 295.345 180.87C295.293 180.883 295.238 180.883 295.185 180.87C295.168 180.877 295.15 180.881 295.132 180.881C295.113 180.881 295.095 180.877 295.078 180.87C295.045 180.832 295.019 180.789 295.003 180.741C294.997 180.681 294.997 180.62 295.003 180.56C294.989 180.467 294.989 180.374 295.003 180.282C294.998 180.207 294.998 180.132 295.003 180.057C295.022 179.987 295.047 179.919 295.078 179.854C295.101 179.79 295.137 179.732 295.185 179.683C295.23 179.628 295.284 179.581 295.345 179.544C295.398 179.533 295.453 179.533 295.506 179.544C295.524 179.536 295.544 179.532 295.565 179.532C295.585 179.532 295.605 179.536 295.623 179.544C295.657 179.581 295.682 179.625 295.698 179.672C295.702 179.719 295.702 179.765 295.698 179.811V179.854ZM295.228 180.388C295.228 180.453 295.228 180.495 295.228 180.517C295.228 180.538 295.228 180.517 295.292 180.517C295.311 180.511 295.328 180.5 295.342 180.485C295.355 180.47 295.364 180.451 295.367 180.431C295.374 180.378 295.374 180.324 295.367 180.271C295.378 180.193 295.378 180.114 295.367 180.036C295.376 179.993 295.376 179.95 295.367 179.907C295.367 179.907 295.367 179.907 295.292 179.907C295.259 179.93 295.237 179.965 295.228 180.004C295.219 180.053 295.219 180.104 295.228 180.153V180.388Z" fill="#455A64"/>
<path d="M293.196 174.744V172.703C291.942 173.499 290.911 174.603 290.203 175.91L290.984 177.117C291.51 176.153 292.271 175.337 293.196 174.744Z" fill="#455A64"/>
<path d="M298.039 175.321C297.946 174.743 297.734 174.191 297.416 173.699C297.097 173.208 296.68 172.788 296.19 172.467C295.715 172.237 295.188 172.138 294.661 172.179C294.135 172.22 293.63 172.401 293.197 172.702V174.744C293.518 174.524 293.893 174.393 294.281 174.365C294.67 174.337 295.06 174.412 295.41 174.584C295.774 174.825 296.084 175.14 296.32 175.508C296.556 175.876 296.712 176.29 296.778 176.722C296.903 177.272 296.964 177.836 296.96 178.4C296.957 179.039 296.896 179.676 296.778 180.303C296.533 181.597 296.07 182.841 295.41 183.98C294.88 184.948 294.12 185.771 293.197 186.375C292.875 186.595 292.501 186.726 292.112 186.754C291.723 186.782 291.334 186.707 290.984 186.535C290.618 186.296 290.307 185.981 290.071 185.613C289.835 185.244 289.68 184.83 289.616 184.397C289.49 183.847 289.429 183.284 289.434 182.719C289.436 182.08 289.497 181.444 289.616 180.816C289.851 179.524 290.303 178.281 290.952 177.139L290.171 175.931C289.272 177.472 288.647 179.158 288.322 180.912C288.158 181.761 288.072 182.624 288.066 183.489C288.062 184.255 288.148 185.019 288.322 185.766C288.413 186.344 288.625 186.898 288.943 187.389C289.262 187.881 289.68 188.3 290.171 188.62C290.646 188.85 291.174 188.949 291.7 188.908C292.226 188.867 292.732 188.686 293.165 188.385C294.417 187.585 295.447 186.482 296.158 185.178C297.052 183.634 297.678 181.95 298.007 180.196C298.167 179.347 298.25 178.484 298.253 177.62C298.272 176.848 298.2 176.077 298.039 175.321Z" fill="#0084FF"/>
<path d="M305.917 169.72L329.66 156.005C330.29 155.641 330.814 155.898 330.814 156.593C330.786 156.981 330.666 157.358 330.466 157.692C330.265 158.026 329.989 158.309 329.66 158.517L305.917 172.221C305.276 172.596 304.763 172.328 304.763 171.633C304.79 171.246 304.909 170.871 305.11 170.538C305.311 170.205 305.587 169.925 305.917 169.72Z" fill="#455A64"/>
<path d="M305.917 174.766L347.02 151.045C347.662 150.67 348.185 150.938 348.185 151.632C348.156 152.021 348.035 152.396 347.832 152.729C347.63 153.062 347.352 153.342 347.02 153.546L305.917 177.278C305.276 177.641 304.763 177.385 304.763 176.69C304.79 176.301 304.909 175.924 305.11 175.59C305.31 175.255 305.587 174.973 305.917 174.766Z" fill="#E0E0E0"/>
<path d="M206.768 252.065L223.423 242.444C224.064 242.07 224.577 242.337 224.577 243.021C224.551 243.41 224.432 243.788 224.231 244.122C224.031 244.456 223.754 244.739 223.423 244.945L206.768 254.566C206.126 254.941 205.613 254.673 205.613 253.978C205.641 253.591 205.76 253.216 205.961 252.883C206.161 252.55 206.438 252.27 206.768 252.065Z" fill="#455A64"/>
<path d="M361.602 168.897V296.108C361.581 296.32 361.515 296.525 361.408 296.71C361.301 296.894 361.156 297.053 360.982 297.177L198.729 390.821V263.61C198.754 263.398 198.823 263.193 198.932 263.009C199.041 262.825 199.186 262.666 199.36 262.541L201.38 261.376C201.881 261.063 202.297 260.633 202.593 260.122C202.89 259.612 203.057 259.037 203.08 258.447V251.113C203.101 250.901 203.167 250.696 203.274 250.511C203.381 250.327 203.526 250.168 203.7 250.044L226.993 236.596V243.438C226.973 243.676 227.002 243.917 227.078 244.143C227.154 244.37 227.276 244.579 227.437 244.756C227.597 244.934 227.793 245.076 228.011 245.175C228.229 245.274 228.465 245.327 228.704 245.33C229.08 245.326 229.449 245.223 229.773 245.031L361.623 168.907L361.602 168.897ZM362.029 167.55C361.848 167.559 361.671 167.614 361.516 167.71L229.217 244.09C229.062 244.186 228.886 244.242 228.704 244.25C228.319 244.25 228.062 243.94 228.062 243.427V236.062C228.062 235.538 227.795 235.239 227.421 235.239C227.239 235.248 227.063 235.303 226.908 235.399L203.166 249.104C202.829 249.325 202.549 249.622 202.348 249.971C202.148 250.32 202.032 250.711 202.011 251.113V258.468C201.989 258.87 201.871 259.26 201.669 259.608C201.466 259.955 201.184 260.25 200.846 260.467L198.825 261.643C198.487 261.86 198.205 262.155 198.002 262.502C197.8 262.85 197.683 263.241 197.66 263.642V391.334C197.66 391.858 197.927 392.168 198.302 392.168C198.487 392.161 198.668 392.106 198.825 392.008L361.506 298.075C361.842 297.856 362.122 297.561 362.323 297.214C362.523 296.866 362.639 296.476 362.66 296.076V168.373C362.66 167.849 362.404 167.55 362.019 167.55H362.029Z" fill="#E0E0E0"/>
<path d="M208.125 269.19C207.927 269.194 207.732 269.146 207.558 269.051C207.358 268.92 207.197 268.738 207.09 268.524C206.983 268.31 206.934 268.072 206.949 267.833V262.99C206.972 262.494 207.115 262.011 207.364 261.581C207.613 261.151 207.962 260.788 208.381 260.521L221.284 253.038C221.481 252.905 221.709 252.828 221.946 252.813C222.183 252.797 222.419 252.846 222.631 252.952C222.831 253.084 222.993 253.266 223.1 253.48C223.207 253.694 223.255 253.932 223.24 254.171V259.014C223.217 259.51 223.075 259.993 222.825 260.423C222.576 260.853 222.227 261.216 221.808 261.483L208.916 268.966C208.676 269.107 208.403 269.185 208.125 269.19ZM208.916 261.451C208.657 261.62 208.441 261.847 208.285 262.114C208.129 262.382 208.037 262.681 208.018 262.99V267.833C208.005 267.935 208.032 268.038 208.093 268.121C208.196 268.13 208.299 268.099 208.381 268.036L221.284 260.606C221.539 260.432 221.752 260.201 221.905 259.933C222.059 259.664 222.15 259.365 222.171 259.056V254.214C222.184 254.112 222.157 254.008 222.097 253.925C221.993 253.917 221.89 253.947 221.808 254.011L208.916 261.451Z" fill="#E0E0E0"/>
<path d="M209.708 263.439L218.121 258.564C218.549 258.319 218.891 258.49 218.891 258.949C218.874 259.209 218.795 259.461 218.661 259.684C218.527 259.907 218.342 260.095 218.121 260.232L209.708 265.117C209.281 265.363 208.938 265.182 208.938 264.722C208.957 264.463 209.037 264.212 209.17 263.989C209.304 263.766 209.488 263.578 209.708 263.439Z" fill="#E0E0E0"/>
<path d="M220.044 257.763L220.739 258.757C220.739 258.757 220.814 258.757 220.846 258.693L221.541 256.897C221.541 256.811 221.541 256.736 221.541 256.769L220.151 257.57C220.113 257.585 220.082 257.612 220.063 257.647C220.043 257.682 220.036 257.723 220.044 257.763Z" fill="#455A64"/>
<path d="M206.351 316.173C206.971 315.82 207.42 316.109 207.42 316.814C207.406 317.198 207.302 317.573 207.117 317.909C206.931 318.245 206.669 318.533 206.351 318.749C205.731 319.102 205.282 318.813 205.282 318.108C205.296 317.724 205.4 317.349 205.586 317.013C205.772 316.677 206.034 316.389 206.351 316.173Z" fill="#0084FF"/>
<path d="M215.052 306.146C215.672 305.793 216.175 306.082 216.175 306.787C216.154 307.175 216.042 307.553 215.846 307.89C215.651 308.226 215.379 308.511 215.052 308.722C214.443 309.075 213.983 308.786 213.983 308.081C213.999 307.697 214.104 307.323 214.289 306.987C214.475 306.651 214.736 306.363 215.052 306.146Z" fill="#0084FF"/>
<path d="M223.722 301.132C224.331 300.779 224.791 301.068 224.791 301.773C224.775 302.157 224.671 302.531 224.485 302.867C224.3 303.203 224.038 303.491 223.722 303.708C223.102 304.061 222.6 303.772 222.6 303.067C222.62 302.679 222.733 302.301 222.928 301.964C223.123 301.628 223.395 301.343 223.722 301.132Z" fill="#0084FF"/>
<path d="M232.403 298.32C233.023 297.968 233.472 298.256 233.472 298.962C233.458 299.346 233.354 299.721 233.168 300.057C232.983 300.393 232.72 300.681 232.403 300.897C231.783 301.25 231.334 300.961 231.334 300.255C231.348 299.872 231.452 299.497 231.638 299.16C231.823 298.824 232.086 298.537 232.403 298.32Z" fill="#0084FF"/>
<path d="M241.093 289.288C241.713 288.935 242.162 289.224 242.162 289.94C242.147 290.322 242.042 290.695 241.856 291.029C241.671 291.363 241.409 291.649 241.093 291.864C240.484 292.228 240.024 291.939 240.024 291.223C240.042 290.84 240.148 290.466 240.334 290.131C240.519 289.795 240.779 289.507 241.093 289.288Z" fill="#0084FF"/>
<path d="M249.774 286.091C250.394 285.739 250.843 286.027 250.843 286.733C250.829 287.117 250.725 287.492 250.539 287.828C250.354 288.164 250.092 288.452 249.774 288.668C249.154 289.021 248.705 288.732 248.705 288.026C248.719 287.643 248.823 287.268 249.009 286.931C249.194 286.595 249.457 286.308 249.774 286.091Z" fill="#0084FF"/>
<path d="M258.454 276.021C259.074 275.658 259.576 275.946 259.576 276.663C259.555 277.051 259.442 277.428 259.247 277.764C259.052 278.101 258.78 278.386 258.454 278.597C257.844 278.95 257.385 278.662 257.385 277.945C257.402 277.564 257.508 277.191 257.693 276.858C257.878 276.524 258.139 276.237 258.454 276.021Z" fill="#0084FF"/>
<path d="M267.145 273.552C267.755 273.199 268.214 273.488 268.214 274.204C268.197 274.586 268.091 274.958 267.906 275.292C267.72 275.626 267.46 275.912 267.145 276.128C266.525 276.492 266.076 276.203 266.076 275.487C266.092 275.103 266.197 274.729 266.382 274.393C266.568 274.057 266.829 273.769 267.145 273.552Z" fill="#0084FF"/>
<path d="M275.825 245.972C276.445 245.619 276.894 245.908 276.894 246.624C276.877 247.007 276.771 247.381 276.586 247.716C276.4 248.052 276.14 248.34 275.825 248.559C275.205 248.912 274.756 248.623 274.756 247.907C274.772 247.524 274.877 247.149 275.063 246.814C275.248 246.478 275.509 246.19 275.825 245.972Z" fill="#0084FF"/>
<path d="M284.537 261.055C285.147 260.692 285.606 260.98 285.606 261.697C285.588 262.079 285.483 262.453 285.297 262.788C285.112 263.124 284.852 263.412 284.537 263.631C283.917 263.984 283.415 263.696 283.415 262.979C283.437 262.593 283.55 262.217 283.745 261.882C283.94 261.548 284.212 261.264 284.537 261.055Z" fill="#0084FF"/>
<path d="M293.196 261.055C293.816 260.692 294.265 260.98 294.265 261.697C294.249 262.08 294.143 262.454 293.958 262.79C293.772 263.125 293.512 263.414 293.196 263.631C292.576 263.984 292.127 263.696 292.127 262.979C292.142 262.597 292.246 262.224 292.432 261.89C292.618 261.555 292.879 261.27 293.196 261.055Z" fill="#0084FF"/>
<path d="M301.877 261.055C302.497 260.692 302.946 260.98 302.946 261.697C302.928 262.08 302.823 262.453 302.638 262.789C302.452 263.125 302.192 263.413 301.877 263.631C301.267 263.984 300.808 263.696 300.808 262.979C300.825 262.598 300.93 262.225 301.116 261.892C301.301 261.558 301.562 261.271 301.877 261.055Z" fill="#0084FF"/>
<path d="M310.568 245.982C311.177 245.619 311.637 245.908 311.637 246.624C311.619 247.007 311.513 247.38 311.328 247.716C311.142 248.051 310.882 248.34 310.568 248.559C309.948 248.911 309.445 248.623 309.445 247.907C309.467 247.52 309.58 247.144 309.775 246.809C309.97 246.475 310.242 246.191 310.568 245.982Z" fill="#0084FF"/>
<path d="M319.248 243.096C319.868 242.743 320.317 243.032 320.317 243.738C320.303 244.121 320.199 244.496 320.013 244.832C319.827 245.169 319.565 245.456 319.248 245.672C318.628 246.025 318.179 245.737 318.179 245.031C318.193 244.647 318.297 244.272 318.482 243.936C318.668 243.6 318.93 243.312 319.248 243.096Z" fill="#0084FF"/>
<path d="M327.96 230.931C328.58 230.578 329.082 230.867 329.082 231.583C329.061 231.97 328.948 232.346 328.752 232.68C328.557 233.015 328.286 233.298 327.96 233.507C327.35 233.871 326.891 233.582 326.891 232.866C326.909 232.483 327.014 232.109 327.2 231.774C327.385 231.438 327.645 231.15 327.96 230.931Z" fill="#0084FF"/>
<path d="M337.414 232.697C337.851 231.941 337.852 231.124 337.418 230.873C336.983 230.622 336.277 231.032 335.84 231.789C335.403 232.545 335.401 233.362 335.836 233.613C336.27 233.864 336.977 233.454 337.414 232.697Z" fill="#0084FF"/>
<path d="M346.104 232.695C346.541 231.938 346.543 231.121 346.108 230.87C345.674 230.62 344.967 231.03 344.53 231.786C344.093 232.543 344.092 233.36 344.526 233.611C344.961 233.862 345.667 233.452 346.104 232.695Z" fill="#0084FF"/>
<path d="M206.329 317.712C206.263 317.712 206.199 317.69 206.148 317.648C206.098 317.596 206.07 317.527 206.07 317.456C206.07 317.384 206.098 317.315 206.148 317.263L214.913 307.193L214.988 307.129L223.604 302.158L232.274 299.347L240.912 290.357L241.018 290.292L249.635 287.085L258.272 277.112C258.31 277.076 258.353 277.047 258.4 277.026L266.952 274.557L275.568 247.158C275.584 247.108 275.613 247.064 275.653 247.03C275.693 246.996 275.741 246.974 275.793 246.966C275.846 246.962 275.899 246.973 275.946 246.998C275.993 247.022 276.033 247.059 276.06 247.105L284.666 262.007H301.77L310.332 247.158C310.348 247.128 310.369 247.101 310.394 247.079C310.42 247.057 310.45 247.04 310.482 247.03L319.087 244.176L327.714 232.085C327.741 232.052 327.776 232.025 327.814 232.007C327.853 231.988 327.896 231.978 327.939 231.979H345.235L353.851 226.997C353.914 226.961 353.988 226.952 354.058 226.969C354.128 226.987 354.188 227.032 354.225 227.093C354.257 227.156 354.263 227.229 354.244 227.296C354.224 227.363 354.179 227.421 354.119 227.457L345.438 232.481C345.393 232.492 345.345 232.492 345.299 232.481H328.067L319.462 244.529C319.431 244.575 319.386 244.609 319.333 244.625L310.781 247.479L302.144 262.445C302.119 262.484 302.084 262.517 302.043 262.539C302.002 262.562 301.955 262.573 301.909 262.573H284.537C284.492 262.572 284.448 262.559 284.409 262.537C284.37 262.514 284.337 262.483 284.313 262.445L275.932 247.928L267.433 274.952C267.418 274.994 267.394 275.031 267.362 275.063C267.331 275.094 267.293 275.118 267.252 275.134L258.636 277.614L250.009 287.588L249.902 287.663L241.264 290.87L232.627 299.86C232.598 299.891 232.561 299.913 232.52 299.924L223.829 302.736L215.277 307.674L206.5 317.648C206.453 317.689 206.392 317.712 206.329 317.712Z" fill="#0084FF"/>
<path d="M206.351 323.057C206.258 323.057 206.166 323.032 206.085 322.985C206.005 322.938 205.938 322.871 205.891 322.79C205.82 322.666 205.801 322.52 205.837 322.382C205.873 322.244 205.961 322.126 206.084 322.052L353.723 236.821C353.844 236.767 353.98 236.759 354.106 236.799C354.232 236.839 354.339 236.925 354.405 237.04C354.472 237.154 354.493 237.289 354.466 237.418C354.439 237.548 354.365 237.663 354.258 237.74L206.618 322.94C206.543 323.005 206.45 323.045 206.351 323.057Z" fill="#E0E0E0"/>
<path d="M206.351 311.159C206.971 310.807 207.42 311.095 207.42 311.801C207.406 312.185 207.302 312.56 207.117 312.896C206.931 313.232 206.669 313.52 206.351 313.736C205.731 314.088 205.282 313.8 205.282 313.094C205.296 312.71 205.4 312.335 205.586 311.999C205.772 311.663 206.034 311.375 206.351 311.159Z" fill="#0084FF"/>
<path d="M215.052 296.118C215.672 295.766 216.175 296.054 216.175 296.76C216.154 297.148 216.042 297.526 215.846 297.862C215.651 298.199 215.379 298.484 215.052 298.695C214.443 299.047 213.983 298.759 213.983 298.053C213.999 297.67 214.104 297.295 214.289 296.959C214.475 296.624 214.736 296.336 215.052 296.118Z" fill="#0084FF"/>
<path d="M224.517 295.994C224.954 295.237 224.956 294.42 224.521 294.169C224.087 293.918 223.38 294.328 222.943 295.085C222.507 295.842 222.505 296.659 222.939 296.91C223.374 297.161 224.08 296.751 224.517 295.994Z" fill="#0084FF"/>
<path d="M232.403 276.021C233.023 275.658 233.472 275.946 233.472 276.663C233.457 277.046 233.353 277.421 233.167 277.757C232.982 278.093 232.72 278.381 232.403 278.597C231.783 278.95 231.334 278.662 231.334 277.945C231.349 277.563 231.453 277.19 231.639 276.856C231.825 276.521 232.086 276.236 232.403 276.021Z" fill="#0084FF"/>
<path d="M241.093 281.078C241.713 280.725 242.162 281.013 242.162 281.719C242.148 282.103 242.043 282.477 241.858 282.813C241.672 283.149 241.41 283.437 241.093 283.654C240.484 284.007 240.024 283.718 240.024 283.012C240.04 282.629 240.145 282.255 240.33 281.919C240.516 281.583 240.777 281.295 241.093 281.078Z" fill="#0084FF"/>
<path d="M249.774 278.566C250.394 278.213 250.843 278.501 250.843 279.218C250.828 279.6 250.724 279.973 250.538 280.307C250.352 280.642 250.091 280.927 249.774 281.142C249.154 281.505 248.705 281.217 248.705 280.5C248.722 280.117 248.827 279.743 249.012 279.407C249.198 279.072 249.458 278.783 249.774 278.566Z" fill="#0084FF"/>
<path d="M258.454 271.05C259.074 270.687 259.576 270.976 259.576 271.692C259.555 272.08 259.442 272.458 259.247 272.794C259.052 273.13 258.78 273.415 258.454 273.627C257.844 273.98 257.385 273.691 257.385 272.985C257.4 272.602 257.505 272.228 257.691 271.892C257.876 271.556 258.138 271.268 258.454 271.05Z" fill="#0084FF"/>
<path d="M267.145 261.055C267.755 260.692 268.214 260.98 268.214 261.697C268.196 262.079 268.09 262.453 267.905 262.788C267.72 263.124 267.46 263.412 267.145 263.631C266.525 263.984 266.076 263.696 266.076 262.979C266.092 262.597 266.197 262.224 266.382 261.89C266.568 261.556 266.829 261.27 267.145 261.055Z" fill="#0084FF"/>
<path d="M275.825 258.511C276.445 258.158 276.894 258.447 276.894 259.153C276.879 259.536 276.775 259.911 276.589 260.247C276.403 260.583 276.142 260.871 275.825 261.087C275.205 261.44 274.756 261.152 274.756 260.446C274.77 260.062 274.874 259.687 275.06 259.351C275.245 259.015 275.507 258.727 275.825 258.511Z" fill="#0084FF"/>
<path d="M284.538 250.996C285.158 250.633 285.607 250.921 285.607 251.637C285.59 252.02 285.484 252.394 285.299 252.73C285.113 253.066 284.853 253.354 284.538 253.572C283.928 253.925 283.469 253.636 283.469 252.92C283.486 252.539 283.591 252.166 283.777 251.832C283.962 251.499 284.223 251.212 284.538 250.996Z" fill="#0084FF"/>
<path d="M293.196 250.996C293.816 250.633 294.265 250.921 294.265 251.637C294.249 252.021 294.143 252.395 293.958 252.731C293.772 253.066 293.512 253.354 293.196 253.572C292.576 253.925 292.127 253.636 292.127 252.92C292.142 252.538 292.246 252.165 292.432 251.831C292.618 251.496 292.879 251.21 293.196 250.996Z" fill="#0084FF"/>
<path d="M301.877 230.931C302.497 230.578 302.946 230.867 302.946 231.583C302.93 231.965 302.825 232.338 302.64 232.672C302.454 233.006 302.193 233.292 301.877 233.507C301.267 233.871 300.808 233.582 300.808 232.866C300.826 232.483 300.931 232.109 301.117 231.774C301.302 231.438 301.562 231.15 301.877 230.931Z" fill="#0084FF"/>
<path d="M310.568 240.894C311.177 240.541 311.637 240.819 311.637 241.535C311.621 241.919 311.516 242.293 311.331 242.629C311.145 242.965 310.884 243.253 310.568 243.47C309.948 243.823 309.445 243.534 309.445 242.829C309.466 242.441 309.579 242.063 309.774 241.726C309.969 241.39 310.241 241.105 310.568 240.894Z" fill="#0084FF"/>
<path d="M319.248 230.931C319.868 230.578 320.317 230.867 320.317 231.583C320.301 231.965 320.196 232.338 320.011 232.672C319.825 233.006 319.564 233.292 319.248 233.507C318.628 233.871 318.179 233.582 318.179 232.866C318.195 232.482 318.3 232.108 318.486 231.773C318.671 231.437 318.932 231.149 319.248 230.931Z" fill="#0084FF"/>
<path d="M327.939 225.917C328.548 225.565 329.008 225.853 329.008 226.569C328.991 226.951 328.885 227.323 328.7 227.657C328.514 227.991 328.254 228.277 327.939 228.494C327.319 228.857 326.816 228.569 326.816 227.852C326.84 227.465 326.953 227.088 327.148 226.752C327.343 226.416 327.614 226.13 327.939 225.917Z" fill="#0084FF"/>
<path d="M336.619 225.917C337.239 225.565 337.688 225.853 337.688 226.569C337.673 226.952 337.569 227.325 337.383 227.659C337.197 227.993 336.935 228.279 336.619 228.494C335.999 228.857 335.55 228.569 335.55 227.852C335.566 227.469 335.671 227.095 335.857 226.759C336.042 226.423 336.303 226.135 336.619 225.917Z" fill="#0084FF"/>
<path d="M345.299 220.904C345.919 220.551 346.422 220.84 346.422 221.556C346.4 221.942 346.287 222.318 346.092 222.653C345.897 222.987 345.625 223.271 345.299 223.48C344.69 223.843 344.23 223.555 344.23 222.839C344.249 222.456 344.354 222.082 344.54 221.747C344.725 221.411 344.985 221.123 345.299 220.904Z" fill="#0084FF"/>
<path d="M206.351 312.72C206.306 312.734 206.257 312.734 206.212 312.72C206.151 312.684 206.107 312.626 206.089 312.558C206.071 312.49 206.081 312.418 206.116 312.357L214.86 297.284C214.878 297.25 214.904 297.22 214.936 297.198C214.967 297.176 215.004 297.161 215.042 297.155L223.53 295.338L232.156 277.272C232.174 277.238 232.198 277.209 232.228 277.185C232.257 277.161 232.291 277.143 232.327 277.133C232.361 277.118 232.397 277.11 232.434 277.11C232.471 277.11 232.508 277.118 232.541 277.133L241.093 282.093L249.645 279.624L258.272 272.141L266.942 262.135C266.972 262.092 267.018 262.061 267.07 262.049L275.697 259.559L284.334 252.076C284.385 252.032 284.45 252.01 284.516 252.012H293.068L301.641 232.117C301.662 232.076 301.692 232.04 301.729 232.012C301.766 231.984 301.81 231.965 301.855 231.957C301.899 231.951 301.944 231.957 301.985 231.974C302.027 231.991 302.063 232.018 302.09 232.053L310.578 241.845L319.055 232.053C319.075 232.026 319.101 232.004 319.13 231.989L327.843 226.965C327.884 226.951 327.929 226.951 327.971 226.965H336.587L345.139 222.005C345.181 221.995 345.225 221.995 345.267 222.005H354.022C354.093 222.005 354.161 222.033 354.211 222.083C354.261 222.133 354.29 222.201 354.29 222.272C354.29 222.343 354.261 222.411 354.211 222.461C354.161 222.511 354.093 222.539 354.022 222.539H345.406L336.854 227.499H336.726H328.11L319.494 232.47L310.845 242.465C310.819 242.493 310.788 242.515 310.753 242.531C310.718 242.546 310.68 242.554 310.642 242.554C310.604 242.554 310.567 242.546 310.532 242.531C310.497 242.515 310.465 242.493 310.439 242.465L302.026 232.759L293.474 252.428C293.453 252.476 293.419 252.517 293.375 252.545C293.332 252.574 293.28 252.589 293.228 252.589H284.676L275.985 259.986H275.878L267.273 262.466L258.625 272.44L249.923 279.987L249.827 280.041L241.147 282.553C241.115 282.568 241.08 282.576 241.045 282.576C241.01 282.576 240.975 282.568 240.944 282.553L232.499 277.678L223.947 295.605C223.931 295.643 223.907 295.675 223.875 295.7C223.843 295.724 223.805 295.74 223.765 295.744L215.213 297.562L206.522 312.528C206.513 312.572 206.492 312.613 206.462 312.647C206.432 312.681 206.394 312.706 206.351 312.72Z" fill="#0084FF"/>
<g opacity="0.3">
<path opacity="0.3" d="M206.35 311.159C206.97 310.807 207.419 311.095 207.419 311.801C207.405 312.185 207.301 312.56 207.116 312.896C206.93 313.232 206.668 313.52 206.35 313.736C205.73 314.088 205.281 313.8 205.281 313.094C205.295 312.71 205.399 312.335 205.585 311.999C205.771 311.663 206.033 311.375 206.35 311.159Z" fill="black"/>
<path opacity="0.3" d="M215.051 296.118C215.671 295.765 216.174 296.054 216.174 296.759C216.153 297.148 216.041 297.526 215.845 297.862C215.65 298.198 215.378 298.484 215.051 298.694C214.442 299.047 213.982 298.759 213.982 298.053C213.998 297.67 214.103 297.295 214.288 296.959C214.474 296.623 214.735 296.335 215.051 296.118Z" fill="black"/>
<path opacity="0.3" d="M224.517 295.994C224.954 295.237 224.956 294.42 224.521 294.169C224.087 293.918 223.38 294.328 222.943 295.085C222.507 295.842 222.505 296.658 222.939 296.909C223.374 297.16 224.08 296.75 224.517 295.994Z" fill="black"/>
<path opacity="0.3" d="M232.402 276.021C233.022 275.657 233.471 275.946 233.471 276.662C233.456 277.046 233.352 277.421 233.166 277.757C232.981 278.093 232.719 278.381 232.402 278.597C231.782 278.95 231.333 278.661 231.333 277.945C231.348 277.563 231.452 277.19 231.638 276.856C231.824 276.521 232.085 276.235 232.402 276.021Z" fill="black"/>
<path opacity="0.3" d="M241.092 281.078C241.712 280.725 242.161 281.013 242.161 281.719C242.147 282.103 242.042 282.477 241.857 282.813C241.671 283.149 241.409 283.437 241.092 283.654C240.483 284.007 240.023 283.718 240.023 283.012C240.039 282.629 240.144 282.255 240.329 281.919C240.515 281.583 240.776 281.295 241.092 281.078Z" fill="black"/>
<path opacity="0.3" d="M249.773 278.565C250.393 278.213 250.842 278.501 250.842 279.217C250.827 279.6 250.723 279.973 250.537 280.307C250.351 280.641 250.09 280.927 249.773 281.142C249.153 281.505 248.704 281.216 248.704 280.5C248.721 280.117 248.826 279.743 249.011 279.407C249.197 279.071 249.457 278.783 249.773 278.565Z" fill="black"/>
<path opacity="0.3" d="M258.454 271.05C259.074 270.687 259.576 270.975 259.576 271.692C259.555 272.08 259.442 272.457 259.247 272.793C259.052 273.13 258.78 273.415 258.454 273.627C257.844 273.979 257.385 273.691 257.385 272.985C257.4 272.602 257.505 272.227 257.691 271.891C257.876 271.556 258.138 271.268 258.454 271.05Z" fill="black"/>
<path opacity="0.3" d="M267.144 261.055C267.754 260.692 268.213 260.98 268.213 261.697C268.195 262.079 268.089 262.453 267.904 262.788C267.719 263.124 267.459 263.412 267.144 263.631C266.524 263.984 266.075 263.696 266.075 262.979C266.091 262.597 266.196 262.224 266.381 261.89C266.567 261.556 266.828 261.27 267.144 261.055Z" fill="black"/>
<path opacity="0.3" d="M275.825 258.511C276.445 258.158 276.894 258.447 276.894 259.152C276.879 259.536 276.775 259.911 276.589 260.247C276.403 260.583 276.142 260.871 275.825 261.087C275.205 261.44 274.756 261.151 274.756 260.446C274.77 260.062 274.874 259.687 275.06 259.351C275.245 259.015 275.507 258.727 275.825 258.511Z" fill="black"/>
<path opacity="0.3" d="M284.537 250.996C285.157 250.632 285.606 250.921 285.606 251.637C285.589 252.02 285.483 252.394 285.298 252.73C285.112 253.065 284.852 253.354 284.537 253.572C283.927 253.925 283.468 253.636 283.468 252.92C283.485 252.538 283.591 252.166 283.776 251.832C283.961 251.498 284.222 251.212 284.537 250.996Z" fill="black"/>
<path opacity="0.3" d="M293.196 250.996C293.816 250.632 294.265 250.921 294.265 251.637C294.249 252.02 294.143 252.395 293.958 252.73C293.772 253.066 293.512 253.354 293.196 253.572C292.576 253.925 292.127 253.636 292.127 252.92C292.142 252.538 292.246 252.165 292.432 251.83C292.618 251.496 292.879 251.21 293.196 250.996Z" fill="black"/>
<path opacity="0.3" d="M301.876 230.931C302.496 230.578 302.945 230.866 302.945 231.583C302.929 231.965 302.824 232.338 302.639 232.672C302.453 233.006 302.192 233.292 301.876 233.507C301.266 233.87 300.807 233.582 300.807 232.865C300.825 232.483 300.93 232.109 301.116 231.774C301.301 231.438 301.561 231.15 301.876 230.931Z" fill="black"/>
<path opacity="0.3" d="M310.567 240.894C311.176 240.541 311.636 240.819 311.636 241.535C311.62 241.918 311.515 242.293 311.33 242.629C311.144 242.965 310.883 243.253 310.567 243.47C309.947 243.823 309.444 243.534 309.444 242.829C309.465 242.44 309.578 242.062 309.773 241.726C309.968 241.39 310.24 241.104 310.567 240.894Z" fill="black"/>
<path opacity="0.3" d="M319.247 230.931C319.867 230.578 320.316 230.866 320.316 231.583C320.3 231.965 320.195 232.338 320.01 232.672C319.824 233.006 319.563 233.292 319.247 233.507C318.627 233.87 318.178 233.582 318.178 232.865C318.194 232.482 318.299 232.108 318.485 231.772C318.67 231.437 318.931 231.148 319.247 230.931Z" fill="black"/>
<path opacity="0.3" d="M327.938 225.917C328.547 225.564 329.007 225.853 329.007 226.569C328.99 226.951 328.884 227.323 328.699 227.657C328.513 227.991 328.253 228.277 327.938 228.493C327.318 228.857 326.815 228.568 326.815 227.852C326.839 227.464 326.952 227.087 327.147 226.751C327.342 226.416 327.613 226.13 327.938 225.917Z" fill="black"/>
<path opacity="0.3" d="M336.618 225.917C337.238 225.564 337.687 225.853 337.687 226.569C337.672 226.951 337.568 227.325 337.382 227.659C337.196 227.993 336.934 228.279 336.618 228.493C335.998 228.857 335.549 228.568 335.549 227.852C335.565 227.469 335.67 227.095 335.856 226.759C336.041 226.423 336.302 226.135 336.618 225.917Z" fill="black"/>
<path opacity="0.3" d="M345.298 220.903C345.919 220.551 346.421 220.839 346.421 221.556C346.399 221.942 346.286 222.318 346.091 222.653C345.896 222.987 345.624 223.271 345.298 223.48C344.689 223.843 344.229 223.555 344.229 222.838C344.248 222.456 344.353 222.082 344.539 221.746C344.724 221.411 344.984 221.123 345.298 220.903Z" fill="black"/>
<path opacity="0.3" d="M354.022 220.903C354.631 220.551 355.091 220.839 355.091 221.556C355.074 221.937 354.968 222.309 354.783 222.643C354.597 222.977 354.337 223.264 354.022 223.48C353.402 223.843 352.899 223.555 352.899 222.838C352.923 222.451 353.036 222.074 353.231 221.738C353.426 221.402 353.697 221.116 354.022 220.903Z" fill="black"/>
<path opacity="0.3" d="M206.35 312.72C206.305 312.734 206.256 312.734 206.211 312.72C206.15 312.684 206.106 312.626 206.088 312.558C206.07 312.49 206.08 312.417 206.115 312.356L214.859 297.283C214.877 297.249 214.903 297.22 214.935 297.198C214.966 297.175 215.003 297.161 215.041 297.155L223.529 295.338L232.155 277.272C232.173 277.238 232.197 277.209 232.227 277.185C232.256 277.161 232.29 277.143 232.326 277.133C232.36 277.117 232.396 277.109 232.433 277.109C232.47 277.109 232.507 277.117 232.54 277.133L241.092 282.093L249.644 279.624L258.271 272.141L266.941 262.135C266.971 262.091 267.017 262.061 267.069 262.049L275.696 259.558L284.333 252.075C284.384 252.032 284.449 252.009 284.515 252.011H293.067L301.64 232.117C301.661 232.076 301.691 232.04 301.728 232.012C301.765 231.984 301.809 231.965 301.854 231.957C301.898 231.951 301.943 231.957 301.985 231.974C302.026 231.991 302.062 232.018 302.089 232.053L310.577 241.845L319.054 232.053C319.074 232.026 319.1 232.004 319.129 231.989L327.842 226.965C327.883 226.951 327.928 226.951 327.97 226.965H336.586L345.138 222.005C345.18 221.995 345.224 221.995 345.266 222.005H354.021C354.092 222.005 354.16 222.033 354.21 222.083C354.26 222.133 354.289 222.201 354.289 222.272C354.289 222.343 354.26 222.411 354.21 222.461C354.16 222.511 354.092 222.539 354.021 222.539H345.405L336.853 227.499H336.725H328.109L319.493 232.47L310.844 242.465C310.818 242.493 310.787 242.515 310.752 242.53C310.717 242.546 310.679 242.553 310.641 242.553C310.603 242.553 310.566 242.546 310.531 242.53C310.496 242.515 310.464 242.493 310.438 242.465L302.025 232.759L293.473 252.428C293.452 252.476 293.418 252.517 293.374 252.545C293.331 252.574 293.28 252.589 293.227 252.589H284.675L275.984 259.986H275.877L267.272 262.466L258.624 272.44L249.922 279.987L249.826 280.04L241.146 282.553C241.114 282.568 241.079 282.576 241.044 282.576C241.009 282.576 240.974 282.568 240.943 282.553L232.498 277.678L223.946 295.605C223.93 295.642 223.906 295.675 223.874 295.699C223.842 295.724 223.804 295.739 223.764 295.744L215.212 297.561L206.521 312.527C206.512 312.572 206.491 312.613 206.461 312.647C206.431 312.68 206.393 312.706 206.35 312.72Z" fill="black"/>
</g>
<path d="M210.895 273.958L219.329 269.073C219.757 268.827 220.099 268.998 220.099 269.468C220.08 269.726 220.001 269.976 219.867 270.197C219.733 270.418 219.549 270.604 219.329 270.74L210.916 275.626C210.499 275.872 210.146 275.7 210.146 275.23C210.165 274.975 210.242 274.727 210.372 274.507C210.502 274.286 210.681 274.098 210.895 273.958Z" fill="#E0E0E0"/>
<path d="M206.351 276.021C206.971 275.658 207.42 275.946 207.42 276.663C207.406 277.046 207.302 277.421 207.116 277.758C206.931 278.094 206.668 278.381 206.351 278.597C205.731 278.95 205.229 278.662 205.229 277.956C205.249 277.568 205.362 277.19 205.557 276.854C205.752 276.517 206.024 276.232 206.351 276.021Z" fill="#0084FF"/>
<path opacity="0.3" d="M206.351 276.021C206.971 275.658 207.42 275.946 207.42 276.663C207.406 277.046 207.302 277.421 207.116 277.758C206.931 278.094 206.668 278.381 206.351 278.597C205.731 278.95 205.229 278.662 205.229 277.956C205.249 277.568 205.362 277.19 205.557 276.854C205.752 276.517 206.024 276.232 206.351 276.021Z" fill="black"/>
<path d="M210.894 278.95L219.307 274.076C219.734 273.83 220.076 274.001 220.076 274.461C220.059 274.72 219.981 274.972 219.847 275.195C219.713 275.418 219.528 275.606 219.307 275.743L210.894 280.629C210.477 280.875 210.124 280.693 210.124 280.233C210.144 279.974 210.224 279.724 210.358 279.501C210.492 279.279 210.675 279.09 210.894 278.95Z" fill="#E0E0E0"/>
<path d="M206.351 281.078C206.971 280.725 207.42 281.003 207.42 281.719C207.406 282.103 207.302 282.478 207.116 282.814C206.931 283.15 206.668 283.438 206.351 283.654C205.731 284.007 205.229 283.718 205.229 283.012C205.249 282.624 205.362 282.246 205.557 281.91C205.752 281.574 206.024 281.288 206.351 281.078Z" fill="#0084FF"/>
<path d="M207.131 351.343L244.664 329.589C245.08 329.343 245.433 329.525 245.433 329.984C245.413 330.243 245.333 330.494 245.199 330.716C245.066 330.939 244.882 331.127 244.664 331.267L207.131 352.989C206.714 353.235 206.361 353.064 206.361 352.594C206.386 352.34 206.468 352.096 206.601 351.879C206.734 351.662 206.916 351.479 207.131 351.343Z" fill="#E0E0E0"/>
<path d="M207.131 326.264L215.544 321.39C215.972 321.144 216.314 321.315 216.314 321.774C216.295 322.034 216.216 322.285 216.082 322.508C215.948 322.731 215.764 322.919 215.544 323.057L207.131 327.932C206.714 328.178 206.361 328.007 206.361 327.547C206.382 327.288 206.462 327.038 206.595 326.815C206.729 326.593 206.912 326.404 207.131 326.264Z" fill="#E0E0E0"/>
<path d="M207.131 381.393L244.664 359.649C245.08 359.403 245.433 359.574 245.433 360.045C245.412 360.302 245.332 360.55 245.198 360.771C245.064 360.992 244.882 361.179 244.664 361.317L207.131 383.071C206.714 383.317 206.361 383.135 206.361 382.675C206.382 382.417 206.462 382.166 206.595 381.943C206.729 381.721 206.912 381.532 207.131 381.393Z" fill="#E0E0E0"/>
<path d="M207.131 356.314L215.544 351.428C215.972 351.183 216.314 351.364 216.314 351.824C216.295 352.083 216.216 352.334 216.082 352.557C215.948 352.78 215.764 352.968 215.544 353.107L207.131 357.981C206.714 358.227 206.361 358.056 206.361 357.597C206.381 357.338 206.461 357.087 206.594 356.864C206.728 356.641 206.912 356.453 207.131 356.314Z" fill="#E0E0E0"/>
<path d="M258.454 317.712C258.415 317.71 258.376 317.699 258.341 317.681C258.306 317.662 258.275 317.637 258.251 317.605C258.225 317.581 258.205 317.552 258.191 317.52C258.177 317.488 258.17 317.453 258.17 317.418C258.17 317.383 258.177 317.348 258.191 317.316C258.205 317.284 258.225 317.255 258.251 317.231L262.591 313.768L266.963 308.775L271.4 308.123L275.676 307.172L280.069 301.998L284.345 302.757L288.621 295.905L293.025 295.969L297.301 292.174C297.326 292.148 297.356 292.127 297.389 292.113C297.422 292.099 297.458 292.092 297.494 292.092C297.53 292.092 297.565 292.099 297.598 292.113C297.631 292.127 297.661 292.148 297.686 292.174C297.735 292.224 297.763 292.291 297.763 292.361C297.763 292.431 297.735 292.498 297.686 292.548L293.271 296.493L288.995 296.418L284.645 303.323L280.272 302.554L275.996 307.632L271.56 308.636L267.284 309.256L263.008 314.131L258.625 317.712C258.57 317.731 258.509 317.731 258.454 317.712Z" fill="#0084FF"/>
<path d="M260.176 303.078L260.283 302.981L260.4 302.896C260.59 302.792 260.804 302.74 261.02 302.746C261.213 302.743 261.4 302.811 261.544 302.939C261.7 303.091 261.817 303.277 261.886 303.484C261.968 303.765 262.007 304.057 262.004 304.35C262.002 304.684 261.962 305.018 261.886 305.344C261.803 305.671 261.688 305.99 261.544 306.295C261.404 306.583 261.228 306.853 261.02 307.097C260.834 307.32 260.609 307.508 260.358 307.653C260.163 307.778 259.937 307.848 259.705 307.856C259.513 307.85 259.328 307.778 259.182 307.653C259.025 307.475 258.921 307.256 258.882 307.022C258.791 306.743 258.748 306.45 258.754 306.156C258.743 305.975 258.743 305.793 258.754 305.611C258.754 305.429 258.818 305.258 258.861 305.087L259.011 304.585C259.064 304.425 259.128 304.275 259.182 304.125L260.336 300.833L260.4 300.672C260.428 300.611 260.472 300.559 260.529 300.523L260.892 300.32C260.892 300.32 260.967 300.32 260.988 300.32C261.004 300.361 261.004 300.407 260.988 300.448C260.994 300.476 260.994 300.505 260.988 300.533C260.994 300.551 260.994 300.569 260.988 300.587L260.176 303.078ZM259.363 305.857C259.359 306.031 259.384 306.205 259.438 306.37C259.475 306.503 259.545 306.624 259.641 306.723C259.73 306.809 259.849 306.859 259.973 306.862C260.124 306.86 260.273 306.815 260.4 306.734C260.565 306.633 260.713 306.507 260.839 306.359C260.967 306.197 261.079 306.022 261.17 305.836C261.257 305.647 261.325 305.45 261.373 305.248C261.419 305.051 261.444 304.851 261.448 304.649C261.447 304.475 261.422 304.303 261.373 304.136C261.332 304.005 261.263 303.884 261.17 303.783C261.078 303.701 260.962 303.652 260.839 303.644C260.684 303.651 260.534 303.695 260.4 303.772C260.238 303.873 260.094 304 259.973 304.147C259.836 304.304 259.725 304.48 259.641 304.67C259.551 304.858 259.483 305.055 259.438 305.258C259.388 305.454 259.362 305.655 259.363 305.857Z" fill="#455A64"/>
<path d="M264.58 301.506C264.697 301.28 264.794 301.044 264.868 300.801C264.93 300.549 264.963 300.29 264.964 300.031C264.985 299.766 264.913 299.501 264.761 299.283C264.633 299.122 264.419 299.133 264.141 299.283C263.998 299.365 263.868 299.47 263.756 299.593C263.656 299.726 263.57 299.869 263.5 300.02C263.429 300.174 263.375 300.336 263.34 300.501C263.34 300.672 263.265 300.843 263.233 301.014C263.226 301.086 263.204 301.155 263.168 301.218C263.148 301.265 263.115 301.306 263.072 301.335L262.784 301.506C262.768 301.518 262.75 301.525 262.73 301.525C262.711 301.525 262.692 301.518 262.677 301.506C262.661 301.465 262.661 301.419 262.677 301.378C262.678 301.111 262.714 300.845 262.784 300.587C262.849 300.296 262.946 300.013 263.072 299.742C263.196 299.467 263.354 299.208 263.543 298.973C263.715 298.746 263.929 298.553 264.173 298.406C264.356 298.291 264.567 298.228 264.783 298.224C264.867 298.224 264.95 298.241 265.027 298.274C265.104 298.308 265.174 298.356 265.232 298.417C265.364 298.557 265.457 298.731 265.499 298.919C265.566 299.17 265.599 299.429 265.595 299.689C265.606 299.881 265.606 300.074 265.595 300.266C265.575 300.451 265.539 300.633 265.488 300.811C265.441 301.001 265.38 301.186 265.306 301.367C265.221 301.56 265.135 301.752 265.029 301.966L263.607 304.82L265.552 303.698C265.569 303.685 265.59 303.678 265.611 303.678C265.632 303.678 265.653 303.685 265.67 303.698C265.708 303.742 265.727 303.8 265.723 303.858V304.211C265.72 304.285 265.702 304.357 265.67 304.425C265.642 304.483 265.602 304.534 265.552 304.574L262.816 306.146C262.759 306.146 262.716 306.146 262.687 306.146C262.668 306.094 262.668 306.037 262.687 305.985V305.633C262.676 305.565 262.676 305.497 262.687 305.429C262.715 305.344 262.751 305.262 262.794 305.184L264.58 301.506Z" fill="#455A64"/>
<path d="M268.898 295.766C268.914 295.751 268.935 295.742 268.957 295.742C268.979 295.742 269 295.751 269.016 295.766C269.037 295.786 269.053 295.811 269.062 295.839C269.072 295.867 269.074 295.897 269.069 295.926V296.332C269.074 296.396 269.074 296.461 269.069 296.525C269.073 296.603 269.073 296.681 269.069 296.76L267.658 303.174C267.638 303.243 267.613 303.311 267.583 303.377C267.563 303.436 267.521 303.485 267.466 303.516L267.177 303.687C267.162 303.699 267.143 303.706 267.124 303.706C267.104 303.706 267.085 303.699 267.07 303.687C267.052 303.642 267.052 303.592 267.07 303.548C267.067 303.52 267.067 303.491 267.07 303.462L268.481 297.048L266.343 298.256C266.327 298.269 266.306 298.276 266.285 298.276C266.263 298.276 266.243 298.269 266.226 298.256C266.188 298.212 266.169 298.154 266.172 298.096V297.743C266.176 297.669 266.194 297.597 266.226 297.529C266.251 297.47 266.291 297.418 266.343 297.38L268.898 295.766Z" fill="#455A64"/>
<path d="M259.244 321.197L296.766 299.443C297.194 299.197 297.536 299.379 297.536 299.839C297.517 300.098 297.438 300.349 297.304 300.572C297.17 300.795 296.986 300.983 296.766 301.121L259.244 322.865C258.817 323.111 258.475 322.929 258.475 322.469C258.493 322.212 258.573 321.962 258.707 321.741C258.84 321.52 259.025 321.333 259.244 321.197Z" fill="#E0E0E0"/>
<path d="M259.244 296.108L267.647 291.233C268.074 290.987 268.427 291.158 268.427 291.618C268.406 291.878 268.325 292.129 268.189 292.352C268.054 292.575 267.868 292.763 267.647 292.901L259.244 297.775C258.817 298.021 258.475 297.85 258.475 297.391C258.493 297.131 258.573 296.88 258.706 296.657C258.84 296.435 259.024 296.246 259.244 296.108Z" fill="#E0E0E0"/>
<path d="M258.454 347.794C258.408 347.803 258.36 347.803 258.315 347.794C258.257 347.753 258.216 347.692 258.201 347.623C258.185 347.554 258.195 347.482 258.229 347.42L262.665 340.15L267.134 340.973L271.335 339.819L275.675 334.527L279.951 333.458L284.334 325.633L288.824 326.937L293.036 326.136L297.312 322.33C297.337 322.301 297.367 322.278 297.402 322.262C297.436 322.246 297.474 322.238 297.512 322.238C297.55 322.237 297.587 322.245 297.622 322.26C297.657 322.276 297.688 322.299 297.713 322.327C297.739 322.355 297.758 322.389 297.769 322.425C297.78 322.461 297.784 322.5 297.779 322.537C297.775 322.575 297.762 322.611 297.742 322.644C297.722 322.676 297.696 322.704 297.664 322.726L293.271 326.638H293.207L288.781 327.472L284.644 326.264L280.368 333.918L275.996 334.987L271.656 340.279H271.581L267.177 341.487H267.112L262.954 340.717L258.678 347.676C258.653 347.713 258.62 347.743 258.581 347.763C258.541 347.784 258.498 347.794 258.454 347.794Z" fill="#0084FF"/>
<g opacity="0.3">
<path opacity="0.3" d="M258.454 347.794C258.408 347.803 258.36 347.803 258.315 347.794C258.257 347.753 258.216 347.692 258.201 347.623C258.185 347.554 258.195 347.482 258.229 347.42L262.665 340.15L267.134 340.973L271.335 339.819L275.675 334.527L279.951 333.458L284.334 325.633L288.824 326.937L293.036 326.136L297.312 322.33C297.337 322.301 297.367 322.278 297.402 322.262C297.436 322.246 297.474 322.238 297.512 322.238C297.55 322.237 297.587 322.245 297.622 322.26C297.657 322.276 297.688 322.299 297.713 322.327C297.739 322.355 297.758 322.389 297.769 322.425C297.78 322.461 297.784 322.5 297.779 322.537C297.775 322.575 297.762 322.611 297.742 322.644C297.722 322.676 297.696 322.704 297.664 322.726L293.271 326.638H293.207L288.781 327.472L284.644 326.264L280.368 333.918L275.996 334.987L271.656 340.279H271.581L267.177 341.487H267.112L262.954 340.717L258.678 347.676C258.653 347.713 258.62 347.743 258.581 347.763C258.541 347.784 258.498 347.794 258.454 347.794Z" fill="black"/>
</g>
<path d="M260.464 335.19L260.379 335.254H260.293C260.115 335.364 259.914 335.43 259.705 335.447C259.521 335.455 259.339 335.398 259.192 335.287C259.048 335.16 258.941 334.998 258.882 334.816C258.778 334.525 258.731 334.216 258.743 333.908C258.744 333.572 258.787 333.238 258.871 332.913C258.955 332.593 259.069 332.281 259.213 331.983C259.354 331.708 259.526 331.45 259.727 331.214C259.897 331.001 260.103 330.82 260.336 330.679C260.535 330.553 260.763 330.48 260.999 330.465C261.185 330.469 261.364 330.541 261.501 330.668C261.654 330.819 261.764 331.007 261.822 331.214C261.9 331.492 261.936 331.78 261.929 332.069C261.943 332.243 261.943 332.418 261.929 332.593C261.929 332.774 261.843 332.956 261.8 333.149C261.758 333.341 261.693 333.512 261.629 333.694C261.565 333.875 261.522 334.036 261.469 334.175L260.314 337.467L260.24 337.628C260.229 337.66 260.212 337.69 260.19 337.715C260.168 337.741 260.142 337.762 260.111 337.777L259.748 337.991C259.736 338.002 259.721 338.007 259.705 338.007C259.689 338.007 259.674 338.002 259.662 337.991C259.648 337.946 259.648 337.897 259.662 337.852C259.662 337.852 259.662 337.852 259.662 337.777C259.664 337.756 259.664 337.734 259.662 337.713L260.464 335.19ZM261.287 332.422C261.293 332.244 261.267 332.067 261.212 331.898C261.175 331.786 261.108 331.687 261.02 331.609C260.979 331.569 260.931 331.538 260.877 331.518C260.824 331.498 260.767 331.489 260.71 331.492C260.567 331.498 260.428 331.539 260.304 331.609C260.152 331.702 260.015 331.817 259.898 331.951C259.773 332.097 259.669 332.259 259.588 332.432C259.406 332.797 259.314 333.2 259.32 333.608C259.317 333.788 259.338 333.968 259.384 334.143C259.422 334.269 259.492 334.383 259.588 334.474C259.673 334.55 259.783 334.591 259.898 334.592C260.042 334.595 260.184 334.554 260.304 334.474C260.456 334.382 260.593 334.266 260.71 334.132C260.829 333.982 260.933 333.821 261.02 333.651C261.11 333.471 261.178 333.281 261.223 333.084C261.275 332.868 261.297 332.644 261.287 332.422Z" fill="#455A64"/>
<path d="M262.933 334.453C262.953 334.545 262.986 334.635 263.029 334.72C263.065 334.797 263.125 334.861 263.2 334.902C263.298 334.931 263.402 334.931 263.499 334.902C263.674 334.863 263.84 334.794 263.991 334.699C264.128 334.619 264.253 334.522 264.365 334.41C264.483 334.286 264.587 334.15 264.675 334.004C264.764 333.84 264.835 333.668 264.889 333.491C264.942 333.296 264.967 333.094 264.964 332.892C264.973 332.725 264.948 332.557 264.889 332.4C264.851 332.3 264.779 332.217 264.686 332.165C264.584 332.138 264.477 332.138 264.376 332.165C264.24 332.203 264.111 332.261 263.991 332.336L263.457 332.635C263.441 332.65 263.42 332.659 263.398 332.659C263.376 332.659 263.355 332.65 263.339 332.635C263.329 332.612 263.324 332.586 263.324 332.561C263.324 332.535 263.329 332.509 263.339 332.486V332.133C263.329 332.073 263.329 332.011 263.339 331.951L263.414 331.78L264.558 329.215L262.719 330.284C262.703 330.299 262.682 330.307 262.66 330.307C262.638 330.307 262.617 330.299 262.601 330.284C262.565 330.238 262.546 330.181 262.548 330.123V329.77C262.55 329.696 262.569 329.623 262.601 329.557C262.626 329.497 262.667 329.445 262.719 329.407L265.231 327.964C265.247 327.949 265.268 327.94 265.29 327.94C265.312 327.94 265.333 327.949 265.349 327.964C265.385 328.005 265.404 328.059 265.402 328.114V328.466C265.412 328.53 265.412 328.595 265.402 328.659C265.378 328.728 265.35 328.796 265.317 328.862L264.194 331.385C264.369 331.277 264.567 331.215 264.771 331.203C264.933 331.19 265.094 331.239 265.22 331.342C265.362 331.464 265.466 331.623 265.52 331.802C265.593 332.048 265.63 332.304 265.627 332.561C265.628 332.889 265.585 333.216 265.498 333.533C265.415 333.833 265.3 334.123 265.156 334.399C265.017 334.653 264.849 334.89 264.654 335.105C264.477 335.299 264.272 335.465 264.045 335.597C263.821 335.741 263.57 335.835 263.307 335.874C263.129 335.897 262.948 335.86 262.794 335.768C262.663 335.666 262.56 335.534 262.494 335.383C262.429 335.201 262.396 335.009 262.398 334.816C262.388 334.756 262.388 334.695 262.398 334.634C262.422 334.586 262.459 334.545 262.505 334.517L262.794 334.346C262.794 334.346 262.879 334.346 262.901 334.346C262.914 334.36 262.923 334.377 262.929 334.396C262.935 334.414 262.936 334.434 262.933 334.453Z" fill="#455A64"/>
<path d="M259.244 351.247L296.766 329.471C297.194 329.225 297.536 329.396 297.536 329.867C297.517 330.124 297.438 330.374 297.304 330.595C297.17 330.816 296.986 331.003 296.766 331.139L259.244 352.893C258.817 353.139 258.475 352.957 258.475 352.497C258.498 352.244 258.58 351.999 258.713 351.782C258.847 351.565 259.028 351.382 259.244 351.247Z" fill="#E0E0E0"/>
<path d="M259.244 326.168L267.647 321.283C268.074 321.037 268.427 321.219 268.427 321.678C268.406 321.938 268.325 322.19 268.189 322.412C268.054 322.635 267.868 322.823 267.647 322.961L259.244 327.836C258.817 328.082 258.475 327.911 258.475 327.451C258.492 327.191 258.57 326.939 258.704 326.716C258.838 326.493 259.023 326.305 259.244 326.168Z" fill="#E0E0E0"/>
<path d="M314.908 268.944C315.617 268.449 316.445 268.151 317.307 268.08C318.168 268.008 319.034 268.167 319.815 268.538L314.865 281.879L314.908 268.944Z" fill="#0084FF"/>
<path d="M309.958 274.29C311.134 272.121 312.836 270.283 314.907 268.945V281.922L309.958 274.29Z" fill="#0084FF"/>
<path d="M306.891 282.542C307.438 279.637 308.476 276.847 309.959 274.29L314.908 281.922L306.891 282.542Z" fill="#0084FF"/>
<path opacity="0.3" d="M309.959 274.29C308.476 276.847 307.438 279.637 306.891 282.542L314.908 281.922V268.945C312.836 270.283 311.134 272.121 309.959 274.29Z" fill="black"/>
<path d="M319.815 268.538C320.626 269.065 321.318 269.755 321.847 270.565C322.375 271.375 322.728 272.287 322.883 273.242L314.865 281.879L319.815 268.538Z" fill="#0084FF"/>
<path d="M306.89 290.559C306.603 289.322 306.463 288.056 306.473 286.786C306.478 285.351 306.618 283.919 306.89 282.51L314.908 281.89L306.89 290.559Z" fill="#0084FF"/>
<path d="M322.926 281.302C322.378 284.207 321.341 286.998 319.858 289.555L314.908 281.922L322.926 281.302Z" fill="#0084FF"/>
<path d="M314.907 294.9C314.19 295.396 313.352 295.691 312.482 295.755C311.612 295.819 310.741 295.649 309.958 295.263L314.907 281.922V294.9Z" fill="#0084FF"/>
<path d="M306.891 290.56L314.908 281.922L309.959 295.263C309.147 294.737 308.455 294.046 307.927 293.236C307.398 292.426 307.045 291.514 306.891 290.56Z" fill="#0084FF"/>
<path d="M322.926 273.285C323.208 274.522 323.345 275.789 323.332 277.058C323.331 278.493 323.195 279.925 322.926 281.334L314.908 281.954L322.926 273.285Z" fill="#0084FF"/>
<path d="M319.815 289.555C318.639 291.723 316.937 293.561 314.865 294.9V281.922L319.815 289.555Z" fill="#0084FF"/>
<path d="M310.706 301.517L319.109 296.642C319.536 296.396 319.878 296.567 319.878 297.027C319.859 297.286 319.78 297.538 319.646 297.76C319.513 297.983 319.328 298.171 319.109 298.31L310.706 303.185C310.279 303.43 309.937 303.259 309.937 302.8C309.955 302.541 310.035 302.289 310.168 302.067C310.302 301.844 310.486 301.655 310.706 301.517Z" fill="#455A64"/>
<path d="M308.846 307.621L320.968 300.608C321.396 300.362 321.738 300.533 321.738 301.004C321.719 301.261 321.64 301.511 321.506 301.732C321.372 301.953 321.188 302.14 320.968 302.276L308.846 309.31C308.418 309.556 308.076 309.385 308.076 308.925C308.09 308.662 308.167 308.405 308.301 308.178C308.435 307.951 308.622 307.76 308.846 307.621Z" fill="#E0E0E0"/>
<path d="M308.846 312.645L320.968 305.611C321.396 305.365 321.738 305.547 321.738 306.006C321.719 306.264 321.64 306.514 321.506 306.735C321.372 306.956 321.188 307.142 320.968 307.278L308.846 314.313C308.418 314.558 308.076 314.387 308.076 313.928C308.093 313.668 308.172 313.416 308.306 313.193C308.44 312.97 308.625 312.782 308.846 312.645Z" fill="#E0E0E0"/>
<path d="M308.846 317.712L320.968 310.678C321.396 310.433 321.738 310.614 321.738 311.074C321.719 311.333 321.64 311.584 321.506 311.807C321.372 312.03 321.188 312.218 320.968 312.357L308.846 319.38C308.418 319.626 308.076 319.455 308.076 318.995C308.095 318.736 308.174 318.485 308.308 318.262C308.442 318.039 308.626 317.851 308.846 317.712Z" fill="#E0E0E0"/>
<path d="M345.3 251.327C346.018 250.831 346.855 250.536 347.725 250.472C348.595 250.408 349.467 250.578 350.249 250.964L345.3 264.262V251.327Z" fill="#0084FF"/>
<path d="M340.35 256.672C341.529 254.506 343.23 252.669 345.299 251.327V264.262L340.35 256.672Z" fill="#0084FF"/>
<path d="M337.293 264.925C337.837 262.021 338.871 259.23 340.35 256.672L345.3 264.305L337.293 264.925Z" fill="#0084FF"/>
<path d="M350.249 250.964C351.061 251.49 351.753 252.181 352.281 252.991C352.81 253.801 353.163 254.713 353.317 255.667L345.3 264.305L350.249 250.964Z" fill="#0084FF"/>
<path d="M337.292 272.943C337.006 271.705 336.866 270.439 336.875 269.169C336.881 267.734 337.02 266.302 337.292 264.893L345.299 264.273L337.292 272.943Z" fill="#0084FF"/>
<path d="M353.317 263.685C352.772 266.59 351.734 269.381 350.249 271.938L345.3 264.262L353.317 263.685Z" fill="#0084FF"/>
<path d="M345.299 277.283C344.581 277.778 343.745 278.074 342.875 278.14C342.005 278.206 341.134 278.039 340.35 277.657L345.299 264.262V277.283Z" fill="#0084FF"/>
<path d="M337.293 272.942L345.3 264.305L340.35 277.657C339.541 277.126 338.852 276.433 338.326 275.621C337.799 274.81 337.448 273.897 337.293 272.942Z" fill="#0084FF"/>
<path opacity="0.3" d="M340.35 256.672C338.87 259.23 337.836 262.021 337.292 264.925C337.02 266.334 336.881 267.766 336.875 269.201C336.866 270.471 337.006 271.737 337.292 272.975C337.447 273.93 337.799 274.842 338.325 275.654C338.851 276.465 339.541 277.158 340.35 277.689L345.299 264.262V251.327C343.23 252.669 341.529 254.506 340.35 256.672Z" fill="black"/>
<path d="M353.317 255.71C353.604 256.947 353.744 258.214 353.734 259.484C353.729 260.919 353.59 262.351 353.317 263.76L345.3 264.38L353.317 255.71Z" fill="#0084FF"/>
<path d="M350.249 271.938C349.077 274.108 347.374 275.947 345.3 277.283V264.262L350.249 271.938Z" fill="#0084FF"/>
<path d="M341.098 283.964L349.511 279.089C349.938 278.843 350.281 279.015 350.281 279.474C350.263 279.734 350.185 279.986 350.051 280.209C349.917 280.432 349.732 280.62 349.511 280.757L341.098 285.642C340.67 285.888 340.328 285.706 340.328 285.247C340.347 284.988 340.426 284.736 340.56 284.514C340.694 284.291 340.878 284.102 341.098 283.964Z" fill="#455A64"/>
<path d="M339.249 290.068L351.361 283.034C351.788 282.788 352.131 282.97 352.131 283.429C352.112 283.689 352.032 283.94 351.899 284.163C351.765 284.386 351.581 284.574 351.361 284.712L339.249 291.736C338.821 291.981 338.469 291.81 338.469 291.351C338.489 291.091 338.571 290.839 338.706 290.617C338.842 290.394 339.028 290.206 339.249 290.068Z" fill="#E0E0E0"/>
<path d="M339.249 295.092L351.361 288.069C351.788 287.823 352.131 287.994 352.131 288.454C352.112 288.713 352.032 288.964 351.899 289.187C351.765 289.41 351.581 289.598 351.361 289.736L339.249 296.76C338.821 297.016 338.469 296.835 338.469 296.375C338.489 296.115 338.571 295.864 338.706 295.641C338.842 295.418 339.028 295.23 339.249 295.092Z" fill="#E0E0E0"/>
<path d="M339.249 300.116L351.361 293.125C351.788 292.879 352.131 293.05 352.131 293.51C352.112 293.769 352.032 294.02 351.899 294.243C351.765 294.466 351.581 294.654 351.361 294.793L339.249 301.827C338.821 302.073 338.469 301.891 338.469 301.431C338.485 301.166 338.564 300.908 338.699 300.679C338.835 300.45 339.024 300.258 339.249 300.116Z" fill="#E0E0E0"/>
<rect width="5.58712" height="20.9781" transform="matrix(0.866026 -0.499999 0 1 207.151 329.392)" fill="#0084FF"/>
<rect width="5.58712" height="20.9781" transform="matrix(0.866026 -0.499999 0 1 226.394 318.702)" fill="#0084FF"/>
<rect width="5.58712" height="15.121" transform="matrix(0.866026 -0.499999 0 1 213.565 331.53)" fill="#0084FF"/>
<rect width="5.58712" height="15.121" transform="matrix(0.866025 -0.5 0 1 232.808 320.84)" fill="#0084FF"/>
<rect width="5.58712" height="12.7409" transform="matrix(0.866026 -0.499999 0 1 219.979 330.461)" fill="#0084FF"/>
<path d="M232.589 354.415L225.335 363.005C225.061 363.329 224.453 363.614 224.008 363.626C223.563 363.638 223.467 363.373 223.799 363.047L232.589 354.415Z" fill="#242424"/>
</svg>
