<svg width="40" height="40" viewBox="0 0 40 40" fill="none" xmlns="http://www.w3.org/2000/svg">
<path d="M31.6667 6.66663C33.0867 6.66663 33.8283 8.30996 32.9717 9.37163L32.845 9.51163L26.525 15.8333L32.845 22.155C33.85 23.1583 33.2117 24.845 31.8567 24.99L31.6667 25H10V35C9.99995 35.4082 9.85008 35.8022 9.57881 36.1072C9.30755 36.4123 8.93376 36.6072 8.52834 36.655L8.33334 36.6666C7.92512 36.6666 7.53111 36.5167 7.22605 36.2454C6.92099 35.9742 6.7261 35.6004 6.67834 35.195L6.66667 35V8.33329C6.66673 7.92507 6.8166 7.53106 7.08786 7.22601C7.35913 6.92095 7.73292 6.72605 8.13834 6.67829L8.33334 6.66663H31.6667Z" fill="#202020"/>
</svg>
